<svg viewBox="0 0 559.9 249.85" xmlns="http://www.w3.org/2000/svg"><g fill="#f0f" transform="translate(-144.12 -180.39)"><path d="m179.77 382.56c3.28-.1 6.51-.45 9.77.85 1.62.66 2.11 2 3.12 3 1.6 1.58 3.52 3 3.64 5.6a1.71 1.71 0 0 1 0 2.06.58.58 0 0 0 0 .43 2.37 2.37 0 0 1 .42 1.53 2.33 2.33 0 0 1 -.42 1.53c-.68 6.46-8.17 11.25-14.05 11-3.48-.13-7.22-2.92-8.16-3.61a21.47 21.47 0 0 1 -4.16-4 6.37 6.37 0 0 1 -1.56-2.39 6.27 6.27 0 0 1 -.36-2.43l.24-2.58c.44-.45.48-1.13.89-1.6.82-5.35 3.14-7.78 8.54-8.48.57-.61 1.52-.32 2.09-.91z"/><path d="m215.61 390c3.29-.11 6.52-.45 9.77.85 1.62.66 2.12 2 3.13 3 1.6 1.58 3.52 3 3.63 5.6a1.7 1.7 0 0 1 0 2.06.58.58 0 0 0 0 .43 2.35 2.35 0 0 1 .41 1.53 2.32 2.32 0 0 1 -.41 1.53c-.68 6.46-8.17 11.25-14 11-3.48-.14-7.22-2.92-8.16-3.61a21.28 21.28 0 0 1 -4.17-4 6.35 6.35 0 0 1 -1.55-2.38 6.11 6.11 0 0 1 -.36-2.44l.24-2.57c.43-.46.47-1.13.88-1.6.83-5.35 3.14-7.78 8.54-8.49.53-.59 1.49-.29 2.05-.91z"/><path d="m253 395.63c3.28-.11 6.52-.45 9.77.85 1.62.65 2.12 2 3.12 3 1.6 1.58 3.53 3 3.64 5.6a1.71 1.71 0 0 1 0 2.06.54.54 0 0 0 0 .43 2.35 2.35 0 0 1 .41 1.53 2.23 2.23 0 0 1 -.42 1.52c-.68 6.47-8.16 11.26-14 11-3.48-.14-7.22-2.92-8.17-3.61a21.47 21.47 0 0 1 -4.16-4 6.12 6.12 0 0 1 -1.55-2.38 6.34 6.34 0 0 1 -.37-2.44l.24-2.57c.44-.46.48-1.13.89-1.6.82-5.35 3.14-7.78 8.54-8.49.53-.61 1.48-.31 2.06-.9z"/><path d="m291.44 398.63c3.29-.11 6.52-.45 9.77.85 1.63.65 2.12 2 3.13 3 1.6 1.58 3.52 3 3.64 5.6a1.71 1.71 0 0 1 0 2.06.58.58 0 0 0 0 .43 2.36 2.36 0 0 1 .42 1.53 2.29 2.29 0 0 1 -.42 1.52c-.68 6.47-8.17 11.26-14.05 11-3.48-.14-7.22-2.92-8.16-3.61a21.18 21.18 0 0 1 -4.16-4 6.23 6.23 0 0 1 -1.56-2.38 6.29 6.29 0 0 1 -.36-2.44l.24-2.57c.43-.46.47-1.13.89-1.6.82-5.35 3.13-7.78 8.53-8.49.57-.61 1.53-.31 2.09-.9z"/><path d="m327.78 401.1c3.29-.11 6.52-.45 9.77.85 1.63.65 2.12 2 3.13 3 1.6 1.58 3.52 3 3.64 5.6a1.71 1.71 0 0 1 0 2.06.56.56 0 0 0 0 .42 2.39 2.39 0 0 1 .42 1.53 2.3 2.3 0 0 1 -.42 1.53c-.68 6.47-8.17 11.26-14.05 11-3.48-.13-7.22-2.91-8.16-3.6a21.18 21.18 0 0 1 -4.16-4 6.23 6.23 0 0 1 -1.56-2.38 6.29 6.29 0 0 1 -.36-2.44l.24-2.58c.43-.45.47-1.12.89-1.59.82-5.35 3.13-7.78 8.53-8.49.57-.62 1.53-.32 2.09-.91z"/><path d="m365.12 401.1c3.29-.11 6.52-.45 9.77.85 1.63.65 2.12 2 3.13 3 1.6 1.58 3.52 3 3.64 5.6a1.73 1.73 0 0 1 0 2.06.51.51 0 0 0 0 .42 2.39 2.39 0 0 1 .42 1.53 2.3 2.3 0 0 1 -.42 1.53c-.68 6.47-8.17 11.26-14.05 11-3.48-.13-7.22-2.91-8.16-3.6a21.18 21.18 0 0 1 -4.16-4 6.23 6.23 0 0 1 -1.56-2.38 6.29 6.29 0 0 1 -.36-2.44l.24-2.58c.43-.45.47-1.12.89-1.59.82-5.35 3.13-7.78 8.53-8.49.57-.62 1.53-.32 2.09-.91z"/><path d="m404.82 403.62c3.28-.1 6.52-.45 9.77.86 1.62.65 2.12 2 3.12 3 1.6 1.58 3.53 3 3.64 5.6a1.73 1.73 0 0 1 0 2.07.51.51 0 0 0 0 .42 2.38 2.38 0 0 1 .41 1.53 2.26 2.26 0 0 1 -.42 1.53c-.68 6.47-8.16 11.25-14 11-3.48-.13-7.22-2.92-8.17-3.6a21.47 21.47 0 0 1 -4.16-4 6.17 6.17 0 0 1 -1.55-2.39 6.3 6.3 0 0 1 -.37-2.43l.24-2.58c.44-.45.48-1.13.89-1.59.82-5.36 3.14-7.78 8.54-8.49.54-.63 1.49-.33 2.06-.93z"/><path d="m674.86 383.16c-3.28-.11-6.52-.45-9.77.85-1.62.66-2.12 2-3.12 3-1.6 1.58-3.53 3-3.64 5.6a1.71 1.71 0 0 0 0 2.06.58.58 0 0 1 0 .43 2.32 2.32 0 0 0 -.42 1.53 2.28 2.28 0 0 0 .42 1.53c.68 6.46 8.16 11.25 14 11 3.48-.13 7.22-2.92 8.17-3.61a21.47 21.47 0 0 0 4.16-4 6.12 6.12 0 0 0 1.55-2.38 6.34 6.34 0 0 0 .37-2.44l-.24-2.57c-.44-.46-.48-1.13-.89-1.6-.82-5.35-3.14-7.78-8.54-8.49-.53-.61-1.48-.32-2.05-.91z"/><path d="m639 390.63c-3.29-.11-6.52-.45-9.77.85-1.63.65-2.12 2-3.13 3-1.6 1.58-3.52 3-3.64 5.6a1.71 1.71 0 0 0 0 2.06.58.58 0 0 1 0 .43 2.36 2.36 0 0 0 -.42 1.53 2.29 2.29 0 0 0 .42 1.52c.68 6.47 8.17 11.26 14 11 3.48-.14 7.22-2.92 8.16-3.61a21.18 21.18 0 0 0 4.16-4 6.23 6.23 0 0 0 1.56-2.38 6.29 6.29 0 0 0 .36-2.44l-.24-2.57c-.43-.46-.47-1.13-.89-1.6-.82-5.35-3.13-7.78-8.53-8.49-.5-.61-1.46-.31-2.04-.9z"/><path d="m601.64 396.23c-3.29-.11-6.52-.45-9.77.85-1.62.65-2.12 2-3.13 3-1.6 1.58-3.52 3-3.64 5.6a1.71 1.71 0 0 0 0 2.06.56.56 0 0 1 0 .42 2.32 2.32 0 0 0 -.41 1.53 2.29 2.29 0 0 0 .41 1.53c.68 6.47 8.17 11.26 14 11 3.48-.13 7.22-2.91 8.16-3.6a21.28 21.28 0 0 0 4.17-4 6.35 6.35 0 0 0 1.55-2.38 6.11 6.11 0 0 0 .36-2.44l-.24-2.57c-.43-.46-.47-1.13-.88-1.6-.83-5.35-3.14-7.78-8.54-8.49-.52-.62-1.48-.32-2.04-.91z"/><path d="m563.18 399.23c-3.28-.11-6.51-.45-9.76.85-1.63.65-2.12 2-3.13 3-1.6 1.58-3.52 3-3.64 5.6a1.71 1.71 0 0 0 0 2.06.56.56 0 0 1 0 .42 2.39 2.39 0 0 0 -.42 1.53 2.3 2.3 0 0 0 .42 1.53c.68 6.47 8.17 11.26 14.05 11 3.48-.13 7.22-2.91 8.16-3.6a21.18 21.18 0 0 0 4.16-4 6.23 6.23 0 0 0 1.56-2.38 6.29 6.29 0 0 0 .36-2.44l-.24-2.57c-.44-.46-.48-1.13-.89-1.6-.82-5.35-3.14-7.78-8.54-8.49-.57-.62-1.52-.32-2.09-.91z"/><path d="m526.84 401.7c-3.28-.11-6.51-.46-9.76.85-1.63.65-2.12 2-3.13 3-1.6 1.58-3.52 3-3.64 5.59a1.73 1.73 0 0 0 0 2.07.51.51 0 0 1 0 .42 2.39 2.39 0 0 0 -.42 1.53 2.32 2.32 0 0 0 .42 1.53c.68 6.47 8.17 11.25 14.05 11 3.48-.13 7.22-2.91 8.16-3.6a21.18 21.18 0 0 0 4.16-4 6.23 6.23 0 0 0 1.56-2.38 6.29 6.29 0 0 0 .36-2.44l-.24-2.58c-.44-.45-.48-1.12-.89-1.59-.82-5.36-3.14-7.78-8.54-8.49-.57-.61-1.52-.32-2.09-.91z"/><path d="m489.5 401.7c-3.28-.11-6.51-.46-9.77.85-1.62.65-2.11 2-3.12 3-1.6 1.58-3.52 3-3.64 5.59a1.73 1.73 0 0 0 0 2.07.56.56 0 0 1 0 .42 2.39 2.39 0 0 0 -.42 1.53 2.32 2.32 0 0 0 .42 1.53c.68 6.47 8.17 11.25 14.05 11 3.48-.13 7.22-2.91 8.16-3.6a21.18 21.18 0 0 0 4.16-4 6.23 6.23 0 0 0 1.56-2.38 6.29 6.29 0 0 0 .36-2.44l-.24-2.58c-.44-.45-.48-1.12-.89-1.59-.82-5.36-3.14-7.78-8.54-8.49-.59-.61-1.52-.32-2.09-.91z"/><path d="m449.81 404.22c-3.29-.1-6.52-.45-9.77.86-1.62.65-2.12 2-3.13 3-1.6 1.58-3.52 3-3.63 5.6a1.71 1.71 0 0 0 0 2.07.56.56 0 0 1 0 .42 2.38 2.38 0 0 0 -.41 1.53 2.31 2.31 0 0 0 .41 1.53c.68 6.47 8.17 11.25 14.05 11 3.48-.13 7.22-2.92 8.16-3.61a21 21 0 0 0 4.17-4 6.41 6.41 0 0 0 1.55-2.39 6.08 6.08 0 0 0 .36-2.43l-.24-2.58c-.43-.45-.47-1.13-.88-1.6-.83-5.35-3.14-7.78-8.54-8.48-.58-.62-1.54-.32-2.1-.92z"/><path d="m165.41 348c3.28-.11 6.51-.45 9.77.85 1.62.65 2.12 2 3.12 3 1.6 1.58 3.53 3 3.64 5.6a1.71 1.71 0 0 1 0 2.06.56.56 0 0 0 0 .42 2.33 2.33 0 0 1 .42 1.53 2.3 2.3 0 0 1 -.36 1.54c-.68 6.47-8.16 11.26-14 11-3.48-.13-7.22-2.91-8.17-3.6a21.47 21.47 0 0 1 -4.16-4 6.12 6.12 0 0 1 -1.67-2.4 6.34 6.34 0 0 1 -.37-2.44l.24-2.58c.44-.45.48-1.12.89-1.59.82-5.36 3.14-7.78 8.54-8.49.59-.59 1.54-.29 2.11-.9z"/><path d="m155.87 312.64c3.29-.1 6.52-.45 9.77.86 1.63.65 2.12 2 3.13 3 1.6 1.58 3.52 3 3.64 5.6a1.72 1.72 0 0 1 0 2.07.56.56 0 0 0 0 .42 3.06 3.06 0 0 1 0 3.06c-.68 6.47-8.17 11.25-14 11-3.48-.13-7.22-2.92-8.16-3.6a21.28 21.28 0 0 1 -4.17-4 6.41 6.41 0 0 1 -1.55-2.39 6.08 6.08 0 0 1 -.36-2.43l.24-2.58c.43-.45.47-1.13.88-1.59.83-5.36 3.14-7.78 8.54-8.49.52-.63 1.48-.33 2.04-.93z"/><path d="m685.6 348c-3.28-.11-6.51-.45-9.77.85-1.62.65-2.11 2-3.12 3-1.6 1.58-3.52 3-3.64 5.6a1.71 1.71 0 0 0 0 2.06.56.56 0 0 1 0 .42 2.39 2.39 0 0 0 -.42 1.53 2.3 2.3 0 0 0 .42 1.53c.68 6.47 8.17 11.26 14.05 11 3.48-.13 7.22-2.91 8.16-3.6a21.18 21.18 0 0 0 4.16-4 6.23 6.23 0 0 0 1.56-2.39 6.29 6.29 0 0 0 .36-2.44l-.24-2.58c-.44-.45-.48-1.12-.89-1.59-.82-5.36-3.14-7.78-8.54-8.49-.57-.59-1.52-.29-2.09-.9z"/><path d="m692 311.55c-3.29-.11-6.52-.45-9.77.85-1.63.65-2.12 2-3.13 3-1.6 1.58-3.52 3-3.64 5.6a1.73 1.73 0 0 0 0 2.06.54.54 0 0 1 0 .43 2.36 2.36 0 0 0 -.46 1.51 2.33 2.33 0 0 0 .42 1.53c.68 6.46 8.17 11.25 14 11 3.48-.14 7.22-2.92 8.16-3.61a21.18 21.18 0 0 0 4.16-4 6.23 6.23 0 0 0 1.56-2.38 6.29 6.29 0 0 0 .36-2.44l-.24-2.57c-.43-.46-.47-1.13-.89-1.6-.82-5.35-3.13-7.78-8.53-8.49-.49-.6-1.45-.3-2-.89z"/><path d="m180.05 228.07c3.28.1 6.51.45 9.77-.86 1.62-.65 2.12-2 3.12-3 1.6-1.58 3.53-3 3.64-5.6a1.73 1.73 0 0 0 0-2.07.56.56 0 0 1 0-.42 2.33 2.33 0 0 0 .42-1.53 2.26 2.26 0 0 0 -.42-1.53c-.68-6.47-8.16-11.25-14-11-3.48.13-7.22 2.92-8.17 3.6a21.47 21.47 0 0 0 -4.16 4 6.17 6.17 0 0 0 -1.55 2.39 6.32 6.32 0 0 0 -.37 2.43l.24 2.58c.44.45.48 1.13.89 1.59.82 5.36 3.14 7.78 8.54 8.49.53.63 1.48.33 2.05.93z"/><path d="m215.89 220.6c3.29.1 6.52.45 9.77-.86 1.63-.65 2.12-2 3.13-3 1.6-1.58 3.52-3 3.64-5.6a1.71 1.71 0 0 0 0-2.06.58.58 0 0 1 0-.43 2.37 2.37 0 0 0 .42-1.53 2.32 2.32 0 0 0 -.42-1.53c-.68-6.47-8.17-11.25-14.05-11-3.48.13-7.22 2.92-8.16 3.61a21.18 21.18 0 0 0 -4.16 4 6.21 6.21 0 0 0 -1.92 4.82l.24 2.58c.43.45.47 1.13.89 1.6.82 5.35 3.13 7.78 8.53 8.48.57.62 1.53.32 2.09.92z"/><path d="m253.27 215c3.29.1 6.52.45 9.77-.85 1.62-.66 2.12-2 3.13-3 1.6-1.58 3.52-3 3.64-5.6a1.71 1.71 0 0 0 0-2.06.58.58 0 0 1 0-.43 3.06 3.06 0 0 0 0-3.06c-.68-6.46-8.17-11.25-14-11-3.48.13-7.22 2.92-8.16 3.61a21.57 21.57 0 0 0 -4.17 4 6.5 6.5 0 0 0 -1.55 2.39 6.08 6.08 0 0 0 -.36 2.43l.24 2.58c.43.45.47 1.13.88 1.6.83 5.35 3.14 7.78 8.54 8.48.52.61 1.48.32 2.04.91z"/><path d="m291.73 212c3.28.1 6.51.45 9.76-.85 1.63-.66 2.12-2 3.13-3 1.6-1.58 3.52-3 3.64-5.6a1.71 1.71 0 0 0 0-2.06.58.58 0 0 1 0-.43 2.37 2.37 0 0 0 .42-1.53 2.33 2.33 0 0 0 -.42-1.53c-.68-6.46-8.17-11.25-14-11-3.48.13-7.22 2.92-8.16 3.61a21.47 21.47 0 0 0 -4.16 4 6.37 6.37 0 0 0 -1.56 2.39 6.27 6.27 0 0 0 -.36 2.43l.24 2.58c.44.45.48 1.13.89 1.6.82 5.35 3.14 7.78 8.54 8.48.52.61 1.47.32 2.04.91z"/><path d="m328.07 209.53c3.28.11 6.51.45 9.76-.85 1.63-.66 2.12-2 3.13-3 1.6-1.58 3.52-3 3.64-5.6a1.71 1.71 0 0 0 0-2.06.54.54 0 0 1 0-.43 2.36 2.36 0 0 0 .42-1.53 2.33 2.33 0 0 0 -.42-1.53c-.68-6.46-8.17-11.25-14.05-11-3.48.14-7.22 2.92-8.16 3.61a21.18 21.18 0 0 0 -4.16 4 6.23 6.23 0 0 0 -1.56 2.38 6.29 6.29 0 0 0 -.36 2.44l.24 2.57c.44.46.48 1.13.89 1.6.82 5.35 3.14 7.78 8.54 8.49.57.62 1.52.32 2.09.91z"/><path d="m365.41 209.53c3.28.11 6.51.45 9.77-.85 1.62-.66 2.11-2 3.12-3 1.6-1.58 3.52-3 3.64-5.6a1.71 1.71 0 0 0 0-2.06.58.58 0 0 1 0-.43 2.36 2.36 0 0 0 .42-1.53 2.33 2.33 0 0 0 -.42-1.53c-.68-6.46-8.17-11.25-14.05-11-3.48.14-7.22 2.92-8.16 3.61a21.18 21.18 0 0 0 -4.16 4 6.23 6.23 0 0 0 -1.56 2.38 6.29 6.29 0 0 0 -.36 2.44l.24 2.57c.44.46.48 1.13.89 1.6.82 5.35 3.14 7.78 8.54 8.49.57.62 1.52.32 2.09.91z"/><path d="m405.1 207c3.29.11 6.52.46 9.77-.85 1.62-.65 2.12-2 3.13-3 1.6-1.58 3.52-3 3.63-5.59a1.71 1.71 0 0 0 0-2.07.56.56 0 0 1 0-.42 2.38 2.38 0 0 0 .41-1.53 2.29 2.29 0 0 0 -.41-1.53c-.68-6.47-8.17-11.25-14-11-3.48.13-7.22 2.91-8.16 3.6a21.28 21.28 0 0 0 -4.17 4 6.35 6.35 0 0 0 -1.55 2.38 6.11 6.11 0 0 0 -.36 2.44l.24 2.58c.43.45.47 1.12.88 1.59.83 5.36 3.14 7.78 8.54 8.49.53.62 1.49.32 2.05.91z"/><path d="m673.14 230.47c-3.28.1-6.51.45-9.77-.86-1.62-.65-2.11-2-3.12-3-1.6-1.58-3.52-3-3.64-5.6a1.73 1.73 0 0 1 0-2.07.55.55 0 0 0 0-.42 2.39 2.39 0 0 1 -.42-1.53 2.32 2.32 0 0 1 .42-1.53c.68-6.47 8.17-11.25 14-11 3.48.13 7.22 2.92 8.16 3.61a21.18 21.18 0 0 1 4.16 4 6.21 6.21 0 0 1 1.92 4.82l-.24 2.58c-.44.45-.48 1.13-.89 1.6-.82 5.35-3.14 7.78-8.54 8.48-.52.62-1.47.32-2.04.92z"/><path d="m639.3 220c-3.29.1-6.52.45-9.77-.85-1.62-.66-2.12-2-3.13-3-1.6-1.58-3.52-3-3.63-5.6a1.7 1.7 0 0 1 0-2.06.58.58 0 0 0 0-.43 2.37 2.37 0 0 1 -.41-1.53 2.32 2.32 0 0 1 .41-1.53c.68-6.46 8.17-11.25 14-11 3.48.13 7.22 2.92 8.16 3.61a21.57 21.57 0 0 1 4.17 4 6.5 6.5 0 0 1 1.55 2.39 6.08 6.08 0 0 1 .36 2.43l-.21 2.57c-.43.45-.47 1.13-.88 1.6-.83 5.35-3.14 7.78-8.54 8.48-.56.62-1.52.33-2.08.92z"/><path d="m601.92 214.4c-3.28.11-6.52.45-9.77-.85-1.62-.66-2.12-2-3.12-3-1.6-1.58-3.53-3-3.64-5.6a1.71 1.71 0 0 1 0-2.06.54.54 0 0 0 0-.43 2.37 2.37 0 0 1 -.39-1.46 2.28 2.28 0 0 1 .42-1.53c.68-6.46 8.16-11.25 14-11 3.48.13 7.22 2.92 8.17 3.61a21.47 21.47 0 0 1 4.16 4 6.12 6.12 0 0 1 1.55 2.38 6.32 6.32 0 0 1 .37 2.43l-.24 2.58c-.44.46-.48 1.13-.89 1.6-.82 5.35-3.14 7.78-8.54 8.49-.56.54-1.51.25-2.08.84z"/><path d="m563.47 211.4c-3.29.11-6.52.45-9.77-.85-1.63-.66-2.12-2-3.13-3-1.6-1.58-3.52-3-3.64-5.6a1.71 1.71 0 0 1 0-2.06.58.58 0 0 0 0-.43 2.37 2.37 0 0 1 -.42-1.53 2.33 2.33 0 0 1 .42-1.53c.68-6.46 8.17-11.25 14.05-11 3.48.13 7.22 2.92 8.16 3.61a21.18 21.18 0 0 1 4.16 4 6.17 6.17 0 0 1 1.92 4.81l-.24 2.58c-.43.46-.47 1.13-.89 1.6-.82 5.35-3.13 7.78-8.53 8.49-.56.61-1.56.32-2.09.91z"/><path d="m527.13 208.93c-3.29.11-6.52.45-9.77-.85-1.63-.65-2.12-2-3.13-3-1.6-1.58-3.52-3-3.64-5.6a1.71 1.71 0 0 1 0-2.06.58.58 0 0 0 0-.43 2.36 2.36 0 0 1 -.42-1.53 2.29 2.29 0 0 1 .42-1.52c.68-6.47 8.17-11.26 14.05-11 3.48.14 7.22 2.92 8.16 3.61a21.18 21.18 0 0 1 4.16 4 6.23 6.23 0 0 1 1.56 2.38 6.29 6.29 0 0 1 .36 2.44l-.24 2.57c-.43.46-.47 1.13-.89 1.6-.82 5.35-3.13 7.78-8.53 8.49-.57.61-1.53.31-2.09.9z"/><path d="m489.79 208.93c-3.29.11-6.52.45-9.77-.85-1.63-.65-2.12-2-3.13-3-1.6-1.58-3.52-3-3.64-5.6a1.73 1.73 0 0 1 0-2.06.54.54 0 0 0 0-.43 2.36 2.36 0 0 1 -.42-1.53 2.29 2.29 0 0 1 .42-1.52c.68-6.47 8.17-11.26 14.05-11 3.48.14 7.22 2.92 8.16 3.61a21.18 21.18 0 0 1 4.16 4 6.23 6.23 0 0 1 1.56 2.38 6.29 6.29 0 0 1 .36 2.44l-.24 2.57c-.43.46-.47 1.13-.89 1.6-.82 5.35-3.13 7.78-8.53 8.49-.57.61-1.53.31-2.09.9z"/><path d="m450.09 206.41c-3.28.1-6.52.45-9.77-.86-1.62-.65-2.12-2-3.12-3-1.6-1.59-3.53-3-3.64-5.6a1.73 1.73 0 0 1 0-2.07.51.51 0 0 0 0-.42 2.38 2.38 0 0 1 -.41-1.53 2.26 2.26 0 0 1 .42-1.53c.68-6.47 8.16-11.25 14-11 3.48.13 7.22 2.91 8.17 3.6a21.47 21.47 0 0 1 4.16 4 6.2 6.2 0 0 1 1.55 2.38 6.37 6.37 0 0 1 .37 2.44l-.24 2.58c-.44.45-.48 1.13-.89 1.59-.82 5.36-3.14 7.78-8.54 8.49-.54.63-1.49.33-2.06.93z"/><path d="m165.69 260.61c3.29.11 6.52.45 9.77-.85 1.62-.65 2.12-2 3.13-3 1.59-1.58 3.52-3 3.63-5.6a1.7 1.7 0 0 0 0-2.06.54.54 0 0 1 0-.43 2.35 2.35 0 0 0 .41-1.53 2.28 2.28 0 0 0 -.41-1.52c-.69-6.47-8.17-11.26-14.05-11-3.48.14-7.22 2.92-8.16 3.61a21.28 21.28 0 0 0 -4.17 4 6.23 6.23 0 0 0 -1.55 2.38 6.11 6.11 0 0 0 -.36 2.44l.23 2.57c.44.46.48 1.13.89 1.6.83 5.35 3.14 7.78 8.54 8.49.58.61 1.54.29 2.1.9z"/><path d="m156.16 298c3.28.11 6.51.46 9.76-.85 1.63-.65 2.12-2 3.13-3 1.6-1.58 3.52-3 3.64-5.59a1.74 1.74 0 0 0 0-2.07.51.51 0 0 1 0-.42 2.39 2.39 0 0 0 .42-1.53 2.32 2.32 0 0 0 -.42-1.53c-.68-6.47-8.17-11.25-14-11-3.48.13-7.22 2.91-8.16 3.6a21.18 21.18 0 0 0 -4.16 4 6.23 6.23 0 0 0 -1.56 2.38 6.29 6.29 0 0 0 -.36 2.44l.24 2.58c.44.45.47 1.12.89 1.59.82 5.36 3.13 7.78 8.54 8.49.52.6 1.47.3 2.04.91z"/><path d="m684.89 262.61c-3.29.11-6.52.45-9.77-.85-1.63-.65-2.12-2-3.13-3-1.6-1.58-3.52-3-3.64-5.6a1.73 1.73 0 0 1 0-2.06.54.54 0 0 0 0-.43 2.36 2.36 0 0 1 -.42-1.53 2.29 2.29 0 0 1 .42-1.52c.68-6.47 8.17-11.26 14-11 3.48.14 7.22 2.92 8.16 3.61a21.18 21.18 0 0 1 4.16 4 6.23 6.23 0 0 1 1.56 2.38 6.29 6.29 0 0 1 .36 2.44l-.24 2.57c-.43.46-.47 1.13-.89 1.6-.82 5.35-3.13 7.78-8.53 8.49-.52.61-1.48.29-2.04.9z"/><path d="m692.27 299.08c-3.29.1-6.52.45-9.77-.86-1.62-.65-2.12-2-3.13-3-1.6-1.58-3.52-3-3.64-5.6a1.71 1.71 0 0 1 0-2.06.58.58 0 0 0 0-.43 3.06 3.06 0 0 1 0-3.06c.68-6.46 8.17-11.25 14-11 3.48.13 7.22 2.92 8.16 3.61a21.57 21.57 0 0 1 4.17 4 6.5 6.5 0 0 1 1.55 2.39 6.08 6.08 0 0 1 .36 2.43l-.24 2.58c-.43.45-.47 1.13-.88 1.6-.83 5.35-3.14 7.78-8.54 8.48-.52.62-1.48.32-2.04.92z"/></g></svg>