<svg viewBox="0 0 708.17 708.17" xmlns="http://www.w3.org/2000/svg"><path d="m362.37 111.88c79.21-2.52 157.17-10.88 235.63 20.62 39.18 15.72 51.12 47.75 75.4 71.77 38.59 38.16 85 73 87.77 135.07 11.49 16.44 11.39 33.05.68 49.79a13.17 13.17 0 0 0 -.37 10.23c8.14 11 10.39 23.6 10 36.91.35 13.31-1.69 26-10.07 36.88-16.41 156-197 271.44-338.83 266.08-83.94-3.17-174.17-70.33-196.92-87a514.62 514.62 0 0 1 -100.4-96.92 150 150 0 0 1 -46.26-116.2q2.88-31.08 5.77-62.17c10.54-10.94 11.47-27.22 21.41-38.49 19.85-129.13 75.69-187.67 206-204.72 13.51-14.73 36.54-7.5 50.19-21.85z" fill="#f0f" transform="translate(-69.61 -91.01)"/><path d="m0 0h708.17v708.17h-708.17z" fill="none"/><path d="m171.33 147.74h373.51v373.51h-373.51z" fill="none"/><g transform="matrix(.75577413 0 0 .75577413 293.64345 282.18945)"><path d="m-163.8101-177.89633h496.17999v496.17999h-496.17999z" fill="none"/><g fill="#001400"><path d="m157.4499-163.23633c11.22 4.55 19.38 12.42 27.81 20.07 8 7.24 11.5 16.31 14.63 25.67 4 12.1 3.94 24.300001 1.62 36.620001a117.46 117.46 0 0 1 -19.25 46.110004 123.65 123.65 0 0 1 -24 26.14c-13.77 11.05-26.55 23.07-41 33.44-9.78 7-18.620005 14.9-27.450005 22.81a62.88 62.88 0 0 0 -13.85 17.22c-4.39 8.25-8.92 16.44-13.75 24.49-7.16 11.940005-8.68 24.780005-8.21 38.000005a15.68 15.68 0 0 0 1 4.68c4.15 11.57 12.11 20.39 24.19 26.06 5.17 2.43 10.46 4.65 15.52 7.27a17.19 17.19 0 0 0 4 1.55c8.650005 1.93 16.840005 5.15 25.680005 6.65 5.18.87 9.29.08 13.13-2.74a123.43 123.43 0 0 0 13.18-11 232.75 232.75 0 0 0 24.71-28.53c4.39-5.92 10.38-10.33 16.49-14.66a14 14 0 0 1 2.1-1.1c10.47-5.1 18.46-2.63 23.33 7.05 3.63 7.21 4.26 14.64 3.72 22.5-1.23 18-10.84 32.55-22.91 46.12a204.94 204.94 0 0 1 -24.76 23.38 113.1 113.1 0 0 1 -36 19.57c-5.62 1.84-11 4.27-17 5.14-12.31 1.77-24.620005 1.21-36.860005-.33-19.53-2.45-38.34-7.41-56.78-13.57-14.14-4.73-25.6899995-12.9-36.3599995-22.14-18.0900005-15.66-27.8500005-34.94-31.2000005-57.12a63.29 63.29 0 0 1 3.08-30.9c5.57-15.940005 11.72-31.650005 21.42-46.060005a222.33 222.33 0 0 1 17.8200005-22.3c15.4499995-17.6 32.2399995-34.15 49.2899995-50.51 9.52-9.13 19-18.3 28.65-27.32a156 156 0 0 0 22.910005-27c2.77-4.11 6.16-7.82 9-11.86 4.73-6.62 4.74-14.000004 4.52-21.440004-.06-2.26-1.62-4-3.84-5.26a95.39 95.39 0 0 1 -9.4-6.200001 22 22 0 0 0 -10.700005-3.82c-3.39-.34-6.79-.68-10.14-1.22a34.63 34.63 0 0 0 -19.81 2.49c-6.41 2.8-12.81 5.640001-19.44 8.000001a32.51 32.51 0 0 0 -11.09 7c-1.46 1.34-2.63 3-4.49 3.93-7.72 7-14.72 14.580004-23.0999995 21.000004-6.75 5.15-13.28 10.52-22.0000005 13.08-12.42 3.63-23.63.65-28.06-8.15a31.57 31.57 0 0 1 -3.13-17.39 60.11 60.11 0 0 1 10.44-28.950005c8.49-12.38 18.49-23.62 31.0000005-32.95 9.15-5.57 18.5299995-10.92 27.8499995-16.3a120.6 120.6 0 0 1 26.09-11.14c.79-.29 1.67-.3 2.47-.58.35-.15.71-.29 1.07-.41.71-.2 1.46-.15 2.17-.34.3-.16.6-.32.88-.5a6.77 6.77 0 0 1 1.4-.62 11.09 11.09 0 0 0 1.5-.41c.52-.15 1-.34 1.54-.49s1.12-.32 1.69-.47a13.18 13.18 0 0 1 1.87-.49c.46-.16.91-.3 1.38-.43 19.12-5.19 38.740005-6.31 58.470005-5 9.77.65 18.44 5.06 27.08 9 3.31 1.54 6.43 3.38 9.88 4.66z"/><path d="m84.199895 317.55368c-10.85 0-20.73-3.27-27.37-12.54-3.19-4.47-4.65-9.27-3.68-14.5a90.73 90.73 0 0 1 2.62-10.16c4-13.1 18.07-18.41 28.33-18.05 7.75.27 15.13 1.69 21.260005 6.4a36.72 36.72 0 0 0 4.28 2.87c9.11 5.17 11.24 12.85 9.18 21.62-3.15 13.36-15.13 24.69-34.620005 24.36z"/><path d="m-38.910105-106.77633c0 4.17-3.76 6.870001-5.2 10.530001-4 10.25-6.07 20.680004-2.95 31.350004 2.8 9.56 10.54 14.31 21.84 13.12a38 38 0 0 0 18.0700005-6.67 263 263 0 0 0 22.8799995-18c2.79-2.420004 4.66-5.570004 7.72-7.780004 1.11-.8 1.85-2.07 3.51-2.17a188.5 188.5 0 0 1 -29.8199995 27.260004 47.06 47.06 0 0 1 -20.8800005 8.85c-10.65 1.71-22.53-1.95-25.14-14.9-3.02-15.100004-.07-29.030004 9.97-41.590005z"/><path d="m157.4499-163.23633c-3.69-.3-6.61-2.28-9.71-3.76-8-3.84-16.11-7.48-25.1-8.78-6.4-.92-12.94-1.87-19.51-.53a19.25 19.25 0 0 1 -3.880005.1 115.19 115.19 0 0 0 -29.16 3.38c-3.09.79-6.29 1.25-9.44 1.86-.54-.31-.56-.64 0-1 7.36-2.78 15.18-3.94 23-4.88a235.68 235.68 0 0 1 34.410005-1.15 36.55 36.55 0 0 1 10.94 1.87 165.49 165.49 0 0 1 26.62 11.53 16.06 16.06 0 0 1 1.83 1.36z"/><path d="m60.599895-171.95633v1h-.94a5.05 5.05 0 0 0 -1 .81l-1.9.08a6.1 6.1 0 0 0 -1 .8l-1.9.08a5.34 5.34 0 0 0 -1 .79c-.8.77-2.15 0-2.93.86h-1c-.53.52-1.46.3-2 .86a102.18 102.18 0 0 0 -24.44 9.89c-9.56 5.53-19.3699995 10.73-28.5999995 16.72a4.83 4.83 0 0 1 -1.85.28c1.25-1.77 3.26-2.77 5.13-3.87 9.48-5.55 18.9999995-11.1 28.5299995-16.53a66.59 66.59 0 0 1 13.2-5.46c7.24-2.15 14.3-4.71 21.7-6.31z"/></g><path d="m7.1298955 189.81368c-4.61-5.72-9.62-11.21-14.22-17-9.3900005-11.73-13.6900005-24.81-15.4300005-38.45-1.3-10.19-1.53-20.51 1.8-30.62 3-9.100005 6.22-18.060005 13.7900005-25.470005 2.75-2.69 4.22-6.08 6.77999997-8.93a284.56 284.56 0 0 1 29.40999953-27.71 74.34 74.34 0 0 0 8.32-8c6.19-7.07 14.23-12.69 21.7-18.74 9-7.29 18.05-14.54999997 26.8-22 4.19-3.6 8.39-7.2 12.88-10.52 10.640005-7.86 20.600005-16.35 28.470005-26.11 12.56-15.58 20.25-32.58 17.24-51.840004-1.29-8.240001-6.57-14.810001-13.22-20.650001-7-6.17-15.73-10.48-24.8-14.26a44.14 44.14 0 0 0 -12.710005-3.08c-13.76-1.33-27.14-.58-40.36 3.41-13.86 4.19-25.28 11.11-35.75 19.41-3.46 2.74-6.84 5.59-10.6099995 8a193.16 193.16 0 0 0 -27.1800005 21.640001 51.39 51.39 0 0 1 -8.19 5.590004c-1.89 1.17-3 .79-4.52-.39-3.56-2.850004-5.17-6.240004-4.54-10.320004a18.2 18.2 0 0 1 1.6-5.1c1.72-3.55 4.31-6.74 6.37-10.130001 10.06-16.62 27.8500005-27.12 44.33-38.65a103.92 103.92 0 0 1 14.88-9.25c9.29-4.46 19.29-6.93 29.61-8.41 20-2.91 40.08-4.58 60.420005-3.94 10.05.31 19.19 2.21 26.95 7.92a86.31 86.31 0 0 0 12.1 7.18c11.76 6 19.52 14.43 23.48 25.22 3.54 9.65 8 19.16 7.09 29.580001a46.76 46.76 0 0 1 -3.3 14.200004 133.42 133.42 0 0 1 -31.13 45.75 394.94 394.94 0 0 1 -36 30.63 179.93 179.93 0 0 0 -21.500005 18.29c-6.44 6.65-13.69 12.73-20.23 19.27-15.28 15.28-29.64 31-37.92 50.07-4.51 10.35-9.75 20.440005-11.87 31.410005-1.4 7.28-1.21 14.63-2.1 21.92-.36 2.9.78 5.83 2.39 8.49a48.86 48.86 0 0 0 16.22 16.64c3.55 2.21 7 4.49 10.47 6.79a103.62 103.62 0 0 0 33.51 14.95c7.32 1.75 14.230005 4.63 21.880005 5.46 17.22 1.86 33.68-.13 48.84-7.38a47.6 47.6 0 0 0 17.67-14.33c7.68-10.07 16.28-19.6 27.54-27.23 5.36-3.63 6.08-4.16 8.65 2.21 1.11 2.75.51 5.5-.46 8.22-1.06 3-2 5.92-3 8.9a27.84 27.84 0 0 1 -6.69 10.91 220.93 220.93 0 0 1 -42.83 34.75c-2.13 1.33-4.36 2.56-6.3 4.06-8.58 6.63-19.21 8.47-30.41 9-15 .67-29.730005-.86-44.420005-3.06-14.36-2.68-27.2-8.67-40.9-12.77-8.53-2.55-16.18-6.36-23.91-10.12a16 16 0 0 1 -6.6899995-5.41z" fill="#fff8ff"/><path d="m49.919895-167.49633c.71-1 1.86-.83 2.93-.86-.71 1.07-1.86.84-2.93.86z" fill="#001400"/><path d="m46.999895-166.61633a2.08 2.08 0 0 1 2-.86 2.12 2.12 0 0 1 -2 .86z" fill="#001400"/><path d="m58.689895-170.10633 1-.81z" fill="#001400"/><path d="m55.769895-169.22633 1-.8z" fill="#001400"/><path d="m52.849895-168.35633 1-.79z" fill="#001400"/><path d="m83.889895 305.33368a23.85 23.85 0 0 1 -17.51-9.69c-2-2.54-1.06-5.66.78-8.08 8.75-11.44 19.23-17.67 34.240005-8.91 1.61.94 3.19 1.55 3.28 3.66.37 8.47-6.700005 18.5-15.630005 21.79a40.57 40.57 0 0 1 -5.16 1.23z" fill="#fff8ff"/></g></svg>