<svg viewBox="0 0 708.17 708.17" xmlns="http://www.w3.org/2000/svg"><path d="m362.37 111.88c79.21-2.52 157.17-10.88 235.63 20.62 39.18 15.72 51.12 47.75 75.4 71.77 38.59 38.16 85 73 87.77 135.07 11.49 16.44 11.39 33.05.68 49.79a13.17 13.17 0 0 0 -.37 10.23c8.14 11 10.39 23.6 10 36.91.35 13.31-1.69 26-10.07 36.88-16.41 156-197 271.44-338.83 266.08-83.94-3.17-174.17-70.33-196.92-87a514.62 514.62 0 0 1 -100.4-96.92 150 150 0 0 1 -46.26-116.2q2.88-31.08 5.77-62.17c10.54-10.94 11.47-27.22 21.41-38.49 19.85-129.13 75.69-187.67 206-204.72 13.51-14.73 36.54-7.5 50.19-21.85z" fill="#f0f" transform="translate(-69.61 -91.01)"/><path d="m0 0h708.17v708.17h-708.17z" fill="none"/><path d="m171.33 147.74h373.51v373.51h-373.51z" fill="none"/><g transform="translate(-69.61 -91.01)"><path d="m377.15 368.43c-.5-23.45-1.36-46.89-1.35-70.33 0-11.48 2-22.94 8.2-33 5.47-8.87 13.74-14.71 23-18.73a50.3 50.3 0 0 1 67.72 29.34c5.42 15.29 6.07 30.64 4.82 46.46-.74 9.37-.26 18.84-.06 28.26.49 23.47.07 46.87-2.61 70.24-.86 7.41.37 15.05-.42 22.48-1.5 14.13-8.11 26-18.77 35.24-7.7 6.69-17.43 7.73-27.24 8.27-13.76.76-25.8-4-37-11.36a24.4 24.4 0 0 1 -7.4-8.08c-6-10.42-9.48-21.54-9.12-33.84.37-12.6-.07-25.22-.12-37.83 0-9 0-18.08 0-27.12zm41.85 95.07c-14-6.11-22.7-17.07-28.48-30.73 1.33 15.93 15.34 30.46 28.48 30.73zm7.21-205.5c3.83 1.22 7.75 2.21 11.47 3.72s7.45 3.59 11.16 5.42c-6.24-6.25-13.72-9.47-22.63-9.14z" fill="#fff8ff" stroke="#001400" stroke-miterlimit="10" stroke-width="9"/><path d="m408.71 572.14c.25-11.17.58-21.61.59-32 0-1.09-1.6-2.84-2.78-3.18-6.35-1.81-12.76-3.58-19.25-4.81-14.35-2.73-26.55-9.61-37.22-19.2-14.39-12.91-23.25-29.41-27.24-48-1.91-8.94-.91-18.53-1-27.82s.21-18.36.18-27.54c0-2.44.71-3.39 3.24-3.42q14.72-.16 29.44-.65c2.91-.1 3.24 1.12 3.19 3.66-.23 11.46-.43 22.93-.24 34.39.22 12.43 5.38 23.43 12.38 33.49 3.38 4.9 7.61 9.22 11.59 13.68a11.68 11.68 0 0 0 4.24 3.17c21.06 8.12 42.64 12.15 65.07 7 5.91-1.36 12-3.22 17.1-6.39 4.59-2.87 8.24-7.55 11.65-11.93 8.55-11 11.86-23.85 13.91-37.47 1.84-12.22 4.45-24.29 3.8-36.74-.11-2.09.93-2.59 2.78-2.6 10.46-.05 20.91-.23 31.37-.14 1 0 2.86 1.58 2.85 2.41-.14 14.51 1.39 29.4-1.34 43.44a159 159 0 0 1 -17.64 47.39 62.78 62.78 0 0 1 -28.7 26.84c-10.44 5-20.38 11.14-32.08 13-.37.06-.73.21-1.11.28-7 1.31-7.07 1.31-7.24 8.38-.17 7.26-.12 14.54-.4 21.8-.11 2.93.88 3.68 3.72 3.6 12.74-.35 25.48-.49 38.22-.72 5.37-.1 5.43-.12 5.39 5.42-.05 8.55-.17 17.09-.28 25.63-.07 5.13-.09 5.17-5.17 5.13-30.86-.21-61.72-.49-92.58-.62-10.59-.05-21.17.18-31.75.45-2.54.07-3.82-.44-3.76-3.26.18-9.31.25-18.62.29-27.93 0-2.7.9-3.6 3.85-3.63 14.72-.2 29.47-.7 44.93-1.11z" fill="#fff8ff" stroke="#001400" stroke-miterlimit="10" stroke-width="9"/><g fill="#001400"><path d="m419 463.5c-13.18-.27-27.19-14.8-28.48-30.73 5.82 13.66 14.48 24.62 28.48 30.73z"/><path d="m426.21 258c8.91-.35 16.39 2.87 22.63 9.14-3.71-1.83-7.34-3.88-11.16-5.42s-7.68-2.48-11.47-3.72z"/></g></g></svg>