<svg viewBox="0 0 692.69 630.43" xmlns="http://www.w3.org/2000/svg"><path d="m362.37 111.88c79.21-2.52 157.17-10.88 235.63 20.62 39.18 15.72 51.12 47.75 75.4 71.77 38.59 38.16 85 73 87.77 135.07 11.49 16.44 11.39 33.05.68 49.79a13.17 13.17 0 0 0 -.37 10.23c8.14 11 10.39 23.6 10 36.91.35 13.31-1.69 26-10.07 36.88-16.41 156-197 271.44-338.83 266.08-83.94-3.17-174.17-70.33-196.92-87a514.62 514.62 0 0 1 -100.4-96.92 150 150 0 0 1 -46.26-116.2q2.88-31.08 5.77-62.17c10.54-10.94 11.47-27.22 21.41-38.49 19.85-129.13 75.69-187.67 206-204.72 13.51-14.73 36.54-7.5 50.19-21.85z" fill="#f0f" transform="translate(-78.85 -108.98)"/><path d="m166.11 129.61h373.82v373.82h-373.82z" fill="none"/><g transform="translate(-78.85 -108.98)"><g fill="#fff8ff" stroke="#001400" stroke-miterlimit="10" stroke-width="7"><path d="m482 484.71c7.29 7.65 14.51 15.32 21.86 22.87 2.33 2.39.37 3.89-1 5-4.68 3.68-9.27 7.65-14.46 10.43-11.6 6.22-23 13.2-36.27 15.46-2.61.45-5.23.78-8.88 1.32 0 10.27-.06 20.54.14 30.8 0 .65 2.13 1.8 3.26 1.79 12.7-.08 25.41-.33 38.11-.58 5.62-.11 5.67-.14 5.64 5.54-.06 8.65-.35 17.29-.22 25.94.05 3.77-1.42 4.71-5 4.68q-51.51-.48-103-.68c-7.12 0-14.25.15-21.36.45-2.63.11-3.71-.64-3.66-3.35q.26-13.92.29-27.85c0-2.79 1.07-3.5 3.92-3.54 14.71-.18 29.42-.68 44.64-1.08.29-9.12.72-17.72.8-26.31s-.1-8.44-8.39-10.46c-10.93-2.68-22.24-4.13-32.34-9.66-14.17-7.77-26.21-17.55-34-32.25-5-9.47-10.67-18.71-11.94-29.45-1.05-8.79-.62-17.76-.66-26.66 0-9.15.22-18.31.19-27.46 0-2.44.73-3.37 3.24-3.39q14.69-.17 29.36-.66c2.91-.1 3.23 1.14 3.18 3.66-.23 11.43-.44 22.87-.25 34.29.21 12.51 5.37 23.44 12.3 33.49 3.36 4.88 7.55 9.22 11.56 13.63a14.08 14.08 0 0 0 4.93 3.47c18.22 7.33 37.26 10.9 56.7 8.12 14.87-2.14 29.03-7.35 41.31-17.56z"/><path d="m581.74 531.67c-5.76 5.78-12.24 12.39-18.92 18.8-.53.5-2.82 0-3.63-.77-3.8-3.57-7.32-7.42-11-11.1q-131.43-130.83-262.91-261.6c-2.43-2.41-2.76-4-.16-6.48 6.15-5.84 12.08-11.92 18.62-18.41 45.68 47.4 93.13 92.65 139.29 139.19s92.24 93.33 138.71 140.37z"/><path d="m473.13 410.07c-1.35-1.23-2.2-1.93-3-2.72-17.12-17.56-34.11-35.27-51.41-52.66-11.73-11.81-23.92-23.16-35.85-34.77-2.18-2.13-3.89-4.78-6.21-6.72-4-3.38-5.12-7.36-4.23-12.46 1.21-7 1.72-14.13 2.87-21.15 3.11-19.06 14.38-30.65 33-35 21.17-4.88 40.21-.61 54.88 15.87 9.22 10.37 13.93 23.41 14.14 37.45.18 12.56-.47 25.15-1 37.71-.56 13.2-1.55 26.38-2.07 39.57-.37 9.53-.25 19.07-.44 28.6.05 1.89-.36 3.74-.68 6.28zm-26-145.44c-7.07-6.24-14.61-9.25-23.34-9.45z"/><path d="m375.18 378.39c3.45 3.45 6.4 6.37 9.32 9.32q30.36 30.81 60.69 61.64c6.05 6.17 11.82 12.6 17.86 18.77 2.18 2.22 1.72 3.73-.3 5.66-8.09 7.71-17.52 11.76-28.84 11.76-13.51 0-26.54-1.62-38.74-8-7.69-4-12.13-10.34-15.16-18.25-5.43-14.15-4.84-28.95-5.26-43.63-.32-11 0-22.08 0-33.13.03-1.16.25-2.35.43-4.14zm41.4 85.08c-14-6.06-22.8-16.91-28.45-30.67.77 15.79 16.11 31.2 28.45 30.67z"/><path d="m532.05 425.52c-.3 6.18-.12 12.42-1 18.52-.69 4.61-2.52 9.12-4.3 13.51-1.26 3.11-2.86 3.24-5.66.7-4.64-4.23-9.14-8.59-13.64-12.95-3.62-3.5-7.29-7-10.63-10.7a9.06 9.06 0 0 1 -2.35-5.31c-.19-6.9.13-13.81.11-20.71 0-2 .76-2.71 2.88-2.71 10.28 0 20.57-.09 30.85-.27 2.54-.05 3.41.93 3.39 3.14v16.78z"/></g><path d="m447.11 267.56-23.34-9.45c8.73.2 16.23 3.21 23.34 9.45z" fill="#001400"/><path d="m416.58 463.47c-12.34.52-27.68-14.88-28.45-30.67 5.65 13.76 14.45 24.61 28.45 30.67z" fill="#001400"/></g></svg>