<svg viewBox="0 0 2346.36 1980.5" xmlns="http://www.w3.org/2000/svg"><path d="m0 0h150.88v150.88h-150.88z" fill="none"/><g transform="translate(-263.59 -59.45)"><path d="m292.94 153.81c-.43-.57-.83-1.12-1.24-1.65a16.13 16.13 0 0 1 -3.42-8.56c-.14-1.59-.49-3.17-.68-4.76a27.62 27.62 0 0 1 -.11-3c0-.51-.14-.71-.67-.73-1.94-.08-3.87-.18-5.8-.32a5.33 5.33 0 0 1 -1.62-.39 1.34 1.34 0 0 1 .52-2.58c.81 0 1.63 0 2.44.08 1.47.07 2.94.14 4.4.23.43 0 .62-.07.63-.56a7.41 7.41 0 0 1 1.12-3.37 25 25 0 0 0 2.86-6.94c.57-2.68 1.41-5.3 2.16-7.94.12-.44.09-.61-.36-.82-2.24-1.09-4.47-2.22-6.68-3.37-2-1-4-2.14-6-3.23a4 4 0 0 1 -.78-.5 1.51 1.51 0 0 1 -.44-2 1.48 1.48 0 0 1 1.91-.5c.73.3 1.44.68 2.14 1l9.47 4.81 2.15 1.12a21.63 21.63 0 0 1 12.92-12.52c-.2-.3-.38-.54-.53-.8-2.18-3.86-4.37-7.71-6.53-11.58-.52-1-.95-2-1.38-3a1.46 1.46 0 0 1 1-2.19 1.56 1.56 0 0 1 1.69 1c.67 1.33 1.31 2.68 2 4 1.72 3.11 3.48 6.21 5.23 9.31.36.64.74 1.27 1.07 1.92.18.35.4.18.64.13 2.25-.56 4.49-1.2 6.76-1.61a10.9 10.9 0 0 0 3.73-1.34 7.48 7.48 0 0 1 3.38-1.14 3.56 3.56 0 0 0 1-.25c1-.43 2-.9 3.11-1.38a100.9 100.9 0 0 1 -.81-13.65 3.59 3.59 0 0 1 .09-.92 1.37 1.37 0 0 1 1.4-1.07 1.39 1.39 0 0 1 1.29 1.26 6.5 6.5 0 0 1 .13 1.09c.14 2.92.27 5.84.41 8.75.07 1.45.16 2.9.21 4.35 0 .36.14.41.45.41 3.52.08 7.05.09 10.56.29 2.76.16 5.51.55 8.26.84.63.07 1.27.13 1.9.23.34.06.47-.08.61-.36q2.84-5.56 5.7-11.1c.7-1.34 1.44-2.65 2.2-4a4.83 4.83 0 0 1 .95-1.16 1.35 1.35 0 0 1 1.68-.07 1.39 1.39 0 0 1 .54 1.54 3.53 3.53 0 0 1 -.28.7c-1.45 2.6-2.94 5.18-4.37 7.8-1.22 2.24-2.4 4.51-3.59 6.76-.07.14-.11.29-.2.53l1 .22a19 19 0 0 1 6.05 2.18 24.52 24.52 0 0 1 4.19 3.82c2.37 2.44 4.69 4.94 7 7.42a.49.49 0 0 0 .77.08c3-2 5.89-4.14 8.94-6.06 2.56-1.62 5.27-3 7.92-4.51a1.63 1.63 0 0 1 1.86 0 1.37 1.37 0 0 1 .55 1.38 1.69 1.69 0 0 1 -.95 1.25c-2.34 1.32-4.73 2.57-7 4-2.13 1.29-4.17 2.74-6.25 4.11l-3.07 2-.4.25c1 1.15 2 2.24 2.84 3.41a21.42 21.42 0 0 1 3.21 5.56 7.62 7.62 0 0 1 .34 1.35 20 20 0 0 0 1.73 5.09 6.31 6.31 0 0 1 .25 5.17 3.81 3.81 0 0 0 -.15.44v.26c1.57.1 3.15.18 4.73.29 3.59.25 7.18.52 10.77.79a3.91 3.91 0 0 1 1 .24 1.49 1.49 0 0 1 1 1.45 1.44 1.44 0 0 1 -1 1.4 3.66 3.66 0 0 1 -1.14.17c-2.42-.08-4.84-.14-7.25-.3s-4.7-.45-7.05-.67c-.36 0-.72 0-1.05 0 .18.89.4 1.73.52 2.57a10.64 10.64 0 0 1 -1.35 7.1 4.56 4.56 0 0 0 -.41 1.79 17.39 17.39 0 0 1 -1.48 5.7c-1.18 2.48-2.53 4.87-3.82 7.3l-.27.49.62.36c2.54 1.4 5.1 2.78 7.61 4.22 2.12 1.21 4.2 2.48 6.26 3.78a9.49 9.49 0 0 1 1.66 1.44 1.06 1.06 0 0 1 .17 1.34 1.15 1.15 0 0 1 -1.27.61 8.24 8.24 0 0 1 -3-1.09c-4.39-2.61-8.8-5.19-13.21-7.78-.17-.11-.37-.19-.56-.29-5.47 7.07-12.47 11.95-20.47 15.63.89 1.39 1.8 2.78 2.68 4.19s1.65 2.8 2.54 4.17c1.35 2.09 2.76 4.15 4.15 6.22.28.42.59.81.86 1.23a1.61 1.61 0 0 1 -.22 2.25 1.58 1.58 0 0 1 -2.25-.46c-.84-1.09-1.7-2.16-2.46-3.31-2.32-3.5-4.59-7-6.88-10.55-.54-.84-1.1-1.68-1.67-2.55l-2.74 1a33.23 33.23 0 0 1 -11.1 2.25 17.68 17.68 0 0 1 -6.32-1 9.51 9.51 0 0 0 -1.16-.23v.65c.09 2.9.2 5.8.26 8.71a15.08 15.08 0 0 1 -.5 4.48c-.21.74-.54 1.13-1.11 1.17a1.18 1.18 0 0 1 -1.28-1 12.48 12.48 0 0 1 -.39-2.57c-.13-3.63-.2-7.27-.28-10.91 0-1.18 0-1.19-1.15-1.56a50.61 50.61 0 0 1 -12.79-6.36c-1.58-1.08-3.27-2-4.94-3a3.81 3.81 0 0 0 -.27.37c-1.43 2.55-2.9 5.08-4.27 7.66-1.25 2.34-2.37 4.74-3.6 7.09-.75 1.42-1.59 2.79-2.4 4.17a1.16 1.16 0 0 1 -1.42.62 1.09 1.09 0 0 1 -.76-1.33 13.38 13.38 0 0 1 .89-3.34c1.63-3.36 3.36-6.67 5.12-10 1.26-2.37 2.63-4.69 4-7.06a1.65 1.65 0 0 0 -.22-.24c-1.13-.94-2.32-1.81-3.4-2.81-2-1.89-4-3.84-5.94-5.79-.62-.63-1.14-1.36-1.7-2.05-.2-.25-.34-.34-.66-.15q-8.71 5.12-17.44 10.2c-1.34.78-2.66 1.58-4 2.31a6.94 6.94 0 0 1 -1.7.57 1.15 1.15 0 0 1 -1.48-.6 1.12 1.12 0 0 1 .29-1.42 11.44 11.44 0 0 1 1.45-1.15c3.18-2 6.34-4.1 9.56-6.06 2.32-1.42 4.73-2.7 7.11-4zm45.93 25.42a35.89 35.89 0 0 0 10.13-2.14c1.5-.58 3-1.25 4.48-1.77a44.29 44.29 0 0 0 13.18-7.45 32.78 32.78 0 0 0 5.36-4.69c.78-.94 1.61-1.84 2.36-2.8a24.93 24.93 0 0 0 1.83-2.61c.73-1.21 1.36-2.47 2.07-3.69a28.1 28.1 0 0 0 3.49-8.75 20.77 20.77 0 0 1 1.19-4.65 4.3 4.3 0 0 0 .4-1.14 9.29 9.29 0 0 0 -.56-5.63 4.56 4.56 0 0 1 -.08-4c.17-.39.29-.8.46-1.19a4.73 4.73 0 0 0 -.07-3.88 24.94 24.94 0 0 1 -1.56-4.36 16.83 16.83 0 0 0 -2.53-5.86 48.09 48.09 0 0 0 -5.65-6.84c-1.61-1.74-3.32-3.4-5-5.13-1.44-1.51-2.82-3.08-4.27-4.58a11.23 11.23 0 0 0 -4.9-3c-.72-.21-1.5-.22-2.21-.44a50.74 50.74 0 0 0 -9.15-1.56 122.07 122.07 0 0 0 -18.14-.74 8.64 8.64 0 0 0 -2.32.64 12 12 0 0 1 -2 .74 11.15 11.15 0 0 0 -3.81 1.32 7.24 7.24 0 0 1 -1.74.76c-2.35.55-4.74 1-7.07 1.57a31.74 31.74 0 0 0 -8.37 3.4 19.45 19.45 0 0 0 -4.87 4 25.27 25.27 0 0 0 -4.32 8.29 73.18 73.18 0 0 0 -2.34 8.5 28.88 28.88 0 0 1 -3.19 7.67 4.5 4.5 0 0 0 -.67 1.78 42.37 42.37 0 0 0 0 6c.19 2.14.72 4.23 1 6.36a16.14 16.14 0 0 0 3.53 8c.89 1.1 1.73 2.23 2.6 3.35a64.49 64.49 0 0 0 7.42 7.9 54.31 54.31 0 0 0 6.33 4.9c1.11.75 2.2 1.52 3.34 2.22 1 .6 2.06 1.06 3 1.69a50.17 50.17 0 0 0 12.11 5.8 31.87 31.87 0 0 0 6.84 1.49c1.26.13 2.48.35 3.7.52z" fill="#001400"/><path d="m338.87 179.23c-1.22-.17-2.44-.39-3.67-.5a31.87 31.87 0 0 1 -6.84-1.49 50.17 50.17 0 0 1 -12.11-5.8c-1-.63-2-1.09-3-1.69-1.14-.7-2.23-1.47-3.34-2.22a54.31 54.31 0 0 1 -6.33-4.9 64.49 64.49 0 0 1 -7.42-7.9c-.87-1.12-1.71-2.25-2.6-3.35a16.14 16.14 0 0 1 -3.53-8c-.31-2.13-.84-4.22-1-6.36a42.37 42.37 0 0 1 0-6 4.5 4.5 0 0 1 .72-1.81 28.88 28.88 0 0 0 3.19-7.67 73.18 73.18 0 0 1 2.34-8.5 25.27 25.27 0 0 1 4.32-8.29 19.45 19.45 0 0 1 4.87-4 31.74 31.74 0 0 1 8.37-3.4c2.33-.62 4.72-1 7.07-1.57a7.24 7.24 0 0 0 1.74-.76 11.15 11.15 0 0 1 3.81-1.32 12 12 0 0 0 2-.74 8.64 8.64 0 0 1 2.32-.64 122.07 122.07 0 0 1 18.14.74 50.74 50.74 0 0 1 9.15 1.56c.71.22 1.49.23 2.21.44a11.23 11.23 0 0 1 4.9 3c1.45 1.5 2.83 3.07 4.27 4.58 1.65 1.73 3.36 3.39 5 5.13a48.09 48.09 0 0 1 5.65 6.84 16.83 16.83 0 0 1 2.53 5.86 24.94 24.94 0 0 0 1.56 4.36 4.73 4.73 0 0 1 .07 3.88c-.17.39-.29.8-.46 1.19a4.56 4.56 0 0 0 .08 4 9.29 9.29 0 0 1 .56 5.63 4.3 4.3 0 0 1 -.4 1.14 20.77 20.77 0 0 0 -1.19 4.65 28.1 28.1 0 0 1 -3.49 8.75c-.71 1.22-1.34 2.48-2.07 3.69a24.93 24.93 0 0 1 -1.83 2.61c-.75 1-1.58 1.86-2.36 2.8a32.78 32.78 0 0 1 -5.36 4.69 44.29 44.29 0 0 1 -13.18 7.45c-1.52.52-3 1.19-4.48 1.77a35.89 35.89 0 0 1 -10.21 2.15zm22-32.54a7 7 0 0 0 -1.46-4.85 31.76 31.76 0 0 0 -2.94-3.2c-1.72-1.63-3.91-2.08-6.19-2.27a7 7 0 0 0 -5.21 1.71 3.56 3.56 0 0 0 -1.53 2.12.68.68 0 0 1 -.19.34 12.9 12.9 0 0 0 -2.61 4.81 7 7 0 0 0 -.42 3.2 11.7 11.7 0 0 0 5.48 9.12 7.78 7.78 0 0 0 7.33.82 10.7 10.7 0 0 0 6.21-5.57 14.18 14.18 0 0 0 1.57-6.23zm-57.45-10.48a7.34 7.34 0 0 0 .8 3.82c1.37 2.33 5.35 4.19 8 3.6a7.31 7.31 0 0 0 5.23-4.51 18.42 18.42 0 0 0 .63-1.81c1-3-.53-7.41-4-8.74a8.42 8.42 0 0 0 -6.07.05 4.75 4.75 0 0 0 -3.05 3 1.06 1.06 0 0 1 -.24.39 5.32 5.32 0 0 0 -1.26 4.2zm40.25-25v-.14c-.7.19-1.57.2-2.05.63a21.13 21.13 0 0 0 -2.11 1.73 8.06 8.06 0 0 0 -2 6.52 7.93 7.93 0 0 0 6.72 6.75 5.21 5.21 0 0 0 4-.92c2.65-2.07 4.09-4.75 3.53-8.19a6.18 6.18 0 0 0 -2.54-4.58 10.23 10.23 0 0 0 -5.51-1.81z" fill="none"/><g fill="#001400"><path d="m360.91 146.69a14.18 14.18 0 0 1 -1.53 6.23 10.7 10.7 0 0 1 -6.21 5.57 7.78 7.78 0 0 1 -7.33-.82 11.7 11.7 0 0 1 -5.48-9.12 7 7 0 0 1 .42-3.2 12.9 12.9 0 0 1 2.61-4.81.68.68 0 0 0 .19-.34 3.56 3.56 0 0 1 1.53-2.12 7 7 0 0 1 5.21-1.71c2.28.19 4.47.64 6.19 2.27a31.76 31.76 0 0 1 2.94 3.2 7 7 0 0 1 1.46 4.85zm-4.2 1.15c0-.31 0-.62 0-.93a7 7 0 0 0 -3.48-6.41 5.21 5.21 0 0 0 -5.16-.31 9.79 9.79 0 0 0 -2.25 1.89 12.24 12.24 0 0 0 -2.19 4 4.71 4.71 0 0 0 -.35 2.61 8.87 8.87 0 0 0 1.53 4.09c2.11 2.89 5.21 4.19 8.36 2.34a5.63 5.63 0 0 0 2.92-3.16 10.09 10.09 0 0 0 .62-4.12z"/><path d="m303.46 136.21a5.32 5.32 0 0 1 1.33-4.23 1.06 1.06 0 0 0 .24-.39 4.75 4.75 0 0 1 3.05-3 8.42 8.42 0 0 1 6.07-.05c3.44 1.33 5 5.71 4 8.74a18.42 18.42 0 0 1 -.63 1.81 7.31 7.31 0 0 1 -5.23 4.51c-2.65.59-6.63-1.27-8-3.6a7.34 7.34 0 0 1 -.83-3.79zm3.43.18a4.18 4.18 0 0 1 0 .47 2.54 2.54 0 0 0 1.63 2.56 12 12 0 0 0 2.14.72 2.51 2.51 0 0 0 2.25-.61 5.28 5.28 0 0 0 2-3.82 3.69 3.69 0 0 0 -3.92-4.29 4.57 4.57 0 0 0 -4.1 4.97z"/><path d="m343.71 111.2a10.23 10.23 0 0 1 5.55 1.8 6.18 6.18 0 0 1 2.54 4.58c.56 3.44-.88 6.12-3.53 8.19a5.21 5.21 0 0 1 -4 .92 7.93 7.93 0 0 1 -6.72-6.75 8.06 8.06 0 0 1 2-6.52 21.13 21.13 0 0 1 2.11-1.73c.48-.43 1.35-.44 2.05-.63zm-.21 3.13c-.42.1-1 .06-1.23.32-1.74 1.92-2.91 5-.32 7.63a4.15 4.15 0 0 0 3.43 1.21 1.85 1.85 0 0 0 1-.45 5.38 5.38 0 0 0 2.07-4.18 3.72 3.72 0 0 0 -2.12-3.8 7.65 7.65 0 0 0 -2.83-.73z"/><path d="m356.71 147.84a10.09 10.09 0 0 1 -.62 4.11 5.63 5.63 0 0 1 -2.92 3.16c-3.15 1.85-6.25.55-8.36-2.34a8.87 8.87 0 0 1 -1.53-4.09 4.71 4.71 0 0 1 .35-2.61 12.24 12.24 0 0 1 2.19-4 9.79 9.79 0 0 1 2.25-1.89 5.21 5.21 0 0 1 5.16.31 7 7 0 0 1 3.48 6.41c.01.32 0 .63 0 .94z"/><path d="m306.89 136.39a4.57 4.57 0 0 1 4.05-5 3.69 3.69 0 0 1 3.92 4.29 5.28 5.28 0 0 1 -2 3.82 2.51 2.51 0 0 1 -2.25.61 12 12 0 0 1 -2.14-.72 2.54 2.54 0 0 1 -1.63-2.56 4.18 4.18 0 0 0 .05-.44z"/><path d="m343.5 114.33a7.65 7.65 0 0 1 2.87.73 3.72 3.72 0 0 1 2.12 3.8 5.38 5.38 0 0 1 -2.07 4.18 1.85 1.85 0 0 1 -1 .45 4.15 4.15 0 0 1 -3.43-1.21c-2.59-2.67-1.42-5.71.32-7.63.2-.26.77-.22 1.19-.32z"/></g></g><path d="m2171.33 1829.62h150.88v150.88h-150.88z" fill="none"/><g transform="translate(-263.59 -59.45)"><path d="m2464.27 1983.43c-.43-.57-.83-1.12-1.24-1.65a16.21 16.21 0 0 1 -3.42-8.56c-.14-1.59-.49-3.17-.67-4.76a25.33 25.33 0 0 1 -.12-3c0-.51-.14-.71-.67-.73-1.94-.08-3.87-.18-5.8-.32a5.33 5.33 0 0 1 -1.62-.39 1.32 1.32 0 0 1 -.82-1.51 1.33 1.33 0 0 1 1.34-1.07c.82 0 1.63 0 2.44.08 1.47.07 2.94.14 4.41.23.42 0 .61-.07.63-.56a7.36 7.36 0 0 1 1.11-3.37 25.37 25.37 0 0 0 2.87-6.94c.56-2.68 1.4-5.31 2.15-7.95.12-.43.09-.6-.36-.81-2.24-1.09-4.47-2.22-6.68-3.37-2-1-4-2.14-6-3.23a4 4 0 0 1 -.78-.5 1.5 1.5 0 0 1 -.43-2 1.46 1.46 0 0 1 1.9-.5c.74.3 1.44.68 2.14 1l9.47 4.81 2.15 1.12a21.67 21.67 0 0 1 12.93-12.52c-.21-.3-.39-.54-.54-.8-2.18-3.86-4.37-7.71-6.53-11.58a31.58 31.58 0 0 1 -1.37-2.95 1.45 1.45 0 0 1 1-2.19 1.56 1.56 0 0 1 1.7 1c.66 1.33 1.3 2.68 2 4 1.72 3.11 3.49 6.21 5.23 9.31.36.64.74 1.27 1.08 1.92.18.35.39.18.63.12 2.25-.55 4.49-1.19 6.77-1.61a10.63 10.63 0 0 0 3.72-1.33 7.48 7.48 0 0 1 3.38-1.14 3.56 3.56 0 0 0 1-.25c1-.43 2-.9 3.11-1.38a100.9 100.9 0 0 1 -.81-13.65 4.1 4.1 0 0 1 .09-.92 1.39 1.39 0 0 1 1.4-1.08 1.43 1.43 0 0 1 1.33 1.12 6.49 6.49 0 0 1 .12 1.09c.14 2.92.28 5.83.41 8.75.07 1.45.16 2.9.21 4.35 0 .35.14.41.45.41 3.52.08 7 .09 10.56.29 2.76.16 5.51.55 8.26.84.64.07 1.27.13 1.9.23.34.06.47-.08.62-.36 1.89-3.71 3.78-7.41 5.7-11.1.69-1.34 1.44-2.65 2.2-4a4.78 4.78 0 0 1 .95-1.15 1.34 1.34 0 0 1 1.67-.07 1.39 1.39 0 0 1 .54 1.54 3 3 0 0 1 -.28.7c-1.45 2.6-2.93 5.18-4.37 7.8-1.22 2.24-2.39 4.5-3.59 6.76-.07.14-.11.29-.2.53l1 .22a18.75 18.75 0 0 1 6.09 2.18 24.15 24.15 0 0 1 4.19 3.82c2.37 2.44 4.69 4.94 7 7.42a.49.49 0 0 0 .77.08c3-2 5.9-4.14 8.94-6.06 2.57-1.62 5.27-3 7.92-4.51a1.63 1.63 0 0 1 1.86 0 1.37 1.37 0 0 1 .55 1.38 1.69 1.69 0 0 1 -.95 1.25c-2.34 1.32-4.73 2.57-7 4s-4.18 2.74-6.26 4.11l-3.06 2-.4.25c1 1.15 2 2.24 2.83 3.41a21 21 0 0 1 3.21 5.56 6.85 6.85 0 0 1 .34 1.35 20 20 0 0 0 1.73 5.09 6.27 6.27 0 0 1 .25 5.17c-.05.15-.11.29-.15.44s0 .11 0 .26c1.58.1 3.16.18 4.73.29q5.38.38 10.77.79a3.91 3.91 0 0 1 1 .24 1.48 1.48 0 0 1 1 1.45 1.44 1.44 0 0 1 -1 1.4 3.66 3.66 0 0 1 -1.14.17c-2.41-.08-4.83-.14-7.25-.31s-4.7-.44-7.05-.66c-.35 0-.72 0-1 0 .18.9.4 1.73.52 2.58a10.59 10.59 0 0 1 -1.35 7.1 4.56 4.56 0 0 0 -.41 1.79 17.44 17.44 0 0 1 -1.47 5.7c-1.19 2.48-2.54 4.87-3.82 7.3-.08.15-.17.3-.28.49l.62.36c2.54 1.4 5.1 2.77 7.62 4.22 2.11 1.21 4.19 2.48 6.25 3.78a9.93 9.93 0 0 1 1.67 1.44 1.09 1.09 0 0 1 .17 1.34 1.16 1.16 0 0 1 -1.28.61 8.2 8.2 0 0 1 -3-1.09c-4.4-2.61-8.81-5.19-13.21-7.78-.18-.11-.37-.19-.57-.29-5.4 7.06-12.42 11.93-20.41 15.61.89 1.39 1.79 2.78 2.67 4.19s1.66 2.8 2.54 4.17c1.35 2.09 2.76 4.15 4.15 6.22.28.42.59.81.86 1.23a1.61 1.61 0 0 1 -.22 2.25 1.56 1.56 0 0 1 -2.24-.47c-.85-1.08-1.71-2.15-2.47-3.3-2.32-3.5-4.59-7-6.88-10.55-.54-.85-1.1-1.68-1.67-2.55l-2.74 1a33.23 33.23 0 0 1 -11.1 2.25 17.9 17.9 0 0 1 -6.32-1 7.78 7.78 0 0 0 -1.15-.23v.65c.09 2.9.2 5.8.26 8.71a15.08 15.08 0 0 1 -.5 4.48c-.21.74-.54 1.13-1.11 1.17a1.18 1.18 0 0 1 -1.27-1 12.5 12.5 0 0 1 -.4-2.57c-.12-3.64-.2-7.27-.28-10.91 0-1.18 0-1.19-1.15-1.56a51.11 51.11 0 0 1 -12.79-6.36c-1.58-1.08-3.27-2-4.94-3a3.81 3.81 0 0 0 -.27.37c-1.43 2.55-2.9 5.08-4.27 7.66-1.25 2.34-2.37 4.74-3.6 7.09-.74 1.42-1.58 2.79-2.4 4.17a1.16 1.16 0 0 1 -1.42.62 1.1 1.1 0 0 1 -.76-1.33 13.27 13.27 0 0 1 .89-3.34c1.63-3.36 3.36-6.67 5.12-10 1.27-2.37 2.63-4.69 4-7.06a2.41 2.41 0 0 0 -.21-.24c-1.14-.94-2.33-1.81-3.4-2.81-2-1.89-4-3.84-5.94-5.79a24.26 24.26 0 0 1 -1.71-2.06c-.19-.24-.34-.33-.66-.14q-8.71 5.11-17.44 10.2c-1.33.78-2.66 1.58-4 2.31a7.09 7.09 0 0 1 -1.7.57 1.16 1.16 0 0 1 -1.38-.61 1.12 1.12 0 0 1 .29-1.42 10.87 10.87 0 0 1 1.46-1.15c3.17-2 6.33-4.1 9.55-6.06 2.32-1.42 4.73-2.71 7.11-4zm45.93 25.42a35.56 35.56 0 0 0 10.17-2.15c1.5-.57 3-1.24 4.48-1.76a44.17 44.17 0 0 0 13.18-7.45 33.27 33.27 0 0 0 5.37-4.69c.77-.94 1.6-1.84 2.35-2.8a26 26 0 0 0 1.83-2.61c.73-1.21 1.36-2.48 2.07-3.69a28.12 28.12 0 0 0 3.5-8.75 20.74 20.74 0 0 1 1.18-4.65 4.46 4.46 0 0 0 .41-1.14 9.44 9.44 0 0 0 -.56-5.63 4.53 4.53 0 0 1 -.09-4c.17-.39.29-.8.46-1.19a4.77 4.77 0 0 0 -.06-3.88 24.15 24.15 0 0 1 -1.56-4.36 17 17 0 0 0 -2.53-5.86 49.48 49.48 0 0 0 -5.65-6.84c-1.62-1.75-3.33-3.41-5-5.13-1.45-1.51-2.82-3.08-4.28-4.58a11.17 11.17 0 0 0 -4.9-3c-.72-.21-1.49-.22-2.21-.44a50.78 50.78 0 0 0 -9.14-1.56 120.92 120.92 0 0 0 -18.15-.74 8.83 8.83 0 0 0 -2.31.63 11.32 11.32 0 0 1 -2 .75 11.15 11.15 0 0 0 -3.81 1.32 7.35 7.35 0 0 1 -1.73.76c-2.36.55-4.75 1-7.08 1.57a31.87 31.87 0 0 0 -8.37 3.4 19.63 19.63 0 0 0 -4.87 4 25.42 25.42 0 0 0 -4.32 8.3 73.57 73.57 0 0 0 -2.34 8.49 28.8 28.8 0 0 1 -3.19 7.68 4.65 4.65 0 0 0 -.72 1.81 43.94 43.94 0 0 0 -.05 6c.19 2.13.72 4.23 1 6.36a16.14 16.14 0 0 0 3.53 8c.89 1.1 1.74 2.23 2.6 3.34a63.19 63.19 0 0 0 7.43 7.91 55.31 55.31 0 0 0 6.32 4.9c1.11.75 2.21 1.52 3.34 2.21s2.06 1.07 3 1.7a50.35 50.35 0 0 0 12.11 5.8 31.87 31.87 0 0 0 6.84 1.49c1.31.09 2.55.31 3.75.48z" fill="#001400"/><path d="m2510.2 2008.85c-1.22-.17-2.44-.39-3.67-.5a31.87 31.87 0 0 1 -6.84-1.49 50.35 50.35 0 0 1 -12.11-5.8c-1-.63-2-1.09-3-1.7s-2.23-1.46-3.34-2.21a55.31 55.31 0 0 1 -6.32-4.9 63.19 63.19 0 0 1 -7.43-7.91c-.86-1.11-1.71-2.24-2.6-3.34a16.14 16.14 0 0 1 -3.53-8c-.31-2.13-.84-4.23-1-6.36a43.94 43.94 0 0 1 .05-6 4.65 4.65 0 0 1 .72-1.81 28.8 28.8 0 0 0 3.19-7.68 73.57 73.57 0 0 1 2.34-8.49 25.42 25.42 0 0 1 4.32-8.3 19.63 19.63 0 0 1 4.87-4 31.87 31.87 0 0 1 8.37-3.4c2.33-.62 4.72-1 7.08-1.57a7.35 7.35 0 0 0 1.73-.76 11.15 11.15 0 0 1 3.81-1.32 11.32 11.32 0 0 0 2-.75 8.83 8.83 0 0 1 2.31-.63 120.92 120.92 0 0 1 18.15.74 50.78 50.78 0 0 1 9.14 1.56c.72.22 1.49.23 2.21.44a11.17 11.17 0 0 1 4.9 3c1.46 1.5 2.83 3.07 4.28 4.58 1.64 1.72 3.35 3.38 5 5.13a49.48 49.48 0 0 1 5.65 6.84 17 17 0 0 1 2.53 5.86 24.15 24.15 0 0 0 1.56 4.36 4.77 4.77 0 0 1 .06 3.88c-.17.39-.29.8-.46 1.19a4.53 4.53 0 0 0 .09 4 9.44 9.44 0 0 1 .56 5.63 4.46 4.46 0 0 1 -.41 1.14 20.74 20.74 0 0 0 -1.18 4.65 28.12 28.12 0 0 1 -3.5 8.75c-.71 1.21-1.34 2.48-2.07 3.69a26 26 0 0 1 -1.83 2.61c-.75 1-1.58 1.86-2.35 2.8a33.27 33.27 0 0 1 -5.37 4.69 44.17 44.17 0 0 1 -13.18 7.45c-1.52.52-3 1.19-4.48 1.76a35.56 35.56 0 0 1 -10.25 2.17zm22.05-32.54a7 7 0 0 0 -1.47-4.85 31.76 31.76 0 0 0 -2.94-3.2c-1.72-1.63-3.91-2.08-6.19-2.28a7.09 7.09 0 0 0 -5.21 1.72 3.47 3.47 0 0 0 -1.52 2.12.7.7 0 0 1 -.2.34 12.9 12.9 0 0 0 -2.61 4.81 6.85 6.85 0 0 0 -.41 3.2 11.67 11.67 0 0 0 5.47 9.12 7.78 7.78 0 0 0 7.33.82 10.73 10.73 0 0 0 6.21-5.57 14.19 14.19 0 0 0 1.54-6.23zm-57.46-10.48a7.44 7.44 0 0 0 .8 3.82c1.37 2.33 5.35 4.19 8 3.6a7.34 7.34 0 0 0 5.24-4.51c.25-.58.42-1.2.62-1.81 1-3-.53-7.41-4-8.74a8.47 8.47 0 0 0 -6.07 0 4.78 4.78 0 0 0 -3 3 1.06 1.06 0 0 1 -.24.39 5.36 5.36 0 0 0 -1.35 4.25zm40.25-25v-.14c-.7.2-1.56.2-2 .64a20.18 20.18 0 0 0 -2.12 1.73 8 8 0 0 0 -2 6.52 7.91 7.91 0 0 0 6.71 6.75 5.28 5.28 0 0 0 4-.92c2.64-2.07 4.08-4.75 3.52-8.2a6.15 6.15 0 0 0 -2.54-4.57 10.3 10.3 0 0 0 -5.61-1.83z" fill="none"/><path d="m2532.25 1976.31a14.19 14.19 0 0 1 -1.54 6.23 10.73 10.73 0 0 1 -6.21 5.57 7.78 7.78 0 0 1 -7.33-.82 11.67 11.67 0 0 1 -5.47-9.12 6.85 6.85 0 0 1 .41-3.2 12.9 12.9 0 0 1 2.61-4.81.7.7 0 0 0 .2-.34 3.47 3.47 0 0 1 1.52-2.12 7.09 7.09 0 0 1 5.21-1.72c2.28.2 4.47.65 6.19 2.28a31.76 31.76 0 0 1 2.94 3.2 7 7 0 0 1 1.47 4.85zm-4.2 1.15c0-.31 0-.62 0-.93a7 7 0 0 0 -3.48-6.41 5.21 5.21 0 0 0 -5.16-.31 9.79 9.79 0 0 0 -2.25 1.89c-1.12 1.1-1.55 2.6-2.19 4a4.6 4.6 0 0 0 -.34 2.61 8.85 8.85 0 0 0 1.52 4.09c2.11 2.89 5.21 4.19 8.36 2.34a5.63 5.63 0 0 0 2.93-3.17 10.19 10.19 0 0 0 .61-4.11z" fill="#001400"/><path d="m2474.79 1965.83a5.36 5.36 0 0 1 1.33-4.23 1.06 1.06 0 0 0 .24-.39 4.78 4.78 0 0 1 3-3 8.47 8.47 0 0 1 6.07 0c3.44 1.33 5 5.71 4 8.74-.2.61-.37 1.23-.62 1.81a7.34 7.34 0 0 1 -5.24 4.51c-2.65.59-6.63-1.27-8-3.6a7.44 7.44 0 0 1 -.78-3.84zm3.43.17s0 .26 0 .48a2.52 2.52 0 0 0 1.63 2.56 11.86 11.86 0 0 0 2.13.72 2.51 2.51 0 0 0 2.25-.61 5.3 5.3 0 0 0 2-3.82 3.69 3.69 0 0 0 -3.92-4.3 4.58 4.58 0 0 0 -4.09 4.97z" fill="#001400"/><path d="m2515 1940.81a10.3 10.3 0 0 1 5.55 1.81 6.15 6.15 0 0 1 2.54 4.57c.56 3.45-.88 6.13-3.52 8.2a5.28 5.28 0 0 1 -4 .92 7.91 7.91 0 0 1 -6.71-6.75 8 8 0 0 1 2-6.52 20.18 20.18 0 0 1 2.12-1.73c.48-.44 1.34-.44 2-.64zm-.21 3.14c-.41.1-1 .06-1.23.32-1.74 1.92-2.91 5-.32 7.63a4.19 4.19 0 0 0 3.44 1.21 1.91 1.91 0 0 0 1-.45 5.4 5.4 0 0 0 2.06-4.18 3.72 3.72 0 0 0 -2.12-3.8 7.6 7.6 0 0 0 -2.79-.68z" fill="#001400"/><path d="m2528.05 1977.46a10.19 10.19 0 0 1 -.62 4.1 5.63 5.63 0 0 1 -2.93 3.17c-3.15 1.85-6.25.55-8.36-2.34a8.85 8.85 0 0 1 -1.52-4.09 4.6 4.6 0 0 1 .34-2.61c.64-1.39 1.07-2.89 2.19-4a9.79 9.79 0 0 1 2.25-1.89 5.21 5.21 0 0 1 5.16.31 7 7 0 0 1 3.48 6.41c.01.32.01.63.01.94z" fill="#001400"/><path d="m2478.22 1966a4.58 4.58 0 0 1 4.05-5 3.69 3.69 0 0 1 3.92 4.3 5.3 5.3 0 0 1 -2 3.82 2.51 2.51 0 0 1 -2.25.61 11.86 11.86 0 0 1 -2.13-.72 2.52 2.52 0 0 1 -1.63-2.56c.05-.19.04-.4.04-.45z" fill="#001400"/><path d="m2514.83 1944a7.6 7.6 0 0 1 2.87.73 3.72 3.72 0 0 1 2.12 3.8 5.4 5.4 0 0 1 -2.06 4.18 1.91 1.91 0 0 1 -1 .45 4.19 4.19 0 0 1 -3.44-1.21c-2.59-2.67-1.42-5.71.32-7.63.2-.32.78-.27 1.19-.32z" fill="#001400"/></g><path d="m2195.48 37.51h150.88v150.88h-150.88z" fill="none"/><path d="m2488.42 191.32-1.24-1.65a16.13 16.13 0 0 1 -3.42-8.55c-.14-1.6-.49-3.18-.67-4.77a25.25 25.25 0 0 1 -.12-3c0-.51-.14-.72-.67-.74-1.94-.08-3.87-.18-5.8-.32a5.33 5.33 0 0 1 -1.62-.39 1.31 1.31 0 0 1 -.82-1.5 1.33 1.33 0 0 1 1.34-1.08c.81 0 1.63.05 2.44.08 1.47.07 2.94.14 4.4.23.43 0 .62-.06.64-.55a7.21 7.21 0 0 1 1.11-3.37 25.29 25.29 0 0 0 2.86-6.94c.57-2.69 1.41-5.31 2.16-7.95.12-.44.09-.6-.36-.82q-3.36-1.63-6.68-3.36c-2-1-4-2.15-6-3.23a4.51 4.51 0 0 1 -.78-.5 1.51 1.51 0 0 1 -.43-2 1.48 1.48 0 0 1 1.9-.5c.74.3 1.44.68 2.14 1l9.47 4.82 2.15 1.11a21.63 21.63 0 0 1 12.92-12.52c-.2-.3-.38-.54-.53-.8-2.18-3.86-4.37-7.71-6.53-11.58-.52-.94-.95-1.95-1.38-2.94a1.47 1.47 0 0 1 1-2.2 1.57 1.57 0 0 1 1.69 1c.67 1.34 1.31 2.69 2 4 1.72 3.12 3.48 6.21 5.23 9.31.36.64.74 1.27 1.07 1.92.18.35.4.19.64.13 2.25-.55 4.49-1.2 6.76-1.61a10.83 10.83 0 0 0 3.73-1.34 7.72 7.72 0 0 1 3.38-1.14 3 3 0 0 0 1-.25c1-.43 2-.9 3.11-1.38a100.65 100.65 0 0 1 -.81-13.64 3.51 3.51 0 0 1 .09-.92 1.39 1.39 0 0 1 1.4-1.08 1.43 1.43 0 0 1 1.33 1.11 6.73 6.73 0 0 1 .12 1.09c.14 2.92.27 5.84.41 8.76.07 1.45.16 2.89.21 4.34 0 .36.14.41.45.42 3.52.08 7.05.08 10.56.28 2.76.16 5.51.55 8.26.85.64.06 1.27.12 1.9.22.34.06.47-.08.61-.36q2.84-5.55 5.7-11.09 1-2 2.21-4a4.56 4.56 0 0 1 .94-1.16 1.37 1.37 0 0 1 1.68-.07 1.39 1.39 0 0 1 .54 1.54 3.53 3.53 0 0 1 -.28.7c-1.45 2.6-2.94 5.19-4.37 7.8-1.22 2.24-2.39 4.51-3.59 6.77a4.86 4.86 0 0 0 -.2.52l1 .23a18.73 18.73 0 0 1 6.09 2.17 24.52 24.52 0 0 1 4.19 3.82c2.37 2.45 4.69 4.94 7 7.42a.49.49 0 0 0 .77.08c3-2 5.9-4.14 8.94-6.06 2.56-1.61 5.27-3 7.92-4.5a1.61 1.61 0 0 1 1.86 0 1.37 1.37 0 0 1 .55 1.38 1.68 1.68 0 0 1 -1 1.25c-2.34 1.32-4.73 2.57-7 4-2.13 1.3-4.17 2.74-6.25 4.11l-3.06 2-.4.25c1 1.15 1.95 2.23 2.83 3.4a21.42 21.42 0 0 1 3.21 5.56 7.85 7.85 0 0 1 .34 1.35 19.74 19.74 0 0 0 1.73 5.09 6.33 6.33 0 0 1 .25 5.18c-.05.14-.11.29-.15.43a.86.86 0 0 0 0 .27c1.57.09 3.15.17 4.73.28 3.59.25 7.18.52 10.77.79a3.91 3.91 0 0 1 1 .24 1.5 1.5 0 0 1 1 1.45 1.43 1.43 0 0 1 -1 1.4 3.39 3.39 0 0 1 -1.14.17c-2.41-.08-4.84-.14-7.25-.3s-4.7-.45-7.05-.67c-.36 0-.72 0-1.05 0 .18.89.4 1.73.52 2.58a10.61 10.61 0 0 1 -1.35 7.09 4.56 4.56 0 0 0 -.41 1.79 17.51 17.51 0 0 1 -1.48 5.71c-1.18 2.47-2.53 4.86-3.82 7.29l-.27.5.62.35c2.54 1.41 5.1 2.78 7.61 4.22 2.12 1.22 4.2 2.49 6.26 3.78a9.49 9.49 0 0 1 1.66 1.44 1.09 1.09 0 0 1 .16 1.44 1.16 1.16 0 0 1 -1.28.6 8.13 8.13 0 0 1 -3-1.09c-4.39-2.61-8.8-5.19-13.2-7.78l-.57-.29c-5.4 7.06-12.42 11.94-20.42 15.61.9 1.4 1.8 2.79 2.68 4.19s1.65 2.81 2.54 4.17c1.35 2.09 2.76 4.15 4.15 6.22.28.42.59.82.86 1.24a1.6 1.6 0 0 1 -.22 2.24 1.57 1.57 0 0 1 -2.25-.46c-.84-1.09-1.7-2.16-2.46-3.3-2.32-3.51-4.59-7-6.88-10.56-.54-.84-1.1-1.68-1.67-2.55-.9.34-1.82.68-2.74 1a33.21 33.21 0 0 1 -11.1 2.24 17.46 17.46 0 0 1 -6.32-1 8.12 8.12 0 0 0 -1.15-.22v.64c.09 2.91.2 5.81.26 8.71a15.15 15.15 0 0 1 -.5 4.49c-.21.74-.54 1.12-1.11 1.16a1.18 1.18 0 0 1 -1.28-1 12.39 12.39 0 0 1 -.39-2.56c-.13-3.64-.2-7.28-.28-10.92 0-1.17 0-1.18-1.15-1.55a51.14 51.14 0 0 1 -12.79-6.37c-1.58-1.07-3.27-2-4.94-3a2.89 2.89 0 0 0 -.27.37c-1.43 2.55-2.9 5.08-4.27 7.65-1.25 2.34-2.37 4.75-3.6 7.09-.75 1.42-1.59 2.79-2.4 4.18a1.18 1.18 0 0 1 -1.42.62 1.1 1.1 0 0 1 -.76-1.34 13.38 13.38 0 0 1 .89-3.34c1.63-3.36 3.36-6.67 5.12-10 1.26-2.38 2.63-4.69 4-7.07a1.65 1.65 0 0 0 -.22-.24c-1.13-.93-2.32-1.81-3.39-2.81-2-1.89-4-3.83-6-5.79-.62-.63-1.14-1.36-1.7-2-.19-.24-.34-.34-.66-.15l-17.44 10.21c-1.34.78-2.66 1.58-4 2.31a6.65 6.65 0 0 1 -1.7.56 1.18 1.18 0 0 1 -1.09-2 10.8 10.8 0 0 1 1.46-1.14c3.17-2 6.33-4.11 9.55-6.07 2.32-1.42 4.73-2.7 7.11-4zm45.93 25.42a35.55 35.55 0 0 0 10.17-2.14c1.5-.57 3-1.25 4.48-1.77a44.14 44.14 0 0 0 13.18-7.44 32.84 32.84 0 0 0 5.36-4.7c.78-.94 1.61-1.84 2.36-2.8a24.93 24.93 0 0 0 1.83-2.61c.73-1.2 1.36-2.47 2.07-3.69a28 28 0 0 0 3.49-8.74 20.63 20.63 0 0 1 1.19-4.65 4.52 4.52 0 0 0 .41-1.15 9.45 9.45 0 0 0 -.56-5.63 4.53 4.53 0 0 1 -.09-4c.17-.39.29-.8.46-1.19a4.71 4.71 0 0 0 -.07-3.87 24.11 24.11 0 0 1 -1.55-4.36 16.82 16.82 0 0 0 -2.54-5.87 49.29 49.29 0 0 0 -5.64-6.84c-1.62-1.74-3.33-3.4-5-5.12-1.44-1.52-2.82-3.09-4.27-4.58a11.14 11.14 0 0 0 -4.9-3c-.72-.22-1.5-.23-2.21-.44a50.8 50.8 0 0 0 -9.14-1.57 122.26 122.26 0 0 0 -18.15-.74 8.85 8.85 0 0 0 -2.31.64 11.27 11.27 0 0 1 -2 .74 11.38 11.38 0 0 0 -3.81 1.33 7.63 7.63 0 0 1 -1.74.75c-2.35.56-4.74 1-7.07 1.57a32.22 32.22 0 0 0 -8.37 3.4 19.67 19.67 0 0 0 -4.87 4 25.37 25.37 0 0 0 -4.32 8.29 73.18 73.18 0 0 0 -2.34 8.5 29.08 29.08 0 0 1 -3.19 7.68 4.44 4.44 0 0 0 -.72 1.81 42.34 42.34 0 0 0 -.05 6c.19 2.13.72 4.23 1 6.35a16.17 16.17 0 0 0 3.53 8c.89 1.09 1.73 2.23 2.6 3.34a63.81 63.81 0 0 0 7.43 7.9 55.4 55.4 0 0 0 6.32 4.91c1.11.74 2.2 1.51 3.34 2.21 1 .6 2.06 1.06 3 1.69a50.35 50.35 0 0 0 12.11 5.8 31.87 31.87 0 0 0 6.84 1.49c1.3.12 2.52.33 3.74.5z" fill="#001400" transform="translate(-263.59 -59.45)"/><path d="m2534.35 216.74c-1.22-.17-2.44-.38-3.67-.5a31.87 31.87 0 0 1 -6.84-1.49 50.35 50.35 0 0 1 -12.11-5.8c-1-.63-2-1.09-3-1.69-1.14-.7-2.23-1.47-3.34-2.21a55.4 55.4 0 0 1 -6.32-4.91 63.81 63.81 0 0 1 -7.43-7.9c-.87-1.11-1.71-2.25-2.6-3.34a16.17 16.17 0 0 1 -3.53-8c-.31-2.12-.84-4.22-1-6.35a42.34 42.34 0 0 1 .05-6 4.44 4.44 0 0 1 .72-1.81 29.08 29.08 0 0 0 3.19-7.68 73.18 73.18 0 0 1 2.34-8.5 25.37 25.37 0 0 1 4.32-8.29 19.67 19.67 0 0 1 4.87-4 32.22 32.22 0 0 1 8.37-3.4c2.33-.62 4.72-1 7.07-1.57a7.63 7.63 0 0 0 1.74-.75 11.38 11.38 0 0 1 3.81-1.33 11.27 11.27 0 0 0 2-.74 8.85 8.85 0 0 1 2.31-.64 122.26 122.26 0 0 1 18.15.74 50.8 50.8 0 0 1 9.14 1.57c.71.21 1.49.22 2.21.44a11.14 11.14 0 0 1 4.9 3c1.45 1.49 2.83 3.06 4.27 4.58 1.65 1.72 3.36 3.38 5 5.12a49.29 49.29 0 0 1 5.64 6.84 16.82 16.82 0 0 1 2.54 5.87 24.11 24.11 0 0 0 1.55 4.36 4.71 4.71 0 0 1 .07 3.87c-.17.39-.29.8-.46 1.19a4.53 4.53 0 0 0 .09 4 9.45 9.45 0 0 1 .56 5.63 4.52 4.52 0 0 1 -.41 1.15 20.63 20.63 0 0 0 -1.19 4.65 28 28 0 0 1 -3.49 8.74c-.71 1.22-1.34 2.49-2.07 3.69a24.93 24.93 0 0 1 -1.83 2.61c-.75 1-1.58 1.86-2.36 2.8a32.84 32.84 0 0 1 -5.36 4.7 44.14 44.14 0 0 1 -13.18 7.44c-1.52.52-3 1.2-4.48 1.77a35.55 35.55 0 0 1 -10.24 2.14zm22-32.53a6.93 6.93 0 0 0 -1.46-4.85 30.72 30.72 0 0 0 -2.94-3.2c-1.72-1.64-3.91-2.08-6.19-2.28a7.12 7.12 0 0 0 -5.21 1.71 3.5 3.5 0 0 0 -1.52 2.12.88.88 0 0 1 -.2.35 12.78 12.78 0 0 0 -2.61 4.8 7 7 0 0 0 -.42 3.2 11.74 11.74 0 0 0 5.48 9.13 7.81 7.81 0 0 0 7.33.82 10.72 10.72 0 0 0 6.21-5.58 14 14 0 0 0 1.57-6.22zm-57.45-10.49a7.42 7.42 0 0 0 .8 3.82c1.37 2.33 5.35 4.19 8 3.61a7.32 7.32 0 0 0 5.23-4.52c.26-.58.43-1.2.63-1.8 1-3-.53-7.41-4-8.75a8.42 8.42 0 0 0 -6.07 0 4.77 4.77 0 0 0 -3 3 1 1 0 0 1 -.24.39 5.34 5.34 0 0 0 -1.31 4.25zm40.25-25v-.14a5.31 5.31 0 0 0 -2.05.63 21.13 21.13 0 0 0 -2.11 1.73 8.08 8.08 0 0 0 -2 6.52 7.92 7.92 0 0 0 6.72 6.75 5.24 5.24 0 0 0 4-.92c2.64-2.07 4.08-4.74 3.52-8.19a6.22 6.22 0 0 0 -2.54-4.58 10.21 10.21 0 0 0 -5.5-1.81z" fill="none" transform="translate(-263.59 -59.45)"/><path d="m2556.39 184.21a14 14 0 0 1 -1.53 6.22 10.72 10.72 0 0 1 -6.21 5.58 7.81 7.81 0 0 1 -7.33-.82 11.74 11.74 0 0 1 -5.48-9.13 7 7 0 0 1 .42-3.2 12.78 12.78 0 0 1 2.61-4.8.88.88 0 0 0 .2-.35 3.5 3.5 0 0 1 1.52-2.12 7.12 7.12 0 0 1 5.21-1.71c2.28.2 4.47.64 6.19 2.28a30.72 30.72 0 0 1 2.94 3.2 6.93 6.93 0 0 1 1.46 4.85zm-4.2 1.14c0-.31 0-.62 0-.93a7 7 0 0 0 -3.48-6.41 5.21 5.21 0 0 0 -5.16-.31 9.79 9.79 0 0 0 -2.25 1.89 12.64 12.64 0 0 0 -2.19 4 4.71 4.71 0 0 0 -.35 2.61 9 9 0 0 0 1.53 4.1c2.11 2.88 5.21 4.19 8.36 2.33a5.62 5.62 0 0 0 2.93-3.16 10.25 10.25 0 0 0 .61-4.12z" fill="#001400" transform="translate(-263.59 -59.45)"/><path d="m2498.94 173.72a5.34 5.34 0 0 1 1.33-4.23 1 1 0 0 0 .24-.39 4.77 4.77 0 0 1 3-3 8.42 8.42 0 0 1 6.07 0c3.44 1.34 5 5.72 4 8.75-.2.6-.37 1.22-.63 1.8a7.32 7.32 0 0 1 -5.23 4.52c-2.65.58-6.63-1.28-8-3.61a7.42 7.42 0 0 1 -.78-3.84zm3.43.18s0 .26 0 .47a2.54 2.54 0 0 0 1.62 2.57 11.94 11.94 0 0 0 2.14.71 2.5 2.5 0 0 0 2.25-.6 5.3 5.3 0 0 0 2-3.82 3.69 3.69 0 0 0 -3.92-4.3 4.57 4.57 0 0 0 -4.09 4.97z" fill="#001400" transform="translate(-263.59 -59.45)"/><path d="m2539.19 148.71a10.21 10.21 0 0 1 5.55 1.8 6.22 6.22 0 0 1 2.54 4.58c.56 3.45-.88 6.12-3.52 8.19a5.24 5.24 0 0 1 -4 .92 7.92 7.92 0 0 1 -6.72-6.75 8.08 8.08 0 0 1 2-6.52 21.13 21.13 0 0 1 2.11-1.73 5.31 5.31 0 0 1 2.05-.63zm-.21 3.13c-.42.1-1 .06-1.23.32-1.74 1.92-2.91 5-.32 7.63a4.15 4.15 0 0 0 3.43 1.21 1.85 1.85 0 0 0 1-.45 5.38 5.38 0 0 0 2.07-4.18 3.7 3.7 0 0 0 -2.12-3.79 7.43 7.43 0 0 0 -2.81-.74z" fill="#001400" transform="translate(-263.59 -59.45)"/><path d="m2552.19 185.35a10.25 10.25 0 0 1 -.61 4.11 5.62 5.62 0 0 1 -2.93 3.16c-3.15 1.86-6.25.55-8.36-2.33a9 9 0 0 1 -1.53-4.1 4.71 4.71 0 0 1 .35-2.61 12.64 12.64 0 0 1 2.19-4 9.79 9.79 0 0 1 2.25-1.89 5.21 5.21 0 0 1 5.16.31 7 7 0 0 1 3.48 6.41c.01.32 0 .59 0 .94z" fill="#001400" transform="translate(-263.59 -59.45)"/><path d="m2502.37 173.9a4.57 4.57 0 0 1 4.05-5 3.69 3.69 0 0 1 3.92 4.3 5.3 5.3 0 0 1 -2 3.82 2.5 2.5 0 0 1 -2.25.6 11.94 11.94 0 0 1 -2.14-.71 2.54 2.54 0 0 1 -1.62-2.57c.05-.18.04-.4.04-.44z" fill="#001400" transform="translate(-263.59 -59.45)"/><path d="m2539 151.84a7.43 7.43 0 0 1 2.87.74 3.7 3.7 0 0 1 2.12 3.79 5.38 5.38 0 0 1 -2.07 4.18 1.85 1.85 0 0 1 -1 .45 4.15 4.15 0 0 1 -3.43-1.21c-2.59-2.67-1.42-5.71.32-7.63.19-.26.75-.22 1.19-.32z" fill="#001400" transform="translate(-263.59 -59.45)"/></svg>