<svg viewBox="0 0 498.19 496.18" xmlns="http://www.w3.org/2000/svg"><path d="m0 0h496.18v496.18h-496.18z" fill="none"/><g transform="translate(-6.95 -8.5)"><path d="m190.1 251.67c.11 9.44 7.55 19.12 13.27 19.07a3.4 3.4 0 0 0 2.8-1.49 47.31 47.31 0 0 0 9.38-21c2.16-12.08.74-24.57 1.24-36.86a6.69 6.69 0 0 0 -1.73-4.91c-6.46-7.4-13.19-13.64-22.14-13.79-2.89-.05-3.52.45-2.25 4.09 4.36 12.48 4 25.27 1.54 38.35-1.12 5.96-1.57 12.16-2.11 16.54z" fill="none"/><g fill="#fff8ff"><path d="m197.41 284.3c3.2-3.36 3.81-4.61-.48-7.14-10.8-6.37-14.09-14.76-12.46-30.55.66-6.36 1.62-12.68 2.59-19a65.6 65.6 0 0 0 -.11-22c-2.25-12.34-4.44-13.59-12.65-7.34-1.06.81-2.13 1.63-3.21 2.37-3.42 2.34-6 4.81-5.41 11.34.36 4.26-.92 8.94-1.92 13.23-6.92 29.66-20.79 52.42-38.24 71.56-2.64 2.9-5.81 4.31-9 5.54-2.64 1-5.61 2.93-7.77-.75-2.31-3.93.08-7.21 1.68-10.19a123.94 123.94 0 0 0 14.18-42.56c4.68-34-11.06-57.28-36-51.47 4.28 2.34 7.84 4.73 10.7 8.52q4.5 6 8.82 12.2c10.11 14.63 12.76 32.34 5.38 47.63-8.64 17.89-19.78 32.72-35.07 40.05a99.89 99.89 0 0 0 -19.26 11.55c13.66-2.36 27.45-1.4 41.09-3.26 22.55-3.07 43.53-12.62 62.56-29.7 3.37-3 6.71-3.49 10.19-.07 10.76 10.66 16.38 8.4 24.39.04z"/><path d="m234.15 211.8c.63-9.26-.51-17.18-5.55-23.4a29.52 29.52 0 0 0 -16.28-10.62c-13.25-3.19-25.66.27-37.37 8.68-6.91 5-14 9.74-20.11 18.91 3.25-1.36 4.86-3.5 6.64-5.35 6.69-7 13.92-13.49 22.2-15 13-2.4 25.17 1.9 35.31 14.45 2.68 3.31 4.5 7.1 4.21 11.72-.87 13.73 1.94 27.61-1 41.39 8.5-11.22 10.92-25.47 11.95-40.78z"/><path d="m105.56 260.85c-.57 2.11-2 3.89-1.53 6.59 7.31-8 9.22-23.52 3.87-34.79-8.36-17.65-19.35-29.65-35.6-30.46-12-.57-26.09 9.11-32.6 24.78a21.49 21.49 0 0 1 2-1.82c8.73-6 14.51-18.73 26.21-18.19 9.22.44 17.69 2.4 25.19 9.44 8.43 7.91 10.55 21.24 13.84 33.36.96 3.62-.39 7.48-1.38 11.09z"/><path d="m332 344.08c.73-4.63 2.26-9 3.12-13.62 4.32-23.07 4.77-44.92-10.21-62.17-3.28-3.77-7.13-5.93-10.7-8.84-8.42-6.82-17.44-7.95-26.69-4.08-14.57 6.08-25.3 19.51-34.83 35.07-.23.37 0 1.23 0 1.9 6.55-1.36 6.54-1.37 8.35-9.69a11.14 11.14 0 0 1 2.82-5 76.37 76.37 0 0 1 17.48-15.32c15.89-9.89 49.17 3.35 52.72 33.94 1.71 14.74 2.76 30-3.13 42.45-7.28 15.36-19 24.92-31.13 32.65-1.52 1-3.05 1.09-4.31-.8a6.16 6.16 0 0 1 -.41-6 90.11 90.11 0 0 1 5.89-11.75 54.43 54.43 0 0 0 8.74-25.48c.88-10.16 1.82-20.5-2.48-29.92-5.85-12.81-24.62-20-35.14-13.49-1.17.73-2.73 1-3.15 4.06 5.48 1.22 10.91 2.63 16 5.67 10.44 6.19 15.16 22.24 10.33 36.19a67.53 67.53 0 0 1 -17.34 27.15 154.1 154.1 0 0 1 -50.4 32.34c-14.7 5.78-29.48 11.08-44.76 13.67 15.78.63 31.52 1.69 47.19-1.53 26-5.33 51.26-13.79 74.74-30.55 3.36-2.4 6.05-2.05 7.55 3.33s4.75 7.78 8.43 8.53c13.78 2.8 27.71 4.67 41.59 4.37 11.61-.26 23.2-3.06 34.76-5.09 6-1.05 12-2.82 18-4.35 5.75-1.46 11.49-3 17.23-4.54a8.35 8.35 0 0 0 -5.31-.81c-19.6 4.18-39.25 2.73-58.89 1.16a82.44 82.44 0 0 1 -26.66-6.71c-8.24-3.62-11.21-11.3-9.4-22.74z"/><path d="m363.89 285.62c-1.42-17 0-33.82 1.19-50.65 1-14 2.07-27.91 1.06-42.08-1.56-22-10.75-38.48-20.36-54.57s-21.47-27.6-35.91-34.35c-16.76-7.84-33.89-7.61-51.17-5.34-38.3 5-71.32 24.66-96.38 65.91a125.41 125.41 0 0 0 -12.18 27.46c-.4 1.28-1.14 2.8-.17 3.94s1.88-.25 2.68-1.07c.55-.57 1-1.32 1.59-1.86 18-17.24 36.83-29.83 59.85-24.17 13.62 3.34 25.73 16.85 26.88 32.28 1.07 14.46-.16 28.71-5 41.86-7.81 21.33-20.32 37-34.58 49.69-32.2 28.62-68.2 42.63-105.9 49.66-7.91 1.48-15.78.65-23.67.3 33.18 17.21 181.1-7.82 201.4-33.95a19.5 19.5 0 0 0 -12.92-.47c-4.1 1.17-7.95.41-11.88-.65-7.17-1.93-8.72-6.84-4.54-15.16a125.46 125.46 0 0 1 8.14-14c16-23.73 34-40.62 59.36-30.82.26.1.62-.28 1.44-.7-1.81-7.13-3.59-14.29-5.45-21.4-7.22-27.64-18.71-50.9-36.78-67.47a29.2 29.2 0 0 0 -16.59-7.67c-15.59-1.87-30.85 1.89-46.08 5.85-9.33 2.42-17.81 8.1-26.63 12.52-2.21 1.11-4.82 3-6.57-.84-1.65-3.63.34-6.31 2-8.76a76.07 76.07 0 0 1 20.28-19.94c34.78-24 70.73-29.07 107.66-10.07 8.76 4.51 17.19 10.16 24 19.76 11.67 16.52 17.42 37.28 22.35 58.37 5.88 25.12 6.4 51.65 9.13 77.59.45 4.22 1.31 9.79-3.07 11.47-4.19 1.62-5.6-3.27-7.29-7.21a116.8 116.8 0 0 0 -12.41-22c-5.28-7.4-11.48-13.25-19-15.75a16.28 16.28 0 0 0 3.94 4.46c13.21 10.58 21.11 25.78 22.24 47.09.31 5.81-.66 11.39-1 17.08-.14 2.2-.54 4.59 1.34 5.56 9.12 4.7 17 13.53 26.76 16 14.92 3.72 30 1.83 45.12 1.75-8.69-2.76-17.44-5.12-25.19-11.35-13.45-10.78-25.71-22.68-27.69-46.3z"/><path d="m503 342.89c-5.49.2-10.19-4.51-15.41-4.93-17.72-1.43-35.48-2.16-53.21-3.25-19.84-1.22-38.81-5.7-54.12-25.37a43.09 43.09 0 0 1 -8.12-17.08c-3.77-15.81-1.45-31.7-.75-47.58.69-15.43 3-30.67 2.25-46.31-1.18-24.84-9.87-44.69-20.83-63.5-15.47-26.55-35.45-42.21-59.91-46-25.75-4-50.94 0-75.57 12.17-24.24 12-45 30.53-60.59 58.5-5.34 9.56-9 14.43-18.57 9.53-15.75-8.08-31.62-1.83-47.13 4.37-7.1 2.84-14.14 6.3-18.79 14.49-4 7.14-9.59 5.81-15 8.1.36-3.91 2.06-5 3.37-6.41 10.14-10.9 21.38-18.79 34.11-22.19 16.35-4.36 32.73-6.74 49.26-1.9 1.91.56 4.37 3.35 5.48-.4 1.23-4.12-1.74-5.69-3.93-7a36.84 36.84 0 0 0 -6-2.53c-9.1-3.49-18.28-1.71-27.51-1.13-40.27 2.53-66.13 34.38-86.03 78.53-1.22 2.7-1.3 5.4.58 7.76s3.91 3.59 6.16 1.6c3.64-3.22 7.34-6.35 11-9.64 8-7.29 14.49-18.3 25.77-18.08 7.92.15 14.5 3.21 21 8.85 5.51 4.8 5.22 13.73 8.47 20a18.18 18.18 0 0 1 1 14.85c-3.09 9.14-6.92 17.75-12.61 24.33-3.84 4.45-7.76 8.61-13.59 6.9-3.06-.9-5.88 1.94-8.69 4-11.86 8.85-23.54 18.45-37.47 20.08-5 .59-10.07.89-15.08 1.73-2 .34-4.48 1.36-4.5 4.89 0 3.75 2.3 5.52 4.63 5.57 8 .15 15.93 2.38 24 1.82 14.77-1 29.54-2.34 44.32-2.75 29.83-.83 58.08-8.95 83.38-31.82 1.45-1.31 3.09-3.22 4.73-1.39 2.72 3 6.06 4.37 9.17 6.64-1.34 2.7-3.22 3.55-4.94 4.49-37 20.27-74.92 34.86-115.44 30.47-2.77-.3-5.55-.7-8.32-.77-1.44 0-2.82.87-3.14 3.08-.27 2 .85 2.88 1.91 3.83a52.86 52.86 0 0 0 20.32 11.56c32.52 10 65.11 6.23 97.74 1.94 21.21-2.79 41.92-9.45 62.66-15.78 16.3-5 32.67-9.91 47.65-20.69 1.61-1.16 3-1 4.22.85s2.07 3.82 1.07 6.43c-2.08 5.44-4.69 10.62-4.2 17.31.08 1.11-.89 2.5-1.56 3.55a65.13 65.13 0 0 1 -20.5 20.39c-22.43 14.44-46 23.41-70.37 28.7a55.49 55.49 0 0 0 -16.57 6.36c-1.77 1-4.32 3.13-1.81 5.34s5 5 8.26 5.61c16 2.88 32 2.58 47.94.38 27.73-3.82 54.55-12.95 79.71-30 2.07-1.4 3.73-1.83 5.43 1.21 3 5.38 7.52 8.24 12.16 8.94 19 2.89 37.92 6.52 57.23 3.18 17.48-3 34.76-7.32 52-11.85 18-4.72 36.44-3.61 54.62-6.24 2-.29 5.05.27 5-3.4-.05-4.67-3.32-2.86-5.37-3.05-5.94-.58-12.54 3.43-17.39-4.86-.4-.68-1.65-.55-2.51-.6-7.31-.44-14.61-1-21.92-1.2-21.7-.52-43.36 4.34-65.15 1.48-11.1-1.46-22.23-2.21-33.05-6.27-4.5-1.68-6.82-5.17-5.88-12 2.08-15.11 3.16-16.35 12.9-8.64 11.15 8.83 22.79 13.76 35.67 14.1 36.75 1 73.47-.71 110.19-1.89a29.18 29.18 0 0 0 6.17-1.3 2.84 2.84 0 0 0 2.12-2.75c.17-2.08-.98-3.4-2.12-3.36zm-409.92-126.49c-7.5-7-16-9-25.19-9.44-11.7-.54-17.48 12.23-26.21 18.19a21.49 21.49 0 0 0 -2 1.82c6.51-15.67 20.64-25.35 32.6-24.78 16.25.77 27.24 12.84 35.6 30.46 5.35 11.27 3.44 26.75-3.87 34.79-.49-2.7 1-4.48 1.53-6.59 1-3.61 2.34-7.47 1.36-11.09-3.27-12.12-5.39-25.45-13.82-33.36zm79.92 67.92c-3.48-3.42-6.82-2.95-10.19.07-19 17.08-40 26.63-62.56 29.7-13.64 1.86-27.43.9-41.09 3.26a99.89 99.89 0 0 1 19.24-11.55c15.29-7.33 26.43-22.16 35.07-40.05 7.38-15.29 4.73-33-5.38-47.63q-4.31-6.23-8.82-12.2c-2.86-3.79-6.42-6.18-10.7-8.52 25-5.81 40.72 17.43 36 51.47a123.94 123.94 0 0 1 -14.18 42.56c-1.6 3-4 6.26-1.68 10.19 2.16 3.68 5.13 1.78 7.77.75 3.19-1.23 6.36-2.64 9-5.54 17.45-19.14 31.32-41.9 38.24-71.56 1-4.29 2.28-9 1.92-13.23-.56-6.53 2-9 5.41-11.34 1.08-.74 2.15-1.56 3.21-2.37 8.21-6.25 10.4-5 12.65 7.34a65.6 65.6 0 0 1 .11 22c-1 6.29-1.93 12.61-2.59 19-1.63 15.79 1.66 24.18 12.46 30.55 4.29 2.53 3.68 3.78.48 7.14-7.97 8.3-13.59 10.56-24.37-.04zm50.22-73.14c.29-4.62-1.53-8.41-4.21-11.72-10.14-12.55-22.26-16.85-35.31-14.45-8.28 1.52-15.51 8-22.2 15-1.78 1.85-3.39 4-6.64 5.35 6.09-9.17 13.2-13.94 20.11-18.91 11.71-8.41 24.12-11.87 37.37-8.68a29.52 29.52 0 0 1 16.26 10.63c5 6.22 6.18 14.14 5.55 23.4-1 15.31-3.45 29.56-11.94 40.77 2.93-13.78.12-27.66.99-41.39zm-32.53-14.4c-1.27-3.64-.64-4.14 2.25-4.09 9 .15 15.68 6.39 22.14 13.79a6.69 6.69 0 0 1 1.73 4.91c-.5 12.29.92 24.78-1.24 36.86a47.31 47.31 0 0 1 -9.38 21 3.4 3.4 0 0 1 -2.8 1.49c-5.72.05-13.16-9.63-13.27-19.07.54-4.38 1-10.58 2.11-16.54 2.46-13.08 2.77-25.87-1.56-38.35zm150.74 170a82.44 82.44 0 0 0 26.66 6.71c19.64 1.57 39.29 3 58.89-1.16a8.35 8.35 0 0 1 5.31.81c-5.74 1.52-11.48 3.08-17.23 4.54-6 1.53-12 3.3-18 4.35-11.56 2-23.15 4.83-34.76 5.09-13.88.3-27.81-1.57-41.59-4.37-3.68-.75-6.95-3.2-8.43-8.53s-4.19-5.73-7.55-3.33c-23.48 16.76-48.77 25.22-74.74 30.55-15.67 3.22-31.41 2.16-47.19 1.53 15.28-2.59 30.06-7.89 44.76-13.67a154.1 154.1 0 0 0 50.37-32.3 67.53 67.53 0 0 0 17.33-27.2c4.83-13.95.11-30-10.33-36.19-5.12-3-10.55-4.45-16-5.67.42-3 2-3.33 3.15-4.06 10.52-6.55 29.29.68 35.14 13.49 4.3 9.42 3.36 19.76 2.48 29.92a54.43 54.43 0 0 1 -8.74 25.48 90.11 90.11 0 0 0 -5.96 11.76 6.16 6.16 0 0 0 .41 6c1.26 1.89 2.79 1.77 4.31.8 12.16-7.73 23.85-17.29 31.13-32.65 5.89-12.42 4.84-27.71 3.13-42.45-3.55-30.59-36.83-43.83-52.72-33.94a76.37 76.37 0 0 0 -17.48 15.32 11.14 11.14 0 0 0 -2.82 5c-1.81 8.32-1.8 8.33-8.35 9.69 0-.67-.2-1.53 0-1.9 9.53-15.56 20.26-29 34.83-35.07 9.25-3.87 18.27-2.74 26.69 4.08 3.57 2.91 7.42 5.07 10.7 8.84 15 17.25 14.53 39.1 10.21 62.17-.86 4.6-2.39 9-3.12 13.62-1.73 11.48 1.24 19.16 9.49 22.79zm30.12-25.39c-9.72-2.43-17.64-11.26-26.76-16-1.88-1-1.48-3.36-1.34-5.56.36-5.69 1.33-11.27 1-17.08-1.13-21.31-9-36.51-22.24-47.09a16.28 16.28 0 0 1 -3.94-4.46c7.55 2.5 13.75 8.35 19 15.75a116.8 116.8 0 0 1 12.41 22c1.69 3.94 3.1 8.83 7.29 7.21 4.38-1.68 3.52-7.25 3.07-11.47-2.73-25.94-3.25-52.47-9.13-77.59-4.93-21.09-10.68-41.85-22.35-58.37-6.78-9.6-15.21-15.25-24-19.76-36.93-19-72.88-14-107.66 10.07a76.07 76.07 0 0 0 -20.29 19.94c-1.66 2.45-3.65 5.13-2 8.76 1.75 3.87 4.36 1.95 6.57.84 8.82-4.42 17.3-10.1 26.63-12.52 15.23-4 30.49-7.72 46.08-5.85a29.2 29.2 0 0 1 16.72 7.79c18.07 16.57 29.56 39.83 36.78 67.47 1.86 7.11 3.64 14.27 5.45 21.4-.82.42-1.18.8-1.44.7-25.35-9.8-43.33 7.09-59.36 30.82a125.46 125.46 0 0 0 -8.14 14c-4.18 8.32-2.63 13.23 4.54 15.16 3.93 1.06 7.78 1.82 11.88.65a19.5 19.5 0 0 1 12.92.47c-20.3 26.13-168.24 51.16-201.4 33.95 7.89.35 15.76 1.18 23.67-.3 37.7-7 73.7-21 105.9-49.66 14.26-12.66 26.77-28.36 34.59-49.66 4.82-13.15 6-27.4 5-41.86-1.15-15.43-13.26-28.94-26.88-32.28-23-5.66-41.89 6.93-59.85 24.17-.57.54-1 1.29-1.59 1.86-.8.82-1.64 2.29-2.68 1.07s-.23-2.66.17-3.94a125.41 125.41 0 0 1 12.18-27.45c25.06-41.25 58.08-60.89 96.38-65.91 17.28-2.27 34.41-2.5 51.17 5.34 14.44 6.75 26.38 18.38 35.91 34.35s18.8 32.58 20.36 54.57c1 14.17 0 28.07-1.06 42.08-1.21 16.83-2.61 33.65-1.19 50.65 2 23.62 14.24 35.52 27.57 46.22 7.75 6.23 16.5 8.59 25.19 11.35-15.11.05-30.23 1.94-45.15-1.78z"/><path d="m167.14 379.3c-.74-3.2-3.22-2.27-5-1.71-6.44 2-12.85 4.17-19.23 6.47-3.57 1.29-6.4.26-8.88-3.59-6.67-10.36-8.27-10.88-16.43-2.7-10 10.09-21.92 14.09-33.22 20.06-2.57 1.36-7.28.63-6.52 5.83.83 5.6 5.29 3.39 8 2.21 12.24-5.33 24.71-10.14 35-21.3 3.2-3.47 5.59-3.54 8.26 1.08s5.82 8.32 12.64 7.82c6.25-1.19 13.83-6.3 21.89-9.18 1.74-.62 4.29-1.59 3.49-4.99z"/><path d="m385.22 292.84a9.42 9.42 0 0 0 9.63-.9 33.32 33.32 0 0 0 9.58-9.73c2.89-4.39 5.15-4.54 8 .08 5.08 8.25 11.58 12.76 19.86 13.88l31.62-11.62a2 2 0 0 0 .46-.33c1.05-.9 2.2-1.87 1.88-3.84-.37-2.38-1.89-2.64-3.3-2.45a24.07 24.07 0 0 0 -4.6 1.22c-5.89 2.06-11.71 4.65-17.67 6.17-7.81 2-15.5 2.44-22.1-5.84-10.05-12.63-10.16-12.48-20.75-.47-.8.91-1.51 2-2.35 2.83-2.71 2.73-5.55 4.9-9.15 3.72-1.73-.57-3.75-1-4.16 2.29-.37 2.87 1.38 4.2 3.05 4.99z"/><path d="m347.55 418.93a6.76 6.76 0 0 0 -4.08-.45c-8.82 1.08-17.62 2.7-26.46 3.31-7.7.54-15-1.09-18.91-12.28-1.8-5.19-4.73-5.52-7.64-2.1-6.17 7.26-11.19 16.35-18.63 21.61a3.76 3.76 0 0 0 -1 4.33c.63 1.85 1.94 2.2 3.11 1.66a31.34 31.34 0 0 0 5.68-3.45c4.18-3.18 7.19-8.22 10.51-12.74 1.78-2.42 3.1-3.31 4.95.15 5 9.44 12.71 10.77 20.54 11.9 10.06-1.91 20.21-3.83 30.35-5.8a4 4 0 0 0 2-.94c2.03-1.95 1.79-3.99-.42-5.2z"/><path d="m118.23 118.71c1.51 0 2.76-.5 3.29-2.68 1.47-6.12-4.89-19.45-9.52-20-3.79-.42-6.4 3.37-5.79 8.42.66 5.55 7.98 14.18 12.02 14.26z"/><path d="m142.79 128.48c2.21 5.18 6.06 7.76 9.64 10.68 1.37 1.12 3 1.73 4.32-.23 1.19-1.77.25-3.51-.26-5.28-.89-3.1-1.55-6.33-2.47-9.42-1.29-4.33-3.63-6.89-6.71-7.16-4.81.15-6.9 5.8-4.52 11.41z"/><path d="m144.06 102.29a2.54 2.54 0 0 0 3.27-1.32 4.68 4.68 0 0 0 .06-4.65c-2-3.15-2.11-6.67-2.06-10.6s-1.66-6.61-4.33-7.16c-2.86-.17-4.84 2.18-5.42 5.92-.91 5.99 4.12 16.52 8.48 17.81z"/></g><g fill="#001400"><path d="m178.07 298.38c-3.11-2.27-6.45-3.6-9.17-6.64-1.64-1.83-3.28.08-4.73 1.39-25.3 22.87-53.55 31-83.38 31.82-14.78.41-29.55 1.72-44.32 2.75-8 .56-16-1.67-24-1.82-2.33-.05-4.65-1.82-4.63-5.57 0-3.53 2.5-4.55 4.5-4.89 5-.84 10.05-1.14 15.08-1.73 13.93-1.63 25.61-11.23 37.47-20.08 2.81-2.1 5.63-4.94 8.69-4 5.83 1.71 9.75-2.45 13.59-6.9 5.69-6.58 9.52-15.19 12.61-24.33a18.18 18.18 0 0 0 -1-14.85c-3.25-6.27-3-15.2-8.47-20-6.47-5.64-13-8.7-21-8.85-11.28-.22-17.75 10.79-25.77 18.08-3.61 3.29-7.31 6.42-11 9.64-2.25 2-4.34.68-6.16-1.6s-1.65-5.1-.38-7.8c20-44.15 45.81-76 86.1-78.53 9.23-.58 18.41-2.36 27.51 1.13a36.84 36.84 0 0 1 6 2.53c2.19 1.31 5.16 2.88 3.93 7-1.11 3.75-3.57 1-5.48.4-16.53-4.84-32.91-2.46-49.26 1.9-12.77 3.4-24 11.29-34.11 22.23-1.31 1.41-3 2.5-3.37 6.41 5.38-2.29 10.92-1 15-8.1 4.65-8.19 11.69-11.65 18.79-14.49 15.51-6.2 31.38-12.45 47.13-4.37 9.56 4.9 13.23 0 18.57-9.53 15.6-28 36.35-46.47 60.59-58.5 24.53-12.22 49.72-16.08 75.47-12.17 24.46 3.75 44.44 19.41 59.91 46 11 18.81 19.65 38.66 20.83 63.5.74 15.64-1.56 30.88-2.25 46.31-.7 15.88-3 31.77.75 47.58a43.09 43.09 0 0 0 8.12 17.08c15.31 19.67 34.28 24.15 54.12 25.37 17.73 1.09 35.49 1.82 53.21 3.25 5.22.42 9.92 5.13 15.41 4.93 1.17 0 2.32 1.28 2.16 3.38a2.84 2.84 0 0 1 -2.13 2.69 29.18 29.18 0 0 1 -6.2 1.21c-36.72 1.18-73.44 2.86-110.19 1.89-12.88-.34-24.52-5.27-35.67-14.1-9.74-7.71-10.82-6.47-12.9 8.64-.94 6.88 1.38 10.37 5.88 12 10.82 4.06 21.95 4.81 33.05 6.27 21.81 2.88 43.47-2 65.22-1.44 7.31.19 14.61.76 21.92 1.2.86.05 2.11-.08 2.51.6 4.85 8.29 11.45 4.28 17.39 4.86 2.05.19 5.32-1.62 5.37 3.05 0 3.67-3 3.11-5 3.4-18.18 2.63-36.6 1.52-54.62 6.24-17.28 4.53-34.56 8.82-52 11.85-19.31 3.34-38.23-.3-57.23-3.18-4.64-.7-9.13-3.56-12.16-8.94-1.7-3-3.36-2.61-5.43-1.21-25.16 17-52 26.17-79.71 30-15.92 2.2-32 2.5-47.94-.38-3.29-.59-5.78-3.44-8.26-5.61s0-4.3 1.81-5.34a55.49 55.49 0 0 1 16.57-6.36c24.39-5.29 47.94-14.26 70.37-28.7a65.13 65.13 0 0 0 20.5-20.37c.67-1.05 1.64-2.44 1.56-3.55-.49-6.69 2.12-11.87 4.2-17.31 1-2.61.18-4.55-1.07-6.43s-2.61-2-4.22-.85c-15 10.78-31.35 15.71-47.65 20.69-20.74 6.33-41.45 13-62.66 15.78-32.63 4.29-65.22 8.07-97.74-1.94a52.86 52.86 0 0 1 -20.52-11.55c-1.06-1-2.18-1.86-1.91-3.83.32-2.21 1.7-3.12 3.14-3.08 2.77.07 5.55.47 8.32.77 40.52 4.39 78.39-10.2 115.44-30.47 1.68-.88 3.56-1.73 4.9-4.43zm238.58 44.81c-8.69-2.76-17.44-5.12-25.19-11.35-13.33-10.7-25.59-22.6-27.57-46.22-1.42-17 0-33.82 1.19-50.65 1-14 2.07-27.91 1.06-42.08-1.56-22-10.75-38.48-20.36-54.57s-21.47-27.6-35.91-34.35c-16.76-7.84-33.89-7.61-51.17-5.34-38.3 5-71.32 24.66-96.38 65.91a125.41 125.41 0 0 0 -12.18 27.46c-.4 1.28-1.14 2.8-.17 3.94s1.88-.25 2.68-1.07c.55-.57 1-1.32 1.59-1.86 18-17.24 36.83-29.83 59.85-24.17 13.62 3.34 25.73 16.85 26.88 32.28 1.07 14.46-.16 28.71-5 41.86-7.81 21.33-20.32 37-34.58 49.69-32.2 28.62-68.2 42.63-105.9 49.66-7.91 1.48-15.78.65-23.67.3 33.18 17.21 181.1-7.82 201.4-33.95a19.5 19.5 0 0 0 -12.92-.47c-4.1 1.17-7.95.41-11.88-.65-7.17-1.93-8.72-6.84-4.54-15.16a125.46 125.46 0 0 1 8.14-14c16-23.73 34-40.62 59.36-30.82.26.1.62-.28 1.44-.7-1.81-7.13-3.59-14.29-5.45-21.4-7.22-27.64-18.71-50.9-36.78-67.47a29.2 29.2 0 0 0 -16.59-7.67c-15.59-1.87-30.85 1.89-46.08 5.85-9.33 2.42-17.81 8.1-26.63 12.52-2.21 1.11-4.82 3-6.57-.84-1.65-3.63.34-6.31 2-8.76a76.07 76.07 0 0 1 20.28-19.94c34.78-24 70.73-29.07 107.66-10.07 8.76 4.51 17.19 10.16 24 19.76 11.67 16.52 17.42 37.28 22.35 58.37 5.88 25.12 6.4 51.65 9.13 77.59.45 4.22 1.31 9.79-3.07 11.47-4.19 1.62-5.6-3.27-7.29-7.21a116.8 116.8 0 0 0 -12.41-22c-5.28-7.4-11.48-13.25-19-15.75a16.28 16.28 0 0 0 3.94 4.46c13.21 10.58 21.11 25.78 22.24 47.09.31 5.81-.66 11.39-1 17.08-.14 2.2-.54 4.59 1.34 5.56 9.12 4.7 17 13.53 26.76 16 14.8 3.64 29.92 1.75 45 1.67zm-233.88 59.81c15.78.63 31.52 1.69 47.19-1.53 26-5.33 51.26-13.79 74.74-30.55 3.36-2.4 6.05-2.05 7.55 3.33s4.75 7.78 8.43 8.53c13.78 2.8 27.71 4.67 41.59 4.37 11.61-.26 23.2-3.06 34.76-5.09 6-1.05 12-2.82 18-4.35 5.75-1.46 11.49-3 17.23-4.54a8.35 8.35 0 0 0 -5.31-.81c-19.6 4.18-39.25 2.73-58.89 1.16a82.44 82.44 0 0 1 -26.66-6.71c-8.25-3.63-11.22-11.31-9.42-22.75.73-4.63 2.26-9 3.12-13.62 4.32-23.07 4.77-44.92-10.21-62.17-3.28-3.77-7.13-5.93-10.7-8.84-8.42-6.82-17.44-7.95-26.69-4.08-14.57 6.08-25.3 19.51-34.83 35.07-.23.37 0 1.23 0 1.9 6.55-1.36 6.54-1.37 8.35-9.69a11.14 11.14 0 0 1 2.82-5 76.37 76.37 0 0 1 17.48-15.32c15.89-9.89 49.17 3.35 52.72 33.94 1.71 14.74 2.76 30-3.13 42.45-7.28 15.36-19 24.92-31.13 32.65-1.52 1-3.05 1.09-4.31-.8a6.16 6.16 0 0 1 -.41-6 90.11 90.11 0 0 1 5.89-11.75 54.43 54.43 0 0 0 8.74-25.48c.88-10.16 1.82-20.5-2.48-29.92-5.85-12.81-24.62-20-35.14-13.49-1.17.73-2.73 1-3.15 4.06 5.48 1.22 10.91 2.63 16 5.67 10.44 6.19 15.16 22.24 10.33 36.19a67.53 67.53 0 0 1 -17.32 27.17 154.1 154.1 0 0 1 -50.4 32.34c-14.7 5.79-29.48 11.09-44.76 13.66zm-123.63-85.65c13.66-2.36 27.45-1.4 41.09-3.26 22.55-3.07 43.53-12.62 62.56-29.7 3.37-3 6.71-3.49 10.19-.07 10.8 10.6 16.42 8.34 24.43 0 3.2-3.36 3.81-4.61-.48-7.14-10.8-6.37-14.09-14.76-12.46-30.55.66-6.36 1.62-12.68 2.59-19a65.6 65.6 0 0 0 -.11-22c-2.25-12.34-4.44-13.59-12.65-7.34-1.06.81-2.13 1.63-3.21 2.37-3.42 2.34-6 4.81-5.41 11.34.36 4.26-.92 8.94-1.92 13.23-6.92 29.66-20.79 52.42-38.24 71.56-2.64 2.9-5.81 4.31-9 5.54-2.64 1-5.61 2.93-7.77-.75-2.31-3.93.08-7.21 1.68-10.19a123.94 123.94 0 0 0 14.18-42.56c4.68-34-11.06-57.28-36-51.47 4.28 2.34 7.84 4.73 10.7 8.52q4.5 6 8.82 12.2c10.11 14.63 12.76 32.34 5.38 47.63-8.64 17.89-19.78 32.72-35.07 40.05a99.89 99.89 0 0 0 -19.3 11.59zm131-65.68c.11 9.44 7.55 19.12 13.27 19.07a3.4 3.4 0 0 0 2.8-1.49 47.31 47.31 0 0 0 9.38-21c2.16-12.08.74-24.57 1.24-36.86a6.69 6.69 0 0 0 -1.73-4.91c-6.46-7.4-13.19-13.64-22.14-13.79-2.89-.05-3.52.45-2.25 4.09 4.36 12.48 4 25.27 1.54 38.35-1.16 5.96-1.61 12.16-2.15 16.54zm32.11.9c8.49-11.21 10.91-25.46 11.94-40.77.63-9.26-.51-17.18-5.55-23.4a29.52 29.52 0 0 0 -16.28-10.62c-13.25-3.19-25.66.27-37.37 8.68-6.91 5-14 9.74-20.11 18.91 3.25-1.36 4.86-3.5 6.64-5.35 6.69-7 13.92-13.49 22.2-15 13-2.4 25.17 1.9 35.31 14.45 2.68 3.31 4.5 7.1 4.21 11.72-.91 13.72 1.9 27.6-1.03 41.38zm-118.25 14.87c7.31-8 9.22-23.52 3.87-34.79-8.33-17.65-19.32-29.65-35.57-30.46-12-.57-26.09 9.11-32.6 24.78a21.49 21.49 0 0 1 2-1.82c8.73-6 14.51-18.73 26.21-18.19 9.22.44 17.69 2.4 25.19 9.44 8.43 7.91 10.55 21.24 13.84 33.36 1 3.62-.37 7.48-1.36 11.09-.58 2.15-2.04 3.89-1.58 6.59z"/><path d="m141.78 393.47c-6.82.5-10-3.29-12.64-7.82s-5.06-4.55-8.26-1.08c-10.33 11.16-22.8 16-35 21.3-2.7 1.18-7.16 3.39-8-2.21-.76-5.2 4-4.47 6.52-5.83 11.3-6 23.18-10 33.22-20.06 8.16-8.18 9.76-7.66 16.43 2.7 2.48 3.85 5.31 4.88 8.88 3.59 6.38-2.3 12.79-4.44 19.23-6.47 1.79-.56 4.27-1.49 5 1.71.8 3.4-1.75 4.37-3.47 5-8.08 2.87-15.69 7.98-21.91 9.17z"/><path d="m432.28 296.17c-8.28-1.12-14.78-5.63-19.86-13.88-2.84-4.62-5.1-4.47-8-.08a33.32 33.32 0 0 1 -9.58 9.73 9.42 9.42 0 0 1 -9.63.9c-1.67-.79-3.42-2.12-3.06-5 .41-3.32 2.43-2.86 4.16-2.29 3.6 1.18 6.44-1 9.15-3.72.84-.85 1.55-1.92 2.35-2.83 10.59-12 10.7-12.16 20.75.47 6.6 8.28 14.29 7.83 22.1 5.84 6-1.53 11.78-4.11 17.67-6.17a24.07 24.07 0 0 1 4.6-1.22c1.41-.19 2.93.07 3.3 2.45.32 2-.83 2.94-1.88 3.84a2 2 0 0 1 -.46.33z"/><path d="m315.59 430.87c-7.83-1.13-15.5-2.46-20.54-11.9-1.85-3.46-3.17-2.57-4.95-.15-3.32 4.52-6.33 9.56-10.51 12.74a31.34 31.34 0 0 1 -5.68 3.45c-1.17.54-2.48.19-3.11-1.66a3.76 3.76 0 0 1 1-4.33c7.44-5.26 12.46-14.35 18.63-21.61 2.91-3.42 5.84-3.09 7.64 2.1 3.93 11.19 11.24 12.82 18.93 12.28 8.84-.61 17.64-2.23 26.46-3.31a6.76 6.76 0 0 1 4.08.45c2.21 1.21 2.42 3.25.35 5.2a4 4 0 0 1 -2 .94c-10.09 1.93-20.24 3.93-30.3 5.8z"/><path d="m112 96.06c4.63.52 11 13.85 9.52 20-.53 2.18-1.78 2.71-3.29 2.68-4-.08-11.36-8.72-12-14.23-.63-5.08 1.98-8.87 5.77-8.45z"/><path d="m147.31 117.07c3.08.27 5.42 2.83 6.71 7.16.92 3.09 1.58 6.32 2.47 9.42.51 1.77 1.45 3.51.26 5.28-1.31 2-2.95 1.35-4.32.23-3.58-2.92-7.43-5.5-9.64-10.68-2.38-5.61-.29-11.26 4.52-11.41z"/><path d="m141 78.56c2.67.55 4.37 3.22 4.33 7.16s.1 7.45 2.06 10.6a4.68 4.68 0 0 1 -.06 4.65 2.54 2.54 0 0 1 -3.27 1.32c-4.36-1.28-9.39-11.82-8.48-17.81.58-3.74 2.56-6.09 5.42-5.92z"/></g></g></svg>