<svg viewBox="0 0 496.18 496.59" xmlns="http://www.w3.org/2000/svg"><path d="m0 .42h496.18v496.18h-496.18z" fill="none"/><g transform="translate(-7.43 -8.39)"><g fill="#fff8ff"><path d="m389.08 394.87 1.6.8c10-7.29 18.5-15.59 23.63-25.95 1.19-2.39 1.66-6-2.59-7.12-4.4-1.2-7.35 1-8.89 4.28-2.93 6.2-5.56 12.5-8.52 18.7-1.51 3.17-3.47 6.2-5.23 9.29z"/><path d="m430.77 365.22c1.62 7.16-.45 13.85-4.93 20.28a13.17 13.17 0 0 0 2.37-1.67c7.29-8.13 13.07-16.91 16.59-26.63a20.69 20.69 0 0 0 1.06-11c-.95-5-4.69-7.22-10.61-6.11a46.74 46.74 0 0 0 -22.17 10.85c9.29 2.39 15.92 6.56 17.69 14.28z"/><path d="m113 326.3c21.08 8.85 44.15 12 67 15.86 31.28 5.28 63 5.8 94.67 6 28.42.18 56.23-4.93 84-9.46a79.24 79.24 0 0 0 29.86-11.7c7.6-4.84 7.06-8.32-1.28-12a60.32 60.32 0 0 0 -8.48-3.51c-38-10.36-76.47-18.59-117-17.68-10.63.24-10.64.06-5.93 8.16.49.84 1 1.67 1.42 2.54.68 1.42 1.33 3-.58 4-2.26 1.17-4-.08-5-1.6-2.3-3.42-4.26-7-6.52-10.42-1.31-2-3.69-3.44-6.13-2.06s.12 3 1.16 4.23c5.76 6.86 10.75 14.21 18.62 19.76 1.55 1.09 3 2.73 1.47 4.42-1.81 2.06-4.12.86-6-.08a26.3 26.3 0 0 1 -4.19-2.83c-7.79-6-15.11-12.32-20.91-19.76-1.63-2.1-3.24-5.08-7.15-4.3-19.62 3.91-39.55 6.34-59.44 9-1.52.21-3.45.32-3.52 2.06-.11 3.21-3 4.3-5.79 5.6-1.73.8-4.06 1.5-3.82 3.5s2.71 2.33 4.5 3a154.28 154.28 0 0 0 34.33 8.57c13.67 1.61 27.39 2.89 41.09 4.31 3.19.33 7 .53 6.88 4-.15 3.22-4.08 3.26-6.86 3.27-7.91 0-15.82-.31-23.73-.54a277.28 277.28 0 0 1 -59.51-8c-6.35-1.59-12.88-3.8-14.5-9.75-1.58-5.78 4.75-8.25 8.92-11.74-10 1.33-18.91 4.9-27.67 8.76-2.4 1.06-5.21 2.24-5.21 4.73s3.3 2.79 5.3 3.66z"/><path d="m194.36 459.25c15.39 0 30.73 1.67 46.77.74 20.3 1.28 40.94-1.26 61.62-3.25 14.48-1.4 27.59-4.5 37.19-14.8 11.93-12.81 24.86-24.85 34.24-39.31 13.28-20.46 22.12-41.9 26.46-64.7.23-1.2 1.06-2.72-.74-3.52-1.36-.6-2.47.54-3.7.95-12.94 4.34-25.24 9.77-39 12.65a424.76 424.76 0 0 1 -96.2 9.13c-24.56-.54-49.26-1.07-73.76-4-29.69-3.55-59.14-7.26-85.45-20.21-3.38-1.67-3.89-.08-3.92 2.18a61.89 61.89 0 0 0 2.91 18.21c10.16 35 29 66.28 59.2 92.8 9.68 8.46 20.44 13.12 34.38 13.13z"/><path d="m449.67 439c-12.85-7.47-27.33-12.41-42-16.8-6.68-2-13.26-2.29-19.94 1.53a69.07 69.07 0 0 1 -18.43 7c-7.55 1.76-12.5 5.66-17.07 10.35-6 6.11-6 6.09 2.93 9.37a30.22 30.22 0 0 1 4.25 1.73c5.27 3 11 5.95 10.49 12.06-.46 5.95-5.43 9.61-11.27 12.45a32 32 0 0 1 -6.3 2.05c-15.95 3.87-32.36 5.43-48.9 6.06-3.63.13-9.87 1.52-10-3s6.07-3.46 9.85-3.48c10.93-.05 21.75-.52 32.16-3.53 5.29-1.53 9.84-3.9 11.79-8.55 1.42-3.43.27-6.23-3.51-8.19-3.54-1.83-6.35-2.13-10.26.46-7.93 5.27-15.24 11.05-26.2 13-29.65 5.34-59.3 7.56-89.66 5.59-21.05-1.37-40.28-4.64-54-19.26-1.62-1.73-3.8-3.38-7-1.83-2.82 1.37-5.21 2.95-5.52 5.93-.29 2.8 1.22 4.7 4.25 5.73 9.18 3.14 18.25 6.57 28.05 8.24 13.57 2.31 27.34 3 41.16 3.46 2.56.08 5.47-.57 8 2.1a100.61 100.61 0 0 1 -38.92 3c-9-1.06-17.86-2.36-26.9-3.07-10.9-.87-21.72-2.4-29.72-9.52-4.94-4.34-5.09-9-.4-13.47a27.44 27.44 0 0 1 10.89-6.51c5.64-1.75 4.73-3.48 1.4-6.54-9.2-8.46-18.16-17.11-25.36-26.85-1.69-2.3-3.71-2.18-6.35-1.59q-10.49 2.35-21 4.47c-17 3.39-33.81 6.94-47.9 16.25-9.52 6.29-12.7 18.47-4.76 24a104.31 104.31 0 0 0 37.34 16.46c25.23 5.51 51.06 8.28 76.92 10.71 26.29 2.48 52.51 5.87 79 6.21 18.58.25 37.19-.41 55.73.25 40.94 1.47 81.47.42 120.76-10.46a149.3 149.3 0 0 0 41.73-18.28c4.13-2.68 6.19-6.19 6.11-10.67-.11-7.39-4.54-12.86-11.44-16.86z"/><path d="m490.49 445.55a36.09 36.09 0 0 0 -10.76-10c-15.61-9.14-33.58-13.68-51.68-17.94-6.46-1.52-13-2.7-20-4.13 1.31-2.26 3.2-3.25 5-4.29a114 114 0 0 0 27.51-22.19c11-12 19.33-24.75 17.71-40.53-.76-7.37-3.83-13.35-12.26-16.82a25 25 0 0 0 -23.09 1.52c-3.64 2.09-7.34 4.12-11.31 6.35-1.22-2.46.08-4.4.17-6.36.24-5.09 2.09-9.95-.7-15.31-4.34-8.35-12.05-13-21.73-15.61a612 612 0 0 0 -68.35-14.36c-11.13-1.66-22.44-3.1-33.72-2.67-12.26.46-24.4-1.09-36.62-.52-3.55.17-5.4-1.5-5.55-4.44-.55-10.28 1-20.08 9.35-28.4a230.58 230.58 0 0 1 34.65-28.24c31.42-21.13 39.65-51.71 26.48-82-5-11.55-13.84-21.31-21.71-31.49-22-28.48-21.63-57.44-3.48-86.92 2.5-4.07 5.38-8 8.67-12.8a19.19 19.19 0 0 0 -10 4.81c-25.27 20.79-34.26 45.79-25.97 74.19 5.17 17.73 13.75 34.59 24.62 50.6 4.39 6.47 8.63 13 10 20.57 2.36 12.56-2.07 23.89-8.27 35-9.1 16.32-25.36 28-39.73 40.75-12.62 11.23-18.72 23.5-14 38.72a54.55 54.55 0 0 1 1.2 6.06c.31 1.61 1.34 3.55-1.36 4.31a4.93 4.93 0 0 1 -6-2.53c-7.54-13.11-10.25-26.17.12-39.3a217.33 217.33 0 0 1 17.21-19.37c11-10.94 19.27-22.91 21.86-37.22 2.5-13.8-7.1-28.1-22.17-32.49-1.81-.52-4.11-2.06-5.57-.32-1.66 2 1.05 3.27 2.38 4.67 3.05 3.23 6.34 6.33 9.12 9.71 6.43 7.81 5.81 15.87-1.37 23.19a146.61 146.61 0 0 1 -16.07 14.38 95.27 95.27 0 0 0 -21.19 21.65c-11.87 17.14-15 34.47-3.09 52.54 4.44 6.74 4.26 7.07-5 7.48-34.59 1.53-66.86 11-99.48 19.37-6.55 1.67-12 4.89-14 10.49-2.73 7.5-4.11 15.3-3.06 23.14 3.13 23.24 12.61 44.9 25.21 65.7 4.37 7.22 3.67 6.1-4 7.93-18 4.31-36.9 6.12-53.93 13.21-11.28 4.7-23.18 8.51-32.14 16.32-8.56 7.45-9.2 13.42-1 21.1s18.61 13.57 30.33 17.47c9.51 3.16 19.59 4.44 29.53 6.29 47 8.77 94.93 11.66 142.76 14.64 28.4 1.77 57.05.91 85.58 1.41 25.46.45 50.57-2.89 75.85-4.36 35.62-2.07 68.6-9.64 95.54-30.38 9.57-7.37 12.86-15.39 7.51-22.58zm-55.24-105.48c5.92-1.11 9.66 1.14 10.61 6.11a20.69 20.69 0 0 1 -1.06 11c-3.52 9.72-9.3 18.5-16.59 26.63a13.17 13.17 0 0 1 -2.37 1.67c4.48-6.43 6.55-13.12 4.93-20.28-1.75-7.72-8.4-11.89-17.69-14.3a46.74 46.74 0 0 1 22.17-10.83zm-23.53 22.53c4.25 1.16 3.78 4.73 2.59 7.12-5.13 10.36-13.66 18.66-23.63 25.95l-1.6-.8c1.76-3.09 3.72-6.12 5.23-9.29 3-6.2 5.59-12.5 8.52-18.7 1.54-3.25 4.49-5.48 8.89-4.28zm-298.88-44.66c8.76-3.86 17.66-7.43 27.67-8.76-4.17 3.49-10.5 6-8.92 11.74 1.62 5.95 8.15 8.16 14.5 9.75a277.28 277.28 0 0 0 59.51 8c7.91.23 15.82.56 23.73.54 2.78 0 6.71-.05 6.86-3.27.15-3.47-3.69-3.67-6.88-4-13.7-1.42-27.42-2.7-41.09-4.31a154.28 154.28 0 0 1 -34.33-8.63c-1.79-.65-4.27-1-4.5-3s2.09-2.7 3.82-3.5c2.79-1.3 5.68-2.39 5.79-5.6.07-1.74 2-1.85 3.52-2.06 19.89-2.69 39.82-5.12 59.44-9 3.91-.78 5.52 2.2 7.15 4.3 5.8 7.44 13.12 13.76 20.91 19.76a26.3 26.3 0 0 0 4.19 2.83c1.91.94 4.22 2.14 6 .08 1.48-1.69.08-3.33-1.47-4.42-7.87-5.55-12.86-12.9-18.62-19.76-1-1.24-3.54-2.89-1.16-4.23s4.82.08 6.13 2.06c2.26 3.43 4.22 7 6.52 10.42 1 1.52 2.77 2.77 5 1.6 1.91-1 1.26-2.62.58-4-.4-.87-.93-1.7-1.42-2.54-4.71-8.1-4.7-7.92 5.93-8.16 40.54-.91 79 7.32 117 17.68a60.32 60.32 0 0 1 8.48 3.51c8.34 3.72 8.88 7.2 1.28 12a79.24 79.24 0 0 1 -29.81 11.72c-27.76 4.53-55.57 9.64-84 9.46-31.66-.2-63.39-.72-94.67-6-22.87-3.85-45.94-7-67-15.86-2.09-.87-5.42-1.1-5.41-3.63s2.87-3.66 5.27-4.72zm-12 35.37a61.89 61.89 0 0 1 -2.91-18.21c0-2.26.54-3.85 3.92-2.18 26.31 12.95 55.76 16.66 85.45 20.21 24.5 2.94 49.2 3.47 73.76 4a424.76 424.76 0 0 0 96.12-9.13c13.78-2.88 26.08-8.31 39-12.65 1.23-.41 2.34-1.55 3.7-.95 1.8.8 1 2.32.74 3.52-4.34 22.8-13.18 44.24-26.46 64.7-9.38 14.46-22.31 26.5-34.24 39.31-9.6 10.3-22.71 13.4-37.19 14.8-20.68 2-41.32 4.53-61.62 3.25-16 .93-31.38-.73-46.77-.74-13.94 0-24.7-4.67-34.37-13.14-30.23-26.51-48.97-57.75-59.18-92.79zm354.16 113.22a149.3 149.3 0 0 1 -41.73 18.28c-39.29 10.88-79.82 11.93-120.76 10.46-18.54-.66-37.15 0-55.73-.25-26.53-.34-52.75-3.73-79-6.21-25.86-2.43-51.69-5.2-76.92-10.71a104.31 104.31 0 0 1 -37.38-16.48c-7.94-5.51-4.76-17.69 4.76-24 14.09-9.31 30.91-12.86 47.9-16.25q10.56-2.11 21-4.47c2.64-.59 4.66-.71 6.35 1.59 7.2 9.74 16.16 18.39 25.36 26.85 3.33 3.06 4.24 4.79-1.4 6.54a27.44 27.44 0 0 0 -10.89 6.51c-4.69 4.5-4.54 9.13.4 13.47 8 7.07 18.82 8.65 29.69 9.51 9 .71 17.94 2 26.9 3.07a100.61 100.61 0 0 0 38.92-3c-2.54-2.67-5.45-2-8-2.1-13.82-.42-27.59-1.15-41.16-3.46-9.8-1.67-18.87-5.1-28.05-8.24-3-1-4.54-2.93-4.25-5.73.31-3 2.7-4.56 5.52-5.93 3.19-1.55 5.37.1 7 1.83 13.73 14.62 33 17.89 54 19.26 30.36 2 60-.25 89.66-5.59 11-2 18.27-7.75 26.2-13 3.91-2.59 6.72-2.29 10.26-.46 3.78 2 4.93 4.76 3.51 8.19-1.95 4.65-6.5 7-11.79 8.55-10.41 3-21.23 3.48-32.16 3.53-3.78 0-10-.95-9.85 3.48s6.38 3.1 10 3c16.54-.63 33-2.19 48.9-6.06a32 32 0 0 0 6.3-2.05c5.84-2.84 10.81-6.5 11.27-12.45.48-6.11-5.22-9.09-10.49-12.06a30.22 30.22 0 0 0 -4.25-1.73c-8.9-3.28-8.9-3.26-2.93-9.37 4.57-4.69 9.52-8.59 17.07-10.35a69.07 69.07 0 0 0 18.43-7c6.68-3.82 13.26-3.53 19.94-1.53 14.7 4.39 29.18 9.33 42 16.8 6.9 4 11.35 9.46 11.48 16.85.15 4.52-1.91 8.03-6.08 10.71z"/></g><path d="m298.5 8.64c-3.28 4.83-6.17 8.73-8.67 12.8-18.15 29.48-18.54 58.44 3.49 86.93 7.87 10.17 16.68 19.93 21.7 31.48 13.17 30.3 4.94 60.89-26.48 82a231.09 231.09 0 0 0 -34.65 28.24c-8.32 8.33-9.9 18.12-9.35 28.41.15 2.94 2 4.6 5.55 4.43 12.22-.57 24.36 1 36.62.52 11.28-.43 22.59 1 33.72 2.68a609.75 609.75 0 0 1 68.39 14.36c9.68 2.61 17.4 7.27 21.73 15.62 2.79 5.35.94 10.21.71 15.31-.1 1.95-1.4 3.89-.17 6.35 4-2.22 7.66-4.25 11.3-6.34a25 25 0 0 1 23.09-1.52c8.43 3.46 11.51 9.44 12.26 16.81 1.62 15.78-6.75 28.57-17.71 40.54a114.2 114.2 0 0 1 -27.48 22.22c-1.8 1-3.7 2-5 4.28 6.95 1.43 13.52 2.61 20 4.13 18.1 4.27 36.07 8.8 51.68 17.94a36.25 36.25 0 0 1 10.77 10c5.35 7.19 2.06 15.21-7.52 22.59-26.94 20.73-59.92 28.31-95.53 30.37-25.29 1.47-50.4 4.81-75.86 4.36-28.53-.5-57.17.37-85.58-1.41-47.82-3-95.75-5.86-142.76-14.63-9.94-1.86-20-3.13-29.53-6.3-11.75-3.9-22-9.65-30.36-17.43s-7.59-13.65 1-21.11c9-7.81 20.86-11.62 32.15-16.32 17-7.09 35.91-8.9 53.92-13.2 7.69-1.84 8.38-.72 4-7.94-12.6-20.79-22.08-42.46-25.21-65.7-1-7.84.33-15.63 3.06-23.14 2-5.6 7.49-8.81 14-10.49 32.61-8.32 64.88-17.84 99.47-19.37 9.27-.41 9.45-.73 5-7.47-11.92-18.08-8.78-35.4 3.09-52.55a95.68 95.68 0 0 1 21.19-21.65 145.62 145.62 0 0 0 16.08-14.44c7.18-7.33 7.8-15.38 1.37-23.2-2.78-3.38-6.06-6.48-9.12-9.71-1.33-1.4-4-2.69-2.37-4.67 1.46-1.73 3.75-.2 5.56.33 15.07 4.38 24.67 18.68 22.17 32.49-2.59 14.3-10.85 26.27-21.86 37.21a214.39 214.39 0 0 0 -17.2 19.38c-10.38 13.13-7.66 26.19-.13 39.3a5 5 0 0 0 6 2.53c2.7-.77 1.67-2.71 1.37-4.31a56.66 56.66 0 0 0 -1.21-6.07c-4.68-15.21 1.43-27.48 14-38.71 14.37-12.8 30.64-24.43 39.73-40.75 6.2-11.14 10.64-22.48 8.27-35-1.42-7.56-5.66-14.11-10.05-20.57-10.86-16-19.44-32.88-24.62-50.61-8.29-28.44.71-53.38 25.9-74.19a19.2 19.2 0 0 1 10.08-4.81zm-57.9 451.61c20.3 1.27 40.94-1.27 61.62-3.26 14.49-1.4 27.59-4.49 37.19-14.8 11.93-12.81 24.86-24.85 34.24-39.31 13.28-20.46 22.12-41.89 26.46-64.69.23-1.21 1.06-2.72-.74-3.52-1.36-.6-2.47.53-3.69.94-12.94 4.34-25.25 9.78-39 12.66a425.24 425.24 0 0 1 -96.16 9.12c-24.56-.53-49.27-1.07-73.77-4-29.68-3.55-59.14-7.26-85.45-20.21-3.38-1.67-3.88-.08-3.92 2.18a62.22 62.22 0 0 0 2.91 18.21c10.16 35 29 66.28 59.2 92.8 9.67 8.48 20.44 13.13 34.37 13.14 15.36 0 30.7 1.67 46.74.74zm-8.6 21.51a100.76 100.76 0 0 1 -38.91 2.95c-9-1-17.87-2.36-26.91-3.07-10.87-.86-21.65-2.44-29.69-9.51-4.94-4.34-5.09-9-.4-13.47a27.55 27.55 0 0 1 10.91-6.51c5.65-1.74 4.73-3.47 1.4-6.54-9.2-8.46-18.16-17.11-25.35-26.85-1.7-2.29-3.72-2.18-6.36-1.58q-10.49 2.35-21 4.46c-17 3.39-33.81 6.95-47.9 16.26-9.52 6.29-12.7 18.46-4.75 24a104.36 104.36 0 0 0 37.37 16.48c25.23 5.51 51.07 8.27 76.92 10.71 26.3 2.47 52.51 5.86 79 6.21 18.58.24 37.19-.42 55.73.25 40.94 1.46 81.48.41 120.76-10.47a149.15 149.15 0 0 0 41.73-18.27c4.13-2.69 6.2-6.19 6.11-10.68-.13-7.39-4.58-12.84-11.47-16.85-12.86-7.46-27.34-12.41-42-16.8-6.69-2-13.27-2.28-19.95 1.54a69.63 69.63 0 0 1 -18.43 7c-7.55 1.75-12.5 5.66-17.07 10.34-6 6.11-6 6.1 2.93 9.37a29.1 29.1 0 0 1 4.25 1.74c5.28 3 11 5.94 10.5 12.06-.47 5.95-5.43 9.61-11.27 12.44a32.48 32.48 0 0 1 -6.3 2.05c-16 3.87-32.37 5.43-48.9 6.06-3.64.14-9.88 1.52-10-3s6.07-3.46 9.85-3.48c10.93-.05 21.75-.52 32.16-3.53 5.29-1.53 9.85-3.9 11.79-8.55 1.43-3.42.27-6.23-3.51-8.19-3.54-1.83-6.35-2.13-10.26.47-7.92 5.26-15.24 11-26.2 13-29.64 5.34-59.3 7.55-89.66 5.58-21.05-1.36-40.28-4.64-54-19.26-1.63-1.73-3.81-3.37-7-1.82-2.82 1.37-5.21 2.95-5.52 5.92-.29 2.8 1.22 4.7 4.25 5.74 9.18 3.13 18.25 6.56 28.05 8.23 13.57 2.32 27.34 3.05 41.16 3.46 2.47.08 5.38-.57 7.94 2.11zm-92-172.33c-10 1.34-18.91 4.91-27.67 8.77-2.4 1.06-5.2 2.23-5.21 4.73s3.32 2.75 5.41 3.62c21.09 8.86 44.15 12 67 15.87 31.28 5.27 63 5.79 94.68 6 28.42.18 56.22-4.93 84-9.45a79.25 79.25 0 0 0 29.79-11.74c7.61-4.83 7.06-8.32-1.28-12a59.71 59.71 0 0 0 -8.47-3.51c-38-10.36-76.48-18.59-117-17.67-10.63.24-10.64.05-5.93 8.15.49.84 1 1.67 1.43 2.54.67 1.42 1.32 3.05-.58 4-2.26 1.17-4-.08-5-1.6-2.3-3.41-4.27-7-6.53-10.42-1.3-2-3.69-3.43-6.12-2.06s.11 3 1.15 4.23c5.76 6.86 10.75 14.22 18.62 19.76 1.55 1.09 2.95 2.74 1.47 4.42-1.81 2.06-4.12.86-6-.08a25.65 25.65 0 0 1 -4.19-2.83c-7.79-6-15.11-12.31-20.9-19.76-1.64-2.1-3.25-5.07-7.16-4.29-19.62 3.91-39.55 6.34-59.43 9-1.53.21-3.46.33-3.52 2.06-.12 3.21-3 4.31-5.8 5.6-1.73.81-4.06 1.5-3.82 3.5s2.71 2.34 4.51 3a154 154 0 0 0 34.32 8.56c13.67 1.61 27.39 2.89 41.09 4.31 3.19.33 7 .53 6.88 4-.14 3.23-4.08 3.27-6.85 3.27-7.92 0-15.83-.3-23.74-.53a276.74 276.74 0 0 1 -59.51-8c-6.35-1.59-12.88-3.8-14.5-9.75-1.66-5.73 4.68-8.21 8.86-11.7zm285.33 76.32a13.17 13.17 0 0 0 2.37-1.67c7.3-8.13 13.07-16.91 16.59-26.62a20.64 20.64 0 0 0 1.06-11c-.94-5-4.69-7.22-10.6-6.11a46.82 46.82 0 0 0 -22.18 10.85c9.3 2.41 15.95 6.58 17.69 14.31 1.61 7.13-.47 13.81-4.95 20.24zm-36.76 9.38 1.6.79c10-7.29 18.5-15.58 23.63-25.94 1.19-2.4 1.66-6-2.59-7.13s-7.35 1-8.89 4.28c-2.93 6.21-5.56 12.51-8.51 18.7-1.54 3.17-3.5 6.17-5.26 9.3z" fill="#001400"/></g></svg>