<svg viewBox="0 0 496.18 496.18" xmlns="http://www.w3.org/2000/svg"><path d="m0 0h496.18v496.18h-496.18z" fill="none"/><g transform="translate(-6.86 -7.41)"><path d="m283.86 241.19 12.7-2.86c-2-6.71-4.21-13.17-5.82-19.77-.37-1.52 1.24-3.53 1.94-5.32 1.22 1.3 3.05 2.39 3.55 3.91 1.91 5.94 3.39 12 5.11 18.3 5.79-3.11 8.41-6.65 4.64-12.73a25.77 25.77 0 0 1 -3-7.7c-.33-1.4.48-3.07.77-4.61 1.39.83 3.31 1.33 4.06 2.56 2.35 3.84 4.27 8 6.32 11.91.47.13.91.41 1.2.3 12-4.53 10.65-2.45 8-14.82-.58-2.69-1.5-5.36-1.71-8.08-.14-1.86.69-3.79 1.08-5.68 1.44 1.52 3.33 2.82 4.19 4.62 1.09 2.26 1.33 4.93 1.95 7.41.58 2.28 1.18 4.55 1.93 7.43l9.68-3.25c-.67-5.74-1.55-11.33-1.84-16.95-.09-1.71 1.45-3.5 2.24-5.26 1.12 1.57 2.79 3 3.24 4.74a60 60 0 0 1 1.31 9.95c.65 7.88.6 7.88 9.45 8 .37-4.74.62-9.57 1.21-14.36.18-1.44 1.34-2.75 2.05-4.12 1.11 1.2 3.08 2.33 3.19 3.61.39 4.67.15 9.39.15 14.76l9.33 1.87c0-5.92-.38-11.22.2-16.42.21-1.9 2.68-3.55 4.12-5.32.64 2 1.71 4 1.82 6.09a93.06 93.06 0 0 1 -.45 10c-.36 6.73 3.26 9.41 9.65 9.44-.55-4.22-1.26-8.42-1.59-12.65a9.85 9.85 0 0 1 1-5.12c.62-1.14 2.29-1.72 3.48-2.55.67 1.24 1.7 2.41 1.92 3.73 1 5.75 1.6 11.56 2.63 17.31.27 1.47 1.55 2.76 2.83 4.93l8-19.63 2.69.51c.14 2 .74 4.14.31 6-.87 3.83-2.6 7.47-3.38 11.31-.4 1.93.51 4.12.82 6.2l2.2.29c2.47-4.14 4.8-8.37 7.5-12.35.93-1.38 2.79-2.13 4.22-3.17.41 1.75 1.65 3.86 1.08 5.17-2.17 5-4.92 9.73-7.63 14.89 4.07 5.1 5.89 5.38 11.89 1.06 2.87-2.07 5.53-4.47 8.58-6.21 1.19-.67 3.17.06 4.79.16-.5 1.51-.55 3.52-1.57 4.44-4.22 3.81-8.72 7.29-13.66 11.33l5.78 6.77 15.1-11.95c2.41 5.54.54 8.31-10.85 17.07 1.52 3.27 3.11 6.7 5.23 11.25 4.75-3.84 8.55-7.13 12.6-10.07 1.34-1 3.33-1 5-1.52-.21 1.76.21 4.11-.76 5.18-3.5 3.82-7.47 7.22-12 11.44l3.05 5.51c4.48-2.74 8.42-5.53 12.72-7.54 1.44-.67 3.81.67 5.75 1.1-1 1.61-1.78 3.61-3.2 4.77-2.84 2.32-6.06 4.17-9.53 6.49l7.84 9.11 18-9.4 1.58 2.34c-3.21 7-11.44 8.4-16.82 13.89l2.07 5.3 17.35-7.16c-.56 7-4.34 10.82-12.3 12.56 5.75 9.89 6.22 10.06 16.32 6a15.11 15.11 0 0 1 4.45-1.43c1.16-.07 2.36.79 3.55 1.24-.54 1.15-.76 2.89-1.65 3.35-4.79 2.47-9.74 4.62-15.12 7.11l2.61 4.8 16.81-2.7.7 1.87c-3.07 4.63-8.76 4.93-13.73 7 .29 2.8.6 5.68 1 9.31l16.84-1.75.6 3.07-16.38 6.5c.38 2 .86 4.61 1.31 7h15.69c-1 4.82-4.53 5.46-7.87 6.09-9.29 1.76-9.51 2-6.86 10.88l15.5 1.88c-4.76 6.5-10.17 4.33-15.22 4.9v7.25l12.76 4c-4.08 5.21-8.4 2.9-12.36 2.83-2.74 10.3 1.36 16.38 12.61 17.72-4.12 6.37-8.89 2.29-12.78 2.83-4.61 8.44-4.45 9 3.4 13.07a13 13 0 0 1 3.1 1.67 61.68 61.68 0 0 1 4.13 4.7c-2.19.34-4.43 1.11-6.56.89s-4-1.49-6.24-2.4l-6.77 10.69 8.82 10.35-1.54 2.1-10.19-5.2c-1.89 1.74-4.15 3.81-6 5.57 2 3.43 4.15 6.43 5.57 9.74.7 1.63.08 3.82.06 5.76-1.69-1.06-3.76-1.79-5-3.24-1.85-2.21-3.1-4.91-4.82-7.74a29.76 29.76 0 0 1 -2.55 2.32c-4.41 3.2-5.78 6.83-2.39 11.78a11.85 11.85 0 0 1 1.85 6.15c0 1.58-1.23 3.19-1.92 4.79-1.22-1.07-3-1.91-3.53-3.25-1.42-3.39-2.31-7-3.53-10.91l-11.21 4.52c.74 5.15 1.48 10.26 2.22 15.37l-3 .82c-1.92-4.85-3.84-9.71-5.76-14.54-4.21 1.67-8.73 2.91-12.57 5.25-1.79 1.1-2.3 4.34-3.35 6.62s-2 4.6-3.07 6.89l-2.55-.65c.44-4.2.88-8.41 1.36-13l-10.45-3.67c-2.78 3.49-5.14 6.86-8 9.77-.92 1-3.08.7-4.67 1 .13-1.75-.08-3.64.51-5.21.52-1.39 2-2.4 3-3.64 4.63-5.92 4.59-6.17-1.55-11.29-3.23 1.64-6.38 3.7-9.85 4.78-1.57.48-3.75-1-5.65-1.58 1.17-1.51 2.1-3.34 3.58-4.44 1.84-1.36 4.14-2.12 6.87-3.45l-6.24-9.77c-5.65 1.24-10.49 2.58-15.42 3.21-1.29.16-2.86-1.87-4.31-2.9a38.7 38.7 0 0 1 4.05-2.72c.82-.43 1.94-.22 2.89-.48 11-3 12.41-5.43 5.22-14.64-2.32.53-4.84 1.74-7.19 1.47-2.15-.24-4.12-2.08-6.17-3.21 1.77-1.06 3.5-2.18 5.32-3.14a8.37 8.37 0 0 1 2.38-.43c.2-3.22.39-6.29.61-9.81-4.44 1-8.71 2.09-13.06 2.81-1.29.21-2.77-.69-4.16-1.08.72-1.43 1.08-3.54 2.23-4.17 2.37-1.27 5.17-1.72 7.78-2.54s5.38-1.77 9.14-3l-5.83-7.73c-4.12 2.22-7.64 4.34-11.37 6-1.06.46-2.73-.48-4.13-.78.5-1.36.62-3.12 1.56-4a58.59 58.59 0 0 1 6.63-4.65c-2-2.9-3.76-5.53-5.52-8.18-2.31-3.49-5.24-3.42-7.6.24a81.59 81.59 0 0 1 -4.44 7c-.95 1.18-2.66 1.75-4 2.6-.17-1.77-.95-3.78-.37-5.25 1.21-3 3.15-5.79 4.85-8.76l-10.62-6.17c-1.8 4.42-3.43 8.82-5.43 13.05-.54 1.12-2.25 1.68-3.42 2.5-.55-1.35-1.82-2.89-1.52-4 1.17-4.51 2.83-8.9 4.65-14.37-3.24-1.41-7.21-3.34-11.34-4.76-.93-.32-2.92.84-3.63 1.87-1.56 2.24-2.42 5-3.95 7.25-1 1.43-2.65 2.38-4 3.55-.35-1.92-1.33-4-.9-5.73.86-3.4 2.5-6.6 3.93-10.17-3.79-3.44-6.81-3.63-9.8 1.6-1.67 2.93-4.63 5.12-7 7.64l-2.19-1.66c2.07-3.87 4.13-7.75 6.25-11.73l-9.44-4.46c-4.59 2.27-9.37 4.93-14.41 7-1.54.62-3.79-.55-5.71-.91 1.21-1.55 2.12-3.58 3.69-4.58 3.57-2.28 7.45-4.06 12.13-6.53-8.47-4.24-15.65-8.12-23.61-1.72a7.16 7.16 0 0 1 -3.81 1.39 3.52 3.52 0 0 1 -2.89-1.24 3.2 3.2 0 0 1 .81-3c2.69-2.25 5.62-4.24 8.77-6.56l-4.37-7.12c-5.14.75-9.91 1.62-14.72 2-1.2.11-2.52-1.17-3.79-1.81 1-1 1.79-2.64 3-3a86.36 86.36 0 0 1 9.12-2.14c-.78-6.74-4.52-9.56-10.75-8.29a48 48 0 0 1 -9.27 1.24c-1.23 0-2.46-1.5-3.69-2.31a16.94 16.94 0 0 1 3-2.9 17.86 17.86 0 0 1 3.95-1.13c6.39-1.83 6.51-2.08 4.85-8.31-5.47-.64-10.7-1-15.78-2-1.47-.31-2.49-2.8-3.72-4.29 1.77-.44 3.54-1.27 5.29-1.24 3.81.06 7.61.56 11.92.93-1.26-5.91-1.88-10.46-8.68-10.87-2.56-.15-4.94-3.25-7.41-5 2.86-.18 5.93-1.13 8.54-.4 8.29 2.31 6.92-6.18 11.57-8.49-6.5-3.43-12.18-6.1-17.47-9.4-1.7-1.07-2.36-3.79-3.5-5.76 2.14 0 4.62-.76 6.35.08 5.44 2.63 10.59 5.86 16.2 9.05 1.65-3.31 3.52-7.08 5.69-11.45-3.28-2.94-6.78-5.77-9.85-9-1.09-1.15-1.13-3.31-1.64-5 1.8 0 4-.62 5.32.21 3.94 2.52 7.53 5.62 11.8 8.92l9.86-9.24c-2.51-3.91-4.85-7.28-6.85-10.86-.54-1 0-2.51 0-3.79 1.4.12 3.28-.31 4.13.44 2.91 2.58 5.46 5.57 8.58 8.85l11.41-9.38c-1.63-5.12-3.4-10.11-4.73-15.2-.41-1.58.36-3.47.59-5.21 1.49 1.19 3.66 2.07 4.36 3.62 2.11 4.53 3.63 9.42 5.77 15.32zm193 106.09.53-.3c-1.28-3.82-2.37-7.72-3.87-11.45-1.76-4.35-3.76-8.61-5.88-12.8-1.59-3.13-3.48-6.1-5.34-9.08-7.34-11.72-13.35-24.39-23.84-33.88-.28-.25-.36-.69-.59-1-6.28-9-12.49-18-18.89-26.85-10.15-14.07-23.49-23.79-40.38-27.81-18.05-4.29-36.44-10.19-53.23 4.06-1.29 1.1-3.31 1.3-4.79 2.23-4 2.51-8.41 4.63-11.58 8-4.12 4.31-8.9 6-14.4 7.21-5.84 1.31-12.46 2.22-17 5.65-9.69 7.32-18.36 16-27.18 24.46-2 1.93-3 5-4.4 7.54-2 3.74-3.44 8-6.13 11.17-4.21 5-5.19 10.83-1.71 15.24 6 7.61 5.54 18.55 14 24.8 3.64 2.69 5.87 7.26 8.94 10.81 2.38 2.76 4.67 5.93 7.71 7.7 4.53 2.65 9.72 4.17 14.57 6.3 1.94.85 4.87 1.66 5.37 3.15 1.38 4.14 4.71 4.15 7.79 5.05a80.26 80.26 0 0 1 9 2.8c16 6.79 32 13.64 47.92 20.68 2.38 1.05 4.41 3.06 6.37 4.87 2.33 2.16 4.06 5.12 6.64 6.81 10.06 6.54 13.47 14.45 11.37 26.17-.4 2.26.79 5 1.82 7.27 2.57 5.66 6 11 8.12 16.8 4.07 11.16 13.14 17.81 21.34 25.3.65.6 1.84.59 2.76.9 14.32 4.94 25.05-5.6 37.49-8.76.35-.09.64-.46.93-.73 5.4-5.08 11.45-9.65 16-15.4 4.88-6.16 9.67-13 12.05-20.34 2.47-7.59 2.71-16.14 2.67-24.27-.06-12-1.14-23.94-2-35.9-.57-8.86-1.45-17.62-2.2-26.4z" fill="#001400"/><path d="m476.84 347.28c.75 8.78 1.63 17.54 2.23 26.33.82 12 1.9 23.93 2 35.9 0 8.13-.2 16.68-2.67 24.27-2.38 7.34-7.17 14.18-12.05 20.34-4.56 5.75-10.61 10.32-16 15.4-.29.27-.58.64-.93.73-12.44 3.16-23.17 13.7-37.49 8.76-.92-.31-2.11-.3-2.76-.9-8.2-7.49-17.27-14.14-21.34-25.3-2.12-5.81-5.55-11.14-8.12-16.8-1-2.26-2.22-5-1.82-7.27 2.1-11.72-1.31-19.63-11.37-26.17-2.58-1.69-4.31-4.65-6.64-6.81-2-1.81-4-3.82-6.37-4.87-15.91-7-31.91-13.89-47.92-20.68a80.26 80.26 0 0 0 -9-2.8c-3.08-.9-6.41-.91-7.79-5.05-.5-1.49-3.43-2.3-5.37-3.15-4.85-2.13-10-3.65-14.57-6.3-3-1.77-5.33-4.94-7.71-7.7-3.07-3.55-5.3-8.12-8.94-10.81-8.49-6.25-8-17.19-14-24.8-3.48-4.41-2.5-10.27 1.71-15.24 2.69-3.17 4.1-7.43 6.13-11.17 1.39-2.57 2.38-5.61 4.4-7.54 8.82-8.43 17.49-17.14 27.18-24.46 4.53-3.43 11.15-4.34 17-5.65 5.5-1.23 10.28-2.9 14.4-7.21 3.17-3.32 7.61-5.44 11.58-8 1.48-.93 3.5-1.13 4.79-2.23 16.79-14.25 35.18-8.35 53.23-4.06 16.89 4 30.23 13.74 40.38 27.81 6.4 8.88 12.61 17.89 18.89 26.85.23.33.31.77.59 1 10.49 9.49 16.5 22.16 23.84 33.88 1.86 3 3.75 6 5.34 9.08 2.12 4.19 4.12 8.45 5.88 12.8 1.5 3.73 2.59 7.63 3.87 11.45z" fill="none"/><path d="m274.93 171.29c-3.55 3.26-6.61 5.91-2.19 10.76a87.27 87.27 0 0 1 9 12.39c1 1.57.88 3.82 1.28 5.75-2-.5-4.71-.35-5.9-1.62-4.13-4.4-7.73-9.29-11.46-13.9l-13 9.21c2.68 3.1 5.54 6 7.88 9.33.93 1.32.7 3.47 1 5.24-1.74-.25-3.77 0-5.19-.86-3.58-2.1-6.88-4.67-10.29-7.06l1.67-2.39-8.38 5.57c1.76 4.13 3.65 8 5 12 .6 1.79.14 3.94.15 5.93-1.81-1.12-4.25-1.82-5.3-3.44-2.32-3.57-3.94-7.61-6-11.76l-11.54 3.11c2.62 4.33 5.14 8 7.13 12 .6 1.2-.29 3.15-.49 4.76-1.54-.55-3.61-.65-4.53-1.73-2.92-3.4-5.41-7.18-8.21-11l-9 3.45c1.06 6.62 2.08 13 3.1 19.4l-2 .54c-5.8-4.6-5.71-11.89-7.48-19.47-3.39 1.79-6.41 3.95-9.78 5-5.28 1.68-3.4 5.84-3.88 9.23-.25 1.76-.12 3.62-.66 5.27a24.64 24.64 0 0 1 -2.58 4.56c-1-1.55-2.5-3-2.82-4.69a108.41 108.41 0 0 1 -1-10.93c-6.63-2.64-11.85.82-16.88 3.5-1.61.86-1.8 4.45-2.6 6.8-1 3-2 6.09-3 9.13l-2.68-.37c-.19-4.3-.38-8.61-.58-13.16a3.29 3.29 0 0 0 -1.21-.67c-10.51-1.58-10.33-4.56-12.77 8.42-.66 3.48-2 6.83-3.2 11-4.14-4.85-4.14-4.85.31-22.05-.14-.13-.26-.33-.43-.38-11.11-3.45-11.07-3.43-16.21 6.93a65.74 65.74 0 0 1 -3.83 5.89c-2.24-4.11-2.24-4.11 1.78-18l-10.71-1.54-10.23 21.83-2.29-.92c-2.39-8.15 3.21-14.22 6.64-21.59-2.29-.76-4.59-1.58-6.92-2.27-3.22-1-5.43-.4-6.94 3.22a44.28 44.28 0 0 1 -7.82 12.14c-2.62-7 3-11.87 4.38-17.91l-10.42-6.35c-2.61 4.41-5 8.78-7.76 13-.73 1.14-2.26 1.75-3.42 2.61-.35-1.54-1.42-3.38-.92-4.57 1.89-4.51 4.28-8.81 6.48-13.19-6-5.44-7-5.37-12 .62-2.12 2.55-4.29 5-6.45 7.55l-2.4-1.61 7.62-13.56-10.58-10.07-12.48 17.24c-2.27-4.67-2.27-4.67 9.17-20.89a40.44 40.44 0 0 1 -5.45-3.95c-1.51-1.48-2.51-3.49-5.13-7.29-2.34 3.24-4.17 6.36-6.6 8.88-1.2 1.25-3.52 1.4-5.33 2 .41-1.94.39-4.12 1.32-5.77a36.85 36.85 0 0 1 8.35-10.52c.65-5.25-.59-6.28-6.8-5.16-4.29.78-8.55 1.71-13.14 1.61 3.53-7.7 11.44-6.58 17.51-9-.18-3.74-.35-7.24-.56-11.66-3.53.52-6.88 1.23-10.25 1.42-1.29.07-2.64-1.07-4-1.66.84-1.17 1.46-3 2.57-3.39 3.84-1.36 7.86-2.21 12.48-3.43v-12.64c-4.65 0-8.94.18-13.2-.12-1.23-.09-2.36-1.58-3.54-2.42 1.12-.86 2.12-2.13 3.38-2.47a53 53 0 0 1 7.58-1.1c7-.79 8.12-2.24 7.71-9.84l-16.7-1.13-.2-2.31c1-.64 1.95-1.63 3-1.86 2.1-.44 4.31-.34 6.44-.68 10.77-1.69 10.76-1.72 15.45-11.33-4.68-.88-9.64-1.58-14.45-2.85-1.25-.33-2-2.45-3-3.75 1.48-.56 3-1.6 4.45-1.58 3.12 0 6.23.66 9.35 1 5.77.61 9.82-1.65 11.87-7.22l-7.89-7.27.67-1.76c1.48.09 3.1-.19 4.4.34 11.47 4.67 13.8 3.77 18.7-7.61-3.14-1.83-6.46-3.43-9.3-5.63-1-.77-.79-3.06-1.13-4.66h4.37c.18 0 .35.18.53.25 11.79 4.71 12.43 4.56 22.22-5.91-2.7-2.44-5.72-4.66-8-7.48-1.12-1.38-.86-3.88-1.23-5.88 1.79.61 3.9.8 5.32 1.9 2.94 2.26 5.44 5.08 8.27 7.48a4.75 4.75 0 0 0 3.41 1.2c3.79-.8 7.49-2 11.38-3.08-2.1-3.88-4.15-7.25-5.74-10.83-.51-1.12.18-2.79.33-4.21 1.4.38 3 .43 4.13 1.23a11.56 11.56 0 0 1 3.44 4c3 6 7 5.91 11.9 2.17-1.89-3.95-4-7.92-5.66-12.07-.47-1.17.24-2.83.41-4.27a19.6 19.6 0 0 1 4.39 1.78c1.06.76 1.67 2.16 2.43 3.31 6 9.14 6 9.14 16.83 5.54-1.2-5.9-4.83-11.67-3-17.92l1.88-.53a51.93 51.93 0 0 1 3 5.81c5.33 14 3.21 12.86 19.28 11.08-.46-3.64-1.14-7.26-1.26-10.91-.05-1.21 1.32-2.48 2-3.72 1.12.9 2.62 1.58 3.28 2.74.85 1.49 1.05 3.36 1.49 5.07 2.18 8.39 2.55 8.63 12.49 7.59a86.75 86.75 0 0 1 -1.26-10.32c0-1.88 1.16-3.78 1.8-5.66 1.35 1.63 3.06 3.09 3.94 5a15.67 15.67 0 0 1 1.37 6.32c.05 4.76 2.45 6.07 6.75 5.62a74.94 74.94 0 0 1 7.81-.05c.41-6.12.82-12.29 1.23-18.45l2.8-.25c.71 2.19 1.48 4.36 2.1 6.58a15.84 15.84 0 0 1 .25 2.94c1 11.54 1.24 11.74 13.79 9.89 1.22-6.12-.75-13.37 3.81-18.69l2.17.25c.16 2.58.52 5.16.44 7.73-.35 11.59-.4 11.58 11.06 15.1l6.27-10.32 1.17.69c.46 4.75-.64 10.7 1.82 13.91 2.59 3.37 8.58 4.11 13.93 6.36a94.72 94.72 0 0 1 5.46-9c1.22-1.61 3.35-2.53 5.07-3.77-.08 2.13-.06 4.27-.29 6.39a10 10 0 0 1 -1.12 2.72c-3.92 8.88-2.3 13.62 6.4 18.87 2.23-3.39 4.19-7 6.8-10 1.11-1.29 3.59-1.39 5.44-2-.19 1.79.15 3.92-.7 5.32-2.2 3.57-4.87 6.87-7.5 10.43 7.77 10.26 7.76 10.25 20.15 5a35.85 35.85 0 0 1 4.08-1.12c-.27 5.9-4.35 7.91-8 9.29-5.32 2-6.52 5-4 10.29 2.65-.33 5.48-.81 8.34-1 2.49-.17 5 0 7.52 0 .18 1 .37 2 .56 3l-16.19 5.68c.3 3.33.61 7 1 11 6.36 1.55 12.7-4.84 20.18.21-6.65 4.9-13.54 6.28-21.06 7v7.38l21.39 1 .18 2.23c-5.38 4.59-12.27 3.33-19.23 3.84.19 3.18.4 6.39.59 9.42 5.33.49 10.37.79 15.35 1.52 1.22.18 2.24 1.76 3.35 2.69-1.3.92-2.55 2.53-3.92 2.63-4.63.33-9.31.12-14.17.12l-1.64 10.47c5.48 3 13.09 1.9 17.26 7.6l-.51 2c-3.42-.59-6.86-1.07-10.24-1.79-8.63-1.83-7.41-3.86-10.89 6 4.8 3.87 9.84 7.85 14.75 12a17.12 17.12 0 0 1 2.53 3.5c-1.56.4-3.54 1.6-4.61 1.05a103.75 103.75 0 0 1 -11.26-7.15 51.89 51.89 0 0 1 -4.95-4.43zm-122.12 53.42c1.84-.27 3.54-.15 4.92-.77 8.17-3.64 16.87-4.35 25.55-5.85 9.82-1.71 19.18-6.28 28.65-9.85 4.7-1.78 9.19-4.13 13.77-6.21 5.33-2.4 11.65-3.69 15.78-7.42 9.3-8.42 21.14-13.68 27.67-25.84 4.83-9 8.51-17.71 8.19-27.69-.34-10.57-1.86-21.08-2.58-31.64-.62-9.17-.67-18.39-1.35-27.55a12.59 12.59 0 0 0 -2.73-6.89c-6.75-7.88-13.8-15.49-20.81-23.13a9.24 9.24 0 0 0 -2.94-1.94c-6.73-3.13-13.34-6.61-20.28-9.16s-14.19-5.31-21.47-6c-16.81-1.5-33.72-2-50.6-2.51-12.61-.4-25.19.28-37.09 5.09-7.8 3.15-15.17 7.66-23.21 9.81-14.83 4-25.34 12.69-32.92 25.64-.88 1.51-1.69 3.56-3.07 4.22-8.59 4.07-12.36 11.83-17 19.53-6.07 10.13-7.86 20.8-8.32 32.11-.27 6.68-.19 13.41-1.06 20-1.56 11.84 5.17 20.87 9.52 30.74a2.63 2.63 0 0 0 .83.83c10.4 7.88 19.07 18.26 32.17 22.29 2 .61 3.61 2.4 5.58 3.26 5.34 2.33 10.62 5 16.2 6.52 10.39 2.78 21 4.84 31.5 7.12 8.45 1.86 16.9 3.58 25.1 5.29z" fill="#001400"/><path d="m152.81 224.71c-8.2-1.71-16.65-3.43-25.07-5.25-10.52-2.28-21.11-4.34-31.5-7.12-5.58-1.49-10.86-4.19-16.2-6.52-2-.86-3.58-2.65-5.58-3.26-13.1-4-21.77-14.41-32.17-22.29a2.63 2.63 0 0 1 -.83-.83c-4.35-9.87-11.08-18.9-9.52-30.74.87-6.61.79-13.34 1.06-20 .46-11.31 2.25-22 8.32-32.11 4.61-7.7 8.38-15.46 17-19.53 1.38-.66 2.19-2.71 3.07-4.22 7.58-12.95 18.09-21.69 32.92-25.64 8-2.15 15.41-6.66 23.21-9.81 11.9-4.81 24.48-5.49 37.09-5.09 16.88.54 33.79 1 50.6 2.51 7.28.65 14.5 3.4 21.47 6s13.55 6 20.28 9.16a9.24 9.24 0 0 1 2.94 1.94c7 7.64 14.06 15.25 20.81 23.13a12.59 12.59 0 0 1 2.73 6.91c.68 9.16.73 18.38 1.35 27.55.72 10.56 2.24 21.07 2.58 31.64.32 10-3.36 18.69-8.19 27.69-6.53 12.16-18.37 17.42-27.67 25.84-4.13 3.73-10.45 5-15.78 7.42-4.58 2.08-9.07 4.43-13.77 6.21-9.47 3.57-18.83 8.14-28.65 9.85-8.68 1.5-17.38 2.21-25.55 5.85-1.41.56-3.11.44-4.95.71z" fill="none"/><g fill="#001400"><path d="m423 251a9.06 9.06 0 0 1 3.5.08c2.37.65 6.33 1.57 6.57 2.91 1.85 10.5 13.62 16.37 12.78 28.07-.11 1.4 1.69 3.07 2.86 4.4 2.53 2.85 5.87 5.18 7.73 8.4 8.16 14.09 14.69 29.33 24.2 42.4 8.42 11.58 11.26 21.92 5.77 35.41-2 4.95-.75 11.72.39 17.38 2.4 11.82 1.89 23-3.24 34.07-1.69 3.67-1.46 8.22-2.25 12.34-.73 3.84-1 8-2.6 11.41-7.51 16-20 26-37 31.39-9.18 2.92-18 5.88-27.81 6.44s-17.47-3.31-23.49-10c-2.45-2.73-3.06-8-2.85-12 .32-6.44-.53-10.93-7.68-12.9-5.59-1.55-7.36-6.3-7.78-12-.24-3.22-2.27-6.27-3.27-9.47-.84-2.72-2.52-5.87-1.82-8.23 1.91-6.54-1.83-9.1-6.27-12.18-8.78-6.09-17-12.94-25.88-18.93-9.47-6.42-18.56-12.57-31.11-13.83-12.35-1.23-25.47-3.78-34.55-15.12-5.3-6.61-13.19-11.11-18.6-17.66-6.9-8.34-12.28-17.73-14.06-29-.8-5.05-4.17-9.64-5.93-14.6-.9-2.51-2-5.9-1-8 3.82-8.12 6.92-17.42 13.07-23.41 11.13-10.85 24.16-19.75 36.61-29.2 2.38-1.8 5.75-3.4 8.6-3.29 10.9.43 19.12-4.23 26.46-11.77a42.59 42.59 0 0 1 38.33-12.64c11.07 1.86 23.86 1.95 32.55 11.73a2.18 2.18 0 0 0 1.56.69c13-1.46 20.76 8.73 30.38 14.42 2.97 1.69 3.57 7.43 5.83 12.69zm-2.82 12.39c-5.69.83-11.2-2.19-15.67-7.45-3.18-3.74-5.61-8.46-9.45-11.24-8.4-6.09-17.09-12-26.41-16.48-6.93-3.3-15-4.32-22.63-6-2.39-.52-5.49-.59-7.51.51-5.95 3.25-12 6.63-17.14 11-8.53 7.25-17.08 13.69-28.94 13.87a14.79 14.79 0 0 0 -8.24 2.47c-10 7.54-19.36 15.85-29.47 23.17-7.17 5.2-7.87 13.85-12.47 20.34-.44.61-.11 1.94.16 2.85 2.08 7.23 5.2 14.36 8 21s4.59 15.74 12.42 20.57a65.13 65.13 0 0 1 15.44 13.12c7.46 8.73 17.78 11 27.79 12.32 9.55 1.27 18 4.05 25.64 9.41 13.59 9.52 27 19.31 40.46 29 5.8 4.17 9.79 9.14 7.77 17-.29 1.11.6 2.53.92 3.81 1 4.06 1.78 8.2 3.13 12.13.76 2.25 2 5.21 3.85 6.06 10.17 4.65 13.29 9.6 12.12 20.83-.76 7.27 3.89 11.75 11.33 11.34a114.81 114.81 0 0 0 26.32-4.87c14.67-4.31 22.8-14.49 29.9-26.53.83-1.41.77-3.36 1.08-5.08 1.12-6.3 1-13.2 3.61-18.77 4.3-9 4.39-17.94 2-27-2.64-10-2.51-19.52 2.29-28.74 1.79-3.44 1.23-6.16-1-9.22-4.22-5.88-8.4-11.83-12-18.09-6.57-11.37-12.7-23-19.1-34.48a5.43 5.43 0 0 0 -2.56-2.32c-7.09-2.72-8.74-8.26-8.64-15.2a12.31 12.31 0 0 0 -2.56-6.77c-2.87-3.95-6.27-7.62-10.46-12.6z"/><path d="m179.45 20c5.67.69 13.22.92 20.4 2.65 18 4.33 35.67 9.73 51.6 19.46 21.28 13 33.6 31.37 33.89 57.18.1 9.21 1.66 18.43 3 27.58 4.85 33.07-8.45 59.68-38.52 73.74-19.39 9.07-39.15 17.68-59.43 24.4-29.77 9.85-60.22 12.21-90-.62-8.76-3.77-16.55-9.75-25-14.32-7.41-4-15.24-7.25-22.64-11.27-3.15-1.71-6.67-4-8.34-6.93-5.69-10.11-11-20.48-15.78-31.05-7.83-17.36-8-34.88-.76-52.74 13.13-32.33 34.51-57.41 65.35-73.34 9.87-5.1 21.64-7.17 32.8-8.91 17.07-2.66 34.37-3.83 53.43-5.83zm-34.62 198.11.32 1.43c13.24-2.57 27-3.72 39.61-8 20.43-7 40.43-15.4 60.11-24.32 23-10.44 31.87-26.21 30.24-51.6-.93-14.53-2.24-29.06-4-43.51-1.57-12.79-7.43-23.23-17.68-31.64-15.72-12.91-34.54-18.29-53.34-23.87-5-1.49-10.45-2.79-15.6-2.5-19.62 1.12-39.28 2.32-58.76 4.75-9.8 1.15-20 3.63-28.73 8.15-22.84 11.79-39.11 30.82-51.1 53.33-10.31 19.34-13.54 39.37-2.34 59.82 3.87 7.08 7.12 14.49 11.1 21.5 1.22 2.15 3.69 3.91 6 5.09 10.47 5.42 21.89 9.4 31.45 16.09 16.1 11.29 33.56 15.71 52.72 15.28z"/><path d="m420.16 263.35c4.19 5 7.59 8.61 10.49 12.61a12.31 12.31 0 0 1 2.56 6.77c-.1 6.94 1.55 12.48 8.64 15.2a5.43 5.43 0 0 1 2.56 2.32c6.4 11.48 12.53 23.11 19.1 34.48 3.62 6.26 7.8 12.21 12 18.09 2.2 3.06 2.76 5.78 1 9.22-4.8 9.22-4.93 18.72-2.29 28.74 2.37 9 2.28 17.92-2 27-2.65 5.57-2.49 12.47-3.61 18.77-.31 1.72-.25 3.67-1.08 5.08-7.1 12-15.23 22.22-29.9 26.53a114.81 114.81 0 0 1 -26.35 4.84c-7.44.41-12.09-4.07-11.33-11.34 1.17-11.23-1.95-16.18-12.12-20.83-1.83-.83-3.09-3.83-3.83-6.07-1.35-3.93-2.12-8.07-3.13-12.13-.32-1.28-1.21-2.7-.92-3.81 2-7.87-2-12.84-7.77-17-13.47-9.7-26.87-19.49-40.46-29-7.66-5.36-16.09-8.14-25.64-9.41-10-1.32-20.33-3.59-27.79-12.32a65.13 65.13 0 0 0 -15.46-13.09c-7.87-4.78-9.67-13.74-12.47-20.51s-5.89-13.81-8-21c-.27-.91-.6-2.24-.16-2.85 4.6-6.49 5.3-15.14 12.47-20.34 10.11-7.32 19.5-15.63 29.47-23.17a14.79 14.79 0 0 1 8.24-2.47c11.86-.18 20.41-6.62 28.94-13.87 5.14-4.36 11.19-7.74 17.14-11 2-1.1 5.12-1 7.51-.51 7.64 1.66 15.7 2.68 22.63 6 9.32 4.44 18 10.39 26.41 16.48 3.84 2.78 6.27 7.5 9.45 11.24 4.54 5.16 10.01 8.18 15.7 7.35z"/><path d="m144.83 218.11c-19.16.43-36.62-4-52.74-15.28-9.56-6.69-21-10.67-31.45-16.09-2.29-1.18-4.76-2.94-6-5.09-4-7-7.23-14.42-11.1-21.5-11.2-20.45-8-40.48 2.34-59.82 12.01-22.51 28.28-41.54 51.12-53.33 8.69-4.48 18.89-6.93 28.67-8.14 19.48-2.43 39.14-3.63 58.76-4.75 5.15-.29 10.58 1 15.6 2.5 18.8 5.58 37.62 11 53.34 23.87 10.25 8.41 16.11 18.85 17.68 31.64 1.78 14.45 3.09 29 4 43.51 1.63 25.39-7.24 41.16-30.24 51.6-19.68 8.92-39.68 17.36-60.11 24.32-12.65 4.31-26.37 5.46-39.61 8z"/></g><path d="m267.51 129.2-.94 6.78a81 81 0 0 1 8.74-3.4c1.23-.33 2.77.52 4.17.84-.63 1.48-.9 3.38-2 4.34-1.41 1.24-3.67 1.47-5.23 2.61-3.14 2.28-6.05 4.88-9.06 7.35l.74 2c2.12.46 4.28.8 6.36 1.43a47.64 47.64 0 0 1 5 2.11c-1 1.42-2.08 2.84-3.31 4.5 2.67 4.4 2.3 5.48-3.26 6.27-3.25.46-6.58.42-10.9.67.51 2.92 1.1 5.67 1.44 8.46a43.76 43.76 0 0 1 0 5.25c-1.51-.91-3.05-1.79-4.51-2.78a1.71 1.71 0 0 1 -.63-.83l-10.7 6.92c.21 11.65-7.81 18.26-19.56 15.76-1.88-.4-4.07.63-6.22 1-3.33-4.34-9.72-6.77-13.44-3.78-3.89 3.13-6.61 7.73-10.3 12.25-.77-1.74-1.76-4-2.87-6.51l-6.93 2.23 5 9.79c-3.22-.69-5.29-.61-6.74-1.53-4-2.53-7.71-1.95-8.67 2.61-1.29 6.13-3.45 5-6.6 1.67-6 5.88-9.63 4.91-12.18-2.95-.55-1.73-2.08-3.13-3.16-4.68a33.65 33.65 0 0 0 -1.9 5.72c-.55 3.55 2 7.77-3.11 11.4-1-3.69-1.84-6.7-2.68-9.74-3.09 1.43-6.18 4-9.23 3.95s-5.92-2.78-9.4-4.61l-2.34 3.46c-.8-.45-1.73-.77-1.71-1 .74-9.79-7.94-11.44-13.57-15.58-1.15-.85-3.37-.24-5.1-.3a43.33 43.33 0 0 0 1.68 5.58 48 48 0 0 0 3.1 5.19c-2.47-.25-5.15 0-7.35-.89-2.49-1-3.22-5.84-7.41-3.44-.56-1.49-1.61-3-1.56-4.45.07-2.07.94-4.11 1.46-6.1l-9.34-4.51-4.16 12.28-2.59-.37c.29-4.55-.53-9.56 1.11-13.54 2.81-6.8 8-7 14-.35-1.32-4-2.22-6.71-3.22-9.75-4.86 2-9.46 4.51-14.38 5.78-2.39.63-5.36-1-9.25-1.84-1.12.67-3.43 2.79-6.09 3.42-1.64.38-5.07-1.12-5.49-2.47-1.08-3.43 1.64-3.6 4.29-3.26.65.09 1.39-.53 2-.8-.93-8.61-3.54-9.1-15.29-3.22-2-2.21-4.18-4.18-5.73-6.57-.57-.89-.11-3.65.63-4 5.73-2.83 5.79-2.71 8.19-9.39-2.88.44-5.51 1-8.16 1.21-4.9.35-5.77-1.77-6-6.64-.26-6.6 1.87-7.18 7.63-5.87 2.84.64 6.35-1.68 9.55-2.65l.13-2.13c-3.66-1.4-7.46-3.21-11.46-4.1-7.17-1.65-8.46-3.51-6.28-10.42a19.42 19.42 0 0 0 .3-3.45c.39-3.22 1.44-5 4.87-2.49 1.8 1.33 10.18-1.32 11.27-3.75 1.62-3.6.37-6.23-3.14-8.3s-6.68-4.78-10.54-7.6l7-6.5.52 1.63c4.78-1.57 9.79-2.67 14.26-4.87 3.18-1.57 3-4.78.53-7.47-.94-1-2.48-1.78-2.82-2.94-.59-2-.47-4.2-.64-6.32 1.71.51 3.8.56 5.06 1.61 7.64 6.37 8.23 11.16 2.91 20.39 3.87 1.07 3.8 1 6.61-3.55 1.53-2.49 3.34-4.81 5.21-7.48-4.6-1.93-5.92-5.68-4-10.38 1.3-3.17.23-4.91-2.25-6.93-2.28-1.87-5.74-4-2.76-8.43 5.63 3 10.71 8.16 18.25 3.11-1.55-1.86-3.36-3.58-4.52-5.64-.93-1.67-1-3.8-1.48-5.72 1.84.47 3.72.86 5.52 1.47a18.78 18.78 0 0 1 3.12 2.08c-.47-5.82-2.87-11.51 4.22-14.4 5.7-2.32 10.25-1.09 14.59 3.21 1-3.76 1.79-7 2.62-10.23l1.72-.1c1.17 3.06 2.34 6.12 3.66 9.6 5.49-2.54 12.67-2.12 12.58-10.8 0-.57 3.6-2.11 4.71-1.56 2.39 1.19 4.24 3.46 6.32 5.27s6.1.4 7.57-2.73a52.53 52.53 0 0 1 3.08-5.06l4 5v2c4-1.18 7.89-2.57 11.92-3.45 2.48-.55 5.11-.32 9.07-.51l-3.83 7.29 10.24 3.12a48.29 48.29 0 0 1 1.9-7.09c.75-1.76 2.23-3.21 3.39-4.79 1 1.83 2 3.64 2.89 5.52.3.66.21 1.5.48 3.83 3.09-2.59 5.39-4.52 8.42-7a22.69 22.69 0 0 1 3.1 2.54c4.72 5.19 9.22 4.77 12.48-1.25.37-.69.5-1.71 1.06-2.07a36.53 36.53 0 0 1 4.36-2.11c.53 1.72 2 4 1.41 5-2.28 3.7-5.27 7-8.78 11.38.1.48.54 2.56 1.09 5.23 4-2.46 9.19-3.19 7.42-9.85-.27-1 1.34-2.59 2.08-3.9a27.85 27.85 0 0 0 3.46 2c3.3 1.33 6.95 4 9.93 3.37 3.79-.75 6.87.19 10.35.48 5.91.49 11.8 4 13.73 10.37 1.67 5.49-2 8.82-5.82 11.82l-.71.55c5.71 1.12 12.1 1.84 18.06 3.83 2.27.76 4.09 4.24 5.18 6.86 1.69 4.11 1.69 8.27-2.72 10.13 1.77 6.79 4.1 13.09 4.8 19.58.32 2.93-2.83 6.14-3.95 9.38a12.4 12.4 0 0 0 -.44 6.19c.42 2.1 1.77 4 2.72 6zm-20.76 4.53c4.55-6.22 7.54-14 16.84-15.51l-1-2-16.59 2.66 5 3-2.6 1q-.76 5.52-1.52 11l-17.79 11.35c1.27 1.28 1.27 1.28 17.23-4.61.13-2.25.28-4.57.43-6.89zm-103.31-8 .42 1.84c2.56-.64 5.29-.89 7.64-2 6.25-2.91 10.35-1.32 12.21 5.13.32 1.09.67 2.16.92 3 4.42 0 8.52-.37 12.52.08 8.66.95 8.74 1.09 9.12-2.86-2.9.28-5.82.95-8.66.68-1.56-.15-3-1.86-4.47-2.87 1.22-1 2.28-2.57 3.68-3 3.15-1.06 6.48-1.56 9.72-2.34a5.25 5.25 0 0 0 3.45-7.7c-2.14-3.81-10.33-4.76-15.66-2.51-5.65 2.37-6.83 5.16-2.58 9.94.63.71.32 2.51 0 3.68-.09.36-2.29.71-2.52.37-2-2.94-5-5.9-5.35-9.12-.27-2.34 2.38-6 4.74-7.43 3.91-2.3 8.63-3.22 14.51-5.23-2-1.43-3.3-2.81-4.85-3.29s-3.51 0-5.27-.18c-4.25-.39-6.9.5-7.6 5.63-.81 6-6.43 9.41-11.12 9.38-6.68 0-14.26-.17-19.95-6.78.21 2.72.37 4.61.51 6.37 10.92 2.13 12.51 3.92 8.59 9.17zm13.61 66.63c-10.68-4-11.37-9.08-3.45-20.12l-7.66-10.62-18.3-2.5c.46 1.83.82 3.28 1 3.9 5 .75 9.42 1.36 13.79 2.07 4.15.68 4.53 3 2.79 6.39-.94 1.86-2 3.95-2 5.93 0 4.33.75 8.66 1.23 13.49 8-1.91 9.33 4.36 10.56 11.77.81-4.29 1.38-7.11 2.04-10.35zm-84-58.42c-5.33-4-6.82-8.76-4.77-14.62.31-.88-1.08-3.08-2.16-3.55a4.76 4.76 0 0 0 -4.24.7c-2.3 2.11-4.78 4.43-6 7.2a10.64 10.64 0 0 0 .06 7.83c1.5 3.25 4.27 5.52 8.65 3.8 2.25-.92 4.84-.86 8.46-1.4zm120.72-41.76c1.76 6.36.36 10.37-6.62 11.51 1.94 1.44 3.65 2.37 5.39 2.41a79.87 79.87 0 0 0 9.38-.63c3.12-.29 7.12.9 7-4.66-.14-4.8-1-8.66-6.94-8.63zm-132.19 11.49-.27 2c1.28.6 2.53 1.6 3.86 1.73 5 .47 10 .87 15 .84 1.94 0 4.63-.7 5.6-2.07s.79-4.47-.21-5.78c-2.41-3.12-5.61-5.62-8.34-8.24-6.1 4-5.35 14.69-15.64 11.52zm71 1.23c4.32-4.57 6.2-13.72 3.19-16.33-7.82-6.8-11 3.48-18.29 4.69zm71.46 18.43c-2.05 5.35-5.49 8.23-11.37 6.54 1.37 5.36 7.79 9 13.07 8.45 5.73-.65 7.29-4.63 7.89-9.34.66-5.19-4-2.84-6.13-4.08-.93-.56-2-.9-3.42-1.57zm-93.18-36.77c2.87-1.36 5.68-2.11 7.64-3.82 1.53-1.34 3.21-4.33 2.68-5.81-1-2.9-1.65-6.75-6.7-6.64-6.78.14-7.23 5.84-10.49 9.92zm53.21-37.88c-4.59-7.2-8.07-8.86-15.33-7.46-2.47.47-4.72 1.77-2.34 4.16 4.1 4.11 8.1 7.86 3.63 15l1.9-.32zm57.67 47.42c2.57-.95 5.67-1.26 7.48-3 2.59-2.44 5.2-5.65 6-9 .9-3.68-3.59-6.72-8.08-5.77-3.65.77-7.12 2-5.56 7.47.87 3.06.16 6.51.16 10.3zm-50.09 53.17c4.73-.21 8 .09 10.93-.66 1.55-.4 3.55-2.59 3.66-4.08s-1.71-4.73-2.8-4.78a92 92 0 0 0 -16.08.78c-.81.11-2.2 4.11-1.68 4.61a32.34 32.34 0 0 0 5.97 4.13zm53.82-98.52c-12.23 3.53-13.16 7.92-12.44 13.84.18 1.54 2.35 3.85 3.79 4 2.75.27 6.84 1.4 7.52-3.19s.74-9.21 1.13-14.65zm13.41 50.72c-5.29 2.82-11.18 5.74-16.74 9.18-.88.54-.68 5-.32 5.08a82.88 82.88 0 0 0 13 2.32c.73.07 2.23-1.88 2.43-3.06.75-4.47 1.11-8.99 1.63-13.52zm-46.68-30.82-11.2 9.71c4.81 1.18 8.78 2.3 12.81 3.06 1.81.34 4 .52 5.56-.26 1.69-.86 2.79-2.89 4.15-4.42-1.52-1.26-2.97-2.63-4.52-3.74-2.09-1.48-4.27-2.74-6.8-4.35zm-105.48 81.65c4.58-2.12 10.32-2.66 9.92-9.27a5.77 5.77 0 0 0 -3.17-4.03c-5.23-1.85-10.13-1.15-14.09 3.09zm11-85.89a73.73 73.73 0 0 0 6.33-5c.81-.8 1.83-2.64 1.49-3.16a66.52 66.52 0 0 0 -7.76-10.08c-.9-.91-3.65-.47-5.29.09-.59.21-.94 2.8-.51 4 1.71 4.66 3.73 9.18 5.78 14.15zm56.31 23.25c-.35.68-.7 1.36-1.06 2 1.46 1.29 2.93 3.7 4.37 3.68 7.23-.06 14.45-.75 21.67-1.22l.86-1.78-11.4-8.78c-4.54 3.32-5.93 12.64-14.4 6.1zm48.47-24.61c3.16 7.46 13.48 13 4.83 22l8.85 8.24v-18.78c-1.5-1.08-4.51-2.34-6-4.61-1.75-2.6-2.18-6.11-3.31-9.63zm-31.86 95.72c4.1-1.19 8.34-3.57 12.4-3.29s8.07 3.21 12.18 5c2.6-4.6 2.59-9-3.44-11.76-8.59 7.78-18.22 3.85-27.53 2.48zm31.53 20.29 1.08 1.57c1.7 0 3.84-.67 5 .12 4.86 3.23 8.68-.1 12.49-1.87 1.58-.73 2.19-3.57 3.24-5.45-2.22-.73-4.53-2.24-6.65-2-2.79.3-5.53 1.75-8.11 3.07a81.93 81.93 0 0 0 -7.05 4.56zm-7.92-6.52 1.05-2.12c-3.63-3.13-6.91-6.92-11-9.07-1.81-.93-5.37 1.52-8.13 2.43 1.67 2.61 2.82 6.66 5.14 7.53 3.89 1.46 8.57.92 12.94 1.23zm-119.15-18.84v-1.65c-4.18-1.78-5.56-9.58-12-5.88-4.77 2.74-5.74 9.48-3.42 11.92a78.16 78.16 0 0 0 8.3-1.42 62.63 62.63 0 0 0 7.12-2.97zm-4.25 21.3c.64.46 2 2.24 3.51 2.34 2.41.15 5.5-.06 7.18-1.47 2.2-1.83 3.53-4.88 4.7-7.64.25-.59-1.54-2.57-2.76-3.18-4.94-2.47-12.73 2.74-12.63 9.95zm60.5 14.38c-4.11-6.14-9.07-8.82-17.42-8.28 1.35 3.49 1.68 7.88 3.85 9.16 4.12 2.44 9.58 6.54 13.57-.88zm-1.35-77.7-11.23-3.61c-5 9.32-4.12 13.2 3.63 16.25zm-.87 87.5c.92 4.13 1 6.7 2.11 8.78.7 1.37 2.88 3 4.19 2.85 3.8-.49 11.79-11.9 11.68-16.81-5.84 2.11-9.22 10.36-18.02 5.18zm4.49-122.78c5.79 1 11.19 2 16.63 2.72a6.69 6.69 0 0 0 4.37-1c1.1-.79 2.27-2.56 2.12-3.74a4.46 4.46 0 0 0 -3-2.9c-7.31-1.14-14.62-1.84-20.12 4.92zm118.06 22.6h9.67c2.2-.06 4.41-.27 6.62-.42-1.06-2.69-1.57-5.87-3.36-7.94-1.44-1.66-4.43-2-7.7-3.28zm-128.29-51.36-5.28 6.9c1.76 1.33 3.38 3 5.33 3.93 3 1.44 6.1 3 9.3 3.37 2 .26 4.26-1.41 6.41-2.22-1.9-1.58-4-4.67-5.66-4.45-5.25.71-8.32-.97-10.1-7.53zm36.28 54.36c-12.16-3.62-14.36-3-16.8 4.58.28.31.5.77.81.84 2.45.57 4.92 1.09 7.39 1.59 7.15 1.4 7.5 1.13 8.6-7.01zm-19.79 39.28c-7 2.7-11.35 7.83-8.81 9.54 3.2 2.15 9.36 4.57 11.29 3.07 6.18-4.89-1.56-8.29-2.48-12.66zm63.12-93.34c-2.77-1.63-5.5-2.43-6.93-4.25-3.71-4.76-6.49-1.93-8.83.9-1.43 1.73-1.75 4.39-2.88 7.47 7-2.43 12.75-4 16.88 4.94.84-4.21 1.3-6.62 1.76-9.06zm-34.59 144.57c6.16-12.25 17.13-12.28 28.69-10.86l.1-1.68-22.36-2.39c.35 6.91-8.31 6.3-12.41 10.14zm-23-139c.93-4.14-4.12-9-14.93-13.56-5 3.45-1.34 6.6.75 8.66zm28.5-.16c-6.68.11-4.33 11.63-14.16 7.12 3 4.09 4.31 6.76 6.39 8.61 2.8 2.51 7.48.37 7.72-3.4.27-4 .07-8.04.07-12.32zm39.94 66.15 1-1.26c-.26-3.67-.52-7.34-.69-9.72l-18.62 2.88c.33 3.59.66 7.15 1 10.72 2.67-2.31 3.87-5.1 5.57-7.55a6.47 6.47 0 0 1 4-2.69c.92-.09 2 1.9 3.08 3 1.55 1.52 3.12 3.12 4.68 4.63zm-124.6-34.1c.87-2 2.51-4.33 3-6.92.52-2.93-.49-5.46-4.51-4.93s-7.88.74-12.63 1.16c.54 1.26.74 3.18 1.75 3.83 3.64 2.34 7.57 4.25 12.39 6.86zm11.61 41.17-.43-6.12-13.56-4.45-5.15 4.66c4.93 7.18 12.65 1.65 19.14 5.91zm158.31 15.43c-1 .39-1.88.69-2.72 1.06-1 .44-2 .94-2.87 1.38 2.3 9.25 2.16 9.55-7.07 15.59l6.6 2.35a8.21 8.21 0 0 0 1.13-1.7c1.42-4.62 2.84-8.73 8.73-4 1 .82 3.45-.13 6.52-.37-11.61-6.1-11.61-6.1-10.32-14.31zm-33.52-4.85c4.7-5.25 13.44-2.75 16.27-11.37-4 .34-7.08 1-10.11.77-7.46-.55-8.97 1.37-6.16 10.59zm-128.55-43.42c2.13 4.8 4 9 6.07 13.69 3.78-2 7.79-2.14 6.19-7.26-2-6.42-4.36-8.06-12.26-6.43zm142.18-32.63c4.69-1 10.56.39 11.49-5.9.27-1.83-3.4-5.71-5.71-6.12-4.12-.71-7.06 5.45-5.78 12.02zm-30.28 107.02 8.12-11.48-1.18-1.84-15.07 3.44c-.09.69-.17 1.38-.26 2.07zm-71.2-47.19c-5.21.21-11.15 6.33-13.06 13 9.09 1.49 12.47-1.77 13.01-13zm84.67 27.82.21 2c7 .74 14.05 1.69 21.1 2.08 1.53.09 3.6-1.52 4.56-2.94.52-.75-.49-3.74-1.33-4a8 8 0 0 0 -5.72.35c-5.24 3-10.2 6.12-16.12 1.46-.44-.26-1.83.69-2.75 1.05zm-119.52 17c2.59-4.86 5-9 6.92-13.31.43-1-.6-3.61-1.43-3.85-1.44-.41-4.49.1-4.69.83-1.37 4.87-6.75 9.36-.85 16.34zm73.48 31.88c5.11-6.25 15.06-1.13 15.88-10.88-6.86-2.51-11.93 1-16.76 4.65-.64.46.32 2.94.83 6.24zm-29.91-66.43 8.48 10.13 2.74-1q.07-6.33.14-12.67zm122.47-25.32c-4.19 0-8.75-1.15-12.28.28-4.72 1.91-8.11 2.21-11.6-3.46-1 3.36-1.58 5.37-2.55 8.71l25.68-2.26a7.56 7.56 0 0 0 .71-1.44 5.94 5.94 0 0 0 -.01-1.82zm-98.91 71.12c-8.16-5-11.58-5-15.15 0-1.05 1.47-.16 4.35-.16 7.93zm64.14-128.44c-2.6.22-2.45.24-3.62 9.14-.54 4.11-1.79 8.12-2.71 12.14 3.45 1 7.17 2.1 10.9 3.17.1 0 .28-.2.6-.45l1.06-4.3c-8.88-.95-8.88-.95-6.23-19.7zm-32 104.27 10.78-8.22-1-1.36-15.36-.93c-2.58 4.31 4.65 5.54 5.6 10.51zm-79.93 7.07-11.29 14.2 11.27 1.41zm42.33 0c-2.46-3.92-4.69-7.72-9.2-3.81-1.43 1.23-2.48 5.62-1.9 6 3.95 2.91 7.61 1.49 11.12-2.18zm84.83 7h-20c4.5 5.86 9.61 6.35 14.83 5 1.8-.36 3.08-2.82 5.19-4.96zm-143.45-52.9c4.31 6.53 2.06 17.09 12 20.42.73-2.31 1.23-3.91 1.92-6.11-9.92.15-8.32-10.46-13.92-14.31zm31.88 67.16v-14c-1.11-.19-2.92-1-4.37-.61a6.21 6.21 0 0 0 -3.52 3.31c-.43 1.06.19 3 1 4 2.35 2.82 5.01 5.32 6.91 7.28zm53.69-124-10.77 6.06v8.78c4.38-5.67 10.81-7.57 10.79-14.91zm-29.7 91.33a43.59 43.59 0 0 0 -4.76-2.27c-2.28-.73-5-.72-6.87-2-2.12-1.37-3.56-3.79-5.3-5.75l-.67.39 6.73 13.32zm76.59 37.73c-10.54-5.15-11.82-4.41-10.79 5.29zm-143.12-14.85c2-5.72-2.42-10.59-1.85-16.88l-7.08 3.12zm156.57-34.69 1.86 1.14c6.47-2.09 8.45-5.7 6-14.29zm-200.59 28.32 13.8 4c.36-.94 1-2.69 1.67-4.41l-14.37-2.42c-.19.42-.68 1.7-1.1 2.83zm44.52 11.24c-2.53 4.23-.64 6.34 2.27 8.14 3.51 2.18 5.14 0 7.08-2.61zm53.16-82.24c-4.59-2.27 1.24-11.58-7-10.28.44 3.83.86 7.59 1.34 11.79zm12.1 100c-.85 6 .22 10 5.42 12.61 1.97-5.69-.27-9.1-5.43-12.61zm73-34.34-11.37-1.9c-.91 1.83-1.92 3.88-2.92 5.92l.86 1.61zm-147.61-29-13.49-8.81c2.32 4 4.23 7.21 6.28 10.72zm34.51 22.34 1.63-.11c1.61-10.2 1.61-10.2-3.61-11.71.63 4.13 1.28 8 1.98 11.82zm-20.26-39.71.75-1.83-6.77-6.36-1.74.56c.26 2.11-.22 5.12 1 6.12 1.5 1.37 4.38 1.12 6.71 1.55zm157.26-42.48-11.52 1.13c1.8 4.72 1.8 4.72 11.52-1.13zm-207.94 30.42 7.54 8.77c-3.44-11.18-1.22-11.36-7.54-8.77z" fill="#fff8ff"/><path d="m395.17 423.35 5.77-6.31c-6.73 1.39-6.46-3.78-7.26-6-4.21.53-8.11 2.12-11.26 1.18-5.31-1.59-9.61-4.66-8.47-12s-5.3-10.37-10.7-15.29l-2.77 10-1.34.72c-.83-1.71-2.29-3.39-2.4-5.16-.32-5.37 2.5-8.85 8.23-10.21l-11.72-14.26c-3 2.31-3.82 4.11-.33 7.61 2.26 2.26 4.28 7.07 3.34 9.58s-5.59 4.29-8.88 4.85c-2.63.45-7.15 2.8-8.16-2.16-.16-.75 5-2.69 7.84-3.89 1.18-.51 2.58-.5 4.57-.85-2.17-3.6-5.26-6.58-5.6-9.85-.36-3.44 1.89-7.16 3.51-12.38-7.16 3.55-14.64 3-15.52 12.06-.25 2.57-3 4.89-4.63 7.32l-1.62-.74v-5.53l-6.42 4.11-1.26-1.34 3-4.5c3.37-5 3.45-10.22-.47-14.62-1.14-1.27-4.18-2.2-5.58-1.57-2.88 1.3-7.61-.82-8.59 4.3-.81 4.21-1.37 9.1-7.05 3.32-.46-.47-2.31.61-3.52.66-2.78.11-5.57 0-8.35 0-.05-.66-.09-1.32-.14-2 2.67-1.75 7.14-3.13 7.61-5.35.82-3.92-.81-8.36-1.4-12.54-7.95 1.05-15.44 1.3-20.24 8.54-.71 1.06-4.1.32-6.25.42.59-1.66.8-3.64 1.84-4.94 5.89-7.31 5.37-7.87-2.56-12.16-4.78-2.6-8.85-6.08-14.73-5.75-.81.05-1.71-1.69-2.88-2.92 8.18-4.21 14.68-3.22 19.74 5.16l1.44-2.07c-2-3.47-3.35-7.81-6.26-10.17-3.32-2.69-7.2-.5-10.56 2.08-2.2 1.69-5.13 2.4-8.69 4 1.86-7.31 12.44-14.22 20.31-13-1.5-3.61-2-6.84-3.84-8.84-3.94-4.28-11.71-4.33-17.28-1.31-1.78 1-4.18.74-6.3 1.06.86-1.77 1.32-4 2.65-5.21a46.19 46.19 0 0 1 8.62-6.35c5.11-2.89 5.83-7.67 1.82-11.73-1.37-1.38-1.73-3.78-2.55-5.72l1.63-.85 6.7 3.79c1.14-8.92 4-15.93 13-18.4a2.78 2.78 0 0 0 1.42-.92c3.46-4.68 3.45-4.69 7.74-.23 2.41-5.6 6.35-7.41 12.05-4.93.73.32 3-2 4-3.48.65-1 .12-2.71.34-4.06.43-2.67 1-5.32 1.54-8 3.1 2.09 8.06.4 9.94 5.36.58 1.53 3.08 2.45 4.83 3.41 2 1.1 4.17 2 6.38 3 5-3.71 5.45-6.66 1.65-11.43-1.22-1.54-2.83-2.87-3.68-4.59-.68-1.39-.49-3.21-.69-4.84a19.89 19.89 0 0 0 4.17-.17 59.28 59.28 0 0 0 6.11-2.28l1.81 6.36c1.24-.17 2.68-.47 4.14-.54 2.47-.1 6.23 1 7.18-.27 2.38-3.05 3.51-7.09 5.11-10.74.85-1.95 1.63-3.93 2.45-5.89l4.59 4.82c2.41-1.33 5.59-4.65 8.19-4.24 7 1.12 13.91 3.53 20.59 6.1 1.67.64 2.36 3.83 3.49 5.81l6.46-3.77 1.09 1.26-5.71 12.59c6.16-.4 11.41 1.46 14.6-4.76.31-.61 3.47-.7 3.64-.3 2 4.59 6.59 4.25 10.22 5.76 1.71.72 4.48 1.87 4.58 3 .45 5.3 4.72 7.29 7.63 10.61 5.46 6.24 4.06 14.44 6.32 22.32 5.78-.74 3.14 4.63 3.55 8.07 4 2.21 8 4.28 11.85 6.5a38.8 38.8 0 0 1 4 3l-4.11 4.43c.67 1.68 1.66 4.16 2.81 7a10 10 0 0 1 2.68-.53 45.88 45.88 0 0 1 4.74.88 44.26 44.26 0 0 1 -2.73 3.88c-1.77 2.07-4.22 3.73-5.44 6.06-3 5.66-.08 9.92 6.1 10.29a115.34 115.34 0 0 1 13.92 2 3.26 3.26 0 0 1 2.15 2.23 3.62 3.62 0 0 1 -1.53 2.91 17.35 17.35 0 0 1 -4.35 1.3c4.35 9.55 13.65 17.71 8.67 30.84 6.48-.78 5.44 1.75 4.93 6.47-.68 6.24-.3 12.2-6.46 16.61 2.46 4.9 4.86 9.5 7 14.2.52 1.13.89 3.17.3 3.76a4.67 4.67 0 0 1 -4 1c-4.19-1.35-6.58 0-9.47 3.35-2.51 2.91-6.9 4.18-10.31 6.09a15 15 0 0 0 16.77 4.61c1.72-.69 3.89-.25 5.85-.33a57.3 57.3 0 0 1 -3 5.11 12.19 12.19 0 0 1 -2.67 2.14 48.44 48.44 0 0 1 2.47 7.24c.19 1-.84 2.57-1.77 3.23-.54.38-2.62-.24-2.94-.91-4-8.58-12.19-7.63-20.39-9.5.87 2.11 1.25 4.17 1.81 4.22 5.31.48 5.73 5.12 7.91 8.45 1.68 2.56 4.52 4.34 7.2 6.79-1.72 3.86-4.06 6-8.71 2.58-.86-.63-2.58-.09-4.65-.09 1.92 3.3 3.42 5.35 4.31 7.63a4.27 4.27 0 0 1 -1 3.51c-.4.46-2.14.07-3.09-.35-3-1.37-7-4.92-8.76-4-4.59 2.3-8.35 6.44-7.74 12.63a13.59 13.59 0 0 1 -.39 3.19c-2.61 0-5.07.52-7.09-.2-1.26-.44-2.23-2.65-2.69-4.25-.8-2.78-1.1-5.7-1.82-9.79l-7.16 8.26c2.6 3.65 5.31 7.46 8.24 11.56-4.23.61-9.35 2.62-10.45 1.29-4.6-5.59-11.5-8.16-16.1-13.5a4.42 4.42 0 0 1 -.62-1.29 30.77 30.77 0 0 1 -5.42 1.66c-.28 0-1.6-2.94-1.23-3.32a97 97 0 0 1 7.58-6.39c-4-2.39-11.73-3.61-9-13.16-1.59 1-2.32 1.76-3.13 1.86a25.4 25.4 0 0 1 -4.35-.16 18.61 18.61 0 0 1 .49-4.26 20.39 20.39 0 0 1 2.33-4.1c2.53-3.88 2.82-7.67-.5-11.35-2.47-.29-5.15-.43-7.75-1-1.12-.25-2-1.35-3.07-2.07 1.08-.9 2-2.31 3.26-2.64 8.58-2.24 10.29-1.45 14.75 6.61zm-111.47-139.1-14.86 15.28 2.76 3.26c12-9.91 15.34-9.41 18.24 2.49l11.54 3.26c-.3-4.62-1.08-8.42-.43-12 .18-1 4.51-1.24 7.35-1.93 1.08-1.39 3.13-3.16 4.07-5.41 1.68-4 4.06-8.43 3.7-12.46-.66-7.47-.05-11.11 5.87-15.42 4.5-3.28 4.5-3.28 3.2-8.4-8.65 3.76-14.35-3.13-21.62-5.77-.38 1.4-.82 3-1.27 4.7 13.26 1.67 14.16 3.44 9.29 16a19 19 0 0 0 -.77 7.43c.39 9.54-3 15.44-10.91 18.26-4.72 1.7-7.5 0-8.16-5-.14-1.09-.43-2.15-.53-2.65zm103.79 46.75c-.3.81-.78 2-1.2 3.28-2.38 6.9-5.44 8.84-12.73 8.25a15.11 15.11 0 0 0 -4 .52c-5 1-10 2.56-15.08 2.83-5.42.3-7.61 2.74-8 7.72 2.61 1.21 5 2.31 7.33 3.39 1-2.65 1.53-5.29 2.93-7.32a5.81 5.81 0 0 1 4.62-2.22 36.73 36.73 0 0 1 10.69 3c3 1.44 6.36 3.48 8 6.21 2.53 4.24 3.72 9.28 5.24 13.35l15.51 5.99c5-5.72 11.68-8 18.68-5.52 1.57.54 3.41.3 5.13.42-1.05-1.87-1.67-4.3-3.23-5.46-2.24-1.69-4.45-1.88-7.69.12-7.19 4.45-15.37 3.07-23.06.53-1.45-.48-2.21-3-3.33-4.53-2-2.78-4.24-5.42-6-8.34-.85-1.39-1.81-4.06-1.17-4.8a21.46 21.46 0 0 1 7.29-5.64c1-.42 3.11 2.15 4.86 3.11.61.33 1.62-.06 1.89-.08-2.31-5.09-4.49-9.97-6.68-14.81zm-37.9-37c-5.17-2-8-2-10.58 2.16-1.58 2.57-5.72 3.5-7.5 6-2.22 3.17 1.21 10.11 5.44 12.08s8.23.85 9.61-3.55c1.66-5.32 2.06-11.04 3.03-16.69zm-12.75 42.4c4 2 6.94 4.52 10.05 4.69 3.33.17 7.08-1.4 10.07-3.19 2.38-1.42 1-14.25-.46-15.72-9.8 0-12.09 9.14-19.66 14.22zm-28.52-77.94c-12.65 1.93-14.66 11-17.43 19.35l3.33-3.3 7.43 7.77c-1.39 1.19.54-.13 2-1.84.82-.92 1.62-3.25 1.19-3.67-3.33-3.23-1.05-6 .19-9.07 1.1-2.61 1.97-5.33 3.29-9.24zm-20.65 56.41c-2.19-5.13-3.82-9-5.42-12.74-14.5 8.6-12.45 15.83-2.55 25 3.03-4.67 5.99-9.23 7.97-12.26zm6.1 16.57c3.94-.18 7.66-.72 11.31-.41 5.68.47 6.23-3.09 6.9-7.3.7-4.5-1-6.59-5.34-7.17-1.53-.21-3.18-1.58-4.45-1.23-2 .57-4.77 1.71-5.46 3.35-1.48 3.53-1.83 7.52-2.96 12.76zm112.56-26.44c-4.25 10.9 8.38 10.66 8.49 17l17.69-10.34zm-37.33 68.74c1.82-2 3-3.59 4.44-4.92 3.57-3.37 3.5-9.68-.68-11.87-2.24-1.17-5.25-1.08-7.93-1.14-1.65 0-4.62.49-4.74 1.17-.44 2.48-.78 5.65.41 7.59 2.01 3.24 5.21 5.73 8.5 9.17zm9-148c-4-1.68-7.3-4-7.68 2.61-.1 1.7-1.71 3.39-2.84 4.93-3.72 5-7.54 10-11.28 14.94 4.77 4.4 7.76 3.25 10-.73 3.91-7.03 7.64-14.11 11.8-21.8zm-7.19 52.22c18.51-3.29 18.51-3.29 23.45-19.07-4.74 3.31-8.09 5.89-11.67 8.08a19.52 19.52 0 0 1 -6.93 2.84c-6.42.88-7.07 1.73-4.85 8.1zm46.37 123.44c-4.66 0-8.47-.58-12 .15-4.56.94-5.57 4.82-5.52 8.76l16.71 5.55c.34-5.98.63-10.22.81-14.46zm-8-158.95c-2.36 6.85-2.07 11.59 1.13 12.34s4.68 2.28 6.11 5.33c.88 1.87 4.7 2.34 7.2 3.44.26-2.49 1.63-5.74.56-7.32-3.2-4.73-7.28-8.89-11.24-13.06-.7-.77-2.49-.52-3.73-.73zm36.41 202.29 1.44 1.58c2-1.13 4.65-1.84 5.89-3.55.71-1-.58-3.69-1.36-5.45-1.18-2.68-3-5.1-4-7.84-2.26-6.08-.32-9.51 6.33-11-3.67-2.26-4.45-9.25-9.94-6-.41 4.45-.24 8.18-1.18 11.6-1.9 7-1.28 9 5.23 12.47-.78 2.68-1.58 5.45-2.38 8.19zm-15.33-80.92c4.16-6.44 10.37-11.44 7.59-19.95-10.7.14-14.23 6-12.82 16.06zm38-3 2.67-.35c0-3.11 1.26-7.82-.25-9-3.77-3-4-6.68-5.29-10.52-.68-2-4.12-3.73-6.61-4.33-1-.23-3.57 2.78-3.94 4.62s1 5.36 2 5.5c5.1.73 6.46 4.4 8 8.28a49.33 49.33 0 0 0 3.43 5.81zm-166.26-11.38 17-2.75-4.36-11.52c-4.06.57-10.07-.29-12 2.12-2.1 2.64-.43 8.32-.39 12.67 0 .17.18.34-.25-.52zm59.2-90.32c1.62 4.95-2.79 10.55 1.4 15.21 2.2-4.12 5.52-7.72 5.85-11.58.56-6.52 3.59-10.83 7.86-15.18 6.09-6.2 5.87-6.42 4-13.52-8.11 6.95-6.64 21.08-19.16 25.07zm-6.72 6.57c-6.38 1.07-6.58 6.74-7.93 9.67 3 3.81 5.23 6.46 7.29 9.21a51.2 51.2 0 0 1 2.71 4.36c.83-1.63 2.05-3.19 2.39-4.91a13 13 0 0 0 -.29-5.79c-1.19-4.06-2.65-8.03-4.22-12.54zm47.45 163.78c-.92 5.26-1.78 10.14-2.68 15.27l11.75 5.76c1.09-9.5-3.14-18.26-9.12-21.03zm-67.18-154.57-15 10.18c-.56 2.37-.37 8 4 8 3.54 0 7.74-4.71 10.34-8.28 1.49-2.11.49-6.08.66-9.9zm22.74 36c4.18-1.82 7.39-3.38 10.72-4.62 4-1.49 8.19-8.19 7.36-12.39-.2-1-.85-2.46-1.64-2.76s-2 .64-2.85 1.31c-3 2.44-6.52 4.55-8.6 7.63-2.29 3.39-7.16 6.42-4.99 10.82zm-89.22-19.26c10-9.54 10.42-16.46 1.53-28.19-2.28 4.38-4.23 8.14-6.42 12.33 9.62 1.98 9.84 3.07 4.89 15.85zm113.8 31.36c-4.51 1.44-8.68 1.67-11.09 3.86-2.61 2.36-6.28 5.62-4.14 10.48 14.16-2.91 14.16-2.91 15.23-14.34zm4.93-26.5c2.91-1.73 4.72-2.84 6.56-3.89s3.76-2.07 5.64-3.1a68.94 68.94 0 0 0 -5.16-5c-1-.81-2.58-1.65-3.73-1.46-2.25.37-5.33.86-6.3 2.41s-.3 4.65.29 6.9c.38 1.64 1.84 2.96 2.7 4.14zm42.77 145.41-5.17-7.6-7 5.41 1.15 16.46zm30.6-70.3c-1.08-6.65-6.35-10.91-14.91-11.85-.56 3.86-1.11 7.72-1.71 11.85zm-41.28-34.4 1.28 1.66c5.12-1.44 10.32-2.64 15.32-4.43 1.92-.68 4.52-2.54 4.74-4.15.24-1.79-1.45-4.73-3.11-5.6-1.18-.61-3.87 1.11-5.6 2.24-3.14 2-6.1 4.34-9 6.67a39.57 39.57 0 0 0 -3.67 3.61zm5-63.92c-4.29 6-5.27 15.06-16.16 13.17 1.3 3.17 2.06 5 3 7.18 4.76-2.87 9.09-5.17 13.07-8 5.17-3.64 5.21-6.96.06-12.35zm-140.59 5.77 8.68-20.44-4.2-1.39-9.25 5.87zm109.72 31.08 1.4-.86c-1.45-1.63-2.73-4.44-4.37-4.68-4.28-.63-10.66 4.33-9.55 7.25.85 2.22 4.23 4.52 6.72 4.82 3.69.46 7.88-.56 5.8-6.53zm54.57 19.93c-1.61 3.42-4 6.4-4.22 9.53-.25 3.84 1.35 7.8 2.18 11.85l12 6.12c.36-.55.71-1.1 1.06-1.65-1.6-1.06-3.47-1.87-4.75-3.24-2-2.1-5.1-4.67-5-6.89.25-4.44 2.36-8.77 3.71-13.15.15-.5.33-1 .55-1.61zm17.91 68.14c-2.75-6.46-5.63-9.86-10.48-9.1-2.71.43-6.39 2.36-7.36 4.6-1.62 3.73 2.4 3.12 4.66 3.68 1.29.33 2.48 1.53 3.73 1.55 2.84.06 5.69-.41 9.45-.73zm-72.26-38c5.22 0 9.58.41 13.8-.2 1.7-.25 3.14-2.69 4.49-4.31.1-.11-1.54-2.45-2.42-2.49-6-.23-12-.12-18.69-.12 1.14 2.91 2.06 5.24 2.82 7.15zm26-14.78c-7.76-2.89-8.61-5.34-5.09-14.81l-5.13-2.48c-3.62 5.91 4.18 14.57-5.88 19.11 7.48-2.2 12.89-1.16 16.1 5.63zm14.84 27.83-2.7-.51-8.23 11.25.6 1.76h12.45zm-118.98-77.26-6.3 8.64c6.42 6.64 10 7.77 12.83 3.1 3.99-6.6-3.83-7.74-6.53-11.74zm87.77 89.55c8.28 4.79 14 1.3 14.14-8.26-8.07-1.69-11.74.37-14.14 8.21zm-41.47-167.26c-8.6 7.71-8.23 21.38-21.6 24.12 5.91 2.48 14.07-.91 15.4-5 1.9-5.84 3.78-11.65 6.2-19.12zm-39.24 52 .88.67c3-1.7 6.39-3 8.91-5.21a38.05 38.05 0 0 0 7.15-9.12c.63-1.05-.72-3.27-1.16-5-1.86 1.14-5.32 2.28-5.32 3.41 0 6.26-3.36 9.63-8.35 12.27-.95.59-1.41 2.02-2.11 3.02zm121.21 134.49-5.06-7.53-9.67 1.35c-.84 8.57 3.21 10.24 14.73 6.18zm-33.09-134.7c-4.5-1.33-11.59 1.92-11.82 5.94-.08 1.3 2.48 3.55 4.2 4 4.04 1.13 7.14-3.23 7.62-9.94zm-34.9-10.41c6.73-2.14 15.88-1.31 15.91-12.37-10.29-2.3-9.49 9.77-15.91 12.37zm21.06 64.33c-4 10.89-3 13.84 4.52 14.41.4-4.37.8-8.75 1.25-13.54zm-76.19 12.78c1.32 1.77 2.38 3.85 4 5.23 2.18 1.82 4.84 3.07 7.26 4.62 2.16 1.4 4.27 2.87 6.41 4.32-3.23-7.61-6.92-14.41-17.67-14.18zm61.5 52c-8.37-6.09-1.43-10.53-1-16.08l-11.74 9.66c2.62 3.72 5.25 7.73 12.79 6.45zm60.92-89.2c-3.55-6.18-14.93-9.34-18.84-5.1 6.1 2.58 11.23 7.82 18.84 5.13zm-42-59.35-4.03 12.77c1.57 4 2.87 7.24 4.27 10.79l4.83-1.93-2-.32c-.94-6.94-1.94-13.84-3.05-21.28zm-11.22 149.95 5.17 11.6 11.29-8.34zm-45.55-126.28.87 1.22 10.62-8.2-7.21-7.92c-1.57 5.45-2.92 10.18-4.28 14.9zm93.33 52.9 7.33 3.93v-12.48h-6.66c0 1.71.08 3.06 0 4.41s-.43 2.63-.67 4.14zm-61.5-.94c-.17-.41-.46-1.14-.79-1.85-.46-1-.95-1.95-1.42-2.9-12.28 5.15-12.47 5.38-9.19 10.69zm59.52 119.42c.6-6 1.16-11.5 1.72-17l-1.84-.53c-.7 1.63-1.45 3.23-2.07 4.89a38.53 38.53 0 0 1 -1.55 4.62c-2.47 4.57-1.64 6.44 3.74 8.02zm-50-27.72c5.82-4.51 1.95-7.92-.43-11.23-.48-.67-2.22-.43-3.38-.61.65 3.37 1.24 6.76 2 10.11.15.6 1.05 1.02 1.81 1.73zm75.81-24.56c-4.38-6-9.4-3.58-13.84-3.64a9.9 9.9 0 0 0 -4.07 1.3 3.26 3.26 0 0 0 .25 2.06 24.63 24.63 0 0 0 5 .57c2.63 0 5.27-.2 7.91-.29 1.23-.08 2.49 0 4.75 0zm-68.79 1.17c.51-.54 1-1.07 1.54-1.6-1.1-1.89-2.59-5.52-3.23-5.37-2.7.61-5.15 2.35-7.69 3.68l.69 2.25zm37.2 64q3 5.58 4.93 9.24c1.88-3.06 3.61-5.88 5.69-9.24zm-.46-34.77-6.51-5c.58 5.64 1.07 10.3 1.55 15l1.61-.22zm-92.45-174.59c-7.29-1-7.29-1-7.08 10.43 2.14-3.16 4.32-6.33 7.08-10.43zm-2.14 87.66-.09-1.1-12-3.75-1.77 5.55zm89.55 65.63-1.2-2.19-12 4.68 11.86 2zm-25-88.47c5.92-7.17 5.92-7.17 5.09-8.77l-9.91 4.36zm14.16 125.48c.82-2.26 1.45-4 2.25-6.16l-10.1-.91-.72 1.37zm-6.56 28.58-1.36 1.65 7.62 4.23c.16-3 .24-4.31.32-5.88z" fill="#fff8ff"/><g fill="none"><path d="m143.44 125.69c3.92-5.25 2.33-7-8.6-9.27-.14-1.76-.3-3.65-.51-6.37 5.69 6.61 13.27 6.73 19.95 6.78 4.69 0 10.31-3.38 11.12-9.38.7-5.13 3.35-6 7.6-5.63 1.76.17 3.65-.32 5.27.18s2.82 1.86 4.85 3.29c-5.88 2-10.6 2.93-14.51 5.23-2.36 1.38-5 5.09-4.74 7.43.37 3.22 3.31 6.18 5.35 9.12.23.34 2.43 0 2.52-.37.33-1.17.64-3 0-3.68-4.25-4.78-3.07-7.57 2.58-9.94 5.33-2.25 13.52-1.3 15.66 2.51a5.25 5.25 0 0 1 -3.45 7.7c-3.24.78-6.57 1.28-9.72 2.34-1.4.47-2.46 2-3.68 3 1.49 1 2.91 2.72 4.47 2.87 2.84.27 5.76-.4 8.66-.68-.38 3.95-.46 3.81-9.12 2.86-4-.45-8.1-.08-12.52-.08-.25-.81-.6-1.88-.92-3-1.86-6.45-6-8-12.21-5.13-2.35 1.1-5.08 1.35-7.64 2z"/><path d="m157.05 192.32c-.66 3.24-1.23 6.06-2.09 10.31-1.23-7.41-2.59-13.68-10.56-11.77-.48-4.83-1.19-9.16-1.23-13.49 0-2 1.09-4.07 2-5.93 1.74-3.42 1.36-5.71-2.79-6.39-4.37-.71-8.76-1.32-13.79-2.07-.16-.62-.52-2.07-1-3.9l18.3 2.5 7.66 10.62c-7.87 11.04-7.18 16.15 3.5 20.12z"/><path d="m73.05 133.9c-3.62.54-6.21.48-8.43 1.36-4.38 1.72-7.15-.55-8.65-3.8a10.64 10.64 0 0 1 -.06-7.83c1.19-2.77 3.67-5.09 6-7.2a4.76 4.76 0 0 1 4.24-.7c1.08.47 2.47 2.67 2.16 3.55-2.08 5.86-.59 10.64 4.74 14.62z"/><path d="m193.77 92.18h8.17c5.92 0 6.8 3.83 6.94 8.63.16 5.56-3.84 4.37-7 4.66a79.87 79.87 0 0 1 -9.38.63c-1.74 0-3.45-1-5.39-2.41 7.02-1.14 8.42-5.15 6.66-11.51z"/><path d="m61.58 103.67c10.29 3.17 9.54-7.52 15.65-11.56 2.73 2.62 5.93 5.12 8.34 8.24 1 1.31 1.13 4.49.21 5.78s-3.66 2.06-5.6 2.07c-5 0-10-.37-15-.84-1.33-.13-2.58-1.13-3.86-1.73z"/><path d="m132.62 104.9-15.1-11.64c7.29-1.21 10.47-11.49 18.29-4.69 3.01 2.61 1.13 11.76-3.19 16.33z"/><path d="m204.08 123.33c1.42.63 2.49 1 3.46 1.57 2.13 1.24 6.79-1.11 6.13 4.08-.6 4.71-2.16 8.69-7.89 9.34-5.28.6-11.7-3.09-13.07-8.45 5.88 1.69 9.29-1.19 11.37-6.54z"/><path d="m110.86 86.56-6.86-6.35c3.26-4.08 3.71-9.78 10.49-9.92 5-.11 5.67 3.74 6.7 6.64.53 1.48-1.15 4.47-2.68 5.81-1.97 1.71-4.78 2.46-7.65 3.82z"/><path d="m164.07 48.68-12.14 11.32-1.9.32c4.47-7.12.47-10.87-3.63-15-2.38-2.39-.13-3.69 2.34-4.16 7.26-1.34 10.74.32 15.33 7.52z"/><path d="m221.74 96.1c0-3.79.71-7.24-.15-10.25-1.56-5.47 1.91-6.7 5.56-7.47 4.49-.95 9 2.09 8.08 5.77-.81 3.33-3.42 6.54-6 9-1.82 1.69-4.92 2-7.49 2.95z"/><path d="m171.65 149.27a32.34 32.34 0 0 1 -6-4.13c-.52-.5.87-4.5 1.68-4.61a92 92 0 0 1 16.08-.78c1.09.05 2.91 3.18 2.8 4.78s-2.11 3.68-3.66 4.08c-2.94.75-6.17.45-10.9.66z"/><path d="m225.47 50.75c-.39 5.44-.45 10.09-1.13 14.64s-4.77 3.46-7.52 3.19c-1.44-.14-3.61-2.45-3.79-4-.72-5.91.21-10.3 12.44-13.83z"/><path d="m238.88 101.47c-.52 4.51-.89 9-1.65 13.52-.2 1.18-1.7 3.13-2.43 3.06a82.88 82.88 0 0 1 -13-2.32c-.36-.09-.56-4.54.32-5.08 5.58-3.44 11.47-6.36 16.76-9.18z"/><path d="m192.2 70.65c2.53 1.61 4.71 2.87 6.76 4.33 1.59 1.13 3 2.5 4.51 3.76-1.36 1.53-2.46 3.56-4.15 4.42-1.52.78-3.75.6-5.56.26-4-.76-8-1.88-12.81-3.06z"/><path d="m86.72 152.3-7.34-10.24c4-4.24 8.86-4.94 14.09-3.09a5.77 5.77 0 0 1 3.17 4.03c.36 6.64-5.34 7.18-9.92 9.3z"/><path d="m97.76 66.41c-2.05-5-4.07-9.49-5.74-14.14-.43-1.19-.08-3.78.51-4 1.64-.56 4.39-1 5.29-.09a66.52 66.52 0 0 1 7.76 10.08c.34.52-.68 2.36-1.49 3.16a73.73 73.73 0 0 1 -6.33 4.99z"/><path d="m154.07 89.66c8.47 6.54 9.86-2.78 14.44-6.06l11.4 8.78-.86 1.78c-7.22.47-14.44 1.16-21.67 1.22-1.44 0-2.91-2.39-4.37-3.68.36-.7.71-1.36 1.06-2.04z"/><path d="m202.5 65.05 4.33-2.78c1.13 3.52 1.56 7 3.31 9.63 1.53 2.27 4.54 3.53 6 4.61v18.78l-8.85-8.24c8.71-8.95-1.63-14.54-4.79-22z"/><path d="m170.64 160.77-6.39-7.56c9.31 1.37 18.94 5.3 27.54-2.48 6 2.81 6 7.16 3.43 11.76-4.11-1.8-8.06-4.72-12.18-5s-8.3 2.09-12.4 3.28z"/><path d="m202.17 181.06a81.93 81.93 0 0 1 7.07-4.58c2.58-1.32 5.32-2.77 8.11-3.07 2.12-.22 4.43 1.29 6.65 2-1.05 1.88-1.66 4.72-3.24 5.45-3.81 1.77-7.63 5.1-12.49 1.87-1.18-.79-3.32-.12-5-.12z"/><path d="m194.25 174.54c-4.37-.31-9.05.23-13-1.23-2.32-.87-3.47-4.92-5.14-7.53 2.76-.91 6.32-3.36 8.13-2.43 4.13 2.15 7.41 5.94 11 9.07z"/><path d="m75.1 155.7a62.63 62.63 0 0 1 -7.17 3 78.16 78.16 0 0 1 -8.3 1.42c-2.32-2.44-1.35-9.18 3.42-11.92 6.45-3.7 7.83 4.1 12 5.88z"/><path d="m70.85 177c-.1-7.21 7.69-12.42 12.63-9.95 1.22.61 3 2.59 2.76 3.18-1.17 2.76-2.5 5.81-4.7 7.64-1.68 1.41-4.77 1.62-7.18 1.47-1.49-.1-2.87-1.88-3.51-2.34z"/><path d="m131.35 191.38c-4 7.42-9.45 3.32-13.57.88-2.17-1.28-2.5-5.67-3.85-9.16 8.35-.54 13.31 2.14 17.42 8.28z"/><path d="m130 113.68-7.6 12.64c-7.75-3-8.6-6.93-3.63-16.25z"/><path d="m129.09 201.18c8.8 5.18 12.18-3.07 18-5.18.11 4.91-7.88 16.32-11.68 16.81-1.31.16-3.49-1.48-4.19-2.85-1.09-2.08-1.22-4.65-2.13-8.78z"/><path d="m133.62 78.4c5.5-6.76 12.81-6.06 20.09-4.88a4.46 4.46 0 0 1 3 2.9c.15 1.18-1 3-2.12 3.74a6.69 6.69 0 0 1 -4.37 1c-5.41-.76-10.81-1.78-16.6-2.76z"/><path d="m251.68 101 5.23-11.66c3.27 1.3 6.26 1.62 7.7 3.28 1.79 2.07 2.3 5.25 3.36 7.94-2.21.15-4.42.36-6.62.42-2.7.1-5.35.02-9.67.02z"/><path d="m123.39 49.64c1.78 6.56 4.85 8.24 10.1 7.53 1.65-.22 3.76 2.87 5.66 4.45-2.15.81-4.41 2.48-6.41 2.22-3.2-.42-6.33-1.93-9.3-3.37-2-.95-3.57-2.6-5.33-3.93z"/><path d="m159.67 104c-1.1 8.19-1.45 8.46-8.6 7-2.47-.5-4.94-1-7.39-1.59-.31-.07-.53-.53-.81-.84 2.44-7.57 4.64-8.24 16.8-4.57z"/><path d="m139.88 143.23c.92 4.37 8.66 7.79 2.48 12.61-1.93 1.5-8.09-.92-11.29-3.07-2.54-1.71 1.78-6.84 8.81-9.54z"/><path d="m203 49.94c-.48 2.44-.94 4.85-1.76 9.06-4.13-8.9-9.93-7.37-16.88-4.94 1.13-3.08 1.45-5.74 2.88-7.47 2.34-2.83 5.12-5.66 8.83-.9 1.45 1.82 4.18 2.62 6.93 4.25z"/><path d="m168.41 194.51-6-4.79c4.1-3.84 12.76-3.23 12.41-10.14l22.38 2.42-.1 1.68c-11.56-1.45-22.53-1.42-28.69 10.83z"/><path d="m145.43 55.52-14.18-4.9c-2.09-2.06-5.72-5.21-.74-8.66 10.8 4.55 15.85 9.42 14.92 13.56z"/><path d="m173.93 55.36c0 4.28.2 8.32-.05 12.33-.24 3.77-4.92 5.91-7.72 3.4-2.08-1.85-3.43-4.52-6.39-8.61 9.83 4.52 7.48-7.01 14.16-7.12z"/><path d="m213.87 121.51c-1.56-1.56-3.13-3.11-4.68-4.67-1-1-2.16-3-3.08-3a6.47 6.47 0 0 0 -4 2.69c-1.7 2.45-2.9 5.24-5.57 7.55-.32-3.57-.65-7.13-1-10.72l18.62-2.88c.17 2.38.43 6 .69 9.72z"/><path d="m89.25 87.4c-4.82-2.61-8.75-4.52-12.42-6.86-1-.65-1.21-2.57-1.75-3.83 4.75-.42 8.71-.64 12.63-1.16s5 2 4.51 4.93c-.46 2.59-2.1 4.97-2.97 6.92z"/><path d="m100.86 128.57c-6.49-4.26-14.21 1.27-19.14-5.87l5.15-4.7 13.56 4.41z"/><path d="m259.17 144c-1.29 8.22-1.29 8.22 10.32 14.34-3.07.24-5.51 1.19-6.52.37-5.89-4.76-7.31-.65-8.73 4a8.21 8.21 0 0 1 -1.13 1.7l-6.6-2.35c9.23-6 9.37-6.34 7.07-15.59.9-.44 1.87-.94 2.87-1.38.84-.41 1.71-.71 2.72-1.09z"/><path d="m225.65 139.14c-2.81-9.22-1.3-11.15 6.16-10.6 3 .23 6.13-.43 10.11-.77-2.83 8.62-11.57 6.12-16.27 11.37z"/><path d="m97.1 95.73c7.93-1.63 10.26 0 12.26 6.43 1.6 5.12-2.41 5.22-6.19 7.26-2.05-4.64-3.94-8.89-6.07-13.69z"/><path d="m239.28 63.1c-1.27-6.57 1.66-12.73 5.78-12 2.31.41 6 4.29 5.71 6.12-.93 6.27-6.77 4.9-11.49 5.88z"/><path d="m209 170.12-8.39-7.81c.09-.69.17-1.38.26-2.07l15.07-3.44 1.18 1.84z"/><path d="m137.75 122.93c-.54 11.23-3.92 14.49-13.06 13 1.91-6.67 7.85-12.79 13.06-13z"/><path d="m222.42 150.75c.92-.36 2.31-1.31 2.7-1 5.92 4.66 10.88 1.58 16.12-1.46a8 8 0 0 1 5.72-.35c.84.25 1.85 3.24 1.33 4-1 1.42-3 3-4.56 2.94-7-.39-14.07-1.34-21.1-2.08z"/><path d="m102.9 167.76c-5.89-7-.52-11.47.8-16.33.2-.73 3.25-1.24 4.69-.83.83.24 1.86 2.89 1.43 3.85-1.92 4.33-4.33 8.45-6.92 13.31z"/><path d="m176.38 199.64c-.51-3.3-1.47-5.78-.88-6.23 4.83-3.69 9.9-7.16 16.76-4.65-.82 9.75-10.77 4.63-15.88 10.88z"/><path d="m146.47 133.21 11.44-3.5q-.06 6.33-.14 12.67l-2.74 1z"/><path d="m268.94 107.89a5.94 5.94 0 0 1 0 1.83 7.56 7.56 0 0 1 -.71 1.44l-25.68 2.26c1-3.34 1.57-5.35 2.55-8.71 3.49 5.67 6.88 5.37 11.6 3.46 3.49-1.43 8.05-.28 12.24-.28z"/><path d="m170.08 179-15.31 7.9c0-3.58-.89-6.46.16-7.93 3.57-4.97 6.99-4.97 15.15.03z"/><path d="m234.22 50.56c-2.65 18.75-2.65 18.75 6.23 19.7l-1.06 4.3c-.32.25-.5.48-.6.45-3.73-1.07-7.45-2.16-10.9-3.17.92-4 2.17-8 2.71-12.14 1.17-8.9 1.02-8.92 3.62-9.14z"/><path d="m202.24 154.83c-1-5-8.18-6.2-5.6-10.51l15.36.93 1 1.36z"/><path d="m246.86 133.83 1.53-11 2.6-1-5-3 16.62-2.61 1 2c-9.3 1.53-12.29 9.29-16.84 15.51z"/><path d="m122.31 161.9v15.61l-11.31-1.41z"/><path d="m164.64 161.91c-3.51 3.67-7.17 5.07-11.1 2.23-.58-.42.47-4.81 1.9-6 4.56-3.95 6.74-.14 9.2 3.77z"/><path d="m249.47 168.94c-2.11 2.14-3.39 4.6-5.18 5-5.22 1.31-10.33.82-14.83-5z"/><path d="m106 116c5.58 3.87 4 14.48 14 14.31-.69 2.2-1.19 3.8-1.92 6.11-10-3.35-7.75-13.91-12.08-20.42z"/><path d="m246.75 133.73c-.15 2.32-.3 4.64-.44 6.85-16 5.89-16 5.89-17.23 4.61l17.79-11.36z"/><path d="m137.9 183.14c-1.89-2-4.56-4.46-6.87-7.25-.83-1-1.45-3-1-4a6.21 6.21 0 0 1 3.52-3.31c1.45-.43 3.26.42 4.37.61z"/><path d="m191.59 59.09c0 7.34-6.41 9.24-10.79 14.89v-8.76z"/><path d="m161.89 150.42-10.89 3.76-6.72-13.35.67-.39c1.74 2 3.18 4.38 5.3 5.75 1.91 1.24 4.59 1.23 6.87 2a43.59 43.59 0 0 1 4.77 2.23z"/><path d="m238.48 188.15-10.79 5.29c-1.03-9.7.25-10.44 10.79-5.29z"/><path d="m95.34 173.37-8.93-13.76 7.08-3.12c-.57 6.29 3.82 11.16 1.85 16.88z"/><path d="m251.91 138.68 7.86-13.15c2.45 8.59.47 12.2-6 14.29z"/><path d="m51.32 167c.42-1.08.91-2.36 1.1-2.84l14.37 2.42c-.65 1.72-1.31 3.47-1.67 4.41z"/><path d="m95.84 178.19 9.35 5.53c-1.94 2.57-3.57 4.79-7.08 2.61-2.91-1.8-4.8-3.91-2.27-8.14z"/><path d="m149 96-5.67 1.51c-.48-4.2-.9-8-1.34-11.79 8.24-1.35 2.41 7.96 7.01 10.28z"/><path d="m161.09 196c5.16 3.52 7.4 6.93 5.42 12.61-5.2-2.61-6.27-6.61-5.42-12.61z"/><path d="m234.05 161.65-13.43 5.63-.86-1.61c1-2 2-4.09 2.92-5.92z"/><path d="m86.44 132.65-7.13 1.92c-2-3.51-4-6.76-6.28-10.72z"/><path d="m121 155c-.65-3.86-1.3-7.73-2-11.82 5.22 1.51 5.22 1.51 3.61 11.71z"/><path d="m100.69 115.33c-2.33-.43-5.21-.18-6.79-1.51-1.19-1-.71-4-1-6.12l1.74-.56 6.77 6.36z"/><path d="m258 72.81c-9.67 5.85-9.67 5.85-11.52 1.13z"/><path d="m50.06 103.23c6.32-2.59 4.1-2.41 7.54 8.73z"/><path d="m283.7 284.25 7.47 1.66c.1.5.39 1.56.53 2.65.66 5 3.44 6.72 8.16 5 7.86-2.82 11.3-8.72 10.91-18.26a19 19 0 0 1 .77-7.43c4.87-12.56 4-14.33-9.29-16 .45-1.68.89-3.3 1.27-4.7 7.27 2.64 13 9.53 21.62 5.77 1.3 5.12 1.3 5.12-3.2 8.4-5.92 4.31-6.53 7.95-5.87 15.42.36 4-2 8.45-3.7 12.46-.94 2.25-3 4-4.07 5.41-2.84.69-7.17.93-7.35 1.93-.65 3.54.13 7.34.43 12l-11.54-3.26c-2.9-11.9-6.21-12.4-18.24-2.49l-2.76-3.26z"/><path d="m387.49 331c2.19 4.88 4.37 9.76 6.65 14.86-.27 0-1.28.41-1.89.08-1.75-1-3.9-3.53-4.86-3.11a21.46 21.46 0 0 0 -7.29 5.64c-.64.74.32 3.41 1.17 4.8 1.79 2.92 4 5.56 6 8.34 1.12 1.54 1.88 4.05 3.33 4.53 7.69 2.54 15.87 3.92 23.06-.53 3.24-2 5.45-1.81 7.69-.12 1.56 1.16 2.18 3.59 3.23 5.46-1.72-.12-3.56.12-5.13-.42-7-2.45-13.71-.2-18.68 5.52l-15.48-6.05c-1.52-4.07-2.71-9.11-5.24-13.35-1.62-2.73-5-4.77-8-6.21a36.73 36.73 0 0 0 -10.69-3 5.81 5.81 0 0 0 -4.62 2.22c-1.4 2-1.93 4.67-2.93 7.32-2.36-1.08-4.72-2.18-7.33-3.39.39-5 2.58-7.42 8-7.72 5.06-.27 10.05-1.86 15.08-2.83a15.11 15.11 0 0 1 4-.52c7.29.59 10.35-1.35 12.73-8.25.42-1.27.9-2.5 1.2-3.27z"/><path d="m349.59 294c-1 5.67-1.37 11.39-3 16.72-1.38 4.4-5.33 5.55-9.61 3.55s-7.66-8.91-5.44-12.08c1.78-2.53 5.92-3.46 7.5-6 2.52-4.19 5.38-4.19 10.55-2.19z"/><path d="m336.84 336.4c7.57-5.08 9.86-14.22 19.66-14.22 1.42 1.47 2.84 14.3.46 15.72-3 1.79-6.74 3.36-10.07 3.19-3.11-.17-6.1-2.73-10.05-4.69z"/><path d="m308.32 258.46c-1.37 3.91-2.19 6.63-3.25 9.24-1.24 3-3.52 5.84-.19 9.07.43.42-.37 2.75-1.19 3.67-1.5 1.71-3.43 3-2 1.84l-7.43-7.77-3.33 3.3c2.73-8.38 4.74-17.42 17.39-19.35z"/><path d="m287.67 314.87c-2 3-4.94 7.59-8 12.24-9.9-9.15-11.95-16.38 2.55-25 1.63 3.79 3.26 7.63 5.45 12.76z"/><path d="m293.77 331.44c1.13-5.24 1.48-9.23 3-12.76.69-1.64 3.43-2.78 5.46-3.35 1.27-.35 2.92 1 4.45 1.23 4.3.58 6 2.67 5.34 7.17-.67 4.21-1.22 7.77-6.9 7.3-3.69-.31-7.41.23-11.35.41z"/><path d="m406.33 305 26.18 6.69-17.69 10.34c-.11-6.35-12.74-6.11-8.49-17.03z"/><path d="m369 373.74c-3.3-3.44-6.5-5.93-8.5-9.17-1.19-1.94-.85-5.11-.41-7.59.12-.68 3.09-1.2 4.74-1.17 2.68.06 5.69 0 7.93 1.14 4.18 2.19 4.25 8.5.68 11.87-1.44 1.33-2.61 2.89-4.44 4.92z"/><path d="m378 225.69c-4.16 7.69-7.89 14.77-11.81 21.75-2.23 4-5.22 5.13-10 .73 3.74-4.94 7.56-9.91 11.28-14.94 1.13-1.54 2.74-3.23 2.84-4.93.39-6.65 3.69-4.3 7.69-2.61z"/><path d="m370.81 277.91c-2.22-6.37-1.57-7.22 4.85-8.15a19.52 19.52 0 0 0 6.93-2.84c3.58-2.19 6.93-4.77 11.67-8.08-4.94 15.78-4.94 15.78-23.45 19.07z"/><path d="m417.18 401.4c-.23 4.24-.47 8.48-.81 14.46l-16.71-5.55c-.05-3.94 1-7.82 5.52-8.76 3.53-.73 7.34-.15 12-.15z"/><path d="m409.21 242.45c1.24.21 3 0 3.76.73 4 4.17 8 8.33 11.24 13.06 1.07 1.58-.3 4.83-.56 7.32-2.5-1.1-6.32-1.57-7.2-3.44-1.43-3.05-2.83-4.55-6.11-5.33s-3.49-5.49-1.13-12.34z"/><path d="m445.62 444.74c.8-2.75 1.6-5.51 2.4-8.24-6.51-3.44-7.13-5.51-5.23-12.47.94-3.42.77-7.15 1.18-11.6 5.49-3.23 6.27 3.76 9.94 6-6.65 1.52-8.59 4.95-6.33 11 1 2.74 2.83 5.16 4 7.84.78 1.76 2.07 4.46 1.36 5.45-1.24 1.71-3.85 2.42-5.89 3.55z"/><path d="m430.29 363.82-5.23-3.89c-1.41-10 2.12-15.92 12.82-16.06 2.78 8.51-3.43 13.51-7.59 19.95z"/><path d="m468.27 360.83a49.33 49.33 0 0 1 -3.33-5.8c-1.58-3.88-2.94-7.55-8-8.28-1-.14-2.4-3.79-2-5.5s3-4.85 3.94-4.62c2.49.6 5.93 2.28 6.61 4.33 1.28 3.84 1.52 7.55 5.29 10.52 1.51 1.18.25 5.89.25 9z"/><path d="m302 349.44c.48.86.3.69.3.52 0-4.35-1.71-10 .39-12.67 1.94-2.41 7.95-1.55 12-2.12l4.31 11.52z"/><path d="m361.15 259.12c12.52-4 11.05-18.12 19.14-25.07 1.84 7.1 2.06 7.32-4 13.52-4.27 4.35-7.3 8.66-7.86 15.18-.33 3.86-3.65 7.46-5.85 11.58-4.22-4.66.19-10.26-1.43-15.21z"/><path d="m354.43 265.69c1.52 4.51 3 8.48 4.17 12.54a13 13 0 0 1 .29 5.79c-.34 1.72-1.56 3.28-2.39 4.91a51.2 51.2 0 0 0 -2.71-4.36c-2.06-2.75-4.25-5.4-7.29-9.21 1.35-2.93 1.55-8.6 7.93-9.67z"/><path d="m401.88 429.47c6 2.77 10.21 11.57 9.13 21l-11.81-5.76c.9-5.1 1.8-9.98 2.68-15.24z"/><path d="m334.75 274.9c-.17 3.82.83 7.79-.71 9.9-2.6 3.57-6.8 8.27-10.34 8.28-4.36 0-4.55-5.63-4-8z"/><path d="m357.49 310.89c-2.17-4.4 2.7-7.43 5-10.83 2.08-3.08 5.63-5.19 8.6-7.63.82-.67 2.15-1.57 2.85-1.31s1.44 1.72 1.64 2.76c.83 4.2-3.38 10.9-7.36 12.39-3.34 1.24-6.55 2.8-10.73 4.62z"/><path d="m268.27 291.63c5-12.78 4.68-13.87-4.89-15.86 2.19-4.19 4.14-7.95 6.42-12.33 8.89 11.73 8.42 18.65-1.53 28.19z"/><path d="m382.07 323c-1.07 11.4-1.07 11.4-15.23 14.34-2.14-4.86 1.53-8.12 4.14-10.48 2.41-2.16 6.58-2.39 11.09-3.86z"/><path d="m387 296.5c-.82-1.18-2.28-2.5-2.7-4.1-.59-2.25-1.31-5.27-.29-6.9s4-2 6.3-2.41c1.15-.19 2.7.65 3.73 1.46a68.94 68.94 0 0 1 5.16 5c-1.88 1-3.78 2-5.64 3.1s-3.69 2.12-6.56 3.85z"/><path d="m429.73 441.91-11 14.27-1.15-16.46 7-5.41z"/><path d="m460.33 371.61h-16.62c.6-4.13 1.15-8 1.71-11.85 8.58.94 13.83 5.24 14.91 11.85z"/><path d="m419.05 337.21a39.57 39.57 0 0 1 3.6-3.61c2.93-2.33 5.89-4.64 9-6.67 1.73-1.13 4.42-2.85 5.6-2.24 1.66.87 3.35 3.81 3.11 5.6-.22 1.61-2.82 3.47-4.74 4.15-5 1.79-10.2 3-15.32 4.43z"/><path d="m424.06 273.29c5.15 5.39 5.11 8.7-.14 12.39-4 2.79-8.31 5.09-13.07 8-.89-2.15-1.65-4-3-7.18 10.94 1.85 11.92-7.16 16.21-13.21z"/><path d="m283.5 279.06-4.77-16 9.25-5.87 4.2 1.39z"/><path d="m393.22 310.14c2.08 6-2.11 7-5.8 6.53-2.49-.3-5.87-2.6-6.72-4.82-1.11-2.92 5.27-7.88 9.55-7.25 1.64.24 2.92 3 4.37 4.68z"/><path d="m447.79 330.07 5.51 1c-.22.63-.4 1.11-.55 1.61-1.35 4.38-3.46 8.71-3.71 13.15-.12 2.22 3 4.79 5 6.89 1.28 1.37 3.15 2.18 4.75 3.24-.35.55-.7 1.1-1.06 1.65l-12-6.12c-.83-4.05-2.43-8-2.18-11.85.22-3.17 2.63-6.15 4.24-9.57z"/><path d="m465.7 398.21c-3.76.32-6.61.77-9.45.73-1.25 0-2.44-1.22-3.73-1.55-2.26-.56-6.28.05-4.66-3.68 1-2.24 4.65-4.17 7.36-4.6 4.85-.76 7.78 2.64 10.48 9.1z"/><path d="m393.44 360.24c-.76-1.91-1.68-4.23-2.82-7.12 6.72 0 12.71-.11 18.69.12.88 0 2.52 2.38 2.42 2.49-1.35 1.62-2.79 4.06-4.49 4.31-4.24.61-8.58.2-13.8.2z"/><path d="m419.43 345.46v7.45c-3.21-6.79-8.62-7.83-16.1-5.63 10.06-4.54 2.26-13.2 5.88-19.11l5.13 2.48c-3.52 9.47-2.67 11.92 5.09 14.81z"/><path d="m434.27 373.29 2.13 12.44h-12.4l-.6-1.76 8.22-11.19z"/><path d="m315.3 296c2.74 4.06 10.52 5.19 6.55 11.79-2.8 4.67-6.41 3.54-12.83-3.1z"/><path d="m403.07 385.5c2.4-7.84 6.07-9.9 14.14-8.26-.11 9.56-5.86 13.05-14.14 8.26z"/><path d="m361.6 218.29c-2.42 7.47-4.3 13.28-6.17 19.09-1.33 4.12-9.49 7.51-15.4 5 13.34-2.71 12.97-16.38 21.57-24.09z"/><path d="m322.36 270.33c.7-1 1.16-2.43 2.11-2.94 5-2.64 8.36-6 8.35-12.27 0-1.13 3.46-2.27 5.32-3.41.44 1.69 1.79 3.91 1.16 5a38.05 38.05 0 0 1 -7.15 9.12c-2.52 2.24-5.9 3.51-8.91 5.21z"/><path d="m443.57 404.78c-11.52 4.06-15.58 2.39-14.73-6.18l9.67-1.35z"/><path d="m410.48 270.08c-.44 6.71-3.58 11.07-7.62 10-1.72-.47-4.28-2.72-4.2-4 .23-4.08 7.34-7.33 11.82-6z"/><path d="m375.58 259.67c6.37-2.6 5.62-14.64 15.91-12.37-.03 11.06-9.18 10.23-15.91 12.37z"/><path d="m396.64 324 5.77.87c-.45 4.79-.85 9.17-1.25 13.54-7.5-.58-8.48-3.53-4.52-14.41z"/><path d="m320.45 336.77c10.75-.23 14.44 6.57 17.69 14.17-2.14-1.45-4.25-2.92-6.41-4.32-2.42-1.55-5.08-2.8-7.26-4.62-1.64-1.38-2.7-3.46-4.02-5.23z"/><path d="m382 388.81c-7.49 1.28-10.12-2.73-12.73-6.42l11.73-9.66c-.48 5.55-7.42 9.99 1 16.08z"/><path d="m442.87 299.61c-7.61 2.69-12.74-2.55-18.84-5.1 3.91-4.24 15.29-1.08 18.84 5.1z"/><path d="m400.89 240.26c1.11 7.44 2.11 14.34 3.11 21.25l2 .32-4.83 1.93c-1.4-3.55-2.7-6.83-4.27-10.79z"/><path d="m389.65 390.18 16.46 3.26-11.29 8.34z"/><path d="m344.1 263.9c1.36-4.72 2.71-9.45 4.28-14.92l7.21 7.94-10.59 8.2z"/><path d="m437.43 316.8c.24-1.51.54-2.82.64-4.14s0-2.7 0-4.41h6.66v12.48z"/><path d="m375.93 315.86-11.4 5.94c-3.28-5.31-3.09-5.54 9.19-10.69.47.95 1 1.91 1.42 2.9.33.71.62 1.44.79 1.85z"/><path d="m435.45 435.28c-5.38-1.58-6.21-3.45-3.74-8.06a38.53 38.53 0 0 0 1.55-4.62c.62-1.66 1.37-3.26 2.07-4.89l1.84.53c-.56 5.54-1.12 11.08-1.72 17.04z"/><path d="m385.45 407.56c-.76-.71-1.66-1.13-1.8-1.73-.77-3.35-1.36-6.74-2-10.11 1.16.18 2.9-.06 3.38.61 2.37 3.31 6.24 6.72.42 11.23z"/><path d="m461.26 383c-2.28 0-3.52 0-4.76 0-2.64.09-5.28.29-7.91.29a24.63 24.63 0 0 1 -5-.57 3.26 3.26 0 0 1 -.25-2.06 9.9 9.9 0 0 1 4.07-1.3c4.45.02 9.47-2.44 13.85 3.64z"/><path d="m392.47 384.13-8.69-1-.69-2.25c2.54-1.33 5-3.07 7.69-3.68.64-.15 2.13 3.48 3.23 5.37-.51.49-1.01 1.02-1.54 1.56z"/><path d="m429.67 448.12h10.62c-2.08 3.36-3.81 6.18-5.69 9.24q-1.96-3.66-4.93-9.24z"/><path d="m429.21 413.35-3.35 9.71-1.61.22c-.48-4.66-1-9.32-1.55-15z"/><path d="m336.76 238.81c-2.79 4.1-4.94 7.27-7.08 10.43-.21-11.43-.21-11.43 7.08-10.43z"/><path d="m334.62 326.47-13.84.7 1.77-5.55 12 3.75z"/><path d="m424.17 392.1-1.34 4.51-11.86-2 12-4.68z"/><path d="m399.21 303.63-4.82-4.41 9.91-4.36c.83 1.6.83 1.6-5.09 8.77z"/><path d="m413.37 429.11-8.57-5.7.72-1.37 10.1.91c-.8 2.2-1.43 3.9-2.25 6.16z"/><path d="m406.81 457.69h6.58c-.08 1.57-.16 2.89-.32 5.88l-7.62-4.23z"/></g></g></svg>