<svg viewBox="0 0 496.18 496.18" xmlns="http://www.w3.org/2000/svg"><path d="m0 0h496.18v496.18h-496.18z" fill="none"/><g transform="translate(-7.43 -7.81)"><g fill="#fff8ff"><path d="m260 322.77c-.26 2.31-.49 5.28 2.95 5.64 3.23.33 3.1-2.56 3.72-4.62 2-6.66 3.21-13.65 7.31-19.45 3.81-5.39 9.38-5.86 13.81-1 2.17 2.41 3.7 5.41 5.64 8.06 1.08 1.47.8 4.56 2.94 4.41 2.62-.18 3.34-3.18 4.24-5.38a23.49 23.49 0 0 0 .93-4.56c-.22-9.89-2.54-18.65-10.33-25.27-5.6-4.76-11-4.82-16.17.33-11.49 11.51-13.32 26.68-15.04 41.84z"/><path d="m257 200.63c3.25 0 5.13-1.38 5.13-4.93a7.17 7.17 0 0 0 -7.62-7.26c-3.59.16-4.38 2.82-4.45 5.79-.06 4.11 2.64 6.45 6.94 6.4z"/><path d="m208.94 284.29c-4 5.53-5.11 24.73 1.68 31.75.37-1.56.56-2.58.85-3.57 1.34-4.5 3.3-8.74 8.27-9.61 4.73-.82 7.72 2.27 10.47 5.95 3.79 5.08 5.27 11.25 7.95 16.84 1.39 2.92 3.13 3.33 5.64 2.79 3.31-.7 2.41-3.15 1.93-5.37a141.63 141.63 0 0 0 -12.53-35.22c-5.72-11.06-17.51-12.79-24.26-3.56z"/><path d="m334.1 201.93c-17.94-14.22-40.21-22-55.27-40.49l-1.13.79c2.27 8.91 4.18 18 6.88 26.72 3.7 12 4.44 24.39 4.62 36.8.19 13.29-1.29 26.52-2.78 39.72-.22 1.94-1.4 4.7 1.42 5.37 5.78 1.39 8.91 5.86 12.58 10 10.47 11.8 10.24 32.06-.75 43.12-4.32 4.34-7.76 3.7-9.95-2.23a58.4 58.4 0 0 0 -5.52-11.73c-2.32-3.59-4-3.65-5.63.3-2.17 5.31-3.65 10.91-5.69 16.27-1 2.72-.63 4.49 1.56 6.35 2.76 2.33 4.74 5.18 2.35 9.08-1.2 1.95-.24 2.91 1.55 3.39a17.72 17.72 0 0 0 6 .76c7.36-.56 14.41-2.13 20.82-6.08 3.38-2.08 6.29-1.94 8.94 1.43 4.45 5.63 10.75 6.84 17.28 7.28 2.5.17 4.18-.35 3.73-3.81a11.17 11.17 0 0 1 2.32-8.37c4.68-5.84 5.6-17.05 1.69-23.05-.8-1.23-1.37-3.15-3.29-2.76-1.64.33-1.56 2.09-1.84 3.41-.74 3.49-2 6.55-6.14 6.33s-5.17-3.52-5.8-6.88c-1.32-7 .31-13.66 3.27-19.85 4.65-9.71 9.75-19.17 22.18-19.65 2.71-.11 3.79-2.32 4.43-4.46 1.58-5.33 3-10.72 4.23-16.17 1.5-6.87 2.26-13.85.38-20.78-3.54-13.3-12.12-22.63-22.44-30.81z"/><path d="m353.08 334.85c3.09.48 4.29-1.06 4.7-4a49.74 49.74 0 0 1 1.41-6.12 61.76 61.76 0 0 0 -.23-33.68c-2.57-9-14.25-12.9-19.91-6.55-5.07 5.69-8.24 12.69-10.2 21.07 10.24-3.48 15.61-.57 18.39 9.24a26.89 26.89 0 0 1 1.1 8.29c-.07 2.27 0 4.55 0 6.83-.12 3.42 1.91 4.48 4.74 4.92z"/><path d="m234.78 266.64c1.52 7.75 2 15.82 6.82 22.57 1.26 1.77 1.71 4.16 2.62 6.22 4.24 9.51 6.64 19.64 9.1 29.76a53.49 53.49 0 0 0 -.07-7.39c-1.59-23.36-4-46.67-3.47-70.14a37.23 37.23 0 0 1 .54-6.25c.36-1.77.46-4.39 2.91-4.22 2.19.15 2.62 2.56 2.87 4.44a72.76 72.76 0 0 1 .6 8.35c.23 14.77.44 29.55 2 44.52 2.67-7.82 7.38-14.1 12.8-19.8 4.59-4.82 5.93-9.06 2.6-14.7a127.67 127.67 0 0 0 -18.33-24.32c-1.56-1.61-3-2.18-4.7-.25-5.61 6.31-11.35 12.51-14.85 20.46a17.74 17.74 0 0 0 -1.44 10.75z"/><path d="m402.54 361.19a2.81 2.81 0 0 0 2.57 2.22c1.72.23 1.69-1.21 2.07-2.35a9.27 9.27 0 0 1 8.91-6.66c5.07-.15 6.72-3.21 7.79-7.35.79-3 1.51-6.09 2.19-9.16a3.47 3.47 0 0 0 -1.6-4.06c-1.67-1-2.89 0-3.94 1.27-1.19 1.49-2.29 3-3.6 4.42-3.78 3.94-8.52 2.86-10.36-2.37a45.07 45.07 0 0 1 -1.1-5.43c-1.25 1-2 1.59-2.8 2.18-4.37 3.28-7.55 2.17-9.05-3.22a24.28 24.28 0 0 1 -.6-3.61c-.24-2.14-.54-4.27-2.82-5.15-2.57-1-4.67.14-6.44 1.94-3.42 3.48-5.64 7.81-8 12-1.47 2.59-1.87 4.6.17 7.05 2.19 2.63 2.62 5.64.5 8.66-2 2.85-.63 4.12 2.1 4.65 5 1 10 1.84 15.09.46 4.22-1.12 7.77-1.01 8.92 4.51z"/><path d="m393 215.9c-3.85-.08-5.52 2.3-5.74 5.87-.26 4 3.43 7.95 7.24 8 4.76 0 4.75-3.47 4.73-6.66.18-5.8-1-7.11-6.23-7.21z"/><path d="m378.71 295.71c4-4 7.62-8.3 12.28-11.51 2.21-1.52 2.71-4.08 2.69-6.47-.05-4.44-.54-8.87-.84-13.3-4.75 10.51-9.94 20.57-14.13 31.28z"/><path d="m389.88 293.88c-9.48 10.67-15.81 23.46-22.7 35.87a18.49 18.49 0 0 0 -1.56 4.41c-.29 1.15-.63 2.62.91 3.13 1.69.57 1.85-1.06 2.24-2.13a48.44 48.44 0 0 1 9.06-15.07c7.6-8.75 18.43-7.2 21.38 2.79 1.06 3.6 2.54 1.5 3.73 0 4.69-6 6.07-13.13 6.41-20.58.11-6-2.43-11.2-6.26-12.78-4.09-1.7-9.55.23-13.21 4.36z"/><path d="m362.1 280.84c3.64 6 5.06 12.71 6.07 19.62l1.37.09 18.36-43.89a303.13 303.13 0 0 0 -23.57 19.34c-1.33 1.26-3.39 2.93-2.23 4.84z"/><path d="m153.75 312.79c1.66-6.51 5.19-8.52 11.4-6.63a19.19 19.19 0 0 1 7.4 4.43c1.6 1.46 2.8 1.51 2.89-1 .24-6.83.33-13.69-2.49-20.11-2.32-5.31-6.67-8.06-12-7.69-5.05.35-7 4.13-8.7 8.35-5.45 13.71-2.94 27.45-.54 42.58 1.83-3.24 1.15-5.35 1.23-7.37.12-4.22-.24-8.44.81-12.56z"/><path d="m346.44 172.68c5.85 1.15 13.09.75 16.25 7.86 1.32 3 3.06 3.29 5.87 3.49 10.12.73 18.36 4.72 21.92 15.5a6.7 6.7 0 0 0 3.79 3.94c2 1 4.1 2 5.52 3.62 9.34 10.52 16.33 22.15 16.74 37.12.34 12.43-1 24.43-5.87 35.9-.88 2.06-1.8 4.27 0 6.4 5.08 6 7.31 12.88 5.08 21l1.78.68a42.19 42.19 0 0 1 2.7-3.82c5.67-6.36 12.14-10.08 20.72-6.37 1 .44 2 .51 2.7-.55 1.71-2.59 4-5 5-7.85a125.32 125.32 0 0 0 6.17-45.37c-.52-13.53-4.37-26.48-15.09-34.1-12.55-8.91-25.31-18.19-40.54-22.37-8.69-2.39-16.8-6.47-25.06-10.09-11.88-5.22-24.21-9-36.82-13.37 1.42 5.54 4.29 7.43 9.14 8.38z"/><path d="m143.18 275.86c-3.64-11.18-10.73-16.86-20.26-20.86-1-.45-2.6-1-3.33-.54-1.51 1-.28 2.54.12 3.76 5.46 16.55 10.89 33.11 16.53 49.6 2 5.82 3.82 11.77 7 17.56 1-2.28.2-4 .06-5.64-.64-7.8-2.51-15.79.28-23.36 2.65-7.16 2.02-13.07-.4-20.52z"/><path d="m111.27 283.86c.41 1.18.82 2.35 2 2.86 4.17 1.76 7.88 4.33 12.2 6.68-4.46-12.36-8.91-24.72-13.75-38.13-2.05 6.93-2.07 23.92-.45 28.59z"/><path d="m454.07 192.16c3.42 0 6.83-4.25 6.75-8.35-.08-3.46-3.57-6.22-8-6.28-3.76-.05-6.33 1.67-6.43 5.67-.08 4.39 4.14 8.99 7.68 8.96z"/><path d="m417.47 186.23c8.08 5.09 16.29 10 24.46 15 2.92 1.77 5.78 3.59 7.88 6.47 11.18 15.33 15 32.52 12.83 51.45-.84 7.38-1.1 14.83-3.53 22.29 9.21-2.05 10.44-3.11 11.8-11.06a154.59 154.59 0 0 0 2.17-30.75c-.18-6.18-2.06-12-6.78-16.42a14.06 14.06 0 0 1 -4.11-8.25c-.24-1.55-.25-3.2-1.34-4.44-7.32-8.39-14.46-17-23.66-23.32-9.61-6.65-20.73-10-31.05-15.1-2.54-1.26-5.05-2.66-8.09-2.89-7.89-.61-15.7-1.64-23.32-4.28-4.16-1.44-8.77-1.5-13.18-2.18 15.83 6.42 30.81 14.72 47.07 19.64a35.7 35.7 0 0 1 8.85 3.84z"/><path d="m255.55 222.05c2.89.18 7.88-4.14 7.93-6.87.06-3-3.65-6-7.85-6.09-3.5-.25-6 1.38-6.49 5.35-.4 3.14 3.34 7.41 6.41 7.61z"/><path d="m122.37 226c-.07-3.24-4.25-10.61-6.39-10.62-3.8 0-3.91 4.18-5.93 6.26a13 13 0 0 0 -2.19 3.48c-2.17 4.62.26 9.87 4.9 10.71 4.24.75 9.72-4.9 9.61-9.83z"/><path d="m398 368.76c-.86-4.05-2.54-5.63-5.89-4.83a22.26 22.26 0 0 1 -8.57 0c-10.38-1.6-19.48-8.08-30.17-8.47a1.55 1.55 0 0 1 -.47-.19 15.54 15.54 0 0 0 -11.34-.9c-11.4 3.18-21.79.75-30.9-6.93-2.14-1.8-3.68-1-5.48 0a45.58 45.58 0 0 1 -15.48 4.8c-12.38 1.78-24-6.7-36.53-2.95-1.66.5-3.68-.28-5.52-.55a24.63 24.63 0 0 0 -15.11 2c-7.79 3.75-15.69 1.72-22.41-3.63-2.57-2-4-1.59-6.54 0-11 6.85-22.88 11-35.08 4.74-7.69-3.92-14.41-3.45-21.7-.4-1.23.51-3 .52-3.32 2.07-.77 3.71-3.6 5.81-6.13 8.28 87.33-11.58 173.98-10.19 260.64 6.96z"/><path d="m373.26 192.93c-2.72.57-7.7.19-7 5.38.57 4.33 2.47 8.36 6.5 10.64 1.69 1 3.62 2.77 5.43.64 1.63-1.92 3.11-4.24 1.78-7.09-.71-1.54-2-2.83-1.5-4.89.8-4.44-3.08-5.12-5.21-4.68z"/><path d="m111 323.43c4.21-8.72 9.08-10.59 15.09-6a20 20 0 0 1 6.15 8.18c1.4 3.16 2.73 6.41 5.33 8.8.82.75 1.44 2.47 2.8 1.57s.14-2.14-.37-3.15c-4.17-8.17-8.16-16.45-12.61-24.46a35.17 35.17 0 0 0 -13.89-14.1c-4.45-2.41-8.52-.89-12.06 2.43-3.2 3-1.8 6.22-.6 9.6a52.38 52.38 0 0 0 10.16 17.13z"/><path d="m103.19 238.6c-2.38-1-2.39 1.85-2.65 3.32-2.15 12.41-1.57 24.61 3.07 36.43a80.59 80.59 0 0 1 .08-15.14c.81-6.41 1.41-12.86 3.39-19 1.23-3.86-1.96-4.77-3.89-5.61z"/><path d="m409.48 442.35c-7.2 1.42-13.35-1.63-19.81-3.25-20.43-5.12-41.46-6.45-62-11a115.66 115.66 0 0 0 -30.8-2.1c-11.9.63-23.73-.11-35.47-.93-29.68-2.07-59.19.55-88.76 1.82-20.63.88-41.07 3.9-61.59 6-4.34.45-6.9 3.36-9.57 6.22a2.64 2.64 0 0 0 -.32 3.4c1.13 1.56 2.06.19 3-.41a28.38 28.38 0 0 1 13-4.12c27.66-2.74 55.41-2.82 83.16-3.26 25.75-.41 51.4 2.47 77.11 2.06 30.51-.49 60.87 1.7 91.2 4.33 8.53.75 16.87 3.65 25.38 5.1 5.72 1 11.36 1.73 16.19 5.47 3.21 2.5 4.1.5 4.24-2.83-.2-3.25-1.85-7.11-4.96-6.5z"/><path d="m73.25 329.69c-1.44-9.23 2-12.55 10.66-9.93.79.24 1.61.91 2.36.28 1-.84.52-2 .07-2.89-2.2-4.34-4.45-8.66-8.28-11.79-3.44-2.81-7.22-2.3-10.4-.06-6 4.24-5.88 4.45-11.71-.65-.9-.79-1.93-1.42-2.86-2.18-2.59-2.13-4-4.61-1-7.38 1.93-1.78 1.21-3-.28-4.24-9.07-7.28-16.63-16.85-29.51-20.21 3.88 7.23 7.41 13.7 12.31 19.33 5.88 6.75 12.09 13.29 17.19 20.64 8.75 12.63 17.08 25.62 22 40.52.59 1.8 1.08 4.2 3.63 3.28 2.8-1 1-3.25.56-4.88a183.6 183.6 0 0 1 -4.74-19.84z"/><path d="m37.28 211.1c0-6.11-1.35-8.29-5.16-8.3s-7 4.29-7.09 9.23c-.08 5.41 2.32 8.29 6.86 8.26 4.19-.04 5.39-2.08 5.39-9.19z"/><path d="m40.69 268.42c-6.08-33 6.68-56.74 31.62-75.36-6.57-.8-10.66 1.71-13.29 7.48a30.12 30.12 0 0 1 -11.49 13.55c-3.82 2.31-5.42 5-5.81 8.89-.32 3.2-1.46 6.08-2.4 9.07-2.13 6.77-5.7 13-6.57 20.28-.52 4.35 2.53 12.61 7.94 16.09z"/><path d="m410.32 402.73c-12.36-4.61-25.43-5.69-38.1-8.62-41.6-9.63-83.79-11.22-125.4-11.89a864.91 864.91 0 0 0 -106 6.83c-11.38 1.49-23 1.55-33.92 5.89-8.33 3.31-10.27 6.52-8.87 15.35.28 1.72.52 3.46.85 5.17 1.91 9.93 3.53 11.26 13.47 11a19.17 19.17 0 0 0 3-.19c15.34-2.77 30.79-4.39 46.33-5.68 18.21-1.51 36.44-2.52 54.68-3.49 30.14-1.62 60.19 2 90.31 2 5.07 0 10.14.32 15.21.55 11.09.52 21.41 5.39 32.38 6.34a214.21 214.21 0 0 1 45.23 9.11c5.8 1.81 6.72 1.14 8.77-4.75a35.74 35.74 0 0 1 2.8-5.56c2.55-4.61 4.34-9.35 4.32-14.87-.01-3.98-1.47-5.85-5.06-7.19z"/><path d="m27.57 248.39c.33-3.75-4.11-9.64-7.38-9.77-3.12.22-4.69 2.46-4.91 5.76-.32 4.91 3 10.19 6.32 9.93a6.16 6.16 0 0 0 5.97-5.92z"/><path d="m302.8 171.85c14.68 9.05 29.94 17.26 42.77 29.06 15.51 14.26 24 31.46 18.5 53.73-1.11 4.52-2.83 9-2.87 14.13 2.41 0 3.36-1.64 4.66-2.69 7.45-6 14.38-12.81 22.79-17.43 6.81-3.75 10-1.56 10.41 6.52.33 7.16.75 14.31 1.19 21.46.08 1.31-.55 3.32 1.07 3.68 2 .44 2.2-1.77 2.72-3.13a80.06 80.06 0 0 0 4.86-36.58 33.54 33.54 0 0 0 -1.4-6.64c-.74-2.39-1.66-3.79-4-.91-3.3 4.1-7.73 4.63-12.5 3-6.9-2.31-10.25-7.34-10.24-15.62 0-1.72.67-3.16-2.27-3.29-11.62-.55-19.62-10.29-18.61-22.15.11-1.35.89-3-.63-3.81s-2.29 1-3.24 1.81c-4.77 4.24-9 4-13.22-.88a17.12 17.12 0 0 1 -3.95-10c-.34-3.86-5.12-7.65-7.9-6.6-9.64 3.65-11.61 2.9-15.94-6-8.9 4.77-15.61.86-15.57-9.27 0-3.17-.7-3.21-3.16-2-6 3-8.16 1.76-9.43-5.37-.2-1.1-.28-2.28-1.46-2.43a19.18 19.18 0 0 1 -12.69-7.22c8.63 11.32 18.24 21.32 30.11 28.63z"/><path d="m464.25 287.36c-7.68 4.88-15 10.24-16.69 20.52-.53 3.15.25 8.14-4.47 8.12-4.41 0-3.63-4.79-4.17-7.8-.7-3.92-2.81-4.91-6.17-4.07a12.12 12.12 0 0 0 -6.52 3.8 71.11 71.11 0 0 0 -10.91 16.33c-1.06 2.26-2.37 4.55-1.34 7.8 4.18-4.33 8.39-7.56 14-4 4.57 2.84 5.3 6.7 3.08 15.49-.86 3.38-1.88 6.72-2.82 10.08-.44 1.57 0 2.78 1.54 3.36s2.14-.52 2.7-1.66 1.25-2.48 1.83-3.74a452.7 452.7 0 0 1 26.52-48.9c4.44-7.12 10.2-13.37 15.36-20l-.49-.64c-3.8 1.71-7.9 3.05-11.45 5.31z"/><path d="m421.49 382.76a96.63 96.63 0 0 0 -15-4.77c-47.91-11.4-96.58-15.82-145.62-16.44-23.37-.29-46.72 0-70.06 1.71-26.06 1.87-51.9 5.16-77.4 10.94a149.75 149.75 0 0 0 -22 6.32c-5.27 2.08-6.46 8.33-11.46 10.68-1.4.66.2 4.09 1.61 4 5-.23 10.65 2.06 15.06-1.54 5.81-4.75 12.41-7.07 19.43-8.42 17.82-3.44 35.9-5.11 53.89-6.83 39.14-3.76 78.43-4.85 117.7-2.16 9.47.65 18.94.5 28.4 1.33 22.85 2 45 8.56 67.64 11.56a138.1 138.1 0 0 1 33.78 9.35c6.09 2.47 12.14-.57 12.11-6.75a14.72 14.72 0 0 0 -8.08-8.98z"/><path d="m484.22 220c1.5-1.7.82-3.57.24-5.39a14 14 0 0 0 -3.11-5.29c-2.05-2.25-4.22-4.13-7.46-2.78-3.5 1.45-4.91 4.48-5.55 8.28.6 2.36.71 5.29 4.5 4.59 2.11-.39 4 .45 5.83 1.26s3.91 1.2 5.55-.67z"/><path d="m493 245.85c-3-4.44-6.52-4.9-11.14-1.45-3.73 2.79-3.79 4.76-.31 9.41.51.69.93 1.45 1.44 2.14 1.7 2.29 3.7 4.65 6.7 3.37s5.57-3.48 5-7.26a10.11 10.11 0 0 0 -1.69-6.21z"/><path d="m143 194.08c.45 5.16.21 10.15-3.87 14.06-5.15 4.92-9.83 5.09-15.34.46-.94-.78-1.89-2.83-3.24-1.2-1.21 1.45.65 2.35 1.51 3.31.23.26.53.44.76.69 10.45 11.49 7.4 26.26-7.08 32.24 6 5.14 13.34 7.12 19.93 10.45 2.28 1.15 2.07-1.5 2.26-2.9 1.2-8.69 2.69-17.35 6-25.45 5.52-13.68 12.26-26.62 25.26-34.42 8.34-5 17-9.39 25.41-14.3 10.33-6 18.87-14.32 26.75-23.49-4.69 3.94-11.58 3.49-15.54 8.87-1.74 2.37-4.48 2.76-7.41 2.28-6-1-10.46 1.93-12.16 7.63-2.07 6.94-8.25 9.26-13.34 5-3-2.5-9.53-.35-10.64 3.49-2.45 8.5-5.78 10.47-14.25 8.44-5.62-1.32-5.56-1.33-5.01 4.84z"/><path d="m229.93 252.06a109.81 109.81 0 0 1 16.74-21.48c2.2-2.15 1.43-3.88-.39-5.75-3.08-3.16-5.21-7.54-3.55-11.4 2.76-6.39 1.51-12.23 1.06-18.67-.48-6.83 3.7-13.59 2.67-20.89-.07-.44.33-1 .53-1.45 3.12-7.61 2.89-15.84 3.55-23.78.53-6.38 3.32-9.38 9.36-7.36 1.13.38 2.53 2.2 3.49.45s.79-4.11.27-6.15-2.21-1.67-3.75-1.44c-3.32.49-6.62 1.86-10 .5-3.22-1.29-3.44.15-3.51 3.15-.16 7.66 0 15.5-1.47 23-4.19 21.21-9.28 42.23-13.71 63.39-1.87 8.87-4.39 17.9-1.29 27.88z"/><path d="m218.48 167.93c-12.81 12-27.65 20.62-43 28.49-3.34 1.71-6.71 3.58-9.24 6.39-12.36 13.75-18.48 30.33-20 48.82a29.1 29.1 0 0 0 2.82 14.26c2.7 6 6.49 9.85 13.66 9.5 6.28-.31 11.39 2.53 14.62 8.56 4.73 8.83 5.28 18.29 4.21 28-.4 3.63-1.26 7.62-5 9.19-4.07 1.72-5.28-2.65-7.56-4.71s-4.51-4.7-7.4-3.56c-2.52 1-1.86 4.54-2.22 7.05-.19 1.38 0 2.81-.13 4.19-.62 5.21.59 9.23 5.86 11.27 2.05.79 4.32 2.4 3.95 4.94-1 6.6 3.77 6.89 7.57 7 9.06.29 18-1 25.47-6.95 3.82-3 6.83-2.81 10.23.64 4 4.08 9.2 4.89 14.62 4.56 2.65-.16 4.11-1.13 3.45-4.29-.53-2.57-.89-5.42.82-7.6 2-2.6 1.39-4.87-.1-7.17a47.62 47.62 0 0 1 -4-9c-1.22-3.17-2.81-7.73-6.58-6.5-4 1.29-2.42 5.82-1.6 9.2.68 2.78 2.75 5.86-.57 8.05-3.06 2-5.87 0-8.43-1.7a15.26 15.26 0 0 1 -2.9-2.89c-8.79-10.27-9.56-22.36-7.08-35 2-10.4 9.7-17.33 20-17.63 4.81-.14 4.92-1.83 4.21-6.05-1.7-10.11-4.24-20.19-2.3-30.66 3.81-20.61 7.91-41.14 13.08-61.45a91.71 91.71 0 0 0 3.21-26.26c-7.58 7.23-12.9 14.95-19.67 21.31z"/><path d="m247.78 96c1.54 6.38 2.75 12.86 4.11 19.29h1.41c-1.81-7.92 0-15.29 2.58-22.57 2.33-6.6 7.13-10.62 13.15-13 7.86-3.09 16.4 3 16.81 11.55.08 1.66-.13 3.23-1.82 3.94s-3-.25-3.87-1.63a24.24 24.24 0 0 1 -1.35-2.81c-2.47-5.06-5.65-5.91-10.23-2.73-7.2 5-10.95 18.41-7.52 26.9.94-1 .61-2.31.61-3.46 0-5.12.37-10.17 2.49-14.87 2.79-6.19 7.74-6.83 11.84-1.48a25.36 25.36 0 0 1 2.78 5c1 2.16 2.15 2.6 3.79.81 4.51-4.9 8.17-10.27 8.76-17.29a10.33 10.33 0 0 0 -4.95-10.22c-3.63-2.24-7.5-2.86-11.5-.32s-6 1.4-6-3.51c.18-13.08-5.85-23.78-12-34.49-1.25-2.18-2.71-2.71-4.18-.28-5.15 8.48-9.58 17.31-11.91 27.11-.74 3.12.17 5 3.57 5.43 5.38.7 10.69 1.66 16-.69 1.83-.82 4.24-1.47 5.38 1s-1.25 3.7-2.76 4.92a12.75 12.75 0 0 1 -9.46 3.08c-4.21-.41-8.44-1.61-12.58-1.31-4.31.31-7.94.19-11.79-2.39-2.63-1.76-5.89-.73-7.6 2.85a29.73 29.73 0 0 0 -1.54 22.9c.38 1.14.67 2.52 2 2.78 1.16.22 1.27-1 1.41-1.78.24-1.37 1.66-3-.69-3.94-4-1.57-2.94-4.64-1.82-7.41 2.29-5.66 9-8.08 15.12-5.54 6.36 2.56 10.15 7.54 11.76 14.16z"/><path d="m53.31 193c4.39-.18 10.26-6.09 10.14-10.21-.08-2.64-1.71-3.11-3.78-3.09-4.15 0-10 5.83-9.84 9.81.09 2.16 1.07 3.54 3.48 3.49z"/><path d="m263.68 153.79c.25 4.43 3.56 7.93 2.87 12.62-1 6.57 2.73 13.2-.05 19.87-.26.64.71 1.88 1.19 2.8 2.32 4.47 2.71 9 .28 13.53-1 1.86-1.18 3.22.1 5.2 4.45 6.9 3.5 12.65-2.66 17.88-1.68 1.42-3.54 2.59-5.59 4.07 6.92 7.41 13.38 14.9 19 24.24 7.28-38.42-4.26-72.71-13.91-108.13-1.72 3.13-1.37 5.43-1.23 7.92z"/><path d="m48 243.29a82.37 82.37 0 0 0 .35 22c1 7.78 3.61 14.77 9.38 20.25 2.59 2.45 4.37 5.52 3.73 9.32-.59 3.5.08 3.88 3.33 2.6 5.43-2.14 11.14-3.46 16.59.19 10.45 7 17.79 27.36 14.4 39.77-.64 2.35-1.86 4.21-4.32 4.63s-4.22-1.21-5.29-3.28a24.62 24.62 0 0 1 -1.52-5c-.69-2.61-1.42-5.17-4.41-7.29a177.9 177.9 0 0 0 4.23 18.52c1.16 4.49 2.94 6.84 7.82 7.05 5.57.23 8.41 4 7.83 8.79-.14 1.21-1.72 2.64.29 3.58a3.46 3.46 0 0 0 4.17-1c2.51-2.59 5.29-5 7.51-7.8 2.33-3 4.79-3.59 8-1.9 4.62 2.46 9.35 2.76 15 .55-3.75-3.46-7.79-6.67-3.93-11.67 2-2.58 1.57-3.88-.2-6.14s-2.79-5.17-4.25-7.72a46.83 46.83 0 0 0 -3.68-5.62 3 3 0 0 0 -3.65-1.08c-1.63.75-1.25 2.27-1 3.65.29 1.73.68 3.44.88 5.18.29 2.38-.05 4.68-2.35 5.88-2.5 1.32-4.82.32-6.29-1.79-6.62-9.52-13.41-19-16.81-30.36-1.3-4.38-.59-8.66 2.76-11.58 3.17-2.78 2.67-5 1.27-8.54-7.59-19.13-8.85-38.34.82-57.25 2-3.85 4.6-7.36 6.54-11.23 3.92-7.8 10.73-13.59 13.13-22.62 1.63-6.12 6.49-11.58 13.3-11.23 6.61.34 7.59-3.62 9.3-8.56a18.33 18.33 0 0 0 -8.73 2.15c-4.73 2.41-9.78 3.85-14.75 5.6-11.34 4-23.27 6.48-33.64 13.12-18.05 11.54-32.69 25.66-35.81 48.83z"/><path d="m130.61 204.47c2.67.64 5.84-3.54 5.89-7.68-.67-2.73-.66-6.46-4.7-7.3-2.33-.48-8.21 5.21-7.39 7.43 1.13 3.08 2.59 6.67 6.2 7.55z"/><path d="m92.76 180.71c19.69-4.39 38-12.77 57.18-18.53-20.42 1.82-38.17 12.44-57.18 18.53z"/><path d="m118.26 163.21c4 .85 5.15-2.18 5.83-6.06.09-2.18-.67-4.47-3.62-4.65-3.83-.23-6.52 1.8-7.27 5.71s2.66 4.49 5.06 5z"/><path d="m502.28 249c-1.54-7.59-9.3-16.93-19.11-15-1.95.38-3.38-.24-3.68-2.48-.34-2.5 1.57-2.16 3-2.5 4.77-1.13 8.74-3.49 9.66-8.82 1.24-7.24-2.06-12.89-6.94-17.66s-10.17-5.08-15.89-1.9c-2.27 1.26-4.52 2.8-6.73-.12s.71-4.34 1.93-6.13c4.33-6.34 4.77-13.09 1-18.05a14.9 14.9 0 0 0 -23.8-.17c-1.61 2.14-2.76 3.78-5.7 2s-2-3.61-.83-6c3.61-7.62-1.49-15.78-9.78-15.38-5 .25-9.75 1.9-12.35 6.95-1 1.87-1.83 2.65-3.93 1.75-2.59-1.13-1.32-2.47-.66-4.12 2.72-6.82-.46-12.27-7.57-13.18-6.6-.83-10.88 1.73-13.81 8.17-.66 1.44-.59 4.06-2.94 3.53-2.8-.62-1.23-3.09-1.28-4.83 0-.35.05-.7.06-1.05.1-4.81-1.39-8.61-6.2-10.24a10.3 10.3 0 0 0 -12 4.45 37.45 37.45 0 0 0 -2.32 4.66c-.7 1.59-1.74 2.64-3.51 2.4-2.37-.32-1.63-2.14-1.57-3.66a8.72 8.72 0 0 0 -6.17-9.19c-4.12-1.5-7.22.42-9.54 3.95-.38.58-.68 1.22-1.05 1.8-.57.9-1.21 1.75-2.39 1.64s-1.43-1.19-1.79-2.2c-2.65-7.46-7.83-9.16-14.05-4.36-1.79 1.38-2.42 1.38-4-.3-4.28-4.6-8.5-4.6-13.23-.09-1.56 1.48-2.95 2.1-5 1.52-8-2.29-16.1-4-23.62-7.92-3.78-2-5.33-3.81-3.11-8 1.74-3.3 1.22-7-1.63-9-4.53-3.28-4.06-7.66-3.66-12.18.22-2.53-.15-6.61 2.2-6.92 2.91-.39 2.7 3.72 3.43 6.05 1.6 5.12 4.64 6.35 8.66 2.87a60.16 60.16 0 0 0 9.21-9.73 32.69 32.69 0 0 0 4.64-9.86c4-13.31-3-23.51-16.46-24.38-1.84-.12-4 .86-4.7-2.42a107.43 107.43 0 0 0 -14.73-34.33c-3.33-5.23-6.65-5.68-10.3-.69-7.44 10.14-13.24 21.19-15.6 33.81-.57 3.09-1.11 4.2-4.45 3.15-5.38-1.71-10.38-.28-13.29 4.88-6 10.61-6.9 21.85-2.16 33.24 1.52 3.66 4.33 6.46 8.55 6.46 4 0 5.87-2.92 7-6.52.41-1.38.76-2.91 2.71-1.56 5.18 3.59 7.21 14.36 3.55 19.9-1.64 2.49-2 4.72-.15 7.18 1.08 1.43 2.12 3 .43 4.63-6.57 6.33-14.91 8-23.35 8.52-2.35.16-4.89-2-7.73-.86s-3.38 4-4.52 6.61c-5.94-6.82-13.3-6.56-16.32.26-.78 1.76-.95 3.8-3.52 3.64-2.22-.13-2.54-1.94-3.12-3.58-1.61-4.56-5.14-5.91-9.35-5.39-4.49.55-8.19 2.39-8.79 7.83-.16 1.42.52 3.6-1.7 3.77s-1.77-2.11-2.24-3.47c-1.69-4.83-5.4-6.88-11-6.05-7.26 1.08-10.51 4-10.67 9.51 0 1.52.61 3.48-1.57 3.79-1.88.27-1.95-1.63-2.26-2.9-1.28-5.22-4-8.94-9.52-9.45s-11.58 3.65-13.73 9a18 18 0 0 0 -1.31 9.74c.43 2.59-1.59 3.25-3.38 3.81-2.57.8-2.12-1.52-2.44-2.85-.82-3.31-2.71-5.77-5.79-6.8-6.44-2.17-12-.28-16.71 4.58-4.13 4.27-4.64 8.06-1.49 14.7 1.68 3.54-1.32 4-2.79 5-2.73 1.83-2.46-1.16-2.87-2.55-1.1-3.63-3.23-6.12-6.82-7.1-9.88-2.81-21.86 8.19-20.41 18.73a11.12 11.12 0 0 0 3.17 6.46c4.2 4.29 4.13 4.69-1.51 8.85-1-3.25-2.25-6.23-5-8.23-4.49-3.26-10.1-3.6-14.29-.73-5.47 3.75-8.23 11.22-6.85 18.51 1.12 5.85 4.64 9.53 9.9 10.59 1.52.31 3.9-.79 4.35 1.53s-.82 4.61-2.23 6.24c-2 2.29-3.19-.65-4.58-1.45a11.73 11.73 0 0 0 -17.43 9.46c-.68 7.56 1.85 13.75 8.58 18.08-4.28 2.06-4.24 5.25-2.58 8.77 1.25 2.68 2.64 5.29 4 7.92 5.75 11.24 13.63 20.83 21.93 30.08s13.4 20.13 19.4 30.67c4.35 7.64 8.14 15.26 7.82 24.51-.16 4.94 1.77 8.61 7 10.08 4.36 1.22 5.18 7.72 1.7 10.89-4.19 3.81-5.25 8.23-3.16 13.09 2.19 5.06 6 7.59 11.46 6.44 4-.85 5 .52 5.41 4.29a89.37 89.37 0 0 0 3.27 17c1.69 5.13 3.21 9.29.85 15.14-2.24 5.58 1.47 11.06 6 15.1 8.73 7.81 19.79 8.7 30.37 10.66 18 3.35 36.31 4.13 54.55 5.52 31.06 2.37 62.18 3.65 93.29 4.75a737.54 737.54 0 0 0 75.67-.91c19.87-1.34 39.3-4.76 57.72-13 10.25-4.6 12.73-15.25 5-23.25-2.89-3-2.75-5.35-.84-8.71 3.5-6.19 7-12.48 5.74-20.2-.43-2.65 1.77-2.95 3.53-3.58 12.54-4.46 15-13.43 6.53-23.82-2.57-3.16-3.17-6 .76-8.76 2.75-1.9 5.24-4.87 5.11-8.12-.31-8.38 4.66-14.42 7.78-21.25a266 266 0 0 1 20.68-37.29c6.05-9.07 13.57-17 21.14-24.75 2.17-2.23 4.42-4.81 2.7-8.3-1.6-3.23-4.72-2.85-7.64-2.64-1.1.08-2.51 1-3.21-.45a4.25 4.25 0 0 1 .49-4c1.09-1.72 2.43-.31 3.55.19 5.19 2.3 9.57.84 13.55-2.87 4.32-4.17 6.61-8.94 5.37-15.05zm-49.42-71.43c4.39.06 7.88 2.82 8 6.28.08 4.1-3.33 8.33-6.75 8.35s-7.76-4.57-7.64-9c.06-4 2.63-5.72 6.39-5.67zm-78.13-12.65c7.62 2.64 15.43 3.67 23.32 4.28 3 .23 5.55 1.63 8.09 2.89 10.32 5.1 21.44 8.45 31.05 15.1 9.2 6.35 16.34 14.93 23.66 23.32 1.09 1.24 1.1 2.89 1.34 4.44a14.06 14.06 0 0 0 4.11 8.25c4.72 4.41 6.6 10.24 6.78 16.42a154.59 154.59 0 0 1 -2.17 30.75c-1.36 7.95-2.59 9-11.8 11.06 2.43-7.46 2.69-14.91 3.53-22.29 2.15-18.93-1.65-36.12-12.83-51.45-2.1-2.88-5-4.7-7.88-6.47-8.17-5-16.38-9.86-24.46-15a35.7 35.7 0 0 0 -8.85-3.89c-16.26-4.92-31.24-13.22-47.07-19.64 4.45.69 9.02.75 13.18 2.19zm-.65 12.81c8.26 3.62 16.37 7.7 25.06 10.09 15.23 4.18 28 13.46 40.54 22.37 10.72 7.62 14.57 20.57 15.09 34.1a125.32 125.32 0 0 1 -6.17 45.37c-1 2.87-3.26 5.26-5 7.85-.7 1.06-1.66 1-2.7.55-8.58-3.71-15.05 0-20.72 6.37a42.19 42.19 0 0 0 -2.7 3.82l-1.78-.68c2.23-8.14 0-15-5.08-21-1.79-2.13-.87-4.34 0-6.4 4.88-11.47 6.21-23.47 5.87-35.9-.41-15-7.4-26.6-16.74-37.12-1.42-1.61-3.57-2.62-5.52-3.62a6.7 6.7 0 0 1 -3.79-3.94c-3.56-10.78-11.8-14.77-21.92-15.5-2.81-.2-4.55-.52-5.87-3.49-3.16-7.11-10.4-6.71-16.25-7.86-4.85-1-7.72-2.84-9.18-8.36 12.65 4.28 24.98 8.09 36.86 13.31zm-230.75 142c.14 1.69.91 3.36-.06 5.64-3.21-5.79-5-11.74-7-17.56-5.64-16.49-11.07-33.05-16.53-49.6-.4-1.22-1.63-2.79-.12-3.76.73-.47 2.29.09 3.33.54 9.53 4 16.62 9.71 20.26 20.89 2.42 7.45 3 13.36.43 20.49-2.82 7.55-.95 15.54-.31 23.34zm-17.84-26.33c-4.32-2.35-8-4.92-12.2-6.68-1.2-.51-1.61-1.68-2-2.86-1.62-4.67-1.6-21.66.47-28.59 4.82 13.41 9.24 25.73 13.73 38.13zm-12.73-57.58c-4.64-.84-7.07-6.09-4.9-10.71a13 13 0 0 1 2.19-3.48c2-2.08 2.13-6.28 5.93-6.26 2.14 0 6.32 7.38 6.39 10.62.11 4.94-5.37 10.59-9.61 9.83zm-5.68 8.36c-2 6.17-2.58 12.62-3.39 19a80.59 80.59 0 0 0 -.08 15.14c-4.64-11.82-5.22-24-3.07-36.43.26-1.47.27-4.36 2.65-3.32 1.93.87 5.12 1.78 3.89 5.61zm-5.63 52.48c3.54-3.32 7.61-4.84 12.06-2.43a35.17 35.17 0 0 1 13.89 14.1c4.45 8 8.44 16.29 12.61 24.46.51 1 1.82 2.19.37 3.15s-2-.82-2.8-1.57c-2.6-2.39-3.93-5.64-5.33-8.8a20 20 0 0 0 -6.15-8.18c-6-4.55-10.88-2.68-15.09 6a52.38 52.38 0 0 1 -10.16-17.17c-1.2-3.34-2.6-6.56.6-9.56zm42 56.84c.32-1.55 2.09-1.56 3.32-2.07 7.29-3.05 14-3.52 21.7.4 12.2 6.23 24.11 2.11 35.08-4.74 2.55-1.59 4-2 6.54 0 6.72 5.35 14.62 7.38 22.41 3.63a24.63 24.63 0 0 1 15.11-2c1.84.27 3.86 1.05 5.52.55 12.57-3.75 24.15 4.73 36.53 2.95a45.58 45.58 0 0 0 15.48-4.8c1.8-1 3.34-1.77 5.48 0 9.11 7.68 19.5 10.11 30.9 6.93a15.54 15.54 0 0 1 11.34.9 1.55 1.55 0 0 0 .47.19c10.69.39 19.79 6.87 30.17 8.47a22.26 22.26 0 0 0 8.57 0c3.35-.8 5 .78 5.89 4.83-86.64-17.15-173.29-18.54-260.64-7 2.55-2.43 5.38-4.53 6.15-8.24zm8.19-20.81c-2.4-15.13-4.91-28.87.54-42.58 1.68-4.22 3.65-8 8.7-8.35 5.38-.37 9.73 2.38 12 7.69 2.82 6.42 2.73 13.28 2.49 20.11-.09 2.54-1.29 2.49-2.89 1a19.19 19.19 0 0 0 -7.4-4.43c-6.21-1.89-9.74.12-11.4 6.63-1.05 4.12-.69 8.34-.86 12.53-.01 2.05.67 4.16-1.16 7.4zm104-123.6c4.2.1 7.91 3.08 7.85 6.09-.05 2.73-5 7-7.93 6.87-3.07-.2-6.81-4.47-6.41-7.61.5-3.97 2.98-5.6 6.48-5.35zm-5.57-14.86c.07-3 .86-5.63 4.45-5.79a7.17 7.17 0 0 1 7.62 7.26c0 3.55-1.88 4.9-5.13 4.93-4.31.05-7.01-2.29-6.95-6.4zm1 41.2c1.72-1.93 3.14-1.36 4.7.25a127.67 127.67 0 0 1 18.3 24.32c3.33 5.64 2 9.88-2.6 14.7-5.42 5.7-10.13 12-12.8 19.8-1.53-15-1.74-29.75-2-44.52a72.76 72.76 0 0 0 -.6-8.35c-.25-1.88-.68-4.29-2.87-4.44-2.45-.17-2.55 2.45-2.91 4.22a37.23 37.23 0 0 0 -.54 6.25c-.52 23.47 1.88 46.78 3.47 70.14a53.49 53.49 0 0 1 .07 7.39c-2.46-10.12-4.86-20.25-9.1-29.76-.91-2.06-1.36-4.45-2.62-6.22-4.81-6.75-5.3-14.82-6.82-22.57a17.74 17.74 0 0 1 1.41-10.75c3.53-7.95 9.27-14.15 14.84-20.46zm96.2 79.4c-2.78-9.81-8.15-12.72-18.39-9.24 2-8.38 5.13-15.38 10.2-21.07 5.66-6.35 17.34-2.41 19.91 6.55a61.76 61.76 0 0 1 .23 33.68 49.74 49.74 0 0 0 -1.41 6.12c-.41 2.92-1.61 4.46-4.7 4-2.83-.44-4.86-1.5-4.79-4.9.06-2.28 0-4.56 0-6.83a26.89 26.89 0 0 0 -1.08-8.31zm8.91-61.34c-1.19 5.45-2.65 10.84-4.23 16.17-.64 2.14-1.72 4.35-4.43 4.46-12.43.48-17.53 9.94-22.18 19.65-3 6.19-4.59 12.84-3.27 19.85.63 3.36 1.73 6.67 5.8 6.88s5.4-2.84 6.14-6.33c.28-1.32.2-3.08 1.84-3.41 1.92-.39 2.49 1.53 3.29 2.76 3.91 6 3 17.21-1.69 23.05a11.17 11.17 0 0 0 -2.32 8.37c.45 3.46-1.23 4-3.73 3.81-6.53-.44-12.83-1.65-17.28-7.28-2.65-3.37-5.56-3.51-8.94-1.43-6.41 3.95-13.46 5.52-20.82 6.08a17.72 17.72 0 0 1 -6-.76c-1.79-.48-2.75-1.44-1.55-3.39 2.39-3.9.41-6.75-2.35-9.08-2.19-1.86-2.59-3.63-1.56-6.35 2-5.36 3.52-11 5.69-16.27 1.62-3.95 3.31-3.89 5.63-.3a58.4 58.4 0 0 1 5.52 11.75c2.19 5.93 5.63 6.57 9.95 2.23 11-11.06 11.22-31.32.75-43.12-3.67-4.13-6.8-8.6-12.58-10-2.82-.67-1.64-3.43-1.42-5.37 1.49-13.2 3-26.43 2.78-39.72-.18-12.41-.92-24.77-4.62-36.8-2.7-8.77-4.61-17.81-6.88-26.72l1.13-.79c15.06 18.49 37.33 26.27 55.27 40.49 10.32 8.18 18.85 17.51 22.43 30.78 1.86 6.94 1.1 13.92-.4 20.79zm-65 27.15c7.79 6.62 10.11 15.38 10.33 25.27a23.49 23.49 0 0 1 -.93 4.56c-.9 2.2-1.62 5.2-4.24 5.38-2.14.15-1.86-2.94-2.94-4.41-1.94-2.65-3.47-5.65-5.64-8.06-4.43-4.9-10-4.43-13.81 1-4.1 5.8-5.31 12.79-7.31 19.45-.62 2.06-.49 4.95-3.72 4.62-3.44-.36-3.21-3.33-2.95-5.64 1.75-15.16 3.58-30.33 15-41.8 5.18-5.19 10.61-5.13 16.21-.37zm-45.45 42.43c.48 2.22 1.38 4.67-1.93 5.37-2.51.54-4.25.13-5.64-2.79-2.68-5.59-4.16-11.76-7.95-16.84-2.75-3.68-5.74-6.77-10.47-5.95-5 .87-6.93 5.11-8.27 9.61-.29 1-.48 2-.85 3.57-6.79-7-5.72-26.22-1.68-31.75 6.75-9.23 18.54-7.5 24.26 3.56a141.63 141.63 0 0 1 12.53 35.22zm145.27-38.87c-4.66 3.21-8.32 7.51-12.28 11.51 4.19-10.71 9.38-20.77 14.13-31.28.3 4.43.79 8.86.84 13.3.01 2.39-.49 4.95-2.69 6.47zm12.1 5.3c3.83 1.58 6.37 6.77 6.26 12.78-.34 7.45-1.72 14.58-6.41 20.58-1.19 1.52-2.67 3.62-3.73 0-2.95-10-13.78-11.54-21.38-2.79a48.44 48.44 0 0 0 -9.06 15.07c-.39 1.07-.55 2.7-2.24 2.13-1.54-.51-1.2-2-.91-3.13a18.49 18.49 0 0 1 1.56-4.41c6.89-12.41 13.22-25.2 22.7-35.87 3.65-4.11 9.11-6.04 13.2-4.36zm-33.55 11.05-1.37-.09c-1-6.91-2.43-13.62-6.07-19.62-1.16-1.91.85-3.58 2.23-4.81a303.13 303.13 0 0 1 23.57-19.37zm24 56.17c-5.06 1.38-10.09.5-15.09-.46-2.73-.53-4.09-1.8-2.1-4.65 2.12-3 1.69-6-.5-8.66-2-2.45-1.64-4.46-.17-7.05 2.4-4.23 4.62-8.56 8-12 1.77-1.8 3.87-2.94 6.44-1.94 2.28.88 2.58 3 2.82 5.15a24.28 24.28 0 0 0 .6 3.61c1.5 5.39 4.68 6.5 9.05 3.22.78-.59 1.55-1.21 2.8-2.18a45.07 45.07 0 0 0 1.1 5.43c1.84 5.23 6.58 6.31 10.36 2.37 1.31-1.37 2.41-2.93 3.6-4.42 1.05-1.31 2.27-2.23 3.94-1.27a3.47 3.47 0 0 1 1.6 4.06c-.68 3.07-1.4 6.12-2.19 9.16-1.07 4.14-2.72 7.2-7.79 7.35a9.27 9.27 0 0 0 -8.91 6.66c-.38 1.14-.35 2.58-2.07 2.35a2.81 2.81 0 0 1 -2.57-2.22c-1.08-5.56-4.63-5.67-8.89-4.51zm.87-127c-3.81 0-7.5-4-7.24-8 .22-3.57 1.89-6 5.74-5.87 5.28.1 6.46 1.41 6.23 7.18.05 3.24.06 6.73-4.7 6.71zm-14.42-27.22c1.33 2.85-.15 5.17-1.78 7.09-1.81 2.13-3.74.31-5.43-.64-4-2.28-5.93-6.31-6.5-10.64-.68-5.19 4.3-4.81 7-5.38 2.13-.44 6 .24 5.19 4.68-.57 2.06.76 3.39 1.52 4.89zm-94.55-52c1.18.15 1.26 1.33 1.46 2.43 1.27 7.13 3.43 8.42 9.43 5.37 2.46-1.24 3.17-1.2 3.16 2 0 10.13 6.67 14 15.57 9.27 4.33 8.93 6.3 9.68 15.94 6 2.78-1 7.56 2.74 7.9 6.6a17.12 17.12 0 0 0 3.95 10c4.19 4.87 8.45 5.12 13.22.88 1-.85 1.6-2.71 3.24-1.81s.74 2.46.63 3.81c-1 11.86 7 21.6 18.61 22.15 2.94.13 2.27 1.57 2.27 3.29 0 8.28 3.34 13.31 10.24 15.62 4.77 1.6 9.2 1.07 12.5-3 2.32-2.88 3.24-1.48 4 .91a33.54 33.54 0 0 1 1.4 6.64 80.06 80.06 0 0 1 -4.97 36.52c-.52 1.36-.76 3.57-2.72 3.13-1.62-.36-1-2.37-1.07-3.68-.44-7.15-.86-14.3-1.19-21.46-.39-8.08-3.6-10.27-10.41-6.52-8.41 4.62-15.34 11.42-22.79 17.43-1.3 1.05-2.25 2.67-4.66 2.69 0-5.16 1.76-9.61 2.87-14.13 5.48-22.27-3-39.47-18.5-53.73-12.83-11.8-28.09-20-42.77-29.06-11.87-7.31-21.48-17.31-30.09-28.6a19.18 19.18 0 0 0 12.73 7.22zm-6.61 103.5c-5.64-9.34-12.1-16.83-19-24.24 2.05-1.48 3.91-2.65 5.59-4.07 6.16-5.23 7.11-11 2.66-17.88-1.28-2-1.1-3.34-.1-5.2 2.43-4.52 2-9.06-.28-13.53-.48-.92-1.45-2.16-1.19-2.8 2.78-6.67-.92-13.3.05-19.87.69-4.69-2.62-8.19-2.87-12.62-.14-2.49-.49-4.79 1.25-7.92 9.63 35.42 21.17 69.71 13.89 108.13zm-42.74-172.2c-6.12-2.54-12.83-.12-15.12 5.54-1.12 2.77-2.14 5.84 1.82 7.41 2.35.92.93 2.57.69 3.94-.14.79-.25 2-1.41 1.78-1.34-.26-1.63-1.64-2-2.78a29.73 29.73 0 0 1 1.54-22.9c1.71-3.58 5-4.61 7.6-2.85 3.85 2.58 7.48 2.7 11.79 2.39 4.14-.3 8.37.9 12.58 1.31a12.75 12.75 0 0 0 9.41-3.08c1.51-1.22 3.94-2.36 2.76-4.92s-3.55-1.82-5.38-1c-5.29 2.35-10.6 1.39-16 .69-3.4-.45-4.31-2.31-3.57-5.43 2.33-9.8 6.76-18.63 11.91-27.11 1.47-2.43 2.93-1.9 4.18.28 6.1 10.71 12.13 21.41 12 34.49-.07 4.91 2 6 6 3.51s7.87-1.92 11.5.32a10.33 10.33 0 0 1 4.95 10.22c-.59 7-4.25 12.39-8.76 17.29-1.64 1.79-2.82 1.35-3.79-.81a25.36 25.36 0 0 0 -2.78-5c-4.1-5.35-9.05-4.71-11.84 1.48-2.12 4.7-2.52 9.75-2.49 14.87 0 1.15.33 2.43-.61 3.46-3.43-8.49.32-21.9 7.52-26.9 4.58-3.18 7.76-2.33 10.23 2.73a24.24 24.24 0 0 0 1.35 2.81c.91 1.38 2.14 2.36 3.87 1.63s1.9-2.28 1.82-3.94c-.41-8.58-8.95-14.64-16.81-11.55-6 2.37-10.82 6.39-13.15 13-2.57 7.28-4.39 14.65-2.58 22.57h-1.41c-1.36-6.43-2.57-12.91-4.11-19.29-1.64-6.58-5.43-11.56-11.71-14.16zm8.83 78.94c1.48-7.45 1.31-15.29 1.47-23 .07-3 .29-4.44 3.51-3.15 3.38 1.36 6.68 0 10-.5 1.54-.23 3.21-.68 3.75 1.44s.72 4.35-.27 6.15-2.36-.07-3.49-.45c-6-2-8.83 1-9.36 7.36-.66 7.94-.43 16.17-3.55 23.78-.2.48-.6 1-.53 1.45 1 7.3-3.15 14.06-2.67 20.89.45 6.44 1.7 12.28-1.06 18.67-1.66 3.86.47 8.24 3.55 11.4 1.82 1.87 2.59 3.6.39 5.75a109.81 109.81 0 0 0 -16.74 21.48c-3.1-10-.58-19 1.29-27.93 4.43-21.08 9.52-42.08 13.71-63.34zm-6.77-14.16a91.71 91.71 0 0 1 -3.16 26.26c-5.17 20.31-9.27 40.84-13.08 61.45-1.94 10.47.6 20.55 2.3 30.66.71 4.22.6 5.91-4.21 6.05-10.26.3-17.93 7.23-20 17.63-2.48 12.65-1.71 24.74 7.08 35a15.26 15.26 0 0 0 2.9 2.89c2.56 1.72 5.37 3.72 8.43 1.7 3.32-2.19 1.25-5.27.57-8.05-.82-3.38-2.37-7.91 1.6-9.2 3.77-1.23 5.36 3.33 6.58 6.5a47.62 47.62 0 0 0 4 9c1.49 2.3 2.12 4.57.1 7.17-1.71 2.18-1.35 5-.82 7.6.66 3.16-.8 4.13-3.45 4.29-5.42.33-10.61-.48-14.62-4.56-3.4-3.45-6.41-3.65-10.23-.64-7.49 5.93-16.41 7.24-25.47 6.95-3.8-.12-8.54-.41-7.57-7 .37-2.54-1.9-4.15-3.95-4.94-5.27-2-6.48-6.06-5.86-11.27.17-1.38-.06-2.81.13-4.19.36-2.51-.3-6.06 2.22-7.05 2.89-1.14 5.25 1.62 7.4 3.56s3.49 6.43 7.56 4.71c3.69-1.57 4.55-5.56 5-9.19 1.07-9.68.52-19.14-4.21-28-3.23-6-8.34-8.87-14.62-8.56-7.17.35-11-3.52-13.66-9.5a29.1 29.1 0 0 1 -2.82-14.26c1.48-18.49 7.6-35.07 20-48.82 2.53-2.81 5.9-4.68 9.24-6.39 15.35-7.87 30.19-16.47 43-28.49 6.71-6.32 12.03-14.04 19.62-21.31zm-75.95 34.23c1.11-3.84 7.65-6 10.64-3.49 5.09 4.25 11.27 1.93 13.34-5 1.7-5.7 6.17-8.61 12.16-7.63 2.93.48 5.67.09 7.41-2.28 4-5.38 10.85-4.93 15.54-8.87-7.88 9.16-16.42 17.46-26.75 23.46-8.39 4.91-17.07 9.31-25.41 14.3-13 7.8-19.74 20.74-25.26 34.42-3.28 8.1-4.77 16.76-6 25.45-.19 1.4 0 4.05-2.26 2.9-6.59-3.33-13.91-5.31-19.93-10.45 14.48-6 17.53-20.75 7.08-32.24-.23-.25-.53-.43-.76-.69-.86-1-2.72-1.86-1.51-3.31 1.35-1.63 2.3.42 3.24 1.2 5.51 4.63 10.19 4.46 15.34-.46 4.08-3.91 4.32-8.9 3.87-14.06-.53-6.17-.59-6.16 5-4.83 8.48 2.05 11.81.08 14.26-8.42zm-30.41 8.68c4 .84 4 4.57 4.7 7.3-.05 4.14-3.22 8.32-5.89 7.68-3.66-.88-5.07-4.45-6.2-7.55-.82-2.22 5.06-7.92 7.39-7.43zm-18.6-31.28c.75-3.91 3.44-5.94 7.27-5.71 3 .18 3.71 2.47 3.62 4.65-.68 3.88-1.86 6.91-5.83 6.06-2.4-.51-5.83-1-5.06-5zm36.74 4c-19.16 5.76-37.49 14.14-57.18 18.53 19.01-6.12 36.76-16.74 57.18-18.56zm-66.21 32.3c10.37-6.64 22.3-9.13 33.64-13.12 5-1.75 10-3.19 14.75-5.6a18.33 18.33 0 0 1 8.73-2.15c-1.71 4.94-2.69 8.9-9.3 8.56-6.81-.35-11.67 5.11-13.3 11.23-2.4 9-9.21 14.82-13.13 22.62-1.94 3.87-4.57 7.38-6.54 11.23-9.67 18.91-8.41 38.12-.82 57.25 1.4 3.53 1.9 5.76-1.27 8.54-3.35 2.92-4.06 7.2-2.76 11.58 3.4 11.4 10.19 20.84 16.81 30.36 1.47 2.11 3.79 3.11 6.29 1.79 2.3-1.2 2.64-3.5 2.35-5.88-.2-1.74-.59-3.45-.88-5.18-.23-1.38-.61-2.9 1-3.65a3 3 0 0 1 3.65 1.08 46.83 46.83 0 0 1 3.68 5.62c1.46 2.55 2.47 5.45 4.25 7.72s2.19 3.56.2 6.14c-3.86 5 .18 8.21 3.93 11.67-5.62 2.21-10.35 1.91-15-.55-3.18-1.69-5.64-1.11-8 1.9-2.22 2.84-5 5.21-7.51 7.8a3.46 3.46 0 0 1 -4.17 1c-2-.94-.43-2.37-.29-3.58.58-4.82-2.26-8.56-7.83-8.79-4.88-.21-6.66-2.56-7.82-7.05a177.9 177.9 0 0 1 -4.27-18.54c3 2.12 3.72 4.68 4.41 7.29a24.62 24.62 0 0 0 1.52 5c1.07 2.07 2.74 3.71 5.29 3.28s3.68-2.28 4.32-4.63c3.39-12.41-3.95-32.78-14.4-39.77-5.45-3.65-11.16-2.33-16.59-.19-3.25 1.28-3.92.9-3.33-2.6.64-3.8-1.14-6.87-3.73-9.32-5.69-5.57-8.3-12.57-9.3-20.32a82.37 82.37 0 0 1 -.35-22c3.16-23.13 17.8-37.25 35.77-48.77zm-24.06-14.86c2.07 0 3.7.45 3.78 3.09.12 4.12-5.75 10-10.14 10.21-2.41.1-3.39-1.28-3.48-3.49-.17-3.98 5.69-9.76 9.84-9.81zm-27.78 40.64c-4.54 0-6.94-2.85-6.86-8.26.07-4.94 3.37-9.24 7.09-9.23s5.17 2.19 5.16 8.3c0 7.11-1.2 9.15-5.39 9.19zm.86 32c.87-7.28 4.44-13.51 6.57-20.28.94-3 2.08-5.87 2.4-9.07.39-3.93 2-6.58 5.81-8.89a30.12 30.12 0 0 0 11.47-13.51c2.63-5.77 6.72-8.28 13.29-7.48-24.94 18.62-37.7 42.39-31.62 75.36-5.39-3.48-8.44-11.74-7.92-16.09zm-17.47-8c.22-3.3 1.79-5.54 4.91-5.76 3.27.13 7.71 6 7.38 9.77a6.16 6.16 0 0 1 -6 5.92c-3.34.35-6.57-4.93-6.29-9.84zm62.18 110c-2.55.92-3-1.48-3.63-3.28-5-14.9-13.28-27.89-22-40.52-5.1-7.35-11.31-13.89-17.19-20.64-4.9-5.63-8.43-12.1-12.31-19.33 12.88 3.33 20.44 12.93 29.52 20.21 1.49 1.2 2.21 2.46.28 4.24-3 2.77-1.6 5.25 1 7.38.93.76 2 1.39 2.86 2.18 5.83 5.1 5.67 4.89 11.71.65 3.18-2.24 7-2.75 10.4.06 3.83 3.13 6.08 7.45 8.28 11.79.45.9.92 2.05-.07 2.89-.75.63-1.57 0-2.36-.28-8.61-2.62-12.1.7-10.66 9.93a183.6 183.6 0 0 0 4.71 19.96c.47 1.63 2.26 3.87-.54 4.88zm332.69 97.27c-4.83-3.74-10.47-4.5-16.19-5.47-8.51-1.45-16.85-4.35-25.38-5.1-30.33-2.63-60.69-4.82-91.2-4.33-25.71.41-51.36-2.47-77.11-2.06-27.75.44-55.5.52-83.16 3.26a28.38 28.38 0 0 0 -13 4.12c-.93.6-1.86 2-3 .41a2.64 2.64 0 0 1 .32-3.4c2.67-2.86 5.23-5.77 9.57-6.22 20.52-2.13 41-5.15 61.59-6 29.57-1.27 59.08-3.89 88.76-1.82 11.74.82 23.57 1.56 35.47.93a115.66 115.66 0 0 1 30.81 2.09c20.53 4.59 41.56 5.92 62 11 6.46 1.62 12.61 4.67 19.81 3.25 3.11-.61 4.76 3.25 4.91 6.5-.1 3.46-.99 5.46-4.2 2.96zm.92-26.88a35.74 35.74 0 0 0 -2.8 5.56c-2 5.89-3 6.56-8.77 4.75a214.21 214.21 0 0 0 -45.23-8.99c-11-.95-21.29-5.82-32.38-6.34-5.07-.23-10.14-.55-15.21-.55-30.12 0-60.17-3.59-90.31-2-18.24 1-36.47 2-54.68 3.49-15.54 1.29-31 2.91-46.33 5.68a19.17 19.17 0 0 1 -3 .19c-9.94.22-11.56-1.11-13.47-11-.33-1.71-.57-3.45-.85-5.17-1.4-8.83.54-12 8.87-15.35 10.94-4.34 22.54-4.4 33.92-5.89a864.91 864.91 0 0 1 106-6.83c41.61.67 83.8 2.26 125.4 11.89 12.67 2.93 25.74 4 38.1 8.62 3.59 1.34 5.05 3.21 5.07 7.2.01 5.51-1.78 10.25-4.33 14.86zm6.37-26.28a138.1 138.1 0 0 0 -33.78-9.35c-22.69-3-44.79-9.54-67.64-11.56-9.46-.83-18.93-.68-28.4-1.33-39.27-2.69-78.56-1.6-117.7 2.16-18 1.72-36.07 3.39-53.89 6.83-7 1.35-13.62 3.67-19.43 8.42-4.41 3.6-10 1.31-15.06 1.54-1.41.06-3-3.37-1.61-4 5-2.35 6.19-8.6 11.46-10.68a149.75 149.75 0 0 1 22-6.32c25.5-5.78 51.34-9.07 77.4-10.94 23.34-1.67 46.69-2 70.06-1.71 49 .62 97.71 5 145.62 16.44a96.63 96.63 0 0 1 15 4.77 14.72 14.72 0 0 1 8.06 9c.05 6.33-6 9.33-12.09 6.85zm43.44-95.86a452.7 452.7 0 0 0 -26.52 48.9c-.58 1.26-1.22 2.5-1.83 3.74s-1.19 2.23-2.7 1.66-2-1.79-1.54-3.36c.94-3.36 2-6.7 2.82-10.08 2.22-8.79 1.49-12.65-3.08-15.49-5.66-3.53-9.87-.3-14 4-1-3.25.28-5.54 1.34-7.8a71.11 71.11 0 0 1 10.91-16.33 12.12 12.12 0 0 1 6.52-3.8c3.36-.84 5.47.15 6.17 4.07.54 3-.24 7.79 4.17 7.8 4.72 0 3.94-5 4.47-8.12 1.71-10.28 9-15.64 16.69-20.52 3.55-2.26 7.65-3.6 11.5-5.35l.49.64c-5.21 6.79-10.97 13.04-15.41 20.16zm12-83.25c-3.79.7-3.9-2.23-4.5-4.59.64-3.8 2.05-6.83 5.55-8.28 3.24-1.35 5.41.53 7.46 2.78a14 14 0 0 1 3.11 5.29c.58 1.82 1.26 3.69-.24 5.39-1.64 1.87-3.59 1.52-5.55.67s-3.71-1.55-5.87-1.14zm16.83 39.91c-3 1.28-5-1.08-6.7-3.37-.51-.69-.93-1.45-1.44-2.14-3.48-4.65-3.42-6.62.31-9.41 4.62-3.45 8.14-3 11.14 1.45a10.11 10.11 0 0 1 1.69 6.21c.53 3.9-2.03 6.06-5.04 7.38z"/></g><path d="m17.32 260.81c-6.73-4.33-9.26-10.52-8.58-18.08a11.73 11.73 0 0 1 17.43-9.46c1.39.8 2.62 3.74 4.58 1.45 1.41-1.63 2.66-4 2.23-6.24s-2.83-1.22-4.35-1.53c-5.26-1.06-8.78-4.74-9.9-10.59-1.38-7.29 1.38-14.76 6.85-18.51 4.19-2.87 9.8-2.53 14.29.73 2.77 2 4.05 5 5 8.23 5.64-4.16 5.71-4.56 1.51-8.85a11.12 11.12 0 0 1 -3.17-6.42c-1.43-10.54 10.55-21.54 20.49-18.86 3.59 1 5.72 3.47 6.82 7.1.41 1.39.14 4.38 2.87 2.55 1.47-1 4.47-1.41 2.79-5-3.15-6.64-2.64-10.43 1.49-14.7 4.68-4.86 10.27-6.75 16.71-4.58 3.08 1 5 3.49 5.79 6.8.32 1.33-.13 3.65 2.44 2.85 1.79-.56 3.81-1.22 3.38-3.81a17.89 17.89 0 0 1 1.31-9.74c2.15-5.4 8.31-9.56 13.73-9s8.24 4.23 9.52 9.45c.31 1.27.38 3.17 2.26 2.9 2.18-.31 1.52-2.27 1.57-3.79.16-5.56 3.41-8.43 10.67-9.51 5.59-.83 9.3 1.22 11 6.05.47 1.36 0 3.64 2.24 3.47s1.54-2.35 1.7-3.77c.6-5.44 4.3-7.28 8.79-7.83 4.21-.52 7.74.83 9.35 5.39.58 1.64.9 3.45 3.12 3.58 2.57.16 2.74-1.88 3.52-3.64 3-6.82 10.38-7.08 16.32-.26 1.14-2.58 1.73-5.45 4.52-6.61s5.38 1 7.73.86c8.44-.56 16.78-2.19 23.35-8.52 1.69-1.64.65-3.2-.43-4.63-1.86-2.46-1.49-4.69.15-7.18 3.66-5.54 1.63-16.31-3.55-19.9-1.95-1.35-2.3.18-2.71 1.56-1.09 3.6-2.93 6.52-7 6.52-4.22 0-7-2.8-8.55-6.46-4.74-11.39-3.82-22.63 2.16-33.24 2.91-5.16 7.91-6.59 13.29-4.88 3.34 1.05 3.88-.06 4.45-3.15 2.36-12.62 8.16-23.67 15.6-33.81 3.65-5 7-4.54 10.3.69a107.43 107.43 0 0 1 14.73 34.33c.73 3.28 2.86 2.3 4.7 2.42 13.44.87 20.45 11.07 16.46 24.38a32.69 32.69 0 0 1 -4.64 9.86 60.16 60.16 0 0 1 -9.21 9.73c-4 3.48-7.06 2.25-8.66-2.87-.73-2.33-.52-6.44-3.43-6.05-2.35.31-2 4.39-2.2 6.92-.4 4.52-.87 8.9 3.66 12.18 2.85 2.06 3.37 5.75 1.63 9-2.22 4.2-.67 6.05 3.11 8 7.52 3.92 15.64 5.63 23.62 7.92 2 .58 3.41 0 5-1.52 4.73-4.51 8.95-4.51 13.23.09 1.56 1.68 2.19 1.68 4 .3 6.22-4.8 11.4-3.1 14.05 4.36.36 1 .52 2.08 1.79 2.2s1.82-.74 2.39-1.64c.37-.58.67-1.22 1.05-1.8 2.32-3.53 5.42-5.45 9.54-3.95a8.72 8.72 0 0 1 6.17 9.19c-.06 1.52-.8 3.34 1.57 3.66 1.77.24 2.81-.81 3.51-2.4a37.45 37.45 0 0 1 2.32-4.66 10.3 10.3 0 0 1 12-4.45c4.81 1.63 6.3 5.43 6.2 10.24 0 .35-.07.7-.06 1.05.05 1.74-1.52 4.21 1.28 4.83 2.35.53 2.28-2.09 2.94-3.53 2.93-6.44 7.21-9 13.81-8.17 7.11.91 10.29 6.36 7.57 13.18-.66 1.65-1.93 3 .66 4.12 2.1.9 3 .12 3.93-1.75 2.6-5 7.33-6.7 12.35-6.95 8.29-.4 13.39 7.76 9.78 15.38-1.13 2.4-2.22 4.19.83 6s4.09.12 5.7-2a14.9 14.9 0 0 1 23.8.17c3.73 5 3.29 11.71-1 18.05-1.22 1.79-4.23 3.1-1.93 6.13s4.46 1.38 6.73.12c5.72-3.18 11.1-2.77 15.89 1.9s8.18 10.42 6.94 17.66c-.92 5.33-4.89 7.69-9.66 8.82-1.41.34-3.32 0-3 2.5.3 2.24 1.73 2.86 3.68 2.48 9.81-1.89 17.57 7.45 19.11 15 1.24 6.15-1 10.92-5.36 15-4 3.71-8.36 5.17-13.55 2.87-1.12-.5-2.46-1.91-3.55-.19a4.25 4.25 0 0 0 -.49 4c.7 1.44 2.11.53 3.21.45 2.92-.21 6-.59 7.64 2.64 1.72 3.49-.53 6.07-2.7 8.3-7.57 7.78-15.09 15.68-21.14 24.75a266 266 0 0 0 -20.74 37.31c-3.12 6.83-8.09 12.87-7.78 21.25.13 3.25-2.36 6.22-5.11 8.12-3.93 2.72-3.33 5.6-.76 8.76 8.46 10.39 6 19.36-6.53 23.82-1.76.63-4 .93-3.53 3.58 1.23 7.72-2.24 14-5.74 20.2-1.91 3.36-2 5.7.84 8.71 7.71 8 5.23 18.65-5 23.25-18.42 8.28-37.85 11.7-57.72 13a737.54 737.54 0 0 1 -75.67.91c-31.11-1.1-62.23-2.38-93.29-4.75-18.24-1.39-36.53-2.17-54.55-5.52-10.58-2-21.64-2.85-30.37-10.66-4.51-4-8.22-9.52-6-15.1 2.36-5.85.84-10-.85-15.14a89.37 89.37 0 0 1 -3.27-17c-.46-3.77-1.39-5.14-5.41-4.29-5.43 1.15-9.27-1.38-11.46-6.44-2.09-4.86-1-9.28 3.16-13.09 3.48-3.17 2.66-9.67-1.7-10.89-5.28-1.47-7.21-5.14-7-10.08.32-9.25-3.47-16.87-7.82-24.51-6-10.54-11.25-21.57-19.4-30.67s-16.23-18.72-21.98-29.96c-1.34-2.63-2.73-5.24-4-7.92-1.64-3.52-1.72-6.71 2.6-8.77zm229.5 121.41a864.91 864.91 0 0 0 -106 6.83c-11.38 1.49-23 1.55-33.92 5.89-8.33 3.31-10.27 6.52-8.87 15.35.28 1.72.52 3.46.85 5.17 1.91 9.93 3.53 11.26 13.47 11a19.17 19.17 0 0 0 3-.19c15.34-2.77 30.79-4.39 46.33-5.68 18.21-1.51 36.44-2.52 54.68-3.49 30.14-1.62 60.19 2 90.31 2 5.07 0 10.14.32 15.21.55 11.09.52 21.41 5.39 32.38 6.34a214.21 214.21 0 0 1 45.23 9.11c5.8 1.81 6.72 1.14 8.77-4.75a35.74 35.74 0 0 1 2.8-5.56c2.55-4.61 4.34-9.35 4.32-14.87 0-4-1.48-5.86-5.07-7.2-12.36-4.61-25.43-5.69-38.1-8.62-41.59-9.62-83.78-11.21-125.39-11.88zm-8.66-235.64c-7.59 7.27-12.91 15-19.68 21.35-12.81 12-27.65 20.62-43 28.49-3.34 1.71-6.71 3.58-9.24 6.39-12.36 13.75-18.48 30.33-20 48.82a29.1 29.1 0 0 0 2.82 14.26c2.7 6 6.49 9.85 13.66 9.5 6.28-.31 11.39 2.53 14.62 8.56 4.73 8.83 5.28 18.29 4.21 28-.4 3.63-1.26 7.62-5 9.19-4.07 1.72-5.28-2.65-7.56-4.71s-4.51-4.7-7.4-3.56c-2.52 1-1.86 4.54-2.22 7.05-.19 1.38 0 2.81-.13 4.19-.62 5.21.59 9.23 5.86 11.27 2.05.79 4.32 2.4 3.95 4.94-1 6.6 3.77 6.89 7.57 7 9.06.29 18-1 25.47-6.95 3.82-3 6.83-2.81 10.23.64 4 4.08 9.2 4.89 14.62 4.56 2.65-.16 4.11-1.13 3.45-4.29-.53-2.57-.89-5.42.82-7.6 2-2.6 1.39-4.87-.1-7.17a47.62 47.62 0 0 1 -4-9c-1.22-3.17-2.81-7.73-6.58-6.5-4 1.29-2.42 5.82-1.6 9.2.68 2.78 2.75 5.86-.57 8.05-3.06 2-5.87 0-8.43-1.7a15.26 15.26 0 0 1 -2.9-2.89c-8.79-10.27-9.56-22.36-7.08-35 2-10.4 9.7-17.33 20-17.63 4.81-.14 4.92-1.83 4.21-6.05-1.7-10.11-4.24-20.19-2.3-30.66 3.81-20.61 7.91-41.14 13.08-61.45a91.71 91.71 0 0 0 3.22-26.3zm40.67 14.86-1.13.79c2.27 8.91 4.18 18 6.88 26.72 3.7 12 4.44 24.39 4.62 36.8.19 13.29-1.29 26.52-2.78 39.72-.22 1.94-1.4 4.7 1.42 5.37 5.78 1.39 8.91 5.86 12.58 10 10.47 11.8 10.24 32.06-.75 43.12-4.32 4.34-7.76 3.7-9.95-2.23a58.4 58.4 0 0 0 -5.52-11.73c-2.32-3.59-4-3.65-5.63.3-2.17 5.31-3.65 10.91-5.69 16.27-1 2.72-.63 4.49 1.56 6.35 2.76 2.33 4.74 5.18 2.35 9.08-1.2 1.95-.24 2.91 1.55 3.39a17.72 17.72 0 0 0 6 .76c7.36-.56 14.41-2.13 20.82-6.08 3.38-2.08 6.29-1.94 8.94 1.43 4.45 5.63 10.75 6.84 17.28 7.28 2.5.17 4.18-.35 3.73-3.81a11.17 11.17 0 0 1 2.32-8.37c4.68-5.84 5.6-17.05 1.69-23.05-.8-1.23-1.37-3.15-3.29-2.76-1.64.33-1.56 2.09-1.84 3.41-.74 3.49-2 6.55-6.14 6.33s-5.17-3.52-5.8-6.88c-1.32-7 .31-13.66 3.27-19.85 4.65-9.71 9.75-19.17 22.18-19.65 2.71-.11 3.79-2.32 4.43-4.46 1.58-5.33 3-10.72 4.23-16.17 1.5-6.87 2.26-13.85.38-20.78-3.58-13.27-12.11-22.6-22.43-30.78-17.95-14.25-40.22-22.03-55.28-40.52zm-143.83 192.85c-3.75-3.46-7.79-6.67-3.94-11.67 2-2.58 1.58-3.88-.19-6.14s-2.79-5.17-4.25-7.72a46.83 46.83 0 0 0 -3.68-5.62 3 3 0 0 0 -3.65-1.08c-1.63.75-1.25 2.27-1 3.65.29 1.73.68 3.44.88 5.18.29 2.38-.05 4.68-2.35 5.88-2.5 1.32-4.82.32-6.29-1.79-6.62-9.52-13.41-19-16.81-30.36-1.3-4.38-.59-8.66 2.76-11.58 3.17-2.78 2.67-5 1.27-8.54-7.59-19.13-8.85-38.34.82-57.25 2-3.85 4.6-7.36 6.54-11.23 3.92-7.8 10.73-13.59 13.13-22.62 1.63-6.12 6.49-11.58 13.3-11.23 6.61.34 7.59-3.62 9.3-8.56a18.33 18.33 0 0 0 -8.73 2.15c-4.73 2.41-9.78 3.85-14.75 5.6-11.34 4-23.27 6.48-33.64 13.12-17.96 11.52-32.6 25.64-35.72 48.81a82.37 82.37 0 0 0 .35 22c1 7.78 3.61 14.77 9.38 20.25 2.59 2.45 4.37 5.52 3.73 9.32-.59 3.5.08 3.88 3.33 2.6 5.43-2.14 11.14-3.46 16.59.19 10.45 7 17.79 27.36 14.4 39.77-.64 2.35-1.86 4.21-4.32 4.63s-4.22-1.21-5.29-3.28a24.62 24.62 0 0 1 -1.52-5c-.69-2.61-1.42-5.17-4.41-7.29a177.9 177.9 0 0 0 4.23 18.52c1.16 4.49 2.94 6.84 7.82 7.05 5.57.23 8.41 4 7.83 8.79-.14 1.21-1.72 2.64.29 3.58a3.46 3.46 0 0 0 4.17-1c2.51-2.59 5.29-5 7.51-7.8 2.33-3 4.79-3.59 8-1.9 4.59 2.48 9.32 2.78 14.91.57zm294.52 37.48a14.72 14.72 0 0 0 -8.06-9 96.63 96.63 0 0 0 -15-4.77c-47.91-11.4-96.58-15.82-145.62-16.44-23.37-.29-46.72 0-70.06 1.71-26.06 1.87-51.9 5.16-77.4 10.94a149.75 149.75 0 0 0 -22 6.32c-5.27 2.08-6.46 8.33-11.46 10.68-1.4.66.2 4.09 1.61 4 5-.23 10.65 2.06 15.06-1.54 5.81-4.75 12.41-7.07 19.43-8.42 17.82-3.44 35.9-5.11 53.89-6.83 39.14-3.76 78.43-4.85 117.7-2.16 9.47.65 18.94.5 28.4 1.33 22.85 2 45 8.56 67.64 11.56a138.1 138.1 0 0 1 33.78 9.35c6.1 2.5 12.15-.5 12.12-6.73zm-13.82-84.24 1.78.68a42.19 42.19 0 0 1 2.7-3.82c5.67-6.36 12.14-10.08 20.72-6.37 1 .44 2 .51 2.7-.55 1.71-2.59 4-5 5-7.85a125.32 125.32 0 0 0 6.17-45.37c-.52-13.53-4.37-26.48-15.09-34.1-12.55-8.91-25.31-18.19-40.54-22.37-8.69-2.39-16.8-6.47-25.06-10.09-11.88-5.22-24.21-9-36.82-13.37 1.46 5.52 4.33 7.41 9.18 8.36 5.85 1.15 13.09.75 16.25 7.86 1.32 3 3.06 3.29 5.87 3.49 10.12.73 18.36 4.72 21.92 15.5a6.7 6.7 0 0 0 3.79 3.94c2 1 4.1 2 5.52 3.62 9.34 10.52 16.33 22.15 16.74 37.12.34 12.43-1 24.43-5.87 35.9-.88 2.06-1.8 4.27 0 6.4 5.07 6.03 7.34 12.88 5.07 21.02zm-1.34 141.32c-.15-3.25-1.8-7.11-4.91-6.5-7.2 1.42-13.35-1.63-19.81-3.25-20.43-5.12-41.46-6.45-62-11a115.66 115.66 0 0 0 -30.77-2.1c-11.9.63-23.73-.11-35.47-.93-29.68-2.07-59.19.55-88.76 1.82-20.63.88-41.07 3.9-61.59 6-4.34.45-6.9 3.36-9.57 6.22a2.64 2.64 0 0 0 -.32 3.4c1.13 1.56 2.06.19 3-.41a28.38 28.38 0 0 1 13-4.12c27.66-2.74 55.41-2.82 83.16-3.26 25.75-.41 51.4 2.47 77.11 2.06 30.51-.49 60.87 1.7 91.2 4.33 8.53.75 16.87 3.65 25.38 5.1 5.72 1 11.36 1.73 16.19 5.47 3.16 2.5 4.05.5 4.19-2.83zm-53.16-180.08c2.41 0 3.36-1.64 4.66-2.69 7.45-6 14.38-12.81 22.79-17.43 6.81-3.75 10-1.56 10.41 6.52.33 7.16.75 14.31 1.19 21.46.08 1.31-.55 3.32 1.07 3.68 2 .44 2.2-1.77 2.72-3.13a80.06 80.06 0 0 0 4.86-36.58 33.54 33.54 0 0 0 -1.4-6.64c-.74-2.39-1.66-3.79-4-.91-3.3 4.1-7.73 4.63-12.5 3-6.9-2.31-10.25-7.34-10.24-15.62 0-1.72.67-3.16-2.27-3.29-11.62-.55-19.62-10.29-18.61-22.15.11-1.35.89-3-.63-3.81s-2.29 1-3.24 1.81c-4.77 4.24-9 4-13.22-.88a17.12 17.12 0 0 1 -3.95-10c-.34-3.86-5.12-7.65-7.9-6.6-9.64 3.65-11.61 2.9-15.94-6-8.9 4.77-15.61.86-15.57-9.27 0-3.17-.7-3.21-3.16-2-6 3-8.16 1.76-9.43-5.37-.2-1.1-.28-2.28-1.46-2.43a19.18 19.18 0 0 1 -12.69-7.22c8.61 11.29 18.22 21.29 30.09 28.6 14.68 9.05 29.94 17.26 42.77 29.06 15.51 14.26 24 31.46 18.5 53.73-1.05 4.55-2.81 9-2.85 14.16zm-109.31-153.45h1.41c-1.81-7.92 0-15.29 2.58-22.57 2.33-6.6 7.13-10.62 13.15-13 7.86-3.09 16.39 3 16.81 11.55.08 1.66-.13 3.23-1.82 3.94s-3-.25-3.87-1.63a24.24 24.24 0 0 1 -1.35-2.81c-2.47-5.06-5.65-5.91-10.23-2.73-7.2 5-10.95 18.41-7.52 26.9.94-1 .61-2.31.61-3.46 0-5.12.37-10.17 2.49-14.87 2.79-6.19 7.74-6.83 11.84-1.48a25.36 25.36 0 0 1 2.78 5c1 2.16 2.15 2.6 3.79.81 4.51-4.9 8.17-10.27 8.76-17.29a10.33 10.33 0 0 0 -4.95-10.22c-3.63-2.24-7.5-2.86-11.5-.32s-6 1.4-6-3.51c.18-13.08-5.85-23.78-12-34.49-1.25-2.18-2.71-2.71-4.18-.28-5.15 8.48-9.58 17.31-11.91 27.11-.74 3.12.17 5 3.57 5.43 5.38.7 10.69 1.66 16-.69 1.83-.82 4.24-1.47 5.38 1s-1.25 3.7-2.76 4.92a12.75 12.75 0 0 1 -9.46 3.08c-4.21-.41-8.44-1.61-12.58-1.31-4.31.31-7.94.19-11.79-2.39-2.63-1.76-5.89-.73-7.6 2.85a29.73 29.73 0 0 0 -1.54 22.9c.38 1.14.67 2.52 2 2.78 1.16.22 1.27-1 1.41-1.78.24-1.37 1.66-3-.69-3.94-4-1.57-2.94-4.64-1.82-7.41 2.29-5.66 9-8.08 15.12-5.54 6.28 2.6 10.07 7.58 11.68 14.23 1.62 6.31 2.83 12.79 4.19 19.22zm-136.17 128.32c6 5.14 13.34 7.12 19.93 10.45 2.28 1.15 2.07-1.5 2.26-2.9 1.2-8.69 2.69-17.35 6-25.45 5.52-13.68 12.26-26.62 25.26-34.42 8.34-5 17-9.39 25.41-14.3 10.33-6 18.87-14.32 26.75-23.49-4.69 3.94-11.58 3.49-15.54 8.87-1.74 2.37-4.48 2.76-7.41 2.28-6-1-10.46 1.93-12.16 7.63-2.07 6.94-8.25 9.26-13.34 5-3-2.5-9.53-.35-10.64 3.49-2.45 8.5-5.78 10.47-14.25 8.44-5.57-1.33-5.51-1.34-5 4.83.45 5.16.21 10.15-3.87 14.06-5.15 4.92-9.83 5.09-15.34.46-.94-.78-1.89-2.83-3.24-1.2-1.21 1.45.65 2.36 1.51 3.31.23.26.53.44.76.69 10.44 11.5 7.39 26.27-7.09 32.25zm245.83-80.94c15.83 6.42 30.81 14.72 47.07 19.64a35.7 35.7 0 0 1 8.85 3.89c8.08 5.09 16.29 10 24.46 15 2.92 1.77 5.78 3.59 7.88 6.47 11.18 15.33 15 32.52 12.83 51.45-.84 7.38-1.1 14.83-3.53 22.29 9.21-2.05 10.44-3.11 11.8-11.06a154.59 154.59 0 0 0 2.17-30.75c-.18-6.18-2.06-12-6.78-16.42a14.06 14.06 0 0 1 -4.11-8.25c-.24-1.55-.25-3.2-1.34-4.44-7.32-8.39-14.46-17-23.66-23.32-9.61-6.65-20.73-10-31.05-15.1-2.54-1.26-5.05-2.66-8.09-2.89-7.89-.61-15.7-1.64-23.32-4.28-4.16-1.49-8.73-1.55-13.18-2.23zm-102.88 131.8c2.67-7.82 7.38-14.1 12.8-19.8 4.59-4.82 5.93-9.06 2.6-14.7a127.67 127.67 0 0 0 -18.33-24.32c-1.56-1.61-3-2.18-4.7-.25-5.61 6.31-11.35 12.51-14.85 20.46a17.74 17.74 0 0 0 -1.41 10.75c1.52 7.75 2 15.82 6.82 22.57 1.26 1.77 1.71 4.16 2.62 6.22 4.24 9.51 6.64 19.64 9.1 29.76a53.49 53.49 0 0 0 -.07-7.39c-1.59-23.36-4-46.67-3.47-70.14a37.23 37.23 0 0 1 .54-6.25c.36-1.77.46-4.39 2.91-4.22 2.19.15 2.62 2.56 2.87 4.44a72.76 72.76 0 0 1 .6 8.35c.23 14.77.44 29.55 1.97 44.52zm139.33 74.26c-.86-4.05-2.54-5.63-5.89-4.83a22.26 22.26 0 0 1 -8.57 0c-10.38-1.6-19.48-8.08-30.17-8.47a1.55 1.55 0 0 1 -.47-.19 15.54 15.54 0 0 0 -11.34-.9c-11.4 3.18-21.79.75-30.9-6.93-2.14-1.8-3.68-1-5.48 0a45.58 45.58 0 0 1 -15.48 4.8c-12.38 1.78-24-6.7-36.53-2.95-1.66.5-3.68-.28-5.52-.55a24.63 24.63 0 0 0 -15.11 2c-7.79 3.75-15.69 1.72-22.41-3.63-2.57-2-4-1.59-6.54 0-11 6.85-22.88 11-35.08 4.74-7.69-3.92-14.41-3.45-21.7-.4-1.23.51-3 .52-3.32 2.07-.77 3.71-3.6 5.81-6.13 8.28 87.33-11.58 173.98-10.19 260.64 6.96zm7.49-37c-1.25 1-2 1.59-2.8 2.18-4.37 3.28-7.55 2.17-9.05-3.22a24.28 24.28 0 0 1 -.6-3.61c-.24-2.14-.54-4.27-2.82-5.15-2.57-1-4.67.15-6.44 1.94-3.42 3.48-5.64 7.81-8 12-1.47 2.59-1.87 4.6.17 7.05 2.19 2.63 2.62 5.64.5 8.66-2 2.85-.63 4.12 2.1 4.65 5 1 10 1.84 15.09.46 4.26-1.16 7.81-1.05 9 4.47a2.81 2.81 0 0 0 2.57 2.22c1.72.23 1.69-1.21 2.07-2.35a9.27 9.27 0 0 1 8.91-6.66c5.07-.15 6.72-3.21 7.79-7.35.79-3 1.51-6.09 2.19-9.16a3.47 3.47 0 0 0 -1.6-4.06c-1.67-1-2.89 0-3.94 1.27-1.19 1.49-2.29 3-3.6 4.42-3.78 3.94-8.52 2.86-10.36-2.37a45.07 45.07 0 0 1 -1.2-5.43zm70.77-49.07-.49-.64c-3.85 1.75-7.95 3.09-11.5 5.35-7.68 4.88-15 10.24-16.69 20.52-.53 3.15.25 8.14-4.47 8.12-4.41 0-3.63-4.79-4.17-7.8-.7-3.92-2.81-4.91-6.17-4.07a12.12 12.12 0 0 0 -6.52 3.8 71.11 71.11 0 0 0 -10.91 16.33c-1.06 2.26-2.37 4.55-1.34 7.8 4.18-4.33 8.39-7.56 14-4 4.57 2.84 5.3 6.7 3.08 15.49-.86 3.38-1.88 6.72-2.82 10.08-.44 1.57 0 2.78 1.54 3.36s2.14-.52 2.7-1.66 1.25-2.48 1.83-3.74a452.7 452.7 0 0 1 26.52-48.9c4.47-7.19 10.23-13.44 15.39-20.08zm-453.94-12c3.88 7.23 7.41 13.7 12.31 19.33 5.88 6.75 12.09 13.29 17.19 20.64 8.75 12.63 17.08 25.62 22 40.52.59 1.8 1.08 4.2 3.63 3.28 2.8-1 1-3.25.56-4.88a183.6 183.6 0 0 1 -4.77-19.84c-1.44-9.23 2-12.55 10.66-9.93.79.24 1.61.91 2.36.28 1-.84.52-2 .07-2.89-2.2-4.34-4.45-8.66-8.28-11.79-3.44-2.81-7.22-2.3-10.4-.06-6 4.24-5.88 4.45-11.71-.65-.9-.79-1.93-1.42-2.86-2.18-2.59-2.13-4-4.61-1-7.38 1.93-1.78 1.21-3-.28-4.24-9.06-7.33-16.62-16.9-29.5-20.26zm279.21 35.27c-.22-9.89-2.54-18.65-10.33-25.27-5.6-4.76-11-4.82-16.17.33-11.46 11.47-13.29 26.64-15 41.8-.26 2.31-.49 5.28 2.95 5.64 3.23.33 3.1-2.56 3.72-4.62 2-6.66 3.21-13.65 7.31-19.45 3.81-5.39 9.38-5.86 13.81-1 2.17 2.41 3.7 5.41 5.64 8.06 1.08 1.47.8 4.56 2.94 4.41 2.62-.18 3.34-3.18 4.24-5.38a23.49 23.49 0 0 0 .87-4.57zm-90.91 10.04c.37-1.56.56-2.58.85-3.56 1.34-4.51 3.3-8.75 8.27-9.61 4.73-.83 7.72 2.26 10.46 5.94 3.8 5.08 5.28 11.25 8 16.84 1.39 2.92 3.13 3.33 5.64 2.79 3.31-.7 2.41-3.15 1.93-5.37a141.63 141.63 0 0 0 -12.53-35.22c-5.72-11.06-17.51-12.79-24.26-3.56-4.08 5.57-5.15 24.75 1.64 31.75zm19.31-64a109.81 109.81 0 0 1 16.74-21.48c2.2-2.15 1.43-3.88-.39-5.75-3.08-3.16-5.21-7.54-3.55-11.4 2.76-6.39 1.51-12.23 1.06-18.67-.48-6.83 3.7-13.59 2.67-20.89-.07-.44.33-1 .53-1.45 3.12-7.61 2.89-15.84 3.55-23.78.53-6.38 3.32-9.38 9.36-7.36 1.13.38 2.53 2.2 3.49.45s.79-4.11.27-6.15-2.21-1.67-3.75-1.44c-3.32.49-6.62 1.86-10 .5-3.22-1.29-3.44.15-3.51 3.15-.16 7.66 0 15.5-1.47 23-4.19 21.21-9.28 42.23-13.71 63.39-1.87 8.93-4.39 17.96-1.29 27.94zm98.92 53.53c10.24-3.48 15.61-.57 18.39 9.24a26.89 26.89 0 0 1 1.1 8.29c-.07 2.27 0 4.55 0 6.83-.07 3.4 2 4.46 4.79 4.9 3.09.48 4.29-1.06 4.7-4a49.74 49.74 0 0 1 1.41-6.12 61.76 61.76 0 0 0 -.23-33.68c-2.57-9-14.25-12.9-19.91-6.55-5.1 5.77-8.29 12.77-10.25 21.15zm-50-51.59c7.28-38.42-4.26-72.71-13.91-108.13-1.74 3.13-1.39 5.43-1.25 7.92.25 4.43 3.56 7.93 2.87 12.62-1 6.57 2.73 13.2-.05 19.87-.26.64.71 1.88 1.19 2.8 2.32 4.47 2.71 9 .28 13.53-1 1.86-1.18 3.22.1 5.2 4.45 6.9 3.5 12.65-2.66 17.88-1.68 1.42-3.54 2.59-5.59 4.07 6.91 7.47 13.37 14.96 19.01 24.3zm130.51 48.28c.11-6-2.43-11.2-6.26-12.78-4.07-1.68-9.55.25-13.21 4.38-9.48 10.67-15.81 23.46-22.7 35.87a18.49 18.49 0 0 0 -1.56 4.41c-.29 1.15-.63 2.62.91 3.13 1.69.57 1.85-1.06 2.24-2.13a48.44 48.44 0 0 1 9.06-15.07c7.6-8.75 18.43-7.2 21.38 2.79 1.06 3.6 2.54 1.5 3.73 0 4.68-5.96 6.05-13.09 6.4-20.54zm-266.09 23.13c1-2.28.2-4 .06-5.64-.64-7.8-2.51-15.79.28-23.36 2.62-7.13 2-13-.43-20.49-3.64-11.18-10.73-16.86-20.26-20.86-1-.45-2.6-1-3.33-.54-1.51 1-.28 2.54.12 3.76 5.46 16.55 10.89 33.11 16.53 49.6 1.99 5.79 3.82 11.74 7.03 17.53zm8.39 7.34c1.83-3.24 1.15-5.35 1.23-7.37.17-4.19-.19-8.41.86-12.53 1.66-6.51 5.19-8.52 11.4-6.63a19.19 19.19 0 0 1 7.4 4.43c1.6 1.46 2.8 1.51 2.89-1 .24-6.83.33-13.69-2.49-20.11-2.32-5.31-6.67-8.06-12-7.69-5.05.35-7 4.13-8.7 8.35-5.5 13.68-2.99 27.42-.59 42.55zm-40.66-9.26c4.21-8.72 9.08-10.59 15.09-6a20 20 0 0 1 6.15 8.18c1.4 3.16 2.73 6.41 5.33 8.8.82.75 1.44 2.47 2.8 1.57s.14-2.14-.37-3.15c-4.17-8.17-8.16-16.45-12.61-24.46a35.17 35.17 0 0 0 -13.89-14.1c-4.45-2.41-8.52-.89-12.06 2.43-3.2 3-1.8 6.22-.6 9.6a52.38 52.38 0 0 0 10.16 17.13zm276.9-66.77a303.13 303.13 0 0 0 -23.57 19.34c-1.38 1.23-3.39 2.9-2.23 4.81 3.64 6 5.06 12.71 6.07 19.62l1.37.09zm-347.21 11.76c-6.08-33 6.68-56.74 31.62-75.36-6.57-.8-10.66 1.71-13.29 7.48a30.12 30.12 0 0 1 -11.49 13.55c-3.82 2.31-5.42 5-5.81 8.89-.32 3.2-1.46 6.08-2.4 9.07-2.13 6.77-5.7 13-6.57 20.28-.52 4.35 2.53 12.61 7.94 16.09zm84.8 25c-4.46-12.36-8.91-24.72-13.75-38.13-2.07 6.93-2.09 23.92-.47 28.59.41 1.18.82 2.35 2 2.86 4.19 1.74 7.9 4.31 12.22 6.66zm-3.12-67.42c-.07-3.24-4.25-10.61-6.39-10.62-3.8 0-3.91 4.18-5.93 6.26a12.74 12.74 0 0 0 -2.19 3.48c-2.17 4.62.26 9.87 4.9 10.71 4.24.75 9.72-4.9 9.61-9.83zm372.3 26.07a10.11 10.11 0 0 0 -1.69-6.21c-3-4.44-6.52-4.9-11.14-1.45-3.73 2.79-3.79 4.76-.31 9.41.51.69.93 1.45 1.44 2.14 1.7 2.29 3.7 4.65 6.7 3.37s5.57-3.49 5-7.27zm-26.33-37.24c.6 2.36.71 5.29 4.5 4.59 2.11-.39 4 .45 5.83 1.26s3.91 1.2 5.55-.67c1.5-1.7.82-3.57.24-5.39a14 14 0 0 0 -3.11-5.29c-2.05-2.25-4.22-4.13-7.46-2.78-3.5 1.45-4.89 4.45-5.55 8.27zm-89.89-17.21c.82-4.44-3.06-5.12-5.19-4.68-2.72.57-7.7.19-7 5.38.57 4.33 2.47 8.36 6.5 10.64 1.68 1 3.62 2.77 5.43.64 1.63-1.92 3.11-4.24 1.78-7.09-.73-1.51-2.06-2.84-1.52-4.9zm-341.17 13.48c0-6.11-1.35-8.29-5.16-8.3s-7 4.29-7.09 9.23c-.08 5.41 2.32 8.29 6.86 8.26 4.19-.04 5.39-2.08 5.39-9.19zm66.33 67.25a80.59 80.59 0 0 1 .08-15.14c.81-6.41 1.41-12.86 3.39-19 1.23-3.83-2-4.74-3.89-5.58-2.38-1-2.39 1.85-2.65 3.32-2.15 12.38-1.54 24.58 3.07 36.4zm350.46-86.19c3.42 0 6.83-4.25 6.75-8.35-.08-3.46-3.57-6.22-8-6.28-3.76-.05-6.33 1.67-6.43 5.67-.08 4.39 4.14 8.99 7.68 8.96zm-75.36 103.55c4-4 7.62-8.3 12.28-11.51 2.21-1.52 2.71-4.07 2.69-6.47-.05-4.44-.54-8.87-.84-13.3-4.75 10.51-9.94 20.57-14.13 31.28zm-358.52-57.09c-3.12.22-4.69 2.46-4.91 5.76-.32 4.91 3 10.19 6.32 9.93a6.16 6.16 0 0 0 6-5.92c.3-3.75-4.14-9.64-7.41-9.77zm235.44-29.53c-3.5-.25-6 1.38-6.49 5.35-.4 3.14 3.34 7.41 6.41 7.61 2.89.18 7.88-4.14 7.93-6.87.06-3.01-3.65-5.99-7.85-6.09zm143.55 14c.23-5.77-.95-7.08-6.23-7.18-3.85-.08-5.52 2.3-5.74 5.87-.26 4 3.43 7.95 7.24 8 4.76-.02 4.75-3.51 4.73-6.7zm-262.68-26.3c-.67-2.73-.66-6.46-4.7-7.3-2.33-.48-8.21 5.21-7.39 7.43 1.13 3.1 2.54 6.67 6.2 7.55 2.67.64 5.84-3.54 5.89-7.68zm-43.74-16.08c19.69-4.39 38-12.77 57.18-18.53-20.42 1.82-38.17 12.44-57.18 18.53zm-33.09-1.06c-4.15 0-10 5.83-9.84 9.81.09 2.21 1.07 3.59 3.48 3.49 4.39-.17 10.26-6.09 10.14-10.21-.08-2.64-1.71-3.11-3.78-3.09zm202.46 16a7.17 7.17 0 0 0 -7.62-7.26c-3.59.16-4.38 2.82-4.45 5.79-.09 4.11 2.64 6.45 6.94 6.4 3.24.02 5.13-1.33 5.13-4.88zm-138-38.55c.09-2.18-.67-4.47-3.62-4.65-3.83-.23-6.52 1.8-7.27 5.71s2.66 4.49 5.06 5c3.93.9 5.11-2.16 5.79-6.01z"/></g></svg>