<svg viewBox="0 0 496.18 496.18" xmlns="http://www.w3.org/2000/svg"><path d="m0 0h496.18v496.18h-496.18z" fill="none"/><g transform="translate(-8.62 -7.72)"><path d="m429.88 15c-6.4-3.59-12.82.41-18.41 4.41a74 74 0 0 0 -7 5.87c-11.1 10.45-22.31 20.8-32.55 32.13-19.2 21.24-37.51 43.17-53 67.35-16.93 26.49-33.14 53.47-51 79.33-31.8 46.06-70.64 86.48-106.3 129.44-4.88 5.88-7.94 11.7-8.76 19.11-1.19 10.67-3.32 21-10.09 29.93-16.61 21.84-33 43.84-49.65 65.68a188.8 188.8 0 0 0 -24.46 41.83c-1.06 2.56-1.84 5.34 1.2 7.08s5.51.82 7.58-1.76c1.79-2.23 3.71-4.37 5.42-6.66 21.55-28.89 44.75-56.48 67.14-84.74 7.34-9.27 15.42-18.4 27-22.35 14.62-5 24.35-15.26 32.45-27.56a1124.15 1124.15 0 0 1 67.15-91.06c24.9-30.62 49.37-61.58 73.7-92.64q26.27-33.51 52.78-66.85c9.44-12 19-23.85 27.12-36.74 6.12-9.68 11.65-19.73 11.67-32.25.39-8.79-4.81-15.48-11.99-19.55z" fill="#fff8ff"/><path d="m414.47 10.6a26.92 26.92 0 0 0 -8.11 5.29c-9.44 8.88-19 17.66-28.15 26.85-38.15 38.26-67.21 83.32-95.15 129.03a541.34 541.34 0 0 1 -42.8 60.71c-27.92 34.08-56.26 67.78-84.61 101.52-4.32 5.15-7.23 10.76-8 17.36-1.45 12.09-4.6 23.27-12.55 33.09-10.8 13.33-20.92 27.21-31.11 41-12.54 17-26.33 33.21-35.62 52.44a97.65 97.65 0 0 0 -5.37 12.61c-1.44 4.56-.41 8.85 4.09 11.39s8.48 1.59 11.86-2.14c2.43-2.68 4.91-5.35 7.09-8.23 22-29 45.26-57.08 68.14-85.42 8.22-10.19 17.9-18.73 30.81-22.85 4.38-1.4 8.7-3.59 11.6-7.12 6.29-7.64 13.82-14.17 19.33-22.53 16.13-24.5 34.77-47.19 52.21-70.81 19.48-26.39 42-50.34 61.75-76.59 21.76-29 44.57-57.09 67.65-85a595.36 595.36 0 0 0 37.73-50.28c6.9-10.41 12.19-21.55 12.75-32.26.05-22.25-16.58-35.08-33.54-28.06zm15.66 56.23c-8.13 12.89-17.68 24.79-27.13 36.74q-26.4 33.42-52.74 66.85c-24.33 31.06-48.8 62-73.7 92.64a1124.15 1124.15 0 0 0 -67.15 91.06c-8.1 12.3-17.83 22.55-32.45 27.56-11.57 4-19.65 13.08-27 22.35-22.37 28.23-45.57 55.82-67.12 84.71-1.71 2.29-3.63 4.43-5.42 6.66-2.07 2.58-4.69 3.41-7.58 1.76s-2.26-4.52-1.2-7.08a188.8 188.8 0 0 1 24.46-41.83c16.62-21.84 33-43.84 49.66-65.69 6.77-8.89 8.9-19.26 10.09-29.93.82-7.41 3.88-13.23 8.76-19.11 35.66-43 74.5-83.38 106.3-129.44 17.86-25.86 34.07-52.84 51-79.33 15.46-24.18 33.77-46.11 53-67.35 10.24-11.33 21.45-21.68 32.55-32.13a74 74 0 0 1 7-5.87c5.54-4 12-8 18.41-4.4 7.21 4.07 12.38 10.76 11.92 19.58-.01 12.52-5.54 22.57-11.66 32.25z" fill="#fff8ff"/><g fill="#001400"><path d="m448.06 38.64c-.56 10.71-5.85 21.85-12.75 32.26a595.36 595.36 0 0 1 -37.73 50.28c-23.08 27.93-45.89 56.06-67.65 85-19.75 26.23-42.31 50.23-61.79 76.61-17.44 23.62-36.08 46.31-52.27 70.83-5.51 8.36-13 14.89-19.33 22.53-2.9 3.53-7.22 5.72-11.6 7.12-12.88 4.14-22.59 12.66-30.81 22.85-22.88 28.34-46.13 56.42-68.13 85.42-2.18 2.88-4.66 5.55-7.09 8.23-3.38 3.73-7.45 4.64-11.84 2.14s-5.53-6.83-4.09-11.39a97.65 97.65 0 0 1 5.36-12.6c9.29-19.23 23.08-35.42 35.62-52.44 10.19-13.81 20.31-27.69 31.11-41 8-9.82 11.1-21 12.55-33.09.79-6.6 3.7-12.21 8-17.36 28.32-33.75 56.69-67.45 84.61-101.53a540.62 540.62 0 0 0 42.84-60.73c28-45.71 57.08-90.75 95.19-129 9.15-9.19 18.71-18 28.15-26.85a26.92 26.92 0 0 1 8.11-5.29c16.91-7.05 33.54 5.78 33.54 28.01zm-6.22-4.06c.46-8.82-4.71-15.51-11.92-19.58-6.44-3.59-12.86.41-18.45 4.41a74 74 0 0 0 -7 5.87c-11.1 10.45-22.31 20.8-32.55 32.13-19.2 21.24-37.51 43.17-53 67.35-16.93 26.49-33.14 53.47-51 79.33-31.8 46.06-70.64 86.48-106.3 129.44-4.88 5.88-7.94 11.7-8.76 19.11-1.19 10.68-3.32 21-10.09 29.93-16.61 21.84-33 43.84-49.65 65.68a188.8 188.8 0 0 0 -24.46 41.83c-1.06 2.56-1.84 5.34 1.2 7.08s5.51.82 7.58-1.76c1.79-2.23 3.71-4.37 5.42-6.66 21.55-28.89 44.75-56.48 67.14-84.74 7.34-9.27 15.42-18.4 27-22.35 14.62-5 24.35-15.26 32.45-27.56a1124.15 1124.15 0 0 1 67.15-91.06c24.9-30.62 49.37-61.58 73.7-92.64q26.27-33.51 52.78-66.85c9.44-12 19-23.85 27.12-36.74 6.07-9.68 11.6-19.73 11.62-32.25z"/><path d="m337.17 155.3c1.37 3.57.67 4.26-2.08 4.53-4.56.46-9 7.66-7.7 12 .73 2.36.07 3.72-2.22 2.85-3.29-1.24-4.67.69-5.95 2.81-2.64 4.41-8 7.22-7.77 13.37.06 1.45-1.5 1.21-2.58 1.54-3.8 1.15-4.7 5.27-7.35 7.6-3.83 3.37-1.25 6 .64 8.86.65 1 1.26 2.1.22 3.09-1.34 1.26-2.67.29-3.46-.69-3.05-3.74-4.95-1.83-6.83 1.13a19.66 19.66 0 0 1 -2.81 3.61c-2.89 2.81-2.93 5.36 0 8.21 1.23 1.17 3.56 2.89 1.87 4.64-1.48 1.54-3.08-.71-4.17-1.82-2.92-3-5.13-2.53-7.22.89-2.29 3.77-5.63 6.61-6.88 11.44-.58 2.19-5.3 4.51-7.75 7.37-2.95 3.43-4.23 6.2.1 9.36 1 .75 2.23 2.14 1.33 3.41-1.18 1.64-2.91.69-4-.35-3.76-3.64-6.17-1.93-8.41 1.73a38.72 38.72 0 0 1 -3.83 5c-2 2.37-3.51 4.62-.34 7.25.86.7 1.74 1.85.93 3s-2.21.54-3-.22c-3.17-3.12-5-1-6.71 1.58-.21.32-.46.61-.7.91-5.87 7.5-5.87 7.5 0 15.17.78 1 2.22 2 1.09 3.41s-2.33 0-3.46-.53c-2.64-1.34-4-6.14-6.95-4.87s-5.27 4.63-6.53 7.64c-2.54 6-8.05 9.4-11.75 14.36-2.72 3.66-4.58 6.47.29 9.62.9.58 1.92 1.75 1 2.87-1.2 1.45-2.58.33-3.45-.55-3.5-3.59-5.57-1.74-8.08 1.43-7.11 9-7.22 8.86 1.49 16.31 1.31 1.13 4.16 2.09 2.65 4.22s-3.33-.36-5-1c-.7-.28-1.25-.89-1.92-1.24-2.62-1.36-4.75-5.75-7.37-4.36-3.92 2.08-6.17 6.62-8.52 10.51-1.25 2.07 1.45 3.18 2.41 4.69.77 1.22 2.72 2.37 1.38 3.85-1.71 1.89-3.11-.22-4.23-1.26-1.79-1.68-3.13-3.18-5.6-.67-1.38 1.4-3.53.36-2.33-1.54 2.59-4.11-.82-5.31-2.75-7.34-1.22-1.29-3.71-2.36-1.75-4.52 1.6-1.77 3.21-.14 4.31 1.13 3.41 4 6.24 3.61 8.68-.92 1.9-3.52 7.32-5.62 4.39-11.16-.48-.93.73-1.39 1.8-1.54 3.56-.5 11.45-8.14 11.85-11.24.22-1.66-1-2.31-2-3.22-2.29-2.28-4.61-4.54-6.85-6.88a1.95 1.95 0 0 1 2.46-3l.2.17c2.33 2 4.61 4 6.78 6.12s3.88 2.19 5.52-.45a3.83 3.83 0 0 1 .36-.44c7.15-8.53 7.15-8.53-.88-16.08a20.46 20.46 0 0 1 -1.64-1.59c-1-1.14-2.5-2.49-1.39-4 1.52-2 3 0 4.39.73a11.61 11.61 0 0 1 1.33 1.08c2.7 2 5 6.78 7.88 5.76 4.13-1.47 5.94-6.62 8.82-10.14 1.09-1.33.27-2.53-.86-3.43-1.33-1.07-2.77-2-4.12-3.07-1.17-.93-2.88-1.89-2-3.63s2.6-.77 4-.24c2.66 1 4.61 4.72 7.21 3.91 3.19-1 4.29-5.13 6.71-7.54 2.91-2.91 3-5.36-.55-7.9-1.46-1-3.31-2.94-1.37-4.71 1.61-1.48 3.2.57 4.26 1.69 2.74 2.91 4.8 2.41 6.72-.78a25.24 25.24 0 0 1 1.76-2.25c5.46-6.93 5.44-6.92.27-14.27a21.8 21.8 0 0 1 -2-3.48 2 2 0 0 1 .54-2.58c.92-.74 1.82-.24 2.59.3a21.09 21.09 0 0 1 2.12 1.88c1.89 1.77 3.62 5.67 5.82 4.69 3.5-1.58 5.67-5.45 7.69-8.9.85-1.45-.65-2.41-1.46-3.4-1.34-1.61-2.8-3.12-4.1-4.76-1-1.26-1.66-2.9-.16-4.06 1.33-1 2.38.36 3.39 1.23 6.92 6 6.74 5.85 12.4-1.42 2.63-3.38 3.15-5.83-.68-8.33a3.28 3.28 0 0 1 -.81-.81c-1.68-2.27-5.92-4.44-3-7.36 2.29-2.32 4.68 1.49 6.28 3.23 3.68 4 6.31 3.68 9.05-.88 2.09-3.46 6.91-6.25 1.89-10.92a1.45 1.45 0 0 1 .11-2.05 2.71 2.71 0 0 1 3.2-.27c7.45 3.44 7.25-4.56 10.52-7.2 3.46-2.8 0-4.9-1.74-7-.26-.27-.51-.56-.75-.86-1.35-1.94-4.52-4.21-2.41-6.21 2.33-2.21 4.45 1.12 5.7 2.9 3.12 4.47 5.62 4.34 8.22-.31a19.06 19.06 0 0 1 1.76-2.24c5.15-6.61 5.15-6.6-.16-12.74a29.45 29.45 0 0 1 -2.08-2.74c-1.09-1.6-2.35-3.47-.34-5 1.76-1.36 3.13.37 4.41 1.44.73.62 1.42 1.28 2.11 1.93 5.23 4.95 7.68 4.34 11.08-2.26 1.25-2.43-.34-3.46-1.41-4.92s-2.87-3.33-1.35-5c1.66-1.85 3.63-.17 4.9 1.15 2.23 2.33 3.84 1.88 5.37-.62.29-.49.67-.93 1-1.39 2.12-2.92 5.4-5.61 6.05-8.83.7-3.44-4.15-4.91-6-7.73-1-1.57-3.06-3.36-1.52-5 2.1-2.23 3.71.56 5.14 1.71 7.11 5.76 7 5.73 12.74-1.38 2.41-3 3.89-5.47.55-8.78a3 3 0 0 1 -.17-4.24 3.6 3.6 0 0 1 .41-.37c1.84-1.33 3.08-.14 4 1.59 1.38 2.47 2.9 2 4.35 0 .46-.61.94-1.2 1.41-1.8 5-6.37 5-6.35-.95-12.18-1.91-1.86-3.72-3.83-5.49-5.82a2.41 2.41 0 0 1 -.36-3.15 2.27 2.27 0 0 1 3.16-.51 2.11 2.11 0 0 1 .38.35 99.15 99.15 0 0 1 8.2 7.94c2.22 2.48 3.86 2.74 5.67-.26a19.9 19.9 0 0 1 2.74-3.65c2.51-2.56 1.87-4.31-.77-6.46-2.16-1.75-6.85-4.07-4.39-6.74 2.9-3.12 5.46 1.57 7.5 3.64s3.28 2.29 5.31-.13c5.59-6.67 5.63-6.51-.49-13.17-1.62-1.76-5.71-3.56-3.27-6.2 2.7-2.93 5.49.47 7.64 2.4 5.45 4.87 5.43 5 10-.84 6.28-7.92 12.41-16 18.74-23.84 1.13-1.4 2.1-4.71 4.54-2.78 2 1.57-.63 3.34-1.66 4.71-6.79 9-13.69 17.86-20.55 26.77-1.95 2.54-4.66 5-.87 8.16a1.71 1.71 0 0 1 .38 2.39l-.13.15a1.88 1.88 0 0 1 -2.61.27c-3.38-2.58-5.09-.21-6.89 2.14-4.06 5.3-8 10.69-12.28 15.81-2.24 2.7-2.71 4.77.22 7.19 1 .84 2.86 2 1.38 3.72-1.15 1.31-2.62.23-3.53-.63-3.24-3.06-5.34-1.5-7.21 1.54-4.37 7.1-10.07 13.18-15.23 19.67-1.65 2.08-3.17 3.92-.52 6.33.82.74 1.69 1.81.82 3s-2.16.66-3.09 0c-2.91-2-4.59-.34-6 1.94-2.07 3.73-6.21 6.63-7.04 10.62z"/><path d="m122 431.41a30.71 30.71 0 0 1 -2.16 3.38q-20.34 24.63-39.17 50.44c-1.79 2.45-3.33 5.08-5 7.6-.73 1.08-1.47 2.54-3.1 1.77-1.86-.88-1.31-2.56-.74-4a20.59 20.59 0 0 1 2-3.46c12.84-19.1 27.85-36.53 42.08-54.56a11.93 11.93 0 0 1 3.37-3c1.57-.86 2.28.32 2.72 1.83z"/><path d="m161.7 378.71c-.45.56-1.13 1.46-1.88 2.31-10.34 11.7-21.42 22.78-30 35.93-.74 1.13-1.7 2.35-3.23 1.29-1.19-.83-.62-2.05-.12-3.08a17.51 17.51 0 0 1 1.72-3q14.07-17.7 29.55-34.17c.88-.94 1.73-2.24 3.32-1.64.71.32 1 1.06.64 2.36z"/><path d="m162.17 368.88c.3-6.09 4.17-11.64 7.32-11.07 3.45.61 6 2.68 6.09 6.42.11 3.17-6.36 8.45-9.75 8.32a3.44 3.44 0 0 1 -3.66-3.67z"/><path d="m425.22 8.61c2.21 0 4 .29 4.72 2.18s-.37 3.26-2 4.16c-24.21 13.12-42.55 33-61.12 52.7-17.76 18.81-32.16 40.13-46.95 61.17-19.51 27.75-39.21 55.38-58.55 83.25-17.51 25.23-37.71 48.34-56.7 72.34-12 15.25-24.48 30.19-37.14 44.92a68.57 68.57 0 0 0 -15.33 32.67c-1.73 9.21-6.43 16.59-12 23.71-14.89 19.06-29.63 38.21-42.81 58.53-6.62 10.28-15.68 18.76-21.28 29.76-1.3 2.54-2.87 5-3.94 7.61-2.13 5.27-3.2 10.59.22 15.87 1 1.63 1.9 3.65 0 5.16-2.13 1.65-4 .3-5.53-1.24-4.16-4.14-5.11-9.2-4-14.78 2-10.57 7.58-19.53 13.47-28.2q17-25.05 34.71-49.68c5.22-7.24 11.18-14 17-20.76 7.6-8.85 15.06-17.54 16.82-29.87 2.33-16.33 12-28.93 22.19-41.24 20.73-25.12 40.68-50.91 62.14-75.38 28.4-32.38 50.38-69.27 75.55-103.9 16.57-22.82 31.61-46.8 50.31-67.95 13-14.67 26.12-29.3 41.72-41.46 6-4.66 11.13-10.4 17.5-14.67 3.51-2.36 7.1-4.46 11-4.9z"/><path d="m333.31 169c5.09 0 9.68 3.53 10.24 8.26s-1 8-6.18 8.4c-2.15.18-2.31 1.59-2.33 3.21a7.14 7.14 0 0 1 -3.3 6.33c-3 1.85-5.79 1.83-6-2.49-.11-2.54-1-3.74-3.16-4.69-4.39-1.9-5.33-5.66-1.69-8.54 3.13-2.48 6.29-4.57 8-8.44.65-1.58 2.61-2.04 4.42-2.04z"/><path d="m241.11 308.41c-.07.36 0 1.33-.38 1.81-3.43 3.83-8 6.66-9.78 11.91-.13.37-1.94.64-2 .5-2-4.3-7.17-4.25-9.93-7.15-2.33-2.47.58-6.87 5-7.48 2.14-.29 3.36-.46 3.87-2.92.62-3 2-6 5.69-6.19 2.34-.12 7.55 6.52 7.53 9.52z"/><path d="m289.36 196.94c.73 2 1.61 3.46 1.79 5a4.52 4.52 0 0 1 -3 5c-2.44.92-3.51-.68-4-2.74s-1.92-2.5-3.56-3.26c-4-1.86-4.48-5.42-.74-7.69 2.53-1.52 3.9-2.8 3.9-6 0-3 2.18-4.8 5.49-4.21 3.16.57 11.13 8.33 10.6 10.38-1 3.88-3.7 5-7.44 4.14-.89-.15-1.78-.35-3.04-.62z"/><path d="m237.67 262.75c1.85 3 3.51 5.87 1.12 9a4.46 4.46 0 0 1 -4.4 2.07c-2.21-.38-2.41-2.05-2.22-3.91a2.7 2.7 0 0 0 -2.08-3.2h-.36c-2.41-.4-4.79-1-4.4-4a5.61 5.61 0 0 1 5.89-5.13c2.46 0 3.21-.66 3.46-3.09.27-2.81 1.87-5.74 5-4.69s8-.17 8.48 5a7.21 7.21 0 0 1 -5.21 7.91c-1.45.46-3.26.04-5.28.04z"/><path d="m174.45 330.82c.63-3.57 2.51-5.57 5.14-6.31 2.85-.79 4-2.13 4-5.09a5.65 5.65 0 0 1 4-5.63c2.8-.92 4.1 1.32 5.68 2.87a29.29 29.29 0 0 1 3.42 3.8c1.73 2.48 1 4.78-1.88 5.08-4.51.46-5.65 2.26-4.74 6.62.46 2.19-1.37 4.25-3.27 5.68a4.69 4.69 0 0 1 -2 1 7 7 0 0 1 -2.17-.31c1.13-6.53-7.17-3.82-8.18-7.71z"/><path d="m381.32 112.86c.15-1.42.32-2.33.34-3.24.06-2.4-.78-5.32 2.31-6.34s4.91 1.39 6.63 3.39c2.1 2.43 1.27 4.33-.56 6.93-2 2.77-4 5.73-5.72 8.69-1.61 2.74-6.83 4.18-10.55 2.57-3.4-1.48-4.45-5.16-3-8.78 1.85-4.62 5.04-5.67 10.55-3.22z"/><path d="m332.11 132.12c-2.43.42-4.7 0-5.94-2.75s-.14-4.92 1.53-6.79a21.26 21.26 0 0 0 4.48-6.35 6.15 6.15 0 0 1 6.73-4.17c3.34.53 5.2 3.15 5.7 6.34a5.8 5.8 0 0 1 -4.08 6.69c-2.17.77-3.31 1.15-2.88 4.17.56 3.96-3.07 2.66-5.54 2.86z"/><path d="m381.63 60.17c-.37-3.65.28-7 4-8.49s5.9 1 7.69 4a6.31 6.31 0 0 0 2.44 2.23c3.35 1.65 4.05 4 1.62 6.76s-5.71 4-8.82.84c-1.7-1.69-2.66-4.24-5.68-4z"/><path d="m381.63 60.17 1.29 1.24c1.93 3 4 6 5.74 9.09 1.34 2.35.53 4.6-2.2 4.33a30.85 30.85 0 0 1 -10.25-2.89c-2.89-1.41-3.11-4.67-2.32-7.56 1.11-3.88 4.37-4.23 7.74-4.21z"/><path d="m284.45 244.71c3.26 3.41 4.24 7 .07 10.26-2.41 1.86-5.15 2.24-5.72-2-.2-1.43-.22-2.78-1.91-3-2.67-.31-4.46-1.4-3.92-4.37s2.63-4.51 5.65-4.68c.76 0 1.52.05 2.28.13z"/><path d="m284.45 244.71-3.55-3.6c-1.41-2.84-.74-5.13 1.86-6.89 2.75-1.86 5.12-.63 7.24 1.13 3.5 2.91 3.37 7.13 3.06 11-.22 2.67-2.46 3.26-4.56 1.28-1.24-1.22-2.2-2.63-4.05-2.92z"/></g></g></svg>