<svg viewBox="0 0 496.18 498.65" xmlns="http://www.w3.org/2000/svg"><path d="m0 0h496.18v496.18h-496.18z" fill="none"/><g transform="translate(-7.43 -6.87)"><path d="m93.48 77.56c4.15-.39 7.84-1 11.54-1 47.8-.64 95.61-1.88 143.41-1.53 27.69.21 55.39 2.74 83 4.81 6.71.5 11.19-1 16-5.77 11.22-11.07 23.13-21.41 34.95-31.79 3.09-2.72 4.27-5.18 3.74-9.49-1.57-12.79 7.21-23.22 19.12-23.47s19.7 11.61 15.64 23.78c-2.91 8.73-15.05 15-23.9 12.6-1.64-.45-4.29-.64-5.25.3-11.26 11.13-22.29 22.49-33.39 33.79.33.58.66 1.16 1 1.75 4.84.31 9.68.57 14.51.94 11 .84 21.93 1.88 32.92 2.53 3.86.23 3.47 2.52 3.82 5.18 3.94 30.4 2.11 60.9 1.37 91.35-1.34 55.45-3.06 110.89-4.85 166.33a240 240 0 0 1 -2.87 31.1c-.7 4.34-3.45 8.84-6.45 12.23q-45.76 51.65-92 102.86c-3.26 3.62-7.26 6.62-11.15 9.61a8.46 8.46 0 0 1 -5.31 1.83c-55.93-5.09-112-3.12-168-4.42-8.82-.21-17.66-.41-26.44-1.13-1.32-.1-3.45-3-3.45-4.67 0-16.91.13-33.84.76-50.74 2.11-56.81 5.44-113.59 6.38-170.41.74-45.2-1.15-90.45-2.28-135.67-.46-18.67-2-37.31-3-56a49 49 0 0 1 .18-4.9zm242.29 10.1-1.14-2c-78.72-9.43-157.63-2.66-236.93-4.1.63 8 1.23 14.81 1.71 21.63a1940.46 1940.46 0 0 1 3.92 197c-1.64 53.66-4.34 107.28-6.41 160.92-.4 10.53-.06 21.1-.06 32.47l170.47 4.09a10.12 10.12 0 0 0 .16-1.58c-.07-29.28-.45-58.56-.09-87.84.16-13.13 1.87-26.25 2.72-39.38.25-3.82 1.86-4.88 5.64-4.79 6.28.14 12.57-.67 18.86-.67 33.63 0 67.22-.69 100.72-4.08 4.49-.45 6.25-1.84 6.38-6.24.18-6.09 1-12.16 1.16-18.25 1.63-61.33 3.41-122.65 4.62-184 .37-18.64-.9-37.31-1.38-56-.08-3.36-.88-5.49-4.95-5.67-14.53-.63-29.05-1.75-43.59-2.18a12 12 0 0 0 -7.94 3.58c-5.64 5.94-10.58 12.53-16.07 18.63a13.65 13.65 0 0 1 -5.94 3.56c-3.83 1.19-7.7.7-9.74-3.25s.62-6.45 3.52-8.9c4.92-4.15 9.59-8.61 14.36-12.95zm14.23 329.22-1-.88-27.77 30.55 1.2 1.07zm-23.09-311.39 1.64 1.26 25-27.68-1.68-1.53q-12.46 13.98-24.96 27.95zm84.09-79.86-2.47-.55-3.93 7.77 1.46 1.47c1.65-.81 4.1-1.22 4.74-2.52.86-1.69.2-4.08.2-6.17z" fill="#001400"/><path d="m335.77 87.66c-4.77 4.34-9.44 8.8-14.36 13-2.9 2.45-5.58 4.91-3.52 8.9s5.91 4.44 9.74 3.25a13.65 13.65 0 0 0 5.94-3.56c5.49-6.1 10.43-12.69 16.07-18.63a12 12 0 0 1 7.94-3.62c14.54.43 29.06 1.55 43.59 2.18 4.07.18 4.87 2.31 4.95 5.67.48 18.65 1.75 37.32 1.38 56-1.21 61.34-3 122.66-4.62 184-.16 6.09-1 12.16-1.16 18.25-.13 4.4-1.89 5.79-6.38 6.24-33.5 3.39-67.09 4.09-100.72 4.08-6.29 0-12.58.81-18.86.67-3.78-.09-5.39 1-5.64 4.79-.85 13.13-2.56 26.25-2.72 39.38-.36 29.28 0 58.56.09 87.84a10.12 10.12 0 0 1 -.16 1.58l-170.47-4.14c0-11.37-.34-21.94.06-32.47 2.07-53.64 4.77-107.26 6.41-160.92a1940.46 1940.46 0 0 0 -3.92-197c-.48-6.82-1.08-13.64-1.71-21.63 79.3 1.48 158.21-5.29 236.93 4.17zm-192.39 107.54a15.34 15.34 0 0 0 2.59.4c17.5 0 35-.12 52.5.17 5.8.09 7.48-2.22 7.46-7.69-.07-14.15.2-28.31.54-42.46q.47-19.16 1.41-38.31c.22-4.72-1.29-6.54-6.35-6.44-18.67.39-37.36.46-56 .36-4.6 0-6 1.13-5.77 6 1.38 29.04 2.42 58.1 3.62 87.97zm179.51 115.17c1 3.92 1.38 6.59 2.32 9.06.49 1.28 1.83 3 2.91 3.06s2.65-1.37 3.35-2.55a60 60 0 0 0 3.11-7.26c4.17 9.05 12.22 11.7 18.3 6.43-1.18-.5-2.32-1.46-3.23-1.29-7 1.31-10.35-1.56-12.1-8.41-.86-3.39-4-2.36-5.52.58-1.09 2.07-2 4.25-3.65 8-1.36-6.4-2.22-11-3.33-15.52-.57-2.3-2.83-4.78-4.23-1.87a33.61 33.61 0 0 0 -2.93 18.28l1.81.39zm-21.31-33.74-.48 1.42c1.72.85 3.78 2.78 5.11 2.36 4.33-1.36 8.4-3.57 13.08-5.69 6.6 7.84 9.31-3.05 14-4.84 6 5.44 6 5.44 12.36 2.41 6.84 4.46 7.85 4.54 11 .85-11.72-5-11.72-5-15.38-3.5-4-1.21-7.05-3.24-9.42-2.6-2.89.77-5.17 3.79-7.68 5.81-6.49-5-6.31-4.77-12 1.08-1.57 1.62-4.56 2-7 2.64a13.88 13.88 0 0 1 -3.59.06zm-23.29-106.34a16.6 16.6 0 0 0 -.71-3.56c-.78-1.63-1.79-3.16-2.7-4.73a48 48 0 0 0 -3.63 3.94c-1.43 1.93-2.63 4-4.14 6.38-1.62-2.08-2.62-3.36-3.61-4.65l-1.65.86c1.13 2.11 2.72 6.14 3.3 6 3.06-.74 5.86-2.53 7.86-3.52 1.85 1.43 4.6 4.77 5.93 4.28 2.48-.92 4.14-4.06 5.4-5.46 3.89 2.88 6.86 6.73 9.94 6.82 2.23.06 4.59-4.88 6.9-7.59l-2.5-2.26-4 7.92c-9.02-12.56-8.91-11.07-16.39-4.43zm62.89 57.54 17.76 2.45.69-2.36c-2.14-.83-4.28-2.37-6.4-2.35-3.34.05-5.83.1-7.56-3.59-1.35-2.89-3.8-2.19-5.49.3-1.3 1.92-2.5 3.9-4.59 7.17-.38-4.39-.35-7-.94-9.4-.23-1-1.84-1.56-2.82-2.33-.5 1.09-1.37 2.17-1.41 3.28a17.1 17.1 0 0 0 .67 5.79 53.65 53.65 0 0 0 3.07 6.46c2.11-1.41 4.28-2.74 6.28-4.28.71-.55 1.02-1.62.74-1.14zm-105.87-68.52-2.84.4c.34 4.95.44 9.95 1.15 14.85.23 1.57 2 3.94 3.23 4.07 1.46.15 3.64-1.41 4.6-2.84 1.82-2.7 3-5.84 4.55-9 4.12 8.37 5.44 8.86 10.35 3.11-6.18 1.73-5.5-2.81-6.78-5.81-.61-1.45-2.07-2.55-3.15-3.8-1.1 1.19-2.55 2.22-3.22 3.62-1.7 3.53-3 7.23-4.52 10.86l-1.5-.38q-.93-7.56-1.87-15.08z" fill="#fff8ff"/><path d="m350 416.88-27.59 30.74-1.2-1.07 27.79-30.55z" fill="#fff8ff"/><path d="m347.88 417.22-27.58 30.78 4.4-1.23c-1.75-1.56 11.18-14.26 12.59-15.81l13.89-15.27-4.41 1.23 1 .87c.87.75 5-1.29 4.5-1.77l-1-.87c-.76-.66-3.81.58-4.4 1.23q-13.87 15.24-27.77 30.52c-.2.21-.34.32-.1.53l1.2 1.07c.74.67 3.83-.58 4.4-1.22l27.59-30.75c.81-.89-3.57-.12-4.31.69z" fill="#fff8ff"/><path d="m326.91 105.49q12.49-14 25-27.95l1.68 1.53-25 27.68z" fill="#fff"/><path d="m411 25.63c0 2.09.63 4.48-.2 6.17-.64 1.3-3.09 1.71-4.74 2.52l-1.46-1.47 3.93-7.77z" fill="#fff"/><path d="m143.38 195.2c-1.2-29.87-2.24-58.93-3.66-88-.24-4.88 1.17-6 5.77-6 18.68.1 37.37 0 56-.36 5.06-.1 6.57 1.72 6.35 6.44q-.91 19.14-1.41 38.31c-.34 14.15-.61 28.31-.54 42.46 0 5.47-1.66 7.78-7.46 7.69-17.5-.29-35-.13-52.5-.17a15.34 15.34 0 0 1 -2.55-.37zm60.62-88.88h-59.39c1 27.42 2 54.29 2.85 81.17.12 3.78 2.22 3.85 5 3.84 14.33-.07 28.67-.18 43 .07 4.55.08 5.64-1.64 5.56-5.85-.22-11.79-.41-23.59.06-35.36.63-14.49 1.92-28.95 2.92-43.87z"/><g fill="#001400"><path d="m322.89 310.37-3.19 8.87-1.81-.39a33.61 33.61 0 0 1 2.93-18.28c1.4-2.91 3.66-.43 4.23 1.87 1.11 4.53 2 9.12 3.33 15.52 1.69-3.72 2.56-5.9 3.65-8 1.55-2.94 4.66-4 5.52-.58 1.75 6.85 5.1 9.72 12.1 8.41.91-.17 2.05.79 3.23 1.29-6.08 5.27-14.13 2.62-18.3-6.43a60 60 0 0 1 -3.11 7.26c-.7 1.18-2.28 2.64-3.35 2.55s-2.42-1.78-2.91-3.06c-.94-2.4-1.36-5.11-2.32-9.03z"/><path d="m301.58 276.63a13.88 13.88 0 0 0 3.65-.06c2.41-.68 5.4-1 7-2.64 5.68-5.85 5.5-6 12-1.08 2.51-2 4.79-5 7.68-5.81 2.37-.64 5.46 1.39 9.42 2.6 3.66-1.48 3.66-1.48 15.38 3.5-3.19 3.69-4.2 3.61-11-.85-6.32 3-6.32 3-12.36-2.41-4.67 1.79-7.38 12.68-14 4.84-4.68 2.12-8.75 4.33-13.08 5.69-1.33.42-3.39-1.51-5.11-2.36z"/><path d="m278.29 170.29c7.48-6.64 7.37-8.13 16.4 4.43l4-7.92 2.5 2.26c-2.31 2.71-4.67 7.65-6.9 7.59-3.08-.09-6-3.94-9.94-6.82-1.26 1.4-2.92 4.54-5.4 5.46-1.33.49-4.08-2.85-5.93-4.28-2 1-4.8 2.78-7.86 3.52-.58.14-2.17-3.89-3.3-6l1.65-.86c1 1.29 2 2.57 3.61 4.65 1.51-2.36 2.71-4.45 4.14-6.38a48 48 0 0 1 3.63-3.94c.91 1.57 1.92 3.1 2.7 4.73a16.6 16.6 0 0 1 .7 3.56z"/><path d="m341.18 227.83c.28-.48 0 .59-.74 1.14-2 1.54-4.17 2.87-6.28 4.28a53.65 53.65 0 0 1 -3.07-6.46 17.1 17.1 0 0 1 -.67-5.79c0-1.11.91-2.19 1.41-3.28 1 .77 2.59 1.38 2.82 2.33.59 2.43.56 5 .94 9.4 2.09-3.27 3.29-5.25 4.59-7.17 1.69-2.49 4.14-3.19 5.49-.3 1.73 3.69 4.22 3.64 7.56 3.59 2.12 0 4.26 1.52 6.4 2.35l-.69 2.36z"/><path d="m235.31 159.31q.93 7.51 1.87 15.05l1.5.38c1.48-3.63 2.82-7.33 4.52-10.86.67-1.4 2.12-2.43 3.22-3.62 1.08 1.25 2.54 2.35 3.15 3.8 1.28 3 .6 7.54 6.78 5.81-4.91 5.75-6.23 5.26-10.35-3.11-1.56 3.19-2.73 6.33-4.55 9-1 1.43-3.14 3-4.6 2.84-1.25-.13-3-2.5-3.23-4.07-.71-4.9-.81-9.9-1.15-14.85z"/></g><path d="m204 106.32c-1 14.92-2.26 29.38-2.84 43.87-.47 11.77-.28 23.57-.06 35.36.08 4.21-1 5.93-5.56 5.85-14.34-.25-28.68-.14-43-.07-2.82 0-4.92-.06-5-3.84-.86-26.88-1.87-53.75-2.85-81.17z" fill="#fff8ff"/><g fill="#001400"><path d="m150.94 375.16c.79-2.16 1.53-4.34 2.4-6.47.67-1.65 1.5-3.48 3.69-3.14 2.61.39 2.57 2.61 2.59 4.59v13.42c1.87-.5 1.74-1.91 2.21-2.89 1-2.15 1.89-4.62 4.65-4.76s2.79 2.58 3.94 4.32c2.49 3.78 5.08.56 6.15-1.21 3.3-5.48 6.42-5 9.93-.54 2.85 3.66 6.86 2 10.4 2.44 2 .27 5-.58 5.14 2.45.15 2.73-2.71 3.16-4.75 3.4-3.1.36-6.55 1.07-9.35.12-7.26-2.45-12.54.45-16.66 5.63-2.73 3.43-6.92.77-9.5 3.51-3.21 3.42-5.81 2.17-8.09-1.23a1.6 1.6 0 0 0 -1.51-.43c-7.37 3.93-6.66-2.43-7.54-6.13-1.06-4.5-.65-9.26-4.14-13.19-2-2.27.58-11.2 3.2-13 2.85-1.92 4.42-.3 5.26 2.28a23.32 23.32 0 0 1 .91 5.2c.15 1.74 0 3.5 0 5.25z"/><path d="m167.29 278.17c2.78-4.24 5.44-8 10-2.75 1.16 1.33 2-.05 2.52-1.16.88-2 1.54-4.06 2.59-5.92s2.59-3.65 5.12-3.31 3.55 2.48 3.71 4.69c.32 4.44 2.22 4.4 5.22 2.2 1.6-1.17 3.51-2.68 5.15-.58 2 2.49.08 5.18-1.84 5.89-4.38 1.63-7.3 9.08-13.71 3.66-1.45-1.23-2.16 1-2.9 2-2.4 3.23-5.27 4.28-8.44 1.33-2.18-2-3.41-.46-5.05.57-3.24 2-6 1.23-8.16-1.77-2.84-3.9-6.84-4.35-10.07-.94-2 2.14-3.77 5-7.28 3.66s-4.09-4.6-4.55-7.73a84.75 84.75 0 0 1 -1.09-11.12c0-2.2-.18-5.45 2.85-5.66s3.35 2.9 3.62 5.19c.39 3.28.42 6.59.63 10.5 2.58-1.29 2.5-3.48 3.29-5.07 1.05-2.16 2.75-4.05 5-2.86 4.15 2.19 5.13-.16 6-3.3a17.52 17.52 0 0 1 1.28-3.29c.94-1.71 1.93-3.76 4.37-3.13s2.34 2.84 2.21 4.84c-.2 4.44-2.03 8.76-.47 14.06z"/><path d="m257 316.21c-4.82 3.82-8.89 8.63-15.14 3.1-2.12-1.88-2.28 1-3 2.1-.87 1.45-1.19 3.81-3.55 3.11s-2.28-2.93-1.92-4.94c1-5.41 2-10.82 3-16.23.35-1.83 1.08-3.51 3.3-3.51s2.88 1.79 3.36 3.53c.83 3 1.49 6.11 2.34 9.14 1.09 3.88 3 3.72 5.18.84 1-1.24 1.75-2.62 2.69-3.88 1.29-1.72 2.55-3.73 5.06-3.54 2.9.22 3.57 2.67 4.32 4.95a28.26 28.26 0 0 0 1.23 2.69c2.66-1.06 3.3-3.58 4.89-5.21 3.12-3.17 5.33-2.84 7.06 1.19.3.72.34 1.56.66 2.26a10.26 10.26 0 0 0 8.2 6c3.71.5 4.59-3 6-5.58a50.49 50.49 0 0 1 2.41-4.69c.9-1.33 3.37-2.7 3.88-1.61 2.58 5.56 9.36 4.07 12.69 8.11.9 1.08 2 2.1 1.43 3.61s-2 1.42-3.39 1.68c-6.33 1.14-13.08-.53-19 4-3.45 2.64-7.73.59-11.08-1.51-4-2.5-7.46-3.42-11.92-.69-4.59 2.8-7.04-.88-8.7-4.92z"/><path d="m186.05 220.28a13.26 13.26 0 0 1 -1.09 2c-5 6.64-12.73 8.43-20.39 4.4-4-2.09-6.29-1.27-7.56 2.95-.22.76-.52 1.49-.79 2.23-1.23 3.32-3.11 6.25-7 6.17-4.23-.08-6.21-3.4-6.9-7-.92-4.79-2.18-9.63-1.2-14.59.34-1.74.82-3.74 3.12-3.62 2.15.11 2.78 2 3.1 3.76.82 4.56-.59 9.37 1.17 13.83 2.35.22 2.31-1.5 2.64-2.69 1-3.79 1.86-7.64 2.95-11.41.75-2.59 1.17-5.92 4.59-6.13s3.19 3.27 4.42 5.36c1.89 3.19 4.39 5.63 8.59 6 4.39.42 7.69-.3 9.29-4.89a12.6 12.6 0 0 1 1.92-3c1.65-2.31 3.57-4.53 6.73-3.77s3.92 3.74 4 6.53c.11 3.8-.13 6.21 5.58 5.39 3.41-.49 7.79 1.69 11.77 2.56 1.9.41 3.89 1.66 3.36 4.1s-2.56 1.65-4.31 1.86c-5.27.66-10.6-1.68-16 1.14-2.87 1.52-5.16-1.1-5.89-4.1a50.09 50.09 0 0 1 -.79-6.38z"/><path d="m257.3 269.51c-7.25-4.31-11.55 2.8-17.35 4.14-5.45 1.25-6.08-1.32-5.77-5a75.42 75.42 0 0 1 2.42-11.5c.44-1.78 1.46-3.45 3.62-3.2s2.47 2.21 2.85 4-.39 3.95 1.32 6c3.7-3.62 9.38-1.17 13.61-5.1 2.26-2.1 3.81 2.17 4.9 4.3 4.09 8 6.54 9.58 14.3 9 5.22-.4 8.45-2.67 8.54-8.4.05-2.63-.38-6.24 3.45-6.42 3.55-.17 4.3 3.38 4.46 5.94.27 4.29 3.12 5.31 6.26 6.68 2 .87 5 1.86 4.07 4.88s-3.83 1.75-6.09 1.39c-5.14-.82-9.86-1.18-15.13 1.29-7.41 3.45-15.47 1-23.05-1-3.89-.99-4.13-4.13-2.41-7z"/><path d="m145.49 434.59c2.19-1.26 1.88-3.33 2.78-4.76s1.57-3.63 2.57-3.75c3.95-.48 6.56-2.06 9.45-5.07 2.25-2.36 4.2 1.48 4.72 3.95.73 3.51 1 5.54 6.13 5.06s10.59 2.2 15.82 3.79c1.79.54 4 1.74 3.55 4.1-.49 2.71-2.82 1.73-4.77 1.8-6.52.25-13.16-1.08-19.53 1.4a3.7 3.7 0 0 1 -3.33-.69c-5.54-3.38-10-2.44-13.4 2.69-1.53 2.34-3.23 4.76-6.48 4.26-3.45-.53-4.2-3.62-4.26-6.29-.17-8.06 1.08-16 2.21-24 .2-1.42 1.07-2.7 2.73-2.55 1.92.17 2.48 1.78 2.69 3.39.73 5.47-.37 10.89-.88 16.67z"/><path d="m159 329.21c2.86-4.3 4.89-7.26 9.27-4.94 1.28.68 2.28-1.16 3.18-2.16 1.7-1.9 3.76-3 6.27-2 1.93.79 3.29.33 4.82-.9 3.75-3 5.75-.78 6.88 2.73a47.54 47.54 0 0 1 1.16 6.36c.28 1.54.88 3.23-.89 4.22s-3.08-.69-4.64-1.27c-4-1.48-7.69-4.41-12.58-1-3.66 2.56-8.73 5.47-12.59 4.8-5.33-.91-9.47-6.28-16-5.95-1.27.06-2.86-5 .17-5.48 5.76-.88 5.6-5.28 6.92-8.89.95-2.57 1.36-5.33 2.19-7.95.54-1.72 1.52-3.47 3.67-3.18 2.5.33 2.87 2.47 2.74 4.51-.33 5.09-.86 10.16-1.2 15.25a47.73 47.73 0 0 0 .63 5.85z"/><path d="m242.13 221.5c.82-5.17 1.62-10.6 2.56-16 .31-1.75 1-3.67 3.29-3.38s2.46 2.26 2.53 4.06c.08 2-.1 3.93.05 5.88a8.17 8.17 0 0 0 .92 3.17c5.45-.58 8.15 5 13.49 5.56 4.89.49 9.36 2.51 13.76-1.32a4.74 4.74 0 0 1 5-.93 70.78 70.78 0 0 0 20.27 6.28 2.64 2.64 0 0 1 2.35 2.32c.16 1.37-.8 2.16-2 2.59-2.41.9-5.34 2.16-7.38.65-4.52-3.36-10.59-.42-14.81-4.21-.26-.22-.91-.4-1.09-.26-6.34 5.08-13.07 1-19.64 1-2.48 0-4.55-.15-6.47-1.92s-4.49-2.64-6.73-.38c-1.26 1.29-1.4 4.3-4 3.32-2.8-1.02-1.97-3.88-2.1-6.43z"/><path d="m229.39 424.94c-2.72.56-3.58 3-5.22 4.58-1.47 1.39-3.19 2.92-5.13 1.52-2.16-1.56-.88-3.59.35-5.13a55.6 55.6 0 0 0 8.16-13.57c.63-1.52 1.62-2.84 3.46-2.67s2.46 1.68 2.79 3.32c.39 1.92.81 3.84 1.28 5.74 1.66 6.76 6.68 8.82 13.64 7.67 6.76-1.12 14-1.86 20.16 3 .92.73 2.17 1.14 2 2.58-.22 1.68-1.58 2.27-3 2.26a12.49 12.49 0 0 1 -4.56-.77c-5.77-2.4-11-1.36-15.89 2.16-1.64 1.19-3.68 2.85-5.27 1.57-3.31-2.63-5.75-2.65-9.41-.33-2.26 1.44-3.29-1.59-3.56-3.92-.3-2.63 1.63-5.23.2-8.01z"/><path d="m231.68 384.67c3.87-4.85 13.39-7.41 17.87-4.82a21.42 21.42 0 0 0 10 2.7c4 .22 5.55 4.07 8.6 5.7 1 .55.52 2.21-.59 3a4.5 4.5 0 0 1 -6-.16c-2.43-2.28-5.51-2.19-8.21-3.21-5.52-2.08-9.65 2-14.55 1.57-2.15-.17-2.46 2.25-3.63 3.48-3.72 3.9-7.83 3-9.15-2.25-1.94-7.74-1.4-15.56.15-23.31.33-1.67 1-3.85 3.23-3.45s2.17 2.57 2.2 4.3c.13 5.07.08 10.15.08 16.45z"/><path d="m209.06 182.71c-.25-4.44-3.11-69.25-3.34-74.78-.19-4.69-2.51-5.89-6.8-5.92q-27.36-.21-54.71-.86c-4.94-.12-5.66 2.54-6.18 6.56-2.31 17.71-.11 35.36.57 53 .36 9.43.78 18.84.41 28.27 0 1-.48 4.32 1.37 5.82 1.13.9 2.73.86 5.59.79a10.25 10.25 0 0 0 3.59-.69 6.26 6.26 0 0 0 1.66-.84h41.78c1 1.57 6.07 2.87 9.95 1.05a10.52 10.52 0 0 0 4.85-5.27 14.35 14.35 0 0 0 1.26-7.13zm-8.89 5.45h-53.63a18.36 18.36 0 0 1 -.56-6.54c1.43-31.46-1.56-47.62-1.56-47.62-1.22-6.57-.12-13.37.11-20 .1-2.84.7-5.29 4.82-5.08 7.05.36 14.14.1 21.22.1a76.11 76.11 0 0 0 18.88.39c2.65-.29 5.91-.81 7.86 1.12 1.1 1.09 1.13 3.27 1.22 7.59.14 6.48.87 13 .49 19.44-1.37 23.14 8.1 42.23 1.15 50.6z"/></g></g></svg>