<svg viewBox="0 0 496.18 496.18" xmlns="http://www.w3.org/2000/svg"><path d="m0 0h496.18v496.18h-496.18z" fill="none"/><g transform="translate(-7.43 -7.91)"><path d="m26 206.37c1.27 20.47 14.13 35.63 26.77 50.63 7.31 8.62 16.55 16 25.79 22.93 4.91 3.67 7.32 7 7.11 12.91-.42 11.65-.67 23.34 0 35 1.31 24.07 2.72 47.44 24 66.25 11.07 9.79 16.07 25.22 18.56 40.53a64.65 64.65 0 0 0 -33.25 18.55c-14.11 14.35-22.1 31.04-26.9 48.83 2.52.12 5 .26 7.55.43q1.32-4.71 2.93-9.36c6.6-19 17-36 35.86-46.74 4.06-2.33 9.19-3 14.94-4.81 2.31 10 4.73 19.49 6.66 29.09 1.42 7 2 14.24 3.33 21.31.35 1.88 2 3.55 3 5.32 2-1.37 5-2.35 5.79-4.18 1.83-4.08 2.22-8.7 3.83-12.89 5.11-13.29 10.21-26.6 16-39.61 1.3-2.9 5.25-5.46 8.61-6.69a184.07 184.07 0 0 1 22.8-6.51c2.33-.53 6.38-.15 7.53 1.29 10.09 12.67 24.66 17.87 40.09 20.82 24.23 4.62 48.69 5.38 72.29-2.74 9-3.1 17.37-8.3 25.31-13.49 3.89-2.54 6-3.21 10.25-.81a46 46 0 0 0 15.39 5.44c16.49 2.54 33.14 4.12 49.63 6.62 7 1.07 13.86 3.31 20.69 5.3 17.07 5 27.93 14.41 33.22 31.61 2.22 7.23 4.53 14.43 6.79 21.64 3.39.28 6.77.61 10.14 1-3.53-11.65-7.55-23.22-12-34.7a34.5 34.5 0 0 0 -18.14-19.76c-17.76-8.58-36.57-12.4-56.33-14.5-18.23-1.94-36.28-3.5-53.66-11.76-11.29-5.37-15.22-11.07-15-21.51.06-2.48-.7-5-.25-7.43.54-2.91 1.35-7.61 3.12-8.09a22.38 22.38 0 0 1 12.25.65c7.64 2.55 15.14 9 22.27 8.47 9.58-.68 15.94-.54 22.35 7.2 4.62 5.59 11.79 3.2 13.19-3 4-17.43 8.29-34.81 11.78-52.33 2.32-11.7 2.3-23.87 5.34-35.37 9.17-34.65 20.89-68.72 25.38-104.41 2.26-18 7.3-35.92 1.66-53.92-5.53-17.62-10.79-35.47-18.47-52.29-19.48-42.66-47.66-76.16-100.93-85-30.19-5-60.15-7.91-90.07-2.67-52.05 9.13-93.08 36.48-126.8 73.5-27.33 30-47 63.42-42.88 105 .41 4.13-1.32 6.09-5.61 6.23-3.69.13-7.66 1.08-11 .15-8.81-2.42-17.31-5.81-26-8.49-2.48-.75-5.34-.38-8-.52 0 2.3-.41 4.67.09 6.87.67 3.44 2.83 6.64 3 10.01zm188.17 205.63a5.72 5.72 0 0 1 -3.29 3.61c-10.45 3.66-21 7.06-33.21 11.09 6.89-14.4 25.36-29.23 38.53-31.68-.65 5.83-1.09 11.43-2.03 16.98zm115.36 21.68c-11.45 3.47-22.89 8.21-34.66 9.27-24.4 2.18-48.63.75-70.67-11.59-5.11-2.87-5.8-5.6-4.23-10.87 2.4-8 3.28-16.44 4.94-25.39 34.12 17.14 67.85 6.9 100.94-2.54 2.45 12 5.06 24.06 7.16 36.19.26 1.46-1.85 4.41-3.48 4.91zm24.1-125.79c-.63 15.15-2.06 30.29-2 45.43 0 14.14-10 21.36-20.9 26.61-35.63 17.18-72 21.11-108.67 1.92-5.09-2.67-10.2-5.53-15.67-7.28-11.52-3.68-15.89-11.47-16.2-22.1-.54-18.39-1.35-36.77-1.5-55.16-.08-9 10.81-17.53 20.05-17.42 19.37.23 38.74.07 58.11.07v1.11c19.9 0 39.8-.19 59.7.06 12.82.14 27.57 14.87 27.08 26.74zm-177.19-108.6c4.56-20.25 57.35-58.71 88.46-66-15.3 10.1-31.14 19.57-45.77 30.46-14.46 10.75-27.7 22.95-42.69 35.54zm183.79 157.29c0-13.62 0-25 0-36.41 0-1.74.54-3.54.21-5.2-5.12-25.85 15-37.67 33-50.89-3.44 32.7-12.5 63.53-33.21 92.5zm31.89-102.9c-11.12 10.48-22.67 20.58-34.12 30.8l-2.73-.29c.14-2.22-.68-5.31.56-6.5 11.57-11.08 23.5-21.84 35.33-32.7l2.67 1.23c-.49 2.53-.1 5.93-1.71 7.46zm-65.81-91c16.64-5.32 33.87-7.86 51.69-4.37 6.5 1.27 9.69 3.73 10.1 10 1.42 21.79 3.19 43.56 4.57 65.36.11 1.79-1.21 4.18-2.68 5.47-11.4 10-23.21 19.57-34.43 29.73a20.17 20.17 0 0 1 -15.36 5.79c-32.08-.66-64.18-.73-96.28-.93-16.06-.09-32.12 0-48.3 0 17.69-21.08 34.55-40.21 50.26-60.14 20.5-26 48.83-40.8 80.43-50.91zm-84.93-82.15c8.84-4.2 19.34-5.32 29.78-6.39-41.05 16.67-73.4 44.11-105.93 71.34a190.42 190.42 0 0 1 76.15-64.95zm-84.22 217.91c4.53-2 8.52-5 13-7.09 2-.93 5.26-1.55 6.93-.65s3.07 3.85 3.09 5.91c.23 19.83.14 39.66.14 59.48l-1.59 1.13c-5.28-9.82-10.9-19.49-15.71-29.51-3.47-7.22-5.7-14.95-8.82-22.33-1.49-3.53-.79-5.3 2.96-6.94z" fill="#001400"/><g fill="#fff8ff"><path d="m480.61 503c-2.26-7.21-4.57-14.41-6.79-21.64-5.29-17.2-16.15-26.65-33.22-31.61-6.83-2-13.67-4.23-20.69-5.3-16.49-2.5-33.14-4.08-49.63-6.62a46 46 0 0 1 -15.39-5.44c-4.24-2.4-6.36-1.73-10.25.81-7.94 5.19-16.3 10.39-25.31 13.49-23.6 8.12-48.06 7.36-72.29 2.74-15.47-3-30-8.15-40.09-20.83-1.15-1.44-5.2-1.82-7.53-1.29a184.07 184.07 0 0 0 -22.8 6.51c-3.36 1.23-7.31 3.79-8.61 6.69-5.84 13-10.94 26.32-16 39.61-1.61 4.19-2 8.81-3.83 12.89-.82 1.83-3.79 2.81-5.79 4.18-1-1.77-2.64-3.44-3-5.32-1.31-7.07-1.91-14.26-3.33-21.31-1.93-9.6-4.35-19.11-6.66-29.09-5.75 1.79-10.88 2.48-14.94 4.81-18.89 10.78-29.26 27.75-35.86 46.74q-1.62 4.65-2.93 9.36c14.06.96 392.58-.38 404.94.62z"/><path d="m195.62 273.74c17.69-21.08 34.55-40.21 50.26-60.14 20.5-26 48.83-40.81 80.43-50.92 16.64-5.32 33.87-7.86 51.69-4.37 6.5 1.27 9.69 3.73 10.1 10 1.42 21.79 3.19 43.56 4.57 65.36.11 1.79-1.21 4.18-2.68 5.47-11.4 10-23.21 19.57-34.43 29.73a20.17 20.17 0 0 1 -15.36 5.79c-32.08-.66-64.18-.73-96.28-.93-16.06-.07-32.12.01-48.3.01z"/><path d="m266.82 281.05c19.9 0 39.8-.19 59.7.06 12.85.16 27.6 14.91 27.11 26.76-.63 15.15-2.06 30.29-2 45.43 0 14.14-10 21.36-20.9 26.61-35.63 17.18-72 21.11-108.67 1.92-5.09-2.67-10.2-5.53-15.67-7.28-11.52-3.68-15.89-11.47-16.2-22.1-.54-18.39-1.35-36.77-1.5-55.16-.08-9 10.81-17.53 20.05-17.42 19.37.23 38.74.07 58.11.07zm-62.21 38.55c2.07 6.82 7 6.33 11.31 6.25q56.1-1 112.2-2.27c2.11-.05 4.41 0 6.25-.83 1.62-.69 2.71-2.47 4-3.77-1.54-1.09-2.94-2.5-4.67-3.16-1.37-.52-3.14-.14-4.73-.11-38.2.66-76.4 1.28-114.59 2.06-3.14.06-6.28 1.15-9.77 1.83zm-1.49-18.87.26 2.84c2.66.45 5.34 1.36 8 1.3q60.06-1.42 120.1-3.2c2.37-.07 4.67-2 7-3.1-2.31-1.13-4.65-3.29-6.92-3.24q-60.45 1.35-120.88 3.28c-2.55.08-5.04 1.39-7.56 2.12zm125.61 55-.21-3.78c-4.74-.49-9.5-1.57-14.21-1.36-15.86.72-31.7 1.88-47.55 2.9-14.79.95-29.59 1.82-44.35 3-2.26.18-4.38 1.91-6.56 2.92 2.09 1.44 4 3.72 6.31 4.13 3.81.69 7.89.38 11.83.13 27.2-1.75 54.4-3.51 81.58-5.47 4.43-.29 8.77-1.61 13.16-2.46zm15.27-16.6c-6-7.33-126.74-3.66-138.39 4.87 2.93 1 5.22 2.58 7.4 2.46q65.45-3.46 130.99-7.33z"/><path d="m224.91 395.08c34.12 17.14 67.85 6.9 100.94-2.54 2.45 12 5.06 24.06 7.16 36.19.26 1.48-1.85 4.43-3.48 4.93-11.45 3.47-22.89 8.21-34.66 9.27-24.4 2.18-48.63.75-70.67-11.59-5.11-2.87-5.8-5.6-4.23-10.87 2.4-8.02 3.28-16.47 4.94-25.39z"/><path d="m393.49 264.08c-3.48 32.7-12.55 63.53-33.26 92.5 0-13.62 0-25 0-36.41 0-1.74.54-3.54.21-5.2-5.1-25.85 14.99-37.67 33.05-50.89z"/><path d="m178.73 357.22c-5.28-9.82-10.9-19.49-15.71-29.51-3.47-7.22-5.7-14.95-8.82-22.33-1.49-3.53-.79-5.3 3-6.94 4.53-2 8.52-5 13-7.09 2-.93 5.26-1.55 6.93-.65s3.07 3.85 3.09 5.91c.23 19.83.14 39.66.14 59.48z"/><path d="m165.23 145.48a190.42 190.42 0 0 1 76.15-64.95c8.84-4.2 19.34-5.32 29.78-6.39-41.05 16.67-73.4 44.11-105.93 71.34z"/><path d="m264.9 133.29c-15.3 10.09-31.14 19.56-45.77 30.45-14.46 10.76-27.7 23-42.69 35.55 4.56-20.29 57.35-58.71 88.46-66z"/></g><path d="m216.2 395c-.65 5.85-1.09 11.45-2 17a5.72 5.72 0 0 1 -3.29 3.61c-10.45 3.66-21 7.06-33.21 11.09 6.86-14.42 25.3-29.25 38.5-31.7z" fill="#fff"/><path d="m355.31 284.19c.14-2.22-.68-5.31.56-6.5 11.57-11.08 23.5-21.84 35.33-32.7l2.67 1.23c-.53 2.54-.14 5.93-1.75 7.46-11.12 10.48-22.67 20.58-34.12 30.8z" fill="#fff8ff"/><g fill="#001400"><path d="m204.61 319.6c3.49-.68 6.63-1.77 9.8-1.83 38.19-.78 76.39-1.4 114.59-2.06 1.59 0 3.36-.41 4.73.11 1.73.66 3.13 2.07 4.67 3.16-1.32 1.3-2.41 3.08-4 3.77-1.84.79-4.14.78-6.25.83q-56.1 1.19-112.2 2.27c-4.38.08-9.27.57-11.34-6.25z"/><path d="m203.12 300.73c2.52-.74 5-2 7.55-2.12q60.44-1.86 120.88-3.28c2.27-.05 4.61 2.11 6.92 3.24-2.33 1.08-4.63 3-7 3.1q-60 1.84-120.1 3.2c-2.65.06-5.33-.85-8-1.3z"/><path d="m328.73 355.74c-4.39.85-8.73 2.17-13.16 2.49-27.18 2-54.38 3.72-81.58 5.47-3.94.25-8 .56-11.83-.13-2.3-.41-4.22-2.69-6.31-4.13 2.18-1 4.3-2.74 6.56-2.92 14.76-1.2 29.56-2.07 44.35-3 15.85-1 31.69-2.18 47.55-2.9 4.71-.21 9.47.87 14.21 1.36z"/><path d="m344 339.13q-65.57 3.74-131 7.33c-2.18.12-4.47-1.44-7.4-2.46 11.64-8.53 132.4-12.2 138.4-4.87z"/></g></g></svg>