<svg viewBox="0 0 496.62 496.18" xmlns="http://www.w3.org/2000/svg"><path d="m0 0h496.18v496.18h-496.18z" fill="none"/><g transform="translate(-6.43 -6.88)"><g fill="#fff8ff"><path d="m260.81 201.55c-8.06 4.09-16.11 8.21-24.12 12.43-1.81 1-4.11 1.93-5 3.66-1.44 2.77-3.09 4.12-4.86 4.69 2.66 0 5.14-1.13 7.19-5.1.9-1.74 3.22-2.73 5-3.7q12.09-6.39 24.29-12.56c7.15-3.65 14.37-7.14 21.51-10.82 4.42-2.28 8.73-4.8 13.91-7.66-2-1.63-2.47-2.23-2.69-2.13l-2.39 1c.35.27 1 .88 2.32 2-5.14 2.83-9.43 5.32-13.81 7.58-7.07 3.55-14.24 7.06-21.35 10.61z"/><path d="m128.2 230.34c9.93-5 19.66-10.5 29.76-15 34.79-15.52 69.42-31.57 104.64-45.75q6.15-2.47 12.33-4.86-7.44 2.84-14.84 5.78c-35 14-69.39 29.9-103.95 45.25-10 4.46-19.7 9.91-29.56 14.84a42.92 42.92 0 0 1 -4.4 1.76l.17.29c1.96-.76 3.97-1.37 5.85-2.31z"/><path d="m254.24 153.14a4.65 4.65 0 0 0 2.1-.82c2.52-1.7 4.18-7.19 4.14-10.94a63.62 63.62 0 0 0 -1.28-10.95 46.9 46.9 0 0 0 -4-6.81c1 6.33 2.71 12.65 2.77 19 .03 3.52-1.44 8.57-3.73 10.52z"/><path d="m145.05 166.23 4.43-5.58c.07-.65.13-1.29.2-1.93-7.22 1.44-13.3.81-15-8.67l-1.78.56c1.52 10 7.68 10.61 15 9.16l-.19 1.9-4.41 5.53 14.55 27.16a27.43 27.43 0 0 0 4.91-1.47 25.38 25.38 0 0 1 -3.08.81z"/><path d="m152.21 137a145.67 145.67 0 0 0 -15.62 5.17 18.25 18.25 0 0 0 -6.08 3.24 26.08 26.08 0 0 1 4.4-2 146.69 146.69 0 0 1 15.52-5.12c1.56-.38 3.54 1.38 5.33 2.16-.81.85-1.54 2-2.35 2.83l.23-.08c1.54-.57 2.64-2.64 3.94-4-1.8-.78-3.8-2.56-5.37-2.2z"/><path d="m161.82 199a12.33 12.33 0 0 0 3.71-1.57c4.58-2.75 9.63-4.5 14.39-6.9a37.36 37.36 0 0 0 4.92-3.53c-.32-.85-.64-1.69-1-2.54a26.25 26.25 0 0 0 -6.8 1.93 23.49 23.49 0 0 1 4.8-1.16l1 2.5a36.49 36.49 0 0 1 -4.88 3.5c-4.73 2.37-9.75 4.1-14.3 6.82a15.47 15.47 0 0 1 -1.84.95z"/><path d="m194.53 297.59c1.76-4.89 5.31-4.71 9.08-5.29 2.73-.42 5.25-2.62 7.85-4.05a42.73 42.73 0 0 0 4.44-2.58q4.08-2.91 8-6.08c1.14-.92 1.94-2.49 3.16-3.16 5.46-3 11-5.77 16.51-8.79.75-.41 1.08-1.81 1.6-2.75-.45-.73-.9-1.46-1.36-2.19l-1.78.87.74 1.2c-.52.93-.84 2.31-1.6 2.73-5.42 3-11 5.69-16.39 8.68-1.21.67-2 2.22-3.14 3.13-2.59 2.09-5.25 4.1-7.94 6a44 44 0 0 1 -4.41 2.56c-2.59 1.41-5.09 3.59-7.8 4-3.75.57-7.27.4-9 5.23-.16.44-.89.63-1.73.77v.84c1.31-.35 3.47-.31 3.77-1.12z"/><path d="m305 189.65-1.66 1c.63.31 1.53.81 2.88 1.39-22.25 15.74-43.16 31-67.45 38.7l.22.43c25.38-7.59 47-23.44 70.06-39.82-2.52-1.12-3.53-1.98-4.05-1.7z"/><path d="m256.55 242.68c7.35-3.66 14.44-8 21.64-12.05 4.23-2.38 8.58-4.54 12.71-7.12 9.12-5.7 18.13-11.6 27.87-17.86-3-2.3-5.47-2.28-7.69-1.39a8.2 8.2 0 0 1 4.8 1.92c-9.68 6.19-18.63 12-27.69 17.66-4.1 2.56-8.42 4.69-12.62 7-7.16 4-14.19 8.3-21.5 11.91a4.79 4.79 0 0 1 -1 .36 6 6 0 0 0 3.48-.43z"/><path d="m254.17 198.83a2.16 2.16 0 0 0 -1.52.67 9.34 9.34 0 0 0 3.66-.64 9.06 9.06 0 0 1 -2.14-.03z"/><path d="m231.69 253.71-1.89 1c.28.69.55 1.38.83 2.08-16.39 13.1-35.27 20.85-54.52 29.16a19 19 0 0 1 -1.07 1.66c20.43-8.91 40.55-16.86 57.91-30.79z"/><path d="m166.56 284c8.74-4.2 17.48-8.53 25.85-13.58 8.78-5.29 17.19-11.36 25.65-17.27 1.52-1.06 2.53-3 3.74-4.52a19.34 19.34 0 0 0 -1.67-3.15c-8.42-9.46-16.69-19.09-25.44-28.15-1.92-2-6.13-3.45-8.32-2.47l-.29.13a10.29 10.29 0 0 1 6.54 2.75c8.7 8.95 16.92 18.48 25.27 27.84a18.55 18.55 0 0 1 1.67 3.11c-1.2 1.49-2.21 3.42-3.72 4.47-8.41 5.85-16.76 11.85-25.48 17.08-8.32 5-17 9.28-25.68 13.43a6.26 6.26 0 0 1 -2.83.44 7.07 7.07 0 0 0 4.71-.11z"/><path d="m178.21 127.48a14.18 14.18 0 0 0 -10.21 3.52 13.61 13.61 0 0 1 8.26-2.1c1.83 5.49 2.67 9.85 4.61 13.48 5.85 10.94 12.12 21.59 18.16 32.23l9.39-1.12a16.18 16.18 0 0 1 -7.5 6.71 16.75 16.75 0 0 0 9.67-7.6l-9.45 1.12c-6.08-10.75-12.4-21.52-18.29-32.58-1.95-3.7-2.79-8.14-4.64-13.66z"/><path d="m355.86 283.38c-2.26 1.16-4.38 4-6.52 3.9-8.77-.26-14.72 5.65-21.16 10.7-1.95 1.53-4 3-5.95 4.45l1 1.95c2.64-2 5.31-3.88 7.91-5.92 6.48-5.1 12.47-11.08 21.3-10.82 2.15.07 4.29-2.76 6.56-3.94 9.44-4.91 19-9.63 28.39-14.57 3.15-1.65 6.11-3.74 9.16-5.63-.49-1.15-1-2.29-1.46-3.44l-2.89 1.15c.31.73.62 1.46.94 2.19-3 1.87-6 3.94-9.1 5.57-9.35 4.88-18.8 9.55-28.18 14.41z"/><path d="m379.81 226.1a5.65 5.65 0 0 1 -2.73 2.5 2.52 2.52 0 0 0 .8.3 6.17 6.17 0 0 0 5.25-3.11c3.43-8.66 11.73-10.19 17.52-15.2 7.05-6.1 15.84-9.64 23.72-14.58 1.73-1.09 2.83-3.45 4.83-6-2.06-.3-2.79-.68-3.24-.43l-1.64.91c.36.07.77.15 1.25.22-2 2.54-3.08 4.87-4.8 5.94-7.83 4.9-16.56 8.4-23.56 14.43-5.75 4.92-14 6.46-17.4 15.02z"/><path d="m361.93 199.84c-4.2 2.5-9.11 3.49-13.88 4.78l.18.3c5.67-1.82 11.81-2.64 16.9-5.68 8.66-5.17 16.72-11.63 24.9-17.77 3-2.21 5.53-5 8.28-7.59l-1.36-3c-1 .59-2 1.18-3 1.75l1 2.11a109.37 109.37 0 0 1 -8.23 7.51c-8.18 6.09-16.19 12.48-24.79 17.59z"/><path d="m390.25 198.82c-8.6 3-13.26 12.59-22 14.92-1.69.45-3.35 1-5.08 1.38 3-.08 5.61-1.11 8.33-1.83 8.83-2.35 13.52-12.09 22.19-15.08 6.45-2.23 12.47-6.12 18.59-9.48a47.22 47.22 0 0 0 5.69-4.33l-1.22-1.93a47.41 47.41 0 0 0 -6.3 1.21c.9-.16 1.82-.31 2.75-.43.4.64.81 1.28 1.22 1.92a47.52 47.52 0 0 1 -5.66 4.28c-6.12 3.32-12.09 7.17-18.51 9.37z"/><path d="m273.8 246.15a4.87 4.87 0 0 0 2.09-.15 12.16 12.16 0 0 0 -3.51 0c.46 0 .93.07 1.42.15z"/><path d="m399.85 245.67c.34.42.69.84 1 1.27l59.5-33.4c-2.3-1.14-3.17-2-3.72-1.78l-2.47.93c.56.33 1.3.78 2.35 1.3-19.74 11.01-38.23 21.37-56.66 31.68z"/><path d="m388 237.65c-.13.38-.6.61-1.28.82l-.45.91c2.65-.94 4.78-1 5.11-1.91 2.67-7.34 9.24-7.9 14.39-11 9.75-5.81 19.45-11.71 29-17.87 2.18-1.4 3.74-4 6.43-7-2.43-.52-3.43-1.12-4-.8l-1.55.91c.51.14 1.1.31 1.84.46-2.67 2.95-4.22 5.52-6.38 6.91-9.51 6.09-19.15 11.93-28.83 17.67-5.14 3.09-11.67 3.65-14.28 10.9z"/><path d="m229.88 166.91 2.33-1.55c-3.39-15.38-13-27.4-19.82-41.7-.8.29-1.61.6-2.43.94 6.82 14.4 16.53 26.4 19.94 41.74l-.25.16z"/><path d="m145.59 207.76c1-.54 1.56-1.89 2.33-2.87l-.83-1.89a18.15 18.15 0 0 0 -6.1 1.22 17 17 0 0 1 4.36-.66l.81 1.87c-.76 1-1.35 2.31-2.31 2.84-7.34 4.08-14.74 8-22.16 12a21.72 21.72 0 0 1 -3.46 1.52 15.75 15.75 0 0 0 5-1.9c7.51-3.99 14.96-8 22.36-12.13z"/><path d="m220.22 112.63c-8.05 2.87-16 6.06-23.9 9.45a1.82 1.82 0 0 0 -.81.92c7.42-3.15 14.91-6.13 22.48-8.82 1.16-.41 2.9 1.17 4.37 1.82a34.53 34.53 0 0 1 -2.36 4c.5-.25 1-.51 1.47-.8 1.4-.85 2.12-3.1 3.15-4.71-1.48-.69-3.22-2.28-4.4-1.86z"/><path d="m359.7 180.6c-6.65 5-15.2 6.8-24.25 9.93l-.15.45c10.27-3.94 20.12-5.57 27.59-11.19s17.91-7.85 22.33-18l-1.69-2.34-2.71 1.89 1.06 1.46c-4.39 10.05-14.77 12.25-22.18 17.8z"/><path d="m350.43 198.9a17.2 17.2 0 0 0 3.74-.67 18.32 18.32 0 0 1 -2.37.1 2.17 2.17 0 0 0 -1.37.57z"/><path d="m117.59 207.38c-.09 2.58 0 5.16 0 8.27.53-.12 1.05-.27 1.56-.43 0-3.14-.08-5.75 0-8.36.55-15.58 1.19-31.15 1.69-46.73.23-7.42-1.42-8.77-7.77-6.55q-12.76 4.46-25.46 9.17a6.65 6.65 0 0 0 -1.9 1.27 3.11 3.11 0 0 1 .55-.27q12.61-4.63 25.29-9.06c6.31-2.2 8-.86 7.72 6.47-.49 15.41-1.14 30.84-1.68 46.22z"/><path d="m251.18 147.88 2-.61-.15-1.43c-7.73-10.34-10.1-24.74-18.29-34.72l-1.82 1c.05.44.07.89.08 1.35 7.84 10.1 10.18 24.39 18.18 34.41z"/><path d="m213.16 382.78-.13.14c2.21 1.52 4.59 3 5.3 5.12 2.86 8.66 4.58 17.65 2 26.64.2 1.95.45 3.88.82 5.78 4.54-10.42 2.74-20.89-.57-30.94-.96-2.87-4.87-4.52-7.42-6.74z"/><path d="m261.63 285.63c-1.26.5-2.5 1.06-3.73 1.63-6.75 8.72-34.77 25.2-45.27 26.28l-.79.34c6.9 3.62 46.16-19.39 49.79-28.25z"/><path d="m267.2 255.33c2.1-4.05 4.68-4.12 8.57-4.26 4.23-.15 9-2.35 12.44-5.29 10.67-9.18 21-18.57 34.44-22.59 3.42-1 6.37-4.05 9.54-6.15l-1.19-2.61q-1.38.45-2.79.84c.32.73.65 1.45 1 2.17-3.15 2.08-6.08 5.07-9.48 6.09-13.32 4-23.61 13.26-34.21 22.34-3.4 2.91-8.15 5.08-12.36 5.23-3.85.14-6.42.21-8.51 4.22a4.08 4.08 0 0 1 -2.55 1.55c.07.27.15.54.22.81 1.68-.75 4.17-.97 4.88-2.35z"/><path d="m292.69 307.5-1.25.39c.31.24.68.52 1.14.84-4.19 2.32-7.42 4.76-11 5.95-7.81 2.61-15.18 5.18-21 12.57-4.21 5.37-10.16 9.14-15.58 13.22a5.69 5.69 0 0 1 -3.25 1.32c1.27 1.29 3.29 1.44 5.67-.36 5.45-4.13 11.44-7.94 15.68-13.37 5.84-7.47 13.26-10.07 21.12-12.71 3.59-1.2 6.83-3.66 11.06-6-1.89-1.35-2.28-1.94-2.59-1.85z"/><path d="m118.18 284.53c-32.31-32.88-62.59-67.79-85.41-109.92-1.83-3.38-3.37-7-5.69-11.91l-1.14.59c2.42 5.08 4 8.75 5.85 12.2 22.67 41.66 52.75 76.19 84.84 108.7 22.71 23 46 45.24 63.47 74 14.74 24.23 27.84 48.49 21.45 81.29 1-.37 1.86-.66 2.65-.92 5.11-31.66-7.73-55.45-22.12-79.21-17.6-29.08-41.03-51.55-63.9-74.82z"/><path d="m232.67 288.6c.37-.9 2.39-.81 3.46-1.53 5.54-3.73 11-7.57 16.51-11.37-.43-1-.86-1.93-1.3-2.9-.63.32-1.28.61-2 .89l.8 1.77c-5.46 3.76-10.9 7.56-16.4 11.25-1.06.71-3.07.62-3.44 1.51-3.39 8.25-12.08 7.84-17.26 13.31-1.59 1.68-4.52 1.79-8 2.35-.14.33-.3.68-.49 1.08 4.58-1.14 8.66-.79 10.66-2.91 5.3-5.52 14.05-5.11 17.46-13.45z"/><path d="m324.24 266.9c9.08-7.29 17.91-14.94 27-22.26 2.31-1.86 5.1-3 7.68-4.41-.32-1.1-.63-2.2-.94-3.29-1 .3-2 .57-3 .84.25.87.5 1.73.74 2.6-2.55 1.43-5.33 2.52-7.62 4.37-9 7.23-17.77 14.8-26.79 22-2.1 1.69-4.92 2.2-7.2 3.67a93.5 93.5 0 0 0 -12.17 8.6 11.22 11.22 0 0 1 -5.44 3.09c2.77 1.07 5.38-.25 8.24-2.82a95 95 0 0 1 12.26-8.68c2.28-1.48 5.13-2 7.24-3.71z"/><path d="m50.56 186c.92-7.53 1.87-15.31 2.84-23.17a13.73 13.73 0 0 0 -2.25 1.83 13.12 13.12 0 0 1 1.13-.83c-.89 7.24-1.78 14.41-2.63 21.38a9.91 9.91 0 0 0 .91.79z"/><path d="m486.64 229.53 4 11.85 2.94-1.15q-1.79-6-3.59-12z"/><path d="m336.07 276.44c8.12-11.42 20.41-13.67 31.05-19.56 3.17-1.75 6.13-4 9.18-6l-1.18-2.49c-1 .24-2 .5-2.93.77l.84 1.75c-3 2-6 4.18-9.12 5.91-10.57 5.82-22.79 8-30.85 19.35-2.32 3.26-7.24 4.14-10.86 6.35-4.49 2.75-8.73 6-13.34 8.48a3.76 3.76 0 0 1 -1.41.4 5.55 5.55 0 0 0 4.26 0c4.64-2.47 8.91-5.79 13.43-8.57 3.64-2.2 8.59-3.09 10.93-6.39z"/><path d="m471.68 257.1.48.84a96.78 96.78 0 0 1 -7.82 5.88c-34.32 20.88-68.72 41.6-103 62.54-14 8.56-27.84 17.55-41.78 26.28a35.31 35.31 0 0 1 -4.06 2.08l.87 2.07c2-1 4.17-1.84 6.11-3.05 14-8.83 27.94-17.92 42-26.58 34.57-21.16 69.2-42.16 103.75-63.23a96.27 96.27 0 0 0 7.88-5.95l-1.58-2.71z"/><path d="m275.66 295.77c-1.18.37-2.36.75-3.53 1.17-5.67 7.56-33.71 26.1-45.35 30.46l-1.9 1.73c6.75 1.03 48.62-26.36 50.78-33.36z"/><path d="m229.44 103.77.27 1.11 2.51-.87c-.16-.63-.31-1.27-.47-1.9-52.82 13.94-105.08 29.89-154.63 55.58l2.65-.92c48.06-24.26 98.6-39.57 149.67-53z"/><path d="m273.66 158.85c27.13-10.94 55-19.57 82.59-29.15 2.78-1 5.79-1.09 8.7-1.61.24 1 .49 1.94.73 2.91-1.6.84-3.16 1.83-4.76 2.64l1-.37a57.87 57.87 0 0 0 7-3.64l-.74-2.94c-2.92.52-5.95.66-8.75 1.63-28.26 9.86-56.86 18.72-84.64 30.08z"/><path d="m350.17 181.32a15.73 15.73 0 0 1 -4.5 0 7.34 7.34 0 0 0 -4.65.72 8.58 8.58 0 0 1 1.58.08 15.36 15.36 0 0 0 7.57-.8z"/><path d="m291.39 144.15c-4.83-10.55-9.3-20.32-13.74-30q-1.26-1-2.49-2l-1.16 1.15c3.91 8.51 7.82 17 12 26 2 2.7 4 4.52 5.39 4.85z"/><path d="m342.16 224a16.71 16.71 0 0 0 -6.36.08 20.84 20.84 0 0 1 3.31.25c-21.2 15.88-39.94 35.77-63.89 46.12l.51 1.08c25.13-10.19 44.46-31.01 66.43-47.53z"/><path d="m327.24 173.74-.68.21c3.1-.86 6.35-1.62 9.41-2.63-2.97.83-5.97 1.54-8.73 2.42z"/><path d="m375.41 153.84c-15.2 8.62-29.28 20-45.89 25.07 18-4.61 33-16.95 49.19-26.18l-1.18-3.36c-2.11.77-4.53 1.1-6.49 2.07 1.08-.28 2.18-.55 3.21-.92.39 1.11.75 2.22 1.16 3.32z"/><path d="m253.25 106.31c6 11.73 11.77 23.57 17.5 35.44a4.8 4.8 0 0 1 .39 2.13 18.69 18.69 0 0 0 2.13 1.67c.53-2 .69-3.75.06-5q-8.64-18-17.6-35.84c-.84-1.66-2.72-2.66-4.12-4-.33.87-.83 1.77-1.27 2.66a9.59 9.59 0 0 1 2.91 2.94z"/><path d="m289.16 115.4a11.47 11.47 0 0 0 -.7-4l-21.46-15.68a14.47 14.47 0 0 0 .22 3.75z"/><path d="m325.33 107c1.71 2.09 2.35 5.31 4.13 7.28 4.51 5 3.83 7.89-1.61 10.86.84-.35 1.7-.75 2.6-1.22 5.83-3.08 6.64-6 2-11.19-1.8-2-2.44-5.25-4.16-7.36-1.57-1.93-3.85-4.22-5.87-4.3-1.44 0-2.9 1-4.12 1.88a3.36 3.36 0 0 1 1.2-.2c2.01.1 4.28 2.37 5.83 4.25z"/><path d="m306.69 110.36c4.86 10.41 9.86 13.13 19 8.35l-.12-.12c-7.31 2.68-11.74-.54-16.06-9.83-5.06-10.88-2.94-20 6.48-26.25-4.13-3.35-8-3.33-10.51-.4 2.21-.67 4.86 0 7.64 2.28-9.35 6.16-11.45 15.21-6.43 25.97z"/><path d="m302.83 127.31a15.49 15.49 0 0 1 .95 5.36c1 .12 2.05.19 3 .4-.35-2.41-.16-5.13-1.14-7.16-4.72-9.88-9.71-19.59-14.71-29.29-1.1-2.14-2.61-4-4.94-7.5a16.39 16.39 0 0 0 -.68 4.71 40.79 40.79 0 0 1 2.92 4.52c4.95 9.59 9.91 19.2 14.6 28.96z"/><path d="m496.07 214.46c-11-12.94-22.33-25.73-34.84-36.72-16.09-14.14-33.45-26.5-50.35-39.5-22.73-17.51-45.58-34.83-68.28-52.39-4.22-3.26-9.81-6.46-11.5-11.15-2.92-8.1-7.49-8.72-13.64-7.85a64.26 64.26 0 0 0 -7.07 1c-19 4.81-37.87 10-56.89 14.56-66.88 16.14-133 35.64-197.68 60.37-13.6 5.2-29.75 8.17-36.18 27.44-2.13 6.37-1.36 10.6.64 15.75.92 2.38-5.36 47.19-7.41 43.87-5.35 2.72-5.64 4.57-1.4 9.53s8.53 10.24 12.44 15.63c11.67 16.08 22.61 32.86 34.92 48.29 10.46 13.11 22.88 24.27 33.64 37.13 19.47 23.27 38.19 47.33 57.57 70.69a307.8 307.8 0 0 0 24 25.35c10.88 10.43 24.52 10.26 36.07 4.75 22.19-10.58 43.49-23.59 64.78-36.39 32.75-19.68 65.21-40 97.73-60.12 32.32-20 64.76-39.85 96.7-60.63 9.38-6.11 17.79-14.52 25.59-23.07 10.09-11.07 10.78-35.17 1.16-46.54zm-39.41-2.7c.55-.21 1.42.64 3.72 1.78l-59.5 33.4c-.34-.43-.69-.85-1-1.27 18.4-10.31 36.89-20.67 56.66-31.67-1.05-.52-1.79-1-2.35-1.3zm-19.19-9.54c-.74-.15-1.33-.32-1.84-.46l1.55-.91c.57-.32 1.57.28 4 .8-2.69 3-4.25 5.58-6.43 7-9.57 6.16-19.27 12.06-29 17.87-5.15 3.07-11.72 3.63-14.39 11-.33.9-2.46 1-5.11 1.91l.45-.91c.68-.21 1.15-.44 1.28-.82 2.65-7.25 9.18-7.81 14.3-10.85 9.68-5.74 19.32-11.58 28.83-17.67 2.14-1.44 3.69-4.01 6.36-6.96zm-45.25 59 2.89-1.15c.48 1.15 1 2.29 1.46 3.44-3.05 1.89-6 4-9.16 5.63-9.43 4.94-19 9.66-28.39 14.57-2.27 1.18-4.41 4-6.56 3.94-8.83-.26-14.82 5.72-21.3 10.82-2.6 2-5.27 4-7.91 5.92l-1-1.95c2-1.46 4-2.92 5.95-4.45 6.44-5.05 12.39-11 21.16-10.7 2.14.06 4.26-2.74 6.52-3.9 9.38-4.86 18.83-9.53 28.2-14.41 3.13-1.63 6.07-3.7 9.1-5.57-.34-.74-.65-1.47-.96-2.2zm33.35-70.51c-.48-.07-.89-.15-1.25-.22l1.64-.91c.45-.25 1.18.13 3.24.43-2 2.56-3.1 4.92-4.83 6-7.88 4.94-16.67 8.48-23.72 14.58-5.79 5-14.09 6.54-17.52 15.2a6.17 6.17 0 0 1 -5.25 3.11 2.52 2.52 0 0 1 -.8-.3 5.65 5.65 0 0 0 2.73-2.5c3.4-8.56 11.65-10.08 17.4-15 7-6 15.73-9.53 23.56-14.43 1.72-1.1 2.81-3.43 4.8-5.97zm-12.41-7.45c-.93.12-1.85.27-2.75.43a47.41 47.41 0 0 1 6.3-1.21l1.22 1.93a47.22 47.22 0 0 1 -5.69 4.33c-6.12 3.36-12.14 7.25-18.59 9.48-8.67 3-13.36 12.73-22.19 15.08-2.72.72-5.37 1.75-8.33 1.83 1.73-.38 3.39-.93 5.08-1.38 8.78-2.33 13.44-12 22-14.92 6.42-2.2 12.39-6 18.47-9.37a47.52 47.52 0 0 0 5.66-4.28c-.34-.65-.78-1.29-1.18-1.93zm-19.24-10.6c1-.57 2-1.16 3-1.75l1.36 3c-2.75 2.55-5.33 5.38-8.28 7.59-8.18 6.14-16.24 12.6-24.9 17.77-5.09 3-11.23 3.86-16.9 5.68l-.18-.3c4.77-1.29 9.68-2.28 13.88-4.78 8.6-5.11 16.61-11.5 24.73-17.57a109.37 109.37 0 0 0 8.23-7.51zm-43.49 26.24a2.17 2.17 0 0 1 1.37-.57 18.32 18.32 0 0 0 2.37-.1 17.2 17.2 0 0 1 -3.74.67zm33.1-39.46 1.69 2.34c-4.42 10.16-14.87 12.4-22.33 18s-17.32 7.22-27.59 11.22l.15-.45c9.05-3.13 17.6-4.95 24.25-9.93 7.41-5.55 17.79-7.75 22.18-17.81l-1.06-1.46zm-272-4.75q-12.67 4.41-25.29 9.06a3.11 3.11 0 0 0 -.55.27 6.65 6.65 0 0 1 1.9-1.27q12.7-4.69 25.46-9.17c6.35-2.22 8-.87 7.77 6.55-.5 15.58-1.14 31.15-1.69 46.73-.1 2.61 0 5.22 0 8.36-.51.16-1 .31-1.56.43 0-3.11-.07-5.69 0-8.27.54-15.41 1.19-30.81 1.68-46.22.25-7.33-1.39-8.67-7.7-6.47zm10.14 65.55c7.42-3.92 14.82-7.89 22.16-12 1-.53 1.55-1.87 2.31-2.84l-.81-1.87a17 17 0 0 0 -4.36.66 18.15 18.15 0 0 1 6.1-1.22l.83 1.89c-.77 1-1.37 2.33-2.33 2.87-7.4 4.13-14.85 8.14-22.32 12.1a15.75 15.75 0 0 1 -5 1.9 21.72 21.72 0 0 0 3.44-1.49zm88.33-95.64c.82-.34 1.63-.65 2.43-.94 6.85 14.3 16.43 26.32 19.82 41.7l-2.33 1.55-.23-.41.25-.16c-3.45-15.34-13.16-27.34-19.94-41.74zm11.51-5.42c-.47.29-1 .55-1.47.8a34.53 34.53 0 0 0 2.36-4c-1.47-.65-3.21-2.23-4.37-1.82-7.57 2.69-15.06 5.67-22.48 8.82a1.82 1.82 0 0 1 .81-.92c7.89-3.39 15.85-6.58 23.9-9.45 1.18-.42 2.92 1.17 4.4 1.84-1.07 1.63-1.79 3.88-3.19 4.73zm-20.33 54.51 9.45-1.12a16.75 16.75 0 0 1 -9.67 7.6 16.18 16.18 0 0 0 7.5-6.71l-9.46 1.12c-6-10.64-12.31-21.29-18.16-32.23-1.94-3.63-2.78-8-4.61-13.48a13.61 13.61 0 0 0 -8.23 2.13 14.18 14.18 0 0 1 10.21-3.49c1.85 5.55 2.69 10 4.64 13.63 5.89 11.03 12.21 21.8 18.29 32.55zm-23.18 17.5a36.49 36.49 0 0 0 4.88-3.5l-1-2.5a23.49 23.49 0 0 0 -4.8 1.16 26.25 26.25 0 0 1 6.8-1.93c.31.85.63 1.69 1 2.54a37.36 37.36 0 0 1 -4.92 3.53c-4.76 2.4-9.81 4.15-14.39 6.9a12.33 12.33 0 0 1 -3.71 1.57 15.47 15.47 0 0 0 1.84-1c4.51-2.67 9.53-4.4 14.3-6.77zm-20.1 3.17-14.59-27.16 4.41-5.53.19-1.9c-7.31 1.45-13.47.8-15-9.16l1.78-.56c1.68 9.48 7.76 10.11 15 8.67-.07.64-.13 1.28-.2 1.93l-4.43 5.58 14.64 27.47a25.38 25.38 0 0 0 3.08-.81 27.43 27.43 0 0 1 -4.92 1.47zm-4.22-51.14-.23.08c.81-.86 1.54-2 2.35-2.83-1.79-.78-3.77-2.54-5.33-2.16a146.69 146.69 0 0 0 -15.52 5.12 26.08 26.08 0 0 0 -4.4 2 18.25 18.25 0 0 1 6.08-3.24 145.67 145.67 0 0 1 15.58-5.19c1.57-.39 3.57 1.39 5.37 2.18-1.3 1.4-2.4 3.47-3.94 4.04zm-27.1 87.38c9.86-4.93 19.53-10.38 29.56-14.84 34.56-15.35 69-31.22 104-45.25q7.4-3 14.84-5.78-6.18 2.39-12.33 4.86c-35.22 14.18-69.85 30.23-104.64 45.75-10.1 4.5-19.83 10-29.76 15-1.88.94-3.89 1.55-5.85 2.31l-.17-.29a42.92 42.92 0 0 0 4.35-1.76zm128.63-107a46.9 46.9 0 0 1 4 6.81 63.62 63.62 0 0 1 1.28 10.95c0 3.75-1.62 9.24-4.14 10.94a4.65 4.65 0 0 1 -2.1.82c2.29-1.95 3.78-7 3.74-10.52-.07-6.33-1.77-12.6-2.78-18.98zm38.47 57.7 2.39-1c.22-.1.66.5 2.69 2.13-5.18 2.86-9.49 5.38-13.91 7.66-7.14 3.68-14.36 7.17-21.51 10.82q-12.18 6.19-24.29 12.56c-1.82 1-4.14 2-5 3.7-2 4-4.53 5.07-7.19 5.1 1.77-.57 3.42-1.92 4.86-4.69.9-1.73 3.2-2.71 5-3.66 8-4.22 16.06-8.34 24.12-12.43 7.11-3.6 14.28-7.06 21.38-10.7 4.38-2.26 8.67-4.75 13.81-7.58-1.37-1.01-2.03-1.62-2.35-1.89zm-41 18.18a2.16 2.16 0 0 1 1.52-.67 9.06 9.06 0 0 0 2.14 0 9.34 9.34 0 0 1 -3.69.69zm-88 84.12c8.69-4.15 17.36-8.44 25.68-13.43 8.72-5.23 17.07-11.23 25.48-17.08 1.51-1.05 2.52-3 3.72-4.47a18.55 18.55 0 0 0 -1.67-3.11c-8.35-9.36-16.57-18.89-25.27-27.84a10.29 10.29 0 0 0 -6.54-2.75l.29-.13c2.19-1 6.4.49 8.32 2.47 8.75 9.06 17 18.69 25.44 28.15a19.34 19.34 0 0 1 1.67 3.15c-1.21 1.5-2.22 3.46-3.74 4.52-8.46 5.91-16.87 12-25.65 17.27-8.37 5.05-17.11 9.38-25.85 13.58a7.07 7.07 0 0 1 -4.71.11 6.26 6.26 0 0 0 2.83-.42zm11.43 2.4c19.25-8.31 38.13-16.06 54.52-29.16-.28-.7-.55-1.39-.83-2.08l1.89-1 1.26 3.15c-17.36 13.93-37.48 21.88-57.91 30.79a19 19 0 0 0 1.07-1.7zm16.35 11.12c1.76-4.83 5.28-4.66 9-5.23 2.71-.41 5.21-2.59 7.8-4a44 44 0 0 0 4.41-2.56c2.69-1.91 5.35-3.92 7.94-6 1.14-.91 1.93-2.46 3.14-3.13 5.43-3 11-5.7 16.39-8.68.76-.42 1.08-1.8 1.6-2.73l-.74-1.2 1.78-.87c.46.73.91 1.46 1.36 2.19-.52.94-.85 2.34-1.6 2.75-5.47 3-11 5.77-16.51 8.79-1.22.67-2 2.24-3.16 3.16q-3.92 3.17-8 6.08a42.73 42.73 0 0 1 -4.44 2.58c-2.6 1.43-5.12 3.63-7.85 4.05-3.77.58-7.32.4-9.08 5.29-.3.81-2.46.77-3.76 1.13 0-.26 0-.54 0-.84.83-.16 1.56-.35 1.72-.79zm46.57-66-.22-.43c24.29-7.74 45.2-23 67.45-38.7-1.35-.58-2.25-1.08-2.88-1.39l1.66-1c.48-.28 1.49.58 4 1.68-23.04 16.43-44.63 32.28-70.04 39.87zm15 11.65c7.31-3.61 14.34-7.9 21.5-11.91 4.2-2.36 8.52-4.49 12.62-7 9.06-5.63 18-11.47 27.69-17.66a8.2 8.2 0 0 0 -4.8-1.92c2.22-.89 4.69-.91 7.69 1.39-9.73 6.24-18.73 12.14-27.83 17.84-4.13 2.58-8.48 4.74-12.71 7.12-7.2 4.05-14.29 8.39-21.64 12.05a6 6 0 0 1 -3.46.48 4.79 4.79 0 0 0 .98-.36zm21.82 3.2a4.87 4.87 0 0 1 -2.09.15c-.49-.08-1-.14-1.42-.17a12.16 12.16 0 0 1 3.55.05zm-11.24 9.32c2.09-4 4.66-4.08 8.51-4.22 4.21-.15 9-2.32 12.36-5.23 10.6-9.08 20.89-18.36 34.21-22.34 3.4-1 6.33-4 9.48-6.09-.33-.72-.66-1.44-1-2.17q1.41-.39 2.79-.84l1.17 2.61c-3.17 2.1-6.12 5.12-9.54 6.15-13.41 4-23.77 13.41-34.44 22.59-3.42 2.94-8.21 5.14-12.44 5.29-3.89.14-6.47.21-8.57 4.26-.71 1.38-3.2 1.6-4.88 2.35-.07-.27-.15-.54-.22-.81a4.08 4.08 0 0 0 2.61-1.52zm61.95-81.29.68-.21c2.8-.88 5.8-1.59 8.73-2.42-3.06.96-6.31 1.72-9.41 2.63zm12.55 50.38a20.84 20.84 0 0 0 -3.31-.25 16.71 16.71 0 0 1 6.36-.08c-22 16.52-41.3 37.34-66.43 47.53l-.51-1.08c23.95-10.4 42.69-30.29 63.89-46.17zm1.89-42.32a7.34 7.34 0 0 1 4.65-.72 15.73 15.73 0 0 0 4.5 0 15.36 15.36 0 0 1 -7.57.82 8.58 8.58 0 0 0 -1.58-.1zm36.51-32.69 1.18 3.36c-16.21 9.23-31.15 21.57-49.19 26.18 16.61-5.08 30.69-16.45 45.89-25.07-.38-1.1-.77-2.21-1.16-3.32-1 .37-2.13.64-3.21.92 1.98-.97 4.4-1.3 6.51-2.07zm-18.11-21.05c2.8-1 5.83-1.11 8.75-1.63l.74 2.94a57.87 57.87 0 0 1 -7 3.64l-1 .37c1.6-.81 3.16-1.8 4.76-2.64-.24-1-.49-1.94-.73-2.91-2.91.52-5.92.65-8.7 1.61-27.57 9.58-55.46 18.21-82.59 29.15l1.12-.45c27.81-11.4 56.41-20.22 84.67-30.08zm-85.4-15.02 1.21-1.23q1.23 1 2.49 2c4.44 9.72 8.91 19.49 13.74 30-1.44-.33-3.36-2.12-5.48-4.82-4.19-8.92-8.1-17.44-11.96-25.95zm48.47-12.2c2 .08 4.3 2.37 5.87 4.3 1.72 2.11 2.36 5.37 4.16 7.36 4.64 5.15 3.83 8.11-2 11.19-.9.47-1.76.87-2.6 1.22 5.44-3 6.12-5.88 1.61-10.86-1.78-2-2.42-5.19-4.13-7.28-1.55-1.91-3.82-4.18-5.83-4.25a3.36 3.36 0 0 0 -1.2.2c1.17-.92 2.65-1.93 4.07-1.88zm-16.93-19c2.55-2.93 6.38-3 10.51.4-9.42 6.23-11.54 15.37-6.48 26.25 4.32 9.29 8.75 12.51 16.06 9.83l.12.12c-9.15 4.78-14.15 2.06-19-8.35-5-10.76-2.92-19.81 6.44-26-2.84-2.2-5.49-2.91-7.7-2.24zm-19.51 7c2.33 3.49 3.84 5.36 4.94 7.5 5 9.7 10 19.41 14.71 29.29 1 2 .79 4.75 1.14 7.16-.94-.21-2-.28-3-.4a15.49 15.49 0 0 0 -.95-5.36c-4.69-9.76-9.65-19.37-14.61-29a40.79 40.79 0 0 0 -2.92-4.52 16.39 16.39 0 0 1 .66-4.65zm-19.03 6.62 21.42 15.65a11.47 11.47 0 0 1 .7 4l-21.9-15.93a14.47 14.47 0 0 1 -.22-3.72zm-15.43 5c1.4 1.3 3.28 2.3 4.12 4q9 17.79 17.6 35.84c.63 1.29.47 3.06-.06 5a18.69 18.69 0 0 1 -2.13-1.67 4.8 4.8 0 0 0 -.39-2.13c-5.73-11.87-11.53-23.71-17.5-35.44a9.59 9.59 0 0 0 -2.91-2.94c.48-.9.98-1.8 1.31-2.67zm-16.9 10.41c8.19 10 10.56 24.38 18.29 34.72l.15 1.43-2 .61c-8-10-10.34-24.31-18.21-34.42 0-.46 0-.91-.08-1.35zm-3-9c.16.63.31 1.27.47 1.9l-2.51.87-.27-1.11c-51.07 13.43-101.61 28.74-149.67 53l-2.65.92c49.63-25.71 101.89-41.66 154.71-55.6zm-180.52 62.56a13.73 13.73 0 0 1 2.25-1.83c-1 7.86-1.92 15.64-2.84 23.17a9.91 9.91 0 0 1 -.91-.79c.85-7 1.74-14.14 2.63-21.38a13.12 13.12 0 0 0 -1.13.83zm153 273.86c-.79.26-1.66.55-2.65.92 6.39-32.8-6.71-57.06-21.45-81.29-17.48-28.75-40.76-51-63.47-74-32.09-32.51-62.17-67-84.84-108.7-1.87-3.45-3.43-7.12-5.85-12.2l1.14-.59c2.32 4.92 3.86 8.53 5.69 11.91 22.82 42.13 53.1 77 85.41 109.92 22.87 23.27 46.3 45.74 63.9 74.81 14.44 23.77 27.28 47.56 22.17 79.22zm.48-133.55c.19-.4.35-.75.49-1.08 3.45-.56 6.38-.67 8-2.35 5.18-5.47 13.87-5.06 17.26-13.31.37-.89 2.38-.8 3.44-1.51 5.5-3.69 10.94-7.49 16.4-11.25l-.8-1.77c.67-.28 1.32-.57 2-.89.44 1 .87 1.93 1.3 2.9-5.5 3.8-11 7.64-16.51 11.37-1.07.72-3.09.63-3.46 1.53-3.41 8.34-12.16 7.93-17.38 13.45-2.08 2.08-6.16 1.73-10.74 2.91zm8 8.58c10.5-1.08 38.52-17.56 45.27-26.28 1.23-.57 2.47-1.13 3.73-1.63-3.63 8.86-42.89 31.87-49.79 28.25zm8.5 106.92c-.37-1.9-.62-3.83-.82-5.78 2.6-9 .88-18-2-26.64-.71-2.14-3.09-3.6-5.3-5.12l.13-.14c2.55 2.22 6.46 3.87 7.4 6.74 3.33 10.01 5.13 20.44.59 30.9zm3.75-91.33 1.9-1.73c11.64-4.36 39.68-22.9 45.35-30.46 1.17-.42 2.35-.8 3.53-1.17-2.16 6.96-44.03 34.35-50.78 33.32zm59.38-13.78c-7.86 2.64-15.28 5.24-21.12 12.71-4.24 5.43-10.23 9.24-15.68 13.37-2.38 1.8-4.4 1.65-5.67.36a5.69 5.69 0 0 0 3.25-1.32c5.42-4.08 11.37-7.85 15.58-13.22 5.8-7.39 13.17-10 21-12.57 3.56-1.19 6.79-3.63 11-5.95-.46-.32-.83-.6-1.14-.84l1.25-.39c.27-.09.7.46 2.63 1.84-4.27 2.31-7.51 4.77-11.1 5.97zm12.24-33.23a11.22 11.22 0 0 0 5.44-3.09 93.5 93.5 0 0 1 12.17-8.6c2.28-1.47 5.1-2 7.2-3.67 9-7.21 17.79-14.78 26.79-22 2.29-1.85 5.07-2.94 7.62-4.37-.24-.87-.49-1.73-.74-2.6 1-.27 2-.54 3-.84.31 1.09.62 2.19.94 3.29-2.58 1.45-5.37 2.55-7.68 4.41-9.06 7.32-17.89 15-27 22.26-2.11 1.71-5 2.23-7.25 3.71a95 95 0 0 0 -12.25 8.69c-2.86 2.52-5.47 3.84-8.24 2.77zm10.95 9.31a3.76 3.76 0 0 0 1.41-.4c4.61-2.44 8.85-5.73 13.34-8.48 3.62-2.21 8.54-3.09 10.86-6.35 8.06-11.3 20.28-13.53 30.85-19.35 3.14-1.73 6.08-3.93 9.12-5.91l-.84-1.75c1-.27 1.94-.53 2.93-.77l1.18 2.49c-3.05 2-6 4.22-9.18 6-10.64 5.89-22.93 8.14-31.05 19.56-2.34 3.3-7.29 4.19-10.93 6.43-4.52 2.78-8.79 6.1-13.43 8.57a5.55 5.55 0 0 1 -4.26-.08zm160.78-27.5c-34.55 21.03-69.18 42.03-103.71 63.19-14.11 8.66-28 17.75-42 26.58-1.94 1.21-4.07 2-6.11 3.05l-.87-2.07a35.31 35.31 0 0 0 4.06-2.08c13.94-8.73 27.75-17.72 41.78-26.28 34.29-20.94 68.69-41.66 103-62.54a96.78 96.78 0 0 0 7.82-5.88l-.48-.84 2.85-1.83 1.58 2.71a96.27 96.27 0 0 1 -7.92 5.95zm22.37-22.55-4-11.85 3.31-1.29q1.8 6 3.59 12z"/></g><g fill="#001400"><path d="m23.6 206.45c-.11-4.56.08-9.18-.44-13.68-.29-2.46-1.81-4.74-2.73-7.11-2-5.16-2.77-9.39-.64-15.76 6.44-19.27 22.58-22.24 36.18-27.44 64.72-24.73 130.81-44.23 197.69-60.37 19-4.59 37.91-9.75 56.88-14.56a64.44 64.44 0 0 1 7.08-1c6.14-.87 10.71-.25 13.63 7.85 1.69 4.69 7.29 7.89 11.5 11.15 22.7 17.59 45.55 34.91 68.25 52.47 16.89 13 34.25 25.36 50.35 39.5 12.5 11 23.86 23.78 34.83 36.72 9.63 11.37 8.94 35.48-1.19 46.58-7.8 8.54-16.21 17-25.59 23.06-31.93 20.78-64.38 40.59-96.7 60.64-32.52 20.16-65 40.43-97.73 60.11-21.29 12.8-42.59 25.82-64.78 36.4-11.55 5.5-25.19 5.67-36.06-4.76a307.58 307.58 0 0 1 -24-25.34c-19.39-23.37-38.1-47.43-57.58-70.7-10.69-12.9-23.1-24.07-33.55-37.21-12.31-15.43-23.25-32.21-34.91-48.28-3.94-5.43-8.12-10.66-12.44-15.7s-4-6.81 1.39-9.53c2.05 3.32 3.82 6.59 5.95 9.55 4.74 6.57 10.41 12.47 14.36 19.56 12.73 22.83 30.33 40.61 47 59.52 24.4 27.66 47.63 56.59 71.63 84.69a291.34 291.34 0 0 0 26.83 28.19c3.91 3.51 10.21 3.71 15.43 5.41 1.13-5.47 3.27-11 3.22-16.42-.13-15.67-6.1-29.37-13.28-42.46-16.07-29.28-36.71-53.88-59.79-76.58-37.39-36.73-72.73-75.74-98.34-124.19-.54-1-1.25-1.93-3.62-2.89 0 1.88-.68 4.28.1 5.56 25.26 41 51.8 80.6 84.41 115.06 22.25 23.51 43.06 48.88 63.06 74.83 9.24 12 15.15 27.3 22 41.43 1.22 2.52.85 8.46-.71 9.62-2.22 1.66-6.8 1.57-9.33.06-4.27-2.55-8-6.48-11.48-10.41-25.53-29.14-50.82-58.55-76.42-87.63-16.49-18.74-33.95-36.46-49.88-55.76-9.89-12-17.85-26-26.34-39.37-1.1-1.73-.15-5.09.41-7.58 22.49 40.85 52.66 73.11 84.8 103.47-1.52-2.23-2.92-4.57-4.57-6.66-17.73-22.41-35.72-44.57-53.16-67.25-8.57-11.14-16.15-23.24-24.21-34.86-3-4.32-2.16-7 2.64-8.08.85 2.8 1.1 6.16 2.67 8.31q30.06 41.07 60.51 81.79c3.13 4.17 7.07 7.6 10.07 10.72-11.17-15.55-22.65-31.77-34.35-47.79-12.9-17.72-26.02-35.26-39.05-52.88zm178.11 232.73c3.39-1.25 5.49-1.7 7.32-2.74 15.54-8.92 31.2-17.62 46.51-27 33-20.23 65.7-40.9 98.6-61.26 36.3-22.5 72.86-44.46 108.86-67.46 10-6.39 19.09-15 27.52-23.81 9-9.45 9.45-30.34.7-39.52-14.44-15.15-29.41-29.77-45-43.49-12.68-11.17-26.51-20.71-39.86-30.93-22.41-17.16-45-34-67.15-51.61-5.79-4.6-10.07-11.5-15.3-17-1.39-1.46-3.92-2.74-5.68-2.43-11.09 2-22.22 4-33.15 6.83-25.26 6.64-50.29 14.38-75.62 20.63-51.99 12.81-102.75 30.61-153.37 48.86-10.13 3.66-19.61 9.57-30 14.75 2.43 5.08 4 8.75 5.85 12.2 22.67 41.67 52.75 76.19 84.84 108.71 22.71 23 46 45.23 63.47 74 14.75 24.22 27.84 48.47 21.46 81.27zm-120.62-165.52c-.37.37-.73.75-1.1 1.13 8.32 10.6 16.51 21.33 25 31.77 19.88 24.46 40 48.71 59.79 73.22 2.51 3.11 3.95 7.29 5.89 11-5.69 2.78-8.31-2.83-11.2-5.89-11-11.59-21.56-23.63-32-35.77-3.09-3.57-5.37-8-8-12.06l-2.09 2.34c0 .43-.12 1 .08 1.25q31.07 35.89 62.26 71.67c2 2.3 5 3.53 7.53 5.26l1.37-1.67c-.75-2.4-1.13-5.06-2.31-7.16-7.54-13.43-13.93-28-23.18-39.82-20-25.56-41.52-49.74-62.56-74.33-6.27-7.28-12.99-13.99-19.48-20.94zm-53.85-76.34-2.24 1.68 12.24 17.8 1.66-1.36z"/><path d="m81.09 273.66c6.49 6.95 13.21 13.66 19.42 20.91 21 24.59 42.51 48.77 62.56 74.33 9.25 11.8 15.64 26.39 23.18 39.82 1.18 2.1 1.56 4.76 2.31 7.16l-1.37 1.67c-2.53-1.73-5.52-3-7.53-5.26q-31.28-35.67-62.26-71.67c-.2-.23-.06-.82-.08-1.25l2.09-2.34c2.65 4 4.93 8.49 8 12.06 10.48 12.14 21.08 24.18 32 35.77 2.89 3.06 5.51 8.67 11.2 5.89-1.94-3.68-3.38-7.86-5.89-11-19.72-24.48-39.85-48.75-59.72-73.19-8.49-10.44-16.68-21.17-25-31.77.36-.38.72-.79 1.09-1.13z"/><path d="m23.6 206.45c13 17.62 26.15 35.16 39.07 52.88 11.7 16 23.18 32.24 34.35 47.79-3-3.15-7-6.55-10.09-10.72q-30.45-40.71-60.51-81.79c-1.57-2.15-1.82-5.51-2.67-8.31 0-.01-.15.15-.15.15z"/><path d="m27.24 197.32 11.69 18.15-1.66 1.36-12.27-17.83z"/><path d="m219.71 248.36c-1.2 1.48-2.21 3.41-3.71 4.46-8.41 5.85-16.76 11.86-25.49 17.09-8.31 5-17 9.27-25.68 13.42-1.71.82-5.05.54-6.2-.79q-12.78-14.82-24.9-30.35c-5.41-6.93-5.32-10.24 1.92-14 16-8.39 32.41-15.91 48.86-23.21 2.18-1 6.36.49 8.27 2.45 8.69 8.95 16.91 18.48 25.27 27.84a18.14 18.14 0 0 1 1.66 3.09z"/><path d="m119.54 230.29c1.65-1.47 3.11-3.34 5-4.35 47.84-26.19 97.88-46.45 147.83-66.78 27.6-11.24 56-20 84.08-29.75 2.78-1 5.79-1.09 8.69-1.61.25 1 .49 1.94.73 2.91a56.93 56.93 0 0 1 -6.92 3.6c-32.9 11.94-66.13 22.87-98.67 35.92-35 14-69.39 29.89-103.94 45.24-10 4.46-19.7 9.91-29.57 14.84-1.86.93-3.86 1.53-5.8 2.29z"/><path d="m312.64 353c50.43-37.29 105.91-64.36 158.11-98.06l1.57 2.68c-2.61 2-5.08 4.21-7.83 5.88-34.32 20.88-68.72 41.61-103 62.54-14 8.56-27.84 17.55-41.78 26.28a64.77 64.77 0 0 1 -6.07 3z"/><path d="m230.06 105.37-154.06 53.09c49.22-25.43 101.14-41.18 153.6-55z"/><path d="m274.1 113c4.78 10.38 9.55 20.76 14.73 32-7-1.56-25.25-37.6-24.19-47.89l24.68 18c.14-7.85-9.08-13.34-5.86-24.48 2.31 3.46 3.82 5.3 4.91 7.42 5 9.59 9.92 19.2 14.61 29 1 2 .78 4.71 1.13 7.09-2.3-.5-5.17-.22-6.82-1.66-5.25-4.59-10-9.89-15.06-14.79-2.18-2.12-4.61-3.93-6.92-5.88z"/><path d="m113.73 159.89c-10.73 1.78-19.43 9.75-30.28 5.72a13.75 13.75 0 0 1 3-2.15q12.61-4.64 25.3-9.06c6.3-2.2 7.94-.86 7.71 6.47-.49 15.41-1.13 30.81-1.68 46.22-.09 2.58 0 5.17 0 8.27 10.35-2.35 17.67-11.94 27.77-12.09l.82 1.87c-.76 1-1.36 2.31-2.32 2.84-7.34 4.08-14.74 8.05-22.16 12-7.12 3.76-9.55 2.32-9.46-6.63.16-15.41.88-30.82 1.34-46.23.01-2.12-.04-4.29-.04-7.23z"/><path d="m232.53 112.4c8.36 10.14 10.6 24.92 18.8 35.19l2-.61c-.54-4.74-.89-9.53-1.68-14.23-1.39-8.26-3.24-16.43-4.45-24.72-.26-1.8 1.39-3.94 2.15-5.93 1.39 1.29 3.25 2.28 4.09 3.92 6 11.73 11.76 23.57 17.49 35.44.62 1.29.46 3-.07 5-8.07-5.34-10-15.65-15.47-23.12 1 6.33 2.71 12.65 2.77 19 0 3.71-1.61 9.14-4.12 10.82-4.24 2.84-6.94-2.1-8.81-5.88-4.8-9.71-9.38-19.55-13.92-29.41-.58-1.26-.39-3-.56-4.48z"/><path d="m133.08 150.32c1.51 10 7.67 10.61 15 9.16-.07.63-.13 1.27-.2 1.9l-4.4 5.53 14.52 27.16c8.39-1.59 15.57-8.12 24-9.17.31.83.63 1.67.94 2.51a36.66 36.66 0 0 1 -4.88 3.49c-4.73 2.37-9.75 4.1-14.3 6.82-5.64 3.38-8.75 1.63-12-4.24-6.65-12.08-13.91-23.74-21.11-35.43-5.29-8.58-4.55-11.64 4.35-14.91a145.77 145.77 0 0 1 15.58-5.14c1.56-.38 3.55 1.38 5.33 2.16-1.29 1.36-2.38 3.4-3.91 4-6.29 2.3-12.71 4.18-18.92 6.16z"/><path d="m313.28 84.11c-9.36 6.15-11.46 15.2-6.44 26 4.86 10.41 9.86 13.13 19 8.35l-11.92-12.9c1.37-.8 3.58-3.11 5.72-3s4.28 2.34 5.84 4.25c1.7 2.09 2.34 5.31 4.12 7.28 4.62 5.1 3.82 8-2 11.07-9.41 4.95-14.82 3-21.58-6.49-6.65-9.38-8.61-19.21-5.49-30.39 1.97-6.99 7.09-8.75 12.75-4.17z"/><path d="m319 300.8c7.9-9.35 16.83-16.54 28.5-20 5.53-1.63 10.12-6.87 15.55-9.38 9.42-4.36 19.16-7.87 28.77-11.73.48 1.13 1 2.27 1.45 3.4-3 1.87-6 3.94-9.1 5.57-9.36 4.88-18.82 9.55-28.2 14.41-2.26 1.17-4.38 4-6.52 3.9-8.77-.26-14.72 5.65-21.16 10.7-2.57 2-5.23 3.9-7.85 5.85z"/><path d="m204.68 125.52c-3.05 1.31-5.37 2.71-7.83 3.2-1.36.27-3-1-4.46-1.55.66-1.35 1-3.51 2-3.93 7.84-3.35 15.75-6.51 23.75-9.35 1.17-.41 2.9 1.17 4.37 1.82-1 1.6-1.74 3.82-3.13 4.66-2.76 1.67-5.9 2.57-9.27 3.94 6.83 14.37 16.53 26.35 19.94 41.74l-2.31 1.53c-7.65-13.96-15.3-27.92-23.06-42.06z"/><path d="m373.18 250.65c-3 2-6 4.18-9.12 5.91-10.57 5.83-22.78 8.06-30.84 19.35-2.33 3.26-7.25 4.14-10.87 6.35-4.48 2.75-8.72 6-13.33 8.48-1.76.93-4.25.15-6.44-.89 22.74-15.45 42.94-35.32 69.42-41.65.39.8.79 1.63 1.18 2.45z"/><path d="m259.28 254.82c3.62-5.48 7.28-10.25 14.67-9 2.51.44 5.77-1.82 8.17-3.68 8.88-6.86 17.13-14.85 26.43-20.84 5.79-3.72 13.05-4.61 19.65-6.76.38.86.77 1.72 1.16 2.58-3.15 2.08-6.07 5.06-9.48 6.08-13.32 4-23.61 13.26-34.21 22.34a21.51 21.51 0 0 1 -12.35 5.23c-3.86.14-6.43.21-8.51 4.22-.71 1.36-3.19 1.58-4.85 2.32z"/><path d="m208.58 173.18c-3.43 6.27-12.5 10.24-19.37 7.2l5.86-3c-7.95-13.95-15.3-27-22.85-39.86-.57-1-2.47-1.25-3.78-1.33-1.74-.1-3.5.3-5.49-.64 4-5.47 9.14-7.35 13.46-7 1.83 5.49 2.67 9.85 4.61 13.48 5.85 10.94 12.13 21.59 18.16 32.23z"/><path d="m218.44 218.67c1.69-.32 3.4-.56 5.08-1 1.41-.35 3.75-.51 4-1.39 2.23-7.22 8.44-6.52 13.15-8.88 2.57-1.28 4.79-3.47 7.15-5.27 1.36-1 2.8-3.17 4-3 6.29.81 9.83-4.8 14.74-7.08 8.82-4.09 17.89-7.53 26.88-11.19.22-.09.66.49 2.68 2.1-5.15 2.84-9.44 5.32-13.82 7.58-7.09 3.65-14.26 7.1-21.37 10.7-8.07 4.09-16.12 8.21-24.13 12.43-1.81.95-4.1 1.93-5 3.66-3.49 6.7-8.2 5.17-13 4.08z"/><path d="m271.63 267.58c3.28-1.91 6.57-3.79 9.83-5.74 3.94-2.36 8-4.56 11.76-7.23 4.32-3.06 8.41-6.54 12.57-9.89 8-6.43 15.86-13.11 24.07-19.2 2.46-1.82 5.89-2 9.4-1.48-21.82 16.34-41 36.93-66 47z"/><path d="m355.88 240.09c-2.56 1.43-5.34 2.52-7.63 4.37-9 7.23-17.77 14.8-26.78 22-2.11 1.68-4.93 2.2-7.21 3.66a94.19 94.19 0 0 0 -12.17 8.6c-3.63 3.25-6.85 4.5-10.53 1.34 5.51-4.37 10.41-10.7 16.4-12.5 15.53-4.64 23.28-21.36 37.35-27.72 3.08-1.39 6.42-2 9.64-3z"/><path d="m316 205.89c-9.68 6.19-18.63 12-27.68 17.67-4.11 2.55-8.43 4.68-12.63 7-7.15 4-14.19 8.3-21.5 11.91-2.27 1.13-5.25.44-7.64-1.15 14-7.72 28.08-15.26 42-23.24 5.12-3 9.67-7.13 14.65-10.42 3.62-2.35 7.32-5.97 12.8-1.77z"/><path d="m235.74 228.91c1.27-1.08 2.41-2.65 3.84-3.16 22.68-8.14 41.93-23.68 62.81-35.69.48-.27 1.48.58 4 1.67-22.91 16.2-44.37 31.88-69.59 39.38z"/><path d="m456.69 213.7-59.1 33-1.43-1.7c2.47-2.9 4.62-7.77 7.46-8.34 11.31-2.25 18.85-12 28.83-16.55 6.71-3.09 13.66-5.56 20.54-8.17.55-.21 1.42.63 3.7 1.76z"/><path d="m425.73 190.41c-2 2.54-3.09 4.87-4.81 6-7.83 4.89-16.56 8.39-23.56 14.42-5.75 4.95-14 6.47-17.4 15a6.1 6.1 0 0 1 -5.21 3.07c-1.69-.23-3.11-2.79-3.51-3.2 3.36-3.2 5.73-5.68 8.3-7.87 4.52-3.85 8.88-8.08 13.81-11.15 9.53-5.94 19.4-11.2 29.15-16.67.5-.27 1.18.11 3.23.4z"/><path d="m375.57 153.55c-18.68 10.59-35.66 25.33-57.71 27.47.29-4.7 1.11-5 6.58-6.69 7.37-2.31 16.14-3.42 21.39-8.67 6.28-6.27 14.41-6.83 20.55-12.35 2.07-1.85 5.31-2.1 8-3.08z"/><path d="m414.53 184.88a46.47 46.47 0 0 1 -5.66 4.28c-6.08 3.32-12.05 7.17-18.46 9.37-8.61 3-13.27 12.6-22 14.92-3.09.82-6.09 2-9.55 1.79 17.62-12.17 32.59-29.58 54.49-32.28z"/><path d="m383 239.25c3.77-7.46 5.47-13.52 13.33-15.71 7.24-2 13.54-8.12 20.31-12.31 5.6-3.47 11.27-6.81 17-10.08.56-.32 1.55.27 4 .79-2.67 2.94-4.22 5.51-6.38 6.9-9.51 6.09-19.15 11.93-28.83 17.68-5.12 3-11.64 3.59-14.29 10.85-.35.88-2.47.96-5.14 1.88z"/><path d="m242.92 264.48c-.52.93-.84 2.31-1.59 2.73-5.43 3-11 5.7-16.39 8.68-1.22.67-2 2.22-3.15 3.14-2.59 2.08-5.24 4.09-7.94 6a44 44 0 0 1 -4.41 2.56c-2.58 1.41-5.08 3.59-7.8 4-3.75.58-7.27.4-9 5.23-.3.8-2.45.77-3.74 1.12 0-1.49-.49-3.9.11-4.31a106.27 106.27 0 0 1 10.43-6.05c2.55-1.37 5.21-2.49 7.79-3.82a60.93 60.93 0 0 0 5.55-3.16 37.26 37.26 0 0 0 5.4-4.07c1.1-1 1.51-3.28 2.69-3.91 6.83-3.61 13.8-6.91 20.72-10.31z"/><path d="m292.73 308.44c-4.19 2.32-7.42 4.76-11 5.95-7.8 2.61-15.17 5.19-21 12.57-4.22 5.37-10.17 9.14-15.58 13.22-3.39 2.56-6 1.14-6.81-1.85 7.12-5.31 15.35-9.12 20.35-15.89 4.18-5.64 9.17-7.5 14.23-9.93 5.47-2.62 11.41-4 17.15-5.88.32-.09.75.45 2.66 1.81z"/><path d="m395 174.47a109.23 109.23 0 0 1 -8.22 7.51c-8.13 6.07-16.14 12.46-24.74 17.57-5.05 3-11.16 3.82-16.79 5.63-.43-.73-.87-1.46-1.31-2.18 1.62-1.53 3.28-4.4 4.86-4.35 10.54.33 16.18-8.55 23.63-14.3 6.58-5.07 14.11-8.61 21.21-12.83z"/><path d="m230.78 256.54c-17.24 13.78-37.23 21.64-57.52 30.46 1.22-1.64 2.13-4 3.69-4.8 10.66-5.4 21.51-10.37 32.19-15.72 2.06-1 3.51-3.51 5.53-4.73 4.86-3 9.9-5.57 14.87-8.33z"/><path d="m382 162.5c-4.39 10.06-14.77 12.27-22.18 17.82s-17.2 7.17-27.4 11.07c2.25-7 5.18-10.25 10.3-9.54 6.82.94 11.73-2.47 16.89-6.85 6.51-5.52 13.78-9.93 20.72-14.81z"/><path d="m222.77 328c5.39-5 9.7-8.32 15.73-10.71 8.15-3.23 14.72-11.2 22.26-16.65 3.72-2.7 8.09-4.29 12.45-5.63-2.15 6.99-43.74 33.99-50.44 32.99z"/><path d="m259.27 285c-3.6 8.77-42.6 31.52-49.46 27.95 18.29-7.4 32.27-21.1 49.46-27.95z"/><path d="m202.66 304.11c1.28-2.71 1.47-3.9 2-4.19 5.46-2.75 11-5.34 16.49-8 .2-.1.52-.1.59-.25 4-9 13.59-9.18 19.51-15.25 2-2.07 5.15-2.79 7.77-4.13l1.29 2.86c-5.46 3.76-10.9 7.57-16.4 11.25-1.06.71-3.07.62-3.44 1.51-3.38 8.25-12.08 7.84-17.26 13.31-1.95 2.11-6 1.78-10.55 2.89z"/><path d="m211.12 381.08c2.54 2.19 6.42 3.83 7.36 6.67 3.28 9.94 5.07 20.29.56 30.6-2.33-12.18 0-25.61-9.57-35.42z"/><path d="m52.43 163.57c-1 7.78-1.9 15.47-2.82 22.92-6.75-4.97-5.2-17.78 2.82-22.92z"/><path d="m486.07 228.24q1.79 5.92 3.56 11.85l-2.92 1.15-3.93-11.73z"/></g><path d="m203.83 441.23c6.43-33.15-6.76-57.68-21.6-82.18-17.6-29.07-41-51.54-63.9-74.81-32.33-32.88-62.59-67.78-85.41-109.92-1.92-3.48-3.44-7.19-5.92-12.32 10.46-5.23 20-11.21 30.2-14.91 51-18.48 102.07-36.45 154.46-49.44 25.5-6.32 50.7-14.14 76.13-20.85 11-2.91 22.21-4.9 33.38-6.91 1.77-.31 4.31 1 5.71 2.46 5.27 5.59 9.58 12.57 15.4 17.21 22.3 17.78 45.05 34.83 67.61 52.19 13.44 10.33 27.37 20 40.13 31.28 15.66 13.86 30.73 28.65 45.27 44 8.8 9.27 8.36 30.4-.71 39.95-8.46 8.91-17.58 17.58-27.68 24.02-36.27 23.25-73.07 45.46-109.61 68.18-33.12 20.6-66.08 41.5-99.27 61.95-15.41 9.5-31.17 18.29-46.82 27.31-1.83 1.08-3.95 1.56-7.37 2.79zm18.17-192.94a19.35 19.35 0 0 0 -1.68-3.14c-8.41-9.47-16.69-19.1-25.44-28.16-1.92-2-6.12-3.45-8.32-2.47-16.56 7.38-33.07 15-49.19 23.46-7.29 3.83-7.38 7.19-1.94 14.19q12.2 15.69 25.08 30.69c1.15 1.34 4.51 1.63 6.24.8 8.75-4.2 17.48-8.53 25.85-13.58 8.78-5.28 17.19-11.36 25.66-17.27 1.47-1.06 2.49-3.02 3.74-4.52zm-100.89-18.29 1.4 2.33c1.95-.76 4-1.37 5.84-2.31 9.93-5 19.67-10.5 29.76-15 34.79-15.52 69.42-31.57 104.65-45.75 32.76-13.16 66.24-24.21 99.33-36.27a59.43 59.43 0 0 0 7-3.65c-.24-1-.49-2-.74-2.94-2.92.52-5.95.66-8.75 1.63-28.26 9.87-56.86 18.72-84.64 30.08-50.29 20.56-100.66 41-148.83 67.52-1.88 1.01-3.36 2.9-5.02 4.36zm194.4 124.1c.34.79.67 1.58 1 2.37a66.89 66.89 0 0 0 6.11-3.05c14-8.83 27.94-17.92 42.06-26.58 34.52-21.16 69.15-42.12 103.7-63.23a96.27 96.27 0 0 0 7.88-5.95l-1.58-2.66c-52.54 34.06-108.4 61.43-159.17 99.13zm-83.14-250.38-.47-1.9c-52.81 13.94-105.08 29.87-154.63 55.58zm44.35 7.73 1.21-1.25c2.33 2 4.77 3.8 7 5.94 5.08 5 9.87 10.32 15.16 15 1.66 1.45 4.54 1.16 6.86 1.67-.34-2.4-.16-5.13-1.13-7.16-4.73-9.87-9.72-19.59-14.71-29.29-1.11-2.14-2.62-4-4.95-7.5-3.23 11.26 6 16.81 5.9 24.75l-24.87-18.18c-1.07 10.4 17.28 46.84 24.35 48.43zm-161.46 47.4v7.28c-.47 15.58-1.19 31.16-1.35 46.74-.09 9 2.36 10.51 9.53 6.7 7.47-4 14.91-8 22.31-12.1 1-.54 1.56-1.89 2.33-2.87l-.83-1.89c-10.16.15-17.53 9.84-27.95 12.22 0-3.14-.08-5.75 0-8.36.55-15.58 1.2-31.15 1.69-46.73.23-7.42-1.42-8.76-7.77-6.55q-12.77 4.47-25.46 9.17a13.92 13.92 0 0 0 -3 2.17c10.94 4.08 19.7-3.98 30.5-5.78zm119.6-48-1.82 1c.17 1.52 0 3.25.57 4.54 4.56 10 9.18 19.91 14 29.73 1.89 3.82 4.61 8.81 8.88 5.94 2.52-1.69 4.19-7.18 4.15-10.94-.07-6.41-1.77-12.81-2.79-19.21 5.51 7.56 7.44 18 15.57 23.38.53-2 .69-3.75.07-5-5.77-12-11.6-24-17.61-35.84-.84-1.66-2.72-2.66-4.11-4-.78 2-2.43 4.17-2.17 6 1.22 8.38 3.08 16.64 4.48 25 .8 4.74 1.14 9.59 1.69 14.39l-2 .61c-8.23-10.45-10.49-25.36-18.91-35.62zm-100.12 38.32c6.26-2 12.72-3.9 19-6.24 1.54-.57 2.64-2.64 3.94-4-1.8-.79-3.8-2.57-5.37-2.18a147.93 147.93 0 0 0 -15.62 5.17c-9 3.31-9.7 6.4-4.38 15.08 7.25 11.82 14.56 23.61 21.26 35.82 3.25 5.93 6.38 7.7 12.06 4.29 4.58-2.75 9.63-4.5 14.4-6.9a37.94 37.94 0 0 0 4.91-3.53l-1-2.54c-8.53 1.07-15.75 7.67-24.2 9.28l-14.54-27.42 4.43-5.59c.07-.64.13-1.29.2-1.93-7.37 1.42-13.57.76-15.09-9.31zm181.42-66.95c-5.71-4.62-10.86-2.85-12.81 4.16-3.14 11.29-1.17 21.24 5.53 30.72 6.8 9.63 12.25 11.56 21.72 6.56 5.84-3.08 6.64-6 2-11.19-1.8-2-2.44-5.25-4.16-7.36-1.56-1.93-3.84-4.22-5.87-4.3s-4.38 2.26-5.76 3.06l12 13c-9.21 4.83-14.24 2.08-19.13-8.44-5.06-10.84-2.95-19.98 6.48-26.21zm5.84 219.1c.48.93 1 1.85 1.45 2.77 2.64-2 5.32-3.87 7.91-5.91 6.48-5.11 12.47-11.09 21.3-10.82 2.15.06 4.29-2.77 6.56-3.95 9.44-4.91 19-9.63 28.4-14.57 3.14-1.64 6.1-3.74 9.15-5.63-.49-1.14-1-2.29-1.46-3.44-9.67 3.91-19.48 7.46-29 11.87-5.46 2.54-10.09 7.83-15.66 9.48-11.75 3.47-20.75 10.75-28.65 20.2zm-115.17-177.23 23.17 42.53 2.33-1.55c-3.43-15.55-13.2-27.67-20.07-42.2 3.39-1.39 6.55-2.3 9.34-4 1.4-.85 2.12-3.1 3.15-4.71-1.49-.66-3.23-2.26-4.4-1.84-8.06 2.87-16 6.06-23.91 9.45-1 .42-1.36 2.61-2 4 1.51.57 3.12 1.84 4.49 1.56 2.49-.5 4.82-1.91 7.9-3.24zm169.63 126.53-1.19-2.49c-26.66 6.41-47 26.5-69.89 42.12 2.21 1.06 4.71 1.84 6.48.9 4.64-2.46 8.91-5.79 13.43-8.57 3.64-2.24 8.59-3.13 10.94-6.43 8.11-11.41 20.4-13.67 31-19.56 3.21-1.75 6.17-3.97 9.23-5.97zm-114.67 4.21.68 2.56c1.68-.75 4.17-1 4.88-2.35 2.11-4 4.69-4.12 8.57-4.26 4.23-.15 9-2.35 12.44-5.29 10.67-9.18 21-18.57 34.44-22.59 3.43-1 6.37-4.05 9.54-6.15l-1.17-2.61c-6.64 2.18-13.95 3.08-19.78 6.84-9.36 6.05-17.67 14.14-26.6 21.07-2.42 1.88-5.7 4.17-8.23 3.72-7.44-1.31-11.13 3.52-14.77 9.06zm-51-82.55-9.46 1.13c-6.08-10.76-12.4-21.53-18.28-32.59-2-3.67-2.8-8.08-4.64-13.63-4.35-.35-9.49 1.54-13.56 7.08 2 .95 3.78.54 5.53.65 1.32.08 3.24.36 3.81 1.34 7.59 13 15 26.2 23 40.3l-5.9 3c6.88 3.07 16.01-.94 19.46-7.28zm9.93 46 .42 2.79c4.81 1.1 9.55 2.65 13.06-4.12.91-1.75 3.22-2.74 5-3.71q12.11-6.39 24.29-12.56c7.16-3.65 14.38-7.14 21.52-10.82 4.41-2.28 8.73-4.8 13.9-7.66-2-1.63-2.47-2.22-2.69-2.13-9.05 3.7-18.18 7.18-27.06 11.32-4.94 2.3-8.51 8-14.84 7.15-1.22-.16-2.68 2-4 3-2.38 1.83-4.61 4-7.21 5.34-4.74 2.38-11 1.68-13.23 9-.28.89-2.63 1.06-4.05 1.41-1.73.42-3.45.71-5.15.99zm53.55 49.46c.55 1.16 1.1 2.33 1.66 3.5 25.12-10.19 44.46-31 66.42-47.53-3.53-.54-7-.35-9.46 1.49-8.27 6.16-16.17 12.92-24.23 19.42-4.19 3.38-8.31 6.9-12.66 10-3.8 2.7-7.87 4.93-11.84 7.31-3.32 1.97-6.64 3.87-9.93 5.81zm84.73-27.8c-.31-1.1-.63-2.2-.94-3.29-3.24 1-6.6 1.65-9.7 3.06-14.17 6.43-22 23.33-37.6 28-6 1.81-11 8.22-16.52 12.63 3.71 3.2 7 1.93 10.61-1.36a95 95 0 0 1 12.25-8.69c2.3-1.48 5.14-2 7.26-3.7 9.07-7.29 17.91-15 27-22.27 2.31-1.83 5.11-2.93 7.64-4.38zm-40.11-34.58c-5.55-4.25-9.28-.59-12.93 1.83-5 3.33-9.6 7.55-14.76 10.53-14 8.08-28.14 15.7-42.23 23.5 2.4 1.61 5.41 2.3 7.69 1.17 7.36-3.66 14.44-8 21.64-12 4.23-2.38 8.58-4.54 12.71-7.12 9.16-5.75 18.17-11.65 27.92-17.91zm-80.84 23.27c.36.75.73 1.49 1.09 2.23 25.39-7.59 47-23.44 70.06-39.82-2.56-1.1-3.56-2-4-1.68-21 12.13-40.41 27.85-63.24 36.07-1.44.57-2.59 2.11-3.87 3.2zm222.44-15.38c-2.3-1.14-3.17-2-3.72-1.78-6.93 2.64-13.93 5.13-20.69 8.25-10 4.64-17.63 14.47-29 16.74-2.86.57-5 5.5-7.51 8.43l1.44 1.76zm-31.17-23.54c-2.07-.3-2.8-.68-3.25-.43-9.82 5.54-19.75 10.85-29.34 16.85-5 3.11-9.36 7.39-13.91 11.28-2.59 2.22-5 4.72-8.35 8 .4.41 1.83 3 3.52 3.24a6.16 6.16 0 0 0 5.25-3.11c3.43-8.65 11.73-10.19 17.52-15.2 7.05-6.1 15.84-9.64 23.72-14.58 1.77-1.13 2.87-3.49 4.88-6.05zm-50.5-37.27-1.17-3.36c-2.73 1-6 1.24-8.08 3.12-6.18 5.57-14.37 6.14-20.69 12.49-5.28 5.3-14.11 6.42-21.53 8.76-5.51 1.74-6.33 2-6.63 6.76 22.28-2.16 39.33-17.06 58.14-27.77zm39.23 31.68-1.23-1.94c-22.05 2.72-37.12 20.32-54.86 32.63 3.48.23 6.51-1 9.61-1.81 8.84-2.35 13.53-12.09 22.19-15.08 6.46-2.23 12.47-6.12 18.59-9.48a47.22 47.22 0 0 0 5.74-4.32zm-31.71 55c2.66-.94 4.79-1 5.11-1.91 2.67-7.34 9.24-7.9 14.4-11 9.74-5.81 19.45-11.71 29-17.87 2.17-1.4 3.74-4 6.42-7-2.43-.52-3.43-1.12-4-.79-5.73 3.3-11.44 6.68-17.08 10.19-6.81 4.23-13.16 10.41-20.44 12.45-7.86 2.23-9.57 8.35-13.37 15.9zm-141.02 25.48-1.32-2.19c-7 3.44-14 6.76-20.86 10.42-1.19.63-1.61 2.89-2.71 4a37.33 37.33 0 0 1 -5.43 4.07 61.89 61.89 0 0 1 -5.59 3.19c-2.59 1.34-5.27 2.48-7.85 3.87a105.73 105.73 0 0 0 -10.56 6.11c-.61.42-.1 2.86-.11 4.36 1.3-.35 3.46-.32 3.76-1.13 1.76-4.88 5.31-4.71 9.08-5.29 2.74-.42 5.26-2.62 7.86-4.05a43.66 43.66 0 0 0 4.43-2.58q4.08-2.91 8-6.07c1.15-.93 1.95-2.5 3.17-3.17 5.46-3 11-5.77 16.5-8.78.78-.42 1.11-1.82 1.63-2.76zm50.15 44.45c-1.93-1.38-2.36-1.93-2.63-1.84-5.78 1.89-11.76 3.3-17.26 6-5.1 2.46-10.13 4.33-14.33 10-5 6.85-13.32 10.7-20.49 16.06.76 3 3.44 4.46 6.85 1.88 5.45-4.13 11.44-7.94 15.69-13.37 5.84-7.46 13.26-10.07 21.11-12.71 3.59-1.21 6.84-3.67 11.06-6.02zm103-135.46-1.36-3c-7.16 4.26-14.73 7.84-21.35 13-7.51 5.82-13.19 14.79-23.8 14.46-1.59 0-3.26 2.85-4.89 4.39l1.32 2.21c5.67-1.83 11.82-2.65 16.91-5.69 8.66-5.17 16.71-11.63 24.9-17.77a107.08 107.08 0 0 0 8.26-7.6zm-165.36 83-1.25-3.15c-5 2.78-10.07 5.42-15 8.41-2 1.24-3.49 3.74-5.57 4.79-10.75 5.41-21.67 10.44-32.41 15.9-1.57.8-2.48 3.19-3.7 4.85 20.44-8.94 40.56-16.88 57.92-30.82zm152.27-95.08-1.68-2.34c-7 4.94-14.3 9.39-20.86 15-5.2 4.43-10.14 7.88-17 6.93-5.15-.72-8.1 2.58-10.37 9.64 10.27-3.94 20.13-5.57 27.59-11.19s17.94-7.89 22.31-18.06zm-160.38 167.33c6.74 1 48.61-26.36 50.77-33.36-4.39 1.36-8.78 3-12.53 5.7-7.58 5.51-14.2 13.57-22.41 16.84-6.03 2.41-10.37 5.8-15.83 10.82zm36.74-43.5c-17.3 6.94-31.38 20.78-49.79 28.25 6.94 3.62 46.2-19.38 49.83-28.25zm-57 19.33c4.58-1.14 8.66-.79 10.65-2.9 5.22-5.53 14-5.12 17.38-13.46.37-.9 2.4-.81 3.47-1.53 5.53-3.72 11-7.57 16.5-11.37l-1.29-2.9c-2.65 1.36-5.8 2.08-7.83 4.18-6 6.13-15.62 6.31-19.64 15.42-.07.16-.4.16-.6.25-5.54 2.67-11.1 5.29-16.6 8.07-.51.29-.71 1.5-1.99 4.24zm8.52 77.82-1.67 1.87c9.63 9.92 7.3 23.5 9.64 35.81 4.54-10.42 2.74-20.89-.56-30.93-.9-2.88-4.81-4.53-7.36-6.75zm-159.71-219.92c-8.08 5.2-9.64 18.15-2.84 23.17.92-7.53 1.88-15.31 2.84-23.17zm436.55 65.43-3.3 1.29 3.95 11.86 2.95-1.16z" fill="#fff8ff"/></g></svg>