<svg viewBox="0 0 496.18 496.18" xmlns="http://www.w3.org/2000/svg"><path d="m0 0h496.18v496.18h-496.18z" fill="none"/><g transform="translate(-7.43 -8.41)"><g fill="#fff8ff"><path d="m107.88 442.92c11.33-.05 11.33-.05 15.64-11.32.07-.19.14-.38.22-.57 5.64-14.48 5.62-14.37-8.93-17.85-3-.71-4.3.16-5.42 2.86-2.36 5.66-4.79 11.3-7.4 16.84-5.11 10.88-5.46 10.18 5.89 10.04z"/><path d="m57.07 455.83c-8.48-1.35-16.89.14-25.11 2.51a20.76 20.76 0 0 0 -11.73 7.86c-1.29 1.81-3.3 3.57-2.51 6 .91 2.78 3.68 1.9 5.69 1.93 15.35.24 30.71-.42 46 1.31 0-.53 0-1.07 0-1.6 12.18 0 24.38.28 36.56-.1 8.24-.26 16.47-1.27 24.67-2.3 5-.63 6.14-3.58 3.92-8.35-1.34-2.86-3.46-3.6-6.23-3.7-11.6-.45-23.23-.51-34.77-1.66-12.13-1.22-24.36.02-36.49-1.9z"/><path d="m383 376.36a36.27 36.27 0 0 0 -24 12.37c-9.89 11.39-15.3 25.1-16.64 40.4-1 11.09-.88 22.91 5.93 31.69 16.31 21 36 33.39 63.87 27.23 16-3.53 28.28-9.56 33.9-26.12a92.56 92.56 0 0 0 4.59-29.33c.22-6.09-.23-12.07-2.76-17.64-11.03-24.43-38.12-41.16-64.89-38.6zm4.81 91.47c-11-2.3-17.79-10.73-22.28-21.17-6.34-14.73-.36-38.27 11.72-46.4 11.82-8 24.38-8.17 36.53-1.89s15.11 18.68 15.87 29.6c-.89 26.03-16.65 45.13-41.86 39.86z"/><path d="m360.55 346.31c18.4-9.32 37.19-9.49 55.88-.48 3.77 1.81 5.11-.31 5.48-3.77.82-7.87.42-15.75 0-23.62q-2.35-47.46-4.8-94.93h.43c0-3.73 0-7.46 0-11.2-.05-7.85-.91-9.22-8.34-9.43-20.72-.58-40.76 2.94-59.74 12.1-2 1-3.84 2.16-4.05 4.85-.69 8.82-6.08 15.17-10.73 21.77-4.05 5.74-13.61 9.16-17.8 6-5.85-4.43-9.24-1.65-12.74 2.89-1.86 2.42-3.64 4.9-5.62 7.2-3.09 3.59-4.23 7.16-1.38 11.67 3.66 5.8 2.53 11.05-1.62 16.42a131.51 131.51 0 0 0 -24.79 53.06c-3.53 16.18-6.38 32.49-9.45 48.76-2.16 11.47-4.47 13.26-14.76 9.53-4.85-1.76-6.83-.55-7.61 4.38-.19 1.22-.77 2.36-1.07 3.56-4.3 17-7.08 34.14-2.84 51.53 3 12.15 9.57 16.86 21.41 17.36 16.49.68 33 1.61 49.46 2.49 6.27.34 9.21-3.46 6.37-9.23-5.75-11.65-8.39-24-9.13-37-.9-15.77 1.68-30.37 10.22-43.78 11.88-18.61 28.6-30.69 47.22-40.13z"/><path d="m228.22 175.58c-9.61-7.09-12.3-6.57-18.51 3.8-1.25 2.09-2.3 4.33-3.4 6.53-11.16 22.4-20.77 45.54-30.44 68.69-14.08 33.74-31.71 65.74-44.52 100.15-5.43 14.58-5.86 14.29 8.18 19.72 3.72 1.43 6.11.87 8.66-2.46 7.32-9.56 10.95-21.08 15.18-32.11 20.35-53 38.53-106.95 64.56-157.34.75-1.45 1.31-3 1.8-4.14a2.91 2.91 0 0 0 -1.51-2.84z"/><path d="m490.41 115.42a94.6 94.6 0 0 0 -1.78-14.76c-5.21-23.84-20-40.38-38.07-54.17-12.11-9.25-26.22-14-40.24-19-15.56-5.5-31.31-8.65-47.55-5-13.76 3.11-28.1 3.91-40.62 12.13-33.84 22.22-62 50.75-85.61 84.41-5.27 7.5-5.12 7.83 3.47 11.14a21.67 21.67 0 0 1 5.39 2.48c3 2.29 5.15 1.53 7.6-1.14 8.63-9.34 17.38-18.54 26.19-27.69 14-14.57 28.49-28.54 46-38.52 39-22.22 77.91-26.44 116.36 1.21 16.74 12 29.21 27.48 30.3 49.94.9 18.62 1.33 37.3 1 55.93-.31 17.47-4.34 34.06-14.91 48.2a8.16 8.16 0 0 0 -1.75 5.73c.3 4.34.32 8.7.53 13 .07 1.38-.53 3.21 1 3.94 1.76.85 2.87-.84 4-1.92 20.28-19.33 32.75-42.66 31.42-72.55-.9-17.78-1.72-35.58-2.73-53.36z"/><path d="m150 386.64a312.61 312.61 0 0 1 -37.14-14c-4.07-1.9-7.92-2.79-11.31 1.23a13.48 13.48 0 0 0 -.94 15.06 30.41 30.41 0 0 0 12.89 11.44c8.13 3.82 16.6 6.38 25.13 8.91 9.49 2.82 15.51-1.72 15.44-13-.74-2.89.93-8.04-4.07-9.64z"/><path d="m257.26 149.89c-4.84-2.74-9.44-6-14.27-8.71a81.63 81.63 0 0 0 -24.14-9.33c-6.11.34-5.19 6.62-7.74 9.88a4.57 4.57 0 0 0 .91 6.64c4.82 3.77 8.44 9 14.52 11.35 5.7 2.21 11.31 4.61 17.18 6.36 8 2.39 12.89.33 16.26-7.45 1.67-3.85 1.02-6.63-2.72-8.74z"/><path d="m499.92 115.59a78.82 78.82 0 0 0 -10.33-39.7c-11.77-20.34-27.87-36.25-48.18-46.31-24.99-12.37-51.31-20.16-79.41-17.28-15.71 1.6-31.4 3.7-45.45 12.11-19.32 11.59-36.19 26.47-52.55 41.99-15.08 14.25-27 31.18-37.84 49.08-1.63 2.71-3.32 4.68-6.85 5-17.46 1.5-26.47 20.15-16.61 35.45 3.76 5.83 2.94 9.64 0 14.94a600.74 600.74 0 0 0 -28.06 56.77c-7 16.48-13.07 33.39-20.69 49.51-12.37 26.15-25.44 51.94-36.45 78.79-1.81 4.42-4 6.53-8.77 6.29-7.23-.38-12.39 3.54-15.66 10.12-3.45 6.94-4 14.55.55 20.63 5.73 7.59 6 14.79 2.19 22.94a69.54 69.54 0 0 0 -4.27 10.23c-4 14.19-12.32 20.62-26.53 16.93-3.94 0-7.88.09-11.82 0-16.93-.47-31.15 4.41-40.95 20.44-6 9.81-3 19.82 7.89 22.33 4.67 1.08 9.38.78 14.1.25 5.86-.67 11.66-1.84 17.62-1.62 20.44.77 40.88 1.63 61.34 1.91 8 .11 16.17-1 23.37-5.52 4.12-2.58 7.81-5.58 8.2-11.33.63-9.26-5.76-21.25-13.88-24.67-3.3-1.39-3.71-3.05-2.46-6.06 2.38-5.7 4.74-11.4 7-17.15 1.1-2.81 3.14-3.46 5.71-3.26 20.12 1.56 25.35-18.58 18.79-31.93-3.28-6.67-2.8-11.84-.12-18 19.29-44.28 34.25-90.47 53.2-134.94 6.94-16.28 14.43-32.24 22-48.18 1.27-2.66 2.37-6.26 6.13-5.77 4.17.55 7.91-1 11.39-2.59 12.1-5.53 22.69-19.14 12.37-35-2.54-3.9-1.95-7.06.43-10.77 5-7.85 12.22-13.41 18.39-20.06 13.5-14.52 27.6-28.16 44.72-38.09 36.6-21.16 73-25.19 109 1.27 14.27 10.48 25.38 23.69 25.91 43 .53 19 2.31 38.1 1.25 57.18-.59 11.4-1.59 23.48-8.24 32.61-7.85 10.77-11.28 21.82-10.17 35.12.53 6.35-.43 12.83-.33 19.25 0 3 1.28 6.61 5 4.77 9.4-4.65 19.53-8.57 26.08-17.62 16.47-22.73 25.6-48.24 25.7-77.17.04-18.7-2.63-37.2-2.71-55.89zm-371.55 343.78c2.77.1 4.89.84 6.23 3.7 2.22 4.77 1.11 7.72-3.92 8.35-8.2 1-16.43 2-24.67 2.3-12.18.38-24.38.1-36.56.1v1.6c-15.31-1.73-30.67-1.07-46-1.31-2 0-4.78.85-5.69-1.93-.79-2.41 1.22-4.17 2.51-6a20.76 20.76 0 0 1 11.73-7.84c8.22-2.37 16.63-3.86 25.11-2.51 12.13 1.92 24.36.68 36.53 1.88 11.5 1.15 23.13 1.21 34.73 1.66zm-26.37-26.49c2.61-5.54 5-11.18 7.4-16.84 1.12-2.7 2.45-3.57 5.42-2.86 14.55 3.48 14.57 3.37 8.93 17.85-.08.19-.15.38-.22.57-4.31 11.27-4.31 11.27-15.64 11.32s-11.01.84-5.89-10.04zm36.61-23.61c-8.53-2.53-17-5.09-25.13-8.91a30.41 30.41 0 0 1 -12.89-11.44 13.48 13.48 0 0 1 .94-15.06c3.39-4 7.24-3.13 11.31-1.23a312.61 312.61 0 0 0 37.14 14c5 1.6 3.36 6.75 4.07 9.59.06 11.33-5.96 15.87-15.45 13.05zm89.33-226.71c-26 50.39-44.21 104.35-64.56 157.34-4.23 11-7.86 22.55-15.18 32.11-2.55 3.33-4.94 3.89-8.66 2.46-14-5.43-13.61-5.14-8.18-19.72 12.81-34.41 30.44-66.41 44.52-100.15 9.67-23.15 19.28-46.29 30.44-68.69 1.1-2.2 2.15-4.44 3.4-6.53 6.21-10.37 8.9-10.89 18.51-3.8a2.91 2.91 0 0 1 1.51 2.84c-.5 1.15-1.06 2.69-1.81 4.14zm32.06-23.93c-3.37 7.78-8.22 9.84-16.26 7.45-5.87-1.75-11.48-4.15-17.18-6.36-6.08-2.35-9.7-7.58-14.52-11.35a4.57 4.57 0 0 1 -.91-6.64c2.55-3.26 1.63-9.54 7.74-9.88a81.63 81.63 0 0 1 24.13 9.33c4.83 2.75 9.43 6 14.27 8.71 3.73 2.11 4.38 4.89 2.73 8.74zm201.74 82.8c-1.12 1.08-2.23 2.77-4 1.92-1.51-.73-.91-2.56-1-3.94-.21-4.34-.23-8.7-.53-13a8.16 8.16 0 0 1 1.75-5.73c10.57-14.14 14.6-30.73 14.91-48.2.33-18.63-.1-37.31-1-55.93-1.09-22.46-13.56-37.91-30.3-49.94-38.45-27.65-77.31-23.43-116.36-1.21-17.54 10-32 24-46 38.52-8.81 9.15-17.56 18.35-26.19 27.69-2.45 2.67-4.56 3.43-7.6 1.14a21.67 21.67 0 0 0 -5.39-2.48c-8.59-3.31-8.74-3.64-3.47-11.14 23.63-33.66 51.77-62.19 85.61-84.41 12.52-8.22 26.86-9 40.62-12.13 16.24-3.66 32-.51 47.55 5 14 5 28.13 9.7 40.24 19 18.05 13.79 32.86 30.33 38.07 54.17a94.6 94.6 0 0 1 1.78 14.76c1 17.78 1.83 35.58 2.73 53.36 1.31 29.79-11.16 53.12-31.44 72.55z"/><path d="m337.8 478.21c-12.54-12.69-20.59-27.53-19.75-44 .31-11.46.66-20.31 4.37-28.66 12-27 31.5-43.29 59.85-47.28a53.93 53.93 0 0 0 8-2.18c5.66-1.71 11.2-2 16.69.77a104.25 104.25 0 0 0 11.34 5.2c7.8 2.81 13.86-1 14.56-9.81a269.29 269.29 0 0 0 .93-29.79c-.73-24-2.17-48-2.95-72-.47-14.3-.95-28.58-2.85-42.76-1.16-8.7-4.79-12-12.89-13.74-6.72-1.42-13.33-.6-20-.17-18.62 1.21-36.7 4.91-53.4 14.12-32.91 18.15-56.1 46.27-73.36 80.25-16.63 32.75-26 68.42-36.67 103.54-5.44 17.9-9.52 36.09-7.84 55 2 22.08 9.4 33.88 27 36.76a48.81 48.81 0 0 0 7 .57c19.06.39 38.12.48 57.13 2.79 6.73.82 13.68 1.32 20.53.08 2.19-.4 4.45-.78 5-3.55.51-2.47-1.24-3.68-2.69-5.14zm-24.43-91.79c-8.54 13.41-11.12 28-10.22 43.78.74 13 3.38 25.33 9.13 37 2.84 5.77-.1 9.57-6.37 9.23-16.49-.88-33-1.81-49.46-2.49-11.84-.5-18.44-5.21-21.41-17.36-4.24-17.39-1.46-34.56 2.84-51.53.3-1.2.88-2.34 1.07-3.56.78-4.93 2.76-6.14 7.61-4.38 10.29 3.73 12.6 1.94 14.76-9.53 3.07-16.27 5.92-32.58 9.45-48.76a131.51 131.51 0 0 1 24.79-53.06c4.15-5.37 5.28-10.62 1.62-16.42-2.85-4.51-1.71-8.08 1.38-11.67 2-2.3 3.76-4.78 5.62-7.2 3.5-4.54 6.89-7.32 12.74-2.89 4.19 3.18 13.75-.24 17.8-6 4.65-6.6 10-13 10.73-21.77.21-2.69 2-3.87 4.05-4.85 19-9.16 39-12.68 59.74-12.1 7.43.21 8.29 1.58 8.34 9.43v11.2h-.43q2.4 47.48 4.8 94.93c.38 7.87.78 15.75 0 23.62-.37 3.46-1.71 5.58-5.48 3.77-18.69-9-37.48-8.84-55.88.48-18.66 9.46-35.38 21.54-47.22 40.13z"/><path d="m433.46 377.52c-5.89-5.14-12.24-10-20-11.43-19.48-3.62-38.23-.1-54 12-17.6 13.49-24.59 33.7-25 56.38-.08 7.36.44 14.57 2.91 21.47 7.4 20.68 22.16 33.43 40.53 42.74 9.4 4.77 18.71 5.5 28.63 3.37 6.39-1.37 12.41-3.95 18.63-5.88a38.29 38.29 0 0 0 22.12-17.64c20.05-34.39 17.37-73.77-13.82-101.01zm17.23 55.08a92.56 92.56 0 0 1 -4.59 29.33c-5.62 16.56-17.92 22.59-33.9 26.12-27.91 6.16-47.56-6.19-63.87-27.23-6.81-8.78-6.89-20.6-5.93-31.69 1.34-15.3 6.75-29 16.64-40.4a36.27 36.27 0 0 1 23.96-12.37c26.79-2.56 53.88 14.17 64.95 38.6 2.51 5.57 2.96 11.55 2.74 17.64z"/><path d="m413.76 398.37c-12.15-6.28-24.71-6.07-36.53 1.89-12.08 8.13-18.06 31.67-11.72 46.4 4.49 10.44 11.24 18.87 22.28 21.17 25.21 5.27 40.97-13.83 41.84-39.83-.76-10.95-3.7-23.33-15.87-29.63z"/></g><g fill="#001400"><path d="m65 443.06c14.21 3.69 22.5-2.75 26.53-16.93a69.54 69.54 0 0 1 4.27-10.23c3.79-8.15 3.54-15.35-2.19-22.94-4.59-6.08-4-13.69-.55-20.63 3.27-6.58 8.43-10.5 15.66-10.12 4.73.24 7-1.87 8.77-6.29 11-26.85 24.08-52.64 36.45-78.79 7.62-16.12 13.74-33 20.69-49.51a600.74 600.74 0 0 1 28.06-56.77c2.94-5.3 3.76-9.11 0-14.94-9.86-15.3-.85-33.95 16.61-35.45 3.53-.3 5.22-2.27 6.85-5 10.77-17.88 22.72-34.81 37.85-49.06 16.41-15.52 33.28-30.45 52.55-42 14-8.4 29.69-10.5 45.45-12.1 28.15-2.88 54.47 4.91 79.46 17.28 20.31 10.06 36.41 26 48.18 46.31a78.82 78.82 0 0 1 10.33 39.7c0 18.69 2.75 37.19 2.69 55.89-.1 28.93-9.23 54.44-25.7 77.17-6.55 9-16.68 13-26.08 17.62-3.7 1.84-4.94-1.77-5-4.77-.1-6.42.86-12.9.33-19.25-1.11-13.3 2.32-24.35 10.16-35.12 6.65-9.13 7.61-21.21 8.24-32.66 1.06-19.08-.72-38.13-1.25-57.18-.56-19.29-11.67-32.47-25.94-42.95-36-26.46-72.39-22.43-109-1.27-17.12 9.9-31.22 23.57-44.75 38.14-6.17 6.65-13.35 12.21-18.39 20.06-2.38 3.71-3 6.87-.43 10.77 10.32 15.81-.27 29.42-12.37 35-3.48 1.6-7.22 3.14-11.39 2.59-3.76-.49-4.86 3.11-6.13 5.77-7.56 15.94-15.05 31.9-22 48.18-18.93 44.47-33.89 90.66-53.23 134.93-2.68 6.13-3.16 11.3.12 18 6.56 13.35 1.33 33.49-18.79 31.93-2.57-.2-4.61.45-5.71 3.26-2.26 5.75-4.62 11.45-7 17.15-1.25 3-.84 4.67 2.46 6.06 8.12 3.42 14.51 15.41 13.88 24.67-.39 5.75-4.08 8.75-8.2 11.33-7.2 4.5-15.33 5.63-23.37 5.52-20.46-.28-40.9-1.14-61.34-1.91-6-.22-11.76.95-17.62 1.62-4.72.53-9.43.83-14.1-.25-10.9-2.51-13.89-12.52-7.89-22.33 9.8-16 24-20.91 41-20.44 3.91.03 7.83-.06 11.83-.06zm428.14-274.28c-.9-17.78-1.72-35.58-2.73-53.36a94.6 94.6 0 0 0 -1.78-14.76c-5.21-23.84-20-40.38-38.07-54.17-12.11-9.25-26.22-14-40.24-19-15.56-5.5-31.31-8.65-47.55-5-13.76 3.11-28.1 3.91-40.62 12.13-33.84 22.22-62 50.75-85.61 84.41-5.27 7.5-5.12 7.83 3.47 11.14a21.67 21.67 0 0 1 5.39 2.48c3 2.29 5.15 1.53 7.6-1.14 8.63-9.34 17.38-18.54 26.19-27.69 14-14.57 28.49-28.54 46-38.52 39-22.22 77.91-26.44 116.36 1.21 16.74 12 29.21 27.48 30.3 49.94.9 18.62 1.33 37.3 1 55.93-.31 17.47-4.34 34.06-14.91 48.2a8.16 8.16 0 0 0 -1.75 5.73c.3 4.34.32 8.7.53 13 .07 1.38-.53 3.21 1 3.94 1.76.85 2.87-.84 4-1.92 20.28-19.33 32.75-42.66 31.42-72.55zm-263.41 9.64a2.91 2.91 0 0 0 -1.51-2.84c-9.61-7.09-12.3-6.57-18.51 3.8-1.25 2.09-2.3 4.33-3.4 6.53-11.16 22.4-20.77 45.54-30.44 68.69-14.08 33.74-31.71 65.74-44.52 100.15-5.43 14.58-5.86 14.29 8.18 19.72 3.72 1.43 6.11.87 8.66-2.46 7.32-9.56 10.95-21.08 15.18-32.11 20.35-53 38.53-106.95 64.56-157.34.75-1.45 1.31-2.99 1.8-4.14zm-160.3 297v-1.6c12.18 0 24.38.28 36.56-.1 8.24-.26 16.47-1.27 24.67-2.3 5-.63 6.14-3.58 3.92-8.35-1.34-2.86-3.46-3.6-6.23-3.7-11.6-.45-23.23-.51-34.77-1.66-12.17-1.2-24.4 0-36.53-1.88-8.49-1.35-16.89.14-25.11 2.51a20.76 20.76 0 0 0 -11.73 7.86c-1.29 1.81-3.3 3.57-2.51 6 .91 2.78 3.68 1.9 5.69 1.93 15.37.22 30.73-.44 46.04 1.29zm84.57-79.19c-.71-2.84.91-8-4.07-9.59a312.61 312.61 0 0 1 -37.14-14c-4.07-1.9-7.92-2.79-11.31 1.23a13.48 13.48 0 0 0 -.94 15.06 30.41 30.41 0 0 0 12.89 11.44c8.13 3.82 16.6 6.38 25.13 8.91 9.53 2.81 15.55-1.73 15.44-13.05zm64.81-264.38c-6.11.34-5.19 6.62-7.74 9.88a4.57 4.57 0 0 0 .91 6.64c4.82 3.77 8.44 9 14.52 11.35 5.7 2.21 11.31 4.61 17.18 6.36 8 2.39 12.89.33 16.26-7.45 1.67-3.85 1-6.64-2.72-8.74-4.84-2.74-9.44-6-14.27-8.71a81.63 81.63 0 0 0 -24.1-9.33zm-111 311.07c11.33-.05 11.33-.05 15.64-11.32.07-.19.14-.38.22-.57 5.64-14.48 5.62-14.37-8.93-17.85-3-.71-4.3.16-5.42 2.86-2.36 5.66-4.79 11.3-7.4 16.84-5.04 10.88-5.39 10.18 5.96 10.04z"/><path d="m318.05 434.18c-.84 16.5 7.21 31.34 19.75 44 1.45 1.46 3.21 2.67 2.74 5.08-.54 2.77-2.8 3.15-5 3.55-6.85 1.24-13.8.74-20.53-.08-19-2.31-38.07-2.4-57.13-2.79a48.81 48.81 0 0 1 -7-.57c-17.6-2.88-25-14.68-27-36.76-1.68-18.89 2.4-37.08 7.84-55 10.68-35.12 20-70.79 36.67-103.54 17.26-34 40.45-62.1 73.36-80.25 16.7-9.21 34.78-12.91 53.4-14.12 6.64-.43 13.25-1.25 20 .17 8.1 1.71 11.73 5 12.89 13.74 1.9 14.18 2.38 28.46 2.85 42.76.78 24 2.22 48 2.95 72a269.29 269.29 0 0 1 -.93 29.79c-.7 8.76-6.76 12.62-14.56 9.81a104.25 104.25 0 0 1 -11.34-5.2c-5.49-2.75-11-2.48-16.69-.77a53.93 53.93 0 0 1 -8 2.18c-28.35 4-47.86 20.28-59.85 47.28-3.76 8.41-4.11 17.26-4.42 28.72zm99.1-210.67h.43c0-3.73 0-7.46 0-11.2-.05-7.85-.91-9.22-8.34-9.43-20.72-.58-40.76 2.94-59.74 12.1-2 1-3.84 2.16-4.05 4.85-.69 8.82-6.08 15.17-10.73 21.77-4.05 5.74-13.61 9.16-17.8 6-5.85-4.43-9.24-1.65-12.74 2.89-1.86 2.42-3.64 4.9-5.62 7.2-3.09 3.59-4.23 7.16-1.38 11.67 3.66 5.8 2.53 11.05-1.62 16.42a131.51 131.51 0 0 0 -24.79 53.06c-3.53 16.18-6.38 32.49-9.45 48.76-2.16 11.47-4.47 13.26-14.76 9.53-4.85-1.76-6.83-.55-7.61 4.38-.19 1.22-.77 2.36-1.07 3.56-4.3 17-7.08 34.14-2.84 51.53 3 12.15 9.57 16.86 21.41 17.36 16.49.68 33 1.61 49.46 2.49 6.27.34 9.21-3.46 6.37-9.23-5.75-11.65-8.39-24-9.13-37-.9-15.77 1.68-30.37 10.22-43.78 11.84-18.59 28.56-30.67 47.18-40.11 18.4-9.32 37.19-9.49 55.88-.48 3.77 1.81 5.11-.31 5.48-3.77.82-7.87.42-15.75 0-23.62q-2.31-47.46-4.76-94.95z"/><path d="m334.44 434.45c.41-22.68 7.4-42.89 25-56.38 15.74-12.08 34.49-15.6 54-12 7.81 1.45 14.16 6.29 20 11.43 31.19 27.24 33.87 66.62 13.8 101a38.29 38.29 0 0 1 -22.12 17.64c-6.22 1.93-12.24 4.51-18.63 5.88-9.92 2.13-19.23 1.4-28.63-3.37-18.37-9.31-33.13-22.06-40.53-42.74-2.45-6.91-2.97-14.1-2.89-21.46zm116.25-1.85c.22-6.09-.23-12.07-2.76-17.64-11.07-24.43-38.16-41.16-64.95-38.6a36.27 36.27 0 0 0 -23.98 12.37c-9.89 11.39-15.3 25.1-16.64 40.4-1 11.09-.88 22.91 5.93 31.69 16.31 21 36 33.39 63.87 27.23 16-3.53 28.28-9.56 33.9-26.12a92.56 92.56 0 0 0 4.63-29.33z"/><path d="m429.63 428c-.87 26-16.59 45.13-41.84 39.86-11-2.3-17.79-10.73-22.28-21.17-6.34-14.73-.36-38.27 11.72-46.4 11.82-8 24.38-8.17 36.53-1.89s15.11 18.65 15.87 29.6z"/></g></g></svg>