<svg viewBox="0 0 496.18 496.48" xmlns="http://www.w3.org/2000/svg"><path d="m0 0h496.18v496.18h-496.18z" fill="none"/><g transform="translate(-7.43 -7.81)"><path d="m284.29 237.19c-22.42-18.3-48.11-32.27-69.46-52-2.55-2.36-4.65-2.16-6.84.68-4.2 5.45-8.92 10.53-12.89 16.14-8.53 12.05-9.63 23.5-.75 37 12.76 19.39 29.5 34.27 47.49 48.11 12.62 9.72 25.91 18.57 38.76 28 5.54 4.07 10.5 9 17.15 11.37 2 .71 3.81 1.29 5.39-.61 8.15-9.8 14.51-20.47 16.24-31.89a83.46 83.46 0 0 0 -5.57-24.47c-5.5-14.87-18.18-23.07-29.52-32.33z" fill="none"/><g fill="#fff8ff"><path d="m313.74 336.29c9.64-7.56 15.15-18.17 20.86-28.34 7.28-13 10.94-27.39 12.4-42.3 3.82-39.13-9.93-71.53-39.12-96.89-12.25-10.64-26.68-18.89-40.92-27-16.77-9.59-33.34-19.34-46.53-34-12.43-13.86-16.91-38.97-8.38-54.76a58.47 58.47 0 0 1 27-25.62c17.1-8 37.58-5.1 49.91 6.48 5.39 5.06 7.6 10.77 6.11 18a111.27 111.27 0 0 0 -1.83 28.86 17.08 17.08 0 0 0 22 15.13c10-3 17.57-14.25 18.06-26.72.83-21.44-13.1-39.58-35.56-45.5-14.77-3.89-29.92-5.17-45.08-5.94-19.87-1-37.94 3.34-52.24 18.55-20.86 22.21-29.18 48.39-26.72 78.64 1.39 17.13 8.17 30.55 22.53 40.1a24.56 24.56 0 0 1 4.82 4.35c4.43 5.1 3.92 9.41-1.45 13.48-4.71 3.57-9.35 7.23-14.17 10.64-12.21 8.66-19.91 20.1-21.54 35.12-1.73 15.92-2.16 31.82.94 47.71a254.52 254.52 0 0 0 10.65 36.91c7.52 21.13 21.52 37.81 38.46 51.52 17.74 14.37 38.14 25.11 56.82 38.34 15.09 10.68 27.88 22.07 32.84 40.82 4 15-2.13 33.62-15.65 41.27-21.59 12.21-43.68 11.32-65.74 1.13-5.48-2.54-8.3-7.24-8.45-13.26a79.27 79.27 0 0 1 .62-11.2 48.91 48.91 0 0 0 -1.5-20.5c-1.58-5.07-4.11-9.28-10.13-10.34-9.07-1.59-16.91 2.77-19.85 11.83a57.34 57.34 0 0 0 -1.16 29.83c4.4 20.89 12.17 26.87 33.1 30.51 11.21 1.95 22.75 2 32.63 2.8 12.18-.58 22.82-.95 33.44-1.63a44.72 44.72 0 0 0 13.17-3.18c16.21-6.24 28.6-17 38.34-31.21 5.39-7.85 11.46-15.66 12.28-25.28 2-23-1.6-44.88-16.09-63.85-5.5-7.19-12.24-13.39-16.91-21.26-3.02-5.09-2.25-9.86 2.04-13.24zm-6.81-3.22c-4.62 4.18-9.71 3.5-14.77.59a187.27 187.27 0 0 1 -26.7-18.45c-11.11-9.25-23.84-16-35.76-24-18.36-12.33-34.63-26.64-44.65-46.88-8.86-17.86-6-34.33 6.18-49.59 4.9-6.16 9.91-12.23 14.91-18.31 2.84-3.45 5.38-4.32 10-1.6 11 6.49 22.32 12.49 32.92 19.71 16.63 11.33 31.53 24.76 46.61 38 18.12 15.9 30.64 34.77 32.29 59.56.05.79.2 1.56.31 2.44a15.85 15.85 0 0 1 -.45 2.83c-4.48 13.32-10.17 26.02-20.89 35.7z"/><path d="m323.6 341.08c7.62-6.48 14.31-14.05 21.56-21 11.59-11.1 20-24.25 26.22-39 7.58-17.86 9.34-35.78 1.52-54-6.88-16-17.47-29.52-29.63-41.72-21.25-21.32-47.72-35.35-73.12-50.75-16.25-9.85-32.76-19.08-44.38-34.68-9.31-12.49-12.63-26.49-7.26-41.25 6.4-17.56 27.14-29.31 45.73-26.84 8.66 1.15 16.33 4.84 22 11.62 4.41 5.24.28 11 .05 16.48-.47 11.2-2.08 22.48 1.91 33.4 4.49 12.28 18.63 22.22 29.55 20.75 15.4-2.08 32.67-16.32 33.49-36 1-23.62-16.1-46-36.47-55.83-22.54-10.89-47.09-12.58-71.59-12.75-14.65-.11-28.09 5.65-40.88 12.49-12.26 6.59-24.1 14-30.81 26.7-4.75 9-12.31 16.92-13.25 27.49-3 34.2 4.73 64.55 33.11 86.85 3 2.32 2.75 3.56-.16 5.65-10.59 7.59-20.68 15.85-29.3 25.65-22.7 25.83-33.62 54.52-20.84 88.76 10.63 28.49 30 50.34 53.44 68.62 24.87 19.41 52.57 34.78 78.39 52.9a57.85 57.85 0 0 1 23.12 32.46c3.22 11-2.51 25-12.4 30.86-13.84 8.22-28.65 8.81-44 5.67-17.25-3.52-19-6-16.91-23.53 1.38-11.7-.55-22.75-7.79-32.54-10.09-13.66-32.87-18.4-45.47-8.46-10.37 8.16-14.28 20.44-13.09 32.82 2.52 26.19 15.86 45.1 41.1 55.1 16.63 6.59 34 5.75 50.81 7.26 10.49-.51 20.54-.89 30.57-1.53s19-4.2 27.95-8.79c10.54-5.42 18.87-13.16 27.31-21.27 14.88-14.29 23-31.58 24.1-51.73 1.11-20-7.79-37.08-18.7-53.16-4.47-6.59-10.35-11.9-16-17.43-3.36-3.35-4.34-5.47.12-9.27zm-11.9 8.45c4.67 7.87 11.41 14.07 16.91 21.26 14.49 19 18.05 40.87 16.09 63.85-.82 9.62-6.89 17.43-12.28 25.28-9.74 14.19-22.13 25-38.34 31.21a44.72 44.72 0 0 1 -13.17 3.18c-10.62.68-21.26 1.05-33.44 1.63-9.88-.79-21.42-.85-32.63-2.8-20.93-3.64-28.7-9.62-33.1-30.51a57.34 57.34 0 0 1 1.16-29.83c2.94-9.06 10.78-13.42 19.85-11.83 6 1.06 8.55 5.27 10.13 10.34a48.91 48.91 0 0 1 1.5 20.5 79.27 79.27 0 0 0 -.62 11.2c.15 6 3 10.72 8.45 13.26 22.06 10.19 44.15 11.08 65.74-1.13 13.52-7.65 19.62-26.28 15.65-41.27-5-18.75-17.75-30.14-32.84-40.82-18.68-13.23-39.08-24-56.82-38.34-16.94-13.71-30.94-30.39-38.45-51.47a254.52 254.52 0 0 1 -10.65-36.91c-3.1-15.89-2.67-31.79-.94-47.71 1.63-15 9.33-26.46 21.54-35.12 4.82-3.41 9.46-7.07 14.17-10.64 5.37-4.07 5.88-8.38 1.45-13.48a24.56 24.56 0 0 0 -4.82-4.35c-14.36-9.55-21.14-23-22.53-40.1-2.46-30.25 5.86-56.43 26.72-78.64 14.3-15.21 32.37-19.55 52.24-18.55 15.16.77 30.31 2.05 45.08 5.94 22.46 5.92 36.39 24.06 35.56 45.5-.49 12.47-8.09 23.68-18.06 26.72a17.08 17.08 0 0 1 -22-15.13 111.27 111.27 0 0 1 1.83-28.86c1.49-7.28-.72-13-6.11-18-12.35-11.63-32.83-14.57-49.97-6.53a58.47 58.47 0 0 0 -27 25.62c-8.53 15.79-4.05 40.9 8.38 54.73 13.19 14.67 29.76 24.42 46.53 34 14.24 8.13 28.67 16.38 40.92 27 29.19 25.36 42.94 57.76 39.12 96.89-1.46 14.91-5.12 29.33-12.4 42.3-5.71 10.17-11.22 20.78-20.86 28.34-4.24 3.41-5.01 8.18-1.99 13.27z"/><path d="m328.27 294.5c-.11-.88-.26-1.65-.31-2.44-1.65-24.79-14.17-43.66-32.29-59.56-15.08-13.23-30-26.66-46.61-38-10.6-7.22-21.9-13.22-32.92-19.71-4.62-2.72-7.16-1.85-10 1.6-5 6.08-10 12.15-14.91 18.31-12.14 15.26-15 31.73-6.18 49.59 10 20.24 26.29 34.55 44.65 46.88 11.92 8 24.65 14.78 35.76 24a187.27 187.27 0 0 0 26.7 18.45c5.06 2.91 10.15 3.59 14.77-.59 10.72-9.68 16.41-22.38 20.89-35.74a15.85 15.85 0 0 0 .45-2.79zm-25.13 31.35c-1.58 1.9-3.43 1.32-5.39.61-6.65-2.41-11.61-7.3-17.15-11.37-12.85-9.45-26.14-18.3-38.76-28-18-13.84-34.73-28.72-47.49-48.11-8.88-13.48-7.78-24.93.75-37 4-5.61 8.69-10.69 12.89-16.14 2.19-2.84 4.29-3 6.84-.68 21.35 19.76 47 33.73 69.46 52 11.34 9.26 24 17.46 29.52 32.3a83.46 83.46 0 0 1 5.57 24.54c-1.73 11.38-8.09 22.05-16.24 31.85z"/></g><g fill="#001400"><path d="m248.25 503.45c-16.78-1.51-34.18-.67-50.81-7.27-25.24-10-38.58-28.92-41.11-55.11-1.19-12.38 2.72-24.66 13.09-32.83 12.6-9.93 35.38-5.2 45.47 8.47 7.24 9.79 9.17 20.83 7.79 32.54-2.07 17.51-.34 20 16.91 23.53 15.36 3.13 30.17 2.55 44-5.67 9.89-5.88 15.62-19.91 12.4-30.86a57.81 57.81 0 0 0 -23.12-32.43c-25.82-18.12-53.52-33.5-78.39-52.9-23.45-18.28-42.81-40.14-53.44-68.62-12.78-34.25-1.86-62.93 20.84-88.76 8.62-9.81 18.71-18.06 29.3-25.65 2.91-2.09 3.11-3.33.16-5.65-28.38-22.3-36.13-52.65-33.11-86.86.94-10.56 8.5-18.49 13.25-27.48 6.72-12.72 18.52-20.11 30.82-26.7 12.79-6.87 26.23-12.63 40.88-12.52 24.5.17 49.05 1.85 71.61 12.78 20.37 9.87 37.44 32.22 36.47 55.84-.82 19.72-18.09 34-33.49 36-10.92 1.47-25.06-8.47-29.55-20.75-4-10.93-2.38-22.2-1.91-33.41.23-5.5 4.36-11.23-.05-16.48-5.69-6.77-13.36-10.46-22-11.61-18.59-2.48-39.33 9.28-45.73 26.84-5.37 14.76-2 28.75 7.26 41.25 11.62 15.6 28.13 24.83 44.38 34.68 25.4 15.39 51.87 29.43 73.12 50.75 12.16 12.19 22.75 25.7 29.63 41.71 7.82 18.21 6.06 36.13-1.52 54-6.25 14.71-14.63 27.87-26.22 39-7.25 6.94-13.94 14.51-21.56 21-4.46 3.8-3.48 5.93-.08 9.29 5.61 5.52 11.49 10.84 16 17.42 10.91 16.09 19.81 33.18 18.7 53.17-1.11 20.15-9.22 37.43-24.1 51.73-8.44 8.11-16.77 15.85-27.31 21.27-8.91 4.58-17.94 8.16-27.95 8.79s-20.14.99-30.63 1.5zm-.78-8.35c12.18-.57 22.82-.94 33.44-1.63a44.71 44.71 0 0 0 13.17-3.17c16.21-6.24 28.6-17 38.34-31.21 5.39-7.85 11.46-15.66 12.28-25.29 2-23-1.6-44.87-16.09-63.84-5.5-7.2-12.24-13.39-16.91-21.26-3-5.09-2.25-9.87 2-13.24 9.64-7.57 15.15-18.17 20.86-28.35 7.28-13 10.94-27.38 12.4-42.29 3.82-39.13-9.93-71.53-39.12-96.89-12.25-10.64-26.68-18.89-40.92-27-16.77-9.59-33.34-19.34-46.53-34-12.39-13.86-16.87-38.93-8.34-54.76a58.47 58.47 0 0 1 27-25.62c17.1-8 37.58-5.1 49.91 6.47 5.39 5.06 7.6 10.78 6.11 18a111.38 111.38 0 0 0 -1.83 28.87 17.09 17.09 0 0 0 22 15.13c10-3 17.57-14.26 18.06-26.73.83-21.44-13.1-39.57-35.56-45.49-14.74-3.8-29.91-5.13-45.07-5.89-19.87-1-37.94 3.34-52.24 18.55-20.86 22.21-29.18 48.39-26.72 78.64 1.39 17.13 8.17 30.55 22.53 40.1a24.56 24.56 0 0 1 4.82 4.35c4.43 5.1 3.92 9.41-1.45 13.48-4.71 3.57-9.35 7.22-14.17 10.64-12.21 8.65-19.91 20.09-21.54 35.12-1.73 15.92-2.16 31.82.94 47.7 2.46 12.65 6.34 24.84 10.65 36.92 7.52 21.08 21.52 37.75 38.45 51.47 17.74 14.37 38.14 25.11 56.82 38.33 15.09 10.69 27.88 22.08 32.84 40.82 4 15-2.13 33.63-15.65 41.28-21.59 12.21-43.68 11.32-65.74 1.12-5.48-2.53-8.3-7.23-8.45-13.25a79.19 79.19 0 0 1 .62-11.2 48.91 48.91 0 0 0 -1.5-20.5c-1.58-5.07-4.11-9.28-10.13-10.34-9.07-1.6-16.91 2.77-19.85 11.83a57.34 57.34 0 0 0 -1.16 29.83c4.4 20.89 12.17 26.87 33.1 30.51 11.21 1.95 22.75 2 32.63 2.79z"/><path d="m328.27 293.67a15.85 15.85 0 0 1 -.45 2.83c-4.48 13.36-10.17 26.06-20.89 35.74-4.62 4.17-9.71 3.5-14.77.59a187.33 187.33 0 0 1 -26.7-18.46c-11.11-9.25-23.84-16-35.76-24-18.36-12.33-34.63-26.65-44.65-46.88-8.86-17.86-6-34.33 6.18-49.59 4.9-6.16 9.91-12.23 14.91-18.32 2.84-3.45 5.38-4.31 10-1.59 11 6.49 22.32 12.48 32.92 19.71 16.63 11.33 31.53 24.76 46.61 38 18.12 15.9 30.64 34.76 32.29 59.56.04.74.2 1.53.31 2.41zm-8.89-.54a83.46 83.46 0 0 0 -5.57-24.48c-5.5-14.83-18.18-23-29.52-32.29-22.42-18.3-48.11-32.27-69.46-52-2.55-2.35-4.65-2.15-6.84.68-4.2 5.46-8.92 10.53-12.89 16.15-8.53 12-9.63 23.49-.75 37 12.76 19.39 29.5 34.27 47.49 48.11 12.62 9.71 25.91 18.57 38.76 28 5.54 4.08 10.5 9 17.15 11.38 2 .7 3.81 1.28 5.39-.61 8.15-9.86 14.51-20.53 16.24-31.94z"/></g></g></svg>