<svg viewBox="0 0 496.18 496.73" xmlns="http://www.w3.org/2000/svg"><path d="m0 .05h496.18v496.18h-496.18z" fill="none"/><g transform="translate(-7.43 -7.86)"><g fill="#fff8ff"><path d="m283.59 236.61c-.29 6.48-2.62 12.3 4.24 16.63 4.32 2.73 3.27 8.12-1.67 9.88a36 36 0 0 1 -23.24.43c-2.28-.71-4.87-.43-7.12-1.19a10 10 0 0 1 -4.8-3.36c-.43-.61 1.37-2.76 2.06-4.25.86-1.82 2.3-3.68 2.32-5.53.22-17.8.15-35.6.25-53.4a9.65 9.65 0 0 0 -4.09-8.59c-5.22-4-4-10 2.17-12.32a12.07 12.07 0 0 1 4.1-.92c15.26-.05 30.54-.41 45.78.13 10.19.36 13.65 4.81 13.26 15.16a93.88 93.88 0 0 1 -1.5 12.72c-.8 4.47-5.11 5.89-8.19 2.48-2.57-2.83-4.34-6.41-6.46-9.66-1.82-2.8-12.62-4.24-14.82-1.92-.42.46-.87 1.51-.65 1.84a4.43 4.43 0 0 0 2.17 1.84c8.86 2.36 10.18 3.84 9.55 13.05-.49 7.09-1.52 14.14-2.37 21.2-.76 6.31-5.04 6.91-10.99 5.78zm-21.44-54.27c.58 6.4 1.43 11.81 1.52 17.24.26 16 .25 32 .31 48 0 7.46 1.62 9.17 8.92 8.45 1.12-.11 2.86-2.24 2.91-3.5.24-5.84-.29-11.7 0-17.54s1.63-11.58 1.64-17.37c0-7-1-14.05-1.35-21.09-.29-5.78 1.35-10.73 6.86-14.15z"/><path d="m179.88 208.59c-1.68 1.17-3.26 3.12-5 3.34-3.05.38-6.24-.32-9.36-.56.2-2.45-.37-5.38.75-7.26 5-8.35 10.17-16.62 15.93-24.43 1.73-2.36 5.38-3.71 8.42-4.55s6.61-.66 9.94-.7c7.18-.1 10.19 2 10.82 9.38.91 10.6.95 21.28 1.23 31.93.26 10.3.27 20.6.6 30.9a21.11 21.11 0 0 0 1.64 6.6c2.3 6 .58 10.39-5.66 10.92a287.28 287.28 0 0 1 -30.92.65c-1.94-.05-4.9-2.66-5.41-4.62s.82-5.5 2.5-6.68a10.54 10.54 0 0 0 4.94-8.77q.87-17.69 1.79-35.36zm4.62-17.14c4.63 1.4 5.21 4.68 4.95 8.83-1.22 18.86 2.05 38-4.38 57.72 7.29-.53 13.7-.87 20.06-1.6.75-.09 1.8-2.32 1.76-3.52-.13-4.6-.82-9.18-1-13.78-.64-17.24-1.09-34.49-1.81-51.73-.08-1.81-1.12-4.64-2.42-5.15-6.78-2.68-14.8 1.58-17.16 9.23z"/><path d="m324.29 239.81c.76 4.87 1.14 9.76 2.34 14.44 1.89 7.3-.4 11-7.92 11.24a64.46 64.46 0 0 1 -11-.71c-5-.71-6.16-3.45-4.73-8.33a37 37 0 0 0 1.35-10.38c0-6.39-.58-12.78-.74-19.17-.18-6.77 6.14-11.89 12.88-11.14a17.58 17.58 0 0 0 8.35-1.1c7.06-2.89 12.84-.17 14.4 7.31a56.65 56.65 0 0 1 .84 5.8c1 9.67-3.76 13.82-13.18 11.69a10.72 10.72 0 0 0 -2.59.35zm-11.63 12.47c0-.57-.27.28 0 .82a48 48 0 0 0 2.62 4.09c.78-1.48 2.21-3 2.23-4.45.12-7.75.08-15.53-.42-23.26-.1-1.66-2.33-3.18-3.58-4.77-.67 1.53-1.94 3.08-1.91 4.6.14 7.24.63 14.47 1.06 22.97z"/><path d="m320.5 332c-12.14-.05-18-8.05-14.75-19.74a12.52 12.52 0 0 0 .13-6.05c-1.43-5.83-.35-10.93 3.71-14 4.65-3.49 9.76-3.77 14.87-1.18s5.51 7 5.15 12.24c-.18 2.53 1.15 5.36 2.35 7.77 5.09 10.33-.7 21.04-11.46 20.96zm-.53-7.2c2.06-3.43 4.42-5.61 4.1-7.26-.44-2.26-2.9-4.12-4.5-6.15-2 2.18-4.69 4.09-5.66 6.67-.38 1.06 3.09 3.55 6.09 6.78z"/><path d="m257.69 314.07c.25 11-4.39 17.27-12.74 18.45a11.82 11.82 0 0 1 -7-1.29c-1.51-.85-2.17-3.25-3.2-5 1.68-.85 3.34-2.36 5.05-2.43 6.82-.26 9.59-3.05 9.26-9.85-.17-3.44-1.22-5.13-5.18-4.6-7.72 1-12.41-1.7-13.26-7.08-.78-4.89 3.09-10.1 8.72-11.74 7.1-2.08 13 .34 15.32 6.4a28.32 28.32 0 0 1 1.48 5.65c.69 4.42 1.2 8.85 1.55 11.49z"/><path d="m280.32 308.26c-2.51 2.91-4.75 6.14-7.63 8.61-1.73 1.49-4.45 1.79-6.72 2.63.08-2.4-.7-5.36.4-7.08a205.69 205.69 0 0 1 14.26-19.77c1.45-1.76 5.08-3 7.17-2.45 1.65.46 3.41 4 3.5 6.25.34 9.05.33 18.14-.19 27.17-.13 2.2-2.46 5.76-4.22 6.07-3.85.67-4.58-3.17-4.74-6.2-.26-4.87-.07-9.77-.07-14.65z"/><path d="m202 306.3c-2.42 2-4.57 4.62-7.32 5.73-2.34 1-5.37.14-8.09.11.89-2.4 1.22-5.3 2.78-7.11a95.42 95.42 0 0 1 12-11.86c2.08-1.7 5.91-3.52 7.71-2.66 2.14 1 3.92 4.82 4.14 7.55a183.09 183.09 0 0 1 .23 22.35c-.15 3.75-.55 9.09-5.22 9.13-5.43 0-4.22-5.49-4.4-9.16-.23-4.54-.06-9.1-.06-13.65z"/><path d="m75 396.17c-3.78-.09-6.12-1.45-5.66-5.76.1-1-1.68-2-2.21-3.13s-1.24-3-.88-4.19a3.9 3.9 0 0 1 3.14-2.09c.93 0 1.64 1.91 2.68 2.62 4.23 2.9 4.19 9.66 10.1 11.23.93.25 2.1 3.75 1.51 4.76a10.52 10.52 0 0 1 -5.26 4.12c-.69.25-2.65-2.11-3.5-3.6-.51-.9.01-2.38.08-3.96z"/><path d="m345.53 254.27c.07 5.2-2.41 8.39-6.4 8.15s-6.09-2.51-6.35-6.42a7.62 7.62 0 0 1 7.57-7.82c3.99.11 5.43 2.61 5.18 6.09z"/><path d="m440.91 123.72 5 4.65c-1.81 1.59-3.9 4.68-5.37 4.4-2-.37-3.44-3.35-4.56-5.78-1.88-2.26-7-2.08-4.87-7 .7-1.61 4.71-3.5 5.63-2.87 1.9 1.3 2.77 4.19 4.17 6.6z"/><path d="m474.92 313.27c-.88-.85-3.36-2.2-4-4.16-.41-1.31 1.89-3.43 2.88-5.25.67-1.24 1.06-2.63 1.77-3.84s1.51-2.95 2.68-3.44c.9-.38 3 .47 3.55 1.39s.38 2.82.31 4.27c-.09 1.78-.71 3.58-.52 5.3.46 3.82-1.59 6.26-6.67 5.73z"/><path d="m462.82 178.48a18.19 18.19 0 0 1 -2.15-3.31c-.77-2-2.21-4.64-1.51-6.1s4-2.5 5.62-2c1.29.39 1.87 3.4 2.65 5.29a42.71 42.71 0 0 1 1.44 4.31c.55 1.82 1.8 4 1.29 5.41-.39 1.1-3.34 2.22-4.68 1.79-1.67-.52-2.85-2.62-4.24-4z"/><path d="m463.2 340.14c3 2.46 5.2 3.54 6.09 5.31.5 1-1.1 3.16-1.84 4.75a28.87 28.87 0 0 1 -2 3.47c-.95 1.46-2 4-3 4a7.55 7.55 0 0 1 -5.19-2.57c-.52-.62 1.05-3 1.57-4.62.42-1.32.55-2.75 1.08-4 .81-1.84 1.84-3.57 3.29-6.34z"/><path d="m177.48 42.92c3.35-5.54 5.49-6.42 8.11-3.11a6.64 6.64 0 0 1 1.06 5.19c-.28.93-2.76 1.24-4.29 1.75a38.93 38.93 0 0 1 -4.85 1.4c-2.11.4-4.33 1-6.36.62-.69-.12-.94-2.85-1.39-4.38 1.94-.54 3.87-1.13 5.82-1.58a6 6 0 0 1 1.9.11z"/><path d="m342.78 46.68 7.63 1.06-1.83 8.19-7-3.21-5.6-1.17 1.77-7.71z"/><path d="m153.06 59.38a55.72 55.72 0 0 1 -7.69 2.85c-1.14.26-2.59-.88-3.9-1.39a23.89 23.89 0 0 1 1.89-3.17c1.19-1.46 2.36-3.13 3.91-4 1.86-1.07 4.69-2.57 6.06-1.85 2 1.07 3.47 3.8 4.48 6.12.23.52-2.32 2.29-3.59 3.48-.39-.71-.77-1.42-1.16-2.04z"/><path d="m470 197.64c-.86-1.23-2.11-2.35-2.49-3.71-.53-1.88-1-5.48-.47-5.67 2.66-1 5.64-1.17 8.5-1.63-.13 2-.19 4-.42 6a47.58 47.58 0 0 1 -.91 5 9.3 9.3 0 0 1 -1.19 3.66 2.79 2.79 0 0 1 -2.8.1c-.77-.61-1-2-1.4-3z"/><path d="m449.8 136.52c1.54.38 2.41.4 2.48.64 1.15 4.27 2.29 8.55 3.11 12.88.07.39-2.23 1.8-3.34 1.7-1.33-.11-3.22-1-3.73-2.13-1.12-2.47-2.21-5.33-2-7.93.15-1.91 2.38-3.68 3.48-5.16z"/><path d="m175.92 466.18c-.86 5.3-1.17 9.5-6 9.6-1.15 0-3.22-2.65-3.38-4.23-.4-4 3.81-10.28 5.93-9.37 1.69.75 2.74 3.13 3.45 4z"/><path d="m371.05 460-5.25 4.29c-.83-1.25-2.46-2.62-2.29-3.72.22-1.48 1.63-3 2.88-4a18.63 18.63 0 0 1 4.3-2.23c1.27-.6 2.56-1.14 3.84-1.71.58 1.87 1.63 3.77 1.53 5.6-.05.81-2.38 1.61-3.77 2.16-.49.14-1.29-.39-1.24-.39z"/><path d="m110.21 87.65c-3.56 3.48-6.52 6.63-9.85 9.33-.47.38-3.38-1.16-3.9-2.36-.4-.94 1-2.91 1.92-4.12a18.64 18.64 0 0 1 4.27-4 8 8 0 0 1 4.51-1.4c.98.01 1.89 1.5 3.05 2.55z"/><path d="m97.66 420.13c-3.49-2.58-9.49.35-9.06-6 .11-1.59 3.47-4.51 3.82-4.29a84.5 84.5 0 0 1 8.66 6.66z"/><path d="m407.68 99 7.41-7.23c1.23 1.39 3.27 2.65 3.52 4.2.56 3.44-3.31 7.85-6.06 7.21-1.4-.38-2.49-2.11-4.87-4.18z"/><path d="m258.43 33c-1 .12-2.14.57-3.05.31-1.62-.46-4.32-1.23-4.4-2.08-.18-1.81.81-3.91 1.85-5.55.22-.33 2.78.75 4.18 1.35a11.29 11.29 0 0 1 2.51 1.64c1.2.94 2.34 1.95 3.51 2.93l-4 2.47z"/><path d="m186.87 479.8 7.12-6.14c1 1.79 3.31 4.12 2.83 5.25-1 2.28-3.43 3.91-5.28 5.81z"/><path d="m480.11 295.56c-2.26-2.83-3.84-4.82-5.43-6.8 1.61-1.21 3.93-3.79 4.7-3.38 2.27 1.22 3.94 3.61 5.84 5.54z"/><path d="m205.8 41.62c-2.23-3.66-4.13-5.71-4.62-8.06-.23-1.1 2.25-2.79 3.5-4.21 1.85 2 4.07 3.89 5.3 6.27.38.72-1.98 2.9-4.18 6z"/><path d="m279 29.22-6 5.54c-1.19-1.44-3.64-3.35-3.32-4.22.84-2.27 2.88-4.08 4.45-6.08z"/><path d="m393.61 450.86c-4.08-.58-6.42-2.88-5.93-7.12.17-1.41 1.57-3.58 2.65-3.74s3.67 1.45 3.78 2.49c.31 2.77-.36 5.66-.65 8.5z"/><path d="m374.22 62.14-5.76 5.59c-1-1.56-3.17-3.37-2.89-4.61.48-2.13 2.48-3.91 3.84-5.83z"/><path d="m456.5 375.33c-1.65.81-3.83 2.71-4.84 2.2-2-1-3.31-3.3-4.9-5.07 1.38-1 3.05-3.21 4.1-2.94 2.13.55 3.93 2.42 5.86 3.75-.07.73-.15 1.38-.22 2.06z"/><path d="m383.39 68.9-6.23 5.57c-1.16-1.47-3.46-3.23-3.16-4.36.47-2 2.3-3.9 4-5.17.44-.32 2.7 1.94 5.39 3.96z"/><path d="m240.88 486.38-4.77 4.53c-1.28-1.85-3.27-3.59-3.58-5.59-.2-1.32 2-3 3.16-4.55 1.49 1.61 2.98 3.23 5.19 5.61z"/><path d="m410.9 424.45c1.17 1.91 3 3.73 3.29 5.76.16 1.39-1.92 3.07-3 4.62-1.45-1.89-3.39-3.61-4.15-5.75-.39-1.11 1.3-3 2.06-4.51z"/><path d="m403.7 95.16c-.75-1.67-2.46-3.67-2-5 .63-1.89 2.77-3.27 4.26-4.86 1 1.38 3.05 2.91 2.88 4.12-.3 2-2 3.88-3.07 5.8z"/><path d="m33.29 244.86c-2-2.47-4.37-4.69-4.06-5.19 1.27-2 3.36-3.53 5.14-5.23 1.14 1.58 3.21 3.21 3.14 4.73s-2.19 3.12-4.22 5.69z"/><path d="m229.23 486.4-4.63 5.38c-1.2-1.69-3.36-3.41-3.32-5.08s2.29-3.26 3.57-4.88z"/><path d="m405.9 436.81-4.46 4.42c-1.33-1.79-3.21-3.43-3.76-5.44-.28-1 1.8-2.73 2.81-4.13z"/><path d="m222.13 34.82-4.77 3.67c-1.25-1.71-3.21-3.32-3.47-5.17-.16-1.18 2.21-2.72 3.44-4.1z"/><path d="m314.69 44c-.88-1.48-2.69-3.16-2.42-4.38.4-1.86 2.24-3.4 3.47-5.07 1.15 1.27 3.27 2.58 3.22 3.81-.06 1.9-1.6 3.75-2.51 5.63z"/><path d="m153.92 456.87-6.07 5.13c-.95-1.21-2.93-2.89-2.64-3.53a12 12 0 0 1 4.09-4.74c.44-.33 2.35 1.54 4.62 3.14z"/><path d="m329.73 481.09c-1.54.68-3.52 2.3-4.53 1.82a7.8 7.8 0 0 1 -3.75-4.57c-.24-.9 2-2.5 3.19-3.78l4 4.08z"/><path d="m294 37.33c-.8-1.46-2.41-3-2.21-4.36.25-1.73 1.92-3.25 3-4.87 1.22 1.39 3.3 2.69 3.44 4.18s-1.54 3.34-2.43 5z"/><path d="m427.24 106c-2.36 2-3.8 3.7-5.61 4.58-.44.21-3.21-2.63-3-3.13a11.63 11.63 0 0 1 4-4.63c.54-.33 2.45 1.61 4.61 3.18z"/><path d="m354.31 58.1 4.69-4.52c1.08 1.32 3.22 2.87 3 3.91-.39 1.83-2.22 3.34-3.45 5z"/><path d="m309.9 35.59-4.72 4.72c-1-1.39-3-2.87-2.85-4.14.16-1.62 2-3.08 3.1-4.6z"/><path d="m436.7 404.71-4.06 3.83c-1.24-1.41-3.2-2.69-3.5-4.29-.24-1.25 1.55-2.91 2.45-4.39 1.49 1.42 2.98 2.84 5.11 4.85z"/><path d="m139.21 69.54c-2.8 1.78-4.45 3.56-5.32 3.23-2-.74-3.55-2.52-5.28-3.88 1.26-1 2.62-2.8 3.78-2.69 1.87.19 3.61 1.67 6.82 3.34z"/><path d="m283.75 38.1c-1.82-2.57-3.65-4.08-3.4-5 .46-1.76 2.14-3.2 3.31-4.77 1.12 1.13 3.17 2.3 3.14 3.39-.06 1.7-1.52 3.38-3.05 6.38z"/><path d="m122.82 433.47c.77 1.31 2.43 2.91 2.12 3.85-.63 1.9-2.32 3.45-3.58 5.14-1-1-3-2.13-2.87-2.87.4-2.14 1.67-4.1 2.59-6.14z"/><path d="m297.83 484.42 4.61-4.09c1.07 1.35 3.11 2.78 3 4-.15 1.69-1.94 3.22-3 4.81z"/><path d="m465 161.66c-2.93 1.68-4.58 3.39-5.86 3.14s-2.31-2.41-3.44-3.73c1.26-1 2.51-2.74 3.78-2.75s2.77 1.59 5.52 3.34z"/><path d="m477.8 323.36c-2.69 1.77-4.15 3.48-5.47 3.38s-2.82-1.87-4.22-2.91c1.34-1.29 2.52-3.28 4.07-3.64 1.18-.28 2.82 1.5 5.62 3.17z"/><path d="m402.43 83.43c-2.49 1.67-4 3.5-5.27 3.31s-3.1-2.51-3-3.71a5 5 0 0 1 3.48-3.41c1.18-.13 2.56 1.92 4.79 3.81z"/><path d="m446 380.42c2.09 2.64 3.65 4.17 4.53 6 .22.48-1.72 2-2.66 3-1.51-1.47-3.27-2.76-4.36-4.49-.33-.47 1.18-2.19 2.49-4.51z"/><path d="m439.85 399c-1.58-2.91-3-4.55-3.19-6.33-.09-.82 2.8-3 3.3-2.67a6.94 6.94 0 0 1 3.23 4.05c.21 1.05-1.58 2.49-3.34 4.95z"/><path d="m387.41 453c-1.6.57-3.58 2-4.7 1.5-1.48-.66-2.78-2.74-3.18-4.45-.19-.82 1.84-2.18 2.87-3.29l3.6 3.41z"/><path d="m198.75 39.5c-2 1.59-3.69 3.36-4 3.15a18.37 18.37 0 0 1 -4.13-4.52c-.12-.18 2.25-2.8 2.82-2.58 1.7.64 3.05 2.16 5.31 3.95z"/><path d="m160.94 460.08c1.39 2.45 2.94 4.15 2.59 4.76-.9 1.6-2.62 2.74-4 4.06-.89-1.06-2.71-2.43-2.48-3.1.55-1.73 2.03-3.15 3.89-5.72z"/><path d="m142.58 453.41-4.26 3.59c-1-1.36-2.67-2.65-2.83-4.11-.1-.95 2-3 3.09-3s2.25 1.88 4 3.52z"/><path d="m119.7 81.52c-2.46 1.53-3.86 3.06-4.76 2.8-1.55-.44-2.79-2-4.16-3.09 1.07-.94 2.18-2.68 3.19-2.62 1.54.1 3.03 1.44 5.73 2.91z"/><path d="m474.82 214.62c-1.65-2-3.52-3.22-3.47-4.38s1.91-3 3.15-3.2c1-.13 3.18 1.7 3.26 2.78.09 1.26-1.53 2.66-2.94 4.8z"/><path d="m247.05 483.26c1.42 3.14 2.63 4.68 2.64 6.24 0 1-1.71 2.06-2.66 3.09-1-1.25-2.58-2.42-2.76-3.77s1.24-2.65 2.78-5.56z"/><path d="m239.56 24.19c1.61 2.4 3.15 3.69 3.15 5s-1.52 2.59-2.38 3.89c-1.1-1.12-2.89-2.11-3.11-3.38s1.12-2.85 2.34-5.51z"/><path d="m38.05 194.31 3.27 3.88c-1.34 1.09-2.55 2.58-4.08 3.07-.59.19-2.83-2.09-2.66-2.87.29-1.32 1.9-2.39 3.47-4.08z"/><path d="m231.54 25c1.21 2.73 2.43 4.21 2.29 5.55-.11 1.14-1.79 2.12-2.77 3.17-1-1.21-2.72-2.39-2.77-3.64s1.55-2.6 3.25-5.08z"/><path d="m73.15 125.19c.62 1.52 1.91 3.18 1.66 4.54a4.6 4.6 0 0 1 -3.29 3c-1.18 0-2.41-1.8-3.62-2.81l2.83-3.46z"/><path d="m163.8 45.75 4 4.27c-1.18 1-2.27 2.57-3.57 2.77-.83.12-2.53-1.69-2.77-2.86-.21-.93 1.18-2.25 2.34-4.18z"/><path d="m35.49 215.44-3-3.4a20.46 20.46 0 0 1 3.94-3.21c.4-.19 2.62 1.95 2.46 2.33-.64 1.39-1.89 2.48-3.4 4.28z"/><path d="m90.45 407.18c-2.11 1.31-3.41 2.74-4.69 2.71-.89 0-2.68-2.36-2.43-3a5.55 5.55 0 0 1 3.35-3.07c.73-.23 1.99 1.68 3.77 3.36z"/><path d="m29.72 265.51c-1.39-1.95-3.12-3.46-2.84-4.2a5.49 5.49 0 0 1 3.43-3c.7-.17 2.82 2 2.7 2.82-.19 1.33-1.75 2.46-3.29 4.38z"/><path d="m93.39 97.48c.44 1.53 1.46 3.22 1.13 4.55a4.88 4.88 0 0 1 -3.27 2.88c-.87.16-2.82-1.49-2.93-2.47s1.52-2.13 2.39-3.21z"/><path d="m33.93 225.09c-1.48-1.64-3.14-2.68-3.14-3.71s1.76-3 2.59-2.89c1.27.12 2.41 1.64 3.6 2.57z"/><path d="m391.58 76.78-4.12 3.22c-.81-1.15-2.17-2.25-2.26-3.45-.07-.88 1.58-2.71 2.37-2.65 1.14.1 2.19 1.49 4.01 2.88z"/><path d="m432.21 115c-2.26 1.26-3.54 2.56-4.59 2.39s-2.07-1.72-3.09-2.67c1.07-.93 2.09-2.49 3.23-2.6s2.24 1.41 4.45 2.88z"/><path d="m129.43 452.28c-1-2.46-2-3.82-1.67-4.64.46-1.21 1.9-2 2.92-3 .74.84 2.24 1.92 2.07 2.46-.45 1.43-1.62 2.65-3.32 5.18z"/><path d="m111.79 431c1.14 1.64 2.47 3.05 2.27 3.34a12.1 12.1 0 0 1 -3.47 3.09c-.21.13-2-1.53-1.88-1.79a35.25 35.25 0 0 1 3.08-4.64z"/><path d="m480.92 255c1.4 1.51 3.1 2.66 2.93 3.31a4.79 4.79 0 0 1 -2.75 2.84c-.58.19-2.43-1.41-2.5-2.3s1.19-2.15 2.32-3.85z"/><path d="m480.26 276c1.36 1.46 3 2.59 2.86 3.23-.33 1.22-1.69 2.17-2.61 3.23-1-1-2.45-1.81-2.84-3-.22-.66 1.33-1.91 2.59-3.46z"/><path d="m64.87 141.78c-1.39-1.65-2.85-2.65-2.8-3.54a3.48 3.48 0 0 1 2.54-2.38 3.58 3.58 0 0 1 2.68 2.25c.16.82-1.22 1.95-2.42 3.67z"/><path d="m461 366c-2.25 1.14-3.55 2.34-4.32 2.06-1.17-.43-2-1.89-2.94-2.91.84-.67 1.79-2 2.5-1.86 1.23.24 2.36 1.32 4.76 2.71z"/><path d="m471.71 333.52c-1.92 1.29-3 2.58-3.91 2.49s-1.94-1.46-2.9-2.27c.85-.88 1.62-2.38 2.55-2.48s2.16 1.07 4.26 2.26z"/><path d="m63.6 147.15c-2.17 1.08-3.44 2.26-4.3 2s-1.88-1.78-2.18-2.92c-.11-.42 1.67-2 2.46-1.86 1.08.14 2.03 1.33 4.02 2.78z"/><path d="m479.66 225.64c1.17 1.73 2.55 2.92 2.35 3.71a3.68 3.68 0 0 1 -2.76 2.28 3.52 3.52 0 0 1 -2.52-2.46c-.02-.92 1.48-1.89 2.93-3.53z"/><path d="m214.45 95.87-8.12-1.43 2.32 11.11c.24-.07-.71.59-1.36.36-5.12-1.79-10.22-3.64-15.21-5.74a4.42 4.42 0 0 1 -2.41-3.06c0-.78 1.66-1.85 2.75-2.49 2.27-1.33 5-2.07 6.92-3.74 4.1-3.5 8.73-3.62 13.39-2.52a10.87 10.87 0 0 1 5.66 4c.41.56-1.91 3.2-3 4.89z"/><path d="m295 105.25c1-1.54 2.27-3 2.8-4.66a33.17 33.17 0 0 0 .78-6.2c-1.91.37-3.84.64-5.72 1.14-.79.21-1.45.92-3 2-1.22-1.85-3.64-4.09-3.22-5.24.64-1.71 3.14-3.35 5.12-3.79 4.62-1 9.25-1.32 13.46 2.17 2.24 1.86 5.17 2.95 7.9 4.12 3.26 1.41 3.27 3.52.55 4.87-5.68 2.8-11.66 5-17.51 7.45z"/><path d="m239.4 65.54c-3.05 5.85-13.74 7.14-7.6 18.27-4.37-.84-7.8-.74-10.27-2.25-1.57-1-2.76-4.61-2.27-6.57 1.4-5.58 13.91-11.31 20.14-9.45z"/><path d="m274.05 82.27c5.55-9.62-5.73-10.88-8.49-17 4.27-1.16 8-1.68 11.38 1.57a27.12 27.12 0 0 0 3.8 2.79c3.45 2.31 6.93 4.7 5 9.72-1.37 3.65-6.03 4.72-11.69 2.92z"/><path d="m112.84 237.82c-2.89 4.15-5.8 8.28-8.67 12.44-1.61 2.33-3.06 4.77-4.78 7-1.3 1.7-2.92 3.16-4.39 4.73-1.55-2.09-3.66-4-4.4-6.34-.39-1.22 1.31-3.66 2.67-4.81 5.91-4.93 12-9.6 18.09-14.36z"/><path d="m393.53 236.38c6.82 5.42 14 10.43 20.32 16.41 3.3 3.13-1.5 5.74-2.74 8.55-1.53-.82-3.57-1.26-4.49-2.53-4.93-6.87-9.58-13.94-14.33-20.93z"/><path d="m98 202.75c-.3-7.4 6.86-17.81 12.36-18.91.83-.17 2.43.28 2.65.85.73 1.89 2 4.8 1.26 5.83-4.09 5.34-8.92 10.03-16.27 12.23z"/><path d="m407.32 201.92c-4.24-.08-15.91-7.71-16.6-11.14-.4-2 .52-4.45 1.52-6.31.25-.46 3.56 0 4.8 1 5.28 4.04 10.38 8.38 10.28 16.45z"/><path d="m168.65 113.35c-10.9-9-8.6-6.09 0-19.56 4.35 6.39 4.35 12.79 0 19.56z"/><path d="m336.48 93.5c2.33 3.51 4.74 6.75 6.64 10.27.54 1 0 3.16-.76 4.18a53.89 53.89 0 0 1 -5.79 5.68c-4.57-6.85-4.57-13.3-.09-20.13z"/><path d="m189.55 109.11h-9.88c1.36-2 2.44-4.36 3.06-4.24 2.49.47 4.84 1.71 7.24 2.66z"/><path d="m324.77 109.14h-9.89c5.55-6.03 7.48-6.07 9.89 0z"/><path d="m100.63 175.86v-5.51c1.2.3 3.32.42 3.42.94.29 1.54-.22 3.24-.41 4.87z"/><path d="m402.15 176.33c-.68-1.31-2.13-2.83-1.85-3.88s2.16-2 3.35-2.94l1.28.84-1.25 5.73z"/><path d="m314.85 443.5c-12-1.07-24.05-.58-34.78-6.95a133.79 133.79 0 0 0 -17.12-8c-4.54-1.87-7.93-.6-9 4.77a6.42 6.42 0 0 1 -.44 1.36c-1.28-.24-1.54-.21-1.6-.31-4.83-7.62-7.53-8.65-15.88-3.63a90.83 90.83 0 0 1 -46.52 13.43c2-1.54 3.23-2.82 4.72-3.56 5.36-2.63 10.94-4.84 16.18-7.7 2.77-1.52 4.9-4.2 7.54-6a7.83 7.83 0 0 1 4.67-1.58c4.51.4 9 1.32 13.45 2 .84.12 2.12.22 2.55-.26 6.48-7.23 15.28.56 22.22-3.55a1.62 1.62 0 0 1 1.47.35c6.09 6.4 12.92 2.54 19.61 1.66a8.24 8.24 0 0 1 5.08 1.47c2.52 1.7 4.48 4.35 7.12 5.78 5.25 2.83 10.83 5 16.2 7.65a36.89 36.89 0 0 1 4.53 3.07z"/><path d="m154.36 386.81-18.38-5c1.43-5.07 5.69-5.79 9.34-6.77 2.36-.62 8.16 7.05 9.04 11.77z"/><path d="m369.31 381.77-18.48 5-1.26-1.63c3.23-3.38 5.92-8.09 9.86-9.7 2.95-1.24 7.57 1.46 9.88 6.33z"/><path d="m290.8 382.65c.39 6.93 1.6 14-4.12 20.41-1.34-5-3.42-9.32-3.35-13.64 0-2.7 3.32-5.34 5.15-8z"/><path d="m218.73 402.55c-4.79-3.61-6.31-11.64-4-20 5.83.9 8 4.52 6.22 9.74-1.05 3.29-1.47 6.78-2.22 10.26z"/><path d="m322 413.15c1.2 4.67 2.05 8 3.22 12.54l-14.39-3.18-.44-1.73z"/><path d="m193.83 422.6-14 3.1 3.17-12.53 11.56 7.56z"/><path d="m138.65 415.92 8.36-1.45.54 2.45-8.2 2.11c-.23-1.03-.46-2.03-.7-3.11z"/><path d="m366.38 419.41-9.71-2.6c5.04-3.29 7.77-2.69 9.71 2.6z"/><path d="m277 399.4-3.59 7.13-2.31-1.12 3.2-7.28z"/><path d="m231.32 406.5-3.24-7.24 2.34-1.14 3.57 7.07z"/><path d="m312.66 252.28c-.43-8.5-.92-15.73-1.05-23 0-1.52 1.24-3.07 1.91-4.6 1.25 1.59 3.48 3.11 3.58 4.77.5 7.73.54 15.51.42 23.26 0 1.49-1.45 3-2.23 4.45a48 48 0 0 1 -2.62-4.09c-.28-.51.01-1.36-.01-.79z"/><path d="m320 324.84c-3-3.23-6.44-5.72-6.06-6.74 1-2.58 3.66-4.49 5.66-6.67 1.6 2 4.06 3.89 4.5 6.15.29 1.65-2.1 3.83-4.1 7.26z"/><path d="m254.53 7.86c136.41-.7 247.07 111 246.8 247-.27 138.24-110.33 249.92-244.91 249.73-137.83-.2-245-109.65-246.5-246.51-1.53-136.03 106.76-250.03 244.61-250.22zm138.93 443.14c11.78-3.91 19-13.52 27.28-21-2.25-2.92-4.46-4.75-5.11-7-.45-1.6 1.23-3.82 2-5.77 1.65 1.2 3.57 2.17 4.87 3.68.91 1 1 2.85 1.52 4.57a10.52 10.52 0 0 0 2.23-1 20.93 20.93 0 0 0 2.71-2.53c39.17-43.95 62.04-94.95 63.77-154.67 1.61-55.07-11.61-106.18-44.41-150.47-57.32-77.38-133.99-110.7-228.9-97.81-48.81 6.65-90.89 29.09-126.42 63.36-40 38.64-64.23 85.78-71.8 141.45-5.68 41.77-1.81 82.66 14.29 121.5 30.17 72.76 82.93 120.82 157.76 143.69 3.67 1.12 5.65.87 5.67-3.75 0-2.92.44-6.8 4.53-6.24 1 .15 1.53 4.49 2.26 6.91a.91.91 0 0 1 -.11.52c-1.7 4-.4 5.88 3.91 6.28 14 1.31 27.92 2.8 41.88 4.23 4.09.42 5.75-.76 4.88-5.44-.35-1.89 1.82-6.06 2.86-6.07 3.63 0 3.87 3.25 3.64 6.26-.43 5.49.37 6 5.89 3.49-.36-1.63-1.18-3.38-1-5s1.4-3.26 2.16-4.88c1.43 1.22 3.17 2.24 4.21 3.74.71 1 .25 2.82.71 4.13.35 1 1.35 2.6 2 2.57a40.76 40.76 0 0 0 10.83-1.53c.78-.26.06-4.29.6-6.44.41-1.66 1.71-3.08 2.62-4.61a33.2 33.2 0 0 1 3.94 4c.52.73-.08 2.23.35 3.1.53 1.05 1.76 2.68 2.44 2.57 6-1 11.87-2.32 18.19-3.64-1.23-2.55-2.57-4.22-2.76-6a15.91 15.91 0 0 1 1.05-6.42c.15-.46 2.83-.78 3.14-.32a18.25 18.25 0 0 1 2.69 5.86c.34 1.39-.27 3-.63 5.93l15.42-5c-1-1.76-1.61-2.34-1.66-3-.31-3.69-.49-7.39-.71-11.09 4 .26 8.06.37 12.05.87a3.71 3.71 0 0 1 2.36 2.41 22.38 22.38 0 0 1 .11 5.12c6.53 0 7.34-1.08 5.53-6.45a10.64 10.64 0 0 1 -.61-2.58c-.18-2.8-.94-6.49 3-6.54 1.46 0 3.77 3.19 4.28 5.28 1.3 5.26 1.74 6 6.38 3.18 8.77-5.23 17.35-10.8 25.92-16.36 1-.67 1.55-2.14 2.3-3.24z"/><path d="m393.61 450.86c-.75 1.1-1.27 2.57-2.3 3.24-8.57 5.56-17.15 11.13-25.92 16.36-4.64 2.77-5.08 2.08-6.38-3.18-.51-2.09-2.82-5.3-4.28-5.28-4 .05-3.22 3.74-3 6.54a10.64 10.64 0 0 0 .61 2.58c1.81 5.37 1 6.41-5.53 6.45a22.38 22.38 0 0 0 -.11-5.12 3.71 3.71 0 0 0 -2.4-2.45c-4-.5-8-.61-12.05-.87.22 3.7.4 7.4.71 11.09.05.63.65 1.21 1.66 3l-15.42 5c.36-2.9 1-4.54.63-5.93a18.25 18.25 0 0 0 -2.69-5.86c-.31-.46-3-.14-3.14.32a15.91 15.91 0 0 0 -1.05 6.42c.19 1.8 1.53 3.47 2.76 6-6.32 1.32-12.23 2.64-18.19 3.64-.68.11-1.91-1.52-2.44-2.57-.43-.87.17-2.37-.35-3.1a33.2 33.2 0 0 0 -3.94-4c-.91 1.53-2.21 2.95-2.62 4.61-.54 2.15.18 6.18-.6 6.44a40.76 40.76 0 0 1 -10.83 1.53c-.64 0-1.64-1.56-2-2.57-.46-1.31 0-3.1-.71-4.13-1-1.5-2.78-2.52-4.21-3.74-.76 1.62-1.95 3.19-2.16 4.88s.63 3.38 1 5c-5.52 2.51-6.32 2-5.89-3.49.23-3 0-6.28-3.64-6.26-1 0-3.21 4.18-2.86 6.07.87 4.68-.79 5.86-4.88 5.44-14-1.43-27.91-2.92-41.88-4.23-4.31-.4-5.61-2.27-3.91-6.28a.91.91 0 0 0 .11-.52c-.73-2.42-1.22-6.76-2.26-6.91-4.09-.56-4.51 3.32-4.53 6.24 0 4.62-2 4.87-5.67 3.75-74.83-22.84-127.59-70.9-157.76-143.66-16.1-38.84-20-79.73-14.29-121.5 7.57-55.67 31.8-102.81 71.8-141.45 35.53-34.27 77.61-56.71 126.42-63.36 94.91-12.89 171.58 20.43 228.9 97.81 32.8 44.29 46 95.4 44.41 150.47-1.73 59.72-24.6 110.72-63.81 154.65a20.93 20.93 0 0 1 -2.71 2.53 10.52 10.52 0 0 1 -2.23 1c-.53-1.72-.61-3.52-1.52-4.57-1.3-1.51-3.22-2.48-4.87-3.68-.73 1.95-2.41 4.17-2 5.77.65 2.28 2.86 4.11 5.11 7-8.3 7.51-15.5 17.12-27.28 21 .29-2.84 1-5.73.65-8.5-.11-1-2.61-2.67-3.78-2.49s-2.48 2.33-2.65 3.74c-.45 4.27 1.89 6.55 5.97 7.13zm-318.82-226.95-1.54.9c-1.32-.95-2.73-1.81-4-2.88-3.46-3-6.84-6.14-10.24-9.22-2.74-2.48-5.91-3.93-8.91-1.09s-1.22 5.9.84 8.56c4.79 6.14 9.7 12.18 14.36 18.41.86 1.15 1.61 3.77 1 4.43-4.89 5.51-9.43 11.62-17.66 12.48a12.15 12.15 0 0 0 -6.13 2.65 4.93 4.93 0 0 0 .71 8.16c6.63 3.95 13.3 7.85 20.12 11.47 4.54 2.41 9 2.85 12.72-2a4.15 4.15 0 0 1 3.44-1.43c3.23.84 6.34 2.19 9.49 3.34l-4.41 11.25c-1.7-1-3.56-2.22-5.56-3.12-2.23-1-4.61-2.39-6.89-2.31-2.53.08-6 .93-7.23 2.73s-.5 5.34.27 7.82c.64 2.08 2.83 3.62 3.87 5.64a5 5 0 0 1 .18 4.08c-3.23 5.42-2.46 8.66 3.36 11.12 2.89 1.22 6 1.77 9 2.74 2 .65 4 1.52 6.76 2.59-2.33 2.55-3.72 4.37-5.41 5.85-5.18 4.53-10.6 8.78-15.67 13.44-2.68 2.46-4.64 5.58-1.79 9.36 2.65 3.51 5.9 3.32 9.4 1.52l6.74-3.4c-.58 3.57-1.51 5.91-1.13 8 .42 2.33 1.55 5.29 3.31 6.32 1.17.69 4.17-1.28 6-2.56 1.21-.84 1.89-2.52 2.71-3.89 2.38-4 4.71-8.08 7.67-13.17 4.93 6.08 9 11.47 13.54 16.5 1.39 1.55 3.84 2.13 5.8 3.16.52-2.24 1.72-4.59 1.39-6.69-.43-2.71-2-5.28-3.22-7.82-1.94-4-4.5-7.72-6-11.86-2.7-7.7-.1-10.6 7.93-10.11a175.81 175.81 0 0 0 20.52.44c2.19-.12 5.66-2.37 6.08-4.22.84-3.73-2.52-4.75-5.75-5.2-2.37-.33-4.68-1.07-8.24-1.92a59.45 59.45 0 0 0 5-4.7c2.2-2.74 4.69-5.41 6.1-8.55.7-1.53-.18-4.6-1.44-5.93-.77-.82-4.05-.28-5.39.75-3.21 2.43-5.84 5.64-8.91 8.29a78.62 78.62 0 0 1 -6.91 4.87l-1.26-1.18c.92-2 1.88-3.95 2.76-6 2.7-6.15 5.46-12.28 8-18.51 1.2-2.94 1.65-6.39-1.93-7.81-4.09-1.62-5.24 1.87-6.64 4.9-2.63 5.71-5.58 11.27-8.39 16.89h-1.72c-2.09-3.75-4.16-7.52-6.29-11.25-3.47-6.08-3-10.23 1.08-15.7 5.2-6.93 10.34-13.94 15-21.21 5.39-8.32 4.48-11.63-4-16.84 1-1.79 2.72-3.51 2.94-5.41.35-3.09.7-6.86-.7-9.33-2-3.46-5.87-2.6-8.93-.68-3.57 2.25-6.84 5-10.43 7.2-5.11 3.14-10.39 6-15.6 9l-1.46-1.83a34.87 34.87 0 0 1 3.65-4.25c3.48-3 7.13-5.75 10.71-8.6 7.32-5.82 14.15-12.48 22.12-17.15 5.16-3 7.45-6.45 8.14-11.84a10.61 10.61 0 0 1 .89-2.24c2.24 1.42 4 3 6.09 3.72s5.62 1.83 6.51.86c1.38-1.5 1.78-4.76 1.32-7-.68-3.23-2.55-6.2-3.83-9.31-.47-1.14-.71-2.38-1.3-4.38 3.68 1.14 6.32 2.06 9 2.76 3.79 1 7.7 1.39 9.14-3.41 1.38-4.59-2-6.32-5.5-7.59-6.68-2.43-13.39-4.79-20.09-7.17l.05-1.35c4-.7 8-2.06 12-1.94 7.85.23 15.67 1.33 23.5 2 3 .25 6.94.73 7.1-3.24.09-2.06-2.73-5.06-5-6.22-3.57-1.86-7.75-2.56-11.67-3.74a35.81 35.81 0 0 1 10.8-.85c8.87.54 18.87-6.43 19.56-15 .49-6.07 3.52-6.17 7.63-5.34a21.35 21.35 0 0 1 6.79 2.65c5.5 3.31 7 2.91 9.23-3s5.53-7 10.73-3.71c1.93 1.24 3.72 3.61 5.65 3.71 3.22.15 6.5-1.12 9.76-1.79a45.82 45.82 0 0 0 -2.46-6.8c-.86-1.6-2.47-2.78-4.1-4.53 4.72-2.82 6.54-6.09 3.95-11-.36-.68 1.37-2.77 2.46-3.9 2.95-3.08 6.68-5.58 8.95-9.09 2.15-3.3 2.7-7.64 4.23-11.41a7 7 0 0 1 3-3.31c.56-.3 2.24.78 2.9 1.64s.72 2.32 1.15 3.48c2.86 7.72 4.29 16.49 14 19.18.72.2 1.7 2.58 1.33 3.19-3 5-.51 8.36 3.56 11.46-2 2.16-3.91 4-5.52 6-2.2 2.79-2 4.57 1.67 6.49 5.61 3 8.84-.7 12.73-3.25 5.6-3.67 8.69-2.54 11 3.87 1.95 5.45 3.76 5.78 9 2.93 3-1.62 6.5-2.36 9.86-3.06 2.6-.55 4 .6 4.42 3.7 1.53 10.93 10.33 17.6 21.19 16.66 3.12-.26 6.28 0 9.43 0-4.2 2.35-8.56 3.19-12.35 5.16-2 1-3 4-4.49 6.16 2.19 1 4.31 2.36 6.61 2.89 1.59.36 3.44-.6 5.18-.64 8.71-.23 17.42-.44 26.14-.43 1.67 0 3.35 1 6.29 2-8.08 2.88-14.68 5.2-21.26 7.57-3.67 1.33-7.3 3.06-5.65 7.93 1.61 4.72 5.57 4.07 9.32 3.09 2.74-.71 5.44-1.54 9-2.56-2.21 5.35-4.3 9.46-5.52 13.83-.57 2-.15 5.48 1.17 6.53s4.46.21 6.54-.54 4.13-2.44 6.31-3.8c2.59 9.26 2.6 9.25 10.32 14.44.87.59 1.62 1.37 2.45 2 9.78 7.81 19.6 15.57 29.32 23.46 1.35 1.1 2.23 2.8 3.33 4.23l-1.29 1.37c-3.1-1.48-6.39-2.66-9.28-4.49-5.64-3.57-11-7.6-16.62-11.23-3-1.92-6.3-2.69-9.18.29s-2.39 6.47-.67 9.87c.92 1.8 2 3.52 3 5.3-8.24 4.45-9.39 7.79-4.68 15.53a219.55 219.55 0 0 0 14.14 20.56c6.8 8.74 4.78 22.17-5.53 28.78-2.87-5.93-5.79-11.74-8.51-17.65-1.28-2.77-2.69-5.49-6.16-4.26s-3.52 4.34-2.37 7.18c2.71 6.72 5.73 13.32 8.6 20 .78 1.8 1.49 3.62 2.24 5.44l-1.23 1c-2.35-1.69-4.83-3.22-7-5.12-2.93-2.54-5.4-5.68-8.51-7.94-1.48-1.06-4.79-1.6-5.82-.69-1.24 1.09-1.77 4.31-1.12 6 1 2.71 3.19 5 5.09 7.33 1.4 1.7 3.15 3.1 6 5.84-3.8.78-6.18 1.41-8.6 1.73-3.08.41-6.23 1.58-5.5 4.93.41 1.89 3.7 4.27 5.85 4.44a130.33 130.33 0 0 0 19-.2c10.73-.73 13.19 2.67 8.69 12.62-.94 2.1-2.22 4-3.23 6.11-1.7 3.49-3.82 6.91-4.77 10.62-.53 2.07 1 4.66 1.53 7 1.93-1.14 4.28-1.89 5.71-3.49 4.47-5 8.59-10.34 13.48-16.33 1.46 2.52 2.2 3.84 3 5.14 2.36 3.95 4.4 8.18 7.25 11.72 1.35 1.68 4.85 3.34 6.35 2.66 1.66-.74 2.63-4.08 3-6.43.34-2.1-.55-4.39-1.07-7.78 2.79 1.45 4.58 2.37 6.35 3.31 3.67 2 7.1 2.19 9.78-1.63s.47-6.82-2.14-9.33-5.57-4.35-8.2-6.7c-4.13-3.7-8.12-7.58-13.22-12.37l7.56-2.68c3.77-1.36 7.78-2.31 11.26-4.22s4.55-5.48 1.65-8.52c-2.49-2.6-1.67-4.16.15-6.24 1-1.19 2.4-2.42 2.76-3.85.68-2.75 2-6.58.75-8.25-1.45-2-5.32-2.88-8.11-2.83-2.59.05-5.16 1.94-7.7 3.1-1.48.68-2.89 1.51-4.07 2.13-1.64-4.35-3-8-4.28-11.32 3.14-1.1 6.14-2.3 9.22-3.15a4.13 4.13 0 0 1 3.21.74c6.65 5.41 9.36 5.44 16.62.63 4.53-3 9.48-5.38 14-8.45 2-1.41 5.15-4.3 4.77-5.64-.67-2.36-3.49-5.51-5.69-5.75-7.93-.85-12.93-5.69-18-11-2.61-2.71-2.31-4.37 0-7.07 5.05-5.91 9.74-12.14 14.44-18.35 1.94-2.55 3.26-6.09.09-7.93-1.92-1.13-5.66-.39-7.95.78-2.72 1.38-4.73 4.17-7.12 6.27s-5.09 4.3-7.64 6.45l-1.78-1.31c1.25-4.56 2.51-9.12 3.73-13.58 3.45.49 6.34 1.59 8.89 1a7.52 7.52 0 0 0 4.69-4.65c.35-1.34-1.79-4.68-3.18-4.92-4.23-.72-5.53-3.53-7.25-6.8-1-2-3.82-4.33-5.65-4.2s-4.22 2.73-5.36 4.8c-1.31 2.42-1.61 5.42-2.22 8.2-1.38 6.31-2.88 7-7.67 3-1.19-1-1.52-3.32-1.8-5.11s0-3.86-.07-5.79c-.34-6.38-.86-12.76-1.09-19.15-.16-4.26 1.43-6.27 6.14-4.75 3.28 1.06 6.93 1.91 10.25 1.51 2-.24 4.55-2.84 5.1-4.87.35-1.31-2.21-3.81-3.92-5.2-1.4-1.13-3.47-1.4-5.83-2.26 1.33-1 2.33-1.47 2.9-2.25 1.68-2.29 4.74-5 4.37-7-.46-2.43-3.66-5.77-6-6.09a81.38 81.38 0 0 0 -20.15-.34c-4.06.46-5.34-.2-4.75-4 1.06-6.83 2.26-13.64 3.42-20.45 1-5.56-1-10.32-4.59-10.43-5.41-.16-5.76 4.15-6.33 8.1-.13.88-.16 1.78-.36 2.64-1.42 6.09-2.88 12.17-4.32 18.25h-2.09c-.75-5-2-9.92-2.12-14.92-.15-4.75 1.08-9.54 1.1-14.32 0-1.7-1.76-3.41-2.72-5.12-1.64 1-3.57 1.79-4.82 3.19-1 1.08-1.21 2.93-1.52 4.48-.9 4.58-1.67 9.18-2.5 13.76a9.09 9.09 0 0 1 -3.16-5c-1.3-7.16-2.12-14.4-3.64-21.5-.43-2-2.64-3.65-4-5.46-1.76 1.66-3.92 3.08-5.16 5.08-.82 1.31-.52 3.47-.36 5.22.48 5.49 1.26 11 1.68 16.44.38 5-1.95 8-6.83 8.27s-10 .08-15 .08l-1-1.9c3.79-4.48 7.37-9.18 11.43-13.4 3.41-3.54 6.43-7.19 3.85-12.15-3.91-7.52-8.16-14.88-12.73-22-2.86-4.45-7.62-3.73-9.85 1.14-1.07 2.34-1.72 4.89-2.95 8.47-1.42-2.53-2.4-4.12-3.23-5.79-1.42-2.86-2.32-6.12-4.27-8.52-1.42-1.76-4.17-2.43-6.32-3.58a63.46 63.46 0 0 0 -3.14 6.49c-.42 1.19-.07 2.65-.07 4.55-3.7-1.44-6.26-2.77-5-7 1.21-4-1.27-4.7-4.32-4.35-1.49.17-2.92.91-5.27 1.69-.73-3-1.77-5.63-1.92-8.3-.18-3.48-1.72-5.31-4.92-5.84-11.59-1.94-23.17-3.86-34.77-5.66a16.08 16.08 0 0 0 -4.69.46c-4.5.66-9 1.34-13.5 2.07-6.05 1-12.1 2-18.15 3.07-3.45.58-5 2.43-5.18 6.17-.09 2.63-1.31 5.21-2 7.82a22.59 22.59 0 0 1 -2.45-.51c-6.09-2.19-6.9-1.58-6.67 4.67.12 3.43-1.94 4.9-5.5 5.41.1-1.93.59-3.62.16-5-.63-2-1.57-4.84-3-5.33s-4.53.68-5.76 2.12c-2 2.37-3.11 5.53-4.57 8.36-1.06 2.06-2.09 4.12-3.68 7.26-.81-2.43-1.16-3.41-1.46-4.41-1.08-3.56-1.68-7.75-6.35-8.15s-5.85 3.89-7.67 7c-2.5 4.26-4.35 9-7.2 13-5.27 7.35-4.86 11.16 1.63 17.5 4 3.92 7.24 8.71 11.64 14.13l-13.89.65a18.57 18.57 0 0 1 -2.11 0c-5.47-.37-8-3.17-7.58-8.67.17-2.48.78-4.92 1-7.4.32-4.25 1.12-8.62.45-12.72-.38-2.34-3.27-4.25-5-6.35-1.5 2.08-3.71 4-4.32 6.29-1 3.91-.73 8.15-1.54 12.14-1 4.68-2.51 9.23-3.81 13.83l-1.37-.37c-1-5-1.8-10-3-15-.72-3-1.43-7.11-5.65-6.29s-3 4.78-2.75 7.92c.41 4.25 1.16 8.54.9 12.76-.28 4.55-1.55 9-2.39 13.55l-2-.07c-1.51-7-3.11-14-4.49-21.05-.77-4-1.26-8.62-6.58-7.68-4.88.87-4.66 5.52-4.46 9.51a31.71 31.71 0 0 0 .66 3.13c1 5.94 2 11.89 2.87 17.84.62 4.15-.7 5.55-5 4-7.26-2.52-14.61-1.89-21.66 1-5.69 2.32-6.28 7.9-1.46 11.7 1.28 1 2.64 1.9 4.54 3.26-2.64.95-4.71 1.23-6.15 2.34-1.63 1.26-3.95 3.48-3.71 4.88.34 1.92 2.56 4.51 4.4 4.93 2.71.63 5.87-.08 8.71-.77 7.8-1.93 8.5-1.59 8.49 6.58s.13 16.57-.78 24.75c-.23 2-4.28 3.56-6.57 5.32-1.08-1.55-2.5-3-3.14-4.68-1-2.65-1-5.74-2.24-8.19-1.18-2.27-3.15-4.94-5.35-5.66-3.43-1.12-4.92 2-6.4 4.9-1.13 2.16-2.94 4.74-5 5.43-3.51 1.19-6.08 2.44-4.93 6.54s4.51 4.52 8.09 3.84c1.8-.34 3.56-.86 5.63-1.37zm33.81 158.76c-3 0-4.37.07-5.73 0-3.52-.23-7.08-.14-7.79 4.31s.51 8.11 5.14 9.91c1.61.62 3.65 1.2 4.52 2.48 3.69 5.43 8.2 4.46 12.34 1.44 5.17-3.78 10.26-4.56 16.24-2.47 5.82 2 11.84 3.45 17.77 5.13l-.17 1.44c-2 .33-4.06.51-6 1-3.53.93-7.25 1.59-10.44 3.26-3.73 1.95-6.31 5.46-5.6 10a8.79 8.79 0 0 0 8.91 7.69 46.21 46.21 0 0 0 13.68-2.25c2.95-.87 5.36-3.47 8.29-4.57s6.25-1.31 9.4-1.92l.51 1.89c-3.2 2.37-6.53 4.57-9.55 7.14s-4.31 5.72-2.55 9.53c1.85 4 5.38 5.14 9.27 4.21 3.2-.77 6.19-2.42 9.3-3.61 2.26-.88 4.55-1.66 6.83-2.48a4 4 0 0 1 -.97 3.2c-3 3.68-6 7.55-2.79 12.43 3 4.55 7.48 4.41 12.28 3.5 7.25-1.37 14.55-2.48 21.87-3.42a6 6 0 0 1 4.64 1.49c3.39 3.81 7.69 4.37 12.08 3.61a45.71 45.71 0 0 0 13.06-3.82c6.36-3.25 12.06-3.42 18.49-.12a35.91 35.91 0 0 0 13.56 3.85c3.53.25 7.21-1.65 10.81-2.67 2.33-.65 4.72-2.27 6.92-2 7.5.82 14.93 2.29 22.39 3.49 4.3.69 8.17-.08 10.61-4.07s.55-7.5-1.8-10.8c-.86-1.21-1.77-2.39-2.66-3.58l.72-1.18c2.63 1.09 5.25 2.25 7.91 3.27 2.93 1.13 6 3.11 8.86 2.94s6.94-1.85 8-4.1-.27-6.33-1.71-9c-1.16-2.12-4-3.28-6.14-4.86l-3.9-2.89.56-1.71c2.79.36 5.77.2 8.3 1.2 3.4 1.34 6.27 4.25 9.71 5.25a45.47 45.47 0 0 0 14.23 1.93c4-.14 8-3 7.86-7.27-.06-3.25-1.95-7.49-4.43-9.4-3.13-2.4-7.68-3-11.67-4.16a55.52 55.52 0 0 0 -5.77-1.14c3.59-2.36 7.22-3.44 10.83-4.54 8.6-2.61 17-5.34 25.28 1.62 1.59 1.33 5.67.49 8.2-.44 2.8-1 5.07-3.46 7.7-5.06 3.75-2.29 4.58-5.79 3.83-9.68s-3.78-4.18-7-4.08c-1.74.05-3.49-.18-6.38-.36a54.23 54.23 0 0 0 3.9-5.19c2.23-4 4.78-8 6.2-12.27.64-1.95-1.08-4.71-1.73-7.1-2.29.7-5 .88-6.77 2.24-2.47 1.88-4.13 4.83-6.42 7-3 2.86-5.93 2.29-7.7-1.36-1.93-4-3.24-8.26-5-12.32-1.49-3.38-2.87-6.94-5.06-9.82-1.1-1.46-4.3-2.66-5.82-2.07-1.83.73-4.15 3.55-4.05 5.34.25 4.46 1.58 8.91 2.8 13.27a62.28 62.28 0 0 0 3.11 7.44l-1.64 1.39c-2.8-2.1-6-3.85-8.31-6.38-3.24-3.47-5.61-7.78-8.89-11.2-1.23-1.29-4-1.11-6-1.6-.47 2.06-1.83 4.46-1.23 6.13 1.18 3.27 3.55 6.07 5.21 9.19.8 1.48 2.08 3.93 1.5 4.73-3.54 4.89-7.54 9.44-12.23 15.13-.48-2.93-.63-4.45-1-5.91-1.92-7.74-3.66-15.54-6-23.14-.54-1.73-3.35-2.74-5.11-4.08-1 2-2.94 4.08-2.93 6.12 0 3.29 1.3 6.57 2 9.87 1 4.9 2 9.82 2.95 14.72l-2.11 1.23c-2.56-2.43-4.89-5.18-7.75-7.15-1.74-1.2-4.3-1.2-6.49-1.74-.26 2.37-1.34 5-.63 7.05 1.58 4.48 4.3 8.55 6.09 13 1.57 3.89 2.22 8.15-1.31 11.43-4.68 4.34-9.81 8-16.13 8.85 1.6-8.11 3.39-15.49 4.34-23 .33-2.66-1.23-5.65-2.26-8.36-.77-2-2.51-3.72-3.08-5.77-1.75-6.29-6.24-8.84-12-5.73a74 74 0 0 0 -11.53 8.32c-3.38 2.8-6.68 2.75-9.31-.34-3.12-3.64-6.6-4.12-10.89-3.32a18.06 18.06 0 0 1 -6.26-.13c-3.75-.66-6.8 0-9.47 3-3 3.49-6.37 3.64-10.11.47a70.74 70.74 0 0 0 -12-8.56c-5-2.71-9.38-.28-10.9 5.3-.46 1.69-.39 4.17-1.49 5-5.89 4.18-4.58 10-3.65 15.52 1 5.8 2.8 11.46 4.52 18.19-7.65-2.52-14.14-5.32-18.21-11.74a8 8 0 0 1 -.52-6.09 144.53 144.53 0 0 1 6.21-14.63c1.32-2.79 3.37-5.64.21-8.1-3.41-2.64-5.67.13-8 2.51-2.08 2.14-4.5 3.93-6.78 5.88l-1.46-.95a65 65 0 0 1 .72-7.13c1.2-5.73 3-11.38 3.73-17.16.25-2-2-4.3-3.12-6.47-1.72 1.41-4.19 2.48-5 4.3a75.32 75.32 0 0 0 -3.95 12.69c-1.19 4.86-2 9.81-3.18 15.67-3.83-4.49-6.84-8.32-10.19-11.83-2.42-2.54-2.47-4.74-.51-7.5s4.08-5.51 5.17-8.61c.67-1.9-.47-4.46-.79-6.72-2.29.66-5.25.63-6.73 2.12-3.33 3.35-5.67 7.71-8.92 11.17-2.19 2.34-5.24 3.84-7.91 5.71l-1.47-1.52a74.15 74.15 0 0 0 3.25-7.52c1.2-3.84 2.76-7.81 2.72-11.71 0-2.35-2.35-5.85-4.45-6.63-1.65-.61-5.15 1.62-6.7 3.53-1.93 2.37-2.74 5.69-4 8.64-1.55 3.78-2.84 7.67-4.57 11.36-2.12 4.53-5.12 5-8.69 1.49-1.88-1.85-3.21-4.38-5.3-5.89s-4.68-2-7.07-2.95c-.63 2.71-2.36 5.76-1.66 8 1.27 4.14 3.94 7.86 6.13 11.7.85 1.5 1.95 2.76 3.83 5.43zm175-146.06c6 1.13 10.23.53 11-5.79.85-7.06 1.88-14.11 2.37-21.2.63-9.21-.69-10.69-9.55-13.05a4.43 4.43 0 0 1 -2.17-1.84c-.22-.33.23-1.38.65-1.84 2.2-2.32 13-.88 14.82 1.92 2.12 3.25 3.89 6.83 6.46 9.66 3.08 3.41 7.39 2 8.19-2.48a93.88 93.88 0 0 0 1.47-12.71c.39-10.35-3.07-14.8-13.26-15.16-15.24-.54-30.52-.18-45.78-.13a12.07 12.07 0 0 0 -4.1.92c-6.16 2.29-7.39 8.36-2.17 12.32a9.65 9.65 0 0 1 4.09 8.59c-.1 17.8 0 35.6-.25 53.4 0 1.85-1.46 3.71-2.32 5.53-.69 1.49-2.49 3.64-2.06 4.25a10 10 0 0 0 4.83 3.36c2.25.76 4.84.48 7.12 1.19a36 36 0 0 0 23.24-.43c4.94-1.76 6-7.15 1.67-9.88-6.85-4.33-4.55-10.15-4.26-16.63zm-103.71-28 2.16.79q-.9 17.69-1.79 35.36a10.54 10.54 0 0 1 -4.94 8.77c-1.68 1.18-3 4.73-2.5 6.68s3.47 4.57 5.41 4.62a287.28 287.28 0 0 0 30.92-.65c6.24-.53 8-4.91 5.66-10.92a21.11 21.11 0 0 1 -1.64-6.6c-.33-10.3-.34-20.6-.6-30.9-.28-10.65-.32-21.33-1.23-31.93-.63-7.38-3.64-9.48-10.82-9.38-3.33 0-6.79-.16-9.94.7s-6.69 2.19-8.42 4.55c-5.76 7.81-10.94 16.08-15.93 24.43-1.12 1.88-.55 4.81-.75 7.26 3.12.24 6.31.94 9.36.56 1.78-.24 3.36-2.19 5.04-3.36zm144.41 31.22a10.72 10.72 0 0 1 2.58-.35c9.42 2.13 14.14-2 13.18-11.69a56.65 56.65 0 0 0 -.84-5.8c-1.56-7.48-7.34-10.2-14.4-7.31a17.58 17.58 0 0 1 -8.35 1.1c-6.74-.75-13.06 4.37-12.88 11.14.16 6.39.74 12.78.74 19.17a37 37 0 0 1 -1.33 10.36c-1.43 4.88-.26 7.62 4.73 8.33a64.46 64.46 0 0 0 11 .71c7.52-.22 9.81-3.94 7.92-11.24-1.22-4.68-1.6-9.57-2.36-14.44zm-3.8 92.17c10.76 0 16.55-10.67 11.46-20.93-1.2-2.41-2.53-5.24-2.35-7.77.36-5.2-.12-9.68-5.15-12.24s-10.22-2.31-14.87 1.18c-4.06 3-5.14 8.14-3.71 14a12.52 12.52 0 0 1 -.13 6.05c-3.29 11.71 2.61 19.71 14.75 19.71zm-62.81-18c-.35-2.64-.86-7.05-1.54-11.44a28.32 28.32 0 0 0 -1.48-5.65c-2.32-6.06-8.22-8.48-15.32-6.4-5.63 1.64-9.5 6.85-8.72 11.74.85 5.38 5.54 8.12 13.26 7.08 4-.53 5 1.16 5.18 4.6.33 6.8-2.44 9.59-9.26 9.85-1.71.07-3.37 1.58-5.05 2.43 1 1.7 1.69 4.1 3.2 5a11.82 11.82 0 0 0 7 1.29c8.34-1.16 12.98-7.5 12.73-18.43zm22.63-5.81 1.76.58c0 4.88-.19 9.78.07 14.65.16 3 .89 6.87 4.74 6.2 1.76-.31 4.09-3.87 4.22-6.07.52-9 .53-18.12.19-27.17-.09-2.24-1.85-5.79-3.5-6.25-2.09-.57-5.72.69-7.17 2.45a205.69 205.69 0 0 0 -14.26 19.77c-1.1 1.72-.32 4.68-.4 7.08 2.27-.84 5-1.14 6.72-2.63 2.88-2.4 5.12-5.63 7.63-8.54zm-78.32-2 1.78.43c0 4.55-.17 9.11.06 13.65.18 3.67-1 9.2 4.4 9.16 4.67 0 5.07-5.38 5.22-9.13a183.09 183.09 0 0 0 -.23-22.35c-.22-2.73-2-6.52-4.14-7.55-1.8-.86-5.63 1-7.71 2.66a95.42 95.42 0 0 0 -12 11.86c-1.56 1.81-1.89 4.71-2.78 7.11 2.72 0 5.75.84 8.09-.11 2.74-1 4.89-3.64 7.31-5.62zm-127 89.98c-.07 1.58-.59 3.06-.08 3.94.85 1.49 2.81 3.85 3.5 3.6a10.52 10.52 0 0 0 5.26-4.12c.59-1-.58-4.51-1.51-4.76-5.91-1.57-5.87-8.33-10.1-11.23-1-.71-1.75-2.57-2.68-2.62a3.9 3.9 0 0 0 -3.14 2.11c-.36 1.21.3 2.88.88 4.19s2.31 2.18 2.21 3.13c-.46 4.31 1.88 5.67 5.66 5.76zm270.53-141.9c.25-3.48-1.19-6-5.18-6.09a7.62 7.62 0 0 0 -7.57 7.82c.26 3.91 2.5 6.18 6.35 6.42s6.47-2.95 6.4-8.15zm95.38-130.55c-1.4-2.41-2.27-5.3-4.19-6.6-.92-.63-4.93 1.26-5.63 2.87-2.17 4.92 3 4.74 4.87 7 1.12 2.43 2.6 5.41 4.56 5.78 1.47.28 3.56-2.81 5.37-4.4zm34 189.55c5.07.53 7.13-1.91 6.7-5.73-.19-1.72.43-3.52.52-5.3.07-1.45.36-3.2-.31-4.27s-2.65-1.77-3.55-1.39c-1.17.49-1.93 2.16-2.68 3.44s-1.1 2.6-1.77 3.84c-1 1.82-3.29 3.94-2.88 5.25.62 1.96 3.06 3.31 3.98 4.16zm-12.1-134.79-1.58 1.34c1.39 1.42 2.57 3.52 4.24 4 1.34.43 4.29-.69 4.68-1.79.51-1.46-.74-3.59-1.29-5.41a42.71 42.71 0 0 0 -1.44-4.31c-.78-1.89-1.36-4.9-2.65-5.29-1.64-.49-5 .63-5.62 2s.74 4.09 1.51 6.1a18.19 18.19 0 0 0 2.16 3.36zm.38 161.66c-1.45 2.77-2.48 4.5-3.27 6.34-.53 1.26-.66 2.69-1.08 4-.52 1.61-2.09 4-1.57 4.62a7.55 7.55 0 0 0 5.19 2.57c1 0 2.07-2.55 3-4a28.87 28.87 0 0 0 2-3.47c.74-1.59 2.34-3.74 1.84-4.75-.9-1.77-3.11-2.85-6.1-5.31zm-285.71-297.22a6 6 0 0 0 -1.9-.13c-2 .45-3.88 1-5.82 1.58.45 1.53.7 4.26 1.39 4.38 2 .36 4.25-.22 6.36-.62a38.93 38.93 0 0 0 4.85-1.4c1.53-.51 4-.82 4.29-1.75a6.64 6.64 0 0 0 -1.06-5.17c-2.59-3.31-4.76-2.43-8.11 3.11zm-144.62 255.23c-.36.62-.78 1-.82 1.47-.23 2.15-.35 4.32-.5 6.48l7-.92c-.37-2.11-.69-4.23-1.15-6.31a26.74 26.74 0 0 0 -1.39-4.87c-.68-1.59-1.39-3.73-2.67-4.31-1-.46-3.75.74-4.19 1.83-.53 1.3.37 3.38 1.07 4.92.39.79 1.68 1.12 2.65 1.71zm309.92-251.47-5.07-2.84-1.77 7.71 5.6 1.17 7 3.21 1.83-8.19zm-189.72 12.7c.39.66.77 1.33 1.16 2 1.27-1.19 3.82-3 3.59-3.48-1-2.32-2.43-5-4.48-6.12-1.37-.72-4.2.78-6.06 1.85-1.55.91-2.72 2.58-3.91 4a23.89 23.89 0 0 0 -1.89 3.17c1.31.51 2.76 1.65 3.9 1.39a55.72 55.72 0 0 0 7.69-2.81zm316.94 138.26-1.18.73c.44 1 .63 2.4 1.4 3a2.79 2.79 0 0 0 2.8-.1 9.3 9.3 0 0 0 1.19-3.66 47.58 47.58 0 0 0 .91-5c.23-2 .29-4 .42-6-2.86.46-5.84.62-8.5 1.63-.5.19-.06 3.79.47 5.67.37 1.38 1.62 2.5 2.49 3.73zm-20.2-61.12c-1.1 1.52-3.33 3.25-3.48 5.16-.21 2.6.88 5.46 2 7.93.51 1.1 2.4 2 3.73 2.13 1.11.1 3.41-1.31 3.34-1.7-.82-4.33-2-8.61-3.11-12.88-.07-.24-.94-.26-2.48-.64zm-273.88 329.66c-.71-.87-1.76-3.25-3.5-4-2.12-.91-6.33 5.33-5.93 9.37.16 1.58 2.23 4.26 3.38 4.23 4.88-.1 5.19-4.3 6.05-9.6zm195.13-6.18s.75.54 1.24.35c1.39-.55 3.72-1.35 3.77-2.16.1-1.83-.95-3.73-1.53-5.6-1.28.57-2.57 1.11-3.84 1.71a18.63 18.63 0 0 0 -4.3 2.23c-1.25 1.07-2.66 2.56-2.88 4-.17 1.1 1.46 2.47 2.29 3.72zm-260.84-372.35c-1.16-1.05-2.07-2.54-3-2.6a8 8 0 0 0 -4.51 1.4 18.64 18.64 0 0 0 -4.27 4c-1 1.21-2.32 3.18-1.92 4.12.52 1.2 3.43 2.74 3.9 2.36 3.28-2.65 6.24-5.8 9.8-9.28zm-12.55 332.48 3.42-3.63a84.5 84.5 0 0 0 -8.66-6.66c-.35-.22-3.71 2.7-3.82 4.29-.43 6.35 5.57 3.42 9.06 6zm-56.58-88.93c1-1.39 2.58-2.78 3.09-4.5.59-2 .24-4.31.31-6.48-2.71.26-6-.35-8 1-2.49 1.63-2 4.65.56 6.73 1.35 1.05 2.7 2.16 4.04 3.25zm366.6-232.2c2.38 2.12 3.47 3.85 4.87 4.18 2.75.64 6.62-3.77 6.06-7.21-.25-1.55-2.29-2.81-3.52-4.2zm-149.25-66 .57 1.1 4-2.47c-1.17-1-2.31-2-3.51-2.93a11.29 11.29 0 0 0 -2.49-1.64c-1.4-.6-4-1.68-4.18-1.35-1 1.64-2 3.74-1.85 5.55.08.85 2.78 1.62 4.4 2.08.92.26 2.03-.19 3.06-.34zm-71.56 446.8 4.67 4.92c1.85-1.9 4.31-3.53 5.28-5.81.48-1.13-1.8-3.46-2.83-5.25zm293.24-184.24 5.11-4.64c-1.9-1.93-3.57-4.32-5.84-5.54-.77-.41-3.09 2.17-4.7 3.38 1.59 1.98 3.17 3.97 5.43 6.8zm-274.31-253.94c2.23-3.1 4.56-5.28 4.18-6-1.23-2.38-3.45-4.22-5.3-6.27-1.25 1.42-3.73 3.11-3.5 4.21.49 2.35 2.39 4.44 4.62 8.06zm73.2-12.4-4.93-4.76c-1.57 2-3.61 3.81-4.45 6.08-.32.87 2.13 2.78 3.32 4.22zm95.18 32.92-4.81-4.85c-1.36 1.92-3.36 3.7-3.84 5.83-.28 1.24 1.85 3.05 2.89 4.61zm82.32 313.19c.07-.68.15-1.37.22-2.06-1.93-1.33-3.73-3.2-5.86-3.75-1.05-.27-2.72 1.89-4.1 2.94 1.59 1.77 2.92 4.1 4.9 5.07 1.01.47 3.19-1.39 4.84-2.2zm-73.11-306.43c-2.69-2-4.95-4.28-5.39-4-1.74 1.27-3.57 3.18-4 5.17-.26 1.13 2.05 2.88 3.2 4.36zm-142.51 417.48c-2.21-2.4-3.7-4-5.19-5.61-1.14 1.53-3.36 3.23-3.16 4.55.31 2 2.3 3.74 3.58 5.59zm170-61.93-1.8.12c-.76 1.53-2.45 3.4-2.06 4.51.76 2.14 2.7 3.86 4.15 5.75 1.08-1.55 3.16-3.23 3-4.62-.23-2.03-2.1-3.85-3.27-5.76zm-7.18-329.29 2 .11c1.1-1.92 2.77-3.76 3.07-5.8.17-1.21-1.85-2.74-2.88-4.12-1.49 1.59-3.63 3-4.26 4.86-.39 1.28 1.37 3.28 2.07 4.95zm-370.41 149.7c2-2.57 4.15-4.08 4.22-5.69s-2-3.15-3.14-4.73c-1.78 1.7-3.87 3.2-5.14 5.23-.31.5 2.08 2.72 4.06 5.19zm195.94 241.54-4.38-4.58c-1.28 1.62-3.53 3.23-3.57 4.88s2.12 3.39 3.32 5.08zm176.67-49.59-5.41-5.15c-1 1.4-3.09 3.09-2.81 4.13.55 2 2.43 3.65 3.76 5.44zm-183.77-402-4.8-5.6c-1.23 1.38-3.6 2.92-3.44 4.1.26 1.85 2.22 3.46 3.47 5.17zm92.56 9.19h1.76c.91-1.88 2.45-3.73 2.51-5.63.05-1.23-2.07-2.54-3.22-3.81-1.23 1.67-3.07 3.21-3.47 5.07-.27 1.16 1.54 2.84 2.42 4.37zm-160.77 412.87c-2.27-1.6-4.18-3.47-4.62-3.16a12 12 0 0 0 -4.09 4.74c-.29.64 1.69 2.32 2.64 3.53zm175.81 24.22-1.11-2.45-4-4.08c-1.15 1.28-3.43 2.88-3.19 3.78a7.8 7.8 0 0 0 3.75 4.57c1.03.48 3.01-1.14 4.55-1.82zm-35.73-443.76h1.78c.89-1.68 2.58-3.44 2.43-5s-2.22-2.79-3.44-4.18c-1.06 1.62-2.73 3.14-3 4.87-.2 1.26 1.41 2.85 2.23 4.31zm133.24 68.67c-2.16-1.56-4.07-3.5-4.56-3.18a11.63 11.63 0 0 0 -4 4.63c-.24.5 2.53 3.34 3 3.13 1.76-.89 3.2-2.58 5.56-4.58zm-72.93-47.9 4.28 4.38c1.23-1.65 3.06-3.16 3.45-5 .21-1-1.93-2.59-3-3.91zm-44.41-22.51-4.47-4c-1.11 1.52-2.94 3-3.1 4.6-.12 1.27 1.83 2.75 2.85 4.14zm126.8 369.12c-2.13-2-3.62-3.43-5.11-4.85-.9 1.48-2.69 3.14-2.45 4.39.3 1.6 2.26 2.88 3.5 4.29zm-297.49-335.17c-3.21-1.67-5-3.15-6.82-3.34-1.16-.11-2.52 1.73-3.78 2.69 1.73 1.36 3.32 3.14 5.28 3.88.87.33 2.52-1.45 5.32-3.23zm-107.4 207.53c1.95-2.4 3.62-3.71 4.12-5.39.22-.75-2.29-3.34-3-3.13-1.88.59-3.45 2.2-5.14 3.41zm251.94-239c1.53-3 3-4.68 3.05-6.41 0-1.09-2-2.26-3.14-3.39-1.17 1.57-2.85 3-3.31 4.77-.25.96 1.58 2.49 3.4 5.06zm-160.93 395.4h-1.74c-.92 2-2.19 4-2.59 6.14-.14.74 1.85 1.9 2.87 2.87 1.26-1.69 3-3.24 3.58-5.14.31-.96-1.35-2.56-2.12-3.87zm175 50.95 4.57 4.74c1.09-1.59 2.88-3.12 3-4.81.12-1.24-1.92-2.67-3-4zm-248.64-129.84c1.33-2.73 2.71-4.37 2.72-6 0-1-2.91-3-3.24-2.72a9.1 9.1 0 0 0 -3.45 4.34c-.21.72 1.9 2.17 3.97 4.38zm415.82-192.92c-2.73-1.75-4.13-3.35-5.52-3.34s-2.52 1.76-3.78 2.75c1.13 1.32 2.11 3.47 3.44 3.73s2.91-1.46 5.86-3.14zm12.82 161.7c-2.79-1.67-4.44-3.45-5.62-3.17-1.55.36-2.73 2.35-4.07 3.64 1.4 1 2.75 2.8 4.22 2.91s2.76-1.61 5.45-3.38zm-75.39-239.93c-2.23-1.89-3.61-3.94-4.76-3.81a5 5 0 0 0 -3.48 3.38c-.13 1.2 1.74 3.52 3 3.71s2.75-1.61 5.24-3.28zm43.57 297c-1.31 2.32-2.82 4-2.49 4.57 1.09 1.73 2.85 3 4.36 4.49.94-1 2.88-2.56 2.66-3-.88-1.9-2.44-3.43-4.53-6.07zm-6.15 18.57c1.76-2.48 3.55-3.92 3.34-4.95a6.94 6.94 0 0 0 -3.19-4.05c-.5-.29-3.39 1.85-3.3 2.67.15 1.8 1.57 3.44 3.15 6.33zm-52.44 54-1.41-2.87-3.6-3.41c-1 1.11-3.06 2.47-2.87 3.29.4 1.71 1.7 3.79 3.18 4.45 1.12.54 3.1-.93 4.7-1.46zm-188.66-413.5c-2.26-1.79-3.61-3.31-5.28-4-.57-.22-2.94 2.4-2.82 2.58a18.37 18.37 0 0 0 4.13 4.52c.28.26 2.01-1.51 3.97-3.1zm-37.81 420.58c-1.86 2.57-3.34 4-3.91 5.72-.23.67 1.59 2 2.48 3.1 1.4-1.32 3.12-2.46 4-4.06.37-.61-1.18-2.31-2.57-4.76zm-18.36-6.67c-1.75-1.64-2.89-3.52-4-3.51s-3.19 2-3.09 3c.16 1.46 1.81 2.75 2.83 4.11zm-22.88-371.89c-2.72-1.47-4.19-2.81-5.73-2.91-1-.06-2.12 1.68-3.19 2.62 1.37 1.09 2.61 2.65 4.16 3.09.9.26 2.3-1.27 4.76-2.8zm355.12 133.1c1.41-2.14 3-3.54 2.94-4.8-.08-1.08-2.23-2.91-3.26-2.78-1.24.16-3.1 2-3.15 3.2s1.82 2.42 3.47 4.38zm-227.77 268.64c-1.54 2.91-2.94 4.34-2.78 5.56s1.78 2.52 2.76 3.77c.95-1 2.67-2.07 2.66-3.09-.01-1.56-1.22-3.1-2.64-6.24zm-7.49-459.07c-1.22 2.66-2.56 4.22-2.34 5.5s2 2.26 3.11 3.38c.86-1.3 2.38-2.6 2.38-3.89s-1.54-2.59-3.15-4.99zm-201.51 170.12c-1.57 1.73-3.18 2.76-3.47 4.08-.17.78 2.07 3.06 2.66 2.87 1.53-.49 2.74-2 4.08-3.07zm193.49-169.31c-1.7 2.5-3.31 3.82-3.25 5.08s1.78 2.43 2.77 3.64c1-1.05 2.66-2 2.77-3.17.17-1.36-1.08-2.84-2.29-5.55zm-158.39 100.19-2.42 1.3-2.83 3.51c1.21 1 2.44 2.84 3.62 2.81a4.6 4.6 0 0 0 3.29-3c.25-1.44-1.04-3.1-1.66-4.62zm90.65-79.44c-1.16 1.93-2.55 3.22-2.35 4.18.24 1.17 1.94 3 2.77 2.86 1.3-.2 2.39-1.78 3.57-2.77zm-128.31 169.69c1.5-1.8 2.76-2.89 3.37-4.28.16-.38-2.06-2.52-2.46-2.33a20.46 20.46 0 0 0 -3.94 3.17zm55 191.74c-1.78-1.68-3-3.59-3.77-3.4a5.55 5.55 0 0 0 -3.35 3.07c-.25.68 1.54 3 2.43 3 1.2.07 2.54-1.36 4.65-2.67zm-60.77-141.67c1.54-1.92 3.1-3.05 3.29-4.39.12-.86-2-3-2.7-2.82a5.49 5.49 0 0 0 -3.43 3c-.28.75 1.45 2.26 2.84 4.21zm63.67-168-2.68 1.75c-.87 1.08-2.49 2.23-2.39 3.21s2.06 2.63 2.93 2.47a4.88 4.88 0 0 0 3.27-2.94c.33-1.3-.69-3-1.13-4.52zm-59.46 127.58 3-4c-1.19-.93-2.33-2.45-3.6-2.57-.83-.08-2.58 1.85-2.59 2.89s1.71 2.04 3.19 3.68zm357.65-148.31c-1.82-1.39-2.87-2.79-4-2.87-.79-.06-2.44 1.77-2.37 2.65.09 1.2 1.45 2.3 2.26 3.45zm40.63 38.22c-2.19-1.51-3.39-3-4.45-2.88s-2.16 1.67-3.23 2.6c1 .95 2 2.49 3.09 2.67s2.38-1.09 4.59-2.39zm-302.78 337.28c1.7-2.53 2.87-3.75 3.32-5.21.17-.54-1.33-1.62-2.07-2.46-1 1-2.46 1.82-2.92 3-.32.85.72 2.21 1.67 4.67zm-17.64-21.28a35.25 35.25 0 0 0 -3.08 4.64c-.13.26 1.67 1.92 1.88 1.79a12.1 12.1 0 0 0 3.47-3.09c.2-.28-1.13-1.69-2.27-3.34zm369.13-176c-1.13 1.74-2.4 2.85-2.32 3.85s1.92 2.49 2.5 2.3a4.79 4.79 0 0 0 2.75-2.84c.15-.69-1.53-1.84-2.93-3.31zm-.66 21c-1.23 1.57-2.81 2.82-2.59 3.47.39 1.18 1.83 2 2.84 3 .92-1.06 2.28-2 2.61-3.23.16-.67-1.5-1.8-2.86-3.24zm-415.39-134.22c1.2-1.72 2.58-2.85 2.42-3.67a3.58 3.58 0 0 0 -2.68-2.25 3.48 3.48 0 0 0 -2.54 2.38c-.07.89 1.41 1.89 2.8 3.54zm-2.54 228c-1.32 1.62-2.47 2.62-2.94 3.87-.17.46 1.72 2.32 1.92 2.21a13.17 13.17 0 0 0 3.49-3c.13-.16-1.26-1.6-2.47-3.09zm398.67-3.78c-2.35-1.41-3.48-2.49-4.76-2.71-.71-.12-1.66 1.19-2.5 1.86 1 1 1.77 2.48 2.94 2.91.72.3 2.02-.9 4.32-2.06zm10.76-32.5c-2.1-1.19-3.25-2.37-4.26-2.26s-1.7 1.6-2.55 2.48c1 .81 1.87 2.17 2.9 2.27s1.94-1.18 3.86-2.47zm-408.16-186.35c-2-1.45-2.94-2.64-4-2.77-.79-.09-2.57 1.44-2.46 1.86.3 1.14 1.2 2.63 2.18 2.92s2.11-.93 4.28-2.01zm416.06 78.49c-1.45 1.64-3 2.61-2.93 3.53a3.52 3.52 0 0 0 2.52 2.46 3.68 3.68 0 0 0 2.76-2.28c.2-.79-1.18-1.98-2.35-3.71z"/><path d="m74.79 223.91-3.52-14c-2.07.51-3.83 1-5.63 1.37-3.58.68-6.94.29-8.09-3.84s1.42-5.35 4.93-6.54c2.06-.69 3.87-3.27 5-5.43 1.48-2.85 3-6 6.4-4.9 2.2.72 4.17 3.39 5.35 5.66 1.27 2.45 1.26 5.54 2.24 8.19.64 1.71 2.06 3.13 3.14 4.68 2.29-1.76 6.34-3.32 6.57-5.32.91-8.18.78-16.49.78-24.75s-.69-8.51-8.49-6.58c-2.84.69-6 1.4-8.71.77-1.84-.42-4.06-3-4.4-4.93-.24-1.4 2.08-3.62 3.71-4.88 1.44-1.11 3.51-1.39 6.15-2.34-1.9-1.36-3.26-2.25-4.54-3.26-4.82-3.8-4.23-9.38 1.46-11.7 7-2.88 14.4-3.51 21.66-1 4.3 1.5 5.62.1 5-4-.9-6-1.89-11.9-2.87-17.84a31.71 31.71 0 0 1 -.66-3.13c-.2-4-.42-8.64 4.46-9.51 5.32-.94 5.81 3.71 6.58 7.68 1.38 7 3 14 4.49 21.05l2 .07c.84-4.51 2.11-9 2.39-13.55.26-4.22-.49-8.51-.9-12.76-.29-3.14-1.59-7.08 2.75-7.92s4.93 3.24 5.65 6.29c1.16 4.94 2 10 3 15l1.37.37c1.3-4.6 2.85-9.15 3.81-13.83.81-4 .51-8.23 1.54-12.14.61-2.32 2.82-4.21 4.32-6.29 1.76 2.1 4.65 4 5 6.35.67 4.1-.13 8.47-.45 12.72-.19 2.48-.8 4.92-1 7.4-.4 5.5 2.11 8.3 7.58 8.67a18.57 18.57 0 0 0 2.11 0l13.89-.65c-4.4-5.42-7.61-10.21-11.64-14.13-6.49-6.34-6.9-10.15-1.63-17.5 2.85-4 4.7-8.69 7.2-13 1.82-3.1 3-7.39 7.67-7s5.27 4.59 6.35 8.15c.3 1 .65 2 1.46 4.41 1.59-3.14 2.62-5.2 3.68-7.26 1.46-2.83 2.57-6 4.57-8.36 1.23-1.44 4.19-2.65 5.76-2.12s2.41 3.34 3 5.33c.43 1.39-.06 3.08-.16 5 3.56-.51 5.62-2 5.5-5.41-.23-6.25.58-6.86 6.67-4.67a22.59 22.59 0 0 0 2.45.51c.72-2.61 1.94-5.19 2-7.82.14-3.74 1.73-5.59 5.18-6.17 6.05-1 12.1-2.08 18.15-3.07 4.5-.73 9-1.41 13.5-2.07a16.08 16.08 0 0 1 4.69-.46c11.6 1.8 23.18 3.72 34.77 5.66 3.2.53 4.74 2.36 4.92 5.84.15 2.67 1.19 5.29 1.92 8.3 2.35-.78 3.78-1.52 5.27-1.69 3.05-.35 5.53.33 4.32 4.35-1.29 4.27 1.27 5.6 5 7 0-1.9-.35-3.36.07-4.55a63.46 63.46 0 0 1 3.14-6.49c2.15 1.15 4.9 1.82 6.32 3.58 1.95 2.4 2.85 5.66 4.27 8.52.83 1.67 1.81 3.26 3.23 5.79 1.23-3.58 1.88-6.13 2.95-8.47 2.23-4.87 7-5.59 9.85-1.14 4.57 7.12 8.82 14.48 12.73 22 2.58 5-.44 8.61-3.85 12.15-4.06 4.22-7.64 8.92-11.43 13.4l1 1.9c5 0 10 .25 15-.08s7.21-3.28 6.83-8.27c-.42-5.49-1.2-11-1.68-16.44-.16-1.75-.46-3.91.36-5.22 1.24-2 3.4-3.42 5.16-5.08 1.39 1.81 3.6 3.44 4 5.46 1.52 7.1 2.34 14.34 3.64 21.5a9.09 9.09 0 0 0 3.16 5c.83-4.58 1.6-9.18 2.5-13.76.31-1.55.56-3.4 1.52-4.48 1.25-1.4 3.18-2.16 4.82-3.19 1 1.71 2.72 3.42 2.72 5.12 0 4.78-1.25 9.57-1.1 14.32.16 5 1.37 9.95 2.12 14.92h2.09c1.44-6.08 2.9-12.16 4.32-18.25.2-.86.23-1.76.36-2.64.57-4 .92-8.26 6.33-8.1 3.61.11 5.55 4.87 4.59 10.43-1.16 6.81-2.36 13.62-3.42 20.45-.59 3.85.69 4.51 4.75 4a81.38 81.38 0 0 1 20.15.34c2.37.32 5.57 3.66 6 6.09.37 2-2.69 4.7-4.37 7-.57.78-1.57 1.24-2.9 2.25 2.36.86 4.43 1.13 5.83 2.26 1.71 1.39 4.27 3.89 3.92 5.2-.55 2-3.13 4.63-5.1 4.87-3.32.4-7-.45-10.25-1.51-4.71-1.52-6.3.49-6.14 4.75.23 6.39.75 12.77 1.09 19.15.1 1.93-.23 3.91.07 5.79s.61 4.1 1.8 5.11c4.79 4 6.29 3.31 7.67-3 .61-2.78.91-5.78 2.22-8.2 1.14-2.07 3.43-4.66 5.36-4.8s4.61 2.22 5.65 4.2c1.72 3.27 3 6.08 7.25 6.8 1.39.24 3.53 3.58 3.18 4.92a7.52 7.52 0 0 1 -4.69 4.65c-2.55.55-5.44-.55-8.89-1-1.22 4.46-2.48 9-3.73 13.58l1.78 1.31c2.55-2.15 5.14-4.25 7.64-6.45s4.4-4.89 7.12-6.27c2.29-1.17 6-1.91 7.95-.78 3.17 1.84 1.85 5.38-.09 7.93-4.7 6.21-9.39 12.44-14.44 18.35-2.31 2.7-2.61 4.36 0 7.07 5.1 5.3 10.1 10.14 18 11 2.2.24 5 3.39 5.69 5.75.38 1.34-2.72 4.23-4.77 5.64-4.5 3.07-9.45 5.44-14 8.45-7.26 4.81-10 4.78-16.62-.63a4.13 4.13 0 0 0 -3.21-.74c-3.08.85-6.08 2-9.22 3.15 1.25 3.31 2.64 7 4.28 11.32 1.18-.62 2.59-1.45 4.07-2.13 2.54-1.16 5.11-3.05 7.7-3.1 2.79 0 6.66.87 8.11 2.83 1.23 1.67-.07 5.5-.75 8.25-.36 1.43-1.71 2.66-2.76 3.85-1.82 2.08-2.64 3.64-.15 6.24 2.9 3 1.74 6.67-1.65 8.52s-7.49 2.86-11.26 4.22l-7.35 2.72c5.1 4.79 9.09 8.67 13.22 12.37 2.63 2.35 5.66 4.26 8.2 6.7s4.86 5.46 2.14 9.33-6.11 3.58-9.78 1.63c-1.77-.94-3.56-1.86-6.35-3.31.52 3.39 1.41 5.68 1.07 7.78-.39 2.35-1.36 5.69-3 6.43-1.5.68-5-1-6.35-2.66-2.85-3.54-4.89-7.77-7.25-11.72-.78-1.3-1.52-2.62-3-5.14-4.89 6-9 11.32-13.48 16.33-1.43 1.6-3.78 2.35-5.71 3.49-.57-2.36-2.06-5-1.53-7 .95-3.71 3.07-7.13 4.77-10.62 1-2.07 2.29-4 3.23-6.11 4.5-10 2-13.35-8.69-12.62a130.33 130.33 0 0 1 -19 .2c-2.15-.17-5.44-2.55-5.85-4.44-.73-3.35 2.42-4.52 5.5-4.93 2.42-.32 4.8-.95 8.6-1.73-2.84-2.74-4.59-4.14-6-5.84-1.9-2.3-4.06-4.62-5.09-7.33-.65-1.71-.12-4.93 1.12-6 1-.91 4.34-.37 5.82.69 3.11 2.26 5.58 5.4 8.51 7.94 2.17 1.9 4.65 3.43 7 5.12l1.23-1c-.75-1.82-1.46-3.64-2.24-5.44-2.87-6.66-5.89-13.26-8.6-20-1.15-2.84-1-6 2.37-7.18s4.88 1.49 6.16 4.26c2.72 5.91 5.64 11.72 8.51 17.65 10.31-6.61 12.33-20 5.53-28.78a219.55 219.55 0 0 1 -14.06-20.61c-4.71-7.74-3.56-11.08 4.68-15.53-1-1.78-2.1-3.5-3-5.3-1.72-3.4-2.24-6.86.67-9.87s6.2-2.21 9.18-.29c5.62 3.63 11 7.66 16.62 11.23 2.89 1.83 6.18 3 9.28 4.49l1.29-1.37c-1.1-1.43-2-3.13-3.33-4.23-9.72-7.89-19.54-15.65-29.32-23.46-.83-.66-1.58-1.44-2.45-2-7.72-5.19-7.73-5.18-10.32-14.44-2.18 1.36-4.09 3-6.31 3.8s-5.25 1.57-6.54.54-1.74-4.52-1.17-6.53c1.22-4.37 3.31-8.48 5.52-13.83-3.6 1-6.3 1.85-9 2.56-3.75 1-7.71 1.63-9.32-3.09-1.65-4.87 2-6.6 5.65-7.93 6.58-2.37 13.18-4.69 21.26-7.57-2.94-1-4.62-2-6.29-2-8.72 0-17.43.2-26.14.43-1.74 0-3.59 1-5.18.64-2.3-.53-4.42-1.89-6.61-2.89 1.46-2.12 2.48-5.12 4.49-6.16 3.79-2 8.15-2.81 12.35-5.16-3.15 0-6.31-.22-9.43 0-10.86.94-19.66-5.73-21.19-16.66-.43-3.1-1.82-4.25-4.42-3.7-3.36.7-6.89 1.44-9.86 3.06-5.25 2.85-7.06 2.52-9-2.93-2.3-6.41-5.39-7.54-11-3.87-3.89 2.55-7.12 6.2-12.73 3.25-3.66-1.92-3.87-3.7-1.67-6.49 1.61-2.06 3.52-3.88 5.52-6-4.07-3.1-6.58-6.41-3.56-11.46.37-.61-.61-3-1.33-3.19-9.72-2.69-11.15-11.46-14-19.18-.43-1.16-.45-2.57-1.15-3.48s-2.34-1.94-2.9-1.64a7 7 0 0 0 -3 3.31c-1.53 3.77-2.08 8.11-4.23 11.41-2.27 3.51-6 6-8.95 9.09-1.09 1.13-2.82 3.22-2.46 3.9 2.59 4.9.77 8.17-3.95 11 1.63 1.75 3.24 2.93 4.1 4.53a45.82 45.82 0 0 1 2.46 6.8c-3.26.67-6.54 1.94-9.76 1.79-1.93-.1-3.72-2.47-5.65-3.71-5.2-3.34-8.55-2.16-10.73 3.71s-3.73 6.31-9.23 3a21.35 21.35 0 0 0 -6.89-2.68c-4.11-.83-7.14-.73-7.63 5.34-.69 8.57-10.69 15.54-19.56 15a35.81 35.81 0 0 0 -10.8.85c3.92 1.18 8.1 1.88 11.67 3.74 2.23 1.16 5.05 4.16 5 6.22-.16 4-4.12 3.49-7.1 3.24-7.83-.65-15.65-1.75-23.5-2-4-.12-8 1.24-12 1.94l.08 1.38c6.7 2.38 13.41 4.74 20.09 7.17 3.49 1.27 6.88 3 5.5 7.59-1.44 4.8-5.35 4.41-9.14 3.41-2.69-.7-5.33-1.62-9-2.76.59 2 .83 3.24 1.3 4.38 1.28 3.11 3.15 6.08 3.83 9.31.46 2.24.06 5.5-1.32 7-.89 1-4.4-.09-6.51-.86s-3.85-2.3-6.09-3.72a10.61 10.61 0 0 0 -.89 2.24c-.69 5.39-3 8.82-8.14 11.84-8 4.67-14.8 11.33-22.12 17.15-3.58 2.85-7.23 5.63-10.71 8.6a34.87 34.87 0 0 0 -3.65 4.25l1.46 1.83c5.21-3 10.49-5.82 15.6-9 3.59-2.21 6.86-5 10.43-7.2 3.06-1.92 7-2.78 8.93.68 1.4 2.47 1 6.24.7 9.33-.22 1.9-1.92 3.62-2.94 5.41 8.45 5.21 9.36 8.52 4 16.84-4.71 7.27-9.85 14.28-15 21.21-4.1 5.47-4.55 9.62-1.08 15.7 2.13 3.73 4.2 7.5 6.29 11.25h1.72c2.81-5.62 5.76-11.18 8.39-16.89 1.4-3 2.55-6.52 6.64-4.9 3.58 1.42 3.13 4.87 1.93 7.81-2.55 6.23-5.31 12.36-8 18.51-.88 2-1.84 4-2.76 6l1.26 1.18a78.62 78.62 0 0 0 6.91-4.87c3.07-2.65 5.7-5.86 8.91-8.29 1.34-1 4.62-1.57 5.39-.75 1.26 1.33 2.14 4.4 1.44 5.93-1.41 3.14-3.9 5.81-6.1 8.55a59.45 59.45 0 0 1 -5 4.7c3.56.85 5.87 1.59 8.24 1.92 3.23.45 6.59 1.47 5.75 5.2-.42 1.85-3.89 4.1-6.08 4.22a175.81 175.81 0 0 1 -20.52-.44c-8-.49-10.63 2.41-7.93 10.11 1.45 4.14 4 7.88 6 11.86 1.24 2.54 2.79 5.11 3.22 7.82.33 2.1-.87 4.45-1.39 6.69-2-1-4.41-1.61-5.8-3.16-4.5-5-8.61-10.42-13.54-16.5-3 5.09-5.29 9.15-7.67 13.17-.82 1.37-1.5 3.05-2.71 3.89-2 1.28-5 3.28-6.21 2.6-1.76-1-2.89-4-3.31-6.32-.38-2.09.55-4.43 1.13-8l-6.61 3.38c-3.5 1.8-6.75 2-9.4-1.52-2.85-3.78-.89-6.9 1.79-9.36 5.07-4.66 10.49-8.91 15.67-13.44 1.69-1.48 3.08-3.3 5.41-5.85-2.77-1.07-4.74-1.94-6.76-2.59-3-1-6.16-1.52-9-2.74-5.82-2.46-6.59-5.7-3.36-11.12a5 5 0 0 0 -.18-4.08c-1-2-3.23-3.56-3.87-5.64-.77-2.48-1.45-6-.27-7.82s4.7-2.65 7.23-2.73c2.28-.08 4.66 1.31 6.89 2.31 2 .9 3.86 2.15 5.56 3.12l4.41-11.25c-3.15-1.15-6.26-2.5-9.49-3.34a4.15 4.15 0 0 0 -3.44 1.43c-3.68 4.87-8.18 4.43-12.72 2-6.82-3.62-13.49-7.52-20.12-11.47a4.93 4.93 0 0 1 -.71-8.16 12.15 12.15 0 0 1 6.13-2.65c8.23-.86 12.77-7 17.66-12.48.59-.66-.16-3.28-1-4.43-4.66-6.23-9.57-12.27-14.36-18.41-2.06-2.66-3.79-5.76-.84-8.56s6.17-1.39 8.91 1.09c3.4 3.08 6.78 6.19 10.24 9.22 1.22 1.07 2.63 1.93 4 2.88zm139.66-128 1 1.38c1.06-1.69 3.38-4.33 3-4.89a10.87 10.87 0 0 0 -5.66-4c-4.66-1.1-9.29-1-13.39 2.52-2 1.67-4.65 2.41-6.92 3.74-1.09.64-2.79 1.71-2.75 2.49a4.42 4.42 0 0 0 2.41 3.06c5 2.1 10.09 4 15.21 5.74.65.23 1.6-.43 1.36-.36l-2.32-11.11zm80.55 9.34 1.18 1.81c5.85-2.45 11.83-4.65 17.51-7.45 2.72-1.35 2.71-3.46-.55-4.87-2.73-1.17-5.66-2.26-7.9-4.12-4.21-3.49-8.84-3.21-13.46-2.17-2 .44-4.48 2.08-5.12 3.79-.42 1.15 2 3.39 3.22 5.24 1.53-1 2.19-1.74 3-2 1.88-.5 3.81-.77 5.72-1.14a33.17 33.17 0 0 1 -.78 6.2c-.53 1.73-1.82 3.17-2.82 4.71zm-55.6-39.71c-6.23-1.86-18.74 3.87-20.14 9.45-.49 2 .7 5.6 2.27 6.57 2.47 1.51 5.9 1.41 10.27 2.25-6.14-11.13 4.55-12.42 7.6-18.27zm34.65 16.73c5.66 1.8 10.32.68 11.69-2.9 1.93-5-1.55-7.41-5-9.72a27.12 27.12 0 0 1 -3.8-2.79c-3.38-3.25-7.11-2.73-11.38-1.57 2.76 6.1 14.04 7.36 8.49 16.98zm-161.21 155.55-1.48-1.33c-6 4.76-12.18 9.43-18.09 14.36-1.36 1.15-3.06 3.59-2.67 4.81.74 2.35 2.85 4.25 4.4 6.34 1.47-1.57 3.09-3 4.39-4.73 1.72-2.24 3.17-4.68 4.78-7 2.83-4.17 5.83-8.27 8.67-12.45zm280.69-1.44-1.24 1.5c4.75 7 9.4 14.06 14.33 20.93.92 1.27 3 1.71 4.49 2.53 1.24-2.81 6-5.42 2.74-8.55-6.3-5.98-13.5-10.99-20.32-16.41zm-295.53-33.63c7.32-2.2 12.15-6.89 16.27-12.23.79-1-.53-3.94-1.26-5.83-.22-.57-1.82-1-2.65-.85-5.47 1.1-12.63 11.51-12.36 18.91zm309.29-.83c.1-8.07-5-12.41-10.28-16.47-1.24-.95-4.55-1.44-4.8-1-1 1.86-1.92 4.34-1.52 6.31.72 3.45 12.39 11.08 16.63 11.16zm-238.64-88.57c4.3-6.77 4.34-13.17 0-19.56-8.6 13.47-10.9 10.55 0 19.56zm167.83-19.85c-4.5 6.83-4.5 13.28.09 20.13a53.89 53.89 0 0 0 5.79-5.68c.8-1 1.3-3.19.76-4.18-1.9-3.52-4.31-6.77-6.64-10.27zm-146.93 15.61.42-1.58c-2.4-1-4.75-2.19-7.24-2.66-.62-.12-1.7 2.29-3.06 4.24zm135.22 0c-2.41-6.07-4.34-6-9.89 0zm-224.14 66.75 3 .3c.19-1.63.7-3.33.41-4.87-.1-.52-2.22-.64-3.42-.94zm301.52.47 1.53-.25 1.25-5.73-1.28-.84c-1.19 1-3 1.74-3.35 2.94s1.17 2.55 1.85 3.88z"/><path d="m108.6 382.67c-1.88-2.64-3-3.93-3.81-5.39-2.19-3.84-4.86-7.56-6.13-11.7-.7-2.28 1-5.33 1.66-8 2.39.95 5.05 1.49 7.07 2.95s3.42 4 5.3 5.89c3.57 3.51 6.57 3 8.69-1.49 1.73-3.69 3-7.58 4.57-11.36 1.21-2.95 2-6.27 4-8.64 1.55-1.91 5-4.14 6.7-3.53 2.1.78 4.43 4.28 4.45 6.63 0 3.9-1.52 7.87-2.72 11.71a74.15 74.15 0 0 1 -3.25 7.52l1.47 1.52c2.67-1.87 5.72-3.37 7.91-5.71 3.25-3.46 5.59-7.82 8.92-11.17 1.48-1.49 4.44-1.46 6.73-2.12.32 2.26 1.46 4.82.79 6.72-1.09 3.1-3.24 5.87-5.17 8.61s-1.91 5 .51 7.5c3.35 3.51 6.36 7.34 10.19 11.83 1.17-5.86 2-10.81 3.18-15.67a75.32 75.32 0 0 1 3.9-12.77c.81-1.82 3.28-2.89 5-4.3 1.11 2.17 3.37 4.48 3.12 6.47-.72 5.78-2.53 11.43-3.73 17.16a65 65 0 0 0 -.72 7.13l1.46.95c2.28-1.95 4.7-3.74 6.78-5.88 2.31-2.38 4.57-5.15 8-2.51 3.16 2.46 1.11 5.31-.21 8.1a144.53 144.53 0 0 0 -6.26 14.67 8 8 0 0 0 .52 6.09c4.07 6.42 10.56 9.22 18.21 11.74-1.72-6.73-3.55-12.39-4.52-18.19-.93-5.49-2.24-11.34 3.65-15.52 1.1-.79 1-3.27 1.49-5 1.52-5.58 5.87-8 10.9-5.3a70.74 70.74 0 0 1 12 8.56c3.74 3.17 7.08 3 10.11-.47 2.67-3.08 5.72-3.69 9.47-3a18.06 18.06 0 0 0 6.26.13c4.29-.8 7.77-.32 10.89 3.32 2.63 3.09 5.93 3.14 9.31.34a74 74 0 0 1 11.53-8.32c5.75-3.11 10.24-.56 12 5.73.57 2 2.31 3.74 3.08 5.77 1 2.71 2.59 5.7 2.26 8.36-.95 7.48-2.74 14.86-4.34 23 6.32-.87 11.45-4.51 16.13-8.85 3.53-3.28 2.88-7.54 1.31-11.43-1.79-4.42-4.51-8.49-6.09-13-.71-2 .37-4.68.63-7.05 2.19.54 4.75.54 6.49 1.74 2.86 2 5.19 4.72 7.75 7.15l2.11-1.23c-1-4.9-1.94-9.82-2.95-14.72-.69-3.3-2-6.58-2-9.87 0-2 1.89-4.08 2.93-6.12 1.76 1.34 4.57 2.35 5.11 4.08 2.38 7.6 4.12 15.4 6 23.14.36 1.46.51 3 1 5.91 4.69-5.69 8.69-10.24 12.23-15.13.58-.8-.7-3.25-1.5-4.73-1.66-3.12-4-5.92-5.21-9.19-.6-1.67.76-4.07 1.23-6.13 2.05.49 4.78.31 6 1.6 3.28 3.42 5.65 7.73 8.89 11.2 2.35 2.53 5.51 4.28 8.31 6.38l1.64-1.39a62.28 62.28 0 0 1 -3.03-7.39c-1.22-4.36-2.55-8.81-2.8-13.27-.1-1.79 2.22-4.61 4.05-5.34 1.52-.59 4.72.61 5.82 2.07 2.19 2.88 3.57 6.44 5.06 9.82 1.78 4.06 3.09 8.34 5 12.32 1.77 3.65 4.71 4.22 7.7 1.36 2.29-2.18 4-5.13 6.42-7 1.8-1.36 4.48-1.54 6.77-2.24.65 2.39 2.37 5.15 1.73 7.1-1.42 4.31-4 8.25-6.2 12.27a54.23 54.23 0 0 1 -3.9 5.19c2.89.18 4.64.41 6.38.36 3.22-.1 6.27.31 7 4.08s-.08 7.39-3.83 9.68c-2.63 1.6-4.9 4-7.7 5.06-2.53.93-6.61 1.77-8.2.44-8.26-7-16.68-4.23-25.28-1.62-3.61 1.1-7.24 2.18-10.83 4.54a55.52 55.52 0 0 1 5.77 1.14c4 1.2 8.54 1.76 11.67 4.16 2.48 1.91 4.37 6.15 4.43 9.4.09 4.29-3.85 7.13-7.86 7.27a45.47 45.47 0 0 1 -14.21-1.95c-3.44-1-6.31-3.91-9.71-5.25-2.53-1-5.51-.84-8.3-1.2l-.56 1.71 3.9 2.89c2.11 1.58 5 2.74 6.14 4.86 1.44 2.64 2.8 6.74 1.71 9s-5.18 3.94-8 4.1-5.93-1.81-8.86-2.94c-2.66-1-5.28-2.18-7.91-3.27l-.72 1.18c.89 1.19 1.8 2.37 2.66 3.58 2.35 3.3 4.26 6.78 1.8 10.8s-6.31 4.76-10.61 4.07c-7.46-1.2-14.89-2.67-22.39-3.49-2.2-.25-4.59 1.37-6.92 2-3.6 1-7.28 2.92-10.81 2.67a35.91 35.91 0 0 1 -13.56-3.85c-6.43-3.3-12.13-3.13-18.49.12a45.71 45.71 0 0 1 -13.06 3.82c-4.39.76-8.69.2-12.08-3.61a6 6 0 0 0 -4.62-1.44c-7.32.94-14.62 2.05-21.87 3.42-4.8.91-9.33 1.05-12.28-3.5-3.16-4.88-.19-8.75 2.79-12.43a4 4 0 0 0 .92-3.16c-2.28.82-4.57 1.6-6.83 2.48-3.11 1.19-6.1 2.84-9.3 3.61-3.89.93-7.42-.19-9.27-4.21-1.76-3.81-.36-7.06 2.55-9.53s6.35-4.77 9.55-7.14l-.51-1.89c-3.15.61-6.44.81-9.4 1.92s-5.34 3.7-8.29 4.57a46.21 46.21 0 0 1 -13.68 2.25 8.79 8.79 0 0 1 -8.91-7.69c-.71-4.57 1.87-8.08 5.6-10 3.19-1.67 6.91-2.33 10.44-3.26 2-.53 4-.71 6-1l.17-1.44c-5.93-1.68-12-3.1-17.77-5.13-6-2.09-11.07-1.31-16.24 2.47-4.14 3-8.65 4-12.34-1.44-.87-1.28-2.91-1.86-4.52-2.48-4.63-1.8-5.85-5.53-5.14-9.91s4.27-4.54 7.79-4.31c1.37-.05 2.73-.12 5.74-.12zm206.25 60.83a36.89 36.89 0 0 0 -4.49-3c-5.37-2.61-10.95-4.82-16.2-7.65-2.64-1.43-4.6-4.08-7.12-5.78a8.24 8.24 0 0 0 -5.09-1.54c-6.69.88-13.52 4.74-19.61-1.66a1.62 1.62 0 0 0 -1.47-.35c-6.94 4.11-15.74-3.68-22.22 3.55-.43.48-1.71.38-2.55.26-4.48-.64-8.94-1.56-13.45-2a7.83 7.83 0 0 0 -4.67 1.58c-2.64 1.84-4.77 4.52-7.54 6-5.24 2.86-10.82 5.07-16.18 7.7-1.49.74-2.71 2-4.72 3.56a90.83 90.83 0 0 0 46.52-13.43c8.35-5 11.05-4 15.88 3.63.06.1.32.07 1.6.31a6.42 6.42 0 0 0 .44-1.36c1-5.37 4.43-6.64 9-4.77a133.79 133.79 0 0 1 17.12 8c10.7 6.37 22.72 5.88 34.75 6.95zm-73.37-50.37c1.12 4.55 2.35 8.61 3.09 12.76 1.54 8.7 3.12 10 11.9 8.32 1.14-.21 2.83-1.22 3-2.14 1.37-6.32 2.42-12.71 3.6-19.2a22.17 22.17 0 0 0 -21.59.26zm-87.12-6.32c-.88-4.72-6.68-12.39-9-11.76-3.65 1-7.91 1.7-9.34 6.77zm215-5c-2.32-4.87-6.93-7.57-9.88-6.37-3.94 1.61-6.63 6.32-9.86 9.7l1.26 1.63zm-78.51.88-2.32-1.24c-1.83 2.67-5.11 5.31-5.15 8-.07 4.32 2 8.68 3.35 13.64 5.67-6.43 4.46-13.51 4.07-20.44zm-72.07 19.9c.75-3.48 1.17-7 2.26-10.22 1.75-5.22-.39-8.84-6.22-9.74-2.4 8.28-.88 16.31 3.91 19.92zm103.22 10.56-11.61 7.63.44 1.73 14.39 3.18c-1.22-4.52-2.03-7.87-3.22-12.54zm-128.17 9.45.7-1.87-11.53-7.56-3.18 12.53zm-55.18-6.68c.24 1 .47 2.07.7 3.11l8.2-2.11-.54-2.45zm227.73 3.49c-1.94-5.29-4.67-5.89-9.71-2.6zm-89.38-20.01-2.7-1.27-3.2 7.28 2.31 1.12zm-45.7 7.1 2.67-1.31-3.57-7.07-2.34 1.14z"/><path d="m32.86 298.15c-1-.59-2.26-.92-2.61-1.7-.7-1.54-1.6-3.62-1.07-4.92.44-1.09 3.18-2.29 4.19-1.83 1.28.58 2 2.72 2.67 4.31a26.74 26.74 0 0 1 1.37 4.86c.46 2.08.78 4.2 1.15 6.31l-7 .92c.15-2.16.27-4.33.5-6.48.02-.45.44-.85.8-1.47z"/><path d="m41.08 331.2c-1.34-1.09-2.69-2.17-4-3.27-2.53-2.08-3-5.1-.56-6.73 2-1.33 5.28-.72 8-1-.07 2.17.28 4.47-.31 6.48-.55 1.74-2.13 3.13-3.13 4.52z"/><path d="m31.81 277.07-4-5.11c1.69-1.21 3.26-2.82 5.14-3.41.66-.21 3.17 2.38 3 3.13-.52 1.68-2.19 2.99-4.14 5.39z"/><path d="m49.18 354.58c-2.07-2.21-4.19-3.66-4-4.4a9.1 9.1 0 0 1 3.45-4.34c.33-.24 3.24 1.76 3.24 2.72.02 1.65-1.36 3.29-2.69 6.02z"/><path d="m62.33 369.77c1.21 1.49 2.6 2.93 2.47 3.08a13.17 13.17 0 0 1 -3.49 3c-.2.11-2.09-1.75-1.92-2.21.47-1.25 1.61-2.25 2.94-3.87z"/></g><path d="m254.53 7.86c136.41-.7 247.07 111 246.8 247-.27 138.24-110.33 249.92-244.91 249.73-137.83-.2-245-109.65-246.5-246.51-1.53-136.03 106.76-250.03 244.61-250.22zm138.93 443.14c11.78-3.91 19-13.52 27.28-21-2.25-2.92-4.46-4.75-5.11-7-.45-1.6 1.23-3.82 2-5.77 1.65 1.2 3.57 2.17 4.87 3.68.91 1 1 2.85 1.52 4.57a10.52 10.52 0 0 0 2.23-1 20.93 20.93 0 0 0 2.71-2.53c39.17-43.95 62.04-94.95 63.77-154.67 1.61-55.07-11.61-106.18-44.41-150.47-57.32-77.38-133.99-110.7-228.9-97.81-48.81 6.65-90.89 29.09-126.42 63.36-40 38.64-64.23 85.78-71.8 141.45-5.68 41.77-1.81 82.66 14.29 121.5 30.17 72.76 82.93 120.82 157.76 143.69 3.67 1.12 5.65.87 5.67-3.75 0-2.92.44-6.8 4.53-6.24 1 .15 1.53 4.49 2.26 6.91a.91.91 0 0 1 -.11.52c-1.7 4-.4 5.88 3.91 6.28 14 1.31 27.92 2.8 41.88 4.23 4.09.42 5.75-.76 4.88-5.44-.35-1.89 1.82-6.06 2.86-6.07 3.63 0 3.87 3.25 3.64 6.26-.43 5.49.37 6 5.89 3.49-.36-1.63-1.18-3.38-1-5s1.4-3.26 2.16-4.88c1.43 1.22 3.17 2.24 4.21 3.74.71 1 .25 2.82.71 4.13.35 1 1.35 2.6 2 2.57a40.76 40.76 0 0 0 10.83-1.53c.78-.26.06-4.29.6-6.44.41-1.66 1.71-3.08 2.62-4.61a33.2 33.2 0 0 1 3.94 4c.52.73-.08 2.23.35 3.1.53 1.05 1.76 2.68 2.44 2.57 6-1 11.87-2.32 18.19-3.64-1.23-2.55-2.57-4.22-2.76-6a15.91 15.91 0 0 1 1.05-6.42c.15-.46 2.83-.78 3.14-.32a18.25 18.25 0 0 1 2.69 5.86c.34 1.39-.27 3-.63 5.93l15.42-5c-1-1.76-1.61-2.34-1.66-3-.31-3.69-.49-7.39-.71-11.09 4 .26 8.06.37 12.05.87a3.71 3.71 0 0 1 2.36 2.41 22.38 22.38 0 0 1 .11 5.12c6.53 0 7.34-1.08 5.53-6.45a10.64 10.64 0 0 1 -.61-2.58c-.18-2.8-.94-6.49 3-6.54 1.46 0 3.77 3.19 4.28 5.28 1.3 5.26 1.74 6 6.38 3.18 8.77-5.23 17.35-10.8 25.92-16.36 1-.67 1.55-2.14 2.3-3.24z" fill="#001400"/><path d="m74.79 223.91-3.52-14c-2.07.51-3.83 1-5.63 1.37-3.58.68-6.94.29-8.09-3.84s1.42-5.35 4.93-6.54c2.06-.69 3.87-3.27 5-5.43 1.48-2.85 3-6 6.4-4.9 2.2.72 4.17 3.39 5.35 5.66 1.27 2.45 1.26 5.54 2.24 8.19.64 1.71 2.06 3.13 3.14 4.68 2.29-1.76 6.34-3.32 6.57-5.32.91-8.18.78-16.49.78-24.75s-.69-8.51-8.49-6.58c-2.84.69-6 1.4-8.71.77-1.84-.42-4.06-3-4.4-4.93-.24-1.4 2.08-3.62 3.71-4.88 1.44-1.11 3.51-1.39 6.15-2.34-1.9-1.36-3.26-2.25-4.54-3.26-4.82-3.8-4.23-9.38 1.46-11.7 7-2.88 14.4-3.51 21.66-1 4.3 1.5 5.62.1 5-4-.9-6-1.89-11.9-2.87-17.84a31.71 31.71 0 0 1 -.66-3.13c-.2-4-.42-8.64 4.46-9.51 5.32-.94 5.81 3.71 6.58 7.68 1.38 7 3 14 4.49 21.05l2 .07c.84-4.51 2.11-9 2.39-13.55.26-4.22-.49-8.51-.9-12.76-.29-3.14-1.59-7.08 2.75-7.92s4.93 3.24 5.65 6.29c1.16 4.94 2 10 3 15l1.37.37c1.3-4.6 2.85-9.15 3.81-13.83.81-4 .51-8.23 1.54-12.14.61-2.32 2.82-4.21 4.32-6.29 1.76 2.1 4.65 4 5 6.35.67 4.1-.13 8.47-.45 12.72-.19 2.48-.8 4.92-1 7.4-.4 5.5 2.11 8.3 7.58 8.67a18.57 18.57 0 0 0 2.11 0l13.89-.65c-4.4-5.42-7.61-10.21-11.64-14.13-6.49-6.34-6.9-10.15-1.63-17.5 2.85-4 4.7-8.69 7.2-13 1.82-3.1 3-7.39 7.67-7s5.27 4.59 6.35 8.15c.3 1 .65 2 1.46 4.41 1.59-3.14 2.62-5.2 3.68-7.26 1.46-2.83 2.57-6 4.57-8.36 1.23-1.44 4.19-2.65 5.76-2.12s2.41 3.34 3 5.33c.43 1.39-.06 3.08-.16 5 3.56-.51 5.62-2 5.5-5.41-.23-6.25.58-6.86 6.67-4.67a22.59 22.59 0 0 0 2.45.51c.72-2.61 1.94-5.19 2-7.82.14-3.74 1.73-5.59 5.18-6.17 6.05-1 12.1-2.08 18.15-3.07 4.5-.73 9-1.41 13.5-2.07a16.08 16.08 0 0 1 4.69-.46c11.6 1.8 23.18 3.72 34.77 5.66 3.2.53 4.74 2.36 4.92 5.84.15 2.67 1.19 5.29 1.92 8.3 2.35-.78 3.78-1.52 5.27-1.69 3.05-.35 5.53.33 4.32 4.35-1.29 4.27 1.27 5.6 5 7 0-1.9-.35-3.36.07-4.55a63.46 63.46 0 0 1 3.14-6.49c2.15 1.15 4.9 1.82 6.32 3.58 1.95 2.4 2.85 5.66 4.27 8.52.83 1.67 1.81 3.26 3.23 5.79 1.23-3.58 1.88-6.13 2.95-8.47 2.23-4.87 7-5.59 9.85-1.14 4.57 7.12 8.82 14.48 12.73 22 2.58 5-.44 8.61-3.85 12.15-4.06 4.22-7.64 8.92-11.43 13.4l1 1.9c5 0 10 .25 15-.08s7.21-3.28 6.83-8.27c-.42-5.49-1.2-11-1.68-16.44-.16-1.75-.46-3.91.36-5.22 1.24-2 3.4-3.42 5.16-5.08 1.39 1.81 3.6 3.44 4 5.46 1.52 7.1 2.34 14.34 3.64 21.5a9.09 9.09 0 0 0 3.16 5c.83-4.58 1.6-9.18 2.5-13.76.31-1.55.56-3.4 1.52-4.48 1.25-1.4 3.18-2.16 4.82-3.19 1 1.71 2.72 3.42 2.72 5.12 0 4.78-1.25 9.57-1.1 14.32.16 5 1.37 9.95 2.12 14.92h2.09c1.44-6.08 2.9-12.16 4.32-18.25.2-.86.23-1.76.36-2.64.57-4 .92-8.26 6.33-8.1 3.61.11 5.55 4.87 4.59 10.43-1.16 6.81-2.36 13.62-3.42 20.45-.59 3.85.69 4.51 4.75 4a81.38 81.38 0 0 1 20.15.34c2.37.32 5.57 3.66 6 6.09.37 2-2.69 4.7-4.37 7-.57.78-1.57 1.24-2.9 2.25 2.36.86 4.43 1.13 5.83 2.26 1.71 1.39 4.27 3.89 3.92 5.2-.55 2-3.13 4.63-5.1 4.87-3.32.4-7-.45-10.25-1.51-4.71-1.52-6.3.49-6.14 4.75.23 6.39.75 12.77 1.09 19.15.1 1.93-.23 3.91.07 5.79s.61 4.1 1.8 5.11c4.79 4 6.29 3.31 7.67-3 .61-2.78.91-5.78 2.22-8.2 1.14-2.07 3.43-4.66 5.36-4.8s4.61 2.22 5.65 4.2c1.72 3.27 3 6.08 7.25 6.8 1.39.24 3.53 3.58 3.18 4.92a7.52 7.52 0 0 1 -4.69 4.65c-2.55.55-5.44-.55-8.89-1-1.22 4.46-2.48 9-3.73 13.58l1.78 1.31c2.55-2.15 5.14-4.25 7.64-6.45s4.4-4.89 7.12-6.27c2.29-1.17 6-1.91 7.95-.78 3.17 1.84 1.85 5.38-.09 7.93-4.7 6.21-9.39 12.44-14.44 18.35-2.31 2.7-2.61 4.36 0 7.07 5.1 5.3 10.1 10.14 18 11 2.2.24 5 3.39 5.69 5.75.38 1.34-2.72 4.23-4.77 5.64-4.5 3.07-9.45 5.44-14 8.45-7.26 4.81-10 4.78-16.62-.63a4.13 4.13 0 0 0 -3.21-.74c-3.08.85-6.08 2-9.22 3.15 1.25 3.31 2.64 7 4.28 11.32 1.18-.62 2.59-1.45 4.07-2.13 2.54-1.16 5.11-3.05 7.7-3.1 2.79 0 6.66.87 8.11 2.83 1.23 1.67-.07 5.5-.75 8.25-.36 1.43-1.71 2.66-2.76 3.85-1.82 2.08-2.64 3.64-.15 6.24 2.9 3 1.74 6.67-1.65 8.52s-7.49 2.86-11.26 4.22l-7.35 2.72c5.1 4.79 9.09 8.67 13.22 12.37 2.63 2.35 5.66 4.26 8.2 6.7s4.86 5.46 2.14 9.33-6.11 3.58-9.78 1.63c-1.77-.94-3.56-1.86-6.35-3.31.52 3.39 1.41 5.68 1.07 7.78-.39 2.35-1.36 5.69-3 6.43-1.5.68-5-1-6.35-2.66-2.85-3.54-4.89-7.77-7.25-11.72-.78-1.3-1.52-2.62-3-5.14-4.89 6-9 11.32-13.48 16.33-1.43 1.6-3.78 2.35-5.71 3.49-.57-2.36-2.06-5-1.53-7 .95-3.71 3.07-7.13 4.77-10.62 1-2.07 2.29-4 3.23-6.11 4.5-10 2-13.35-8.69-12.62a130.33 130.33 0 0 1 -19 .2c-2.15-.17-5.44-2.55-5.85-4.44-.73-3.35 2.42-4.52 5.5-4.93 2.42-.32 4.8-.95 8.6-1.73-2.84-2.74-4.59-4.14-6-5.84-1.9-2.3-4.06-4.62-5.09-7.33-.65-1.71-.12-4.93 1.12-6 1-.91 4.34-.37 5.82.69 3.11 2.26 5.58 5.4 8.51 7.94 2.17 1.9 4.65 3.43 7 5.12l1.23-1c-.75-1.82-1.46-3.64-2.24-5.44-2.87-6.66-5.89-13.26-8.6-20-1.15-2.84-1-6 2.37-7.18s4.88 1.49 6.16 4.26c2.72 5.91 5.64 11.72 8.51 17.65 10.31-6.61 12.33-20 5.53-28.78a219.55 219.55 0 0 1 -14.06-20.61c-4.71-7.74-3.56-11.08 4.68-15.53-1-1.78-2.1-3.5-3-5.3-1.72-3.4-2.24-6.86.67-9.87s6.2-2.21 9.18-.29c5.62 3.63 11 7.66 16.62 11.23 2.89 1.83 6.18 3 9.28 4.49l1.29-1.37c-1.1-1.43-2-3.13-3.33-4.23-9.72-7.89-19.54-15.65-29.32-23.46-.83-.66-1.58-1.44-2.45-2-7.72-5.19-7.73-5.18-10.32-14.44-2.18 1.36-4.09 3-6.31 3.8s-5.25 1.57-6.54.54-1.74-4.52-1.17-6.53c1.22-4.37 3.31-8.48 5.52-13.83-3.6 1-6.3 1.85-9 2.56-3.75 1-7.71 1.63-9.32-3.09-1.65-4.87 2-6.6 5.65-7.93 6.58-2.37 13.18-4.69 21.26-7.57-2.94-1-4.62-2-6.29-2-8.72 0-17.43.2-26.14.43-1.74 0-3.59 1-5.18.64-2.3-.53-4.42-1.89-6.61-2.89 1.46-2.12 2.48-5.12 4.49-6.16 3.79-2 8.15-2.81 12.35-5.16-3.15 0-6.31-.22-9.43 0-10.86.94-19.66-5.73-21.19-16.66-.43-3.1-1.82-4.25-4.42-3.7-3.36.7-6.89 1.44-9.86 3.06-5.25 2.85-7.06 2.52-9-2.93-2.3-6.41-5.39-7.54-11-3.87-3.89 2.55-7.12 6.2-12.73 3.25-3.66-1.92-3.87-3.7-1.67-6.49 1.61-2.06 3.52-3.88 5.52-6-4.07-3.1-6.58-6.41-3.56-11.46.37-.61-.61-3-1.33-3.19-9.72-2.69-11.15-11.46-14-19.18-.43-1.16-.45-2.57-1.15-3.48s-2.34-1.94-2.9-1.64a7 7 0 0 0 -3 3.31c-1.53 3.77-2.08 8.11-4.23 11.41-2.27 3.51-6 6-8.95 9.09-1.09 1.13-2.82 3.22-2.46 3.9 2.59 4.9.77 8.17-3.95 11 1.63 1.75 3.24 2.93 4.1 4.53a45.82 45.82 0 0 1 2.46 6.8c-3.26.67-6.54 1.94-9.76 1.79-1.93-.1-3.72-2.47-5.65-3.71-5.2-3.34-8.55-2.16-10.73 3.71s-3.73 6.31-9.23 3a21.35 21.35 0 0 0 -6.89-2.68c-4.11-.83-7.14-.73-7.63 5.34-.69 8.57-10.69 15.54-19.56 15a35.81 35.81 0 0 0 -10.8.85c3.92 1.18 8.1 1.88 11.67 3.74 2.23 1.16 5.05 4.16 5 6.22-.16 4-4.12 3.49-7.1 3.24-7.83-.65-15.65-1.75-23.5-2-4-.12-8 1.24-12 1.94l.08 1.38c6.7 2.38 13.41 4.74 20.09 7.17 3.49 1.27 6.88 3 5.5 7.59-1.44 4.8-5.35 4.41-9.14 3.41-2.69-.7-5.33-1.62-9-2.76.59 2 .83 3.24 1.3 4.38 1.28 3.11 3.15 6.08 3.83 9.31.46 2.24.06 5.5-1.32 7-.89 1-4.4-.09-6.51-.86s-3.85-2.3-6.09-3.72a10.61 10.61 0 0 0 -.89 2.24c-.69 5.39-3 8.82-8.14 11.84-8 4.67-14.8 11.33-22.12 17.15-3.58 2.85-7.23 5.63-10.71 8.6a34.87 34.87 0 0 0 -3.65 4.25l1.46 1.83c5.21-3 10.49-5.82 15.6-9 3.59-2.21 6.86-5 10.43-7.2 3.06-1.92 7-2.78 8.93.68 1.4 2.47 1 6.24.7 9.33-.22 1.9-1.92 3.62-2.94 5.41 8.45 5.21 9.36 8.52 4 16.84-4.71 7.27-9.85 14.28-15 21.21-4.1 5.47-4.55 9.62-1.08 15.7 2.13 3.73 4.2 7.5 6.29 11.25h1.72c2.81-5.62 5.76-11.18 8.39-16.89 1.4-3 2.55-6.52 6.64-4.9 3.58 1.42 3.13 4.87 1.93 7.81-2.55 6.23-5.31 12.36-8 18.51-.88 2-1.84 4-2.76 6l1.26 1.18a78.62 78.62 0 0 0 6.91-4.87c3.07-2.65 5.7-5.86 8.91-8.29 1.34-1 4.62-1.57 5.39-.75 1.26 1.33 2.14 4.4 1.44 5.93-1.41 3.14-3.9 5.81-6.1 8.55a59.45 59.45 0 0 1 -5 4.7c3.56.85 5.87 1.59 8.24 1.92 3.23.45 6.59 1.47 5.75 5.2-.42 1.85-3.89 4.1-6.08 4.22a175.81 175.81 0 0 1 -20.52-.44c-8-.49-10.63 2.41-7.93 10.11 1.45 4.14 4 7.88 6 11.86 1.24 2.54 2.79 5.11 3.22 7.82.33 2.1-.87 4.45-1.39 6.69-2-1-4.41-1.61-5.8-3.16-4.5-5-8.61-10.42-13.54-16.5-3 5.09-5.29 9.15-7.67 13.17-.82 1.37-1.5 3.05-2.71 3.89-2 1.28-5 3.28-6.21 2.6-1.76-1-2.89-4-3.31-6.32-.38-2.09.55-4.43 1.13-8l-6.61 3.38c-3.5 1.8-6.75 2-9.4-1.52-2.85-3.78-.89-6.9 1.79-9.36 5.07-4.66 10.49-8.91 15.67-13.44 1.69-1.48 3.08-3.3 5.41-5.85-2.77-1.07-4.74-1.94-6.76-2.59-3-1-6.16-1.52-9-2.74-5.82-2.46-6.59-5.7-3.36-11.12a5 5 0 0 0 -.18-4.08c-1-2-3.23-3.56-3.87-5.64-.77-2.48-1.45-6-.27-7.82s4.7-2.65 7.23-2.73c2.28-.08 4.66 1.31 6.89 2.31 2 .9 3.86 2.15 5.56 3.12l4.41-11.25c-3.15-1.15-6.26-2.5-9.49-3.34a4.15 4.15 0 0 0 -3.44 1.43c-3.68 4.87-8.18 4.43-12.72 2-6.82-3.62-13.49-7.52-20.12-11.47a4.93 4.93 0 0 1 -.71-8.16 12.15 12.15 0 0 1 6.13-2.65c8.23-.86 12.77-7 17.66-12.48.59-.66-.16-3.28-1-4.43-4.66-6.23-9.57-12.27-14.36-18.41-2.06-2.66-3.79-5.76-.84-8.56s6.17-1.39 8.91 1.09c3.4 3.08 6.78 6.19 10.24 9.22 1.22 1.07 2.63 1.93 4 2.88zm139.66-128 1 1.38c1.06-1.69 3.38-4.33 3-4.89a10.87 10.87 0 0 0 -5.66-4c-4.66-1.1-9.29-1-13.39 2.52-2 1.67-4.65 2.41-6.92 3.74-1.09.64-2.79 1.71-2.75 2.49a4.42 4.42 0 0 0 2.41 3.06c5 2.1 10.09 4 15.21 5.74.65.23 1.6-.43 1.36-.36l-2.32-11.11zm80.55 9.34 1.18 1.81c5.85-2.45 11.83-4.65 17.51-7.45 2.72-1.35 2.71-3.46-.55-4.87-2.73-1.17-5.66-2.26-7.9-4.12-4.21-3.49-8.84-3.21-13.46-2.17-2 .44-4.48 2.08-5.12 3.79-.42 1.15 2 3.39 3.22 5.24 1.53-1 2.19-1.74 3-2 1.88-.5 3.81-.77 5.72-1.14a33.17 33.17 0 0 1 -.78 6.2c-.53 1.73-1.82 3.17-2.82 4.71zm-55.6-39.71c-6.23-1.86-18.74 3.87-20.14 9.45-.49 2 .7 5.6 2.27 6.57 2.47 1.51 5.9 1.41 10.27 2.25-6.14-11.13 4.55-12.42 7.6-18.27zm34.65 16.73c5.66 1.8 10.32.68 11.69-2.9 1.93-5-1.55-7.41-5-9.72a27.12 27.12 0 0 1 -3.8-2.79c-3.38-3.25-7.11-2.73-11.38-1.57 2.76 6.1 14.04 7.36 8.49 16.98zm-161.21 155.55-1.48-1.33c-6 4.76-12.18 9.43-18.09 14.36-1.36 1.15-3.06 3.59-2.67 4.81.74 2.35 2.85 4.25 4.4 6.34 1.47-1.57 3.09-3 4.39-4.73 1.72-2.24 3.17-4.68 4.78-7 2.83-4.17 5.83-8.27 8.67-12.45zm280.69-1.44-1.24 1.5c4.75 7 9.4 14.06 14.33 20.93.92 1.27 3 1.71 4.49 2.53 1.24-2.81 6-5.42 2.74-8.55-6.3-5.98-13.5-10.99-20.32-16.41zm-295.53-33.63c7.32-2.2 12.15-6.89 16.27-12.23.79-1-.53-3.94-1.26-5.83-.22-.57-1.82-1-2.65-.85-5.47 1.1-12.63 11.51-12.36 18.91zm309.29-.83c.1-8.07-5-12.41-10.28-16.47-1.24-.95-4.55-1.44-4.8-1-1 1.86-1.92 4.34-1.52 6.31.72 3.45 12.39 11.08 16.63 11.16zm-238.64-88.57c4.3-6.77 4.34-13.17 0-19.56-8.6 13.47-10.9 10.55 0 19.56zm167.83-19.85c-4.5 6.83-4.5 13.28.09 20.13a53.89 53.89 0 0 0 5.79-5.68c.8-1 1.3-3.19.76-4.18-1.9-3.52-4.31-6.77-6.64-10.27zm-146.93 15.61.42-1.58c-2.4-1-4.75-2.19-7.24-2.66-.62-.12-1.7 2.29-3.06 4.24zm135.22 0c-2.41-6.07-4.34-6-9.89 0zm-224.14 66.75 3 .3c.19-1.63.7-3.33.41-4.87-.1-.52-2.22-.64-3.42-.94zm301.52.47 1.53-.25 1.25-5.73-1.28-.84c-1.19 1-3 1.74-3.35 2.94s1.17 2.55 1.85 3.88z" fill="#001400"/><path d="m108.6 382.67c-1.88-2.64-3-3.93-3.81-5.39-2.19-3.84-4.86-7.56-6.13-11.7-.7-2.28 1-5.33 1.66-8 2.39.95 5.05 1.49 7.07 2.95s3.42 4 5.3 5.89c3.57 3.51 6.57 3 8.69-1.49 1.73-3.69 3-7.58 4.57-11.36 1.21-2.95 2-6.27 4-8.64 1.55-1.91 5-4.14 6.7-3.53 2.1.78 4.43 4.28 4.45 6.63 0 3.9-1.52 7.87-2.72 11.71a74.15 74.15 0 0 1 -3.25 7.52l1.47 1.52c2.67-1.87 5.72-3.37 7.91-5.71 3.25-3.46 5.59-7.82 8.92-11.17 1.48-1.49 4.44-1.46 6.73-2.12.32 2.26 1.46 4.82.79 6.72-1.09 3.1-3.24 5.87-5.17 8.61s-1.91 5 .51 7.5c3.35 3.51 6.36 7.34 10.19 11.83 1.17-5.86 2-10.81 3.18-15.67a75.32 75.32 0 0 1 3.9-12.77c.81-1.82 3.28-2.89 5-4.3 1.11 2.17 3.37 4.48 3.12 6.47-.72 5.78-2.53 11.43-3.73 17.16a65 65 0 0 0 -.72 7.13l1.46.95c2.28-1.95 4.7-3.74 6.78-5.88 2.31-2.38 4.57-5.15 8-2.51 3.16 2.46 1.11 5.31-.21 8.1a144.53 144.53 0 0 0 -6.26 14.67 8 8 0 0 0 .52 6.09c4.07 6.42 10.56 9.22 18.21 11.74-1.72-6.73-3.55-12.39-4.52-18.19-.93-5.49-2.24-11.34 3.65-15.52 1.1-.79 1-3.27 1.49-5 1.52-5.58 5.87-8 10.9-5.3a70.74 70.74 0 0 1 12 8.56c3.74 3.17 7.08 3 10.11-.47 2.67-3.08 5.72-3.69 9.47-3a18.06 18.06 0 0 0 6.26.13c4.29-.8 7.77-.32 10.89 3.32 2.63 3.09 5.93 3.14 9.31.34a74 74 0 0 1 11.53-8.32c5.75-3.11 10.24-.56 12 5.73.57 2 2.31 3.74 3.08 5.77 1 2.71 2.59 5.7 2.26 8.36-.95 7.48-2.74 14.86-4.34 23 6.32-.87 11.45-4.51 16.13-8.85 3.53-3.28 2.88-7.54 1.31-11.43-1.79-4.42-4.51-8.49-6.09-13-.71-2 .37-4.68.63-7.05 2.19.54 4.75.54 6.49 1.74 2.86 2 5.19 4.72 7.75 7.15l2.11-1.23c-1-4.9-1.94-9.82-2.95-14.72-.69-3.3-2-6.58-2-9.87 0-2 1.89-4.08 2.93-6.12 1.76 1.34 4.57 2.35 5.11 4.08 2.38 7.6 4.12 15.4 6 23.14.36 1.46.51 3 1 5.91 4.69-5.69 8.69-10.24 12.23-15.13.58-.8-.7-3.25-1.5-4.73-1.66-3.12-4-5.92-5.21-9.19-.6-1.67.76-4.07 1.23-6.13 2.05.49 4.78.31 6 1.6 3.28 3.42 5.65 7.73 8.89 11.2 2.35 2.53 5.51 4.28 8.31 6.38l1.64-1.39a62.28 62.28 0 0 1 -3.03-7.39c-1.22-4.36-2.55-8.81-2.8-13.27-.1-1.79 2.22-4.61 4.05-5.34 1.52-.59 4.72.61 5.82 2.07 2.19 2.88 3.57 6.44 5.06 9.82 1.78 4.06 3.09 8.34 5 12.32 1.77 3.65 4.71 4.22 7.7 1.36 2.29-2.18 4-5.13 6.42-7 1.8-1.36 4.48-1.54 6.77-2.24.65 2.39 2.37 5.15 1.73 7.1-1.42 4.31-4 8.25-6.2 12.27a54.23 54.23 0 0 1 -3.9 5.19c2.89.18 4.64.41 6.38.36 3.22-.1 6.27.31 7 4.08s-.08 7.39-3.83 9.68c-2.63 1.6-4.9 4-7.7 5.06-2.53.93-6.61 1.77-8.2.44-8.26-7-16.68-4.23-25.28-1.62-3.61 1.1-7.24 2.18-10.83 4.54a55.52 55.52 0 0 1 5.77 1.14c4 1.2 8.54 1.76 11.67 4.16 2.48 1.91 4.37 6.15 4.43 9.4.09 4.29-3.85 7.13-7.86 7.27a45.47 45.47 0 0 1 -14.21-1.95c-3.44-1-6.31-3.91-9.71-5.25-2.53-1-5.51-.84-8.3-1.2l-.56 1.71 3.9 2.89c2.11 1.58 5 2.74 6.14 4.86 1.44 2.64 2.8 6.74 1.71 9s-5.18 3.94-8 4.1-5.93-1.81-8.86-2.94c-2.66-1-5.28-2.18-7.91-3.27l-.72 1.18c.89 1.19 1.8 2.37 2.66 3.58 2.35 3.3 4.26 6.78 1.8 10.8s-6.31 4.76-10.61 4.07c-7.46-1.2-14.89-2.67-22.39-3.49-2.2-.25-4.59 1.37-6.92 2-3.6 1-7.28 2.92-10.81 2.67a35.91 35.91 0 0 1 -13.56-3.85c-6.43-3.3-12.13-3.13-18.49.12a45.71 45.71 0 0 1 -13.06 3.82c-4.39.76-8.69.2-12.08-3.61a6 6 0 0 0 -4.62-1.44c-7.32.94-14.62 2.05-21.87 3.42-4.8.91-9.33 1.05-12.28-3.5-3.16-4.88-.19-8.75 2.79-12.43a4 4 0 0 0 .92-3.16c-2.28.82-4.57 1.6-6.83 2.48-3.11 1.19-6.1 2.84-9.3 3.61-3.89.93-7.42-.19-9.27-4.21-1.76-3.81-.36-7.06 2.55-9.53s6.35-4.77 9.55-7.14l-.51-1.89c-3.15.61-6.44.81-9.4 1.92s-5.34 3.7-8.29 4.57a46.21 46.21 0 0 1 -13.68 2.25 8.79 8.79 0 0 1 -8.91-7.69c-.71-4.57 1.87-8.08 5.6-10 3.19-1.67 6.91-2.33 10.44-3.26 2-.53 4-.71 6-1l.17-1.44c-5.93-1.68-12-3.1-17.77-5.13-6-2.09-11.07-1.31-16.24 2.47-4.14 3-8.65 4-12.34-1.44-.87-1.28-2.91-1.86-4.52-2.48-4.63-1.8-5.85-5.53-5.14-9.91s4.27-4.54 7.79-4.31c1.37-.05 2.73-.12 5.74-.12zm206.25 60.83a36.89 36.89 0 0 0 -4.49-3c-5.37-2.61-10.95-4.82-16.2-7.65-2.64-1.43-4.6-4.08-7.12-5.78a8.24 8.24 0 0 0 -5.09-1.54c-6.69.88-13.52 4.74-19.61-1.66a1.62 1.62 0 0 0 -1.47-.35c-6.94 4.11-15.74-3.68-22.22 3.55-.43.48-1.71.38-2.55.26-4.48-.64-8.94-1.56-13.45-2a7.83 7.83 0 0 0 -4.67 1.58c-2.64 1.84-4.77 4.52-7.54 6-5.24 2.86-10.82 5.07-16.18 7.7-1.49.74-2.71 2-4.72 3.56a90.83 90.83 0 0 0 46.52-13.43c8.35-5 11.05-4 15.88 3.63.06.1.32.07 1.6.31a6.42 6.42 0 0 0 .44-1.36c1-5.37 4.43-6.64 9-4.77a133.79 133.79 0 0 1 17.12 8c10.7 6.37 22.72 5.88 34.75 6.95zm-73.37-50.37c1.12 4.55 2.35 8.61 3.09 12.76 1.54 8.7 3.12 10 11.9 8.32 1.14-.21 2.83-1.22 3-2.14 1.37-6.32 2.42-12.71 3.6-19.2a22.17 22.17 0 0 0 -21.59.26zm-87.12-6.32c-.88-4.72-6.68-12.39-9-11.76-3.65 1-7.91 1.7-9.34 6.77zm215-5c-2.32-4.87-6.93-7.57-9.88-6.37-3.94 1.61-6.63 6.32-9.86 9.7l1.26 1.63zm-78.51.88-2.32-1.24c-1.83 2.67-5.11 5.31-5.15 8-.07 4.32 2 8.68 3.35 13.64 5.67-6.43 4.46-13.51 4.07-20.44zm-72.07 19.9c.75-3.48 1.17-7 2.26-10.22 1.75-5.22-.39-8.84-6.22-9.74-2.4 8.28-.88 16.31 3.91 19.92zm103.22 10.56-11.61 7.63.44 1.73 14.39 3.18c-1.22-4.52-2.03-7.87-3.22-12.54zm-128.17 9.45.7-1.87-11.53-7.56-3.18 12.53zm-55.18-6.68c.24 1 .47 2.07.7 3.11l8.2-2.11-.54-2.45zm227.73 3.49c-1.94-5.29-4.67-5.89-9.71-2.6zm-89.38-20.01-2.7-1.27-3.2 7.28 2.31 1.12zm-45.7 7.1 2.67-1.31-3.57-7.07-2.34 1.14z" fill="#001400"/><path d="m283.59 236.61c-.29 6.48-2.62 12.3 4.24 16.63 4.32 2.73 3.27 8.12-1.67 9.88a36 36 0 0 1 -23.24.43c-2.28-.71-4.87-.43-7.12-1.19a10 10 0 0 1 -4.8-3.36c-.43-.61 1.37-2.76 2.06-4.25.86-1.82 2.3-3.68 2.32-5.53.22-17.8.15-35.6.25-53.4a9.65 9.65 0 0 0 -4.09-8.59c-5.22-4-4-10 2.17-12.32a12.07 12.07 0 0 1 4.1-.92c15.26-.05 30.54-.41 45.78.13 10.19.36 13.65 4.81 13.26 15.16a93.88 93.88 0 0 1 -1.5 12.72c-.8 4.47-5.11 5.89-8.19 2.48-2.57-2.83-4.34-6.41-6.46-9.66-1.82-2.8-12.62-4.24-14.82-1.92-.42.46-.87 1.51-.65 1.84a4.43 4.43 0 0 0 2.17 1.84c8.86 2.36 10.18 3.84 9.55 13.05-.49 7.09-1.52 14.14-2.37 21.2-.76 6.31-5.04 6.91-10.99 5.78zm-21.44-54.27c.58 6.4 1.43 11.81 1.52 17.24.26 16 .25 32 .31 48 0 7.46 1.62 9.17 8.92 8.45 1.12-.11 2.86-2.24 2.91-3.5.24-5.84-.29-11.7 0-17.54s1.63-11.58 1.64-17.37c0-7-1-14.05-1.35-21.09-.29-5.78 1.35-10.73 6.86-14.15z" fill="#001400"/><path d="m179.88 208.59c-1.68 1.17-3.26 3.12-5 3.34-3.05.38-6.24-.32-9.36-.56.2-2.45-.37-5.38.75-7.26 5-8.35 10.17-16.62 15.93-24.43 1.73-2.36 5.38-3.71 8.42-4.55s6.61-.66 9.94-.7c7.18-.1 10.19 2 10.82 9.38.91 10.6.95 21.28 1.23 31.93.26 10.3.27 20.6.6 30.9a21.11 21.11 0 0 0 1.64 6.6c2.3 6 .58 10.39-5.66 10.92a287.28 287.28 0 0 1 -30.92.65c-1.94-.05-4.9-2.66-5.41-4.62s.82-5.5 2.5-6.68a10.54 10.54 0 0 0 4.94-8.77q.87-17.69 1.79-35.36zm4.62-17.14c4.63 1.4 5.21 4.68 4.95 8.83-1.22 18.86 2.05 38-4.38 57.72 7.29-.53 13.7-.87 20.06-1.6.75-.09 1.8-2.32 1.76-3.52-.13-4.6-.82-9.18-1-13.78-.64-17.24-1.09-34.49-1.81-51.73-.08-1.81-1.12-4.64-2.42-5.15-6.78-2.68-14.8 1.58-17.16 9.23z" fill="#001400"/><path d="m324.29 239.81c.76 4.87 1.14 9.76 2.34 14.44 1.89 7.3-.4 11-7.92 11.24a64.46 64.46 0 0 1 -11-.71c-5-.71-6.16-3.45-4.73-8.33a37 37 0 0 0 1.35-10.38c0-6.39-.58-12.78-.74-19.17-.18-6.77 6.14-11.89 12.88-11.14a17.58 17.58 0 0 0 8.35-1.1c7.06-2.89 12.84-.17 14.4 7.31a56.65 56.65 0 0 1 .84 5.8c1 9.67-3.76 13.82-13.18 11.69a10.72 10.72 0 0 0 -2.59.35zm-11.63 12.47c0-.57-.27.28 0 .82a48 48 0 0 0 2.62 4.09c.78-1.48 2.21-3 2.23-4.45.12-7.75.08-15.53-.42-23.26-.1-1.66-2.33-3.18-3.58-4.77-.67 1.53-1.94 3.08-1.91 4.6.14 7.24.63 14.47 1.06 22.97z" fill="#001400"/><path d="m320.5 332c-12.14-.05-18-8.05-14.75-19.74a12.52 12.52 0 0 0 .13-6.05c-1.43-5.83-.35-10.93 3.71-14 4.65-3.49 9.76-3.77 14.87-1.18s5.51 7 5.15 12.24c-.18 2.53 1.15 5.36 2.35 7.77 5.09 10.33-.7 21.04-11.46 20.96zm-.53-7.2c2.06-3.43 4.42-5.61 4.1-7.26-.44-2.26-2.9-4.12-4.5-6.15-2 2.18-4.69 4.09-5.66 6.67-.38 1.06 3.09 3.55 6.09 6.78z" fill="#001400"/><path d="m257.69 314.07c.25 11-4.39 17.27-12.74 18.45a11.82 11.82 0 0 1 -7-1.29c-1.51-.85-2.17-3.25-3.2-5 1.68-.85 3.34-2.36 5.05-2.43 6.82-.26 9.59-3.05 9.26-9.85-.17-3.44-1.22-5.13-5.18-4.6-7.72 1-12.41-1.7-13.26-7.08-.78-4.89 3.09-10.1 8.72-11.74 7.1-2.08 13 .34 15.32 6.4a28.32 28.32 0 0 1 1.48 5.65c.69 4.42 1.2 8.85 1.55 11.49z" fill="#001400"/><path d="m280.32 308.26c-2.51 2.91-4.75 6.14-7.63 8.61-1.73 1.49-4.45 1.79-6.72 2.63.08-2.4-.7-5.36.4-7.08a205.69 205.69 0 0 1 14.26-19.77c1.45-1.76 5.08-3 7.17-2.45 1.65.46 3.41 4 3.5 6.25.34 9.05.33 18.14-.19 27.17-.13 2.2-2.46 5.76-4.22 6.07-3.85.67-4.58-3.17-4.74-6.2-.26-4.87-.07-9.77-.07-14.65z" fill="#001400"/><path d="m202 306.3c-2.42 2-4.57 4.62-7.32 5.73-2.34 1-5.37.14-8.09.11.89-2.4 1.22-5.3 2.78-7.11a95.42 95.42 0 0 1 12-11.86c2.08-1.7 5.91-3.52 7.71-2.66 2.14 1 3.92 4.82 4.14 7.55a183.09 183.09 0 0 1 .23 22.35c-.15 3.75-.55 9.09-5.22 9.13-5.43 0-4.22-5.49-4.4-9.16-.23-4.54-.06-9.1-.06-13.65z" fill="#001400"/><path d="m75 396.17c-3.78-.09-6.12-1.45-5.66-5.76.1-1-1.68-2-2.21-3.13s-1.24-3-.88-4.19a3.9 3.9 0 0 1 3.14-2.09c.93 0 1.64 1.91 2.68 2.62 4.23 2.9 4.19 9.66 10.1 11.23.93.25 2.1 3.75 1.51 4.76a10.52 10.52 0 0 1 -5.26 4.12c-.69.25-2.65-2.11-3.5-3.6-.51-.9.01-2.38.08-3.96z" fill="#001400"/><path d="m345.53 254.27c.07 5.2-2.41 8.39-6.4 8.15s-6.09-2.51-6.35-6.42a7.62 7.62 0 0 1 7.57-7.82c3.99.11 5.43 2.61 5.18 6.09z" fill="#001400"/><path d="m440.91 123.72 5 4.65c-1.81 1.59-3.9 4.68-5.37 4.4-2-.37-3.44-3.35-4.56-5.78-1.88-2.26-7-2.08-4.87-7 .7-1.61 4.71-3.5 5.63-2.87 1.9 1.3 2.77 4.19 4.17 6.6z" fill="#001400"/><path d="m474.92 313.27c-.88-.85-3.36-2.2-4-4.16-.41-1.31 1.89-3.43 2.88-5.25.67-1.24 1.06-2.63 1.77-3.84s1.51-2.95 2.68-3.44c.9-.38 3 .47 3.55 1.39s.38 2.82.31 4.27c-.09 1.78-.71 3.58-.52 5.3.46 3.82-1.59 6.26-6.67 5.73z" fill="#001400"/><path d="m462.82 178.48a18.19 18.19 0 0 1 -2.15-3.31c-.77-2-2.21-4.64-1.51-6.1s4-2.5 5.62-2c1.29.39 1.87 3.4 2.65 5.29a42.71 42.71 0 0 1 1.44 4.31c.55 1.82 1.8 4 1.29 5.41-.39 1.1-3.34 2.22-4.68 1.79-1.67-.52-2.85-2.62-4.24-4z" fill="#001400"/><path d="m463.2 340.14c3 2.46 5.2 3.54 6.09 5.31.5 1-1.1 3.16-1.84 4.75a28.87 28.87 0 0 1 -2 3.47c-.95 1.46-2 4-3 4a7.55 7.55 0 0 1 -5.19-2.57c-.52-.62 1.05-3 1.57-4.62.42-1.32.55-2.75 1.08-4 .81-1.84 1.84-3.57 3.29-6.34z" fill="#001400"/><path d="m177.48 42.92c3.35-5.54 5.49-6.42 8.11-3.11a6.64 6.64 0 0 1 1.06 5.19c-.28.93-2.76 1.24-4.29 1.75a38.93 38.93 0 0 1 -4.85 1.4c-2.11.4-4.33 1-6.36.62-.69-.12-.94-2.85-1.39-4.38 1.94-.54 3.87-1.13 5.82-1.58a6 6 0 0 1 1.9.11z" fill="#001400"/><path d="m32.86 298.15c-1-.59-2.26-.92-2.61-1.7-.7-1.54-1.6-3.62-1.07-4.92.44-1.09 3.18-2.29 4.19-1.83 1.28.58 2 2.72 2.67 4.31a26.74 26.74 0 0 1 1.37 4.86c.46 2.08.78 4.2 1.15 6.31l-7 .92c.15-2.16.27-4.33.5-6.48.02-.45.44-.85.8-1.47z" fill="#001400"/><path d="m342.78 46.68 7.63 1.06-1.83 8.19-7-3.21-5.6-1.17 1.77-7.71z" fill="#001400"/><path d="m153.06 59.38a55.72 55.72 0 0 1 -7.69 2.85c-1.14.26-2.59-.88-3.9-1.39a23.89 23.89 0 0 1 1.89-3.17c1.19-1.46 2.36-3.13 3.91-4 1.86-1.07 4.69-2.57 6.06-1.85 2 1.07 3.47 3.8 4.48 6.12.23.52-2.32 2.29-3.59 3.48-.39-.71-.77-1.42-1.16-2.04z" fill="#001400"/><path d="m470 197.64c-.86-1.23-2.11-2.35-2.49-3.71-.53-1.88-1-5.48-.47-5.67 2.66-1 5.64-1.17 8.5-1.63-.13 2-.19 4-.42 6a47.58 47.58 0 0 1 -.91 5 9.3 9.3 0 0 1 -1.19 3.66 2.79 2.79 0 0 1 -2.8.1c-.77-.61-1-2-1.4-3z" fill="#001400"/><path d="m449.8 136.52c1.54.38 2.41.4 2.48.64 1.15 4.27 2.29 8.55 3.11 12.88.07.39-2.23 1.8-3.34 1.7-1.33-.11-3.22-1-3.73-2.13-1.12-2.47-2.21-5.33-2-7.93.15-1.91 2.38-3.68 3.48-5.16z" fill="#001400"/><path d="m175.92 466.18c-.86 5.3-1.17 9.5-6 9.6-1.15 0-3.22-2.65-3.38-4.23-.4-4 3.81-10.28 5.93-9.37 1.69.75 2.74 3.13 3.45 4z" fill="#001400"/><path d="m371.05 460-5.25 4.29c-.83-1.25-2.46-2.62-2.29-3.72.22-1.48 1.63-3 2.88-4a18.63 18.63 0 0 1 4.3-2.23c1.27-.6 2.56-1.14 3.84-1.71.58 1.87 1.63 3.77 1.53 5.6-.05.81-2.38 1.61-3.77 2.16-.49.14-1.29-.39-1.24-.39z" fill="#001400"/><path d="m110.21 87.65c-3.56 3.48-6.52 6.63-9.85 9.33-.47.38-3.38-1.16-3.9-2.36-.4-.94 1-2.91 1.92-4.12a18.64 18.64 0 0 1 4.27-4 8 8 0 0 1 4.51-1.4c.98.01 1.89 1.5 3.05 2.55z" fill="#001400"/><path d="m97.66 420.13c-3.49-2.58-9.49.35-9.06-6 .11-1.59 3.47-4.51 3.82-4.29a84.5 84.5 0 0 1 8.66 6.66z" fill="#001400"/><path d="m41.08 331.2c-1.34-1.09-2.69-2.17-4-3.27-2.53-2.08-3-5.1-.56-6.73 2-1.33 5.28-.72 8-1-.07 2.17.28 4.47-.31 6.48-.55 1.74-2.13 3.13-3.13 4.52z" fill="#001400"/><path d="m407.68 99 7.41-7.23c1.23 1.39 3.27 2.65 3.52 4.2.56 3.44-3.31 7.85-6.06 7.21-1.4-.38-2.49-2.11-4.87-4.18z" fill="#001400"/><path d="m258.43 33c-1 .12-2.14.57-3.05.31-1.62-.46-4.32-1.23-4.4-2.08-.18-1.81.81-3.91 1.85-5.55.22-.33 2.78.75 4.18 1.35a11.29 11.29 0 0 1 2.51 1.64c1.2.94 2.34 1.95 3.51 2.93l-4 2.47z" fill="#001400"/><path d="m186.87 479.8 7.12-6.14c1 1.79 3.31 4.12 2.83 5.25-1 2.28-3.43 3.91-5.28 5.81z" fill="#001400"/><path d="m480.11 295.56c-2.26-2.83-3.84-4.82-5.43-6.8 1.61-1.21 3.93-3.79 4.7-3.38 2.27 1.22 3.94 3.61 5.84 5.54z" fill="#001400"/><path d="m205.8 41.62c-2.23-3.66-4.13-5.71-4.62-8.06-.23-1.1 2.25-2.79 3.5-4.21 1.85 2 4.07 3.89 5.3 6.27.38.72-1.98 2.9-4.18 6z" fill="#001400"/><path d="m279 29.22-6 5.54c-1.19-1.44-3.64-3.35-3.32-4.22.84-2.27 2.88-4.08 4.45-6.08z" fill="#001400"/><path d="m393.61 450.86c-4.08-.58-6.42-2.88-5.93-7.12.17-1.41 1.57-3.58 2.65-3.74s3.67 1.45 3.78 2.49c.31 2.77-.36 5.66-.65 8.5z" fill="#001400"/><path d="m374.22 62.14-5.76 5.59c-1-1.56-3.17-3.37-2.89-4.61.48-2.13 2.48-3.91 3.84-5.83z" fill="#001400"/><path d="m456.5 375.33c-1.65.81-3.83 2.71-4.84 2.2-2-1-3.31-3.3-4.9-5.07 1.38-1 3.05-3.21 4.1-2.94 2.13.55 3.93 2.42 5.86 3.75-.07.73-.15 1.38-.22 2.06z" fill="#001400"/><path d="m383.39 68.9-6.23 5.57c-1.16-1.47-3.46-3.23-3.16-4.36.47-2 2.3-3.9 4-5.17.44-.32 2.7 1.94 5.39 3.96z" fill="#001400"/><path d="m240.88 486.38-4.77 4.53c-1.28-1.85-3.27-3.59-3.58-5.59-.2-1.32 2-3 3.16-4.55 1.49 1.61 2.98 3.23 5.19 5.61z" fill="#001400"/><path d="m410.9 424.45c1.17 1.91 3 3.73 3.29 5.76.16 1.39-1.92 3.07-3 4.62-1.45-1.89-3.39-3.61-4.15-5.75-.39-1.11 1.3-3 2.06-4.51z" fill="#001400"/><path d="m403.7 95.16c-.75-1.67-2.46-3.67-2-5 .63-1.89 2.77-3.27 4.26-4.86 1 1.38 3.05 2.91 2.88 4.12-.3 2-2 3.88-3.07 5.8z" fill="#001400"/><path d="m33.29 244.86c-2-2.47-4.37-4.69-4.06-5.19 1.27-2 3.36-3.53 5.14-5.23 1.14 1.58 3.21 3.21 3.14 4.73s-2.19 3.12-4.22 5.69z" fill="#001400"/><path d="m229.23 486.4-4.63 5.38c-1.2-1.69-3.36-3.41-3.32-5.08s2.29-3.26 3.57-4.88z" fill="#001400"/><path d="m405.9 436.81-4.46 4.42c-1.33-1.79-3.21-3.43-3.76-5.44-.28-1 1.8-2.73 2.81-4.13z" fill="#001400"/><path d="m222.13 34.82-4.77 3.67c-1.25-1.71-3.21-3.32-3.47-5.17-.16-1.18 2.21-2.72 3.44-4.1z" fill="#001400"/><path d="m314.69 44c-.88-1.48-2.69-3.16-2.42-4.38.4-1.86 2.24-3.4 3.47-5.07 1.15 1.27 3.27 2.58 3.22 3.81-.06 1.9-1.6 3.75-2.51 5.63z" fill="#001400"/><path d="m153.92 456.87-6.07 5.13c-.95-1.21-2.93-2.89-2.64-3.53a12 12 0 0 1 4.09-4.74c.44-.33 2.35 1.54 4.62 3.14z" fill="#001400"/><path d="m329.73 481.09c-1.54.68-3.52 2.3-4.53 1.82a7.8 7.8 0 0 1 -3.75-4.57c-.24-.9 2-2.5 3.19-3.78l4 4.08z" fill="#001400"/><path d="m294 37.33c-.8-1.46-2.41-3-2.21-4.36.25-1.73 1.92-3.25 3-4.87 1.22 1.39 3.3 2.69 3.44 4.18s-1.54 3.34-2.43 5z" fill="#001400"/><path d="m427.24 106c-2.36 2-3.8 3.7-5.61 4.58-.44.21-3.21-2.63-3-3.13a11.63 11.63 0 0 1 4-4.63c.54-.33 2.45 1.61 4.61 3.18z" fill="#001400"/><path d="m354.31 58.1 4.69-4.52c1.08 1.32 3.22 2.87 3 3.91-.39 1.83-2.22 3.34-3.45 5z" fill="#001400"/><path d="m309.9 35.59-4.72 4.72c-1-1.39-3-2.87-2.85-4.14.16-1.62 2-3.08 3.1-4.6z" fill="#001400"/><path d="m436.7 404.71-4.06 3.83c-1.24-1.41-3.2-2.69-3.5-4.29-.24-1.25 1.55-2.91 2.45-4.39 1.49 1.42 2.98 2.84 5.11 4.85z" fill="#001400"/><path d="m139.21 69.54c-2.8 1.78-4.45 3.56-5.32 3.23-2-.74-3.55-2.52-5.28-3.88 1.26-1 2.62-2.8 3.78-2.69 1.87.19 3.61 1.67 6.82 3.34z" fill="#001400"/><path d="m31.81 277.07-4-5.11c1.69-1.21 3.26-2.82 5.14-3.41.66-.21 3.17 2.38 3 3.13-.52 1.68-2.19 2.99-4.14 5.39z" fill="#001400"/><path d="m283.75 38.1c-1.82-2.57-3.65-4.08-3.4-5 .46-1.76 2.14-3.2 3.31-4.77 1.12 1.13 3.17 2.3 3.14 3.39-.06 1.7-1.52 3.38-3.05 6.38z" fill="#001400"/><path d="m122.82 433.47c.77 1.31 2.43 2.91 2.12 3.85-.63 1.9-2.32 3.45-3.58 5.14-1-1-3-2.13-2.87-2.87.4-2.14 1.67-4.1 2.59-6.14z" fill="#001400"/><path d="m297.83 484.42 4.61-4.09c1.07 1.35 3.11 2.78 3 4-.15 1.69-1.94 3.22-3 4.81z" fill="#001400"/><path d="m49.18 354.58c-2.07-2.21-4.19-3.66-4-4.4a9.1 9.1 0 0 1 3.45-4.34c.33-.24 3.24 1.76 3.24 2.72.02 1.65-1.36 3.29-2.69 6.02z" fill="#001400"/><path d="m465 161.66c-2.93 1.68-4.58 3.39-5.86 3.14s-2.31-2.41-3.44-3.73c1.26-1 2.51-2.74 3.78-2.75s2.77 1.59 5.52 3.34z" fill="#001400"/><path d="m477.8 323.36c-2.69 1.77-4.15 3.48-5.47 3.38s-2.82-1.87-4.22-2.91c1.34-1.29 2.52-3.28 4.07-3.64 1.18-.28 2.82 1.5 5.62 3.17z" fill="#001400"/><path d="m402.43 83.43c-2.49 1.67-4 3.5-5.27 3.31s-3.1-2.51-3-3.71a5 5 0 0 1 3.48-3.41c1.18-.13 2.56 1.92 4.79 3.81z" fill="#001400"/><path d="m446 380.42c2.09 2.64 3.65 4.17 4.53 6 .22.48-1.72 2-2.66 3-1.51-1.47-3.27-2.76-4.36-4.49-.33-.47 1.18-2.19 2.49-4.51z" fill="#001400"/><path d="m439.85 399c-1.58-2.91-3-4.55-3.19-6.33-.09-.82 2.8-3 3.3-2.67a6.94 6.94 0 0 1 3.23 4.05c.21 1.05-1.58 2.49-3.34 4.95z" fill="#001400"/><path d="m387.41 453c-1.6.57-3.58 2-4.7 1.5-1.48-.66-2.78-2.74-3.18-4.45-.19-.82 1.84-2.18 2.87-3.29l3.6 3.41z" fill="#001400"/><path d="m198.75 39.5c-2 1.59-3.69 3.36-4 3.15a18.37 18.37 0 0 1 -4.13-4.52c-.12-.18 2.25-2.8 2.82-2.58 1.7.64 3.05 2.16 5.31 3.95z" fill="#001400"/><path d="m160.94 460.08c1.39 2.45 2.94 4.15 2.59 4.76-.9 1.6-2.62 2.74-4 4.06-.89-1.06-2.71-2.43-2.48-3.1.55-1.73 2.03-3.15 3.89-5.72z" fill="#001400"/><path d="m142.58 453.41-4.26 3.59c-1-1.36-2.67-2.65-2.83-4.11-.1-.95 2-3 3.09-3s2.25 1.88 4 3.52z" fill="#001400"/><path d="m119.7 81.52c-2.46 1.53-3.86 3.06-4.76 2.8-1.55-.44-2.79-2-4.16-3.09 1.07-.94 2.18-2.68 3.19-2.62 1.54.1 3.03 1.44 5.73 2.91z" fill="#001400"/><path d="m474.82 214.62c-1.65-2-3.52-3.22-3.47-4.38s1.91-3 3.15-3.2c1-.13 3.18 1.7 3.26 2.78.09 1.26-1.53 2.66-2.94 4.8z" fill="#001400"/><path d="m247.05 483.26c1.42 3.14 2.63 4.68 2.64 6.24 0 1-1.71 2.06-2.66 3.09-1-1.25-2.58-2.42-2.76-3.77s1.24-2.65 2.78-5.56z" fill="#001400"/><path d="m239.56 24.19c1.61 2.4 3.15 3.69 3.15 5s-1.52 2.59-2.38 3.89c-1.1-1.12-2.89-2.11-3.11-3.38s1.12-2.85 2.34-5.51z" fill="#001400"/><path d="m38.05 194.31 3.27 3.88c-1.34 1.09-2.55 2.58-4.08 3.07-.59.19-2.83-2.09-2.66-2.87.29-1.32 1.9-2.39 3.47-4.08z" fill="#001400"/><path d="m231.54 25c1.21 2.73 2.43 4.21 2.29 5.55-.11 1.14-1.79 2.12-2.77 3.17-1-1.21-2.72-2.39-2.77-3.64s1.55-2.6 3.25-5.08z" fill="#001400"/><path d="m73.15 125.19c.62 1.52 1.91 3.18 1.66 4.54a4.6 4.6 0 0 1 -3.29 3c-1.18 0-2.41-1.8-3.62-2.81l2.83-3.46z" fill="#001400"/><path d="m163.8 45.75 4 4.27c-1.18 1-2.27 2.57-3.57 2.77-.83.12-2.53-1.69-2.77-2.86-.21-.93 1.18-2.25 2.34-4.18z" fill="#001400"/><path d="m35.49 215.44-3-3.4a20.46 20.46 0 0 1 3.94-3.21c.4-.19 2.62 1.95 2.46 2.33-.64 1.39-1.89 2.48-3.4 4.28z" fill="#001400"/><path d="m90.45 407.18c-2.11 1.31-3.41 2.74-4.69 2.71-.89 0-2.68-2.36-2.43-3a5.55 5.55 0 0 1 3.35-3.07c.73-.23 1.99 1.68 3.77 3.36z" fill="#001400"/><path d="m29.72 265.51c-1.39-1.95-3.12-3.46-2.84-4.2a5.49 5.49 0 0 1 3.43-3c.7-.17 2.82 2 2.7 2.82-.19 1.33-1.75 2.46-3.29 4.38z" fill="#001400"/><path d="m93.39 97.48c.44 1.53 1.46 3.22 1.13 4.55a4.88 4.88 0 0 1 -3.27 2.88c-.87.16-2.82-1.49-2.93-2.47s1.52-2.13 2.39-3.21z" fill="#001400"/><path d="m33.93 225.09c-1.48-1.64-3.14-2.68-3.14-3.71s1.76-3 2.59-2.89c1.27.12 2.41 1.64 3.6 2.57z" fill="#001400"/><path d="m391.58 76.78-4.12 3.22c-.81-1.15-2.17-2.25-2.26-3.45-.07-.88 1.58-2.71 2.37-2.65 1.14.1 2.19 1.49 4.01 2.88z" fill="#001400"/><path d="m432.21 115c-2.26 1.26-3.54 2.56-4.59 2.39s-2.07-1.72-3.09-2.67c1.07-.93 2.09-2.49 3.23-2.6s2.24 1.41 4.45 2.88z" fill="#001400"/><path d="m129.43 452.28c-1-2.46-2-3.82-1.67-4.64.46-1.21 1.9-2 2.92-3 .74.84 2.24 1.92 2.07 2.46-.45 1.43-1.62 2.65-3.32 5.18z" fill="#001400"/><path d="m111.79 431c1.14 1.64 2.47 3.05 2.27 3.34a12.1 12.1 0 0 1 -3.47 3.09c-.21.13-2-1.53-1.88-1.79a35.25 35.25 0 0 1 3.08-4.64z" fill="#001400"/><path d="m480.92 255c1.4 1.51 3.1 2.66 2.93 3.31a4.79 4.79 0 0 1 -2.75 2.84c-.58.19-2.43-1.41-2.5-2.3s1.19-2.15 2.32-3.85z" fill="#001400"/><path d="m480.26 276c1.36 1.46 3 2.59 2.86 3.23-.33 1.22-1.69 2.17-2.61 3.23-1-1-2.45-1.81-2.84-3-.22-.66 1.33-1.91 2.59-3.46z" fill="#001400"/><path d="m64.87 141.78c-1.39-1.65-2.85-2.65-2.8-3.54a3.48 3.48 0 0 1 2.54-2.38 3.58 3.58 0 0 1 2.68 2.25c.16.82-1.22 1.95-2.42 3.67z" fill="#001400"/><path d="m62.33 369.77c1.21 1.49 2.6 2.93 2.47 3.08a13.17 13.17 0 0 1 -3.49 3c-.2.11-2.09-1.75-1.92-2.21.47-1.25 1.61-2.25 2.94-3.87z" fill="#001400"/><path d="m461 366c-2.25 1.14-3.55 2.34-4.32 2.06-1.17-.43-2-1.89-2.94-2.91.84-.67 1.79-2 2.5-1.86 1.23.24 2.36 1.32 4.76 2.71z" fill="#001400"/><path d="m471.71 333.52c-1.92 1.29-3 2.58-3.91 2.49s-1.94-1.46-2.9-2.27c.85-.88 1.62-2.38 2.55-2.48s2.16 1.07 4.26 2.26z" fill="#001400"/><path d="m63.6 147.15c-2.17 1.08-3.44 2.26-4.3 2s-1.88-1.78-2.18-2.92c-.11-.42 1.67-2 2.46-1.86 1.08.14 2.03 1.33 4.02 2.78z" fill="#001400"/><path d="m479.66 225.64c1.17 1.73 2.55 2.92 2.35 3.71a3.68 3.68 0 0 1 -2.76 2.28 3.52 3.52 0 0 1 -2.52-2.46c-.02-.92 1.48-1.89 2.93-3.53z" fill="#001400"/><path d="m312.66 252.28c-.43-8.5-.92-15.73-1.05-23 0-1.52 1.24-3.07 1.91-4.6 1.25 1.59 3.48 3.11 3.58 4.77.5 7.73.54 15.51.42 23.26 0 1.49-1.45 3-2.23 4.45a48 48 0 0 1 -2.62-4.09c-.28-.51.01-1.36-.01-.79z" fill="#001400"/><path d="m320 324.84c-3-3.23-6.44-5.72-6.06-6.74 1-2.58 3.66-4.49 5.66-6.67 1.6 2 4.06 3.89 4.5 6.15.29 1.65-2.1 3.83-4.1 7.26z" fill="#001400"/><path d="m241.48 393.13a22.17 22.17 0 0 1 21.62-.26c-1.18 6.49-2.23 12.88-3.6 19.2-.2.92-1.89 1.93-3 2.14-8.78 1.65-10.36.38-11.9-8.32-.77-4.15-2-8.21-3.12-12.76z" fill="#fff8ff"/><path d="m262.15 182.34h20.79c-5.51 3.42-7.15 8.37-6.86 14.15.35 7 1.36 14.06 1.35 21.09 0 5.79-1.37 11.57-1.64 17.37s.26 11.7 0 17.54c-.05 1.26-1.79 3.39-2.91 3.5-7.3.72-8.89-1-8.92-8.45-.06-16-.05-32-.31-48-.07-5.39-.92-10.8-1.5-17.2z" fill="#fff8ff"/><path d="m184.5 190.73c2.36-7.65 10.38-11.92 17.17-9.23 1.3.51 2.34 3.34 2.42 5.15.72 17.24 1.17 34.48 1.81 51.73.17 4.6.86 9.18 1 13.78 0 1.2-1 3.43-1.76 3.51-6.36.73-12.77 1.08-20.06 1.61 6.43-19.71 3.16-38.86 4.38-57.72.25-4.16-.33-7.44-4.96-8.83z" fill="#fff8ff"/></g></svg>