<svg viewBox="0 0 496.18 496.18" xmlns="http://www.w3.org/2000/svg"><g transform="translate(-6.8 -7.84)"><path d="m369.73 360.09c-1.4 4.2-5.85 7.07-2.73 11.91.38.58-2.14 4-2.73 3.86-6.51-1.53-9.75 3.52-14.13 6.1a89.29 89.29 0 0 0 -7.82 5.8l1.09 1.53c4.49-3.08 8.94-6.23 13.51-9.2a33.49 33.49 0 0 1 5-2.19c-.63 1.85-.67 4.43-2 5.43-6.92 5.19-13.33 11.77-23.51 10.2-.54-.08-1.29.45-1.77.87-2.85 2.49-4.62 1.46-5.77-1.77a97.45 97.45 0 0 0 -39.63 33.8c-8.26 12-18.69 22.2-29.58 31.95-6.07 5.43-13.53 7.45-21.9 6.1-11.11-1.79-22-4.42-31.61-10.16-10.29-6.15-14.43-15.87-15.6-27.17-.76-7.29-2.34-14.51-3.65-21.75-.54-3-2.23-4.24-5.6-3.45-6.28 1.45-12.63 2.67-19 3.92-7.62 1.5-11.43-.38-13.91-7.22-6.73-18.84-13.39-37.73-20.16-56.65-7.28 3.25-14.91 7.3-23 10.09-8.34 2.87-17 5.59-25.76 6.43-15 1.44-26-5.53-33-18.08-5.7-10.18-9.91-21.26-19.34-29.13-5-4.19-10.17-8.25-15.32-12.31-5-4-4.59-4.95-.17-9.18 13-12.46 25.61-25.28 38.34-38 1.94-1.94 3.67-4.06 5.52-6.09a57.25 57.25 0 0 0 12.2-21.88c5.21-16.31 11.92-32.19 18.18-48.18q6.27-16 13-31.86c9.46-22.33 27.15-38 46.48-52.29 5.54-4.1 11.12-8.22 17.05-11.77a226.59 226.59 0 0 1 95.46-31.38c25.95-2.54 51.67-1.83 77.17 4.08 12 2.78 21.44 9.81 31.22 16.17 17.34 11.27 33.58 24 45.59 40.63 6.51 9 11.64 19.14 16.07 29.29 7.76 17.76 14.18 36.05 21.8 53.88a89.55 89.55 0 0 1 7.28 30.19 19.87 19.87 0 0 0 4.12 10.07c7.57 10 15.81 19.65 23.43 29.68 4.84 6.37 9.06 13.16 13.48 19.81 1.6 2.42 4.61 5.33 4.12 7.39a28.46 28.46 0 0 1 -6.15 11.44c-16.72 19.45-37.36 34.4-60.28 46.46-9.62 5.07-19.7 9.37-29.66 13.84s-20.1 3.69-30.25.49c-1.81-.61-3.71-1.05-6.08-1.7zm-300.31-124.44c13.21.92 25.55 2 37.92 2.61 25.23 1.23 50.47 2.16 75.71 3.3a47.25 47.25 0 0 1 6.68 1.25l-.16 1.76c-2.3.13-4.6.44-6.9.37-20.52-.6-41-1.07-61.55-2-16.28-.71-32.54-2.09-48.82-2.83a9.53 9.53 0 0 0 -6.43 2.89c-10.53 11.26-20.76 22.79-31.16 34.16-5.25 5.73-10.65 11.33-16 17 6.12.4 13.07 1 20 1.26 23 .73 45.92 1.31 68.88 1.91a32.31 32.31 0 0 0 4.71-.31c33.65-4 67.29-3 100.72 1.56 21.83 3 43.42 7.52 65.1 11.49 20.56 3.77 39.7 10.89 56.94 22.48 8.89 6 17.78 12 27.06 17.41 12.63 7.33 26.1 11.91 41 6.58a168.75 168.75 0 0 0 21.52-9.12c24.3-12.73 46.41-28.28 65-48.14 6.73-7.19 7.08-8.06 1.35-16-9.07-12.55-18.36-25-28.14-37-8.09-10-14.21-20.23-13.54-33.4.17-3.22-1-6.67-2.23-9.77-8.22-20.67-16.25-41.43-25.13-61.84-4.36-10-9.35-20-15.91-28.79-12.48-16.66-29-29.59-46.88-40.7-7.3-4.53-14.75-9.58-22.9-11.93-11.65-3.35-24-5.87-36.07-6.2-23.44-.64-47.11-.48-70 5.56-28.15 7.43-54.67 18-78.48 35.05-26 18.66-45 41.29-55.28 71-5.72 16.54-13.26 32.49-19.72 48.81-2.66 6.81-4.71 13.93-7.29 21.58zm280.58 112.35c-4-2.48-8-5.13-12.2-7.57-13.13-7.69-25.55-16.77-40.91-20.22-19.08-4.29-38.19-8.48-57.36-12.39-4.67-.95-10-1.85-14.38-.65-14.62 4-29 8.9-43.39 13.62-9.05 3-18 6.25-27.94 9.72 4.46 12.4 8.77 23.87 12.68 35.46a104.28 104.28 0 0 1 3.85 15.87c.49 2.91 1.77 3.22 4.45 3.53 7.42.85 14.81 2 22.13 3.45a23.27 23.27 0 0 1 17.07 13.18c4.05 8.64 7 17.79 9.81 26.89 1.6 5.17 2 10.69 3 17 4.33-2.43 8.32-4 11.39-6.53 8.19-6.82 16.06-14 23.94-21.17 12.17-11.08 24.95-21.09 41.77-25.14 9.34-2.25 18.55-5 27.78-7.59a5 5 0 0 0 3-2.12c5.12-11.55 10.07-23.14 15.31-35.34zm-128.47 98.59c-1-5.89-1.18-11.72-3-17a186.71 186.71 0 0 0 -11.18-26.88c-3.4-6.44-10.28-8.76-17.88-9.06 1.91 6.11 4.11 11.63 5.28 17.33s1.37 11.61 1.87 17.44c1.25 14.58 10.89 21.99 24.91 18.17zm-59.45-74.68c-3.71-10.71-7.17-20.5-10.49-30.33-1.67-4.92-3.16-9.91-4.6-14.9-1.16-4-3.9-5.26-7.94-4.51-1.69.32-3.38.7-5.06 1.05 4.82 18.06 9.59 35.91 14.37 53.77zm-32.45-53.54-3.6-4.6a59 59 0 0 1 5.21-3.27 5.46 5.46 0 0 1 3.09-.32c1.94.33 3.83.92 5.74 1.4l-1.5 5 5.05-.38c-.38-7.76-7-7.36-11.56-9.58-4.27-2.08-5.6 2.29-8.35 3.42-.8.33-.76 3.52-.38 5.26s1.67 3.16 2.69 4.94zm23.73 80.81 13.64-10.18-.54-1.5-16.25 2.3c.94 2.94 1.85 5.59 3.15 9.38zm213-40.18-1.52-1.17-11.38 14.33c8.89-1.46 8.23-9.42 12.89-13.16zm-9.6-6.23c-1.91 4.54-3.51 8.32-5.1 12.11l.9.41 7.44-9.79zm-222.29-51.85 13.3 7.58c-1.71-5.17-6.6-8.25-13.3-7.58z" fill="#fff8ff"/><path d="m69.42 235.65c2.58-7.69 4.63-14.77 7.33-21.6 6.46-16.32 14-32.27 19.72-48.81 10.26-29.7 29.31-52.33 55.28-71 23.81-17.1 50.33-27.62 78.48-35 22.88-6 46.55-6.2 70-5.56 12.11.33 24.42 2.85 36.07 6.2 8.15 2.35 15.6 7.4 22.9 11.93 17.91 11.11 34.4 24 46.88 40.7 6.56 8.75 11.55 18.79 15.91 28.79 8.88 20.41 16.91 41.17 25.13 61.84 1.23 3.1 2.4 6.55 2.23 9.77-.67 13.17 5.45 23.45 13.54 33.4 9.78 12 19.07 24.44 28.14 37 5.73 7.93 5.38 8.8-1.35 16-18.59 19.86-40.7 35.41-65 48.14a168.75 168.75 0 0 1 -21.52 9.12c-14.86 5.33-28.33.75-41-6.58-9.28-5.39-18.17-11.43-27.06-17.41-17.24-11.59-36.38-18.71-56.94-22.48-21.68-4-43.27-8.51-65.1-11.49-33.4-4.61-67.06-5.61-100.69-1.61a32.31 32.31 0 0 1 -4.71.31c-23-.6-45.92-1.18-68.88-1.91-7-.22-13.91-.86-20-1.26 5.31-5.64 10.71-11.24 16-17 10.4-11.37 20.63-22.9 31.16-34.16a9.53 9.53 0 0 1 6.43-2.86c16.28.74 32.54 2.12 48.82 2.83 20.51.9 41 1.37 61.55 2 2.3.07 4.6-.24 6.9-.37l.16-1.76a47.25 47.25 0 0 0 -6.68-1.25c-25.24-1.14-50.48-2.07-75.71-3.3-12.41-.61-24.78-1.7-37.99-2.62zm377.58-8.23c-.7-.81-1.39-1.63-2.08-2.44-1.44.54-2.9 1-4.31 1.64-11 4.74-21.57 10.6-33 14-19 5.71-38.56 9.85-57.87 14.7a25 25 0 0 0 -3.6 1.51c.16.45.31.9.46 1.35a55 55 0 0 0 6.57-.73c18.72-4.29 37.41-8.71 56.14-13 11.95-2.74 22.46-8.36 32.66-14.66a49.78 49.78 0 0 1 5.03-2.37z" fill="#fff8ff"/><path d="m350 348c-5.25 12.18-10.2 23.77-15.32 35.29a5 5 0 0 1 -3 2.12c-9.23 2.62-18.44 5.34-27.78 7.59-16.82 4.05-29.6 14.06-41.77 25.14-7.88 7.16-15.75 14.35-23.94 21.17-3.07 2.55-7.06 4.1-11.39 6.53-1.07-6.29-1.43-11.81-3-17-2.8-9.06-5.8-18.21-9.8-26.84a23.27 23.27 0 0 0 -17-13.15c-7.32-1.42-14.71-2.6-22.13-3.45-2.68-.31-4-.62-4.45-3.53a104.28 104.28 0 0 0 -3.91-15.87c-3.91-11.59-8.22-23.06-12.68-35.46 9.94-3.47 18.89-6.75 27.94-9.72 14.4-4.72 28.77-9.61 43.39-13.62 4.39-1.2 9.71-.3 14.38.65 19.17 3.91 38.28 8.1 57.36 12.39 15.36 3.45 27.78 12.53 40.91 20.22 4.19 2.43 8.19 5.08 12.19 7.54z" fill="none"/><g fill="#fff8ff"><path d="m221.53 446.59c-14 3.82-23.66-3.63-24.9-18.2-.5-5.83-.71-11.73-1.87-17.44s-3.37-11.22-5.28-17.33c7.6.3 14.48 2.62 17.88 9.06a186.71 186.71 0 0 1 11.18 26.88c1.81 5.31 2.02 11.14 2.99 17.03z"/><path d="m162.08 371.91-13.72 5.09c-4.78-17.86-9.55-35.71-14.37-53.77 1.68-.35 3.37-.73 5.06-1.05 4-.75 6.78.49 7.94 4.51 1.44 5 2.93 10 4.6 14.9 3.32 9.82 6.78 19.61 10.49 30.32z"/><path d="m129.63 318.37-3.63 1.91c-1-1.78-2.33-3.27-2.69-4.94s-.42-4.93.38-5.26c2.75-1.13 4.08-5.5 8.35-3.42 4.56 2.22 11.18 1.82 11.56 9.58l-5.05.38 1.5-5c-1.91-.48-3.8-1.07-5.74-1.4a5.46 5.46 0 0 0 -3.09.32 59 59 0 0 0 -5.21 3.27z"/><path d="m153.36 399.18c-1.3-3.79-2.21-6.44-3.2-9.35l16.25-2.3.59 1.47z"/><path d="m366.35 359c-4.66 3.74-4 11.7-12.9 13.16l11.38-14.33z"/><path d="m356.75 352.77 3.25 2.73-7.46 9.79-.9-.41c1.6-3.79 3.2-7.57 5.11-12.11z"/><path d="m134.47 300.92c6.7-.67 11.59 2.41 13.3 7.58z"/><path d="m447 227.42a49.78 49.78 0 0 0 -5 2.39c-10.2 6.3-20.71 11.92-32.66 14.66-18.73 4.29-37.42 8.71-56.14 13a55 55 0 0 1 -6.57.73c-.15-.45-.3-.9-.46-1.35a25 25 0 0 1 3.6-1.51c19.31-4.85 38.84-9 57.87-14.7 11.39-3.42 22-9.28 33-14 1.41-.61 2.87-1.1 4.31-1.64.7.79 1.39 1.61 2.05 2.42z"/></g></g><path d="m0 0h496.18v496.18h-496.18z" fill="none"/><g transform="translate(-6.8 -7.84)"><path d="m369.73 360.09c-1.4 4.2-5.85 7.07-2.73 11.91.38.58-2.14 4-2.73 3.86-6.51-1.53-9.75 3.52-14.13 6.1a89.29 89.29 0 0 0 -7.82 5.8l1.09 1.53c4.49-3.08 8.94-6.23 13.51-9.2a33.49 33.49 0 0 1 5-2.19c-.63 1.85-.67 4.43-2 5.43-6.92 5.19-13.33 11.77-23.51 10.2-.54-.08-1.29.45-1.77.87-2.85 2.49-4.62 1.46-5.77-1.77a97.45 97.45 0 0 0 -39.63 33.8c-8.26 12-18.69 22.2-29.58 31.95-6.07 5.43-13.53 7.45-21.9 6.1-11.11-1.79-22-4.42-31.61-10.16-10.29-6.15-14.43-15.87-15.6-27.17-.76-7.29-2.34-14.51-3.65-21.75-.54-3-2.23-4.24-5.6-3.45-6.28 1.45-12.63 2.67-19 3.92-7.62 1.5-11.43-.38-13.91-7.22-6.73-18.84-13.39-37.73-20.16-56.65-7.28 3.25-14.91 7.3-23 10.09-8.34 2.87-17 5.59-25.76 6.43-15 1.44-26-5.53-33-18.08-5.7-10.18-9.91-21.26-19.34-29.13-5-4.19-10.17-8.25-15.32-12.31-5-4-4.59-4.95-.17-9.18 13-12.46 25.61-25.28 38.34-38 1.94-1.94 3.67-4.06 5.52-6.09a57.25 57.25 0 0 0 12.2-21.88c5.21-16.31 11.92-32.19 18.18-48.18q6.27-16 13-31.86c9.46-22.33 27.15-38 46.48-52.29 5.54-4.1 11.12-8.22 17.05-11.77a226.59 226.59 0 0 1 95.46-31.38c25.95-2.54 51.67-1.83 77.17 4.08 12 2.78 21.44 9.81 31.22 16.17 17.34 11.27 33.58 24 45.59 40.63 6.51 9 11.64 19.14 16.07 29.29 7.76 17.76 14.18 36.05 21.8 53.88a89.55 89.55 0 0 1 7.28 30.19 19.87 19.87 0 0 0 4.12 10.07c7.57 10 15.81 19.65 23.43 29.68 4.84 6.37 9.06 13.16 13.48 19.81 1.6 2.42 4.61 5.33 4.12 7.39a28.46 28.46 0 0 1 -6.15 11.44c-16.72 19.45-37.36 34.4-60.28 46.46-9.62 5.07-19.7 9.37-29.66 13.84s-20.1 3.69-30.25.49c-1.81-.61-3.71-1.05-6.08-1.7zm-300.31-124.44c13.21.92 25.55 2 37.92 2.61 25.23 1.23 50.47 2.16 75.71 3.3a47.25 47.25 0 0 1 6.68 1.25l-.16 1.76c-2.3.13-4.6.44-6.9.37-20.52-.6-41-1.07-61.55-2-16.28-.71-32.54-2.09-48.82-2.83a9.53 9.53 0 0 0 -6.43 2.89c-10.53 11.26-20.76 22.79-31.16 34.16-5.25 5.73-10.65 11.33-16 17 6.12.4 13.07 1 20 1.26 23 .73 45.92 1.31 68.88 1.91a32.31 32.31 0 0 0 4.71-.31c33.65-4 67.29-3 100.72 1.56 21.83 3 43.42 7.52 65.1 11.49 20.56 3.77 39.7 10.89 56.94 22.48 8.89 6 17.78 12 27.06 17.41 12.63 7.33 26.1 11.91 41 6.58a168.75 168.75 0 0 0 21.52-9.12c24.3-12.73 46.41-28.28 65-48.14 6.73-7.19 7.08-8.06 1.35-16-9.07-12.55-18.36-25-28.14-37-8.09-10-14.21-20.23-13.54-33.4.17-3.22-1-6.67-2.23-9.77-8.22-20.67-16.25-41.43-25.13-61.84-4.36-10-9.35-20-15.91-28.79-12.48-16.66-29-29.59-46.88-40.7-7.3-4.53-14.75-9.58-22.9-11.93-11.65-3.35-24-5.87-36.07-6.2-23.44-.64-47.11-.48-70 5.56-28.15 7.43-54.67 18-78.48 35.05-26 18.66-45 41.29-55.28 71-5.72 16.54-13.26 32.49-19.72 48.81-2.66 6.81-4.71 13.93-7.29 21.58zm280.58 112.35c-4-2.48-8-5.13-12.2-7.57-13.13-7.69-25.55-16.77-40.91-20.22-19.08-4.29-38.19-8.48-57.36-12.39-4.67-.95-10-1.85-14.38-.65-14.62 4-29 8.9-43.39 13.62-9.05 3-18 6.25-27.94 9.72 4.46 12.4 8.77 23.87 12.68 35.46a104.28 104.28 0 0 1 3.85 15.87c.49 2.91 1.77 3.22 4.45 3.53 7.42.85 14.81 2 22.13 3.45a23.27 23.27 0 0 1 17.07 13.18c4.05 8.64 7 17.79 9.81 26.89 1.6 5.17 2 10.69 3 17 4.33-2.43 8.32-4 11.39-6.53 8.19-6.82 16.06-14 23.94-21.17 12.17-11.08 24.95-21.09 41.77-25.14 9.34-2.25 18.55-5 27.78-7.59a5 5 0 0 0 3-2.12c5.12-11.55 10.07-23.14 15.31-35.34zm-128.47 98.59c-1-5.89-1.18-11.72-3-17a186.71 186.71 0 0 0 -11.18-26.88c-3.4-6.44-10.28-8.76-17.88-9.06 1.91 6.11 4.11 11.63 5.28 17.33s1.37 11.61 1.87 17.44c1.25 14.58 10.89 21.99 24.91 18.17zm-59.45-74.68c-3.71-10.71-7.17-20.5-10.49-30.33-1.67-4.92-3.16-9.91-4.6-14.9-1.16-4-3.9-5.26-7.94-4.51-1.69.32-3.38.7-5.06 1.05 4.82 18.06 9.59 35.91 14.37 53.77zm-32.45-53.54-3.6-4.6a59 59 0 0 1 5.21-3.27 5.46 5.46 0 0 1 3.09-.32c1.94.33 3.83.92 5.74 1.4l-1.5 5 5.05-.38c-.38-7.76-7-7.36-11.56-9.58-4.27-2.08-5.6 2.29-8.35 3.42-.8.33-.76 3.52-.38 5.26s1.67 3.16 2.69 4.94zm23.73 80.81 13.64-10.18-.54-1.5-16.25 2.3c.94 2.94 1.85 5.59 3.15 9.38zm213-40.18-1.52-1.17-11.38 14.33c8.89-1.46 8.23-9.42 12.89-13.16zm-9.6-6.23c-1.91 4.54-3.51 8.32-5.1 12.11l.9.41 7.44-9.79zm-222.29-51.85 13.3 7.58c-1.71-5.17-6.6-8.25-13.3-7.58z" fill="#001400"/><path d="m447 227.42c-.7-.81-1.39-1.63-2.08-2.44-1.44.54-2.9 1-4.31 1.64-11 4.74-21.57 10.6-33 14-19 5.71-38.56 9.85-57.87 14.7a25 25 0 0 0 -3.6 1.51c.16.45.31.9.46 1.35a55 55 0 0 0 6.57-.73c18.72-4.29 37.41-8.71 56.14-13 11.95-2.74 22.46-8.36 32.66-14.66a49.78 49.78 0 0 1 5.03-2.37z" fill="#fff"/><path d="m350 348c-5.25 12.18-10.2 23.77-15.32 35.29a5 5 0 0 1 -3 2.12c-9.23 2.62-18.44 5.34-27.78 7.59-16.82 4.05-29.6 14.06-41.77 25.14-7.88 7.16-15.75 14.35-23.94 21.17-3.07 2.55-7.06 4.1-11.39 6.53-1.07-6.29-1.43-11.81-3-17-2.8-9.06-5.8-18.21-9.8-26.84a23.27 23.27 0 0 0 -17-13.15c-7.32-1.42-14.71-2.6-22.13-3.45-2.68-.31-4-.62-4.45-3.53a104.28 104.28 0 0 0 -3.91-15.87c-3.91-11.59-8.22-23.06-12.68-35.46 9.94-3.47 18.89-6.75 27.94-9.72 14.4-4.72 28.77-9.61 43.39-13.62 4.39-1.2 9.71-.3 14.38.65 19.17 3.91 38.28 8.1 57.36 12.39 15.36 3.45 27.78 12.53 40.91 20.22 4.19 2.43 8.19 5.08 12.19 7.54z" fill="none"/><path d="m221.53 446.59c-14 3.82-23.66-3.63-24.9-18.2-.5-5.83-.71-11.73-1.87-17.44s-3.37-11.22-5.28-17.33c7.6.3 14.48 2.62 17.88 9.06a186.71 186.71 0 0 1 11.18 26.88c1.81 5.31 2.02 11.14 2.99 17.03z" fill="#fff8ff"/><path d="m162.08 371.91-13.72 5.09c-4.78-17.86-9.55-35.71-14.37-53.77 1.68-.35 3.37-.73 5.06-1.05 4-.75 6.78.49 7.94 4.51 1.44 5 2.93 10 4.6 14.9 3.32 9.82 6.78 19.61 10.49 30.32z" fill="#fff8ff"/><path d="m129.63 318.37-3.63 1.91c-1-1.78-2.33-3.27-2.69-4.94s-.42-4.93.38-5.26c2.75-1.13 4.08-5.5 8.35-3.42 4.56 2.22 11.18 1.82 11.56 9.58l-5.05.38 1.5-5c-1.91-.48-3.8-1.07-5.74-1.4a5.46 5.46 0 0 0 -3.09.32 59 59 0 0 0 -5.21 3.27z" fill="#fff8ff"/><path d="m153.36 399.18c-1.3-3.79-2.21-6.44-3.2-9.35l16.25-2.3.59 1.47z" fill="#fff8ff"/><path d="m366.35 359c-4.66 3.74-4 11.7-12.9 13.16l11.38-14.33z" fill="#fff8ff"/><path d="m356.75 352.77 3.25 2.73-7.46 9.79-.9-.41c1.6-3.79 3.2-7.57 5.11-12.11z" fill="#fff8ff"/><path d="m134.47 300.92c6.7-.67 11.59 2.41 13.3 7.58z" fill="#fff8ff"/><path d="m447 227.42a49.78 49.78 0 0 0 -5 2.39c-10.2 6.3-20.71 11.92-32.66 14.66-18.73 4.29-37.42 8.71-56.14 13a55 55 0 0 1 -6.57.73c-.15-.45-.3-.9-.46-1.35a25 25 0 0 1 3.6-1.51c19.31-4.85 38.84-9 57.87-14.7 11.39-3.42 22-9.28 33-14 1.41-.61 2.87-1.1 4.31-1.64.7.79 1.39 1.61 2.05 2.42z" fill="#001400"/></g></svg>