<svg viewBox="0 0 496.18 496.18" xmlns="http://www.w3.org/2000/svg"><path d="m0 0h496.18v496.18h-496.18z" fill="none"/><g transform="translate(-7.67 -7.69)"><g fill="#fff8ff"><path d="m241.16 155.47-9.95 5c2 4 3.32 8 5.84 11 1.28 1.55 4.73 1.72 7.22 1.83.76 0 2.56-2.5 2.29-3.39-1.49-4.78-3.48-9.45-5.4-14.44z"/><path d="m227.23 105.3c-3.69-9.86-6-20.23-8.53-30.47-1.33-5.4-4.73-7.23-10-7.15-18.54.29-26.25 16.83-20.47 32.55 3 8.18 7.44 16 11.91 23.52 7.94 13.46 16.38 26.64 24.66 39.92.91 1.46 2.11 2.76 3.64 4.73 1.1-5.62-3.44-11.73 4.43-14.14 3-.91 6.28-3 8.83-2.31s4.37 4 6.65 6.38c.11-.81.23-1.5.3-2.19 1.09-9.8-4.68-17.32-8.88-25.39-4.34-8.4-9.26-16.64-12.54-25.45z"/><path d="m267 125.64c-11.88 5.61-11.73 2.65-6.08 14.75.15.32.34.63.52.94 4 7.15 6.86 7.33 12.3.77-1.41-3-2.72-5.51-3.78-8.12s-1.96-5.52-2.96-8.34z"/><path d="m213.34 175.43-9 5.25c2.79 3.23 4.71 6.45 7.56 8.39 1.66 1.13 4.87.44 7.23-.07.4-.08.67-3.72-.08-5.2-1.52-2.95-3.75-5.55-5.71-8.37z"/><path d="m292.49 132.46c2.44 0 4.88-1.55 7.32-2.4-.14-.51-.28-1-.43-1.53l-16.63-4.4c2.36 4.54 4.69 8.33 9.74 8.33z"/><path d="m315 37.92c-3.77-9.58-9.05-17.58-20-21.29-12.94-4.36-27.32 4.37-27.9 17.77a6 6 0 0 0 1.06 3.46c5.06 7.21 6.9 15.26 7 23.83a52.4 52.4 0 0 0 .6 5.28c4 0 7.32-.37 10.53.1 3.41.5 6.68 1.85 10 2.76 15.24 4.1 12.72 6 16.33-9a36.64 36.64 0 0 1 1.66-5.65c.39-.94 1.45-1.61 2.2-2.4l1.83.6-4.31 20.69 8.66.58c-1.2-8.22-2-15.63-3.44-22.93a81.59 81.59 0 0 0 -4.22-13.8z"/><path d="m267.36 45.65c-4.52-11.65-18.36-17.52-29.29-13.65s-20.77 20.88-17.88 31c3.28 11.49 6.29 23.08 10.13 34.4a167.76 167.76 0 0 0 10.94 26.06c3.66 6.76 9.12 12.61 13.78 18.87l1.22-.86c-4.86-11.42-4.71-14 1-16.59 9.88-4.56 11.08-3.95 18.61 9.57 1.38-8.12 2.72-16.09-5.15-22.09a8.12 8.12 0 0 1 -1.64-2.14c-4.65-7.09-7.33-14.78-7.16-23.24a22.18 22.18 0 0 1 8.95-17.65 2.85 2.85 0 0 0 .91-2.3c-1.33-7.18-1.78-14.67-4.42-21.38z"/><path d="m278.61 74.63c-6.72 2.87-8.83 14.11-3.56 17.58 3.65 2.41 8 3.86 10.65 5.11l14-20.4c-2.5-.88-6.18-2.81-10.05-3.34-3.6-.49-7.8-.34-11.04 1.05z"/><path d="m345.68 78.45c-4.38-3.32-9.44-5.42-15.36-3.85a4.93 4.93 0 0 1 -2.43-.12c-2.79-12.6-4.89-24.72-8.23-36.48-3.53-12.47-11-21.92-24.68-25.85-9.78-2.81-19.08-.49-24.8 7.68-2.74 3.92-4.91 8.21-7.6 12.76-11.17-8.21-22.58-8.4-33.58-.29-10.47 7.7-13.39 19.1-13.78 31.18-12.81-.33-19.37.48-24 6.4-6.09 7.69-14.22 12.61-21.32 18.86-12 10.52-20.29 24-22.82 40.05-3.3 20.88 0 41.3 4.92 61.59 2.92 12 5.66 24 8.36 36 1.56 7 2.17 14.22 4.48 20.93 4.94 14.39 5.94 28.91 4.36 43.87a246 246 0 0 0 -1.4 27.28c.14 23.41 1.11 46.82 1 70.23-.12 23.05-1.57 46.09-1.68 69.14-.08 15.1 1.2 30.21 1.87 45.31h125.92a804.84 804.84 0 0 1 -12-84.54c-.88-9.9-3.08-35.66-3-62.28.26-84.95 23.67-117 27.83-207.21 1.08-23.35.47-42 0-51.95-64.33 53.29-89.54 72.09-93.79 72.66a3.85 3.85 0 0 0 -2 .37c-5 2.49-14.61 3.14-11.21 14.22-17.44-13.43-32.31-27-38.13-47.39l-8.22 7.9c2.39 1.39 5.92 2.24 7.13 4.35 10.12 17.56 24.51 31.12 41.14 42.65a26 26 0 0 0 8.46 3.73c8.49 2.11 16-3.54 16.29-12.06.1-3-.26-6-.42-9.34.92.51 1.7.9 2.44 1.36 13.17 8 23.47 3.15 24.34-11.66.29-4.94.05-9.91.05-15.43 7 3.1 13.28 5.54 20 1.34 6.36-4 7.57-10.42 8.08-16.07l16.37 4.89c-.66 8-3.34 17.41 6.58 23.71-.66-6.43-4.08-12.62-.94-20.19 1.63 2.91 2.72 4.93 3.88 6.91 1.72 3 3.19 6.1 5.37 8.7.92 1.11 9.74 15.79-3.75-18-1.69-4.24-2.88-7.93-3.71-10.74 7.3-1.76 13.75-3 20-5 1.83-.57 3-3 4.54-4.54-2.09-.28-4.28-1.12-6.23-.75-4.43.85-33.72-1.72-34.22.23-.27 1.06 7.56 4.58 47.81 16.3-26.65-16.74-49.47-31.18-49.27-31.48 0-.08 1.78 1.06 3.13.4s1.14-2.82 1.66-3.14c3.18-2 10.35 65.57 11.75 61.28a57.86 57.86 0 0 1 12.76-21.12c19.73-21.9 26.72-56.68 23.09-58.68-6.82-3.76-80.51 92.41-69 103.22 10.62 10 99.83-47.81 92.3-66.33-7.23-17.8-104.38-.88-107.63 21.94-1 7.38 7.58 16.35 2.62 23.42-3.42 4.88-11.54 6.37-12.32 5.08-1-1.61 7.1-11.38 14.26-11.2 21.42.54 30.33 90.11 22.32 92.78a10.63 10.63 0 0 0 -4.74 2.56c-.93.93-1 2.69-1.43 4.08 1.32.21 2.27 101.15 3.43 123.8 1.68 32.8 5.11 65.52 7.71 98.29.4 5.05.65 10.11.89 15.17.13 2.58.25 5.16.39 7.74h5.52a288.84 288.84 0 0 0 -4.04-43.12c-14.19-85.09-16.1-199-.67-204a60.85 60.85 0 0 0 11.1-4.55c8.48-4.54 12.82-9.92 20-17.37 10.78-11.2 20.09-23.82 31.42-34.42 10.37-9.71 14.95-20.61 15-34.22 0-14.47.06-29 1.58-43.39 2.11-20.05-9.19-32.56-23.75-43.6zm-126.59 110.55c-2.36.51-5.57 1.2-7.23.07-2.85-1.94-4.77-5.16-7.56-8.39l9-5.25c2 2.82 4.19 5.42 5.67 8.37.79 1.48.52 5.12.12 5.2zm80.29-60.47c.15.51.29 1 .43 1.53-2.44.85-4.88 2.41-7.32 2.4-5.05 0-7.38-3.79-9.74-8.33zm-55.11 44.8c-2.49-.11-5.94-.28-7.22-1.83-2.52-3.05-3.83-7.05-5.84-11l9.95-5c1.92 5 3.91 9.66 5.4 14.47.27.86-1.56 3.39-2.29 3.36zm4.42-17.19c-.07.69-.19 1.38-.3 2.19-2.28-2.34-4.09-5.73-6.65-6.38s-5.86 1.4-8.83 2.31c-7.87 2.41-3.33 8.52-4.43 14.14-1.53-2-2.73-3.27-3.64-4.73-8.28-13.28-16.72-26.46-24.66-39.92-4.47-7.57-8.91-15.34-11.91-23.52-5.78-15.72 1.93-32.23 20.47-32.55 5.23-.08 8.63 1.75 10 7.15 2.54 10.24 4.84 20.61 8.53 30.47 3.28 8.81 8.2 17 12.58 25.45 4.15 8.07 9.93 15.59 8.84 25.39zm12.72-14.81c-.18-.31-.37-.62-.52-.94-5.65-12.1-5.8-9.14 6.08-14.75 1 2.82 1.85 5.63 3 8.34s2.37 5.13 3.78 8.12c-5.48 6.56-8.32 6.38-12.34-.77zm9.46-72a22.18 22.18 0 0 0 -8.95 17.67c-.17 8.46 2.51 16.15 7.16 23.24a8.12 8.12 0 0 0 1.64 2.14c7.87 6 6.53 14 5.15 22.09-7.53-13.52-8.73-14.13-18.61-9.57-5.71 2.64-5.86 5.17-1 16.59l-1.22.86c-4.66-6.26-10.12-12.11-13.78-18.87a167.76 167.76 0 0 1 -10.94-26.06c-3.84-11.32-6.85-22.91-10.13-34.4-2.89-10.09 7-27.11 17.88-31s24.77 2 29.29 13.65c2.6 6.71 3.09 14.2 4.42 21.35a2.85 2.85 0 0 1 -.91 2.28zm14.83 28c-2.67-1.25-7-2.7-10.65-5.11-5.27-3.47-3.16-14.71 3.56-17.58 3.24-1.39 7.44-1.54 11-1 3.87.53 7.55 2.46 10.05 3.34zm28.3-23.26 4.36-20.72-1.83-.6c-.75.79-1.81 1.46-2.2 2.4a36.64 36.64 0 0 0 -1.66 5.65c-3.61 15-1.09 13.13-16.33 9-3.35-.91-6.62-2.26-10-2.76-3.21-.47-6.55-.1-10.53-.1a52.4 52.4 0 0 1 -.6-5.28c-.14-8.57-2-16.62-7-23.83a6 6 0 0 1 -1.06-3.46c.58-13.43 15-22.13 27.85-17.77 10.95 3.71 16.23 11.71 20 21.29a81.59 81.59 0 0 1 4.29 13.8c1.44 7.3 2.24 14.71 3.44 22.93z"/></g><path d="m290.83 503.16c-.44-7.68-.7-15.37-1.33-23-2.72-32.93-6.29-65.83-8.05-98.8-1.21-22.76-.08-45.64.23-68.46.24-18.26 4-36.05 8.94-53.64.33-1.16.62-2.33 1.2-4.52-3.8 1.08-6.77 2.1-9.83 2.72-1.27.25-2.74-.34-4.12-.55.47-1.4.52-3.17 1.49-4.11a10.26 10.26 0 0 1 4.95-2.57c18.52-3.38 30.09-15.34 41.31-28.21a340.05 340.05 0 0 1 28.58-29.39c8.51-7.68 12.41-16.44 12.66-27.19.37-16 .4-32 1.68-47.93 1-12.71-5.68-21.29-14-29.91-6.91-7.14-15-10-25-9.65-5 .15-10-.34-14.93-.58-7.48-.34-12.33 4-15.79 9.12-2.42 3.59-3.28 8.26-4.15 12.56-.66 3.24-1.92 4.06-5 2.75l-19.05-8.14c.34 8.06 10.75 20 20.58 23.4 11.95 4.17 23.79 2 35.69-.23 2-.37 4.33.47 6.5.75-1.56 1.58-2.82 4-4.73 4.57-6.5 1.94-13.22 3.24-20.84 5 1.24 3.55 2.18 7.33 3.87 10.79 2.54 5.21 5.69 10.16 8.39 15.3.66 1.26.58 2.85.84 4.29-1.82-.46-4.36-.38-5.32-1.49-2.27-2.61-3.81-5.78-5.6-8.74-1.21-2-2.35-4-4.05-7-3.27 7.6.3 13.82 1 20.29-10.35-6.33-7.56-15.82-6.86-23.84l-17.08-4.91c-.53 5.68-1.8 12.13-8.43 16.16-7 4.22-13.55 1.77-20.82-1.36 0 5.56.26 10.55-.05 15.52-.91 14.89-11.65 19.8-25.39 11.72-.77-.46-1.59-.86-2.54-1.37.17 3.35.53 6.38.43 9.4-.28 8.56-8.13 14.24-17 12.12a27.87 27.87 0 0 1 -8.82-3.75c-17.39-11.58-32.39-25.21-42.98-42.86-1.27-2.12-4.95-3-7.45-4.38l8.58-7.94c6.07 20.5 21.58 34.14 39.77 47.65-3.54-11.14 6.47-11.79 11.7-14.3 5-2.41 5.09 6.26 10.23 7.75-2.59-11.49-6.39-22-13-32-9-13.53-17.32-27.48-25-41.68-2.81-5.17-3.07-11.55-4.64-18-5.1 1-8.92 4.55-12.61 8.45-18.56 19.65-22.55 43-17.92 67.68 3.77 20.11 9.66 39.86 14.08 59.87 3.72 16.82 6.85 33.76 9.86 50.7a43 43 0 0 1 .08 13.44c-3.89 27.43-.88 54.93-1.15 82.39-.22 23.35-.62 46.7-.9 70.05q-.33 28.56-.54 57.14c0 3 .13 5.92.2 8.88h-3.45c-.71-15.18-2-30.37-2-45.55.12-23.17 1.63-46.33 1.76-69.51.13-23.53-.88-47.06-1-70.6a237 237 0 0 1 1.45-27.42c1.65-15 .61-29.64-4.54-44.1-2.41-6.75-3-14-4.68-21-2.82-12.09-5.67-24.17-8.72-36.21-5.16-20.4-8.58-40.93-5.13-61.92 2.61-16.11 11.31-29.68 23.8-40.26 7.41-6.28 15.88-11.23 22.19-19 4.87-6 11.72-6.77 25.08-6.44.41-12.15 3.46-23.57 14.37-31.35 11.44-8.15 23.38-8 35 .28 2.81-4.58 5.07-8.89 7.93-12.83 6-8.22 15.66-10.55 25.87-7.73 14.28 4 22.06 13.45 25.75 26 3.48 11.85 5.67 24 8.58 36.7a5.35 5.35 0 0 0 2.53.12c6.18-1.58 11.46.53 16 3.87 15.18 11.1 27 23.65 24.77 43.84-1.58 14.44-1.59 29.07-1.65 43.61-.06 13.69-4.82 24.65-15.65 34.4-11.82 10.66-21.52 23.35-32.77 34.61-6.34 6.35-14.09 11.45-20.85 17.46-2.88 2.57-6 5.73-7 9.14-7.4 23.61-9.67 47.82-9.79 72.41-.22 42.8.7 85.5 5.95 128.06 1.78 14.43 2.74 28.95 4.07 43.42zm-14.1-370.69c1.43-8.16 2.83-16.18-5.38-22.2a8.19 8.19 0 0 1 -1.71-2.15c-4.85-7.13-7.64-14.87-7.47-23.37.14-7.23 3.32-13.14 9.34-17.74a2.78 2.78 0 0 0 .95-2.31c-1.38-7.19-1.9-14.72-4.62-21.46-4.7-11.7-19.11-17.62-30.55-13.72s-21.66 21-18.65 31.12c3.43 11.56 6.56 23.21 10.57 34.58a165.37 165.37 0 0 0 11.41 26.2c3.82 6.8 9.51 12.69 14.37 19l1.28-.86c-5.08-11.48-4.92-14 1-16.67 10.35-4.63 11.6-4.01 19.46 9.58zm-49.44 34.16c1.14-5.65-3.59-11.79 4.63-14.21 3.09-.91 6.54-3 9.21-2.33s4.55 4.07 6.93 6.42c.12-.82.24-1.51.32-2.2 1.13-9.85-4.88-17.41-9.27-25.52-4.57-8.45-9.7-16.74-13.13-25.59-3.84-9.91-6.24-20.34-8.89-30.63-1.39-5.43-4.93-7.27-10.39-7.19-19.34.29-27.38 16.92-21.35 32.72 3.13 8.22 7.76 16 12.42 23.65 8.28 13.53 17.09 26.78 25.72 40.12.95 1.48 2.21 2.78 3.8 4.76zm98.26-94.24c-1.25-8.27-2.09-15.72-3.59-23a79.58 79.58 0 0 0 -4.47-13.88c-3.93-9.63-9.44-17.67-20.86-21.39-13.45-4.39-28.44 4.35-29.05 17.85a5.93 5.93 0 0 0 1.11 3.49c5.27 7.24 7.19 15.34 7.34 23.94a50 50 0 0 0 .62 5.32c4.15 0 7.64-.38 11 .1 3.55.5 7 1.86 10.46 2.77 15.89 4.12 13.27 6 17-9.08a36.06 36.06 0 0 1 1.74-5.67c.41-.95 1.5-1.63 2.29-2.42l1.91.6c-1.48 6.79-3 13.58-4.55 20.83zm-24 2.28c-2.61-.88-6.44-2.82-10.48-3.36-3.75-.49-8.12-.34-11.51 1.06-7 2.88-9.21 14.18-3.71 17.67 3.81 2.42 8.32 3.88 11.11 5.13zm-27.1 65.53c-1.47-3-2.84-5.54-3.94-8.16s-2.06-5.56-3.09-8.4c-12.39 5.65-12.24 2.67-6.35 14.84.16.32.36.62.55.94 4.22 7.19 7.18 7.37 12.85.78zm-44.33 18.46c2.09 4 3.46 8 6.09 11.09 1.34 1.56 4.93 1.73 7.54 1.84.79 0 2.67-2.52 2.38-3.41-1.55-4.84-3.63-9.52-5.64-14.54zm-28.05 20.34c2.91 3.25 4.91 6.49 7.88 8.44 1.74 1.13 5.08.44 7.55-.07.41-.08.69-3.73-.09-5.23-1.54-3-3.86-5.58-5.92-8.41zm81.83-56.84c2.46 4.56 4.89 8.37 10.16 8.38 2.54 0 5.09-1.57 7.64-2.42l-.45-1.54z" fill="#001400"/></g><g fill="#fff8ff"><path d="m253.39 156.5h18.01v18.01h-18.01z" transform="matrix(.99254615 .12186934 -.12186934 .99254615 14.47 -38.45)"/><path d="m287.77 102.05h12.95v8.47h-12.95z" transform="matrix(.95271453 -.30386679 .30386679 .95271453 -26.05 86.77)"/></g></svg>