<svg viewBox="0 0 496.22 496.18" xmlns="http://www.w3.org/2000/svg"><path d="m0 0h496.18v496.18h-496.18z" fill="none"/><g transform="translate(-7.43 -7.02)"><g fill="#fff8ff"><path d="m7.81 199.45c3.35-.66 5.85-1.5 8.37-1.58 20.5-.66 41-1.18 61.94-1.75-.1-4.6 1.5-9.33-3.34-11.81-.77-.39-1.6-3.25-1.39-3.46 1.09-1.14 2.48-2.4 3.83-2.52 8.12-.72 16.26-1.42 24.39-1.61 26.12-.59 52.25-.95 78.38-1.42 1.85 0 3.69-.21 6.68-.38-2.26-3.72-4.22-6.46-5.69-9.55-1.11-2.32-2.78-6-2.07-7.47a8.3 8.3 0 0 1 6.15-4.15c11.16-.68 22.35-.81 33.53-1.07 3.89-.09 7.78 0 12.43 0 0-2.81-.06-5.24 0-7.66.23-7.41 1.35-8.93 7.19-9.18 4.2-.18 8.41 0 12.72 0v-21.1c-.63-.29-1-.65-1.22-.53-8.09 4.79-10.83 2.59-10-8.56.14-1.86 2.18-3.75 3.65-5.13 2.41-2.25 5.07-4.08 7.61-6.1 1-.82 2-1.67 3.08-2.51.49 1.48 1.39 3 1.4 4.43.09 11.77 0 23.54 0 35.32v4.26h9.48c11.92.17 13.14 1.44 15.37 16.64h11.91c9.5 0 19 0 28.51.17a17.4 17.4 0 0 1 5.5 1c2.78 1 3.66 2.88 1.4 5.89-3 4-6.09 7.93-8.84 12.18-1.57 2.44-2.54 5.47-3.78 8.24l.92 1.78c9.08-.64 18.16-1.59 27.25-1.86q42.46-1.26 84.94-2c1.86 0 3.75 1.37 5.62 2.11-.64 2.22-1.31 4.44-1.92 6.67-1 3.62-1.94 7.25-3.22 12 10.23.58 19.29 1.32 28.35 1.53 12.73.3 25.46.19 38.19.26 1.18 0 2.48-.26 3.53.23a7 7 0 0 1 3.46 3c.31.68-.87 3-1.8 3.91-3.88 3.73-8.15 6.88-11.8 10.9a14.13 14.13 0 0 0 -3.51 8c-1.8 51.54-.12 103 3.1 154.39.51 8.15.25 16.4-.05 24.58a6.72 6.72 0 0 1 -3 4.7 15.25 15.25 0 0 1 -6.91 1.41c-36.48.23-73 0-109.43.67-13.89.24-27.74 3-41.64 3.36-24.58.7-49.19.83-73.78.55-49.88-.58-99.75-1.81-149.63-2.29-16.61-.16-33.23 1.32-49.85 1.75-8.8.23-17.61 0-26.38-.55-1.17-.08-3.13-3.57-3.13-5.48-.06-17.66.3-35.33.42-53q.4-63.72.62-127.46a12.13 12.13 0 0 0 -2.34-6.38c-3.69-5.2-7.8-9.94-11.51-15.12-1.35-1.91-2.07-4.58-3.69-8.25zm238.63 84.24c-1.36-1.38-3.84-2.68-3.9-4.14a223.75 223.75 0 0 1 .16-23.31c.08-1.53 2.58-4.05 3.94-4 4.88.1 9.74 1.23 14.63 1.73 3.86.39 5.26 2.89 5.15 7.49-.15 6.09.24 12.22-.16 18.28-.23 3.63-1.51 7.16-2.32 10.74-.12 3.65.73 7.8 1.25 12 .13 1.08-.81 2.36-1.25 3.55-.85-.85-2.07-1.49-2.44-2.59-.58-1.68-.35-3.76-.87-5.49-.42-1.37-1.25-3.1-2.23-3.56-9.79-4.53-15.3.67-14.06 13.1 0 .35.4.64.85 1.31l4.86-.4a58.68 58.68 0 0 1 .49-7.9c.3-1.54 1.49-2.8 2.28-4.19.72 1.48 1.83 2.88 2.06 4.47.36 2.36.09 4.87.09 7.89h20.72c1.68-13.28 1.68-13.28 13.22-14.6l.51-.07c6.92-1 8.65.54 9.64 9.11.49 4.28.51 8.64.72 12.44l11.73 5c0-8.44.07-16.36 0-24.28-.33-33.16-4-66.26-1-99.48a58.24 58.24 0 0 0 -.07-13.2c-.37-2.64-2.15-6.71-3.71-7-4.69-.93-9.58-.34-14.22-.34 2.67 8.25 4.61 16.94 2.32 24.61s-9.27 3.47-14.22 4.28c-3 .5-4.28-.8-4-5 .59-7.84.69-15.74 1-23.8h-13.7c.59 8.9 1.29 17.4 1.54 25.92 0 1-2.28 2.95-3.64 3.17-4 .66-8.12.61-12.18 1-4.25.37-5.73-2.25-5.64-7.22.13-7.51 0-15 0-22.8h-17c0 4 .7 7.84-.18 11-1.2 4.32 4 10.14-1.4 12.66-3.47 1.62-7.67.88-11.54 1.16a6.17 6.17 0 0 1 -1.5-.31c-3.5-.68-5.45-2.88-5.31-7.61.15-5.18 0-10.36 0-15.74h-11.06v138.19c10.16 3 13.61-.17 13.76-12.71 0-2.1-.41-4.52.27-6.23.85-2.14 2.51-5 4.06-5.26a83.12 83.12 0 0 1 14.72-.44c3.45.09 5.2 2.66 5.25 6.93v10.81l6.09-.47c0-4.37-.34-8 .11-11.49.32-2.43 1.38-6.18 2.73-6.65 3.28-1.15 2.78-4.09 3.28-6.72 2.93-.09 4.13-1.58 3.82-5.52a67.79 67.79 0 0 1 .3-11.91c.18-1.8 1.28-3.46 2-5.19l1.7.53v23c3.23-1.18 7.19-1.72 7.29-2.81.66-7 1.08-14.32.08-21.18-.22-1.49-6.55-1.64-10.08-2.33-1.58-.3-3.18-.39-4.94-.6zm-92-41.95v-18.29c-4.34-.91-6.46.37-6.18 6.06.15 3.11-.7 6.29-1.1 9.45l-2.32-.15c-.36-4.87-.72-9.73-1.2-16.19-4.2 3.81-2.81 8.2-3.11 11.87s-.59 7.58-.89 11.37l-2.46-.13c-.34-8.34-.68-16.69-1-25h-11.73c.59 5.06 1 9.65 1.69 14.18 2.21 15 1.4 16.15-10.8 14.73-10.43-1.21-10.43-1.21-9.82-14.25.68-14.52.68-14.53-11.2-13.79-.3 0-.58.36-1.6 1 .57 5.82 1.38 12 1.69 18.19.12 2.47-.55 7-1.4 7.21-4 1-8.39 1.89-12.18.64a9 9 0 0 1 -6.6-9.54c.22-5.77 0-11.56 0-17.16h-9.58c-.39 4-.74 7.54-1.09 11.07-1.3 13.41-1.3 13.41-11.62 16.83-7.22 2.4-9.27.64-9.59-8.73-.2-6 0-12 0-17.92-12.45-2.16-12.59-1.87-12.68 12.66q-.41 72.24-1 144.49a32.73 32.73 0 0 0 .4 3.87l153.34 2.12c-.14-3.89-.23-6.49-.33-9.27-1.51-.12-2.5-.27-3.49-.26-7 .09-8.13-1.18-8.51-10-.18-4-.37-8-.33-12 .13-11.93 3-15.69 12.63-16.56v-16.67c-4.72 2.69-5.26-.68-5.22-4.81a84.84 84.84 0 0 1 .18-9.45c.26-2.13 1.33-4.1 2-6.14l2.3.33c.41 5.31.82 10.61 1.22 15.86l8-2.65v-32.9c-4.61 0-8.69.41-12.66-.17-2.06-.31-3.94-2.37-5.9-3.64 2-.82 3.92-1.65 5.89-2.45.46-.19.94-.29 1.85-.55-.45-5.14-.9-10.23-1.38-15.76-7.8 1.54-1.55 11.8-6.4 14.67-2.42-4-3-14.43-1-17.61.4-.62 1-1.43 1.56-1.43 6.05 0 12.16-4 18.1.76v-7.75c-3.4.9-6.35 2-9.37 2.41-9.14 1.23-10.22 0-10.67-11.38-.09-2.31-.22-4.62-.27-6.94-.26-13.18-.25-13.18-11.19-11.78-.15 0-.28.19-.88.6.34 6.59.94 13.46.92 20.32 0 2.21-1.49 6.11-2.62 6.3-3.94.69-8 .29-12-.18-.85-.1-1.55-2.24-2.33-3.44 1.12-.69 2.2-1.84 3.35-2 2.82-.24 5.66-.05 8.6-.05zm291.56 139.11c0-5.51-.51-9.41.11-13a153.55 153.55 0 0 1 5-22.17c1-2.87 4.52-6.17 6.81-6.09s4.35 4.24 6.4 6.76a7.42 7.42 0 0 1 1 2.88c2 9.46 4 18.92 6.11 28.74l11.21.81c0-2.18.06-4.26 0-6.32-1-26.46-2.4-52.91-2.91-79.38-.42-21.43.28-42.89.35-64.34 0-8.62-1.24-9.62-8.89-7.53.43 6.94.74 14 1.32 21.06.44 5.42-1.27 8.51-5.65 9.14a88.73 88.73 0 0 1 -10.6 1.24c-8 .18-8.62-.87-9.21-10.95-.32-5.42-.93-10.83-1.76-16.16-.2-1.34-1.75-2.37-2.68-3.54-1 1.36-2.7 2.66-2.77 4.08-.3 6.67-.27 13.38-.13 20.07.11 5.53-1.75 8.21-6.3 8.19-4.24 0-8.48.35-12.72.43-3.35.07-5.23-1.32-5.33-6.24-.17-8.5-1-17-1.55-25.34h-8.73c0 6.74-.13 13 0 19.26.14 5-1.66 8.22-5.53 9a22.84 22.84 0 0 1 -9.05.31c-7.25-1.48-8.24-3.2-8.78-12.42-.26-4.4-.41-8.83-1-13.17-.82-6.4-5.08-3.2-7.81-3.55-.79-.11-2.72 3.24-2.66 4.93.21 5.86 1.47 11.68 1.49 17.52 0 2.84-1.57 7.89-2.89 8.14a31.26 31.26 0 0 1 -14.43-.29c-3.82-1.14-5.92-5.38-5.45-11.22.49-6.17.11-12.45.11-19.2l-8.43.61c.29 7.28.61 13.94.81 20.61.12 4.2-.86 8-4.84 7.91a85 85 0 0 1 -14.1-1.6 4.9 4.9 0 0 1 -3.16-3.28c-.82-6.66-1.1-13.42-1.76-20.11a27.9 27.9 0 0 0 -1.57-5.27l-1.88.54c.88 32.83 1.77 65.65 2.66 98.65l6.76-6.07c.58-2.24 1.37-5.27 2.15-8.3l1.8.52c3 8.37-.55 17.1 0 25.54 7 .75 7.21.6 7.08-7.08-.09-5.46-.76-10.91-.75-16.37 0-6-2.4-8.13-6.85-8.35-2.86-.14-5.71-.77-9.93-1.38 4.83-6.34 9.28-3.94 13.35-3.43 4.62.59 7.36 3.68 7.64 9.82.35 7.55.9 15.09 1.44 22.63.45 6.11-.6 10.86-6.31 11.24 8.19 13.48 5.62 27.92 3.62 41.75h15c-.67-8.84-1.88-16.91-1.64-24.92a25.66 25.66 0 0 1 4.36-12.8c4.09-5.92 10.63-4 13.13 3.17a30.73 30.73 0 0 1 1.56 6.64c1 9.09 1.93 18.21 2.92 27.85h9.27c-.32-2.34-.91-4.42-.82-6.44.61-13.83-3.86-29.89 11-38-1.86-.7-3.36-1.89-4.7-1.67-5.59.95-6-3.47-6-8.4 0-8 0-16-.07-24 0-4.87 1.72-7.55 5.72-7.7 4.73-.18 9.48-.17 14.21-.48 4-.25 4.81 2.24 4.81 6.62 0 7.32.19 14.69.83 22 .71 8.07-.23 9.82-6.86 11.33-2.05.47-3.95 2-7.35 3.77 7.45 4.38 10.16 10.74 11.18 18.32.55 4.14.44 8.42 1.07 12.53 1 6.76-.22 11.47-4.63 12zm-127.39-51.39c-5.73-2-10.26-3.63-14.8-5.19a11.55 11.55 0 0 0 -3-.67c-9.83-.77-19.65-2-29.48-2.08-11.15-.11-22.32.43-33.44 1.42-4.58.41-7.9.71-6.81-7.34-15 1.42-28.18 12.38-43.72 6.07v58.56c0 3.71 1.61 3.92 3.94 3.82 9.15-.41 18.31-.48 27.46-1 5.18-.3 10.34-1.27 15.48-1.94 0-7.15-.56-13.51.14-19.66 1-8.65 2.12-17.49 4.58-25.61 2.58-8.51 9.22-12.06 16.16-10.83 7.41 1.31 12.71 6.86 13.67 16 1.1 10.34 1.59 20.83 1.74 31.27.07 5.29 1.44 7.22 5.58 6.95 4.9-.33 9.82-.22 14.73-.43 9.23-.4 18.47-.89 27.79-1.35zm-131.09 78.48 133.15 2.92c-.41-9.25-.75-16.89-1.1-24.69-9.28 0-18.06-.42-26.8.16-4.93.33-9.84-.11-14.79 3.6-3.41 2.55-8.93 1-13.5.87-11.82-.32-23.64-1.32-35.46-1.19-9.81.12-19.6 1.43-29.4 2.28-10.95.95-10.95.98-12.1 16.05zm137.78-.82 158.4-3.34c-.15-3.94-.32-8.43-.46-12.18l-157.94 3zm-141.13-.46-1.6-8.07c-1.63-.09-3-.21-4.31-.23-34.09-.51-68.18-1.29-102.27-1.38-15.67 0-31.36 1.28-47.11 2v10.47zm306.83-197.92-.44-3.33c-18.12 0-36.26.43-54.37-.09-35.59-1-71.17-3-106.74.46-4.06.4-8.15.38-12.17 1-1.05.17-1.91 2.14-2.86 3.29 1 .66 2 1.73 3.1 1.91a33.66 33.66 0 0 0 5.59 0q80.12-.1 160.25-.34c2.64.02 5.13-1.88 7.64-2.9zm-472.73-4.74-.52 1.77c1.62 1.14 3.22 3.2 4.87 3.26 13.89.54 27.79 1 41.68.92 36.81-.24 73.61-.79 110.42-1.19 5.52-.06 11.05 0 16.7 0v-9.76zm297.43-5.35h108.47v-12l-108.47 3.91zm5.4-40.38c-4.88 0-8.42-.16-12 .1-1.11.08-2.92 1.06-3.13 2.05-1 4.94-4.15 5.27-7.2 5.22q-49.8-.69-99.6-1.69c-1.74 0-4.26-.64-5-2.11-2.7-5.06-5.58-2.3-8.78-1.64 3 7.42 6.72 11.74 13.58 10.95a182.66 182.66 0 0 1 21.3-1c28 0 55.93-.15 83.87.63 7.86.22 12.18-4.05 16.96-12.53zm-129.52 34c.73-4.1-.87-5.28-4.43-5.26-32.54.18-65.08.31-97.62.07-5.1 0-7.15 1.93-6.66 8.57zm61 156.49c.43 10.49.84 20.38 1.26 30.58l11.32-1.51v-30zm-3.58 29.76c-.46-10.12-.89-19.63-1.33-29.38-3.49-.05-7.15-1.31-7.36 4.37-.31 8.48-.08 17-.08 25.72zm143.41-4.41c6.42 1 7.87.5 7.66-3.59a147 147 0 0 0 -2.1-19.16c-.75-4.08-3.05-7.24-7.41-7.32.68 10.3 1.29 20.24 1.89 30.07zm-39.11-151.45c0 7.54-.07 14.45.09 21.35 0 1 1.16 2 1.79 3 .62-1.17 1.77-2.33 1.77-3.51 0-4.61-.45-9.23-.42-13.84 0-1.93.82-3.84 1.26-5.76l2.39.14 1.48 24 5.2-.38c-.61-8.66-1.18-16.71-1.76-25zm-123.9 85.86c0-3.47.28-6.25-.11-8.89-.2-1.39-1.42-3.41-2.42-3.65-11-2.63-13.62.25-13 14.11a13.41 13.41 0 0 0 .31 1.74c7.22 1.69 4.52-7.24 7.64-11.72 1 3.48 1.7 5.84 2.45 8.41zm238.1-64.13c-.33-7.32-.62-13.7-.93-20.45h-8.49c.4 7.16.79 14.1 1.22 21.79zm-204.05 96.61c-1.67-7.34-5.67-10.73-11.34-10.2-5.28.5-8.27 4.21-9.17 11.37zm-75.63-116.2h-12.53c0 5.69-.25 10.75.17 15.71.11 1.39 2.07 3.26 3.42 3.62 2.22.61 4.63.17 7.48.17.5-6.69.96-12.86 1.46-19.46zm172.18 119.88-.85 1.41c.84 9.71 1.58 19.44 2.61 29.12.14 1.26 1.72 2.29 2.63 3.42.78-1.27 2.32-2.63 2.23-3.81-.61-8.5-1.34-17-2.56-25.41-.28-1.82-2.67-3.16-4.06-4.73zm-29.92-.44-2.34 1c0 9.06-.08 18.13.12 27.19 0 1 1.81 3 2.53 2.8 1.08-.24 2.73-1.94 2.76-3.08.19-7.45.21-14.92-.19-22.35-.12-1.92-1.9-3.71-2.9-5.56zm-39.73-29.5c3.19 1.47 5.13.9 4.81-3.85a66.72 66.72 0 0 0 -.83-9.34 4.44 4.44 0 0 0 -3-3 22.21 22.21 0 0 0 -8.07.62 5.46 5.46 0 0 0 -3 3.76 20.54 20.54 0 0 0 .54 8c.47 1.67 2.21 2.8 3.67 4.52.81-6.49 1.39-11.15 2-15.82 5.53 4.2 2.9 9.83 3.86 15.11zm-178.14-90.25-2-.18-1 18.74 13.1 1.1c-.21-16-1.75-21-6.32-19.83v18.18c-5.15-6.01-1.99-12.77-3.78-18.01zm124.3-78.13v5.76h37.42a17.36 17.36 0 0 0 -.36-2.86c-12.21-1.03-24.42-1.95-37.06-2.9zm157.63 153.92c.37 8.37.55 15.93 1.16 23.43a4.79 4.79 0 0 0 3.06 3.33c.78.18 2.74-2 2.73-3.06-.07-7.88-.5-15.76-.82-23.7zm-1.31-54.8c3-.24 6.6 1.92 7-3.63.41-6.16.09-12.39.09-18.75h-7.07zm-139.46-60.18 2.52.2c.18 3.72.26 7.45.58 11.15.09 1 .9 1.87 1.37 2.8.61-.8 1.72-1.57 1.75-2.4.16-5.17.08-10.35.08-15.77h-11.36c0 5.16-.15 9.95.09 14.71.08 1.45 1.25 2.82 1.92 4.23a18.5 18.5 0 0 0 1.76-4.17c.59-3.54.92-7.16 1.29-10.75zm76.22 38c.32 6.44.4 12.27 1.05 18 .18 1.6 1.94 3.18 3.26 4.19.37.28 2.58-1.53 2.58-2.38 0-6.58-.38-13.16-.64-19.81zm55.81 105 2.28 1.46c1.12-1.42 3.21-2.87 3.19-4.28-.07-7.1-.59-14.2-1.21-21.27-.1-1.16-1.48-2.15-2.27-3.21-.66 1.17-1.88 2.33-1.91 3.53-.17 7.93-.08 15.86-.08 23.78zm48.14-81.55c.3-7.11.61-14.26.91-21.34-4.75-1.5-6.12 1.16-6.06 6.16a69.76 69.76 0 0 1 -.5 9.38c-.73 5.67 1.16 7.28 5.65 5.81zm23.78 97.64c.75 5.39 1.37 9.5 1.87 13.64.59 4.95.94 10 1.72 14.87.17 1.12 1.68 1.91 2.57 2.85.49-1.25 1.56-2.65 1.38-3.73-1.28-7.74-2.69-15.45-4.36-23.08-.35-1.6-1.91-2.8-3.18-4.54zm-397.55-120.15-6.23-.81c-.34 6.87-.64 13.11-.94 19.38 5.98.19 4.9 1.19 7.17-18.57zm358.79-.07c.34 7.34.52 13.76 1 20.15.09 1 1.7 1.79 2.61 2.68.66-1.17 1.86-2.31 1.9-3.5.2-6 .09-12 .09-18.45zm35.56 128.2-1.67-.1c-.79 9.05-1.59 18.09-2.45 27.92 2.52-2.69 4.31-4.58 6-6.39-.62-7.17-1.25-14.3-1.88-21.43zm-231-158c-.26-5.12-.34-10.09-.87-15-.13-1.22-1.72-2.2-2.64-3.29-.7 1.14-1.91 2.22-2 3.44-.3 3.5 0 7.07-.18 10.6-.21 4.69 1.49 5.95 5.67 4.25zm-137.68 47.7 1.33 1.81c1-1.19 3-2.41 3-3.59a142.34 142.34 0 0 0 -1.2-14.87c-.1-.86-1.17-1.54-1.78-2.3-.43.92-1.22 1.83-1.24 2.77-.17 5.39-.11 10.79-.11 16.18zm367.39-20.25c-1.35 1.47-3 2.59-2.94 3.31.94 6.67 2.18 13.28 3.43 19.87 0 .17 1.14 0 2 0-.79-7.33-1.53-14.3-2.49-23.18zm-371 2.59-1.88-.27c-3 5.8-.91 12.72-2 19.54l3.85-.56zm100.64 32.59c1 7.48 1.69 12.9 2.42 18.5 3.18-2.06 4-8.43 2-14.87-.43-1.35-2.3-1.98-4.42-3.63zm143-13.78c1.37-9.87.52-18-2.05-19.61-2.35 9.94-1.42 18.77 2.02 19.59zm-40.9-60.55-.9-1.16c-.67.94-1.77 1.77-1.92 2.82a76.7 76.7 0 0 0 -.81 10.49c0 1.2 1 2.4 1.62 3.6.67-1.13 1.85-2.22 1.92-3.41.21-4.11.06-8.24.06-12.36zm-102.66 162.33h-1.27v25.59h1.27zm62.16-233.61 6.62-2.43v-7.22l-6.62 3.14zm140.93 111.97c.78 6.67 1.55 13.24 2.33 19.81l1.26-.23c.96-10.94-.41-19.32-3.59-19.58zm-337.59 21 1.52-.12v-20.87h-1.52zm338.15 130.94 1.16-.05v-22.25h-1.16zm-29.94-1 2-.37q-.75-10.15-1.51-20.31l-1.88.27q.71 10.23 1.39 20.44zm-142.62-197.78-.76.13v17.35l.76-.1zm-37 173-2 .15q.56 9.92 1.13 19.84h.83z"/><path d="m154.46 241.74c-2.94 0-5.78-.19-8.58.09-1.15.12-2.23 1.27-3.35 2 .78 1.2 1.48 3.34 2.33 3.44 4 .47 8.11.87 12 .18 1.13-.19 2.61-4.09 2.62-6.3 0-6.86-.58-13.73-.92-20.32.6-.41.73-.58.88-.6 10.94-1.4 10.93-1.4 11.19 11.78 0 2.32.18 4.63.27 6.94.45 11.36 1.53 12.61 10.67 11.38 3-.41 6-1.51 9.37-2.41v7.75c-5.94-4.79-12.05-.72-18.1-.76-.52 0-1.16.81-1.56 1.43-2 3.18-1.43 13.66 1 17.61 4.85-2.87-1.4-13.13 6.4-14.67.48 5.53.93 10.62 1.38 15.76-.91.26-1.39.36-1.85.55-2 .8-3.93 1.63-5.89 2.45 2 1.27 3.84 3.33 5.9 3.64 4 .58 8.05.17 12.66.17v32.9l-8 2.65c-.4-5.25-.81-10.55-1.22-15.86l-2.3-.33c-.7 2-1.77 4-2 6.14a84.84 84.84 0 0 0 -.18 9.45c0 4.13.5 7.5 5.22 4.81v16.74c-9.65.87-12.5 4.63-12.63 16.56 0 4 .15 8 .33 12 .38 8.83 1.5 10.1 8.51 10 1 0 2 .14 3.49.26.1 2.78.19 5.38.33 9.27l-153.37-2.17a32.73 32.73 0 0 1 -.4-3.87q.48-72.24 1-144.49c.09-14.53.23-14.82 12.68-12.66 0 5.9-.17 11.92 0 17.92.32 9.37 2.37 11.13 9.59 8.73 10.32-3.42 10.32-3.42 11.62-16.83.35-3.53.7-7.06 1.09-11.07h9.62c0 5.6.18 11.39 0 17.16a9 9 0 0 0 6.6 9.54c3.76 1.3 8.14.3 12.14-.64.85-.21 1.52-4.74 1.4-7.21-.31-6.2-1.12-12.37-1.69-18.19 1-.68 1.3-1 1.6-1 11.88-.74 11.88-.73 11.2 13.79-.61 13-.61 13 9.82 14.25 12.2 1.42 13 .27 10.8-14.73-.67-4.53-1.1-9.12-1.69-14.18h11.74c.33 8.29.67 16.64 1 25l2.46.13c.3-3.79.58-7.59.89-11.37s-1.09-8.06 3.11-11.87c.48 6.46.84 11.32 1.2 16.19l2.32.15c.4-3.16 1.25-6.34 1.1-9.45-.28-5.69 1.84-7 6.18-6.06zm1.85 51.26c.66-1.46 1.85-2.9 1.87-4.36.08-4.8-.24-9.61-.47-14.42-.25-5.24 1-12.54-1.26-15.15-2.53-2.93-8.26-1.61-12.59-2.13a8.7 8.7 0 0 0 -1 0c-3.39 0-5.41 1.29-5.13 6.29.27 4.8-.13 9.65-.23 14.48-.27 13-.26 13 10.25 15.21.11 0 .14.61.3 1.31-2.25 0-4.43-.16-6.59 0-3.32.29-5.49 2.5-5.5 6.76a140.31 140.31 0 0 0 .67 15.08c.18 1.68 1.7 4.46 2.64 4.49a131.93 131.93 0 0 0 17-.74 5.47 5.47 0 0 0 3.57-2.92c2.21-4.65-.25-20.23-3.53-23.9zm-82.11-8.86h2.35c.23-2.06.61-4.11.67-6.17.13-4.41 0-8.82.12-13.23.07-3.91 2.34-4.41 4.62-3.88s6.52 1.57 6.63 2.82c.64 7.19.31 14.51.31 22.34-5.22-.88-3.18-5.67-3.66-8.7-.56-3.54-.79-7.17-1.16-10.76l-2.11.2v17.15c-3.4.95-6.21 2.27-2.47 7.6-5.71-1.33-6.86 2-6.76 7s.11 9.68 0 14.51c-.09 3.83 1.33 6.12 4.27 6.47 3.34.39 6.72.22 10.09.33 6.37.23 8-1.49 7.58-9.4-.35-6.63-1.72-13.2-1.92-19.83-.23-8.11.43-16.24.45-24.36 0-7.78-1.85-9.88-8.3-10.21-10.51-.55-10.79-.57-11.22 8.8-.32 6.4.31 12.87.51 19.32zm52.88 83.34c-1.4-7.25-2.57-14.6-4.29-21.73-1.18-4.89-4.13-9.4-8.35-8.33-3.13.79-6.46 4.35-8.36 7.8-4.25 7.73-3.23 16.9-2.85 25.68.46 10.55 2.45 12.72 10.9 12.43 12.24-.41 12.24-.41 12.95-15.85zm8.14-6.51 1.15.38c0 2.94.1 5.88 0 8.8-.23 5.67 2.15 10.19 6.14 10.78 4.57.67 9.41-1.07 14.09-2.06.55-.12 1.3-2.18 1.19-3.21-1.15-10.7-1.61-21.68-4-32-2.14-9.29-10.35-10.07-14.15-1.53-2.49 5.61-3.02 12.52-4.42 18.87zm-50.88 21.32c.84-.08 1.68-.18 2.53-.24 7-.51 8.19-1.71 7.36-10.23a233.21 233.21 0 0 0 -3.85-24.49c-1-5-3.44-9.55-8.23-9.64-5-.1-7.93 4.47-8.76 9.66a128.09 128.09 0 0 0 -1.25 21.65c.16 10.75 3.53 14.09 12.2 13.29zm-46.94-19.69 1 .47a83.44 83.44 0 0 0 .81 9.95c.34 1.79 1.7 4.54 2.75 4.64a60.56 60.56 0 0 0 14.86-.12c1.44-.21 3.76-3.86 3.62-5.72a213.25 213.25 0 0 0 -3.3-27.18c-.64-3.15-4.13-7.64-6.25-7.58-2.87.08-6.86 3.15-8.25 6.35-2.59 5.85-3.59 12.74-5.24 19.19zm10.39-39.86a8.13 8.13 0 0 0 -2.79.26c-.82.38-2 1.29-2 2.1a4.06 4.06 0 0 0 1.4 2.9c8.62 7 16.41 2.39 16.94-9.89.06-1.47.09-2.94.1-4.41.16-21.48.16-21.48-17.16-18.86-.67.1-1.54-.16-2 .27-1 .93-2.38 2.16-2.42 3.33-.22 6.92-.17 13.86 0 20.79 0 1.11 1.08 2.18 1.67 3.28l1.69-.23c.32-7.27.64-14.55 1-22.21 3.2-.46 6.38-1.32 9.52-1.15 1.16.06 3.14 2.48 3.2 3.92.24 5.86-.12 11.75-.25 17.63-.11 4.48-1.91 4.75-4.56 3-1-7 2-14.39-1-20.89h-2.4c-.32 6.42-.61 12.85-.94 20.16zm78.1-8.93h-.06c0-4.21.1-8.42 0-12.62-.11-3.6-1.47-6-4.7-6-4.41 0-8.86-.33-13.22.28-1.5.21-3.93 2.81-4 4.4-.25 9.44-.09 18.92.38 28.35.08 1.53 2.34 3.89 3.76 4.1 3.8.58 7.7 0 11.55.25 4.3.24 6.36-2.07 6.29-7.4-.04-3.78 0-7.57 0-11.36zm-74.57-61.89c-1.19 0-2.5-.4-3.54.08-2.18 1-6.11 2.77-6 3.75.66 7.2-3.18 15.1 1.87 21.6.3.39.94.42 1.44.54 3.32.82 6.63 1.7 10 2.39 4.81 1 6.77-1.27 6.37-7.1-.23-3.35-.46-6.7-.54-10.05-.34-10.65-.92-11.32-9.6-11.21zm68.92 2.4c-4.76.67-8.17.84-11.43 1.79a5.43 5.43 0 0 0 -3 3.91c-.18 14.91-1.3 16.46 11.37 17.71 1.34.13 2.68.39 4 .41 3.26 0 5.16-1.69 4.83-6.07-.26-3.53-.73-7.06-.8-10.6-.05-5.4-2.12-7.64-4.97-7.15zm69.27 45 .51-2.67c-1.61-1-3.15-2.3-4.84-2.77-2.3-.64-4.71-.58-7.07-.88-6.3-.81-8.64 1.15-9 8.93-.41 9-.35 18.06-.16 27.08.12 5.45 3.23 7.7 7.41 5.68 1-.51 1.76-2.12 2.62-3.22-.89-.77-1.77-2.17-2.67-2.19-2.76-.07-3.44-1.76-3.37-4.79.13-5.67-.06-11.36.19-17 .42-9.7.63-9.75 8.37-8.7 2.66.37 5.34.38 8.01.56z"/><path d="m446 380.85h-46.1c4.41-.49 5.66-5.2 4.63-12-.63-4.11-.52-8.39-1.07-12.53-1-7.58-3.73-13.94-11.18-18.32 3.4-1.79 5.3-3.3 7.35-3.77 6.63-1.51 7.57-3.26 6.86-11.33-.64-7.28-.82-14.65-.83-22 0-4.38-.85-6.87-4.81-6.62-4.73.31-9.48.3-14.21.48-4 .15-5.76 2.83-5.72 7.7.07 8 0 16 .07 24 0 4.93.45 9.35 6 8.4 1.34-.22 2.84 1 4.7 1.67-14.86 8.14-10.39 24.2-11 38-.09 2 .5 4.1.82 6.44h-9.27c-1-9.64-1.88-18.76-2.92-27.85a30.73 30.73 0 0 0 -1.56-6.64c-2.5-7.17-9-9.09-13.13-3.17a25.66 25.66 0 0 0 -4.36 12.8c-.24 8 1 16.08 1.64 24.92h-15c2-13.83 4.57-28.27-3.62-41.75 5.71-.38 6.76-5.13 6.31-11.24-.54-7.54-1.09-15.08-1.44-22.63-.28-6.14-3-9.23-7.64-9.82-4.07-.51-8.52-2.91-13.35 3.43 4.22.61 7.07 1.24 9.93 1.38 4.45.22 6.87 2.38 6.85 8.35 0 5.46.66 10.91.75 16.37.13 7.68-.12 7.83-7.08 7.08-.55-8.44 3-17.17 0-25.54l-1.8-.52c-.78 3-1.57 6.06-2.15 8.3l-6.76 6.07c-.89-33-1.78-65.82-2.66-98.65l1.88-.54a27.9 27.9 0 0 1 1.57 5.27c.66 6.69.94 13.45 1.76 20.11a4.9 4.9 0 0 0 3.16 3.28 85 85 0 0 0 14.1 1.6c4 .05 5-3.71 4.84-7.91-.2-6.67-.52-13.33-.81-20.61l8.43-.61c0 6.75.38 13-.11 19.2-.47 5.84 1.63 10.08 5.45 11.22a31.26 31.26 0 0 0 14.43.29c1.32-.25 2.9-5.3 2.89-8.14 0-5.84-1.28-11.66-1.49-17.52-.06-1.69 1.87-5 2.66-4.93 2.73.35 7-2.85 7.81 3.55.55 4.34.7 8.77 1 13.17.54 9.22 1.53 10.94 8.78 12.42a22.84 22.84 0 0 0 9.05-.31c3.87-.81 5.67-4 5.53-9-.17-6.25 0-12.52 0-19.26h8.73c.55 8.36 1.38 16.84 1.55 25.34.1 4.92 2 6.31 5.33 6.24 4.24-.08 8.48-.45 12.72-.43 4.55 0 6.41-2.66 6.3-8.19-.14-6.69-.17-13.4.13-20.07.07-1.42 1.81-2.72 2.77-4.08.93 1.17 2.48 2.2 2.68 3.54.83 5.33 1.44 10.74 1.76 16.16.59 10.08 1.24 11.13 9.21 10.95a88.73 88.73 0 0 0 10.6-1.24c4.38-.63 6.09-3.72 5.65-9.14-.58-7-.89-14.12-1.32-21.06 7.65-2.09 8.91-1.09 8.89 7.53-.07 21.45-.77 42.91-.35 64.34.51 26.47 1.91 52.92 2.91 79.38.07 2.06 0 4.14 0 6.32l-11.27-.73c-2.08-9.82-4.08-19.28-6.11-28.74a7.42 7.42 0 0 0 -1-2.88c-2-2.52-4.2-6.67-6.4-6.76s-5.85 3.22-6.81 6.09a153.55 153.55 0 0 0 -5 22.17c-.62 3.56-.15 7.46-.15 12.97zm-27.64-83.85-1.41.14a116.86 116.86 0 0 0 -2.73 11.67c-.39 2.82.29 5.85.22 8.79-.11 4.56 1.89 6.83 5.2 6.8a113 113 0 0 0 14.68-1.17c4-.56 5.57-3.68 5.49-8.79-.16-9.5-2.6-18.69-1.48-28.44.82-7.18-.21-14.66-.1-22 .06-3.95-1.08-6.1-4.22-6.25-5.55-.28-11.1-.49-16.66-.42-.81 0-2.33 1.73-2.32 2.62q.3 16.95 1.07 33.87c.05 1.07 1.47 2.08 2.26 3.18zm28.94 17.73h-.53c.35 6.26.48 12.57 1.21 18.76.19 1.56 2.23 3.82 3.52 3.94a82.24 82.24 0 0 0 14.21-.05c5.22-.45 6.4-2.62 6-9-.36-6.07-.71-12.16-.81-18.25-.27-15.2-.21-15.11-12.43-14.44-10.92.59-11.56-.94-11.2 14 .06 1.64.03 3.31.03 5zm-21.49 65.84c1.62-.32 3.62-.75 5.63-1.11 5.39-.95 6.29-2.45 5.58-9.08-.57-5.42-.73-10.93-1.66-16.24a37.2 37.2 0 0 0 -3.64-11.51c-3.58-6.35-9-6.4-12.64-.23a26 26 0 0 0 -3.39 10.27 105.51 105.51 0 0 0 -.06 17c.5 8.17 3.08 10.8 10.18 10.86zm-75.13-87.3c3.61-.23 5.94-.77 8.19-.45 11 1.56 14.49-2.67 13.05-16-.52-4.78-1-9.57-1.29-14.38-.25-3.75-1.67-5.94-4.74-6-4 0-8.08.3-12.13.28-3.82 0-5.68 2.12-5.48 6.88.32 7.95.54 15.91 1 23.84a29.52 29.52 0 0 0 1.4 5.79zm42.76-37.79c-11.17 1-11.17 1-11 14.66 0 1.68-.07 3.36-.08 5 0 3.74 1.28 6 4.49 6.15 4.7.22 9.41.77 14.1.65 4.24-.11 6.54-3 6.14-8.59-.15-2.09-.24-4.19-.32-6.29-.38-10.39-1.88-12.14-10.31-11.93-.99.03-2 .19-3.02.31zm54.82-.65c0 7.94-.33 14.17.17 20.29.19 2.29 2.18 6 3.57 6.2a84.45 84.45 0 0 0 17.12-.08c1.4-.12 3.71-2.44 3.8-3.9a98.45 98.45 0 0 0 -.53-15.54c-.17-1.74-1.61-4.51-2.68-4.67-7.2-1.13-14.46-1.66-21.45-2.34zm-91.63 67.69c5.88-1.23 10.23-1.92 14.47-3.2 1-.31 2.28-2.56 2.35-4 .78-14.86-3.2-19.78-15.16-19.08a25.41 25.41 0 0 0 -5.06.65c-1.11.29-3 1.06-3 1.8-.51 6.34-1.46 12.91-.55 19 .32 2.31 5.14 3.64 6.95 4.79zm-38.63-53.15a61.27 61.27 0 0 0 .11 8.14c.16 1.25 1.43 3.17 2.27 3.24a61.37 61.37 0 0 0 11.58-.09c2.9-.32 5.78-2.41 4.69-6.48-1.66-6.18 3-15.64-5-18.38-9.86-3.37-14.18 1.3-13.65 13.57z"/><path d="m246.32 283.54c-.51 2.62 0 5.56-3.29 6.71-1.35.47-2.41 4.22-2.73 6.65-.45 3.48-.11 7.12-.11 11.49l-6.09.47c0-3.86 0-7.33 0-10.81-.05-4.27-1.8-6.84-5.25-6.93a83.12 83.12 0 0 0 -14.72.44c-1.55.24-3.21 3.12-4.06 5.26-.68 1.71-.25 4.13-.27 6.23-.15 12.54-3.6 15.73-13.76 12.71v-138.26h11.13c0 5.38.12 10.56 0 15.74-.14 4.73 1.81 6.93 5.31 7.61a6.17 6.17 0 0 0 1.5.31c3.87-.28 8.07.46 11.54-1.16 5.38-2.52.2-8.34 1.4-12.66.88-3.15.18-7 .18-11h17c0 7.77.1 15.29 0 22.8-.09 5 1.39 7.59 5.64 7.22 4.06-.35 8.16-.3 12.18-1 1.36-.22 3.67-2.12 3.64-3.17-.25-8.52-.95-17-1.54-25.92h13.7c-.31 8.06-.41 16-1 23.8-.31 4.18 1 5.48 4 5 5-.81 12 3.3 14.22-4.28s.35-16.36-2.32-24.61c4.64 0 9.53-.59 14.22.34 1.56.3 3.34 4.37 3.71 7a58.24 58.24 0 0 1 .07 13.2c-3 33.22.68 66.32 1 99.48.08 7.92 0 15.84 0 24.28l-11.73-5c-.21-3.8-.23-8.16-.72-12.44-1-8.57-2.72-10.07-9.64-9.11l-.51.07c-11.54 1.32-11.54 1.32-13.22 14.59h-20.8c0-3 .27-5.53-.09-7.89-.23-1.59-1.34-3-2.06-4.47-.79 1.39-2 2.65-2.28 4.19a58.68 58.68 0 0 0 -.49 7.9l-4.86.4c-.45-.67-.81-1-.85-1.31-1.24-12.43 4.27-17.63 14.06-13.1 1 .46 1.81 2.19 2.23 3.56.52 1.73.29 3.81.87 5.49.37 1.1 1.59 1.74 2.44 2.59.44-1.19 1.38-2.47 1.25-3.55-.52-4.21-1.37-8.36-1.25-12 .81-3.58 2.09-7.11 2.32-10.74.4-6.06 0-12.19.16-18.28.11-4.6-1.29-7.1-5.15-7.49-4.89-.5-9.75-1.63-14.63-1.73-1.36 0-3.86 2.49-3.94 4a223.75 223.75 0 0 0 -.16 23.31c.06 1.46 2.54 2.76 3.9 4.14zm49.68-52.75c-.83-19.87-3-22.32-16.93-19.06-.82.19-1.89.24-2.38.89-1.07 1.43-2.56 3.17-2.62 4.86a171.43 171.43 0 0 0 .13 22c.32 3.48 2.36 9 4.29 9.52 5.06 1.26 10.51.45 15.75-.12.71-.08 1.57-3.52 1.68-5.47.23-4.2.08-8.41.08-12.62zm-64-.07c0-3.79 0-7.58 0-11.36-.07-4.27-1.73-6.59-5.36-6.62-4.24-.05-8.51-.73-12.7-.25-1.58.18-4.22 2.83-4.25 4.41-.18 9 .13 18 .72 27 .1 1.52 2.31 3.8 3.72 4a84.15 84.15 0 0 0 13.09.69c3 0 4.71-2 4.72-5.91s0-7.97 0-11.96zm66.35 38.28h.3c0-2.52 0-5 0-7.56.11-7-1.29-9.35-7-9.38a61.1 61.1 0 0 0 -13.57 1.88c-1 .21-2.23 2.59-2.3 4q-.57 12.86-.53 25.74c0 1.52 1.19 4.25 2 4.35a113.83 113.83 0 0 0 16 1.05c4.05 0 6.16-2.79 5.68-8.19-.34-3.89-.39-7.89-.58-11.89zm-34.72-39.38h.37c0-3.56.24-7.16-.05-10.69-.94-11.67-8.49-4.72-12.85-6.52-3.17-1.31-7-.43-7.59 5.42 0 .42 0 .84-.06 1.26-.27 4.6-1.19 9.33-.62 13.78.5 4 2 9.91 4.19 10.92 4.66 2.1 10.1 1.74 15.22 1.76.64 0 1.72-3.78 1.85-5.88a91.51 91.51 0 0 0 -.46-10.04zm-31.63 41.26h-.21c0-3.58-.14-7.16 0-10.73.24-5.23-1.82-7.24-5.81-7.12-3.56.11-7.12 0-10.69.09-3 .08-4.69 1.94-4.68 5.89 0 5.68-.91 11.61.14 17 .8 4.07 3.51 9.51 6.3 10.57 4.18 1.58 9.48.87 13.64-1.05 1.44-.67.93-7.87 1.27-12.09.04-.87.04-1.72.04-2.56z"/><path d="m318.61 329.46v48c-9.32.46-18.56.95-27.79 1.35-4.91.21-9.83.1-14.73.43-4.14.27-5.51-1.66-5.58-6.95-.15-10.44-.64-20.93-1.74-31.27-1-9.14-6.26-14.69-13.67-16-6.94-1.23-13.58 2.32-16.16 10.83-2.46 8.12-3.61 17-4.58 25.61-.7 6.15-.14 12.51-.14 19.66-5.14.67-10.3 1.64-15.48 1.94-9.15.55-18.31.62-27.46 1-2.33.1-4-.11-3.94-3.82.07-18.89 0-37.78 0-58.56 15.54 6.31 28.76-4.65 43.72-6.07-1.09 8 2.23 7.75 6.81 7.34 11.12-1 22.29-1.53 33.44-1.42 9.83.1 19.65 1.31 29.48 2.08a11.55 11.55 0 0 1 3 .67c4.56 1.55 9.09 3.16 14.82 5.18zm-26.94 46.3v-.08c2.2 0 4.4.1 6.6 0 3.33-.18 5.37-2.7 4.65-6.54-2.18-11.53-4.1-23.28-7.53-34.26-2.76-8.83-8.24-8.54-13.28-1.26-7.11 10.25-6.48 22.62-6.39 34.63 0 6.29 3.14 8.17 8.35 7.58a66.4 66.4 0 0 1 7.6-.07zm-89.59-22.6.31.07c0 2.53-.07 5 0 7.57.3 9.1 3.19 12.88 10.49 13.42a95.3 95.3 0 0 0 10.14-.07c3.9-.13 5.83-2.53 5.81-7.55a66.89 66.89 0 0 0 -8-32c-1.93-3.57-3.7-7.89-8.3-6.62s-7.62 4.81-8.68 10.33c-.92 4.83-1.2 9.88-1.77 14.85z"/><path d="m187.52 407.94c1.15-15.07 1.15-15.1 12.1-16.05 9.8-.85 19.59-2.16 29.4-2.28 11.82-.13 23.64.87 35.46 1.19 4.57.13 10.09 1.68 13.5-.87 4.95-3.71 9.86-3.27 14.79-3.6 8.74-.58 17.52-.16 26.8-.16.35 7.8.69 15.44 1.1 24.69zm39.25-14.25c4.58 4.05 47.89 4.79 53.11 0zm-3.19 7.85c5.65 4.41 55.58 4.4 59.65 0z"/><path d="m325.3 407.12v-12.47l157.94-3c.14 3.75.31 8.24.46 12.18z"/><path d="m184.17 406.66-155.29 2.77v-10.43c15.75-.7 31.44-2 47.11-2 34.09.09 68.18.87 102.27 1.38 1.34 0 2.68.14 4.31.23z"/><path d="m491 208.74c-2.55 1-5.09 2.92-7.64 2.93q-80.13.36-160.25.34a33.66 33.66 0 0 1 -5.59 0c-1.08-.18-2.07-1.25-3.1-1.91 1-1.15 1.81-3.12 2.86-3.29 4-.65 8.11-.63 12.17-1 35.57-3.43 71.15-1.49 106.74-.46 18.11.52 36.25.09 54.37.09z"/><path d="m18.27 204 173.15-5v9.75c-5.65 0-11.18 0-16.7 0-36.81.4-73.61.95-110.42 1.19-13.89.09-27.79-.38-41.68-.92-1.65-.06-3.25-2.12-4.87-3.26z"/><path d="m315.7 198.63v-8.07l108.47-3.94v12z"/><path d="m321.1 158.25c-4.78 8.48-9.15 12.72-17 12.5-27.94-.78-55.91-.61-83.87-.63a182.66 182.66 0 0 0 -21.3 1c-6.86.79-10.62-3.53-13.58-10.95 3.2-.66 6.08-3.42 8.78 1.64.78 1.47 3.3 2.08 5 2.11q49.8 1 99.6 1.69c3.05 0 6.17-.28 7.2-5.22.21-1 2-2 3.13-2.05 3.62-.25 7.16-.09 12.04-.09z"/><path d="m191.58 192.26-108.71 3.38c-.49-6.64 1.56-8.61 6.66-8.57 32.54.24 65.08.11 97.62-.07 3.56 0 5.16 1.16 4.43 5.26z"/><path d="m252.58 348.75 12.58-1v30l-11.32 1.51c-.42-10.13-.84-20.02-1.26-30.51z"/><path d="m246.44 283.69v-26.2c1.76.21 3.36.3 4.94.6 3.53.69 9.86.84 10.08 2.33 1 6.86.58 14.15-.08 21.18-.1 1.09-4.06 1.63-7.29 2.81v-23l-1.7-.53c-.68 1.73-1.78 3.39-2 5.19a67.79 67.79 0 0 0 -.3 11.91c.31 3.94-.89 5.43-3.81 5.52z"/><path d="m249 378.52-8.77.71c0-8.72-.23-17.24.08-25.72.21-5.68 3.87-4.42 7.36-4.37.48 9.75.91 19.26 1.33 29.38z"/><path d="m392.45 374.11c-.6-9.83-1.21-19.77-1.85-30.07 4.36.08 6.66 3.24 7.41 7.32a147 147 0 0 1 2.1 19.16c.21 4.09-1.24 4.63-7.66 3.59z"/><path d="m353.3 222.66h11.8c.58 8.28 1.15 16.33 1.76 25l-5.2.38-1.48-24-2.39-.14c-.44 1.92-1.25 3.83-1.26 5.76 0 4.61.45 9.23.42 13.84 0 1.18-1.15 2.34-1.77 3.51-.63-1-1.77-2-1.79-3-.16-6.9-.09-13.81-.09-21.35z"/><path d="m229.4 308.52h-5.17c-.75-2.57-1.43-4.93-2.45-8.41-3.12 4.48-.42 13.41-7.64 11.72a13.41 13.41 0 0 1 -.31-1.74c-.58-13.86 2-16.74 13-14.11 1 .24 2.22 2.26 2.42 3.65.43 2.64.15 5.42.15 8.89z"/><path d="m467.5 244.39-8.2 1.34c-.43-7.69-.82-14.63-1.22-21.79h8.49c.31 6.75.6 13.13.93 20.45z"/><path d="m263.45 341-20.51 1.17c.9-7.16 3.89-10.87 9.17-11.37 5.67-.49 9.67 2.9 11.34 10.2z"/><path d="m187.82 224.84c-.5 6.6-1 12.77-1.46 19.5-2.85 0-5.26.44-7.48-.17-1.35-.36-3.31-2.23-3.42-3.62-.42-5-.17-10-.17-15.71zm-4.94 1.22-2.39-.1c-2.78 4.63-2.27 9.9-1.22 15.18a2.5 2.5 0 0 0 1.81 1.69 2.4 2.4 0 0 0 1.72-1.7c.2-5.02.08-10.04.08-15.07z"/><path d="m360 344.68c1.41 1.57 3.8 2.91 4.06 4.73 1.22 8.4 1.95 16.91 2.56 25.41.09 1.18-1.45 2.54-2.23 3.81-.91-1.13-2.49-2.16-2.63-3.42-1-9.68-1.77-19.41-2.61-29.12z"/><path d="m330.06 344.24c1 1.85 2.78 3.64 2.88 5.57.4 7.43.38 14.9.19 22.35 0 1.14-1.68 2.84-2.76 3.08-.72.17-2.51-1.76-2.53-2.8-.2-9.06-.12-18.13-.12-27.19z"/><path d="m290.33 314.74c-1-5.28 1.66-10.91-3.9-15-.58 4.67-1.16 9.33-2 15.82-1.46-1.72-3.2-2.85-3.67-4.52a20.54 20.54 0 0 1 -.54-8 5.46 5.46 0 0 1 3-3.76 22.21 22.21 0 0 1 8.07-.62 4.44 4.44 0 0 1 3 3 66.72 66.72 0 0 1 .83 9.34c.34 4.64-1.6 5.21-4.79 3.74z"/><path d="m112.21 224.49c1.76 5.24-1.37 12 3.76 18v-18.17c4.57-1.14 6.11 3.87 6.32 19.83l-13.1-1.1 1-18.74z"/><path d="m236.51 146.36c12.64.95 24.85 1.87 37.06 2.9a17.36 17.36 0 0 1 .36 2.86h-37.42z"/><path d="m394.14 300.28h6.13c.32 7.94.75 15.82.82 23.7 0 1.09-1.95 3.24-2.73 3.06a4.79 4.79 0 0 1 -3.06-3.33c-.61-7.5-.79-15.06-1.16-23.43z"/><path d="m392.83 245.48v-22.38h7.07c0 6.36.32 12.59-.09 18.75-.38 5.55-3.98 3.39-6.98 3.63z"/><path d="m253.37 185.3c-.41 3.59-.7 7.21-1.29 10.75a18.5 18.5 0 0 1 -1.76 4.17c-.67-1.41-1.84-2.78-1.92-4.23-.24-4.76-.09-9.55-.09-14.71h11.36c0 5.42.08 10.6-.08 15.77 0 .83-1.14 1.6-1.75 2.4-.47-.93-1.28-1.82-1.37-2.8-.32-3.7-.4-7.43-.58-11.15z"/><path d="m329.59 223.28h6.25c.26 6.65.62 13.23.64 19.81 0 .85-2.21 2.66-2.58 2.38-1.32-1-3.08-2.59-3.26-4.19-.64-5.73-.73-11.56-1.05-18z"/><path d="m385.4 328.31c0-7.92-.09-15.85.08-23.77 0-1.2 1.25-2.36 1.91-3.53.79 1.06 2.17 2.05 2.27 3.21.62 7.07 1.14 14.17 1.21 21.27 0 1.41-2.07 2.86-3.19 4.28z"/><path d="m433.54 246.76c-4.49 1.47-6.38-.14-5.65-5.8a69.76 69.76 0 0 0 .5-9.38c-.06-5 1.31-7.66 6.06-6.16-.3 7.08-.61 14.23-.91 21.34z"/><path d="m457.32 344.4c1.27 1.74 2.83 2.94 3.18 4.55 1.67 7.63 3.08 15.34 4.36 23.08.18 1.08-.89 2.48-1.38 3.73-.89-.94-2.4-1.73-2.57-2.85-.78-4.91-1.13-9.92-1.72-14.87-.5-4.14-1.12-8.25-1.87-13.64z"/><path d="m59.77 224.24c-2.27 19.76-1.19 18.76-7.17 18.57.3-6.27.6-12.51.94-19.38z"/><path d="m418.56 224.17 5.64.88c0 6.41.11 12.43-.09 18.45 0 1.19-1.24 2.33-1.9 3.5-.91-.89-2.52-1.69-2.61-2.68-.52-6.39-.7-12.81-1.04-20.15z"/><path d="m454.12 352.37c.63 7.13 1.26 14.26 1.9 21.43-1.71 1.81-3.5 3.7-6 6.39.86-9.83 1.66-18.87 2.45-27.92z"/><path d="m223.1 194.37c-4.18 1.7-5.88.44-5.7-4.24.14-3.53-.12-7.1.18-10.6.1-1.22 1.31-2.3 2-3.44.92 1.09 2.51 2.07 2.64 3.29.54 4.9.62 9.87.88 14.99z"/><path d="m85.44 242.07c0-5.39-.06-10.79.06-16.18 0-.94.81-1.85 1.24-2.77.61.76 1.68 1.44 1.78 2.3a142.34 142.34 0 0 1 1.2 14.87c0 1.18-1.91 2.4-3 3.59z"/><path d="m452.83 221.82c1 8.88 1.7 15.85 2.5 23.21-.87 0-2 .14-2 0-1.25-6.59-2.49-13.2-3.43-19.87-.11-.75 1.58-1.87 2.93-3.34z"/><path d="m81.78 224.41v18.71l-3.85.56c1.06-6.82-1-13.74 2-19.54z"/><path d="m182.47 257c2.12 1.67 4 2.3 4.41 3.63 2 6.44 1.19 12.81-2 14.87-.72-5.62-1.43-11.04-2.41-18.5z"/><path d="m325.44 243.2c-3.44-.82-4.37-9.65-2.05-19.61 2.61 1.64 3.42 9.74 2.05 19.61z"/><path d="m284.54 182.65c0 4.12.15 8.25-.09 12.34-.07 1.19-1.25 2.28-1.92 3.41-.57-1.2-1.63-2.4-1.62-3.6a76.7 76.7 0 0 1 .81-10.49c.15-1.05 1.25-1.88 1.92-2.82z"/><path d="m181.91 345v25.6h-1.27v-25.54z"/><path d="m244.07 111.43v-6.51l6.62-3.14v7.22z"/><path d="m385 223.36c3.18.26 4.55 8.6 3.59 19.58l-1.26.23c-.78-6.57-1.55-13.17-2.33-19.81z"/><path d="m47.41 244.41v-21h1.52v20.92z"/><path d="m385.56 375.3v-22.23h1.16v22.21z"/><path d="m355.62 374.33q-.69-10.21-1.37-20.41l1.88-.27q.76 10.16 1.51 20.31z"/><path d="m213 176.52v17.41l-.76.1v-17.38z"/><path d="m175.94 349.47v19.95h-.83q-.57-9.91-1.13-19.84z"/><path d="m156.31 293c3.28 3.71 5.74 19.29 3.48 23.9a5.47 5.47 0 0 1 -3.57 2.92 131.93 131.93 0 0 1 -17 .74c-.94 0-2.46-2.81-2.64-4.49a140.31 140.31 0 0 1 -.67-15.08c0-4.26 2.18-6.47 5.5-6.76 2.16-.2 4.34 0 6.59 0-.16-.7-.19-1.28-.3-1.31-10.51-2.21-10.52-2.21-10.25-15.21.1-4.83.5-9.68.23-14.48-.28-5 1.74-6.31 5.13-6.29a8.7 8.7 0 0 1 1 0c4.33.52 10.06-.8 12.59 2.13 2.26 2.61 1 9.91 1.26 15.15.23 4.81.55 9.62.47 14.42.03 1.42-1.13 2.86-1.82 4.36zm-2.64-7c0-7.37.17-14.05-.14-20.69-.06-1.29-2-2.45-3.64-4.3-1.26 8.49 1 15.64-1.92 21.77l-1.85-.11v-20c-4.36.34-6.15 12.5-4.14 23.29zm1.11 13.3-4.75.73v13.1c5.23 2.11 6.53 2.01 4.75-13.79zm-13.46.7c0 4.11-.15 7.62.09 11.09.07 1 1.25 1.86 1.92 2.78.68-.93 1.81-1.75 2-2.8.48-3.25.6-6.57.82-9.87 0-.31-.24-.65-.47-1.2z"/><path d="m74.2 284.14c-.21-6.45-.83-12.92-.53-19.32.43-9.37.71-9.35 11.22-8.8 6.45.33 8.31 2.43 8.3 10.21 0 8.12-.68 16.25-.45 24.36.2 6.63 1.57 13.2 1.92 19.83.42 7.91-1.21 9.63-7.58 9.4-3.37-.11-6.75.06-10.09-.33-2.94-.35-4.36-2.64-4.27-6.47.13-4.83.1-9.67 0-14.51s1.05-8.35 6.76-7c-3.74-5.33-.93-6.65 2.47-7.6v-17.17l2.11-.2c.37 3.59.6 7.22 1.16 10.76.48 3-1.56 7.82 3.66 8.7 0-7.83.33-15.15-.31-22.34-.11-1.25-4.26-2.27-6.63-2.82s-4.55 0-4.62 3.88c-.07 4.41 0 8.82-.12 13.23-.06 2.06-.44 4.11-.67 6.17zm7.46 14.91 2.86.12c.16 3.76.1 7.57.6 11.25a4.92 4.92 0 0 0 2.73 3.24c.58.21 2.42-1.74 2.43-2.74.07-5.12-.27-10.25-.49-15.87l-13 2.35c0 4.6-.19 8.79.1 12.93.1 1.38 1.42 2.62 2.18 3.93.62-1.38 1.63-2.69 1.81-4.16.49-3.64.56-7.36.78-11.05z"/><path d="m127.08 367.48c-.71 15.44-.71 15.44-13 15.85-8.45.29-10.44-1.88-10.9-12.43-.38-8.78-1.4-17.95 2.85-25.68 1.9-3.45 5.23-7 8.36-7.8 4.22-1.07 7.17 3.44 8.35 8.33 1.77 7.13 2.94 14.48 4.34 21.73zm-11.7-25.77v34.68h6.44c-.63-11.73 1.32-23.52-6.44-34.68zm-5.08 6.54c-4.57 8.56-3.71 26.95 1.37 27.43-.45-9.04-.9-18.01-1.37-27.43z"/><path d="m135.22 361c1.4-6.32 1.93-13.23 4.41-18.81 3.8-8.54 12-7.76 14.15 1.53 2.38 10.29 2.84 21.27 4 32 .11 1-.64 3.09-1.19 3.21-4.68 1-9.52 2.73-14.09 2.06-4-.59-6.37-5.11-6.14-10.78.12-2.92 0-5.86 0-8.8zm10.47 14.45c-.53-10.42-1-20.19-1.58-31.17-5.23 9.17-4.28 29.34 1.58 31.14zm3.75.46c1.74-1.38 4-2.44 3.91-3.21-.73-8.68.68-17.88-3.91-27.54z"/><path d="m84.34 382.29c-8.67.8-12-2.54-12.2-13.28a128.09 128.09 0 0 1 1.25-21.66c.83-5.19 3.77-9.76 8.76-9.66 4.79.09 7.19 4.66 8.23 9.64a233.21 233.21 0 0 1 3.85 24.49c.83 8.52-.38 9.72-7.36 10.23-.87.06-1.69.16-2.53.24zm1-35.09-1.35.21c0 8.12-.11 16.24.12 24.36 0 1.21 1.56 3.17 2.53 3.3s2.86-1.8 2.82-2.73c-.3-8.63-.46-17.34-4.07-25.14zm-4.79-2.3-.89-.62c-.9 2.31-2.44 4.56-2.57 6.93-.39 6.82-.32 13.69-.15 20.53 0 1.32 1.37 2.58 2.11 3.86.5-1.5 1.41-3 1.43-4.52.19-8.73.12-17.46.12-26.18z"/><path d="m37.4 362.6c1.65-6.45 2.65-13.34 5.21-19.19 1.39-3.2 5.38-6.27 8.25-6.35 2.12-.06 5.61 4.43 6.25 7.58a213.25 213.25 0 0 1 3.3 27.18c.14 1.86-2.18 5.51-3.62 5.72a60.56 60.56 0 0 1 -14.86.12c-1-.1-2.41-2.85-2.75-4.64a83.44 83.44 0 0 1 -.81-9.95zm13.73-19.92-2.47.73c.49 8.47.87 16.94 1.59 25.37.1 1.12 1.92 2 2.94 3 .72-1.35 2.09-2.74 2-4-.27-5.85-.75-11.72-1.55-17.49-.33-2.66-1.64-5.09-2.51-7.61zm-6.78 29 2.23-.19q-.53-8.89-1.07-17.78h-1.16z"/><path d="m47.79 322.74c.33-7.31.62-13.74.92-20.18h2.4c3 6.5 0 13.9 1 20.89 2.65 1.74 4.45 1.47 4.56-3 .13-5.88.49-11.77.25-17.63-.06-1.44-2-3.86-3.2-3.92-3.14-.17-6.32.69-9.52 1.15-.34 7.66-.66 14.94-1 22.21l-1.69.23c-.59-1.1-1.64-2.17-1.67-3.28-.17-6.93-.22-13.87 0-20.79 0-1.17 1.46-2.4 2.42-3.33.45-.43 1.32-.17 2-.27 17.32-2.62 17.32-2.62 17.16 18.86 0 1.47 0 2.94-.1 4.41-.51 12.28-8.32 16.91-16.92 9.91a4.06 4.06 0 0 1 -1.4-2.87c.08-.81 1.22-1.72 2-2.1a8.13 8.13 0 0 1 2.79-.29z"/><path d="m125.89 313.81v11.36c.07 5.33-2 7.64-6.29 7.4-3.85-.21-7.75.33-11.55-.25-1.42-.21-3.68-2.57-3.76-4.1-.47-9.43-.63-18.91-.38-28.35 0-1.59 2.47-4.19 4-4.4 4.36-.61 8.81-.26 13.22-.28 3.23 0 4.59 2.4 4.7 6 .13 4.2 0 8.41 0 12.62zm-5.12 12.11v-25h-12.17v24.16z"/><path d="m51.32 251.92c8.72-.11 9.26.56 9.53 11.21.08 3.35.31 6.7.54 10.05.4 5.83-1.56 8.1-6.37 7.1-3.33-.69-6.64-1.57-10-2.39-.5-.12-1.14-.15-1.44-.54-5-6.5-1.21-14.4-1.87-21.6-.08-1 3.85-2.73 6-3.75 1.11-.48 2.42-.08 3.61-.08zm-6.15 19.72c3.69.23 3.69.23 3.44-14.42-4.26 3.39-2.86 9.28-3.44 14.42zm6.49-15c3.92 5.78-.85 12.89 4.27 18 1.76-11.64.92-16.64-4.27-17.99z"/><path d="m120.24 254.32c2.85-.49 4.92 1.75 5 7.15.07 3.54.54 7.07.8 10.6.33 4.38-1.57 6.11-4.83 6.07-1.34 0-2.68-.28-4-.41-12.67-1.25-11.55-2.8-11.37-17.71a5.43 5.43 0 0 1 3-3.91c3.23-.95 6.64-1.11 11.4-1.79zm.56 18.2c1-10.94.44-12.88-4.41-12 2.96 3.23-.74 9.37 4.41 12zm-8.8-11.44c-3.77 2.56-2.26 6.65-1.94 11.13 6.23-2.33 1.73-7.44 1.94-11.13z"/><path d="m189.51 299.35c-2.67-.18-5.35-.19-8-.55-7.74-1.05-7.95-1-8.37 8.7-.25 5.66-.06 11.35-.19 17-.07 3 .61 4.72 3.37 4.79.9 0 1.78 1.42 2.67 2.19-.86 1.1-1.57 2.71-2.62 3.22-4.18 2-7.29-.23-7.41-5.68-.19-9-.25-18.07.16-27.08.35-7.78 2.69-9.74 9-8.93 2.36.3 4.77.24 7.07.88 1.69.47 3.23 1.81 4.84 2.77z"/><path d="m418.36 297c-.79-1.06-2.21-2.07-2.26-3.18q-.78-16.92-1.07-33.87c0-.89 1.51-2.6 2.32-2.62 5.56-.07 11.11.14 16.66.42 3.14.15 4.28 2.3 4.22 6.25-.11 7.34.92 14.82.1 22-1.12 9.75 1.32 18.94 1.48 28.44.08 5.11-1.45 8.23-5.49 8.79a113 113 0 0 1 -14.68 1.17c-3.31 0-5.31-2.24-5.2-6.8.07-2.94-.61-6-.22-8.79a116.86 116.86 0 0 1 2.78-11.71zm7.6-33.45c.72 8.07 1.42 15.51 2 23 .31 3.7 1.68 5.26 5 4v-27.04zm0 54.92c3.15-1.27 7-1.45 7.83-3.49a15.37 15.37 0 0 0 -.5-10.61c-.8-1.6-5-.61-8-.81.23 5.31.41 9.44.65 14.87zm-2.1-26.79c-.39-16.64-2-26.29-4.27-27.85 0 8.2-.11 16.4.15 24.58.01.89 2.12 1.71 4.1 3.23z"/><path d="m447.3 314.69c0-1.68 0-3.36 0-5-.36-14.92.28-13.39 11.2-14 12.22-.67 12.16-.76 12.43 14.44.1 6.09.45 12.18.81 18.25.38 6.4-.8 8.57-6 9a82.24 82.24 0 0 1 -14.21.05c-1.29-.12-3.33-2.38-3.52-3.94-.73-6.19-.86-12.5-1.21-18.76zm7.57 16 1.62-1.5c0-7.52.13-15.05-.12-22.56 0-1.45-1.58-2.82-2.43-4.23-.65 1.41-1.84 2.8-1.87 4.23-.12 6.49-.07 13 .3 19.48.09 1.57 1.63 3.04 2.5 4.56zm10.76-29.29c-3.67-1.14-4.52.82-4.33 4.92.3 6.47.43 13 .19 19.46-.17 4.76 1.14 5.6 4.14 4z"/><path d="m425.81 380.53c-7.1-.06-9.68-2.69-10.18-10.94a105.51 105.51 0 0 1 .06-17 26 26 0 0 1 3.39-10.27c3.69-6.17 9.06-6.12 12.64.23a37.2 37.2 0 0 1 3.64 11.51c.93 5.31 1.09 10.82 1.66 16.24.71 6.63-.19 8.13-5.58 9.08-2.01.4-4.01.83-5.63 1.15zm7.06-7.5c-.72-7.86-1.11-14.95-2.16-21.9a15.18 15.18 0 0 0 -3.62-7.22c-1.67-1.9-3.81-1.47-3.52 2.17.72 9.11 1.72 18.18 2.66 27.84z"/><path d="m350.68 293.23a29.52 29.52 0 0 1 -1.36-5.84c-.5-7.93-.72-15.89-1-23.84-.2-4.76 1.66-6.91 5.48-6.88 4.05 0 8.09-.31 12.13-.28 3.07 0 4.49 2.21 4.74 6 .32 4.81.77 9.6 1.29 14.38 1.44 13.38-2.05 17.61-13.05 16-2.29-.31-4.62.23-8.23.46zm12.09-7.43c3.87.79 5.2-1.55 4.79-6.07-.38-4.16-.84-8.31-1.05-12.48-.32-6.7-.73-7.09-5.94-5.36.72 7.87 1.43 15.64 2.2 23.91zm-10.69-23.8c.54 8.32 1 15.91 1.52 23.48h5.14c-.65-8.05-1.26-15.61-1.89-23.48z"/><path d="m393.44 255.43c1-.11 2-.27 3-.3 8.43-.21 9.93 1.54 10.31 11.93.08 2.1.17 4.2.32 6.29.4 5.58-1.9 8.48-6.14 8.59-4.69.12-9.4-.43-14.1-.65-3.21-.16-4.51-2.41-4.49-6.15 0-1.68.1-3.36.08-5-.15-13.72-.15-13.72 11.02-14.71zm.71 19.09 7.64.94c-.17-3-.35-5.22-.41-7.46-.23-8-1.28-8.78-8.26-5.91.31 3.81.64 7.72 1.03 12.43z"/><path d="m448.26 254.79c7 .68 14.25 1.2 21.45 2.3 1.07.16 2.51 2.93 2.68 4.67a98.45 98.45 0 0 1 .53 15.54c-.09 1.46-2.4 3.78-3.8 3.9a84.45 84.45 0 0 1 -17.12.08c-1.39-.17-3.38-3.91-3.57-6.2-.5-6.08-.17-12.35-.17-20.29zm19.05 7.35h-7.49c2.78 13.06 2.78 13.06 6.92 12.52.18-3.99.37-8.03.57-12.52zm-11.25-1.84c-1.43 1.9-3.13 3.17-3.07 4.27.2 3.45-1.35 7.84 3.07 11z"/><path d="m356.63 322.48c-1.81-1.15-6.64-2.47-7-4.81-.91-6.11 0-12.68.55-19 .05-.74 1.93-1.51 3-1.8a25.41 25.41 0 0 1 5.06-.65c12-.7 15.94 4.22 15.16 19.08-.07 1.44-1.33 3.69-2.35 4-4.19 1.26-8.54 1.95-14.42 3.18zm11.54-9.2c-.72-4-.74-9.58-2-10a20.23 20.23 0 0 0 -11.44-.15c-.93.23-1.3 5.37-1.43 8.28-.06 1.21 1.17 2.52 1.81 3.78a23.78 23.78 0 0 0 1.93-3.54c.33-.91-.07-2.24.3-3.08a43.23 43.23 0 0 1 2.68-4.63 30.44 30.44 0 0 1 2 5.62c.26 1.64-.27 3.47-.55 6.13z"/><path d="m318 269.37c-.51-12.27 3.81-16.94 13.61-13.57 8 2.74 3.38 12.2 5 18.38 1.09 4.07-1.79 6.16-4.69 6.48a61.37 61.37 0 0 1 -11.58.09c-.84-.07-2.11-2-2.27-3.24a61.27 61.27 0 0 1 -.07-8.14zm11.18 5.17 2.34-.17c-.2-4.25-.35-8.5-.76-12.72 0-.19-2.39 0-3.79 0 .81 4.84 1.5 8.87 2.19 12.89z"/><path d="m296 230.79c0 4.2.18 8.42-.08 12.6-.11 2-1 5.39-1.68 5.47-5.24.57-10.69 1.38-15.75.12-1.93-.48-4-6-4.29-9.52a171.43 171.43 0 0 1 -.13-22c.06-1.69 1.55-3.43 2.62-4.86.49-.65 1.56-.7 2.38-.89 13.93-3.24 16.07-.79 16.93 19.08zm-4.84-.58c0-3.57.14-7.14-.09-10.68-.07-1.09-1.16-2.08-1.79-3.12-.77.78-2.17 1.49-2.23 2.36-.58 7.3-1 14.62-1.18 21.95 0 1.18 1.69 2.41 2.6 3.62.9-1.15 2.46-2.19 2.59-3.46a105.33 105.33 0 0 0 .07-10.67zm-12.57 13 2.76.23c.52-8.82 1-17.64 1.55-26.55-4.61.26-4.44.26-4.35 4.95.12 7.1.01 14.23.01 21.35z"/><path d="m231.94 230.72v12s-1.69 5.92-4.72 5.91a84.15 84.15 0 0 1 -13.09-.69c-1.41-.23-3.62-2.51-3.72-4-.59-9-.9-18-.72-27 0-1.58 2.67-4.23 4.25-4.41 4.19-.48 8.46.2 12.7.25 3.63 0 5.29 2.35 5.36 6.62.07 3.78 0 7.57 0 11.36zm-4.13 10.94c0-5.74-.41-11.37.11-16.87.56-5.89-1-8.19-5.66-7.28-1.12.21-2.23.44-4.11.82.36 7.83.7 15.42 1.06 23.33z"/><path d="m298.35 269c.19 4 .24 8 .6 11.92.48 5.4-1.63 8.16-5.68 8.19a113.83 113.83 0 0 1 -16-1.05c-.82-.1-2-2.83-2-4.35q0-12.87.53-25.74c.07-1.45 1.34-3.83 2.3-4a61.1 61.1 0 0 1 13.57-1.88c5.68 0 7.08 2.36 7 9.38-.05 2.52 0 5 0 7.56zm-12.83-10.18c-4.57-1.08-6.36.91-6.38 5.44v18.76l14.86-1.12c0-6.94-.17-13.42.05-19.89.18-5.15-1.82-4.87-4.58-3.75-.45 7.71.9 15.49-2.42 22.22l-1.49-.08z"/><path d="m263.63 229.63a91.51 91.51 0 0 1 .41 10c-.13 2.1-1.21 5.88-1.85 5.88-5.12 0-10.56.34-15.22-1.76-2.23-1-3.69-7-4.19-10.92-.57-4.45.35-9.18.62-13.78 0-.42 0-.84.06-1.26.64-5.85 4.42-6.73 7.59-5.42 4.36 1.8 11.91-5.15 12.85 6.52.29 3.53.05 7.13.05 10.69zm-4.53 9.6v-21c-4-.48-4-.48-4.13 3.18-.15 4.35-.15 8.73-.53 13.05-.36 4.13 1.11 5.22 4.66 4.77zm-12.16-1.29c4.16-.75 5.45-11.23 2.14-20.19-1.9 6.25-1.49 12.98-2.14 20.19z"/><path d="m232 270.88c0 .84.06 1.69 0 2.52-.34 4.22.17 11.42-1.27 12.09-4.16 1.92-9.46 2.63-13.64 1.05-2.79-1.06-5.5-6.5-6.3-10.57-1.05-5.35-.14-11.28-.14-17 0-3.95 1.64-5.81 4.68-5.89 3.57-.1 7.13 0 10.69-.09 4-.12 6.05 1.89 5.81 7.12-.17 3.57 0 7.15 0 10.73zm-10.3-12.57c.71 3.69 1.31 5.66 1.42 7.67.21 3.76 0 7.57.28 11.3.1 1.19 1.42 2.21 2.17 3.3.74-1.08 2.11-2.16 2.1-3.24 0-6.22-.38-12.45-.64-19.22a91.22 91.22 0 0 0 -9.86.13 3.87 3.87 0 0 0 -2.49 2.78c-.23 6.58-.12 13.17-.12 19.54 5.2 1.28 4.95-1.78 4.82-5.28-.2-5.12-1.72-10.58 2.32-16.98z"/><path d="m291.67 375.76a66.4 66.4 0 0 0 -7.6.05c-5.21.59-8.3-1.29-8.35-7.58-.09-12-.72-24.38 6.39-34.63 5-7.28 10.52-7.57 13.28 1.26 3.43 11 5.35 22.73 7.53 34.26.72 3.84-1.32 6.36-4.65 6.54-2.2.12-4.4 0-6.6 0zm6.53-6.86c-.76-5.61-1.25-10.57-2.23-15.37-.25-1.21-2.17-2.81-3.14-2.64s-2.5 2.2-2.6 3.54c-.31 4.69-.12 9.43-.12 14.47zm-17.58-16.85c-.29 6.32-.57 12.22-.87 18.85l5.9-2.17c.79-16.9.79-16.9-5.03-16.68z"/><path d="m202.08 353.16c.57-5 .85-10 1.78-14.88 1.06-5.52 4.08-9.06 8.68-10.33s6.37 3.05 8.3 6.62a66.89 66.89 0 0 1 8 32c0 5-1.91 7.42-5.81 7.55a95.3 95.3 0 0 1 -10.14.07c-7.3-.54-10.19-4.32-10.49-13.42-.08-2.52 0-5 0-7.57zm14.74-3.92c0 4.79.06 9.36 0 13.92-.05 3.16.49 5.18 3.6 5.09 3-.09 3.91-1.79 3.59-5.11s-.67-6.62-1-9.93c-.49-4.37-2.42-5.66-6.19-3.97zm-8.22-1.24-1.89 1.45c.26 5.15.37 10.33.89 15.45.11 1.11 1.71 2 2.63 3 .73-1.17 2.08-2.32 2.1-3.52a76.56 76.56 0 0 0 -.63-12.5c-.22-1.48-2.02-2.6-3.1-3.88z"/><path d="m226.77 393.69h53.11c-5.22 4.79-48.53 4.05-53.11 0z"/><path d="m223.58 401.54h59.65c-4.07 4.4-54 4.46-59.65 0z"/><path d="m182.88 226.06c0 5 .07 10.05-.08 15.07a2.4 2.4 0 0 1 -1.72 1.7 2.5 2.5 0 0 1 -1.81-1.69c-1.05-5.28-1.56-10.55 1.22-15.18z"/><path d="m153.67 286h-11.67c-2-10.79-.22-23 4.14-23.29v20l1.85.11c2.94-6.13.66-13.28 1.92-21.77 1.63 1.85 3.58 3 3.64 4.3.29 6.65.12 13.32.12 20.65z"/><path d="m154.78 299.34c1.78 15.8.48 15.9-4.75 13.83v-13.1z"/><path d="m141.32 300h4.32c.23.55.49.89.47 1.2-.22 3.3-.34 6.62-.82 9.87-.15 1.05-1.28 1.87-2 2.8-.67-.92-1.85-1.79-1.92-2.78-.2-3.43-.05-6.94-.05-11.09z"/><path d="m81.66 299.05c-.22 3.69-.29 7.41-.74 11.05-.18 1.47-1.19 2.78-1.81 4.16-.76-1.31-2.08-2.55-2.18-3.93-.29-4.14-.1-8.33-.1-12.93l13-2.35c.22 5.62.56 10.75.49 15.87 0 1-1.85 2.95-2.43 2.74a4.92 4.92 0 0 1 -2.73-3.24c-.5-3.68-.44-7.49-.6-11.25z"/><path d="m115.38 341.71c7.76 11.16 5.81 23 6.44 34.68h-6.44z"/><path d="m110.3 348.25c.47 9.42.92 18.39 1.37 27.43-5.08-.48-5.94-18.87-1.37-27.43z"/><path d="m145.69 375.42c-5.86-1.8-6.81-22-1.58-31.17.56 10.98 1.05 20.75 1.58 31.17z"/><path d="m149.44 375.88v-30.75c4.59 9.66 3.18 18.86 3.91 27.54.07.77-2.17 1.83-3.91 3.21z"/><path d="m85.39 347.2c3.59 7.75 3.77 16.51 4.12 25.14 0 .93-1.92 2.86-2.82 2.73s-2.5-2.09-2.53-3.3c-.23-8.12-.12-16.24-.12-24.36z"/><path d="m80.6 344.9c0 8.72.07 17.45-.07 26.18 0 1.52-.93 3-1.43 4.52-.74-1.28-2.07-2.54-2.11-3.86-.17-6.84-.24-13.71.15-20.53.13-2.37 1.67-4.62 2.57-6.93z"/><path d="m51.13 342.68c.88 2.52 2.18 4.95 2.55 7.58.8 5.77 1.28 11.64 1.55 17.49.05 1.3-1.32 2.69-2 4-1-1-2.84-1.89-2.94-3-.72-8.43-1.1-16.9-1.59-25.37z"/><path d="m44.35 371.72v-17.93h1.16q.54 8.89 1.07 17.78z"/><path d="m45.17 271.64c.58-5.14-.82-11 3.44-14.42.25 14.65.25 14.65-3.44 14.42z"/><path d="m51.66 256.65c5.19 1.35 6 6.38 4.27 18-5.12-5.11-.35-12.22-4.27-18z"/><path d="m120.8 272.52c-5.15-2.63-1.45-8.77-4.41-12 4.85-.88 5.45 1.06 4.41 12z"/><path d="m112 261.08c-.18 3.69 4.32 8.8-1.94 11.13-.35-4.48-1.86-8.57 1.94-11.13z"/><path d="m426 263.51h7v26.93c-3.35 1.29-4.72-.27-5-4-.62-7.44-1.32-14.86-2-22.93z"/><path d="m425.94 318.43c-.24-5.48-.42-9.56-.65-14.91 3 .2 7.18-.79 8 .81a15.37 15.37 0 0 1 .5 10.61c-.79 2.06-4.7 2.22-7.85 3.49z"/><path d="m423.84 291.64c-2-1.52-4.09-2.34-4.12-3.27-.26-8.18-.15-16.38-.15-24.58 2.3 1.56 3.88 11.21 4.27 27.85z"/><path d="m454.87 330.67c-.87-1.52-2.41-3-2.5-4.58-.37-6.47-.42-13-.3-19.48 0-1.43 1.22-2.82 1.87-4.23.85 1.41 2.39 2.78 2.43 4.23.25 7.51.12 15 .12 22.56z"/><path d="m465.63 301.38v28.34c-3 1.64-4.31.8-4.14-4 .24-6.47.11-13-.19-19.46-.19-4.06.7-6.02 4.33-4.88z"/><path d="m432.87 373-6.64.89c-.94-9.66-1.94-18.73-2.66-27.84-.29-3.64 1.85-4.07 3.52-2.17a15.18 15.18 0 0 1 3.62 7.22c1.05 6.98 1.44 14.07 2.16 21.9z"/><path d="m362.77 285.8c-.76-8.27-1.48-16-2.2-23.91 5.21-1.73 5.62-1.34 5.94 5.36.21 4.17.67 8.32 1.05 12.48.44 4.52-.92 6.86-4.79 6.07z"/><path d="m352.08 262h4.77c.63 7.87 1.24 15.43 1.89 23.48h-5.14c-.49-7.58-.98-15.17-1.52-23.48z"/><path d="m395.9 277c-.39-4.71-.72-8.61-1-12.43 7-2.86 8-2 8.26 5.91.07 2.24.25 4.48.41 7.46z"/><path d="m467.31 262.14c-.2 4.49-.39 8.53-.57 12.52-4.14.54-4.14.54-6.92-12.52z"/><path d="m456.06 260.3v15.26c-4.42-3.15-2.87-7.54-3.07-11-.06-1.09 1.64-2.36 3.07-4.26z"/><path d="m368.17 313.28-6.64 2.4c.28-2.66.81-4.49.55-6.13a30.44 30.44 0 0 0 -2-5.62 43.23 43.23 0 0 0 -2.68 4.63c-.37.84 0 2.17-.3 3.08a23.78 23.78 0 0 1 -1.93 3.54c-.64-1.26-1.87-2.57-1.81-3.78.13-2.91.5-8 1.43-8.28a20.23 20.23 0 0 1 11.44.15c1.2.43 1.22 5.99 1.94 10.01z"/><path d="m329.16 274.54c-.69-4-1.38-8.05-2.21-12.92 1.4 0 3.78-.16 3.79 0 .41 4.22.56 8.47.76 12.72z"/><path d="m291.13 230.21a105.33 105.33 0 0 1 -.13 10.67c-.13 1.27-1.69 2.31-2.59 3.46-.91-1.21-2.62-2.44-2.6-3.62.15-7.33.6-14.65 1.18-21.95.06-.87 1.46-1.58 2.23-2.36.63 1 1.72 2 1.79 3.12.23 3.54.09 7.11.09 10.68z"/><path d="m278.56 243.19c0-7.12.11-14.25 0-21.37-.09-4.69-.26-4.69 4.35-4.95-.52 8.91-1 17.73-1.55 26.55z"/><path d="m227.81 241.66h-8.6c-.36-7.91-.7-15.5-1.06-23.33 1.88-.38 3-.61 4.11-.82 4.68-.91 6.22 1.39 5.66 7.28-.52 5.5-.11 11.13-.11 16.87z"/><path d="m285.52 258.83v21.57l1.49.08c3.32-6.73 2-14.51 2.42-22.22 2.76-1.12 4.76-1.4 4.58 3.75-.22 6.47-.05 12.95-.05 19.89l-14.83 1.1c0-6.27 0-12.52 0-18.76.03-4.5 1.87-6.49 6.39-5.41z"/><path d="m259.1 239.23c-3.55.45-5-.64-4.66-4.73.38-4.32.38-8.7.53-13.05.12-3.66.11-3.66 4.13-3.18z"/><path d="m246.94 237.94c.65-7.21.24-13.95 2.14-20.19 3.31 8.96 2.02 19.44-2.14 20.19z"/><path d="m221.7 258.31c-4 6.4-2.52 11.86-2.32 17 .13 3.5.38 6.56-4.82 5.28 0-6.37-.11-13 .12-19.54a3.87 3.87 0 0 1 2.49-2.78 91.22 91.22 0 0 1 9.86-.13c.26 6.77.61 13 .64 19.22 0 1.08-1.36 2.16-2.1 3.24-.75-1.09-2.07-2.11-2.17-3.3-.32-3.73-.07-7.54-.28-11.3-.12-2-.71-4-1.42-7.69z"/><path d="m298.2 368.9h-8.09c0-5-.19-9.78.12-14.47.1-1.34 1.58-3.35 2.6-3.54s2.89 1.43 3.14 2.64c1.03 4.8 1.47 9.76 2.23 15.37z"/><path d="m280.62 352.05c5.82-.22 5.82-.22 5 16.68l-5.9 2.17c.33-6.63.61-12.53.9-18.85z"/><path d="m216.82 349.24c3.77-1.69 5.7-.4 6.16 4 .34 3.31.69 6.62 1 9.93s-.63 5-3.59 5.11c-3.11.09-3.65-1.93-3.6-5.09.09-4.59.03-9.19.03-13.95z"/><path d="m208.6 348c1.08 1.28 2.88 2.4 3.1 3.87a76.56 76.56 0 0 1 .63 12.5c0 1.2-1.37 2.35-2.1 3.52-.92-1-2.52-1.88-2.63-3-.52-5.12-.63-10.3-.89-15.45z"/><path d="m118.77 313.13c-1.33 3.16-2.39 5.7-3.46 8.23-.89-2.76-2.42-5.51-2.47-8.3 0-2.55 1.52-5.15 2.38-7.72z"/></g><path d="m9.26 202.3c3.35-.65 5.85-1.5 8.37-1.58 20.51-.66 41-1.18 61.94-1.75-.1-4.6 1.5-9.33-3.34-11.81-.76-.39-1.6-3.25-1.39-3.46 1.1-1.14 2.49-2.4 3.84-2.52 8.12-.72 16.25-1.42 24.39-1.6 26.12-.6 52.25-1 78.37-1.43 1.85 0 3.7-.21 6.69-.38-2.26-3.72-4.23-6.46-5.7-9.55-1.11-2.32-2.78-6-2.06-7.47a8.24 8.24 0 0 1 6.14-4.14c11.17-.69 22.35-.82 33.54-1.08 3.89-.09 7.78 0 12.42 0 0-2.81-.06-5.24 0-7.66.23-7.4 1.36-8.92 7.19-9.18 4.2-.18 8.41 0 12.73 0v-21.15c-.64-.29-1-.64-1.22-.52-8.1 4.78-10.84 2.59-10-8.57.15-1.85 2.19-3.75 3.66-5.13 2.4-2.25 5.06-4.08 7.61-6.1 1-.82 2.05-1.67 3.07-2.5.49 1.47 1.4 2.94 1.41 4.42.09 11.77 0 23.55 0 35.32v4.26h9.47c11.92.17 13.14 1.44 15.38 16.65h11.91c9.5 0 19 0 28.5.16a17.52 17.52 0 0 1 5.51 1c2.78 1 3.65 2.88 1.39 5.9-3 4-6.09 7.92-8.84 12.18-1.57 2.43-2.54 5.47-3.78 8.23l.92 1.78c9.09-.64 18.16-1.59 27.25-1.86q42.48-1.26 85-2c1.86 0 3.74 1.37 5.61 2.11-.64 2.23-1.31 4.44-1.92 6.68-1 3.61-1.94 7.24-3.21 12 10.23.57 19.28 1.32 28.35 1.53 12.72.29 25.45.18 38.18.25 1.19 0 2.48-.26 3.53.23a6.93 6.93 0 0 1 3.46 3c.32.67-.86 3-1.79 3.9-3.88 3.73-8.15 6.89-11.81 10.91a14.17 14.17 0 0 0 -3.51 8c-1.8 51.54-.11 103 3.1 154.39.51 8.15.26 16.4 0 24.59a6.8 6.8 0 0 1 -3 4.7 15.42 15.42 0 0 1 -6.92 1.4c-36.48.23-73 0-109.43.67-13.89.24-27.74 3-41.63 3.37-24.59.69-49.19.82-73.78.54-49.88-.58-99.76-1.81-149.64-2.29-16.61-.16-33.23 1.32-49.85 1.76-8.79.23-17.6 0-26.38-.56-1.17-.07-3.13-3.56-3.13-5.48-.06-17.66.3-35.32.42-53q.42-63.72.62-127.45a12.07 12.07 0 0 0 -2.33-6.39c-3.7-5.19-7.81-9.94-11.51-15.12-1.45-1.85-2.18-4.5-3.8-8.2zm238.64 84.24c-1.37-1.37-3.85-2.67-3.91-4.14a226.54 226.54 0 0 1 .16-23.31c.09-1.52 2.59-4 3.94-4 4.89.11 9.75 1.23 14.63 1.73 3.87.39 5.27 2.89 5.16 7.49-.15 6.09.23 12.22-.16 18.28-.24 3.64-1.52 7.17-2.32 10.75-.13 3.64.73 7.79 1.24 12 .13 1.08-.8 2.36-1.25 3.55-.84-.85-2.07-1.49-2.44-2.58-.57-1.68-.35-3.77-.87-5.49-.41-1.37-1.25-3.11-2.23-3.57-9.79-4.53-15.3.67-14.06 13.1 0 .35.41.64.85 1.31l4.86-.4a58.68 58.68 0 0 1 .49-7.9c.31-1.53 1.49-2.8 2.28-4.18.72 1.48 1.83 2.87 2.07 4.46a57.92 57.92 0 0 1 .09 7.89h20.72c1.68-13.27 1.68-13.27 13.22-14.6l.5-.07c6.93-1 8.65.54 9.64 9.12.49 4.27.51 8.63.72 12.44l11.74 5c0-8.44.07-16.36 0-24.28-.34-33.15-4-66.25-1-99.47a58.33 58.33 0 0 0 -.06-13.21c-.38-2.63-2.16-6.7-3.71-7-4.7-.93-9.59-.34-14.23-.34 2.67 8.25 4.61 16.94 2.33 24.61s-9.3 3.41-14.3 4.27c-3 .49-4.27-.8-4-5 .59-7.84.69-15.74 1-23.8h-13.63c.59 8.91 1.3 17.41 1.55 25.93 0 1-2.28 2.94-3.65 3.16-4 .66-8.11.61-12.17 1-4.26.37-5.74-2.24-5.65-7.22.14-7.51 0-15 0-22.79h-17c0 4 .71 7.84-.17 11-1.21 4.32 4 10.14-1.4 12.65-3.48 1.63-7.67.89-11.55 1.16a6.76 6.76 0 0 1 -1.5-.3c-3.5-.69-5.45-2.88-5.31-7.62.15-5.17 0-10.36 0-15.74h-11.03v138.18c10.15 3 13.61-.16 13.75-12.71 0-2.1-.41-4.51.27-6.23.86-2.13 2.52-5 4.07-5.26a83 83 0 0 1 14.71-.44c3.46.09 5.21 2.66 5.25 6.93v10.81l6.09-.47c0-4.37-.34-8 .12-11.48.32-2.44 1.38-6.18 2.72-6.66 3.28-1.15 2.78-4.08 3.29-6.72 2.92-.09 4.13-1.58 3.81-5.51a67.88 67.88 0 0 1 .3-11.92c.18-1.8 1.28-3.46 2-5.18l1.7.52v23c3.23-1.18 7.19-1.72 7.29-2.81.66-7 1.08-14.32.08-21.18-.22-1.49-6.55-1.64-10.08-2.32-1.57-.31-3.18-.4-4.93-.6zm-92-42v-18.24c-4.35-.91-6.47.37-6.19 6.06.15 3.11-.7 6.3-1.1 9.45l-2.32-.15c-.36-4.86-.72-9.73-1.19-16.19-4.21 3.81-2.81 8.2-3.11 11.87s-.6 7.58-.9 11.37l-2.45-.12c-.34-8.35-.68-16.7-1-25h-11.74c.6 5 1 9.64 1.69 14.18 2.21 15 1.4 16.14-10.8 14.72-10.43-1.21-10.43-1.21-9.82-14.25.68-14.52.68-14.52-11.2-13.79-.29 0-.57.36-1.59 1 .57 5.82 1.38 12 1.68 18.2.13 2.47-.54 7-1.39 7.2-4 1-8.4 1.89-12.19.64a9 9 0 0 1 -6.6-9.53c.22-5.78 0-11.57 0-17.16h-9.57c-.4 4-.75 7.54-1.09 11.07-1.31 13.4-1.31 13.4-11.63 16.83-7.21 2.39-9.27.63-9.58-8.74-.2-6 0-12 0-17.92-12.45-2.16-12.59-1.87-12.67 12.66q-.42 72.26-1 144.49a33.14 33.14 0 0 0 .4 3.88l153.34 2.11c-.14-3.89-.24-6.49-.34-9.27-1.5-.12-2.5-.27-3.49-.25-7 .08-8.12-1.19-8.51-10-.18-4-.37-8-.32-12 .12-11.92 3-15.69 12.62-16.56v-16.68c-4.71 2.69-5.25-.68-5.22-4.81a82.48 82.48 0 0 1 .19-9.45c.25-2.12 1.32-4.1 2-6.14l2.3.33c.4 5.31.81 10.61 1.21 15.86l8-2.65v-32.9c-4.62 0-8.69.41-12.67-.17-2.05-.3-3.94-2.37-5.89-3.64 2-.82 3.92-1.65 5.88-2.45.46-.19.94-.29 1.85-.55-.45-5.14-.89-10.23-1.37-15.76-7.81 1.54-1.55 11.8-6.4 14.67-2.43-3.95-3-14.43-1-17.6.4-.62 1-1.44 1.55-1.44 6.06 0 12.16-4 18.1.77v-7.76c-3.4.9-6.35 2-9.36 2.41-9.15 1.23-10.22 0-10.68-11.38-.09-2.31-.22-4.62-.27-6.93-.26-13.19-.25-13.19-11.18-11.78-.15 0-.29.18-.89.59.35 6.59.95 13.46.92 20.33 0 2.2-1.48 6.1-2.62 6.3-3.94.68-8 .28-12-.19-.86-.1-1.56-2.24-2.33-3.44 1.11-.68 2.19-1.84 3.34-1.95a84.4 84.4 0 0 1 8.62-.1zm291.6 139.16c0-5.51-.51-9.41.1-13a152.25 152.25 0 0 1 5-22.17c1-2.87 4.51-6.17 6.8-6.08s4.35 4.23 6.4 6.75a7.15 7.15 0 0 1 1 2.89c2 9.45 4 18.91 6.12 28.74l11.2.8c0-2.18.07-4.26 0-6.32-1-26.46-2.39-52.91-2.91-79.38-.42-21.43.29-42.89.35-64.33 0-8.63-1.23-9.63-8.88-7.54.42 7 .74 14 1.31 21.06.44 5.42-1.26 8.52-5.65 9.14a88.49 88.49 0 0 1 -10.6 1.24c-8 .18-8.62-.87-9.21-10.95-.31-5.41-.93-10.82-1.75-16.15-.21-1.35-1.75-2.37-2.68-3.55-1 1.36-2.71 2.66-2.77 4.08-.31 6.67-.27 13.39-.14 20.08.12 5.52-1.75 8.2-6.3 8.18-4.24 0-8.48.36-12.72.44-3.34.06-5.23-1.32-5.32-6.25-.17-8.5-1-17-1.56-25.34h-8.72c0 6.74-.14 13 0 19.27.14 5.05-1.67 8.22-5.53 9a22.71 22.71 0 0 1 -9.06.31c-7.25-1.47-8.23-3.2-8.77-12.42-.26-4.4-.42-8.82-1-13.17-.81-6.4-5.08-3.19-7.81-3.55-.79-.11-2.71 3.24-2.65 4.93.2 5.86 1.46 11.68 1.48 17.52 0 2.84-1.57 7.89-2.89 8.14-4.72.88-9.82 1.09-14.42-.29-3.83-1.14-5.93-5.38-5.46-11.22.49-6.17.11-12.44.11-19.2l-8.42.62c.29 7.27.6 13.93.8 20.6.13 4.2-.85 8-4.84 7.91a84.12 84.12 0 0 1 -14.1-1.6 4.88 4.88 0 0 1 -3.16-3.28c-.81-6.66-1.1-13.42-1.76-20.11a27.9 27.9 0 0 0 -1.57-5.27l-1.88.55c.89 32.82 1.78 65.64 2.67 98.64l6.76-6.07 2.14-8.3 1.81.53c3 8.36-.56 17.09 0 25.53 7 .76 7.21.61 7.09-7.08-.09-5.46-.77-10.91-.75-16.36 0-6-2.41-8.14-6.85-8.35-2.87-.14-5.71-.78-9.94-1.39 4.84-6.33 9.29-3.94 13.36-3.42 4.61.58 7.35 3.68 7.63 9.81.35 7.56.9 15.1 1.45 22.63.44 6.12-.61 10.86-6.32 11.24 8.19 13.48 5.62 27.92 3.63 41.75h15c-.67-8.84-1.88-16.91-1.64-24.91a25.76 25.76 0 0 1 4.36-12.81c4.09-5.92 10.63-4 13.13 3.17a31 31 0 0 1 1.57 6.64c1 9.09 1.92 18.22 2.92 27.85h9.34c-.32-2.34-.92-4.41-.83-6.44.62-13.83-3.86-29.89 11-38-1.87-.71-3.36-1.9-4.7-1.67-5.6.94-6-3.47-6-8.41-.05-8 0-16-.07-24-.05-4.87 1.72-7.55 5.71-7.7 4.74-.17 9.48-.17 14.21-.47 4-.26 4.81 2.23 4.82 6.61 0 7.33.19 14.69.82 22 .71 8.07-.23 9.82-6.85 11.33-2.06.47-3.95 2-7.35 3.77 7.45 4.38 10.16 10.74 11.17 18.32.56 4.14.44 8.42 1.07 12.54 1 6.76-.22 11.46-4.62 11.95zm-127.44-51.39c-5.72-2-10.25-3.63-14.8-5.19a12 12 0 0 0 -3-.67c-9.82-.76-19.65-2-29.48-2.08-11.15-.11-22.32.43-33.43 1.43-4.59.41-7.91.7-6.81-7.35-15 1.42-28.18 12.38-43.73 6.07v58.57c0 3.7 1.61 3.91 3.94 3.81 9.15-.4 18.32-.48 27.46-1 5.18-.31 10.34-1.28 15.49-1.95 0-7.14-.56-13.51.13-19.66 1-8.65 2.13-17.49 4.59-25.6 2.58-8.51 9.21-12.07 16.15-10.84 7.42 1.31 12.71 6.86 13.68 16 1.09 10.35 1.59 20.83 1.73 31.27.07 5.29 1.44 7.22 5.58 6.95 4.9-.33 9.82-.21 14.73-.42 9.24-.4 18.47-.9 27.79-1.36zm-131.06 78.49 133.15 2.91c-.41-9.25-.75-16.88-1.1-24.69-9.27 0-18.06-.42-26.79.16-4.93.33-9.85-.1-14.8 3.6-3.41 2.55-8.93 1-13.49.87-11.83-.32-23.65-1.32-35.46-1.18-9.81.11-19.61 1.42-29.41 2.27-10.98.95-10.98.98-12.1 16.06zm137.75-.8 158.41-3.34c-.15-3.93-.33-8.43-.47-12.18l-157.94 3.02zm-141.12-.45-1.6-8.08c-1.64-.09-3-.21-4.32-.23-34.08-.51-68.17-1.29-102.26-1.38-15.68 0-31.36 1.28-47.12 2v10.46zm306.86-197.95-.44-3.34c-18.12 0-36.25.43-54.37-.09-35.58-1-71.16-3-106.74.47-4.05.39-8.14.37-12.17 1-1 .17-1.91 2.14-2.86 3.29 1 .67 2 1.73 3.11 1.91a34.65 34.65 0 0 0 5.58 0c53.42-.08 106.83-.1 160.25-.34 2.55.02 5.15-1.88 7.64-2.9zm-472.77-4.77-.52 1.77c1.62 1.14 3.22 3.2 4.87 3.27 13.89.53 27.79 1 41.68.91 36.81-.24 73.62-.78 110.42-1.19 5.53-.06 11.05 0 16.71 0v-9.76zm297.44-5.34h108.47v-12l-108.47 3.93zm5.39-40.38c-4.87 0-8.42-.17-11.95.09-1.11.09-2.92 1.07-3.12 2.05-1 4.95-4.16 5.27-7.2 5.22q-49.8-.69-99.6-1.68c-1.74 0-4.27-.65-5.05-2.11-2.7-5.07-5.58-2.31-8.77-1.65 2.95 7.42 6.71 11.75 13.57 10.95a182.73 182.73 0 0 1 21.31-1c27.95 0 55.92-.15 83.86.63 7.81.21 12.17-4.03 16.95-12.5zm-129.55 34c.72-4.1-.87-5.28-4.43-5.26-32.55.19-65.09.31-97.63.07-5.1 0-7.14 1.93-6.66 8.57zm61 156.49c.43 10.5.83 20.38 1.25 30.59l11.32-1.52v-30zm-3.55 29.77c-.46-10.12-.88-19.63-1.32-29.37-3.49-.06-7.15-1.32-7.36 4.37-.32 8.48-.09 17-.09 25.72zm143.45-4.37c6.42 1.05 7.87.5 7.66-3.59a145.43 145.43 0 0 0 -2.09-19.16c-.76-4.07-3.05-7.24-7.41-7.32.63 10.26 1.24 20.2 1.84 30.07zm-39.14-151.49c0 7.54-.08 14.45.08 21.35 0 1 1.17 2 1.79 3 .62-1.17 1.77-2.33 1.78-3.5 0-4.62-.45-9.24-.43-13.85 0-1.92.82-3.84 1.27-5.76l2.38.14 1.48 24 5.2-.39c-.61-8.66-1.17-16.71-1.76-25zm-123.9 85.87c0-3.47.27-6.26-.12-8.89-.2-1.4-1.42-3.42-2.41-3.66-11-2.63-13.62.25-13.05 14.11a11.91 11.91 0 0 0 .32 1.74c7.21 1.69 4.51-7.23 7.64-11.72l2.45 8.42zm238.14-64.14c-.33-7.31-.62-13.69-.92-20.45h-8.49c.4 7.16.78 14.1 1.21 21.8zm-204 96.65c-1.67-7.33-5.67-10.73-11.34-10.2-5.28.5-8.26 4.22-9.17 11.38zm-75.63-116.2h-12.62c0 5.7-.26 10.75.16 15.71.12 1.4 2.08 3.26 3.42 3.63 2.22.6 4.63.16 7.48.16.5-6.72.97-12.9 1.46-19.5zm172.06 119.84-.84 1.41c.83 9.71 1.58 19.44 2.61 29.13.13 1.26 1.71 2.28 2.62 3.42.79-1.28 2.32-2.63 2.24-3.81-.61-8.51-1.34-17-2.56-25.42-.27-1.82-2.66-3.16-4.07-4.73zm-29.92-.44-2.33 1c0 9.07-.09 18.14.11 27.2 0 1 1.81 3 2.54 2.8 1.07-.24 2.72-2 2.75-3.09.19-7.44.21-14.92-.18-22.35-.11-1.92-1.88-3.71-2.89-5.56zm-39.73-29.5c3.2 1.47 5.14.9 4.82-3.85a68.26 68.26 0 0 0 -.83-9.34 4.47 4.47 0 0 0 -3-3 21.92 21.92 0 0 0 -8.06.63 5.41 5.41 0 0 0 -3 3.75 20.54 20.54 0 0 0 .54 8c.47 1.68 2.21 2.81 3.67 4.52.81-6.48 1.39-11.15 2-15.82 5.53 4.2 2.91 9.83 3.86 15.11zm-178.12-90.25-2-.18-1 18.75 13.1 1.09c-.21-16-1.75-21-6.32-19.82v18.17c-5.15-6.01-2.01-12.76-3.78-18.01zm124.34-78.13v5.79h37.42a16.39 16.39 0 0 0 -.36-2.86c-12.24-1.06-24.45-1.97-37.06-2.93zm157.6 153.92c.36 8.38.55 15.93 1.15 23.44a4.87 4.87 0 0 0 3.06 3.33c.79.17 2.74-2 2.73-3.07-.07-7.88-.5-15.75-.82-23.7zm-1.32-54.8c3-.24 6.61 1.92 7-3.63.42-6.16.1-12.39.1-18.75h-7.08zm-139.46-60.18 2.52.2c.18 3.72.27 7.45.59 11.15.08 1 .89 1.87 1.37 2.8.61-.8 1.72-1.57 1.74-2.39.16-5.17.08-10.36.08-15.77h-11.36c0 5.16-.15 9.94.1 14.7.07 1.46 1.24 2.83 1.92 4.24a19.38 19.38 0 0 0 1.76-4.17c.59-3.55.87-7.17 1.28-10.76zm76.22 38c.33 6.44.4 12.27 1.06 18 .18 1.61 1.93 3.19 3.25 4.19.38.28 2.59-1.53 2.58-2.38 0-6.58-.38-13.16-.64-19.81zm55.81 105 2.29 1.47c1.11-1.43 3.2-2.87 3.19-4.28-.07-7.1-.6-14.21-1.22-21.28-.1-1.16-1.48-2.15-2.26-3.21-.67 1.18-1.89 2.34-1.91 3.54-.17 7.92-.09 15.85-.09 23.77zm48.15-81.54c.31-7.11.61-14.26.91-21.34-4.75-1.49-6.12 1.17-6.06 6.16a66.84 66.84 0 0 1 -.5 9.39c-.74 5.66 1.15 7.27 5.65 5.79zm23.79 97.64c.74 5.39 1.36 9.5 1.86 13.64.59 5 .94 10 1.72 14.87.18 1.12 1.68 1.91 2.58 2.85.49-1.25 1.55-2.64 1.37-3.72-1.27-7.74-2.69-15.46-4.36-23.09-.36-1.6-1.96-2.8-3.18-4.55zm-397.56-120.16-6.23-.81c-.33 6.87-.64 13.11-.94 19.38 5.94.16 4.94 1.21 7.17-18.57zm358.77-.09c.34 7.33.53 13.76 1.05 20.14.08 1 1.7 1.79 2.6 2.68.67-1.16 1.86-2.3 1.9-3.5.2-6 .09-12 .09-18.45zm35.56 128.19-1.66-.09c-.8 9-1.6 18.09-2.46 27.91l6-6.39q-.91-10.71-1.87-21.4zm-231-158c-.25-5.12-.33-10.09-.86-15-.14-1.22-1.73-2.2-2.65-3.29-.7 1.14-1.91 2.22-2 3.44-.29 3.5 0 7.07-.18 10.6-.2 4.72 1.51 5.98 5.68 4.28zm-137.66 47.73 1.33 1.82c1-1.2 3-2.42 2.94-3.59a142.75 142.75 0 0 0 -1.17-14.88c-.1-.85-1.16-1.53-1.78-2.29-.43.92-1.21 1.83-1.24 2.76-.14 5.39-.08 10.79-.08 16.18zm367.39-20.24c-1.35 1.46-3.05 2.58-2.94 3.31.94 6.66 2.18 13.27 3.42 19.87 0 .16 1.14 0 2 0-.77-7.34-1.53-14.31-2.48-23.18zm-371 2.58-1.94-.26c-2.95 5.8-.91 12.72-2 19.54l3.85-.56zm100.69 32.58c1 7.47 1.68 12.89 2.41 18.49 3.18-2.05 4-8.42 2-14.87-.48-1.33-2.39-1.95-4.46-3.62zm143-13.78c1.37-9.87.52-18-2.06-19.62-2.4 9.96-1.47 18.8 1.98 19.62zm-40.98-60.55-.9-1.17c-.67.94-1.77 1.78-1.92 2.82a78.34 78.34 0 0 0 -.81 10.5c0 1.19 1.05 2.39 1.62 3.6.67-1.14 1.85-2.23 1.92-3.42.23-4.09.09-8.22.09-12.33zm-102.63 162.38h-1.27v25.61h1.27zm62.15-233.61 6.62-2.43v-7.21l-6.62 3.13zm140.93 111.93c.79 6.67 1.56 13.24 2.33 19.81l1.27-.23c.95-10.98-.41-19.31-3.6-19.58zm-337.59 21.06 1.53-.13v-20.91h-1.53zm338.14 130.89 1.16-.05v-22.21h-1.16zm-29.94-1 2-.37q-.77-10.15-1.51-20.31l-1.88.27q.72 10.25 1.4 20.43zm-142.65-197.79-.76.13v17.38l.76-.1zm-37 173-2 .15q.57 9.93 1.13 19.85l.84-.05z"/><path d="m155.92 244.59a84.4 84.4 0 0 0 -8.59.1c-1.15.11-2.23 1.27-3.34 1.95.77 1.2 1.47 3.34 2.33 3.44 4 .47 8.1.87 12 .19 1.14-.2 2.61-4.1 2.62-6.3 0-6.87-.57-13.74-.92-20.33.6-.41.74-.57.89-.59 10.93-1.41 10.92-1.41 11.18 11.78.05 2.31.18 4.62.27 6.93.46 11.37 1.53 12.61 10.68 11.38 3-.41 6-1.51 9.36-2.41v7.76c-5.94-4.8-12-.72-18.1-.77-.52 0-1.15.82-1.55 1.44-2 3.17-1.44 13.65 1 17.6 4.85-2.87-1.41-13.13 6.4-14.67.48 5.53.92 10.62 1.37 15.76-.91.26-1.39.36-1.85.55-2 .8-3.92 1.63-5.88 2.45 2 1.27 3.84 3.34 5.89 3.64 4 .58 8 .17 12.67.17v32.9l-8 2.65c-.4-5.25-.81-10.55-1.21-15.86l-2.3-.33c-.71 2-1.78 4-2 6.14a82.48 82.48 0 0 0 -.19 9.45c0 4.13.51 7.5 5.22 4.81v16.74c-9.64.87-12.5 4.64-12.62 16.56 0 4 .14 8 .32 12 .39 8.83 1.51 10.1 8.51 10 1 0 2 .13 3.49.25.1 2.78.2 5.38.34 9.27l-153.39-2.11a33.14 33.14 0 0 1 -.4-3.88q.46-72.24 1-144.49c.08-14.53.22-14.82 12.67-12.66 0 5.91-.16 11.92 0 17.92.31 9.37 2.37 11.13 9.58 8.74 10.32-3.43 10.32-3.43 11.63-16.83.34-3.53.69-7.06 1.09-11.07h9.62c0 5.59.17 11.38 0 17.16a9 9 0 0 0 6.6 9.53c3.79 1.25 8.2.34 12.19-.64.85-.2 1.52-4.73 1.39-7.2-.3-6.21-1.11-12.38-1.68-18.2 1-.68 1.3-1 1.59-1 11.88-.73 11.88-.73 11.2 13.79-.61 13-.61 13 9.82 14.25 12.2 1.42 13 .28 10.8-14.72-.67-4.54-1.09-9.13-1.69-14.18h11.74c.34 8.28.68 16.63 1 25l2.45.12c.3-3.79.59-7.58.9-11.37s-1.1-8.06 3.11-11.87c.47 6.46.83 11.33 1.19 16.19l2.32.15c.4-3.15 1.25-6.34 1.1-9.45-.28-5.69 1.84-7 6.19-6.06zm1.84 51.22c.66-1.46 1.86-2.89 1.88-4.36.07-4.8-.25-9.61-.48-14.42-.24-5.23 1-12.54-1.26-15.15-2.52-2.93-8.25-1.61-12.59-2.13a8.7 8.7 0 0 0 -1 0c-3.39 0-5.41 1.3-5.13 6.29.27 4.8-.13 9.65-.23 14.48-.26 13-.26 13 10.25 15.21.11 0 .15.61.31 1.31-2.26 0-4.44-.15-6.59 0-3.32.3-5.49 2.5-5.5 6.76a137.78 137.78 0 0 0 .67 15.08c.18 1.69 1.69 4.46 2.64 4.49a131.78 131.78 0 0 0 17-.74 5.48 5.48 0 0 0 3.57-2.91c2.2-4.62-.3-20.2-3.54-23.91zm-82.1-8.81h2.34c.24-2.05.62-4.1.67-6.17.13-4.41.06-8.82.13-13.23.06-3.91 2.33-4.41 4.62-3.88s6.51 1.57 6.63 2.83c.64 7.18.31 14.5.31 22.33-5.23-.87-3.18-5.66-3.66-8.69-.57-3.55-.79-7.18-1.17-10.77l-2.1.2v17.15c-3.4.95-6.22 2.27-2.48 7.6-5.71-1.33-6.85 2-6.76 7 .09 4.83.11 9.67 0 14.5-.1 3.83 1.32 6.12 4.26 6.47 3.35.39 6.73.22 10.09.34 6.38.22 8-1.49 7.59-9.4-.35-6.64-1.73-13.21-1.92-19.84-.24-8.1.43-16.24.44-24.36 0-7.78-1.85-9.88-8.29-10.21-10.51-.54-10.8-.56-11.23 8.8-.31 6.41.32 12.88.53 19.33zm52.88 83.34c-1.41-7.25-2.57-14.59-4.29-21.73-1.19-4.89-4.14-9.4-8.36-8.33-3.13.8-6.46 4.35-8.36 7.81-4.25 7.72-3.23 16.89-2.84 25.67.46 10.56 2.45 12.72 10.89 12.44 12.25-.42 12.25-.42 12.96-15.87zm8.13-6.51 1.16.39c0 2.93.09 5.87 0 8.8-.24 5.66 2.14 10.18 6.13 10.77 4.58.67 9.41-1.07 14.09-2.06.55-.12 1.31-2.18 1.2-3.21-1.16-10.7-1.62-21.68-4-32-2.14-9.29-10.36-10.07-14.15-1.53-2.49 5.61-3.03 12.52-4.43 18.83zm-50.88 21.31c.85-.08 1.69-.18 2.53-.24 7-.51 8.19-1.71 7.36-10.23a232.61 232.61 0 0 0 -3.85-24.48c-1-5-3.43-9.56-8.22-9.65-5-.1-7.94 4.47-8.77 9.67a126.94 126.94 0 0 0 -1.24 21.66c.16 10.73 3.52 14.07 12.19 13.27zm-46.94-19.69 1 .48a85.59 85.59 0 0 0 .81 9.94c.34 1.79 1.71 4.54 2.75 4.64a60.63 60.63 0 0 0 14.87-.11c1.44-.22 3.75-3.87 3.62-5.72a213.2 213.2 0 0 0 -3.31-27.19c-.63-3.15-4.13-7.63-6.24-7.57-2.88.08-6.86 3.14-8.26 6.35-2.58 5.84-3.59 12.73-5.24 19.18zm10.39-39.85a7.61 7.61 0 0 0 -2.78.29c-.82.37-2 1.28-2.05 2.1a4.18 4.18 0 0 0 1.44 2.85c8.63 7 16.42 2.39 16.95-9.9.06-1.47.08-2.94.09-4.41.17-21.48.17-21.48-17.15-18.86-.68.1-1.54-.16-2 .27-1 .93-2.39 2.17-2.43 3.33-.21 6.92-.16 13.86 0 20.79 0 1.11 1.09 2.19 1.67 3.28l1.7-.23c.32-7.27.63-14.55 1-22.2 3.2-.46 6.38-1.32 9.52-1.16 1.17.06 3.15 2.48 3.21 3.93.24 5.85-.12 11.75-.26 17.63-.11 4.47-1.9 4.74-4.56 3-1-7 2-14.38-1-20.89h-2.4c-.32 6.43-.62 12.86-.95 20.18zm78.1-8.94h-.06c0-4.2.1-8.42 0-12.62-.11-3.6-1.47-6-4.69-6-4.42 0-8.86-.34-13.22.27-1.51.22-3.94 2.81-4 4.4-.25 9.44-.09 18.92.39 28.36.08 1.52 2.33 3.88 3.76 4.09 3.8.58 7.7 0 11.55.25 4.29.24 6.35-2.07 6.29-7.39-.06-3.78-.02-7.57-.02-11.36zm-74.57-61.89c-1.19 0-2.5-.4-3.54.09-2.18 1-6.11 2.76-6 3.75.65 7.19-3.19 15.09 1.86 21.59.31.39 1 .42 1.44.54 3.32.82 6.63 1.7 10 2.4 4.81 1 6.77-1.28 6.37-7.11-.23-3.34-.45-6.69-.54-10-.36-10.7-.87-11.37-9.59-11.26zm68.93 2.4c-4.77.68-8.18.84-11.43 1.79a5.4 5.4 0 0 0 -3 3.92c-.19 14.9-1.31 16.45 11.36 17.7 1.34.13 2.68.39 4 .41 3.26.05 5.17-1.68 4.84-6.07-.27-3.53-.74-7.06-.8-10.6-.06-5.4-2.13-7.64-4.97-7.15zm69.26 45 .51-2.67c-1.6-.95-3.14-2.3-4.84-2.77-2.29-.64-4.71-.58-7.07-.88-6.3-.81-8.64 1.15-9 8.93-.4 9-.35 18.06-.16 27.09.12 5.44 3.23 7.7 7.41 5.67 1.05-.5 1.76-2.11 2.62-3.22-.89-.77-1.77-2.16-2.67-2.19-2.76-.06-3.44-1.76-3.36-4.79.13-5.67-.07-11.36.18-17 .43-9.7.63-9.75 8.37-8.7 2.66.36 5.35.36 8.05.56z" fill="#fff8ff"/><path d="m447.5 383.7h-46.14c4.4-.49 5.65-5.19 4.62-11.95-.63-4.12-.51-8.4-1.07-12.54-1-7.58-3.72-13.94-11.17-18.32 3.4-1.78 5.29-3.3 7.35-3.77 6.62-1.51 7.56-3.26 6.85-11.33-.63-7.28-.81-14.64-.82-22 0-4.38-.86-6.87-4.82-6.61-4.73.3-9.47.3-14.21.47-4 .15-5.76 2.83-5.71 7.7.07 8 0 16 .07 24 0 4.94.44 9.35 6 8.41 1.34-.23 2.83 1 4.7 1.67-14.87 8.13-10.39 24.19-11 38-.09 2 .51 4.1.83 6.44h-9.27c-1-9.63-1.88-18.76-2.92-27.85a31 31 0 0 0 -1.57-6.64c-2.5-7.17-9-9.09-13.13-3.17a25.76 25.76 0 0 0 -4.33 12.79c-.24 8 1 16.07 1.64 24.91h-15c2-13.83 4.56-28.27-3.63-41.75 5.71-.38 6.76-5.12 6.32-11.24-.55-7.53-1.1-15.07-1.45-22.63-.28-6.13-3-9.23-7.63-9.81-4.07-.52-8.52-2.91-13.36 3.42 4.23.61 7.07 1.25 9.94 1.39 4.44.21 6.86 2.37 6.85 8.35 0 5.45.66 10.9.75 16.36.12 7.69-.13 7.84-7.09 7.08-.55-8.44 3-17.17 0-25.53l-1.81-.53-2.14 8.3-6.76 6.07c-.89-33-1.78-65.82-2.67-98.64l1.88-.55a27.9 27.9 0 0 1 1.57 5.27c.66 6.69.95 13.45 1.76 20.11a4.88 4.88 0 0 0 3.16 3.28 84.12 84.12 0 0 0 14.1 1.6c4 0 5-3.71 4.84-7.91-.2-6.67-.51-13.33-.8-20.6l8.42-.62c0 6.76.38 13-.11 19.2-.47 5.84 1.63 10.08 5.46 11.22 4.6 1.38 9.7 1.17 14.42.29 1.32-.25 2.9-5.3 2.89-8.14 0-5.84-1.28-11.66-1.48-17.52-.06-1.69 1.86-5 2.65-4.93 2.73.36 7-2.85 7.81 3.55.55 4.35.71 8.77 1 13.17.54 9.22 1.52 11 8.77 12.42a22.71 22.71 0 0 0 9.06-.31c3.86-.8 5.67-4 5.53-9-.18-6.26 0-12.53 0-19.27h8.72c.55 8.36 1.39 16.84 1.56 25.34.09 4.93 2 6.31 5.32 6.25 4.24-.08 8.48-.45 12.72-.44 4.55 0 6.42-2.66 6.3-8.18-.13-6.69-.17-13.41.14-20.08.06-1.42 1.8-2.72 2.77-4.08.93 1.18 2.47 2.2 2.68 3.55.82 5.33 1.44 10.74 1.75 16.15.59 10.08 1.24 11.13 9.21 10.95a88.49 88.49 0 0 0 10.6-1.24c4.39-.62 6.09-3.72 5.65-9.14-.57-7-.89-14.11-1.31-21.06 7.65-2.09 8.91-1.09 8.88 7.54-.06 21.44-.77 42.9-.35 64.33.52 26.47 1.91 52.92 2.91 79.38.08 2.06 0 4.14 0 6.32l-11.2-.8c-2.09-9.83-4.09-19.29-6.12-28.74a7.15 7.15 0 0 0 -1-2.89c-2.05-2.52-4.2-6.67-6.4-6.75s-5.85 3.21-6.8 6.08a152.25 152.25 0 0 0 -5 22.17c-.68 3.62-.18 7.52-.18 13.03zm-27.69-83.89-1.41.14a119.7 119.7 0 0 0 -2.73 11.67c-.39 2.83.29 5.86.22 8.79-.11 4.56 1.89 6.83 5.21 6.8a113 113 0 0 0 14.67-1.16c4.05-.56 5.57-3.69 5.49-8.8-.16-9.5-2.59-18.69-1.48-28.44.82-7.18-.21-14.66-.09-22 .06-3.95-1.09-6.1-4.23-6.25-5.55-.28-11.1-.48-16.65-.41-.82 0-2.34 1.72-2.32 2.61q.28 17 1.06 33.87c.05 1.11 1.45 2.12 2.26 3.18zm28.94 17.74h-.53c.36 6.26.49 12.57 1.22 18.77.18 1.55 2.22 3.82 3.52 3.93a81.26 81.26 0 0 0 14.21 0c5.21-.45 6.4-2.61 6-9-.37-6.08-.71-12.17-.82-18.25-.26-15.2-.2-15.12-12.42-14.45-10.93.6-11.56-.94-11.2 14 .06 1.63.02 3.31.02 5zm-21.49 65.83c1.63-.32 3.63-.75 5.64-1.11 5.39-.95 6.28-2.45 5.58-9.08-.58-5.41-.74-10.92-1.67-16.24a36.88 36.88 0 0 0 -3.64-11.5c-3.57-6.36-8.94-6.41-12.63-.23a25.73 25.73 0 0 0 -3.4 10.26 107.88 107.88 0 0 0 -.06 17c.51 8.22 3.08 10.85 10.18 10.9zm-75.13-87.3c3.61-.22 5.94-.77 8.19-.45 11 1.57 14.49-2.67 13.05-16.05-.51-4.78-1-9.57-1.29-14.37-.24-3.76-1.66-5.95-4.73-6-4.05 0-8.09.31-12.13.28-3.83 0-5.68 2.12-5.49 6.88.32 8 .55 15.91 1 23.84a29.52 29.52 0 0 0 1.4 5.87zm42.76-37.79c-11.17 1-11.16 1-11 14.66 0 1.68-.08 3.36-.09 5.05 0 3.73 1.29 6 4.49 6.14 4.7.23 9.41.78 14.11.65 4.23-.11 6.54-3 6.14-8.58-.15-2.1-.24-4.2-.32-6.3-.38-10.39-1.89-12.14-10.31-11.93-.99.02-2 .2-3.02.31zm54.82-.65c0 7.95-.33 14.17.17 20.29.19 2.29 2.19 6 3.58 6.2a85.18 85.18 0 0 0 17.12-.07c1.39-.13 3.71-2.44 3.79-3.91a98.45 98.45 0 0 0 -.52-15.54c-.18-1.74-1.61-4.51-2.69-4.67-7.16-1.1-14.46-1.62-21.45-2.3zm-91.62 67.7c5.87-1.24 10.23-1.93 14.46-3.21 1-.31 2.28-2.56 2.36-4 .78-14.86-3.21-19.78-15.17-19.07a25.2 25.2 0 0 0 -5.05.64c-1.12.29-3 1.06-3.05 1.8-.51 6.35-1.46 12.91-.55 19 .35 2.36 5.18 3.68 7 4.84zm-38.66-53.12a63 63 0 0 0 .11 8.14c.17 1.25 1.43 3.17 2.28 3.24a61.27 61.27 0 0 0 11.57-.09c2.91-.32 5.78-2.4 4.69-6.48-1.66-6.17 3-15.63-5-18.38-9.83-3.36-14.15 1.35-13.65 13.57z" fill="#fff8ff"/><path d="m320.06 332.31v48c-9.32.46-18.55 1-27.79 1.36-4.91.21-9.83.09-14.73.42-4.14.27-5.51-1.66-5.58-6.95-.14-10.44-.64-20.92-1.73-31.27-1-9.14-6.26-14.69-13.68-16-6.94-1.23-13.57 2.33-16.15 10.84-2.46 8.11-3.62 16.95-4.59 25.6-.69 6.15-.13 12.52-.13 19.66-5.15.67-10.31 1.64-15.49 1.95-9.14.54-18.31.62-27.46 1-2.33.1-3.95-.11-3.94-3.81.07-18.9 0-37.79 0-58.57 15.55 6.31 28.76-4.65 43.73-6.07-1.1 8.05 2.22 7.76 6.81 7.35 11.11-1 22.28-1.54 33.43-1.43 9.83.1 19.66 1.32 29.48 2.08a12 12 0 0 1 3 .67c4.57 1.54 9.1 3.16 14.82 5.17zm-26.94 46.3v-.07c2.2 0 4.4.09 6.6 0 3.33-.18 5.38-2.69 4.65-6.54-2.18-11.53-4.1-23.27-7.53-34.26-2.76-8.83-8.23-8.54-13.28-1.26-7.1 10.25-6.47 22.62-6.38 34.63.05 6.29 3.13 8.17 8.34 7.58a68.79 68.79 0 0 1 7.6-.08zm-89.58-22.61.31.07c0 2.53-.07 5.06 0 7.58.3 9.09 3.18 12.88 10.48 13.41a98.2 98.2 0 0 0 10.15-.06c3.89-.14 5.83-2.54 5.81-7.56a66.92 66.92 0 0 0 -8-32c-1.93-3.57-3.71-7.89-8.3-6.62s-7.62 4.81-8.69 10.33c-.92 4.85-1.2 9.85-1.76 14.85z" fill="#fff8ff"/><path d="m189 410.8c1.15-15.08 1.15-15.11 12.1-16.06 9.8-.85 19.6-2.16 29.41-2.27 11.81-.14 23.63.86 35.46 1.18 4.56.13 10.08 1.68 13.49-.87 4.95-3.7 9.87-3.27 14.8-3.6 8.74-.58 17.49-.18 26.74-.18.35 7.81.69 15.44 1.1 24.69zm39.25-14.26c4.58 4 47.9 4.79 53.11 0zm-3.25 7.85c5.66 4.41 55.59 4.41 59.65 0z" fill="#fff8ff"/><path d="m326.75 410v-12.5l157.94-3.05c.14 3.75.32 8.25.47 12.18z" fill="#fff8ff"/><path d="m185.63 409.52-155.3 2.76v-10.46c15.76-.71 31.44-2 47.12-2 34.09.09 68.18.87 102.26 1.38 1.34 0 2.68.14 4.32.23z" fill="#fff8ff"/><path d="m492.49 211.6c-2.54 1-5.09 2.92-7.64 2.93-53.42.24-106.83.26-160.25.34a34.65 34.65 0 0 1 -5.58 0c-1.09-.18-2.08-1.24-3.11-1.91.95-1.15 1.81-3.12 2.86-3.29 4-.65 8.12-.63 12.17-1 35.58-3.44 71.16-1.5 106.74-.47 18.12.52 36.25.09 54.37.09z" fill="#fff8ff"/><path d="m317.16 201.49v-8.08l108.47-3.93v12z" fill="#fff8ff"/><path d="m254 351.6 12.57-1v30l-11.32 1.52c-.38-10.12-.78-20.02-1.25-30.52z" fill="#fff8ff"/><path d="m250.49 381.37-8.77.72c0-8.73-.23-17.24.09-25.72.21-5.69 3.87-4.43 7.36-4.37.44 9.74.83 19.25 1.32 29.37z" fill="#fff8ff"/><path d="m393.9 377c-.6-9.83-1.21-19.77-1.84-30.07 4.36.08 6.65 3.25 7.41 7.32a145.43 145.43 0 0 1 2.09 19.16c.21 4.05-1.24 4.59-7.66 3.59z" fill="#fff8ff"/><path d="m230.86 311.38h-5.17l-2.45-8.38c-3.13 4.49-.43 13.41-7.64 11.72a11.91 11.91 0 0 1 -.32-1.74c-.57-13.86 2-16.74 13.05-14.11 1 .24 2.21 2.26 2.41 3.66.39 2.59.12 5.38.12 8.85z" fill="#fff"/><path d="m469 247.24-8.2 1.35c-.43-7.7-.81-14.64-1.21-21.8h8.41c.33 6.76.62 13.14 1 20.45z" fill="#fff8ff"/><path d="m264.9 343.89-20.51 1.18c.91-7.16 3.89-10.88 9.17-11.38 5.67-.53 9.67 2.87 11.34 10.2z" fill="#fff8ff"/><path d="m189.27 227.69c-.49 6.6-1 12.78-1.46 19.5-2.85 0-5.26.44-7.48-.16-1.34-.37-3.3-2.23-3.42-3.63-.42-5-.16-10-.16-15.71zm-4.93 1.22-2.4-.09c-2.78 4.62-2.27 9.89-1.22 15.17a2.51 2.51 0 0 0 1.81 1.69 2.42 2.42 0 0 0 1.73-1.7c.14-4.98.08-10.04.08-15.07z" fill="#fff"/><path d="m361.43 347.53c1.41 1.57 3.8 2.91 4.07 4.73 1.22 8.4 1.95 16.91 2.56 25.42.08 1.18-1.45 2.53-2.24 3.81-.91-1.14-2.49-2.16-2.62-3.42-1-9.69-1.78-19.42-2.61-29.13z" fill="#fff8ff"/><path d="m331.51 347.09c1 1.85 2.78 3.64 2.89 5.57.39 7.43.37 14.91.18 22.35 0 1.14-1.68 2.85-2.75 3.09-.73.16-2.51-1.77-2.54-2.8-.2-9.06-.11-18.13-.11-27.2z" fill="#fff8ff"/><path d="m395.6 303.13h6.12c.32 7.95.75 15.82.82 23.7 0 1.09-1.94 3.24-2.73 3.07a4.87 4.87 0 0 1 -3.06-3.33c-.6-7.51-.75-15.06-1.15-23.44z" fill="#fff8ff"/><path d="m386.85 331.16c0-7.92-.08-15.85.09-23.76 0-1.2 1.24-2.36 1.91-3.54.78 1.06 2.16 2.05 2.26 3.21.62 7.07 1.15 14.18 1.22 21.28 0 1.41-2.08 2.85-3.19 4.28z" fill="#fff8ff"/><path d="m435 249.61c-4.49 1.48-6.38-.13-5.65-5.79a66.84 66.84 0 0 0 .5-9.39c-.06-5 1.31-7.65 6.06-6.16-.31 7.08-.61 14.23-.91 21.34z" fill="#fff"/><path d="m458.78 347.25c1.22 1.75 2.82 2.95 3.22 4.55 1.67 7.63 3.09 15.35 4.36 23.09.18 1.08-.88 2.47-1.37 3.72-.9-.94-2.4-1.73-2.58-2.85-.78-4.9-1.13-9.91-1.72-14.87-.55-4.14-1.17-8.25-1.91-13.64z" fill="#fff8ff"/><path d="m420 227 5.64.87c0 6.41.11 12.44-.09 18.45 0 1.2-1.23 2.34-1.9 3.5-.9-.89-2.52-1.69-2.6-2.68-.51-6.35-.7-12.78-1.05-20.14z" fill="#fff"/><path d="m455.57 355.22q1 10.69 1.9 21.43l-6 6.39c.86-9.82 1.66-18.87 2.46-27.91z" fill="#fff8ff"/><path d="m224.55 197.22c-4.17 1.7-5.88.44-5.7-4.24.14-3.53-.11-7.1.18-10.6.1-1.22 1.31-2.3 2-3.44.92 1.09 2.51 2.07 2.65 3.29.54 4.9.62 9.87.87 14.99z" fill="#fff8ff"/><path d="m454.29 224.68c.95 8.87 1.7 15.84 2.49 23.2-.87 0-2 .14-2 0-1.24-6.6-2.48-13.21-3.42-19.87-.12-.75 1.58-1.87 2.93-3.33z" fill="#fff"/><path d="m183.93 259.84c2.11 1.67 4 2.29 4.4 3.62 2 6.45 1.19 12.82-2 14.87-.72-5.6-1.43-11.02-2.4-18.49z" fill="#fff"/><path d="m386.45 226.21c3.19.27 4.55 8.6 3.6 19.58l-1.27.23c-.78-6.57-1.54-13.14-2.33-19.81z" fill="#fff"/><path d="m387 378.16v-22.24h1.16v22.21z" fill="#fff8ff"/><path d="m357.07 377.18q-.68-10.2-1.36-20.41l1.88-.27q.75 10.15 1.51 20.31z" fill="#fff8ff"/><path d="m214.41 179.37v17.41l-.76.1v-17.38z" fill="#fff8ff"/><path d="m157.76 295.81c3.28 3.71 5.74 19.29 3.48 23.91a5.48 5.48 0 0 1 -3.57 2.91 131.78 131.78 0 0 1 -17 .74c-1 0-2.46-2.8-2.64-4.49a137.78 137.78 0 0 1 -.67-15.08c0-4.26 2.18-6.46 5.5-6.76 2.15-.19 4.33 0 6.59 0-.16-.7-.2-1.28-.31-1.31-10.51-2.21-10.51-2.2-10.25-15.21.1-4.83.5-9.68.23-14.48-.28-5 1.74-6.31 5.13-6.29a8.7 8.7 0 0 1 1 0c4.34.52 10.07-.8 12.59 2.13 2.26 2.61 1 9.92 1.26 15.15.23 4.81.55 9.62.48 14.42.04 1.47-1.16 2.9-1.82 4.36zm-2.63-6.91c0-7.37.17-14-.15-20.7-.06-1.29-2-2.45-3.64-4.3-1.25 8.49 1 15.65-1.92 21.77l-1.84-.11v-19.95c-4.37.33-6.16 12.49-4.15 23.29zm1.11 13.29-4.76.73v13.08c5.24 2.09 6.52 2 4.76-13.81zm-13.47.7c0 4.11-.14 7.62.09 11.09.07 1 1.25 1.86 1.92 2.79.69-.93 1.81-1.76 2-2.81.48-3.25.59-6.57.81-9.87 0-.31-.24-.65-.46-1.2z"/><path d="m75.66 287c-.21-6.44-.84-12.91-.54-19.32.43-9.36.72-9.34 11.23-8.8 6.44.33 8.3 2.43 8.29 10.21 0 8.12-.68 16.26-.44 24.36.19 6.63 1.57 13.2 1.92 19.84.41 7.91-1.21 9.62-7.59 9.4-3.36-.12-6.74.05-10.09-.34-2.94-.35-4.36-2.64-4.26-6.47.12-4.83.1-9.67 0-14.5-.09-5 1-8.36 6.76-7-3.74-5.33-.92-6.65 2.48-7.6v-17.19l2.1-.2c.38 3.59.6 7.22 1.17 10.77.48 3-1.57 7.82 3.66 8.69 0-7.83.33-15.15-.31-22.33-.12-1.26-4.26-2.27-6.63-2.83s-4.56 0-4.62 3.88c-.07 4.41 0 8.82-.13 13.23 0 2.07-.43 4.12-.67 6.17zm7.46 14.92 2.88.08c.15 3.76.09 7.57.59 11.26a4.88 4.88 0 0 0 2.73 3.23c.58.22 2.43-1.74 2.44-2.74.06-5.12-.28-10.25-.5-15.86l-13 2.35c0 4.59-.19 8.78.1 12.92.1 1.38 1.42 2.63 2.18 3.93.63-1.38 1.63-2.69 1.81-4.16.47-3.62.54-7.34.77-11.02z"/><path d="m128.54 370.33c-.71 15.45-.71 15.45-13 15.86-8.44.28-10.43-1.88-10.89-12.44-.39-8.78-1.41-17.95 2.84-25.67 1.9-3.46 5.23-7 8.36-7.81 4.22-1.07 7.17 3.44 8.36 8.33 1.79 7.14 2.92 14.48 4.33 21.73zm-11.7-25.77v34.68h6.43c-.63-11.72 1.33-23.52-6.43-34.68zm-5.09 6.54c-4.56 8.56-3.71 27 1.37 27.43-.45-9.03-.9-18.01-1.37-27.43z"/><path d="m136.67 363.82c1.4-6.31 1.94-13.22 4.42-18.81 3.79-8.54 12-7.76 14.15 1.53 2.37 10.29 2.83 21.27 4 32 .11 1-.65 3.09-1.2 3.21-4.68 1-9.51 2.73-14.09 2.06-4-.59-6.37-5.11-6.13-10.77.11-2.93 0-5.87 0-8.8zm10.47 14.45c-.53-10.42-1-20.18-1.58-31.17-5.23 9.21-4.27 29.37 1.58 31.17zm3.75.46c1.74-1.38 4-2.44 3.92-3.2-.73-8.69.68-17.88-3.92-27.55z"/><path d="m85.79 385.14c-8.67.8-12-2.54-12.19-13.27a126.94 126.94 0 0 1 1.24-21.66c.83-5.2 3.78-9.77 8.77-9.67 4.79.09 7.19 4.66 8.22 9.65a232.61 232.61 0 0 1 3.85 24.48c.83 8.52-.37 9.72-7.36 10.23-.84.1-1.68.16-2.53.24zm1-35.09-1.35.21c0 8.12-.11 16.25.12 24.36 0 1.21 1.57 3.17 2.54 3.31s2.9-1.81 2.9-2.74c-.39-8.63-.56-17.38-4.16-25.14zm-4.79-2.3-.89-.62c-.89 2.31-2.43 4.56-2.57 6.93-.39 6.82-.32 13.69-.14 20.54 0 1.31 1.37 2.57 2.1 3.86.5-1.51 1.41-3 1.44-4.53.18-8.72.11-17.45.11-26.18z"/><path d="m38.85 365.45c1.65-6.45 2.66-13.34 5.21-19.18 1.4-3.21 5.38-6.27 8.26-6.35 2.11-.06 5.61 4.42 6.24 7.57a213.2 213.2 0 0 1 3.31 27.19c.13 1.85-2.18 5.5-3.62 5.72a60.63 60.63 0 0 1 -14.87.11c-1-.1-2.41-2.85-2.75-4.64a85.59 85.59 0 0 1 -.81-9.94zm13.73-19.91-2.47.73c.49 8.46.87 16.93 1.59 25.37.1 1.12 1.92 2 2.95 3 .71-1.34 2.09-2.74 2-4-.27-5.86-.74-11.72-1.55-17.5-.34-2.66-1.64-5.09-2.52-7.6zm-6.78 29 2.24-.19q-.54-8.85-1.04-17.75h-1.17z"/><path d="m49.24 325.6c.33-7.32.63-13.75.92-20.18h2.4c3 6.51 0 13.9 1 20.89 2.66 1.74 4.45 1.47 4.56-3 .14-5.88.5-11.78.26-17.63-.06-1.45-2-3.87-3.21-3.93-3.14-.16-6.32.7-9.52 1.16-.34 7.65-.65 14.93-1 22.2l-1.7.23c-.58-1.09-1.64-2.17-1.67-3.28-.16-6.93-.21-13.87 0-20.79 0-1.16 1.47-2.4 2.43-3.33.45-.43 1.31-.17 2-.27 17.32-2.62 17.32-2.62 17.15 18.86 0 1.47 0 2.94-.09 4.41-.53 12.29-8.32 16.87-16.95 9.9a4.18 4.18 0 0 1 -1.41-2.84c.08-.82 1.23-1.73 2.05-2.1a7.61 7.61 0 0 1 2.78-.3z"/><path d="m127.59 315.89v11.36c.06 5.33-2 7.63-6.29 7.4-3.85-.22-7.75.33-11.55-.25-1.43-.22-3.68-2.58-3.76-4.1-.48-9.43-.64-18.91-.39-28.36 0-1.58 2.48-4.18 4-4.39 4.36-.62 8.81-.27 13.22-.28 3.22 0 4.58 2.39 4.69 6 .13 4.21 0 8.42 0 12.63zm-5.36 12.88v-25h-12.17v24.15zm0 0h-12.17v-25h12.17z" fill="#001400" stroke="#001400" stroke-miterlimit="10"/><path d="m52.77 254.77c8.72-.11 9.27.56 9.53 11.21.09 3.36.31 6.71.54 10 .4 5.83-1.56 8.1-6.37 7.11-3.33-.7-6.64-1.58-10-2.4-.49-.12-1.13-.15-1.44-.54-5-6.5-1.21-14.4-1.86-21.59-.09-1 3.84-2.74 6-3.75 1.1-.44 2.41-.04 3.6-.04zm-6.15 19.73c3.69.22 3.69.22 3.44-14.43-4.26 3.39-2.85 9.28-3.44 14.43zm6.5-15c3.91 5.78-.86 12.89 4.26 18 1.77-11.62.92-16.65-4.26-18z"/><path d="m121.7 257.17c2.84-.49 4.91 1.75 5 7.15.06 3.54.53 7.07.8 10.6.33 4.39-1.58 6.12-4.84 6.07-1.34 0-2.68-.28-4-.41-12.67-1.25-11.55-2.8-11.36-17.7a5.4 5.4 0 0 1 3-3.92c3.22-.96 6.63-1.11 11.4-1.79zm.55 18.2c1-10.94.44-12.88-4.41-12 2.96 3.23-.74 9.38 4.41 12zm-8.82-11.44c-3.78 2.56-2.26 6.65-2 11.13 6.32-2.33 1.81-7.44 2-11.13z"/><path d="m191 302.2c-2.66-.17-5.35-.19-8-.55-7.74-1-7.94-1-8.37 8.7-.25 5.66-.05 11.35-.18 17-.08 3 .6 4.73 3.36 4.79.9 0 1.78 1.42 2.67 2.19-.86 1.11-1.57 2.72-2.62 3.22-4.18 2-7.29-.23-7.41-5.67-.19-9-.24-18.08.16-27.09.35-7.78 2.69-9.74 9-8.93 2.36.3 4.78.24 7.07.88 1.7.47 3.24 1.82 4.84 2.77z"/><path d="m419.81 299.81c-.78-1.06-2.21-2.07-2.26-3.18q-.78-16.92-1.06-33.87c0-.89 1.5-2.6 2.32-2.61 5.55-.07 11.1.13 16.65.41 3.14.15 4.29 2.3 4.23 6.25-.12 7.34.91 14.82.09 22-1.11 9.75 1.32 18.94 1.48 28.44.08 5.11-1.44 8.24-5.49 8.8a113 113 0 0 1 -14.67 1.16c-3.32 0-5.32-2.24-5.21-6.8.07-2.93-.61-6-.22-8.79a119.7 119.7 0 0 1 2.73-11.62zm7.6-33.44c.72 8.06 1.43 15.5 2 22.95.3 3.7 1.67 5.26 5 4v-26.95zm0 54.92c3.15-1.28 7-1.46 7.84-3.5a15.43 15.43 0 0 0 -.5-10.61c-.8-1.6-5-.61-8-.81.25 5.35.4 9.44.64 14.92zm-2.09-26.8c-.39-16.63-2-26.29-4.27-27.85 0 8.2-.11 16.4.15 24.59.01.92 2.11 1.77 4.1 3.26z"/><path d="m448.75 317.55c0-1.69 0-3.37 0-5.05-.36-14.92.27-13.38 11.2-14 12.22-.67 12.16-.75 12.42 14.45.11 6.08.45 12.17.82 18.25.38 6.4-.81 8.56-6 9a81.26 81.26 0 0 1 -14.21 0c-1.3-.11-3.34-2.38-3.52-3.93-.73-6.2-.86-12.51-1.22-18.77zm7.58 16 1.61-1.5c0-7.53.14-15.06-.11-22.57-.05-1.45-1.59-2.82-2.44-4.23-.65 1.41-1.84 2.81-1.86 4.23-.12 6.49-.08 13 .29 19.48.09 1.58 1.63 3.04 2.51 4.57zm10.76-29.3c-3.68-1.13-4.52.82-4.33 4.92.29 6.48.42 13 .19 19.46-.18 4.76 1.13 5.61 4.14 4z"/><path d="m427.26 383.38c-7.1-.05-9.67-2.68-10.18-10.94a107.88 107.88 0 0 1 .06-17 25.73 25.73 0 0 1 3.4-10.26c3.69-6.18 9.06-6.13 12.63.23a36.88 36.88 0 0 1 3.64 11.5c.93 5.32 1.09 10.83 1.67 16.24.7 6.63-.19 8.13-5.58 9.08-2.01.4-4.01.83-5.64 1.15zm7.07-7.5c-.73-7.86-1.12-14.95-2.16-21.89a15.37 15.37 0 0 0 -3.63-7.23c-1.67-1.9-3.81-1.47-3.52 2.17.73 9.11 1.72 18.18 2.67 27.84z"/><path d="m352.13 296.08a29.52 29.52 0 0 1 -1.36-5.84c-.49-7.93-.72-15.89-1-23.84-.19-4.76 1.66-6.91 5.49-6.88 4 0 8.08-.31 12.13-.28 3.07 0 4.49 2.21 4.73 6 .32 4.8.78 9.59 1.29 14.37 1.44 13.38-2.05 17.62-13.05 16.05-2.29-.35-4.62.2-8.23.42zm12.09-7.42c3.88.78 5.21-1.56 4.8-6.08-.38-4.16-.85-8.31-1-12.48-.33-6.7-.73-7.09-6-5.36.73 7.87 1.44 15.64 2.2 23.92zm-10.69-23.82c.54 8.32 1 15.91 1.52 23.48h5.14c-.64-8.05-1.25-15.61-1.89-23.48z"/><path d="m394.89 258.28c1-.1 2-.27 3.05-.3 8.42-.21 9.93 1.54 10.31 11.93.08 2.1.17 4.2.32 6.3.4 5.57-1.91 8.47-6.14 8.58-4.7.13-9.41-.42-14.11-.65-3.2-.16-4.5-2.41-4.49-6.14 0-1.69.11-3.37.09-5.05-.19-13.68-.2-13.68 10.97-14.67zm.71 19.09 7.65.94c-.17-3-.35-5.22-.42-7.46-.22-8-1.28-8.77-8.26-5.91.32 3.82.64 7.72 1.03 12.43z"/><path d="m449.71 257.64c7 .68 14.25 1.2 21.45 2.3 1.08.16 2.51 2.93 2.69 4.67a98.45 98.45 0 0 1 .52 15.54c-.08 1.47-2.4 3.78-3.79 3.91a85.18 85.18 0 0 1 -17.12.07c-1.39-.16-3.39-3.91-3.58-6.2-.5-6.12-.17-12.34-.17-20.29zm19.06 7.36h-7.5c2.78 13.06 2.78 13.06 6.92 12.51.19-3.99.37-8.03.58-12.51zm-11.26-1.85c-1.43 1.91-3.13 3.17-3.07 4.27.21 3.46-1.34 7.84 3.07 11z"/><path d="m358.09 325.34c-1.82-1.16-6.65-2.48-7-4.82-.91-6.11 0-12.67.55-19 .06-.74 1.93-1.51 3.05-1.8a25.2 25.2 0 0 1 5.05-.64c12-.71 15.95 4.21 15.17 19.07-.08 1.44-1.34 3.69-2.36 4-4.23 1.26-8.55 1.95-14.46 3.19zm11.53-9.21c-.71-4-.74-9.58-2-10a20.32 20.32 0 0 0 -11.44-.15c-.92.24-1.29 5.37-1.43 8.29-.06 1.21 1.17 2.51 1.82 3.77a23.73 23.73 0 0 0 1.92-3.54c.33-.91-.06-2.24.31-3.08a43.23 43.23 0 0 1 2.68-4.63 30.5 30.5 0 0 1 2 5.63c.26 1.63-.27 3.46-.54 6.12z"/><path d="m319.43 272.22c-.5-12.26 3.82-16.93 13.62-13.57 8 2.75 3.37 12.21 5 18.38 1.09 4.08-1.78 6.16-4.69 6.48a61.27 61.27 0 0 1 -11.57.09c-.85-.07-2.11-2-2.28-3.24a63 63 0 0 1 -.08-8.14zm11.18 5.18 2.34-.17c-.2-4.25-.34-8.51-.75-12.73 0-.19-2.4 0-3.79 0 .83 4.84 1.51 8.87 2.2 12.9z"/><path d="m297.43 233.64c0 4.2.18 8.42-.08 12.6-.12 1.95-1 5.39-1.68 5.47-5.25.58-10.69 1.38-15.75.12-1.93-.48-4-6-4.3-9.52a173.26 173.26 0 0 1 -.13-22c.07-1.69 1.55-3.42 2.63-4.86.48-.65 1.55-.7 2.38-.89 13.94-3.24 16.09-.79 16.93 19.08zm-4.85-.58c0-3.56.15-7.14-.08-10.68-.08-1.09-1.17-2.08-1.79-3.12-.78.79-2.17 1.49-2.24 2.36-.57 7.3-1 14.62-1.17 21.95 0 1.18 1.68 2.41 2.59 3.62.91-1.15 2.47-2.19 2.6-3.46a105.3 105.3 0 0 0 .09-10.67zm-12.56 13 2.75.22c.52-8.82 1-17.64 1.56-26.55-4.61.27-4.45.26-4.35 4.95.15 7.11.02 14.24.02 21.37z"/><path d="m233.4 233.57v12c0 3.89-1.7 5.93-4.72 5.92a85.33 85.33 0 0 1 -13.09-.7c-1.42-.22-3.63-2.5-3.73-4-.59-9-.89-18-.72-27 0-1.58 2.67-4.22 4.25-4.41 4.19-.48 8.47.21 12.71.25 3.62 0 5.28 2.35 5.36 6.62.07 3.78 0 7.57 0 11.36zm-4.14 10.94c0-5.74-.4-11.37.11-16.87.56-5.89-1-8.18-5.66-7.28l-4.1.82c.35 7.84.7 15.42 1 23.33z"/><path d="m299.81 271.86c.18 4 .24 8 .59 11.92.48 5.4-1.62 8.16-5.68 8.2a117 117 0 0 1 -16-1.05c-.82-.11-2-2.83-2-4.35q0-12.88.54-25.75c.06-1.45 1.33-3.82 2.3-4a61.52 61.52 0 0 1 13.56-1.88c5.69 0 7.08 2.37 7 9.39v7.55zm-12.81-10.17c-4.58-1.08-6.37.9-6.39 5.43v18.76l14.82-1.13c0-6.94-.16-13.42.06-19.89.17-5.14-1.82-4.87-4.59-3.74-.44 7.7.9 15.48-2.42 22.21l-1.48-.08z"/><path d="m265.08 232.48a91.51 91.51 0 0 1 .41 10c-.12 2.1-1.2 5.88-1.85 5.88-5.12 0-10.56.34-15.21-1.76-2.23-1-3.7-7-4.2-10.92-.56-4.44.35-9.17.62-13.78 0-.42 0-.84.06-1.26.64-5.85 4.42-6.73 7.6-5.42 4.36 1.8 11.91-5.15 12.84 6.52.29 3.53 0 7.13 0 10.7zm-4.53 9.6v-21c-4-.48-4-.48-4.13 3.18-.14 4.36-.15 8.73-.53 13.06-.35 4.12 1.11 5.21 4.66 4.76zm-12.16-1.29c4.17-.75 5.45-11.23 2.15-20.18-1.91 6.24-1.54 12.98-2.15 20.18z"/><path d="m233.42 273.73c0 .84.06 1.69 0 2.52-.35 4.22.17 11.43-1.27 12.09-4.17 1.93-9.47 2.63-13.65 1.05-2.79-1.05-5.5-6.5-6.29-10.57-1-5.35-.14-11.28-.15-17 0-3.95 1.64-5.81 4.69-5.89 3.56-.09 7.12 0 10.69-.09 4-.12 6 1.89 5.8 7.12-.16 3.57 0 7.15 0 10.73zm-10.26-12.56a73.59 73.59 0 0 1 1.42 7.67c.21 3.75 0 7.56.28 11.3.1 1.18 1.41 2.2 2.17 3.3.73-1.08 2.1-2.17 2.1-3.24 0-6.23-.38-12.46-.65-19.23a91.22 91.22 0 0 0 -9.86.13 3.93 3.93 0 0 0 -2.49 2.78c-.22 6.58-.11 13.18-.11 19.55 5.19 1.27 4.94-1.79 4.81-5.29-.2-5.14-1.72-10.58 2.33-16.97z"/><path d="m293.12 378.61a68.79 68.79 0 0 0 -7.6.05c-5.21.59-8.29-1.29-8.34-7.58-.09-12-.72-24.38 6.38-34.63 5.05-7.28 10.52-7.57 13.28 1.26 3.43 11 5.35 22.73 7.53 34.26.73 3.85-1.32 6.36-4.65 6.54-2.2.12-4.4 0-6.6 0zm6.54-6.85c-.77-5.62-1.26-10.57-2.24-15.38-.24-1.21-2.17-2.81-3.14-2.63s-2.5 2.2-2.59 3.54c-.32 4.68-.12 9.42-.12 14.47zm-17.59-16.86c-.29 6.32-.56 12.22-.87 18.86l5.9-2.18c.8-16.9.8-16.9-5.03-16.68z"/><path d="m203.54 356c.56-5 .84-10 1.77-14.88 1.07-5.52 4.08-9.05 8.69-10.33s6.37 3.05 8.3 6.62a66.92 66.92 0 0 1 8 32c0 5-1.92 7.42-5.81 7.56a98.2 98.2 0 0 1 -10.15.06c-7.3-.53-10.18-4.32-10.48-13.41-.08-2.52 0-5.05 0-7.58zm14.73-3.92c0 4.79.06 9.36 0 13.92-.05 3.16.49 5.19 3.61 5.09 2.95-.08 3.9-1.79 3.59-5.1s-.67-6.63-1-9.94c-.47-4.35-2.47-5.65-6.2-3.96zm-8.21-1.24-1.89 1.45c.25 5.15.36 10.33.88 15.45.12 1.12 1.71 2 2.63 3 .74-1.18 2.08-2.33 2.11-3.53a76.56 76.56 0 0 0 -.64-12.5c-.22-1.46-2.02-2.58-3.09-3.86z"/><path d="m228.22 396.54h53.11c-5.21 4.79-48.53 4.05-53.11 0z"/><path d="m225 404.39h59.65c-4.03 4.41-53.96 4.41-59.65 0z"/><path d="m122.25 275.37c-5.15-2.62-1.45-8.77-4.41-12 4.85-.88 5.45 1.06 4.41 12z" fill="#fff"/><path d="m113.43 263.93c-.19 3.69 4.32 8.8-2 11.13-.26-4.48-1.78-8.57 2-11.13z" fill="#fff"/><g fill="#fff8ff"><path d="m427.41 266.37h7.07v26.93c-3.36 1.28-4.73-.28-5-4-.64-7.43-1.35-14.87-2.07-22.93z"/><path d="m427.39 321.29c-.24-5.48-.41-9.57-.64-14.92 3 .2 7.18-.79 8 .81a15.43 15.43 0 0 1 .5 10.61c-.82 2.04-4.71 2.21-7.86 3.5z"/><path d="m425.3 294.49c-2-1.51-4.09-2.34-4.12-3.26-.26-8.19-.15-16.39-.15-24.59 2.29 1.56 3.88 11.22 4.27 27.85z"/><path d="m456.33 333.53c-.88-1.53-2.42-3-2.51-4.59-.37-6.47-.41-13-.29-19.48 0-1.42 1.21-2.82 1.86-4.23.85 1.41 2.39 2.78 2.44 4.23.25 7.51.11 15 .11 22.57z"/><path d="m467.09 304.23v28.35c-3 1.64-4.32.79-4.14-4 .23-6.47.1-13-.19-19.46-.19-4.07.65-6.02 4.33-4.89z"/><path d="m434.33 375.88-6.64.89c-.95-9.66-1.94-18.73-2.67-27.84-.29-3.64 1.85-4.07 3.52-2.17a15.37 15.37 0 0 1 3.63 7.23c1.04 6.94 1.43 14.01 2.16 21.89z"/><path d="m364.22 288.66c-.76-8.28-1.47-16.05-2.2-23.92 5.22-1.73 5.62-1.34 6 5.36.2 4.17.67 8.32 1 12.48.41 4.52-.92 6.86-4.8 6.08z"/><path d="m353.53 264.84h4.77c.64 7.87 1.25 15.43 1.89 23.48h-5.14c-.49-7.57-.98-15.16-1.52-23.48z"/><path d="m468.77 265c-.21 4.48-.39 8.52-.58 12.51-4.14.55-4.14.55-6.92-12.51z"/><path d="m457.51 263.15v15.26c-4.41-3.15-2.86-7.53-3.07-11-.06-1.09 1.64-2.35 3.07-4.26z"/><path d="m369.62 316.13-6.63 2.4c.27-2.66.8-4.49.54-6.12a30.5 30.5 0 0 0 -2-5.63 43.23 43.23 0 0 0 -2.68 4.63c-.37.84 0 2.17-.31 3.08a23.73 23.73 0 0 1 -1.92 3.54c-.65-1.26-1.88-2.56-1.82-3.77.14-2.92.51-8.05 1.43-8.29a20.32 20.32 0 0 1 11.44.15c1.21.43 1.24 6 1.95 10.01z"/><path d="m330.61 277.4c-.69-4-1.37-8.06-2.2-12.93 1.39 0 3.77-.16 3.79 0 .41 4.22.55 8.48.75 12.73z"/><path d="m299.66 371.76h-8.09c0-5.05-.2-9.79.12-14.47.09-1.34 1.57-3.36 2.59-3.54s2.9 1.42 3.14 2.63c.98 4.81 1.47 9.76 2.24 15.38z"/><path d="m280.82 355.51c5.71-1.43 5.71-1.43 7.23 15.39l-5.52 3.38c-.6-6.61-1.14-12.48-1.71-18.77z"/><path d="m219.87 351.37c4-.7 5.64 1.07 5.37 5.45-.22 3.33-.42 6.66-.66 10s-1.45 4.76-4.36 4.09c-3.06-.71-3.26-2.82-2.68-5.9.84-4.47 1.54-8.96 2.33-13.64z"/><path d="m210.06 350.85c1.07 1.28 2.87 2.4 3.09 3.87a76.56 76.56 0 0 1 .64 12.5c0 1.2-1.37 2.35-2.11 3.53-.92-1-2.51-1.88-2.63-3-.52-5.12-.63-10.3-.88-15.45z"/><path d="m122.82 329.51h-11.7c-2-10.79-.22-22.95 4.14-23.29v20l1.85.11c2.94-6.13.67-13.28 1.92-21.77 1.64 1.85 3.58 3 3.64 4.3.33 6.6.15 13.28.15 20.65z"/></g></g></svg>