<svg viewBox="0 0 496.18 496.18" xmlns="http://www.w3.org/2000/svg"><path d="m0 0h496.18v496.18h-496.18z" fill="none"/><g transform="translate(-8.43 -7.22)"><g fill="#fff8ff"><path d="m53.49 373.43c14.44-16.53 30.94-30.76 47.68-44.52 19.61-16.13 38.06-33.67 58.18-49.19 15.37-11.85 31-22.94 48.35-31.28 12.82-6.16 31-3.05 41.13 7.2 6.56 6.65 13.31 13.14 19.08 20.61 1.54 2 3.75 4.61 6.13 1.43 3.84-5.14 9.08-8.49 13.85-12.39 12.63-10.33 23.36-22.83 35.82-33.3 8-6.69 16.43-12.72 24.69-19 8.57-6.55 15.77-14.82 27.18-17.27 8.28-1.78 14.56-1.05 20.73 5 10.19 10 20.91 19.46 31.17 29.41s21.07 19.75 29.79 31.65c4.57 6.25 8.51 13.42 15.73 18.27 0-12.16 1.08-23.88-.22-35.3-3.1-27.23-4.6-54.54-6.3-81.87-1.12-18.11.44-36.16-.55-54.26-1-19.22.67-38.55-1.14-57.8-.6-6.44-3.08-9.69-9.44-9.68-13.14 0-26.23-2.07-39.38-1.22-20.86 1.36-41.75 1.08-62.63 1.08-4.68 0-9.33.3-14 .76a73.52 73.52 0 0 1 -16.71 0c-7.39-1-14.87-1.47-22.08-.42-10.15 1.49-20.15 0-30.16-.18-34-.71-67.95-2.36-101.93-3.52-10.61-.36-21.26 1.07-31.81.87-26.73-.51-53 4.3-79.52 6.08-3.95.27-6.24 2.3-6.56 6.67-.63 8.36-1.93 16.74-2.07 25.11-.34 19.78-2.09 39.58-.11 59.36.82 8.14-1.6 16-1.94 24-.59 13.64-.69 27.31-1 40.95-.73 33.48-1.33 67-2.38 100.44-.72 23.24 2.46 46.29 3.39 69.45.08 2.07.2 4.39 2.19 5.43 2.35 1.21 3.62-1.17 4.84-2.57zm45.81-185.28c0-15.1 12.65-37.65 31.55-44 16.74-5.58 32.47-5.05 48 3a72.84 72.84 0 0 1 11.68 8c11.67 9.26 12 22 10 35.57-2.4 15.65-9.4 28.42-21.78 37.79a36.06 36.06 0 0 1 -13.83 6.09c-23.31 5.42-45.36.33-58.18-21.42-4.23-7.18-7.8-14.85-7.44-25.03z"/><path d="m132.8 194.79c.78 10.82 8.21 15.66 18.19 12.36 9.41-3.11 14-9.59 14.77-19.69.39-5.32 1.49-10.75-3.8-14.11-6.68-4.25-13.72-6.54-21.23-1.9-6.75 4.17-8.57 10.67-7.95 18 0 1.97-.1 3.66.02 5.34z"/><path d="m470.14 427.23v-11.66c0-8-.91-8.78-8.44-7.62a126 126 0 0 1 -26.27.92c-13.06-.72-26.19-1.35-39.24-.8-10.62.45-21.24.8-31.83.28-23.53-1.14-47-1.74-70.6-1.52-32 .3-63.89 6.29-95.93 2.72-10.42-1.16-20.79 1.22-31.2-.75-4.51-.86-9.34-.2-14 .09-21.18 1.3-42.35 2.81-63.54 4-10.61.62-21.22-.2-31.81-1.06-4.84-.4-6.77 1.73-6.75 6.85 0 11 .35 22.06 1.09 33.08.53 8 1.48 9.47 9.2 9.59 9.17.14 18.34.09 27.51.05 13.88-.06 27.6 2.35 41.42 3 19 .95 38.14 1.15 57.21 1.29 9.33.06 18.66-.31 28 0 6.1.19 12.2-1.83 18.3-.83 12.33 2 24.8 1.19 37.17 1.73 28.2 1.24 56.34 2.29 84.45 5.41 16 1.78 32.28.6 48.45 2.52 15.55 1.86 31.24-1.33 46.91-1a40.29 40.29 0 0 0 10.16-1.31c4-.95 7.31-3.76 7.16-8-.48-12.95 3.74-25.54 2.58-36.98z"/><path d="m463.44 311.14c-12.56-13.61-25.49-26.87-37.77-40.76-13-14.74-25.95-29.56-40.44-42.8-7.69-7-9.4-6.84-14.8 2.08a10.12 10.12 0 0 1 -1.57 2.26c-11.64 10.65-21.1 23.78-33 33.88-11.41 9.7-22 20.46-33.86 29.57-2.9 2.22-6 4.22-8.28 7.14-2.72 3.42-3 7.2.46 9.88 5 3.83 8.77 8.65 12.72 13.46a168.06 168.06 0 0 1 15.49 21.53c1.17 2 1.86 3.9.84 6.31-2.9 6.85-12.09 10.25-18.78 7.31-4.16-1.83-6-5.83-8.93-8.76-10.16-10.07-21-19.55-30.13-30.55q-16.95-20.38-34.83-39.8c-3.93-4.27-6.24-4.34-11.18-.9-8.43 5.86-15.37 13.56-23.26 20.06-13.52 11.13-27.38 21.82-40.87 33-10.55 8.73-20.61 18.11-31.17 26.84-7.87 6.5-16.22 12.37-24.29 18.61-1.23.95-3.3 1.85-2.81 3.74.62 2.36 3 1.6 4.66 1.63 5.4.11 10.81 0 16.21.05 26.27.15 52.6-1.17 78.63 4.17a67.74 67.74 0 0 0 15.59 1c12.4-.38 24.78-1.28 37.17-1.8 13.27-.56 26.53-1.38 39.79-1.92 19-.77 38.11-1.93 57.14-2.38 32.58-.77 65.19-.64 97.77 1 7.21 0 14.41-.1 21.62 0 3.81.08 5.11-1.46 5.7-5.5 2.57-17.48 1.44-35.12 2.71-52.65a7.12 7.12 0 0 0 -1.69-5.17c-2.91-3.51-5.73-7.16-8.84-10.53z"/><path d="m499.34 347.27c-.74-31.06.35-62.12-.89-93.21-1.21-30.43-2.83-60.91-1.48-91.42.24-5.39-.87-10.85-.64-16.24.85-20.18 2.21-40.33 1.86-60.55a52.11 52.11 0 0 1 .29-7.29c1.61-13.26 1.08-26.58.6-39.83-.44-12.14-8.46-19.17-20.12-19.26a47.38 47.38 0 0 1 -7.52-.61c-36.64-6.25-73.44-10.65-110.66-9.47a115.63 115.63 0 0 1 -22.06-1.6 37.54 37.54 0 0 0 -6.45-.32c-13.45.25-26.89.73-40.34.8-17 .09-33.9-1.34-51 .71-19.6 2.34-39.5 2.08-59.27 2.73-16.73.55-33.48.54-50.22.89-28.27.6-56.39 3.12-84.57 4.93-16.87 1.08-28.97 9.47-30.35 29.19-.66 9.32-1.28 18.65-1.77 28-1.26 24.28-4.82 48.36-4.16 72.74a84.36 84.36 0 0 1 -.24 9.54c-1.66 19-1.75 38.2-1.42 57.17.31 18.46.28 37 1.35 55.51 1.41 24.44-.36 49 2.26 73.47 1.64 15.4 2.65 30.9 3.19 46.39.41 11.44 3 22.54 3.53 33.93.74 16.21 1.3 32.45 4.53 48.41 2.46 12.19 10.25 23.89 27.05 23.41 21-.59 42.06-.9 63 .23 24.29 1.31 48.56 1.75 72.85 2a55.73 55.73 0 0 1 6.47.25c19.49 2.49 39.11 3 58.68 3.89 24.82 1.09 49.68-.38 74.53 1 17.43 1 34.95.19 54.73.19 26.51.49 55.29 0 84.06-2.1 15.27-1.1 29.31-9.58 31.72-27a426.81 426.81 0 0 0 4.37-55.83c.12-23.54-1.34-47.09-1.91-70.65zm-450.68 28.73c-2-1-2.11-3.36-2.19-5.43-.93-23.16-4.11-46.21-3.39-69.45 1.05-33.47 1.65-67 2.38-100.44.3-13.64.4-27.31 1-40.95.34-8 2.76-15.82 1.94-24-2-19.78-.23-39.58.11-59.36.14-8.39 1.44-16.75 2.06-25.13.32-4.37 2.61-6.4 6.56-6.67 26.52-1.78 52.79-6.59 79.52-6.08 10.55.2 21.2-1.23 31.81-.87 34 1.16 68 2.81 101.93 3.52 10 .21 20 1.67 30.16.18 7.21-1 14.69-.55 22.08.42a73.52 73.52 0 0 0 16.71 0c4.68-.46 9.33-.76 14-.76 20.88 0 41.77.25 62.63-1.11 13.15-.85 26.24 1.24 39.38 1.22 6.36 0 8.84 3.24 9.44 9.68 1.81 19.25.1 38.58 1.14 57.8 1 18.1-.57 36.15.55 54.26 1.7 27.33 3.2 54.64 6.3 81.87 1.3 11.42.22 23.14.22 35.3-7.22-4.85-11.16-12-15.73-18.27-8.72-11.9-19.42-21.57-29.79-31.65s-21-19.39-31.17-29.41c-6.17-6.08-12.45-6.81-20.73-5-11.41 2.47-18.58 10.74-27.18 17.33-8.26 6.31-16.73 12.34-24.69 19-12.46 10.47-23.19 23-35.82 33.3-4.77 3.9-10 7.25-13.85 12.39-2.38 3.18-4.59.57-6.13-1.43-5.77-7.47-12.52-14-19.08-20.61-10.1-10.25-28.31-13.36-41.13-7.2-17.37 8.34-33 19.43-48.35 31.28-20.12 15.52-38.57 33.06-58.18 49.19-16.74 13.76-33.24 28-47.68 44.52-1.22 1.39-2.49 3.77-4.83 2.56zm418.89 88.28c.15 4.27-3.17 7.08-7.16 8a40.29 40.29 0 0 1 -10.16 1.31c-15.67-.33-31.36 2.86-46.91 1-16.17-1.92-32.42-.74-48.45-2.52-28.11-3.12-56.25-4.17-84.45-5.41-12.37-.54-24.84.3-37.17-1.73-6.1-1-12.2 1-18.3.83-9.34-.3-18.67.07-28 0-19.07-.14-38.16-.34-57.21-1.29-13.82-.68-27.54-3.09-41.42-3-9.17 0-18.34.09-27.51-.05-7.72-.12-8.67-1.58-9.2-9.59-.74-11-1.06-22-1.09-33.08 0-5.12 1.91-7.25 6.75-6.85 10.59.86 21.2 1.68 31.81 1.06 21.19-1.23 42.36-2.74 63.54-4 4.67-.29 9.5-.95 14-.09 10.41 2 20.78-.41 31.2.75 32 3.57 63.91-2.42 95.93-2.72 23.6-.22 47.07.38 70.6 1.52 10.59.52 21.21.17 31.83-.28 13.05-.55 26.18.08 39.24.8a126 126 0 0 0 26.28-.94c7.53-1.16 8.43-.37 8.44 7.62v11.66c1.16 11.39-3.06 23.98-2.59 36.96zm6.45-137.39c-1.27 17.53-.14 35.17-2.71 52.65-.59 4-1.89 5.58-5.7 5.5-7.21-.14-14.41 0-21.62 0-32.58-1.62-65.19-1.75-97.77-1-19 .45-38.1 1.61-57.14 2.38-13.26.54-26.52 1.36-39.79 1.92-12.39.52-24.77 1.42-37.17 1.8a67.74 67.74 0 0 1 -15.59-1c-26-5.34-52.36-4-78.63-4.17-5.4 0-10.81.06-16.21-.05-1.67 0-4 .73-4.66-1.63-.49-1.89 1.58-2.79 2.81-3.74 8.07-6.24 16.42-12.11 24.29-18.61 10.56-8.73 20.62-18.11 31.17-26.84 13.49-11.18 27.35-21.87 40.87-33 7.89-6.5 14.83-14.2 23.26-20.06 4.94-3.44 7.25-3.37 11.18.9q17.88 19.46 34.83 39.8c9.14 11 20 20.48 30.13 30.55 3 2.93 4.77 6.93 8.93 8.76 6.69 2.94 15.88-.46 18.78-7.31 1-2.41.33-4.3-.84-6.31a168.06 168.06 0 0 0 -15.49-21.53c-4-4.81-7.74-9.63-12.72-13.46-3.48-2.68-3.18-6.46-.46-9.88 2.32-2.92 5.38-4.92 8.28-7.14 11.88-9.11 22.45-19.87 33.86-29.57 11.89-10.1 21.35-23.23 33-33.88a10.12 10.12 0 0 0 1.57-2.26c5.4-8.92 7.11-9.1 14.8-2.08 14.49 13.24 27.41 28.06 40.44 42.8 12.28 13.89 25.21 27.15 37.77 40.76 3.11 3.37 5.93 7 8.85 10.58a7.12 7.12 0 0 1 1.68 5.12z"/><path d="m164.9 234.57a36.06 36.06 0 0 0 13.83-6.09c12.38-9.37 19.38-22.14 21.78-37.79 2.08-13.52 1.71-26.31-10-35.57a72.84 72.84 0 0 0 -11.68-8c-15.55-8-31.28-8.54-48-3-18.9 6.31-31.52 28.86-31.55 44-.36 10.18 3.21 17.85 7.42 25 12.84 21.78 34.89 26.88 58.2 21.45zm-24.17-63.12c7.51-4.64 14.55-2.35 21.23 1.9 5.29 3.36 4.19 8.79 3.8 14.11-.76 10.1-5.36 16.54-14.76 19.69-10 3.3-17.41-1.54-18.19-12.36-.12-1.68 0-3.37 0-5.31-.65-7.36 1.19-13.86 7.92-18.03z"/></g><path d="m381.45 502.86c-19.78 0-37.3.8-54.72-.19-24.86-1.41-49.72.06-74.54-1-19.57-.85-39.19-1.4-58.67-3.89a56 56 0 0 0 -6.48-.25c-24.29-.23-48.55-.67-72.85-2-20.92-1.13-42-.82-63-.23-16.8.47-24.58-11.22-27-23.41-3.23-16-3.78-32.21-4.53-48.41-.52-11.39-3.12-22.5-3.52-33.93-.55-15.49-1.56-31-3.2-46.39-2.61-24.47-.85-49-2.26-73.47-1.07-18.51-1-37.05-1.35-55.51-.33-18.98-.27-38.18 1.39-57.18a84.42 84.42 0 0 0 .25-9.54c-.67-24.38 2.89-48.46 4.15-72.76.49-9.33 1.11-18.66 1.77-28 1.39-19.7 13.48-28.09 30.33-29.17 28.18-1.81 56.31-4.33 84.58-4.93 16.73-.35 33.48-.34 50.21-.89 19.78-.65 39.67-.39 59.27-2.73 17.12-2.05 34-.62 51-.71 13.45-.07 26.89-.55 40.34-.8a36.67 36.67 0 0 1 6.46.32 116.34 116.34 0 0 0 22 1.6c37.23-1.18 74 3.22 110.67 9.47a47.28 47.28 0 0 0 7.52.61c11.65.09 19.67 7.12 20.11 19.26.49 13.25 1 26.57-.6 39.83a53.59 53.59 0 0 0 -.29 7.28c.35 20.22-1 40.38-1.86 60.56-.22 5.39.88 10.85.64 16.24-1.35 30.51.28 61 1.48 91.42 1.24 31.09.15 62.15.89 93.21.57 23.55 2 47.1 1.89 70.65a426.81 426.81 0 0 1 -4.37 55.83c-2.41 17.42-16.44 25.91-31.71 27-28.7 2.07-57.45 2.6-84 2.11zm91.92-222.81c0-12.17 1.08-23.88-.22-35.3-3.1-27.23-4.59-54.54-6.29-81.87-1.13-18.11.44-36.16-.55-54.26-1.05-19.22.67-38.55-1.14-57.8-.61-6.44-3.08-9.69-9.44-9.68-13.15 0-26.23-2.07-39.39-1.22-20.86 1.35-41.75 1.08-62.63 1.08-4.68 0-9.33.31-14 .77a74.1 74.1 0 0 1 -16.71 0c-7.4-1-14.88-1.47-22.09-.42-10.15 1.49-20.14 0-30.15-.18-34-.71-68-2.36-101.94-3.52-10.61-.36-21.25 1.07-31.81.87-26.73-.51-53 4.3-79.51 6.08-4 .27-6.25 2.3-6.57 6.67-.62 8.35-1.93 16.73-2.06 25.1-.34 19.78-2.08 39.58-.11 59.36.82 8.14-1.59 16-1.94 24-.59 13.65-.68 27.32-1 41-.74 33.48-1.34 67-2.39 100.44-.72 23.23 2.46 46.29 3.39 69.45.08 2.06.2 4.39 2.19 5.43 2.38 1.25 3.61-1.13 4.84-2.53 14.43-16.53 30.93-30.76 47.67-44.52 19.61-16.13 38.07-33.67 58.18-49.19 15.37-11.85 31-22.94 48.35-31.28 12.83-6.16 31-3.05 41.14 7.19 6.56 6.66 13.3 13.15 19.07 20.62 1.55 2 3.75 4.61 6.13 1.43 3.85-5.15 9.09-8.49 13.86-12.39 12.62-10.33 23.35-22.83 35.81-33.3 8-6.69 16.44-12.72 24.69-19 8.57-6.55 15.77-14.82 27.18-17.27 8.28-1.78 14.56-1.05 20.73 5 10.19 10 20.92 19.47 31.17 29.42s21.08 19.75 29.79 31.65c4.6 6.12 8.53 13.32 15.75 18.17zm-29.05 104.95c7.21 0 14.42-.11 21.62 0 3.82.08 5.12-1.46 5.71-5.5 2.56-17.48 1.43-35.12 2.7-52.65a7.08 7.08 0 0 0 -1.69-5.17c-2.91-3.56-5.74-7.21-8.85-10.58-12.56-13.62-25.49-26.87-37.76-40.76-13-14.74-26-29.56-40.45-42.8-7.69-7-9.39-6.84-14.8 2.07a9.93 9.93 0 0 1 -1.56 2.27c-11.65 10.65-21.11 23.78-33 33.88-11.42 9.7-22 20.46-33.86 29.57-2.9 2.22-6 4.22-8.29 7.14-2.72 3.42-3 7.2.47 9.88 5 3.82 8.76 8.64 12.71 13.46a167.1 167.1 0 0 1 15.49 21.53c1.18 2 1.87 3.9.84 6.31-2.9 6.84-12.09 10.25-18.78 7.31-4.15-1.83-6-5.83-8.92-8.76-10.17-10.07-21-19.55-30.14-30.55q-16.95-20.38-34.83-39.8c-3.93-4.27-6.24-4.34-11.18-.9-8.43 5.86-15.36 13.56-23.26 20.06-13.51 11.13-27.37 21.82-40.86 33-10.55 8.73-20.61 18.11-31.17 26.83-7.87 6.51-16.22 12.38-24.3 18.62-1.23.95-3.3 1.85-2.8 3.74.61 2.36 3 1.59 4.65 1.63 5.4.11 10.81 0 16.22.05 26.26.15 52.59-1.17 78.63 4.17a67.65 67.65 0 0 0 15.58 1c12.4-.38 24.78-1.29 37.18-1.81 13.26-.55 26.53-1.37 39.79-1.91 19-.77 38.1-1.93 57.14-2.38 32.58-.7 65.19-.58 97.77 1.05zm26.19 42.23c0-4.92 0-8.29 0-11.66 0-8-.9-8.78-8.43-7.62a126.16 126.16 0 0 1 -26.28.92c-13.06-.72-26.19-1.35-39.23-.8-10.63.45-21.25.79-31.84.28-23.52-1.14-47-1.74-70.59-1.52-32 .3-63.89 6.29-95.94 2.72-10.41-1.16-20.79 1.22-31.19-.75-4.52-.86-9.35-.2-14 .09-21.18 1.3-42.35 2.81-63.53 4-10.62.62-21.23-.2-31.82-1.06-4.84-.4-6.77 1.73-6.75 6.85 0 11 .36 22 1.09 33.08.54 8 1.48 9.47 9.2 9.59 9.17.14 18.34.09 27.51.05 13.89-.06 27.61 2.35 41.42 3 19 .95 38.14 1.15 57.21 1.29 9.33.06 18.66-.31 28 0 6.1.19 12.2-1.83 18.3-.83 12.33 2 24.8 1.19 37.17 1.73 28.2 1.23 56.35 2.29 84.45 5.41 16 1.77 32.29.59 48.45 2.52 15.55 1.86 31.24-1.33 46.92-1a40.21 40.21 0 0 0 10.15-1.31c4-.95 7.31-3.76 7.16-8-.49-12.96 3.73-25.55 2.57-36.98z" fill="#001400"/><path d="m99.67 188.15c0-15.1 12.65-37.65 31.55-44 16.74-5.58 32.47-5.06 48 3a72.4 72.4 0 0 1 11.68 8c11.68 9.26 12 22 10 35.57-2.4 15.65-9.4 28.42-21.79 37.79a36.15 36.15 0 0 1 -13.83 6.09c-23.31 5.42-45.36.32-58.17-21.42-4.23-7.18-7.79-14.85-7.44-25.03zm33.48 1.33c0 1.94-.1 3.63 0 5.31.78 10.81 8.22 15.66 18.19 12.36 9.42-3.12 14-9.59 14.77-19.69.39-5.32 1.5-10.75-3.79-14.11-6.69-4.25-13.73-6.54-21.24-1.9-6.72 4.16-8.55 10.67-7.93 18.03z" fill="#001400"/></g></svg>