<svg viewBox="0 0 496.18 496.18" xmlns="http://www.w3.org/2000/svg"><path d="m491.64 380.76c-5.85-3.32-6-9.12-.41-12.83 4.36-2.9 4.36-6.26-.17-8.62-2.52-1.31-4-3.15-4-5.94a7.44 7.44 0 0 1 3.83-6.73c1.17-.74 3.62-.24 3.36-2.33-.22-1.69-2.43-1.53-3.75-2.17-3.64-1.76-4.42-4.86-4.17-8.5s1.61-6.56 5.62-7.45c1.24-.27 2.94 0 3.11-1.93.18-2.09-1.45-2.33-2.95-2.78-3.36-1-4.83-3.5-5.05-6.87s.68-6.37 4.09-8c1.13-.55 3.06-.61 2.66-2.46s-2.29-.92-3.5-1.22c-6.43-1.63-8.38-7.38-4.15-12.45a9.58 9.58 0 0 1 5.41-3.6 2.68 2.68 0 0 0 2.48-2.72 2.91 2.91 0 0 0 -2.38-3.36c-3.68-.93-6.14-3.15-6.11-7.09s2.48-6.5 6.26-7.7c1.44-.45 3.09-.7 3.21-2.71.14-2.35-1.82-2.56-3.32-3.2-3.24-1.39-5.36-3.76-5.4-7.33s2-6 5.4-7.21a5.13 5.13 0 0 0 1.19-.88c-9.57-6.14-9.66-10.61-.44-17.8 2.49-1.94 1.7-3.36-.74-4.4-2-.87-4.06-1.68-5.37-3.65-3.48-5.29-1.73-10.61 4.57-13.59 1.37-.65 3-1 3.37-2.75.42-2.22-1.64-2.21-2.82-3-3.18-2-5.39-4.76-5.32-8.69.09-4.5 3.38-6.26 7.78-7.51-9-7-9-11.55-.66-17.14.72-.49 1.53-.92 1.38-1.89s-1.13-1.14-2-1.33c-4.09-.94-5.89-3.93-6.24-7.72-.37-4 1.68-6.72 5.33-8.37 2.78-1.27 3.06-2.84.48-4.84-7.51-5.81-7.32-11.87.57-17.72a6.2 6.2 0 0 0 -1.21-.85 7.59 7.59 0 0 1 -5.36-8.28c.26-3.91 2.39-6.21 6.43-6.55a2.22 2.22 0 0 0 2.35-2.2c.11-1.68-1.11-2.21-2.34-2.92-9.52-5.51-9.77-12.09-.72-17.78.72-.45 1.7-.72 1.59-1.74s-1.13-1-1.9-1.37c-6.31-2.75-7.45-5.59-5.54-11.83 1-3.2 5.07-4.56 5.13-7.16.07-3-5.05-3.52-5.78-7.05-.26-1.24-.46-2.81-2.41-2.72-1.79.09-2.52 1.29-3.33 2.69-4.39 7.6-10.86 7.6-15.47 0-.74-1.22-1.35-2.36-3-2.33a2.82 2.82 0 0 0 -2.82 2.45c-.8 3.13-2.54 5.3-6 5.21s-6.3-1.14-8.22-4.2c-3.13-5-4.73-4.94-7.9.14-2.63 4.22-6.82 4.5-10 .66-4-4.92-5.39-4.9-9.39.15-3.65 4.59-10.45 4.74-13.36-.27-2.67-4.6-3.86-3-6.2.13-3.95 5.26-10.36 5-14.18-.14-3.16-4.32-4.16-4.32-7.51.14a9 9 0 0 1 -15-.17c-2.76-4.21-4.52-4.28-7.92-.29-3.57 4.18-8.41 4.2-12.23 0s-4.87-4-7.88.34c-3.59 5.22-9.89 5.09-13.35-.24-.71-1.08-.62-2.71-2.16-3.22-7.32 8.38-7.84 8.41-17.36 1.14-2.44-1.86-3.76-.84-5.13 1.57-3.29 5.75-10 6.52-13.58 1.16-3.13-4.65-4.56-3.95-7.43.15-4.3 6.16-11 5.38-14.43-1.33-2.23-4.3-4-2.15-5.81.27-4.54 6-10.91 5.76-14.73-.56-2.5-4.15-3.49-4.12-6 .17-3.51 6.08-9.72 6.45-13.92.83-3.42-4.58-5.81-4.41-8.83.77-2.31 3.94-5.47 4.7-9.51 3a8.78 8.78 0 0 1 -5.12-6c-.39-1.24-.51-2.84-2.37-2.83-1.41 0-1.89 1.14-2.5 2.19-4.7 8.16-10.25 8.45-15.72.78-1.89-2.65-3.53-3.21-5 .21s-3.9 5.75-7.78 5.3-6.18-3.17-7.06-7c-.37-1.6-.51-3.51-3.05-3.17-2.26.3-3.08 1.64-3.34 3.77-.47 3.9-2.18 7-6.6 7-4.08 0-6.46-2.52-7.52-6.38-.43-1.54-.28-3.69-2.72-3.61-2.26.07-2.36 2.07-2.84 3.66-1.09 3.57-3.25 6-7.19 6.11-3.65.1-6.64-1.2-8.21-4.8-.68-1.54-1.16-3.34-3.4-3.16s-2.23 2.23-2.93 3.69c-2 4.22-5.32 5.44-9.64 3.59a10.28 10.28 0 0 1 -5.17-4.69c-1.72-3.26-3.48-2.61-5.28-.11a29.77 29.77 0 0 1 -3.25 4.51 6.76 6.76 0 0 1 -11-2.06c-3.43-7.05-3.43-7.05-8.41-.66a16.18 16.18 0 0 1 -2 2.32c-4.14 3.64-9.57 2.16-11.44-3-.54-1.49.18-3.86-2-4.24-2.69-.47-3.07 2.25-4.11 3.82-2.25 3.42-4.83 6.45-9.35 5.76s-5.92-4.06-6.34-8.1c-.12-1.19-.25-2.48-1.84-2.61-1.23-.11-1.77.82-2.22 1.75-1.65 3.4-3.58 6.46-7.06 8.42-2.25 1.26-1.44 2.34.51 3.58 6.22 3.94 6.5 10 .5 14.23-3.7 2.59-2.9 4 .24 6.32 5 3.61 5.06 8.52.09 12.13-3.57 2.59-4.17 4.31-.24 7.17 4.56 3.33 4.07 10.35-.57 13.42-5.2 3.45-5.2 3.45.63 6.71 6 3.36 6.39 11 .8 15.17-1.17.88-3 .76-3.72 2.33 10 6.23 10.26 9.91 1.56 18-2.38 2.21-2 3.88.71 5.61 6.2 4.05 6.62 9.58 1 14.38-2.25 1.91-2.42 3.07-.35 5.25 4.25 4.47 4.05 9.23-.81 12.48-4.2 2.82-3.3 4.48.15 7.06 5.06 3.79 5.41 9.52.66 12.78-3.81 2.61-3 4.32-.31 7.08 4.88 5 4.36 10.22-1.09 14.12-1.29.93-2.56 1.72-2.37 3.55.22 2 1.94 2.09 3.38 2.47a7.81 7.81 0 0 1 6.23 7.65c.2 4-1.26 7.3-5.15 9.13-1 .48-2.67.54-2.73 1.94-.07 1.78 1.79 1.73 2.95 2.24 3.57 1.55 5.07 4.48 5 8.11s-1.95 6-5.41 7.22c-.85.3-2.16.06-2.37 1.47 10 5.94 10.53 10.67 1.78 17.79-2.7 2.19-1.15 3.07.79 4.43 5.8 4.07 5.93 10.2.15 14-2.79 1.86-3 2.65.07 4.39 7 4 7 12.37-.08 16.67-3.69 2.24-3.49 4-.26 6.37 5.42 4 5.44 9.47-.16 13.19-2.87 1.91-3.22 2.9-.25 5 7.68 5.35 7.47 10.73-.61 15.31-3 1.68-2.26 2.62 0 4.18 7.22 4.94 7.31 8.8.29 14.47-2.06 1.66-1.93 2.78-.08 4.4 7 6.16 7.14 8.61.45 15-2.72 2.57-2.44 4.29.38 6.5 7.64 6 7.55 11.82-.24 17.47-3.29 2.4-2.93 4.26.45 5.91 2.22 1.09 4.07 2.45 4.95 4.84.64 1.76 1.65 2.92 3.72 2.77 1.89-.14 2.5-1.47 3-3 1.07-3.36 3.07-5.79 6.86-5.72a9 9 0 0 1 8.47 5.48c.53 1.14.19 3.14 2 3.14s2.06-1.94 2.76-3.25c2.45-4.56 7.26-6.05 12.15-4 3 1.25 4.35 4 6 6.66 6.66-10.63 12.72-10.62 19.29-.37.46.72.82 1.66 1.81 1.37 1.19-.35 1.06-1.61 1.25-2.57.84-4.11 3.69-6 7.54-6.38a8.75 8.75 0 0 1 9 4.55c3 5.16 3 5.17 6.08.27 2.06-3.25 4.84-5.37 8.82-4.83 3.82.51 6.59 2.54 7.46 6.59.2.94.17 2.1 1.51 2.42 1.8-.67 1.42-2.52 1.94-3.84q2.46-6.33 9.13-5.66c4.33.43 6.55 3.09 7.35 7.22.24 1.21-.81 3.08 1.11 3.48 2.21.47 2.11-1.7 2.68-3 3.07-6.93 10.7-7.92 15.41-2 3.54 4.45 4.28 4.48 6.93-.3 1.65-3 3.92-4.68 7.34-4.41a7.94 7.94 0 0 1 7.38 5.32c.5 1.33.2 3.37 2.31 3.48s2.13-1.87 2.91-3.09c3.39-5.25 10.59-5.63 14.18-.75s3.68 5 7.62-.22c3.73-4.94 9-5.07 12.71-.31 4 5.12 4.22 5.12 7.6-.68 1.87-3.21 4.48-5.09 8.3-4.71s6.29 2.26 7.37 6c.5 1.7.35 4 3.05 3.94 2.46-.08 2.63-2.28 3.31-3.95 1.4-3.42 3.73-5.89 7.58-5.72s6 2.77 7.27 6.21c.51 1.36 0 3.68 1.78 3.86 2.34.23 1.88-2.37 2.46-3.77 2.5-6.11 9.62-7.87 13.29-3.06 1.27 1.67 1.85 3.87 2.75 5.85 3.66-7.52 6.33-10.47 10.14-10.21 6.92.47 10.16 4.93 10.75 11.78 2.08-1.05 2.22-2.5 2.6-3.73 1.27-4.14 3.88-6.78 8.29-7.11 4-.3 6 2.21 7.53 5.61s3.72 3.21 6.06.19c5.5-7.13 11.17-7.15 16.06.23 2.08 3.14 2.73 2 3.74-.55 1.62-4.09 5-5.44 9-5a10.43 10.43 0 0 1 9 6.62c.72 1.71 1.52 3.33 3.4.69 6.4-9 10-9.15 16.89-.78 1.58 1.9 2.55 2.44 3.92-.33 3.39-6.89 10.79-7.32 15.13-1 3.3 4.76 3.69 4.73 6.49-.63 3.12-6 9.8-6.65 13.38-1 2.63 4.18 4 4.88 6.69.08 1.93-3.46 5.21-6.14 9.68-5.06 4.05 1 5.25 4.43 5.71 8.17.08.64.12 1.39 1.19 1.47a4.27 4.27 0 0 0 .59-1.19c.64-5 2.77-8.93 8.16-9.61 5.19-.66 7.38 3.26 9.36 7.15.15.3.29.62.42.93 1.37 3.16 3.24 2.69 4.85.39 1.47-2.08 2.79-4.25 4.87-5.8 5.55-4.13 5.55-4.2-.05-7.87s-5.52-10.66.31-14c1.4-.81 3.51-1 3.36-3.24-.13-2-2-2-3.38-2.53a6.51 6.51 0 0 1 -4.39-6.75c.1-3.32 1.34-6.06 4.86-6.9 2.06-.5 3.36-1.21 3.39-3.61 0-2.57-1.6-3-3.52-3.44-3.41-.82-5.32-3.09-5.16-6.59a6.83 6.83 0 0 1 5.72-6.84c1.41-.33 3.27 0 3.63-2 .42-2.66-1.77-2.93-3.35-3.83z" fill="#fff8ff" transform="translate(-6.75 -8.39)"/><path d="m499.44 395.4c-1.36-2-1.39-2.46.42-4.15 4-3.75 2.63-8.79 2-13.43-.4-3.11-3-3.69-6.1-3.65 5.5-3.65 7.39-10.23 5.67-17.81-.79-3.53-3.48-3.56-6.68-3.92 6.75-.86 7.06-5.27 6.81-10.27-.22-4.55-1.84-7.11-6.85-6.37-1 .14-1.53-.71-1.41-1.69s1-1.3 1.85-1.3c2.29 0 4.7-.2 5.62-2.61 1.56-4.08 1.14-8.39.31-12.53-.76-3.72-4.51-2-6.75-3.1-.21-.1-.22-.58-.32-.88 6-3.07 6.67-4.18 6.58-11.4-.08-6.27-1.37-7.4-7.48-6.45-.85.14-1.75.58-2.11-.52s.44-1.57 1.26-1.9 1.62-.49 2.42-.76c5.36-1.85 6.39-4.11 5.81-12.25-.31-4.36-1.78-7.49-7.31-7.09 3.92-1.17 8-1.61 8.25-6.54a38.91 38.91 0 0 0 -.29-9.1c-.81-4.1-6-2.1-8.06-4.7.46-1.15 1.16-1 1.82-1 3 .08 6-.68 6-4 0-3.86.24-8.31-4.13-10.67-1.32-.72-4 .36-3.84-2.23.1-2.14 2.52-1.82 3.95-2.56 5.46-2.83 3.51-7.9 3.38-12.22-.1-3.59-2.53-4.9-6.06-4.12a2.62 2.62 0 0 1 -3.45-2.12c-.46-1.85.64-2.86 2.22-3.44 1.11-.41 2.28-.66 3.39-1.07 3.8-1.4 6.11-6 5.43-10.94-.56-4.12-2.46-6.61-7.15-5.73-.82.16-1.6-.51-1.19-2.19 3.08.4 7.16 1.64 7.85-3.23.39-2.8-.13-5.73-.29-8.6-.21-3.86-4.15-3.48-6.63-5.13 7.6-3 8.38-3.85 7.92-9.06a18 18 0 0 0 -1.75-7.36c-1.5-2.7-4.5-1.28-6.71-2 .19-.57.21-.84.3-.87 4.66-1.42 7-4.69 6.8-9.43-.17-4.14.12-8.73-5.88-9.68-1.67-.26-1.82-1.75 0-2.83 6.29-3.76 7.58-6.78 5.36-13.42a5.76 5.76 0 0 1 .29-4.65c1.79-4.35 1.21-9 .39-13.5-.62-3.39-3.95-3.14-6.44-4a2.88 2.88 0 0 1 -2-3.21c.26-1.84 1.76-1.82 3.12-1.81 3.67 0 5.4-2.07 5.3-5.39a38.39 38.39 0 0 0 -1.4-8.52c-.52-2-2.16-2.88-4.31-2.79-1.31.06-3.32 1.5-3.55-1.15a3.45 3.45 0 0 1 2.73-3.81c3.36-.8 4.74-3 4.75-6.26a7.39 7.39 0 0 0 -4.54-7.3c-1.55-.72-3.33-1.36-3.3-3.42.08-4.71-2.76-6.58-6.78-6.23-4.22.36-9.74-.94-10.83 5.7-.19 1.19-.48 2.52-2 2.44-1.31-.07-1.39-1.31-1.49-2.32-.34-3.66-2.87-4.74-6-5-5.9-.46-11.69-.6-12.86 8.07-2.32-3-.37-7.48-4.23-7.89-5.27-.56-10.89-1.86-15.29 2.78-.59.62-.58 1.74-2.08.51-6.57-5.4-12.51-4.42-18 2.68-1.53 2-2.66 1.47-3-.6-.55-3.36-2.2-5.58-5.66-5.16-3.8.48-8.51-.68-10.44 4.42-.49 1.27-1 2.74-2.66 2.64-1.5-.09-1.68-1.5-2-2.62-.9-3.16-3.17-4.38-6.19-4-4 .52-8.89-1.09-10.91 4.3-.56 1.48-1 3.09-2.81 3.18-2.15.1-2.69-1.73-3.22-3.36-.75-2.28-2-4.12-4.62-4-5.2.21-11.51-2.51-14.29 6.72-1.51-7.24-5.4-7.47-10.28-7.21s-8.15 2.27-9.72 7.57c-.9-1.33-1.36-1.7-1.4-2.11-.27-3.12-1.17-5.86-4.84-6.06-4.05-.22-8.31-.64-10.35 4.29-1.45 3.51-3 2.77-4.15-.17-1.4-3.52-4.28-4.33-7.46-3.82-3.47.57-7.85-.2-9.18 4.7-.26 1-.19 2.3-1.45 2.39-1.53.1-1.75-1.38-2.1-2.47-2.09-6.46-7.77-3.16-11.78-4.24-3.12-.83-3.87 1.85-4.57 4.23-.32 1.09-.76 2.43-2.26 2.36-1.26-.06-1.44-1.3-1.79-2.21-.81-2.12-1.76-4-4.24-4.67-5.11-1.34-12.34 1.7-15.24 7.2-.69-7.83-5.51-8.4-11.35-8.45s-7.18 3.75-8.33 8.7c-.89-1-1.53-1.45-1.66-2-1-4-3.37-6.45-7.67-5.55-3.6.75-7.6-.3-10.76 2.26-.6.49-.81 1.45-1.2 2.19-.54 1 .6 3.17-1.61 3-1.42-.09-1.28-1.77-1.65-2.86-1.29-3.9-3.79-6.64-8.06-6.42-4 .2-8.49.31-9.21 5.92-.11.83-.26 1.82-1.3 1.94s-1.47-.75-1.63-1.59c-1-5.38-5-5.83-9.28-5.66s-8.58.65-9.58 6.31c-.58-3.77-.78-8-5.36-8.31-4.9-.37-10.29-1.57-14.29 3-.64.72-1.22 1.23-2 .33-3.55-4-8.2-2.27-12.45-2.27s-6.91 1.7-6.23 6.54c.14 1 .4 2.37-.94 2.48-1.69.14-1.57-1.5-1.66-2.6-.36-4.35-3-5.75-7-5.51-2.88.17-5.75.18-8.51 1.25-3.17 1.23-2.1 5-4.49 7.43-1.28-3.44-1.07-8.23-5.62-7.6-4.75.66-10.88-2.26-14.08 5.34-.94-7.29-5.78-6.94-10.55-8.08-7.09-1.7-6.36 5.9-10.82 7.72-.74-7.17-6-6.56-11-7.24-7.23-1-6 6.9-10.15 9.07-.38-.53-.91-.93-.91-1.32 0-5.49-3.07-7.92-8.11-8.53s-8.5 1.37-9.83 6.54c-.53 2-1.63 4.06-3.87 4.33-6.53.79-5 5.7-5.2 9.71-.24 4.16.69 7.52 6.26 7.65-7.79 2.46-4.7 9-5.91 13.56-1.06 4 2.68 4.94 6.22 6.1-2.85 1.06-5.25 1.45-5.53 4.24-.31 3.2-.76 6.4-.83 9.61-.07 2.78.83 5.09 4.32 5 1 0 2.28-.15 2.06 1.4-.17 1.27-1.34 1.3-2.39 1.31-1.77 0-3.31.44-4.28 2.17-2.89 5.1-.09 13.46 5.4 15.93.75.33 1.85.26 1.91 1.33s-.83 1.83-1.84 2.12c-1.75.5-3.72.4-4.89 2.26-4 6.43-.55 14.13 7 14.83-1.12 3.44-6.31 1.94-6.92 5.95a52.47 52.47 0 0 0 -.29 9.62c.11 4 4 4.27 6.43 6.07-7.3 4.47-7.95 12.47-1.58 18.16-5.41 1.57-5.88 5.31-5.68 10.31.21 5.16 1.78 8.5 7.74 9.64-7.94 4.42-8.52 11.76-2.63 17.36 1.83 1.75 3.67 3.85-.62 5-2.55.66-3.37 2.57-3.79 4.88-1 5.72.93 9.94 6.13 12.64 1 .53 2.37 1 2.08 2.5-.23 1.22-1.48 1.22-2.47 1.32-3.38.34-4.39 2.72-4.93 5.58-1.19 6.21 1.11 10.48 7.92 12.29-1.2.9-1.55 1.36-2 1.44-3.33.61-6.83 1.45-6.42 5.69s-1.35 10.26 6.06 10.81c.67.05 1.44.24 1.54 1.06.17 1.33-.91 1.77-1.86 2-4.41 1-5 4.14-5.3 8.05-.46 5.11 1.56 8.26 6.6 10.4-5.46.88-6.66 4.2-6.51 8.62s.65 8.25 6.17 8.81a1.83 1.83 0 0 1 1.61 2.21 2 2 0 0 1 -2 1.94c-4.41.1-5.07 3.25-5.48 6.59a16.77 16.77 0 0 0 .26 7.55c.86 2.62 4 2.85 5.64 5.47-4.13.59-6.08 2.7-6.16 6.54-.08 4.27.14 8.23 5 10.07 1.06.41 2.48.95 2.13 2.43s-1.83 1.25-3 1.36c-3.14.31-4.19 2.2-4.4 5.16-.39 5.43.48 10.07 7 12.18-3.77 1.34-6.75 2.33-6.73 6.53 0 4.56-.09 8.91 5.27 10.89 2.9 1.07 2 2.53.08 3.93-6.73 4.85-6.48 12.15.54 16.93 4.09 2.77 4 4.83-.3 7.38-4.48 2.65-7.46 8-5 12.37 2.61 4.69 6.94 8.6 11.12 12.13 1.62 1.37 4.89.78 7.41 1.09 6.66.8 7.12.47 8.8-6.14.2-.8.45-1.68 1.87-1.68 1.49 2.19-1 5.78 2.35 7.55 4.28 2.24 13-.7 14.94-5.31.55-1.3 1-2.66 2.7-2.56s1.93 1.62 2.12 3c.32 2.41.61 5.32 3.93 4.62 2.52-.52 4.61.06 6.91.59 4.81 1.12 6.5-.43 6.07-5.43-.1-1.16-.72-2.67.91-2.93 1.81-.29 2 1.24 2.11 2.72.48 6.38 1.73 7.06 10.87 7 5 0 7.41-1.86 6.24-7.13-.27-1.21-.13-2.52 1.44-2.74 1.23-.17 1.63.78 2 1.83a11.53 11.53 0 0 0 15.42 6.1 3.88 3.88 0 0 0 2.29-3.13c.24-1.8 0-4.32 2.43-4.34 2.11 0 1.81 2.48 2.26 4 1.28 4.34 4.95 5.91 11.69 5.23 4.41-.44 4.42-3.25 4-6.6-.17-1.45-.1-3.62 1.82-3.61 2.32 0 1.5 2.16 1.33 3.56-.45 3.71.49 6.69 4.69 6.92 8.5.46 12.24-.47 12.31-5.31 0-1.52.09-3.34 2.11-3.52s2.39 1.58 2.7 3.07c.74 3.43 2.41 5 6.15 3.89a10.94 10.94 0 0 1 4.53-.11c3.4.45 5.59-.72 6.51-4.12.25-.93.24-2.3 1.51-2.37 1.66-.09 1.57 1.51 1.82 2.58 1.15 5 5.08 5.38 9.1 5.44 3.81.07 7.23-.59 7.64-5.45.09-1.05.69-2.08 1.91-1.93 1.48.2 1 1.48 1 2.44-.07 3 1.81 4.1 4.39 4.66 5.51 1.17 9.13-.37 12.46-5.19.88-1.26 2.89-4.33 3.62-1.36 1.58 6.47 6.37 5.46 10.65 6.27 4.66.88 7.64-.47 8.25-5.58.15-1.17-.18-3.19 1.85-2.93 1.47.2 1.12 1.91 1.1 3-.1 5 2.71 6.44 7.15 6.36 6.5-.12 11.85-1.83 13.32-9.7 1.78 4.13-.71 9.62 5.44 10.34 3.36.39 6.82.45 10-1.2 3.34-1.77 2-6 4.3-9.18a23 23 0 0 1 .73 2.67c.5 4.48 2.43 7 7.47 7.12s7.4-1.6 7.23-6.66a2.75 2.75 0 0 1 .48-1.43c.91-1.43 1-4.09 3.74-3.05 2.43.95 1.77 2.86 1 4.7-1.37 3.25-.67 5.75 3 6.64 7 1.71 11.86-1.05 13.92-7.81.4-1.34.79-2.92 2.43-2.78s1.2 1.78 1.4 2.89c.53 2.84.62 6 4.82 5.8 2.87-.16 5.74-.35 8.62-.51a4.76 4.76 0 0 0 4.45-2.82c.59-1.26 0-3.58 2.11-3.54 1.83 0 1.77 2.23 2.42 3.53 2.33 4.64 6.83 2.89 10.42 3.35 2.84.37 4.68-1.59 5.08-4.58.21-1.53.39-3.3 2.36-3.39 2.27-.1 3.15 1.57 3.66 3.54.89 3.46 3.22 5.09 6.74 4.87s7.42.28 8.56-4.48c.34-1.38.95-2.74 2.47-2.91 1.82-.2 2 1.45 2.42 2.72.94 2.91 2.87 5 6 4.36 3.66-.73 8.64.93 10.16-4.64.26-.95.23-2.29 1.49-2.38 1.59-.11 1.7 1.41 2 2.49.69 2.47 1.91 4.53 4.69 4.67 8.41.43 11.61.48 12.95-6.82a1.12 1.12 0 0 1 1.52-.93c2.15 6.87 5.8 8.67 12.39 6.14 2.58-1 4-3 5.12-5.36.56-1.21 1.2-2.8 2.72-2.67 1.73.15 1.64 2 1.72 3.24.31 4.74 3 6.52 7.44 6.33s7.56-1.67 7.3-6.92c-.08-1.65 0-3.85 2-4.22 2.5-.47 3 2.07 3.35 3.68.87 3.63 2.39 7.14 6.5 6.18 3.9-.91 10.28 1.61 10.79-6a3.85 3.85 0 0 1 3.23-3.48c5.12-.75 5.84-4.55 6.06-8.58s-1.18-7.29-5.37-8.82c-1-.37-2.38-.69-2.25-2.72 5.62-.69 8.77-3.68 7.94-9.81a37.35 37.35 0 0 0 -.42-4.54 17.39 17.39 0 0 1 0-8.36c1.04-4.92 1.45-10.3-1.52-14.77zm-4.44-10.89c-.36 2.07-2.22 1.71-3.63 2a6.83 6.83 0 0 0 -5.72 6.84c-.16 3.5 1.75 5.77 5.16 6.59 1.92.46 3.56.87 3.52 3.44 0 2.4-1.33 3.11-3.39 3.61-3.52.84-4.76 3.58-4.86 6.9a6.51 6.51 0 0 0 4.39 6.75c1.34.53 3.25.51 3.38 2.53.15 2.28-2 2.43-3.36 3.24-5.83 3.38-6 10.34-.31 14s5.6 3.74.05 7.87c-2.08 1.55-3.4 3.72-4.87 5.8-1.61 2.3-3.48 2.77-4.85-.39-.13-.31-.27-.63-.42-.93-2-3.89-4.17-7.81-9.36-7.15-5.39.68-7.52 4.62-8.16 9.61a4.27 4.27 0 0 1 -.59 1.19c-1.07-.08-1.11-.83-1.19-1.47-.46-3.74-1.66-7.18-5.71-8.17-4.47-1.08-7.75 1.6-9.68 5.06-2.68 4.8-4.06 4.1-6.69-.08-3.58-5.69-10.26-5-13.38 1-2.8 5.36-3.19 5.39-6.49.63-4.34-6.29-11.74-5.86-15.13 1-1.37 2.77-2.34 2.23-3.92.33-6.92-8.37-10.49-8.22-16.89.78-1.88 2.64-2.68 1-3.4-.69a10.43 10.43 0 0 0 -9-6.62c-4-.47-7.42.88-9 5-1 2.53-1.66 3.69-3.74.55-4.89-7.38-10.56-7.36-16.06-.23-2.34 3-4.58 3.07-6.06-.19s-3.53-5.91-7.53-5.61c-4.41.33-7 3-8.29 7.11-.38 1.23-.52 2.68-2.6 3.73-.59-6.85-3.83-11.31-10.75-11.78-3.81-.26-6.48 2.69-10.14 10.21-.9-2-1.48-4.18-2.75-5.85-3.67-4.81-10.79-3.05-13.29 3.06-.58 1.4-.12 4-2.46 3.77-1.78-.18-1.27-2.5-1.78-3.86-1.29-3.44-3.47-6.05-7.27-6.21s-6.18 2.3-7.58 5.72c-.68 1.67-.85 3.87-3.31 3.95-2.7.09-2.55-2.24-3.05-3.94-1.08-3.72-3.64-5.62-7.37-6s-6.43 1.5-8.3 4.71c-3.38 5.8-3.6 5.8-7.6.68-3.72-4.76-9-4.63-12.71.31-3.94 5.22-3.94 5.22-7.62.22s-10.79-4.5-14.18.75c-.78 1.22-.92 3.19-2.91 3.09s-1.81-2.15-2.31-3.48a7.94 7.94 0 0 0 -7.38-5.32c-3.42-.27-5.69 1.43-7.34 4.41-2.65 4.78-3.39 4.75-6.93.3-4.71-5.92-12.34-4.93-15.41 2-.57 1.28-.47 3.45-2.68 3-1.92-.4-.87-2.27-1.11-3.48-.8-4.13-3-6.79-7.35-7.22s-7.49 1.44-9.13 5.66c-.52 1.32-.14 3.17-1.94 3.84-1.34-.32-1.31-1.48-1.51-2.42-.87-4.05-3.64-6.08-7.46-6.59-4-.54-6.76 1.58-8.82 4.83-3.11 4.9-3.12 4.89-6.08-.27a8.75 8.75 0 0 0 -9-4.55c-3.85.35-6.7 2.27-7.54 6.38-.19 1-.06 2.22-1.25 2.57-1 .29-1.35-.65-1.81-1.37-6.57-10.25-12.63-10.26-19.29.37-1.65-2.67-3-5.41-6-6.66-4.89-2-9.7-.55-12.15 4-.7 1.31-.9 3.26-2.76 3.25s-1.46-2-2-3.14a9 9 0 0 0 -8.47-5.48c-3.79-.07-5.79 2.36-6.86 5.72-.49 1.52-1.1 2.85-3 3-2.07.15-3.08-1-3.72-2.77-.88-2.39-2.73-3.75-4.95-4.84-3.38-1.65-3.74-3.51-.45-5.91 7.79-5.65 7.88-11.5.24-17.47-2.82-2.21-3.1-3.93-.38-6.5 6.69-6.35 6.56-8.8-.45-15-1.85-1.62-2-2.74.08-4.4 7-5.67 6.93-9.53-.29-14.47-2.28-1.56-3-2.5 0-4.18 8.08-4.58 8.29-10 .61-15.31-3-2.07-2.62-3.06.25-5 5.6-3.72 5.58-9.16.16-13.19-3.23-2.4-3.43-4.13.26-6.37 7.07-4.3 7.11-12.63.08-16.67-3-1.74-2.86-2.53-.07-4.39 5.78-3.83 5.65-10-.15-14-1.94-1.36-3.49-2.24-.79-4.43 8.75-7.12 8.24-11.85-1.78-17.79.21-1.41 1.52-1.17 2.37-1.47 3.46-1.13 5.41-3.56 5.41-7.14s-1.44-6.56-5-8.11c-1.16-.51-3-.46-2.95-2.24.06-1.4 1.7-1.46 2.73-1.94 3.89-1.83 5.35-5.12 5.15-9.13a7.81 7.81 0 0 0 -6.26-7.69c-1.44-.38-3.16-.44-3.38-2.47-.19-1.83 1.08-2.62 2.37-3.55 5.45-3.9 6-9.11 1.09-14.12-2.69-2.76-3.5-4.47.31-7.08 4.75-3.26 4.4-9-.66-12.78-3.45-2.58-4.35-4.24-.15-7.06 4.86-3.25 5.06-8 .81-12.48-2.07-2.18-1.9-3.34.35-5.25 5.66-4.8 5.24-10.33-1-14.38-2.66-1.73-3.09-3.4-.71-5.61 8.7-8.06 8.39-11.74-1.56-18 .74-1.57 2.55-1.45 3.72-2.33 5.59-4.19 5.23-11.81-.8-15.17-5.83-3.26-5.83-3.26-.63-6.71 4.64-3.07 5.13-10.09.57-13.42-3.93-2.86-3.33-4.58.24-7.17 5-3.61 4.9-8.52-.09-12.13-3.14-2.27-3.94-3.73-.24-6.32 6-4.19 5.72-10.29-.5-14.23-2-1.24-2.76-2.32-.51-3.58 3.48-2 5.41-5 7.06-8.42.45-.93 1-1.86 2.22-1.75 1.59.13 1.72 1.42 1.84 2.61.42 4 1.95 7.42 6.34 8.1s7.1-2.34 9.35-5.76c1-1.57 1.42-4.29 4.11-3.82 2.22.38 1.5 2.75 2 4.24 1.87 5.17 7.3 6.65 11.44 3a16.18 16.18 0 0 0 2-2.32c5-6.4 5-6.4 8.41.69a6.76 6.76 0 0 0 11 2.06 29.77 29.77 0 0 0 3.33-4.47c1.8-2.5 3.56-3.15 5.28.11a10.28 10.28 0 0 0 5.17 4.69c4.32 1.85 7.62.63 9.64-3.59.7-1.46.68-3.51 2.93-3.69s2.72 1.62 3.4 3.16c1.57 3.6 4.56 4.9 8.21 4.8 3.94-.11 6.1-2.54 7.19-6.11.48-1.59.58-3.59 2.84-3.66 2.44-.08 2.29 2.07 2.72 3.61 1.06 3.86 3.44 6.36 7.52 6.38 4.42 0 6.13-3.07 6.6-7 .26-2.13 1.08-3.47 3.34-3.77 2.54-.34 2.68 1.57 3.05 3.17.88 3.86 3.07 6.57 7.06 7s6.28-1.88 7.78-5.3 3.13-2.86 5-.21c5.47 7.67 11 7.38 15.72-.78.61-1 1.09-2.19 2.5-2.19 1.86 0 2 1.59 2.37 2.83a8.78 8.78 0 0 0 5.12 6c4 1.7 7.2.94 9.51-3 3-5.18 5.41-5.35 8.83-.77 4.2 5.62 10.41 5.25 13.92-.83 2.47-4.29 3.46-4.32 6-.17 3.82 6.32 10.19 6.56 14.73.56 1.83-2.42 3.58-4.57 5.81-.27 3.47 6.71 10.13 7.49 14.43 1.33 2.87-4.1 4.3-4.8 7.43-.15 3.6 5.36 10.29 4.59 13.58-1.16 1.37-2.41 2.69-3.43 5.13-1.57 9.52 7.27 10 7.24 17.36-1.14 1.54.51 1.45 2.14 2.16 3.22 3.46 5.33 9.76 5.46 13.35.24 3-4.37 4.14-4.41 7.88-.34s8.66 4.14 12.23 0c3.4-4 5.16-3.92 7.92.29a9 9 0 0 0 15 .17c3.29-4.49 4.29-4.49 7.54-.16 3.82 5.17 10.23 5.4 14.18.14 2.34-3.1 3.53-4.73 6.2-.13 2.91 5 9.71 4.86 13.36.27 4-5 5.36-5.07 9.39-.15 3.14 3.84 7.33 3.56 10-.66 3.17-5.08 4.77-5.13 7.9-.14 1.92 3.06 4.9 4.12 8.22 4.2s5.15-2.08 6-5.21a2.82 2.82 0 0 1 2.82-2.45c1.63 0 2.24 1.11 3 2.33 4.61 7.59 11.08 7.59 15.47 0 .81-1.4 1.54-2.6 3.33-2.69 1.95-.09 2.15 1.48 2.41 2.72.73 3.53 5.85 4.09 5.78 7.05-.06 2.6-4.16 4-5.13 7.16-1.91 6.24-.77 9.08 5.54 11.83.77.33 1.79.38 1.9 1.37s-.87 1.29-1.59 1.74c-9.05 5.69-8.8 12.27.72 17.78 1.23.71 2.45 1.24 2.34 2.92a2.22 2.22 0 0 1 -2.32 2.21c-4 .34-6.17 2.64-6.43 6.55a7.59 7.59 0 0 0 5.36 8.28 6.2 6.2 0 0 1 1.21.85c-7.89 5.85-8.08 11.91-.57 17.72 2.58 2 2.3 3.57-.48 4.84-3.65 1.65-5.7 4.39-5.33 8.37.35 3.79 2.15 6.78 6.24 7.72.83.19 1.79.33 2 1.33s-.66 1.4-1.38 1.89c-8.31 5.59-8.32 10.17.66 17.14-4.4 1.25-7.69 3-7.78 7.51-.07 3.93 2.14 6.65 5.32 8.69 1.18.76 3.24.75 2.82 3-.35 1.79-2 2.1-3.37 2.75-6.3 3-8.05 8.3-4.57 13.59 1.31 2 3.33 2.78 5.37 3.65 2.44 1 3.23 2.46.74 4.4-9.22 7.19-9.13 11.66.44 17.8a5.13 5.13 0 0 1 -1.19.88c-3.4 1.22-5.44 3.61-5.4 7.21s2.16 5.94 5.4 7.33c1.5.64 3.46.85 3.32 3.2-.12 2-1.77 2.26-3.21 2.71-3.78 1.2-6.22 3.67-6.26 7.7s2.43 6.16 6.11 7.09a2.91 2.91 0 0 1 2.38 3.36 2.68 2.68 0 0 1 -2.48 2.72 9.58 9.58 0 0 0 -5.41 3.6c-4.23 5.07-2.28 10.82 4.15 12.45 1.21.3 3.1-.59 3.5 1.22s-1.53 1.91-2.66 2.46c-3.41 1.65-4.32 4.54-4.09 8s1.69 5.85 5.05 6.87c1.5.45 3.13.69 2.95 2.78-.17 1.93-1.87 1.66-3.11 1.93-4 .89-5.38 3.75-5.62 7.45s.53 6.74 4.17 8.5c1.32.64 3.53.48 3.75 2.17.26 2.09-2.19 1.59-3.36 2.33a7.44 7.44 0 0 0 -3.83 6.73c.05 2.79 1.51 4.63 4 5.94 4.53 2.36 4.53 5.72.17 8.62-5.6 3.71-5.44 9.51.41 12.83 1.46.88 3.65 1.15 3.24 3.73z" fill="#fff8ff" transform="translate(-6.75 -8.39)"/><path d="m0 0h496.18v496.18h-496.18z" fill="none"/><g transform="translate(-6.75 -8.39)"><path d="m16.76 152.67c-7.54-.7-11-8.4-7-14.82 1.17-1.87 3.14-1.76 4.89-2.27 1-.29 1.91-.93 1.84-2.11s-1.16-1-1.91-1.33c-5.49-2.47-8.28-10.83-5.4-15.93 1-1.73 2.51-2.14 4.28-2.16 1 0 2.22 0 2.39-1.31.22-1.55-1-1.44-2.06-1.4-3.49.12-4.39-2.2-4.32-5 .07-3.2.52-6.4.84-9.6.27-2.79 2.66-3.17 5.52-4.23-3.54-1.17-7.28-2-6.22-6.11 1.21-4.61-1.88-11.09 5.91-13.55-5.52-.11-6.52-3.47-6.25-7.62s-1.27-8.92 5.2-9.71c2.24-.27 3.34-2.35 3.87-4.33 1.38-5.19 4.71-7.19 9.85-6.53s8.16 3 8.11 8.52c0 .39.53.79.91 1.32 4.18-2.18 2.92-10 10.15-9.07 5 .68 10.26.07 11 7.24 4.47-1.82 3.74-9.41 10.82-7.72 4.78 1.14 9.61.8 10.55 8.08 3.2-7.6 9.33-4.68 14.07-5.34 4.52-.63 4.35 4.12 5.61 7.55 2.39-2.39 1.33-6.2 4.49-7.43 2.77-1.07 5.63-1.08 8.51-1.25 4-.24 6.59 1.16 7 5.51.09 1.1 0 2.74 1.65 2.6 1.35-.12 1.09-1.53.95-2.48-.69-4.84 2.09-6.53 6.23-6.54s8.89-1.76 12.44 2.28c.79.89 1.37.38 2-.34 4-4.52 9.38-3.32 14.28-3 4.58.34 4.79 4.54 5.36 8.31 1.09-5.66 5.33-6.06 9.65-6.23s8.29.28 9.27 5.66c.16.84.61 1.7 1.63 1.59s1.2-1.11 1.3-1.94c.73-5.61 5.21-5.72 9.21-5.92 4.27-.22 6.77 2.52 8.06 6.42.36 1.08.23 2.77 1.64 2.86 2.21.14 1.07-2 1.62-3a6.86 6.86 0 0 1 1.19-2.19c3.16-2.56 7.16-1.51 10.76-2.26 4.29-.9 6.63 1.53 7.66 5.55.14.53.77.95 1.67 2 1.15-5 2.48-8.74 8.32-8.7s10.66.62 11.35 8.45c2.89-5.5 10.13-8.54 15.23-7.2 2.48.65 3.43 2.55 4.24 4.66.35.92.53 2.16 1.79 2.22 1.5.07 1.93-1.27 2.26-2.36.7-2.38 1.45-5.06 4.56-4.22 4 1.07 9.7-2.23 11.78 4.23.35 1.08.57 2.57 2.1 2.47 1.26-.09 1.19-1.44 1.45-2.39 1.33-4.9 5.71-4.13 9.18-4.7 3.18-.51 6.06.3 7.45 3.82 1.17 2.93 2.71 3.68 4.15.17 2-4.93 6.3-4.51 10.35-4.29 3.67.2 4.57 2.94 4.84 6.06 0 .41.49.78 1.4 2.11 1.56-5.3 4.74-7.29 9.72-7.56s8.76 0 10.27 7.2c2.78-9.23 9.09-6.51 14.29-6.72 2.57-.11 3.87 1.73 4.61 4 .53 1.63 1.07 3.46 3.22 3.36 1.81-.09 2.25-1.71 2.81-3.18 2-5.39 6.94-3.78 10.9-4.3 3-.4 5.29.82 6.19 4 .32 1.11.5 2.53 2 2.62 1.7.09 2.17-1.38 2.66-2.64 1.93-5.09 6.64-3.94 10.44-4.41 3.45-.43 5.1 1.79 5.65 5.15.35 2.07 1.48 2.58 3 .6 5.45-7.1 11.39-8.07 18-2.68 1.5 1.23 1.49.11 2.07-.51 4.4-4.63 10-3.33 15.28-2.78 3.86.41 1.92 4.87 4.24 7.89 1.16-8.66 6.95-8.53 12.85-8.07 3.12.24 5.65 1.32 6 5 .1 1 .18 2.25 1.49 2.32 1.54.08 1.83-1.26 2-2.44 1.09-6.64 6.61-5.34 10.82-5.7 4-.35 6.86 1.52 6.78 6.23 0 2.06 1.75 2.7 3.3 3.42a7.39 7.39 0 0 1 4.54 7.29c0 3.3-1.39 5.47-4.75 6.26a3.45 3.45 0 0 0 -2.81 3.79c.23 2.65 2.24 1.21 3.55 1.15 2.15-.09 3.79.77 4.31 2.79a38.89 38.89 0 0 1 1.43 8.46c.1 3.32-1.64 5.43-5.3 5.4-1.36 0-2.86 0-3.12 1.81a2.87 2.87 0 0 0 2 3.2c2.49.87 5.82.62 6.44 4 .82 4.48 1.4 9.15-.4 13.49a5.83 5.83 0 0 0 -.28 4.66c2.22 6.63.93 9.65-5.36 13.41-1.8 1.07-1.65 2.57 0 2.83 6 .94 5.71 5.54 5.88 9.68.19 4.73-2.14 8-6.8 9.42-.09 0-.11.29-.3.87 2.21.71 5.21-.71 6.71 2a18 18 0 0 1 1.75 7.36c.46 5.21-.32 6.07-7.92 9.05 2.48 1.65 6.41 1.27 6.63 5.13.16 2.87.68 5.8.29 8.6-.69 4.86-4.77 3.62-7.85 3.23-.41 1.68.37 2.34 1.19 2.19 4.69-.88 6.59 1.6 7.15 5.72.68 4.93-1.63 9.53-5.43 10.94-1.11.41-2.28.65-3.39 1.06-1.58.58-2.67 1.6-2.22 3.45a2.63 2.63 0 0 0 3.46 2.12c3.52-.79 5.95.53 6.05 4.12.13 4.31 2.08 9.38-3.38 12.21-1.43.74-3.85.42-3.95 2.56-.12 2.58 2.52 1.5 3.84 2.22 4.36 2.36 4.14 6.81 4.12 10.68 0 3.32-3 4.08-6 4-.66 0-1.36-.12-1.82 1 2 2.6 7.24.6 8.05 4.7a38.38 38.38 0 0 1 .3 9.1c-.22 4.92-4.33 5.36-8.25 6.53 5.53-.4 7 2.73 7.31 7.09.58 8.14-.45 10.39-5.81 12.24-.8.28-1.64.45-2.42.77s-1.57.93-1.25 1.89 1.26.66 2.1.53c6.11-1 7.4.17 7.48 6.44.09 7.22-.55 8.33-6.57 11.39.09.31.1.79.31.88 2.24 1.1 6-.61 6.74 3.1.84 4.14 1.25 8.45-.3 12.53-.92 2.41-3.33 2.59-5.62 2.61-.89 0-1.73.24-1.85 1.29s.45 1.84 1.41 1.69c5-.74 6.62 1.83 6.85 6.37.25 5-.06 9.41-6.81 10.27 3.2.36 5.89.39 6.68 3.92 1.71 7.58-.17 14.15-5.67 17.81 3.07 0 5.69.53 6.1 3.64.6 4.64 2 9.68-2 13.43-1.8 1.68-1.78 2.11-.42 4.14 3 4.47 2.54 9.85 1.59 14.78a17.48 17.48 0 0 0 -.05 8.35 34 34 0 0 1 .42 4.54c.84 6.13-2.31 9.12-7.93 9.81-.13 2 1.24 2.35 2.25 2.72 4.18 1.52 5.59 4.75 5.37 8.82s-.94 7.82-6.06 8.58a3.83 3.83 0 0 0 -3.3 3.48c-.51 7.59-6.89 5.07-10.78 6-4.11 1-5.63-2.55-6.51-6.18-.38-1.61-.85-4.15-3.34-3.68-2 .37-2.09 2.57-2 4.22.26 5.25-2.87 6.72-7.3 6.91s-7.12-1.58-7.43-6.32c-.09-1.24 0-3.09-1.73-3.24-1.52-.13-2.15 1.46-2.71 2.67-1.1 2.4-2.54 4.37-5.12 5.36-6.58 2.53-10.24.73-12.39-6.14a1.13 1.13 0 0 0 -1.52.93c-1.33 7.3-4.54 7.24-12.94 6.82-2.78-.14-4-2.2-4.69-4.67-.31-1.08-.42-2.6-2-2.49-1.27.09-1.24 1.43-1.49 2.38-1.52 5.57-6.5 3.91-10.16 4.64-3.11.61-5-1.45-6-4.36-.4-1.27-.6-2.92-2.42-2.72-1.52.17-2.13 1.53-2.46 2.91-1.15 4.76-5.07 4.27-8.56 4.48s-5.85-1.42-6.75-4.87c-.5-2-1.38-3.64-3.65-3.54-2 .09-2.15 1.86-2.36 3.39-.4 3-2.24 4.94-5.08 4.58-3.59-.46-8.09 1.29-10.42-3.35-.65-1.3-.58-3.48-2.41-3.53-2.09 0-1.52 2.28-2.11 3.54a4.74 4.74 0 0 1 -4.45 2.81c-2.88.17-5.74.35-8.62.51-4.2.24-4.29-3-4.81-5.79-.21-1.11.12-2.77-1.41-2.89s-2 1.44-2.42 2.78c-2.07 6.76-6.89 9.52-13.92 7.81-3.67-.89-4.37-3.39-3-6.64.77-1.84 1.43-3.75-1-4.69-2.71-1.05-2.82 1.61-3.73 3a2.65 2.65 0 0 0 -.49 1.43c.18 5.06-2.31 6.74-7.23 6.65s-7-2.64-7.46-7.11a22.46 22.46 0 0 0 -.73-2.66c-2.32 3.14-1 7.4-4.3 9.16-3.14 1.66-6.59 1.6-10 1.21-6.15-.72-3.66-6.21-5.44-10.34-1.48 7.87-6.82 9.58-13.31 9.7-4.44.08-7.26-1.39-7.15-6.36 0-1.11.37-2.82-1.11-3-2-.26-1.69 1.76-1.84 2.93-.62 5.11-3.59 6.46-8.25 5.58-4.28-.81-9.06.19-10.64-6.27-.73-3-2.75.1-3.62 1.36-3.33 4.82-6.95 6.36-12.46 5.18-2.57-.55-4.45-1.65-4.38-4.65 0-1 .5-2.24-1-2.44-1.21-.15-1.82.88-1.91 1.93-.41 4.86-3.82 5.52-7.63 5.45-4-.07-8-.44-9.1-5.44-.24-1.07-.15-2.67-1.82-2.58-1.27.07-1.26 1.44-1.51 2.37-.91 3.4-3.11 4.57-6.51 4.11a11.07 11.07 0 0 0 -4.52.12c-3.74 1.15-5.41-.46-6.15-3.89-.31-1.49-.71-3.25-2.7-3.07s-2.09 2-2.11 3.52c-.07 4.84-3.81 5.76-12.3 5.3-4.2-.23-5.14-3.2-4.69-6.91.17-1.4 1-3.54-1.33-3.56-1.92 0-2 2.16-1.82 3.61.39 3.35.38 6.16-4 6.6-6.74.68-10.41-.89-11.68-5.23-.46-1.55-.15-4-2.26-4-2.45 0-2.19 2.54-2.43 4.34a3.91 3.91 0 0 1 -2.29 3.13 11.53 11.53 0 0 1 -15.41-6.1c-.39-1.05-.8-2-2-1.83-1.58.22-1.71 1.53-1.44 2.74 1.17 5.27-1.25 7.1-6.24 7.13-9.14.05-10.39-.63-10.86-7-.11-1.47-.31-3-2.12-2.71-1.63.26-1 1.77-.9 2.93.42 5-1.27 6.55-6.08 5.43-2.29-.53-4.38-1.12-6.91-.59-3.31.69-3.6-2.21-3.92-4.62-.19-1.37-.34-2.88-2.12-3s-2.14 1.26-2.7 2.56c-2 4.6-10.66 7.55-14.93 5.31-3.37-1.77-.86-5.36-2.35-7.54-1.42 0-1.67.87-1.87 1.67-1.68 6.61-2.14 6.94-8.79 6.14-2.52-.31-5.8.28-7.42-1.09-4.18-3.53-8.5-7.44-11.11-12.12-2.44-4.37.54-9.73 5-12.37 4.31-2.55 4.4-4.61.31-7.38-7-4.78-7.27-12.07-.54-16.92 1.93-1.4 2.82-2.86-.08-3.93-5.36-2-5.25-6.33-5.27-10.89 0-4.19 3-5.19 6.73-6.53-6.5-2.1-7.37-6.74-7-12.17.22-3 1.26-4.85 4.4-5.16 1.15-.11 2.65.08 3-1.36s-1.07-2-2.13-2.42c-4.81-1.85-5-5.81-4.94-10.07.07-3.84 2-5.95 6.14-6.54-1.62-2.62-4.77-2.85-5.63-5.47a16.73 16.73 0 0 1 -.26-7.54c.41-3.35 1.07-6.49 5.47-6.6a2 2 0 0 0 2-1.93 1.82 1.82 0 0 0 -1.61-2.21c-5.52-.56-6-4.43-6.17-8.8s1.05-7.74 6.51-8.62c-5-2.15-7.06-5.29-6.6-10.4.34-3.91.89-7 5.3-8.05.95-.21 2-.66 1.86-2-.1-.81-.87-1-1.54-1.05-7.41-.56-5.64-6.51-6.06-10.81s3.09-5.08 6.42-5.69c.41-.08.75-.54 2-1.44-6.81-1.81-9.11-6.08-7.92-12.29.54-2.85 1.55-5.23 4.92-5.57 1-.1 2.25-.1 2.48-1.32.29-1.48-1.05-2-2.08-2.5-5.2-2.69-7.17-6.92-6.13-12.64.42-2.3 1.24-4.21 3.79-4.87 4.28-1.11 2.45-3.21.62-5-5.89-5.61-5.31-12.94 2.63-17.41-6-1.14-7.53-4.48-7.74-9.64-.19-5 .27-8.69 5.68-10.25-6.37-5.67-5.72-13.69 1.54-18.14-2.45-1.8-6.32-2-6.43-6.07a53.26 53.26 0 0 1 .29-9.61c.59-4.01 5.78-2.51 6.9-5.95zm478.94 32.11c-9-7-9-11.54-.67-17.14.73-.49 1.54-.92 1.38-1.89s-1.13-1.13-2-1.32c-4.09-1-5.89-3.94-6.25-7.72-.37-4 1.69-6.72 5.33-8.37 2.79-1.27 3.07-2.84.48-4.84-7.5-5.81-7.31-11.86.58-17.71a6.51 6.51 0 0 0 -1.21-.85 7.57 7.57 0 0 1 -5.36-8.27c.26-3.91 2.39-6.21 6.43-6.55a2.22 2.22 0 0 0 2.31-2.21c.11-1.68-1.11-2.21-2.33-2.92-9.52-5.51-9.77-12.09-.72-17.78.71-.45 1.7-.72 1.59-1.73s-1.14-1-1.9-1.38c-6.31-2.74-7.45-5.59-5.54-11.82 1-3.2 5.06-4.56 5.12-7.16.07-3-5-3.52-5.77-7-.26-1.24-.47-2.81-2.41-2.72s-2.52 1.28-3.33 2.69c-4.38 7.6-10.85 7.6-15.46 0-.74-1.22-1.35-2.36-3-2.34a2.83 2.83 0 0 0 -2.82 2.46c-.8 3.13-2.54 5.29-6 5.21s-6.29-1.14-8.22-4.21c-3.12-5-4.72-4.93-7.89.15-2.63 4.22-6.82 4.5-10 .66-4-4.92-5.38-4.9-9.39.14-3.64 4.59-10.44 4.74-13.35-.27-2.67-4.59-3.86-3-6.19.14-4 5.25-10.36 5-14.18-.14-3.23-4.38-4.28-4.36-7.6.13a9 9 0 0 1 -15-.18c-2.76-4.21-4.52-4.27-7.92-.29-3.57 4.19-8.41 4.21-12.22 0s-4.88-4-7.88.34c-3.59 5.21-9.88 5.08-13.35-.24-.7-1.08-.62-2.71-2.16-3.23-7.32 8.39-7.83 8.42-17.35 1.15-2.43-1.86-3.75-.84-5.13 1.57-3.28 5.74-10 6.51-13.57 1.16-3.13-4.65-4.56-4-7.42.14-4.31 6.17-11 5.39-14.43-1.32-2.23-4.3-4-2.15-5.81.26-4.54 6-10.9 5.76-14.72-.56-2.51-4.14-3.49-4.11-6 .17-3.51 6.08-9.72 6.45-13.92.84-3.42-4.58-5.8-4.41-8.83.76-2.3 3.94-5.46 4.7-9.5 3a8.83 8.83 0 0 1 -5.12-5.95c-.39-1.24-.51-2.84-2.36-2.83-1.42 0-1.9 1.13-2.51 2.19-4.69 8.16-10.24 8.45-15.71.78-1.89-2.65-3.53-3.21-5 .2s-3.89 5.75-7.77 5.3-6.18-3.16-7.06-7c-.37-1.6-.51-3.51-3-3.17-2.26.3-3.09 1.64-3.35 3.77-.47 3.89-2.18 7-6.6 7-4.07 0-6.45-2.52-7.51-6.38-.43-1.55-.28-3.7-2.73-3.61-2.25.07-2.35 2.07-2.83 3.66-1.09 3.57-3.25 6-7.19 6.11-3.65.1-6.64-1.21-8.21-4.8-.67-1.55-1.16-3.34-3.39-3.17s-2.23 2.23-2.93 3.69c-2 4.22-5.32 5.45-9.63 3.59a10.22 10.22 0 0 1 -5.18-4.69c-1.71-3.26-3.47-2.6-5.27-.1-1.09 1.5-1.93 3.26-3.25 4.51a6.77 6.77 0 0 1 -11-2.06c-3.43-7.09-3.42-7.09-8.4-.7a16.27 16.27 0 0 1 -2 2.33c-4.15 3.63-9.57 2.15-11.44-3-.54-1.48.18-3.85-2-4.23-2.69-.47-3.08 2.24-4.11 3.82-2.26 3.42-4.83 6.44-9.35 5.75s-5.92-4.05-6.34-8.1c-.12-1.19-.25-2.47-1.84-2.6-1.23-.11-1.77.82-2.22 1.75-1.64 3.4-3.58 6.46-7 8.41-2.25 1.26-1.45 2.34.51 3.58 6.22 3.94 6.49 10 .5 14.23-3.7 2.59-2.9 4 .24 6.31 5 3.61 5 8.52.08 12.13-3.56 2.59-4.16 4.3-.24 7.16 4.56 3.33 4.07 10.35-.56 13.42-5.21 3.45-5.21 3.45.63 6.71 6 3.36 6.38 11 .8 15.16-1.18.89-3 .76-3.73 2.33 10 6.23 10.26 9.91 1.56 18-2.37 2.2-1.95 3.87.71 5.61 6.2 4 6.62 9.57 1 14.37-2.25 1.91-2.42 3.06-.35 5.24 4.25 4.48 4 9.23-.8 12.48-4.21 2.82-3.3 4.48.14 7.06 5.06 3.79 5.41 9.51.66 12.77-3.8 2.61-3 4.32-.31 7.08 4.88 5 4.36 10.22-1.08 14.12-1.3.92-2.57 1.71-2.37 3.54.21 2 1.93 2.09 3.37 2.48a7.8 7.8 0 0 1 6.26 7.68c.2 4-1.26 7.29-5.15 9.12-1 .49-2.67.55-2.73 1.94-.07 1.78 1.79 1.74 2.95 2.24 3.57 1.55 5.07 4.48 5 8.11s-1.95 6-5.41 7.22c-.85.3-2.16.06-2.37 1.47 10 5.94 10.53 10.66 1.78 17.78-2.7 2.19-1.15 3.06.79 4.43 5.8 4.07 5.93 10.19.15 14-2.78 1.85-2.94 2.64.07 4.38 7 4 7 12.37-.08 16.67-3.68 2.24-3.49 4-.25 6.36 5.41 4 5.43 9.47-.16 13.19-2.87 1.9-3.23 2.9-.26 5 7.68 5.34 7.47 10.72-.6 15.29-3 1.69-2.26 2.62 0 4.18 7.21 4.95 7.3 8.8.28 14.47-2.06 1.66-1.92 2.78-.08 4.4 7 6.16 7.14 8.61.45 14.95-2.71 2.57-2.44 4.29.38 6.5 7.64 6 7.55 11.82-.23 17.47-3.3 2.39-2.94 4.25.44 5.9 2.22 1.09 4.07 2.45 5 4.84.64 1.76 1.65 2.91 3.72 2.76 1.89-.13 2.5-1.47 3-3 1.08-3.36 3.07-5.78 6.86-5.72a9 9 0 0 1 8.47 5.48c.54 1.14.19 3.14 2 3.14s2.06-1.94 2.76-3.25c2.45-4.56 7.25-6.05 12.15-4 3 1.25 4.34 4 6 6.65 6.66-10.63 12.71-10.62 19.28-.37.46.72.83 1.66 1.81 1.37 1.2-.35 1.06-1.61 1.25-2.57.84-4.11 3.69-6 7.55-6.38a8.74 8.74 0 0 1 9 4.55c3 5.16 3 5.17 6.08.27 2.06-3.25 4.84-5.37 8.82-4.83 3.82.51 6.59 2.54 7.46 6.59.2.94.17 2.1 1.51 2.42 1.8-.67 1.42-2.52 1.93-3.84q2.47-6.33 9.13-5.65c4.33.43 6.55 3.09 7.35 7.21.24 1.21-.81 3.07 1.11 3.48 2.21.47 2.11-1.7 2.68-3 3.06-6.92 10.7-7.92 15.41-2 3.53 4.44 4.27 4.47 6.92-.31 1.65-3 3.92-4.68 7.34-4.41a7.94 7.94 0 0 1 7.37 5.32c.51 1.33.2 3.37 2.31 3.47s2.13-1.86 2.92-3.08c3.38-5.25 10.58-5.63 14.17-.75s3.68 5 7.61-.22c3.73-4.94 9-5.07 12.71-.31 4 5.12 4.22 5.12 7.6-.68 1.87-3.21 4.47-5.09 8.29-4.71s6.29 2.26 7.37 6c.5 1.7.35 4 3.05 3.94 2.46-.08 2.63-2.28 3.31-3.95 1.4-3.42 3.73-5.89 7.57-5.72s6 2.77 7.27 6.21c.51 1.36 0 3.68 1.78 3.86 2.34.23 1.88-2.37 2.46-3.77 2.5-6.11 9.62-7.87 13.28-3.06 1.27 1.67 1.85 3.87 2.75 5.85 3.67-7.52 6.33-10.46 10.14-10.21 6.91.47 10.15 4.93 10.74 11.77 2.09-1 2.23-2.49 2.6-3.72 1.28-4.14 3.89-6.78 8.29-7.11 4-.3 6 2.21 7.53 5.61s3.72 3.21 6 .19c5.51-7.13 11.17-7.15 16.06.23 2.08 3.14 2.73 2 3.73-.55 1.63-4.08 5-5.44 9.05-5a10.42 10.42 0 0 1 8.94 6.62c.72 1.71 1.52 3.33 3.4.69 6.4-9 10-9.15 16.89-.78 1.58 1.9 2.55 2.44 3.91-.33 3.39-6.89 10.79-7.31 15.13-1 3.29 4.76 3.69 4.73 6.48-.63 3.12-6 9.8-6.64 13.38-1 2.62 4.18 4 4.88 6.68.08 1.93-3.46 5.22-6.14 9.68-5 4.05 1 5.25 4.42 5.71 8.16.08.64.11 1.39 1.18 1.47a3.79 3.79 0 0 0 .59-1.19c.64-5 2.77-8.92 8.17-9.61 5.19-.66 7.37 3.27 9.35 7.15.16.31.29.62.42.93 1.37 3.16 3.24 2.69 4.85.4 1.47-2.09 2.79-4.26 4.87-5.81 5.55-4.13 5.55-4.2-.05-7.86s-5.52-10.66.31-14c1.4-.81 3.5-1 3.35-3.23-.13-2-2-2-3.38-2.54a6.51 6.51 0 0 1 -4.38-6.75c.1-3.31 1.34-6.05 4.86-6.9 2.05-.49 3.35-1.2 3.39-3.6 0-2.57-1.6-3-3.53-3.44-3.41-.82-5.31-3.09-5.15-6.59a6.81 6.81 0 0 1 5.72-6.83c1.41-.33 3.27 0 3.63-2.05.44-2.57-1.76-2.85-3.34-3.74-5.84-3.32-6-9.12-.41-12.83 4.37-2.89 4.37-6.26-.16-8.61-2.52-1.31-4-3.15-4-5.94a7.44 7.44 0 0 1 3.83-6.73c1.17-.74 3.62-.24 3.35-2.32-.21-1.69-2.42-1.53-3.74-2.17-3.64-1.76-4.42-4.87-4.18-8.5s1.62-6.56 5.63-7.45c1.24-.27 2.93 0 3.1-1.92.19-2.1-1.45-2.34-2.94-2.79-3.36-1-4.83-3.5-5.05-6.86s.68-6.37 4.08-8c1.14-.55 3.07-.61 2.66-2.46s-2.29-.92-3.49-1.22c-6.43-1.63-8.38-7.38-4.15-12.45a9.62 9.62 0 0 1 5.4-3.59 2.69 2.69 0 0 0 2.49-2.72 2.91 2.91 0 0 0 -2.38-3.36c-3.69-.93-6.14-3.16-6.11-7.08s2.48-6.5 6.26-7.7c1.43-.46 3.09-.71 3.21-2.72.14-2.35-1.83-2.55-3.32-3.19-3.25-1.4-5.36-3.76-5.4-7.33s2-6 5.4-7.21a4.89 4.89 0 0 0 1.18-.88c-9.56-6.13-9.65-10.61-.43-17.79 2.49-1.94 1.7-3.36-.74-4.4-2.05-.87-4.07-1.68-5.37-3.65-3.48-5.29-1.73-10.61 4.57-13.58 1.36-.65 3-1 3.36-2.76.43-2.21-1.63-2.2-2.81-3-3.18-2-5.39-4.75-5.32-8.69.06-4.56 3.35-6.35 7.76-7.57z" fill="#001400"/><path d="m257 434.94c-36.6 0-73.2-.12-109.8 0-21.17.09-42.35.7-63.52.93-12.7.14-25.4 0-38.1 0-6.81 0-7.22-.38-7.21-7.15q.14-78.53.26-157 .11-96.07.11-192.15c0-7.79.07-7.78 8.06-7.8 69.64-.18 139.28-.48 208.92-.53q105.74-.06 211.45.27c9 0 8.94.19 9 9q.09 85.39.17 170.79 0 88.44.05 176.89c0 7.25-.41 7.61-7.86 7.6-70.53-.06-211.53-.59-211.53-.85zm-214.57-4.1c3.25.16 4.75.3 6.26.3q90 0 180 0 117.93 0 235.86.11c7.24 0 7.3 0 7.29-7.52 0-35.07-.15-70.15-.13-105.22q.06-117.94.2-235.89c0-7-.08-7-6.89-6.94q-106.5.14-213 .22-101.16 0-202.33-.37c-7.12 0-7.09.07-7 6.81.16 20 .43 40 .4 60q-.21 119.43-.56 238.87c-.09 16.35-.06 32.79-.06 49.63z" fill="#001400"/><path d="m42.47 430.84c0-16.89 0-33.28 0-49.67q.27-119.43.56-238.87c0-20-.24-40-.4-60 0-6.74-.08-6.83 7-6.81q101.17.17 202.33.37 106.51 0 213-.22c6.81 0 6.9-.08 6.89 6.94q-.07 117.95-.2 235.89c0 35.07.1 70.15.13 105.22 0 7.5 0 7.52-7.29 7.52q-117.93-.06-235.86-.11-90 0-180 0c-1.41.04-2.91-.1-6.16-.26z" fill="#fff8ff"/><g fill="#001400"><path d="m363.87 153.25c0 11-.09 22 0 33.06.09 8.07 3.39 10.58 11 7.59 5.47-2.13 10.43-5.54 15.62-8.39 6.59-3.63 8-3.53 12.93 2.11 2.17 2.46 4.07 1.7 6.26.45 9.28-5.28 16.73-12.6 23.22-21 4.36-5.62 8.6-11.32 13.05-16.86 2.4-3 5.56-3.78 9.07-1.86 6.31 3.46 10.94 9 16.66 13.26a2.47 2.47 0 0 1 .44 3.65 3.34 3.34 0 0 1 -4.18.82c-3-1.23-5.38-3.46-7.73-5.68-7.76-7.35-7.82-7.38-14.3.71-7.07 8.84-13.2 18.48-22.42 25.46a73.28 73.28 0 0 1 -12.34 8c-4.33 2.08-8.49 1.71-11.6-1.88-2.55-2.95-4.71-2.4-7.44-.73-3.9 2.38-7.79 4.83-11.87 6.87-13.83 6.93-23.38 1.25-23.38-14.11 0-17.78.6-35.57.6-53.35 0-6.92-.15-13.91-1.72-20.71-1.23-5.32-2.17-5.69-5.94-1.82-9.37 9.64-19.35 18.57-30.84 25.55s-23.44 12.91-37 14.94c-17.86 2.67-29.19-2.91-37.75-18.85-.8-1.5-1.62-3-2.28-4.55-1.24-3-2.86-2.83-5.58-1.54-9.7 4.64-17.18 11.9-24.49 19.51-9.65 10.1-20.22 19.1-33.76 23.7a55.16 55.16 0 0 1 -8.29 2.39c-10.84 1.93-19.55-3.21-23-13.61a38.62 38.62 0 0 1 -2.18-9.88c-.91-18.62-19.62-21.52-31.33-16.18-8.47 3.85-15.51 9.58-22.43 15.6-14.67 12.8-27.93 27.08-41.87 40.72a35.66 35.66 0 0 1 -6.81 5.27c-1.16.69-2.6 1.32-3.66-.11-.85-1.14-.11-2.24.64-3.21a7 7 0 0 1 .67-.76c16.24-15.62 31.39-32.33 48.48-47.1 7.38-6.38 15-12 24-15.91a29.86 29.86 0 0 1 20.4-1.26c9.37 2.62 15.61 8.57 17.08 18.69a88 88 0 0 0 1.91 10.49c2.63 9.63 8.55 13.12 18.4 10.94 13.38-3 23.93-10.8 33.77-19.83 7.22-6.62 13.11-14.71 21.7-19.83 3.49-2.08 7.08-4 10.56-6.09 4-2.4 7-1.49 9.52 2.27 3 4.49 5.11 9.51 8.43 13.88 6 7.9 13.89 10.37 23.29 9.21 20.46-2.52 37.14-12.92 53-25.18 6.74-5.2 12.06-11.88 18.81-17 5.55-4.25 9.07-3.5 11.38 3.24a52.9 52.9 0 0 1 3.23 17.42q0 15.75 0 31.52z"/><path d="m200.2 229.5c8.26-.12 15.5 2.94 22.55 6.9 13.33 7.47 25.48 16.72 38.26 25 16.68 10.84 34.38 11.11 52.64 4.81a178 178 0 0 0 33-15.68 93 93 0 0 1 20.54-8.72c10.31-3.17 19.45-.61 27.63 5.88 15.56 12.35 32.59 21.79 51.72 27.44 8.11 2.4 16 5.44 24.05 8.18 2.07.71 4 1.73 3.23 4.28-.72 2.28-2.93 2.2-4.75 1.61-11.45-3.66-22.95-7.17-34.27-11.22a149.81 149.81 0 0 1 -44.63-25.82c-10.92-9-22-5.06-32.82.3-12.75 6.3-25 13.56-38.26 18.89-25.75 10.35-49.1 6.1-70.67-10.59-9.14-7.07-19.08-12.89-28.82-19-12.49-7.89-25.11-7.85-38.17-1.49-16.39 8-31.23 18.37-45.93 29q-42.86 30.93-85.67 61.93c-1.66 1.2-3.83 3.44-5.65.86-1.56-2.2.48-4.29 2.2-5.58 7.57-5.72 15.24-11.29 22.93-16.85 25-18.08 49.84-36.3 75-54.12 12-8.52 24.31-16.69 38.12-22.2a46.18 46.18 0 0 1 17.77-3.81z"/><path d="m150.13 429.7a13.39 13.39 0 0 1 2-5.7c13.48-23.09 27.1-46.1 40.35-69.32 8.39-14.7 15.91-29.9 25.87-43.67 4-5.49 7.86-11 12-16.37s9.28-4.45 11.5 1.88c2.41 6.87 4 14 6.44 20.88 2.93 8.28 7.55 15.47 15.14 20.41 5 3.22 9.8 3.28 14.72 0 2.95-2 5.86-4 9-5.75 3.74-2 7-.8 8.09 3.13 4.69 16.91 17.36 22.44 33 23.1 12.47.52 20.07 6.6 23 18.33 4.27 16.86 13.13 31.05 24.31 44.05a54.58 54.58 0 0 1 4.51 6.74c1 1.63 1.91 3.53-.05 5s-3.85.39-4.86-1.23c-5.81-9.36-14.21-16.78-19.47-26.59a112.82 112.82 0 0 1 -10.06-24.3c-3.39-12.65-7-14.79-20.18-15.67-16.14-1.07-28.29-8.47-34.84-23.76-.95-2.22-1.84-3.21-4-1.35-.25.23-.56.39-.82.6-14.15 11.59-25 6.19-35.58-6.46-6.73-8.06-9.15-18-11.68-27.88-.38-1.47-.75-3-1.23-4.4-.35-1.09-.41-2.56-1.83-2.79s-1.88 1.22-2.57 2.11c-14.33 18.57-26.13 38.75-37.11 59.4-11.53 21.7-25.16 42.17-37.13 63.6-1.41 2.52-2.79 5-4.23 7.53-.6 1-1.35 2.16-2.75 1.82-1.59-.46-1.53-1.96-1.54-3.34z"/></g></g></svg>