<svg viewBox="0 0 496.18 496.77" xmlns="http://www.w3.org/2000/svg"><path d="m0 0h496.18v496.18h-496.18z" fill="none"/><g transform="translate(-7.43 -7.58)"><g fill="#fff8ff"><path d="m265.42 77.37q-1.95-9.18-3.89-18.36l-1.17.2 3 18.19z"/><path d="m271.9 345.74a258.72 258.72 0 0 1 -7.23 67.55c12.83-21.39 11.99-44.29 7.23-67.55z"/><path d="m252.87 178.21 2.91 35.79c1.67-12.2 1.86-24.23-2.91-35.79z"/><path d="m358 441.2c-.06-1.06-1.54-2.93-2.39-2.94-11.3-.2-22.61-.13-34.12-.13v19.92l36.62-2.16c.01-5.24.16-9.98-.11-14.69z"/><path d="m339.13 477.63c-9-.35-18-1-27-.94-23.11.17-46.21 1-69.32 1-46.74-.06-93.47-.53-140.21-.82-5.22 0-10.44 0-15.35 0-1.94 5.64-.26 7.55 4.67 7.18a87 87 0 0 1 9.69 0c29.22 1 58.43 2.37 87.65 2.85 38.23.63 76.47.56 114.71.75 13.91.07 27.82 0 42 0 1.44-8.49.52-9.73-6.84-10.02z"/><path d="m240.44 355.32h-1.34v32l1.34-.1z"/><path d="m350.52 475.76 2.1 9.1 42.38-12.94c-.18-.75-.36-1.51-.53-2.26-14.72-.18-28.92 4.03-43.95 6.1z"/><path d="m228.52 460.73q37.18 0 74.37-.42a62.27 62.27 0 0 0 11.58-1.51c1.11-.23 2.73-1.75 2.78-2.74.27-5.72.13-11.46.13-17.93h-6.25l-62.69-.13q-53-.15-106-.23c-1.36 0-3.78 1.08-3.9 1.91-.82 5.79-1.16 11.66-1.71 18.1 12.34.89 24 2.15 35.66 2.46 18.67.49 37.35.49 56.03.49z"/><path d="m440 491.44c-2.29-5.82-8.09-2.51-12.48-4-1.85-7.17-7.95-7.47-14.3-7.61-.93-6.29-4.71-8.63-10.76-8.08-1.1.1-3.27-.93-3.3-1.52-.29-6.7-4.72-5.19-8.66-4.52s-5.92-.36-6.1-4.91c-.19-4.83-3.23-6.76-8.06-6.11-3.19.43-6.38 1-9.58 1.32-2.79.31-4.55-.65-4.57-3.88 0-3.9-.52-7.82-.37-11.71.19-4.78-1.58-6.54-6.53-6.45-13.08.26-26.17 0-39.26 0-1.94 0-3.88 0-5.78 0-.3-8.4-.36-8.46-7.84-8.41-1.87 0-3.74.16-5.61.17-5.19 0-10.39 0-16.29 0 .88-1.76 1.33-2.79 1.9-3.74 2.34-3.92 5.46-7.55 7-11.77 8.24-23.22 8.58-46.74 2.6-70.66-4.51-18.09-10.68-35.9-11.24-54.81-.29-10.19 0-20.4-.39-30.58-.15-4.36-1.34-8.67-1.89-13-.68-5.31-2-10.72-1.6-15.95.73-9.22 2.47-18.22 4.11-27.22 2.81-15.2 3-30.57-3.25-44.61-4.69-10.51-4.3-20.16-2-30.62 1.89-8.6 3.94-17.25.72-26.11-.63-1.71.06-4 .52-6a25 25 0 0 0 -1.74-16.36 75.75 75.75 0 0 1 -4.78-15.45c-2.52-12.64-4.23-25.45-7-38-.9-4.07-4.09-7.64-6.24-11.43l-1.51.79c4 5.13 5.77 11 4.38 17.27-1.87 8.42-3.55 17-6.52 25a51.08 51.08 0 0 0 -3.38 22.38c.39 4.87.6 10.06-.65 14.68-4 14.75-8.06 29.53-13.28 43.86a63.52 63.52 0 0 0 -3.12 33c2.71 16.75 5.29 33.59 6.54 50.5 1.06 14.37.41 28.89 0 43.33a74.21 74.21 0 0 1 -2.65 19.09c-4.92 16.42-10.8 32.54-15.91 48.9-10.42 33.34-9.14 65.62 9.47 96.16.13.21-.07.62-.19 1.43-6.18 0-12.44.19-18.67-.06-5.55-.23-10.11.36-9.45 8h-5.53c-18 .06-36 .07-54.05.2-6.88 0-7.5.84-8.06 7.47-.5 6-1.24 12-1.88 18-5.68.46-10.57 1-15.48 1.22-11.5.46-13.17-2.31-13.84 13.17-3.47 0-7 .07-10.5 0-11.17-.24-10.4.79-10.63 9.37 0 .27-.38.53-1.19 1.59-2.92 0-6.55.51-10-.12-4.44-.82-5.23.32-4 4.46.67 2.37.16 5.06.5 7.56s1.1 5.21 1.68 7.81h296.91c4.67-2.16 9.32-4.37 14-6.48 10.63-4.77 21.25-9.57 32-14.13 1.57-.67 3.68-.1 5.55-.1.11.49.22 1 .34 1.47-3.34 1.65-6.66 3.33-10 4.95l-29.63 14.29h25.52l28-12.91.91 1.76-18.72 11.15h23.47c4.09-3.82 4.12-8.54 2.34-13.04zm-118.5-53.31c11.51 0 22.82-.07 34.12.13.85 0 2.33 1.88 2.39 2.94.26 4.71.11 9.45.11 14.69l-36.62 2.16zm-49.6-92.39c4.76 23.29 5.6 46.16-7.23 67.55a258.72 258.72 0 0 0 7.23-67.55zm-10.37-286.74q1.94 9.18 3.89 18.36h-2.06l-3-18.19zm-5.75 155-2.91-35.77c4.77 11.54 4.58 23.57 2.91 35.77zm-16.68 141.28h1.34v31.92l-1.34.1zm-100.57 84.38c.12-.83 2.54-1.91 3.9-1.91q53 0 106 .23l62.69.15h6.25c0 6.47.14 12.21-.13 17.93-.05 1-1.67 2.51-2.78 2.74a62.27 62.27 0 0 1 -11.58 1.51q-37.18.38-74.37.42c-18.68 0-37.36 0-56-.51-11.67-.31-23.32-1.57-35.66-2.46.52-6.44.86-12.31 1.68-18.1zm207.47 47.95c-14.18 0-28.09.06-42 0-38.24-.19-76.48-.12-114.71-.75-29.29-.49-58.46-1.86-87.68-2.86a87 87 0 0 0 -9.69 0c-4.93.37-6.61-1.54-4.67-7.18h15.35c46.74.29 93.47.76 140.21.82 23.11 0 46.21-.81 69.32-1 9-.07 18 .59 27 .94 7.36.34 8.28 1.58 6.87 10.03zm6.65-2.75-2.1-9.1c15-2.07 29.23-6.28 44-6.1.17.75.35 1.51.53 2.26z"/></g><path d="m428.33 486.24c-1.86-7.17-8-7.47-14.31-7.62-.93-6.29-4.71-8.63-10.76-8.08-1.09.1-3.27-.93-3.29-1.51-.3-6.7-4.73-5.2-8.67-4.53s-5.92-.35-6.1-4.9c-.19-4.84-3.23-6.77-8.06-6.12-3.19.43-6.37 1-9.58 1.33-2.79.3-4.55-.66-4.56-3.88 0-3.91-.53-7.82-.38-11.72.19-4.77-1.57-6.54-6.52-6.44-13.09.25-26.18 0-39.27 0-1.94 0-3.88 0-5.77 0-.31-8.4-.36-8.46-7.85-8.4-1.87 0-3.74.15-5.61.16-5.19 0-10.38 0-16.29 0 .89-1.75 1.33-2.78 1.9-3.74 2.34-3.92 5.46-7.55 7-11.76 8.24-23.23 8.58-46.74 2.61-70.66-4.52-18.09-10.69-35.91-11.24-54.81-.3-10.19 0-20.4-.39-30.59-.16-4.36-1.34-8.67-1.9-13-.68-5.31-2-10.71-1.59-15.95.77-9.12 2.5-18.18 4.16-27.2 2.81-15.19 3-30.57-3.25-44.6-4.69-10.52-4.29-20.17-2-30.62 1.88-8.6 3.94-17.26.71-26.12-.62-1.71.07-4 .53-6a25.05 25.05 0 0 0 -1.75-16.35 76.37 76.37 0 0 1 -4.78-15.45c-2.51-12.64-4.22-25.45-7-38-.89-4.07-4.09-7.63-6.24-11.43l-1.5.8c4 5.13 5.77 11 4.37 17.26-1.87 8.43-3.54 17-6.52 25a51.27 51.27 0 0 0 -3.43 22.35c.39 4.86.6 10-.64 14.68-4 14.74-8.07 29.52-13.29 43.85a63.53 63.53 0 0 0 -3.07 32.95c2.72 16.76 5.29 33.6 6.54 50.5 1.06 14.37.41 28.89 0 43.33a74.15 74.15 0 0 1 -2.65 19.09c-4.91 16.42-10.79 32.54-15.91 48.91-10.41 33.33-9.13 65.62 9.47 96.15.13.21-.07.63-.19 1.43-6.18 0-12.43.2-18.66-.06-5.56-.22-10.12.36-9.46 8h-5.52c-18 .06-36 .08-54.05.2-6.89 0-7.51.84-8.07 7.47-.5 6-1.24 12-1.88 18-5.68.46-10.57 1-15.47 1.21-11.51.46-13.17-2.3-13.84 13.18-3.48 0-7 .06-10.51 0-11.17-.25-10.4.78-10.63 9.36 0 .27-.37.53-1.19 1.6-2.92 0-6.55.5-10-.13-4.44-.82-5.23.32-4 4.46.68 2.38.16 5.06.5 7.57s1.11 5.2 1.68 7.8h296.84c4.67-2.16 9.33-4.37 14-6.47 10.63-4.77 21.25-9.58 32-14.14 1.58-.67 3.69-.09 5.55-.09.11.49.23 1 .34 1.46-3.34 1.65-6.66 3.33-10 4.95q-14.81 7.17-29.62 14.29h25.5l28-12.91c.31.59.61 1.18.91 1.77l-18.68 11.09h23.46c4.11-3.69 4.14-8.41 2.37-12.91-2.32-5.81-8.11-2.5-12.5-4.01zm-106-49.3c11.5 0 22.81-.07 34.11.13.85 0 2.33 1.88 2.39 2.95.27 4.71.12 9.44.12 14.68l-36.62 2.16zm-49.63-92.39c4.77 23.29 5.6 46.16-7.23 67.56a258.84 258.84 0 0 0 7.23-67.56zm-10.37-286.73q1.95 9.18 3.89 18.36h-2.05q-1.51-9.1-3-18.19zm-5.75 155q-1.45-17.88-2.9-35.76c4.76 11.52 4.57 23.56 2.9 35.73zm-16.67 141.28h1.34v31.9l-1.34.09zm-100.57 84.37c.12-.83 2.53-1.91 3.89-1.91 35.34 0 70.67.14 106 .24l62.69.14h6.25c0 6.48.14 12.22-.13 17.94 0 1-1.67 2.51-2.77 2.73a61.55 61.55 0 0 1 -11.59 1.51q-37.18.38-74.36.42c-18.68 0-37.37 0-56-.5-11.68-.32-23.33-1.58-35.67-2.46.52-6.45.87-12.31 1.69-18.11zm207.44 47.95c-14.19 0-28.1.06-42 0-38.23-.19-76.48-.11-114.71-.75-29.22-.48-58.43-1.88-87.65-2.85a89.3 89.3 0 0 0 -9.68 0c-4.94.38-6.62-1.53-4.68-7.18h15.35c46.74.28 93.48.75 140.21.81 23.11 0 46.22-.81 69.33-1 9-.07 18 .59 27 .95 7.34.34 8.26 1.6 6.83 10.02zm6.65-2.75c-.79-3.38-1.38-5.93-2.11-9.1 15-2.07 29.23-6.28 44-6.09.18.75.35 1.5.53 2.25z" fill="#001400"/><g stroke="#001400" stroke-miterlimit="10"><path d="m252.19 423.11q14.43.06 28.57 1.29a45.38 45.38 0 0 0 4.51-9.17c7-23.16 7.29-46.62 2.22-70.48-3.84-18.05-9.08-35.82-9.55-54.68-.25-10.17 0-20.35-.33-30.51-.13-4.35-1.14-8.65-1.61-13-.58-5.3-1.73-10.69-1.35-15.91.65-9.1 2.12-18.14 3.53-27.13 2.39-15.16 2.55-30.5-2.76-44.5-4-10.49-3.65-20.12-1.7-30.55 1.6-8.58 3.34-17.21.61-26-.53-1.71.05-4 .44-6a29.07 29.07 0 0 0 -1.48-16.32c-1.84-5-2.68-10.28-4.06-15.41-.55-2-1-3.78-1.25-5.45-2.49-13.54-.8-17.73-3.28-29.93-1.19-5.87-2.93-11.12-2.57-11.24.19-.06.82 1.4 1.35 2.68-.15 1.47-.37 3.62-.65 6.22-.52 4.69-1 8.73-1.17 9.83-1 7.41-3.08 8.57-6.78 21.55-2.38 8.35-2.81 12.59-2.95 16.17a55.26 55.26 0 0 0 .08 6.16c.33 4.85.51 10-.55 14.64-3.37 14.72-6.84 29.45-11.28 43.75a73.84 73.84 0 0 0 -2.65 32.88c2.3 16.72 4.49 33.52 5.55 50.38.9 14.33.35 28.82 0 43.22a86.3 86.3 0 0 1 -2.24 19.05c-4.18 16.38-9.18 32.46-13.52 48.78-8.23 30.95-7.86 61 5 89.55q9.83-.31 19.87.13z" fill="#fff8ff"/><path d="m260.36 430.12s32.74-48.24 19.1-88a334 334 0 0 1 -6.46 44.07 317.68 317.68 0 0 1 -12.64 43.93z" fill="#001400"/><path d="m244.43 184.31s-4-36.35 7-59.31c-1.28 6.44-3.1 16.58-4.61 29.17-1.58 13.27-2.16 23.72-2.39 30.14z" fill="#001400"/></g></g></svg>