<svg viewBox="0 0 498.38 496.18" xmlns="http://www.w3.org/2000/svg"><path d="m0 0h496.18v496.18h-496.18z" fill="none"/><g transform="translate(-6.59 -7.63)"><g fill="#fff8ff"><path d="m99.5 396.31c45.43 13.32 91.58 19.84 138.58 15.18a131.78 131.78 0 0 0 54.76-18c8.67-5.12 9.24-12.15 1.9-19.49a61 61 0 0 0 -14.84-10.72 37.76 37.76 0 0 1 -13.9-12.11c-9.48-13.94-5.4-29.63 9.17-35.11 10-3.77 20.29-4 30.67-2.65 15.51 2 31 5.32 46.65 4.28 15.16-1 20.78-12.63 15.34-28.6-2.83-8.32-7.29-14.85-12.66-21-6.33-7.31-14-12.2-21.31-17.77-31.19-23.77-63.08-45.88-100.09-55.16-10.16-2.55-20.47-4.29-31.59-6.59 1.42 4.55 3.72 5.11 5.4 6.39 27 20.75 56.25 37.2 82.89 58.67 2.46 2 4.82 3.33 8.09 2.6 11.29-2.53 21.53 1.65 31.22 7.87 6.67 4.28 10.58 14.08 9.42 21.82-1.45 9.66-7.6 13.56-14.7 14.42-18.61 2.26-35.84-1.53-49.83-17.84-11.84-13.8-25.28-25.44-38.93-36.6-24.37-19.91-50.67-36.1-76.55-53.07-2.22-1.45-4.35-3.26-7.37-2.78-35.6 5.61-69.45 15.92-98.3 43.19-21.18 20-40.57 82.07-14.93 111.68 18.28 21.08 35.19 43.85 60.91 51.39zm31.84-12.9a28.18 28.18 0 0 1 -18.34 5.18c-11.89.17-21.46-5.27-28.48-16.62-7.33-11.84-5.34-24.7 5-32.93 18.11-14.35 41.35-2.05 50.16 12.65 5.97 9.93 1.77 24.89-8.34 31.72zm50-25.79c11.23 4.38 19.66 12.6 21.66 26.81 2 13.68-3.86 21.82-16.36 24.11a36.13 36.13 0 0 1 -6.33.06c-17.57.21-31.81-16.29-30.48-34.9.26-3.57 1-6.95 3.34-9.11 8.37-7.73 17.76-11.03 28.18-6.97zm-60.05-157.19c15.58-6 38.32 9.14 42 28 2.48 12.56-7.94 23.5-21.86 23-14.21-.45-24.44-8.8-31.55-22.58-5.38-10.53.29-24.15 11.41-28.42zm-54 30.25c11.23-11.47 41.61-2.81 47.37 13.35 6.92 19.35-.42 32.12-19.2 33.44-13.39.94-30-11.45-34.29-26.2-2.41-8.27.83-15.21 6.08-20.59zm-10.42 49.39a19.74 19.74 0 0 1 13.8-2.33c11.56-.79 20.65 6.39 28.19 16.49 8.17 10.95 5.57 26-5.23 33.1-17.72 11.67-44.45-3.23-47.76-26.59-1.06-7.53 3.73-16.74 11-20.67z"/><path d="m210.94 215.59c30 20.92 58.36 44.86 86.88 68.43 5.17 4.28 10.38 7.15 17.66 5.83-19.17-17.06-38.93-30.94-58.24-45.54-23.76-18-48.22-34.73-72.65-51.46-16.7-11.44-32.29-24.77-48.46-37.1-1.8-1.37-4.37-4.62-6.13-1.43-1.67 3 2.1 3.42 3.58 4.63 24.94 20.46 51.21 38.41 77.36 56.64z"/><path d="m501.05 440.7a13.64 13.64 0 0 0 3.92-6.92c-33.67-32.08-68.6-62.09-106.19-87.8-8.47-5.78-16.52-12.39-24.74-18.66-2.85-2.18-5.07-4.15-2-8.74a41.42 41.42 0 0 0 -.61-46.51c-8.19-11.63-16.77-22.7-27-32.44-40.05-38.13-87.55-54.28-136.61-66.74-15.86-4-33-.66-47.58-12.31-15.24-12.18-34.46-18.36-42.7-40.77-1.37-3.73-4.91-6.39-7.49-9.48-17.89-21.4-42.26-26.33-65.12-35.79-.43 4.66 2.52 5.75 4.45 7.6 10 9.59 18.66 20.27 22.73 35.09 5.06 18.41 16.77 29.8 31.65 35 11.55 4.05 19.46 12.89 29.4 21.33-1.77 1-2.41 1.58-3.13 1.72-26.69 5.28-51.49 15.4-74.21 33.55-23.9 19.1-40.91 42.22-41.37 77.55-.23 17.95-.4 36.82 8.64 52.16 17.91 30.46 40.14 56.1 71.39 66.4a353.46 353.46 0 0 0 151.19 15.93 132.87 132.87 0 0 0 50.33-16.4c22.29-12.47 27.68-29.54 7.4-51.52-4.64-5-10.44-8.36-16.38-11.27-3.17-1.55-8.89-1.55-8.49-6.56.33-4.26 5.79-4.46 9.21-5.93a6.15 6.15 0 0 1 1.55-.42c18.33-2.42 36.39 3.72 54.71 2.49 1.57-.11 3.26 1.89 4.88 2.92 41.42 26.19 78.15 60.67 117.38 90.74 7.94 6.1 15.49 12.94 23.41 19.07 4.09.29 8.22-.4 11.38-3.29zm-371.05-286.38c1.76-3.19 4.33.06 6.13 1.43 16.17 12.33 31.76 25.66 48.46 37.1 24.43 16.73 48.89 33.48 72.65 51.46 19.31 14.6 39.07 28.48 58.24 45.54-7.28 1.32-12.49-1.55-17.66-5.83-28.52-23.57-56.86-47.51-86.88-68.43-26.15-18.23-52.42-36.18-77.36-56.64-1.48-1.21-5.25-1.62-3.58-4.63zm222.51 163.37c-15.63 1-31.14-2.23-46.65-4.28-10.38-1.36-20.65-1.12-30.67 2.65-14.57 5.48-18.65 21.17-9.17 35.11a37.76 37.76 0 0 0 13.88 12.15 61 61 0 0 1 14.84 10.68c7.34 7.34 6.77 14.37-1.9 19.49a131.78 131.78 0 0 1 -54.76 18c-47 4.66-93.15-1.86-138.58-15.18-25.72-7.54-42.63-30.31-60.89-51.43-25.61-29.61-6.25-91.67 14.93-111.68 28.85-27.27 62.7-37.58 98.3-43.19 3-.48 5.15 1.33 7.37 2.78 25.88 17 52.18 33.16 76.55 53.07 13.65 11.16 27.09 22.8 38.93 36.6 14 16.31 31.22 20.1 49.83 17.84 7.1-.86 13.25-4.76 14.7-14.42 1.16-7.74-2.75-17.54-9.42-21.82-9.69-6.22-19.93-10.4-31.22-7.87-3.27.73-5.63-.62-8.09-2.6-26.64-21.47-55.88-37.92-82.89-58.67-1.68-1.28-4-1.84-5.4-6.39 11.12 2.3 21.43 4 31.59 6.59 37 9.28 68.9 31.39 100.09 55.16 7.3 5.57 15 10.46 21.31 17.77 5.37 6.19 9.83 12.72 12.66 21 5.44 16.01-.18 27.63-15.34 28.64z"/><path d="m89.54 339c-10.38 8.23-12.37 21.09-5 32.93 7 11.35 16.59 16.79 28.48 16.62a28.18 28.18 0 0 0 18.36-5.18c10.11-6.83 14.31-21.79 8.36-31.72-8.85-14.65-32.09-26.96-50.2-12.65z"/><path d="m93.63 327.33c10.8-7.1 13.4-22.15 5.23-33.1-7.54-10.1-16.63-17.28-28.19-16.49a19.74 19.74 0 0 0 -13.8 2.33c-7.27 3.93-12.06 13.14-11 20.67 3.31 23.36 30.04 38.26 47.76 26.59z"/><path d="m95.42 277.47c18.78-1.32 26.12-14.09 19.2-33.44-5.76-16.16-36.14-24.82-47.37-13.35-5.25 5.38-8.49 12.32-6.12 20.59 4.24 14.73 20.87 27.14 34.29 26.2z"/><path d="m149.86 373.7c-1.33 18.61 12.91 35.11 30.48 34.9a36.13 36.13 0 0 0 6.33-.06c12.5-2.29 18.37-10.43 16.36-24.11-2.03-14.21-10.46-22.43-21.68-26.81-10.42-4.06-19.81-.76-28.15 7-2.32 2.13-3.08 5.51-3.34 9.08z"/><path d="m141.47 251.37c13.92.53 24.34-10.41 21.86-23-3.72-18.83-26.46-34-42-28-11.12 4.27-16.79 17.89-11.37 28.36 7.04 13.84 17.3 22.19 31.51 22.64z"/></g><g fill="#001400"><path d="m490.22 440.47c.58.2 1.17.38 1.75.53a15.1 15.1 0 0 0 9-2.85 12 12 0 0 0 2.4-2.19c.72-3.22-.77-7.27-2.64-11-31.88-29.5-64.94-57.08-100.32-81-8.63-5.83-16.85-12.49-25.24-18.81-2.91-2.2-5.18-4.19-2-8.81a41.31 41.31 0 0 0 -.63-46.88c-8.35-11.71-17.1-22.87-27.55-32.69-40.87-38.43-89.34-54.71-139.4-67.27-16.18-4.06-33.66-.66-48.55-12.41-15.56-12.26-35.17-18.5-43.57-41.08-1.4-3.76-5-6.44-7.65-9.56-18.25-21.45-43.12-26.45-66.45-36.01-.44 4.7 2.57 5.8 4.54 7.66 10.18 9.66 19.09 20.43 23.2 35.36 5.16 18.57 17.11 30 32.3 35.31 11.78 4.09 19.86 13 30 21.5-1.8 1-2.46 1.59-3.19 1.73-27.22 5.33-52.56 15.53-75.73 33.82-24.4 19.25-41.76 42.55-42.22 78.18-.24 18.1-.42 37.11 8.81 52.57 18.27 30.64 41 56.52 72.85 66.9a365 365 0 0 0 154.28 16.06 136.91 136.91 0 0 0 51.37-16.53c22.73-12.57 28.24-29.78 7.54-51.92-4.73-5.07-10.65-8.43-16.71-11.36-3.24-1.57-9.08-1.57-8.67-6.62.35-4.29 5.91-4.49 9.41-6a6.17 6.17 0 0 1 1.58-.43c18.7-2.43 37.13 3.75 55.83 2.51 1.6-.11 3.32 1.91 5 2.95 42.27 26.39 79.75 61.14 119.77 91.45 7.09 5.42 13.88 11.34 20.89 16.89zm-364-289.62c1.8-3.21 4.42.06 6.26 1.44 16.5 12.43 32.4 25.87 49.44 37.39 24.94 16.86 49.89 33.75 74.15 51.86 19.7 14.72 39.86 28.71 59.42 45.91-7.43 1.32-12.75-1.57-18-5.87-29.1-23.77-58-47.89-88.66-69-26.68-18.37-53.49-36.46-78.94-57.08-1.56-1.21-5.41-1.61-3.71-4.65zm227.02 164.65c-15.95 1.05-31.77-2.25-47.6-4.3-10.6-1.38-21.08-1.13-31.31 2.66-14.86 5.52-19 21.34-9.35 35.39a38.31 38.31 0 0 0 14.16 12.24 62.57 62.57 0 0 1 15.15 10.81c7.48 7.4 6.9 14.49-1.94 19.65a135.73 135.73 0 0 1 -55.88 18.1c-48 4.69-95.06-1.88-141.41-15.3-26.26-7.6-43.51-30.58-62.15-51.84-26.16-29.84-6.37-92.39 15.24-112.56 29.44-27.49 64-37.87 100.32-43.53 3.07-.48 5.25 1.34 7.51 2.8 26.42 17.11 53.26 33.43 78.12 53.49 13.94 11.25 27.65 23 39.73 36.89 14.27 16.43 31.86 20.26 50.85 18 7.24-.87 13.52-4.8 15-14.53 1.19-7.81-2.79-17.69-9.61-22-9.88-6.27-20.33-10.48-31.85-7.93-3.34.74-5.75-.62-8.26-2.62-27.18-21.64-57-38.22-84.59-59.13-1.71-1.3-4.05-1.85-5.5-6.44 11.34 2.31 21.87 4.07 32.23 6.64 37.77 9.35 70.32 31.64 102.14 55.59 7.45 5.61 15.29 10.54 21.75 17.91 5.47 6.25 10 12.82 12.92 21.21 5.54 16.08-.2 27.79-15.67 28.8z"/><path d="m108.8 387c-12.13.17-21.9-5.31-29.06-16.75-7.47-11.93-5.45-24.9 5.15-33.19 18.48-14.46 42.2-2.07 51.19 12.74 6.07 10 1.78 25.1-8.54 32a29 29 0 0 1 -18.74 5.2z"/><path d="m65.63 275.24c11.8-.79 21.08 6.44 28.77 16.62 8.34 11 5.68 26.21-5.33 33.37-18.07 11.77-45.37-3.23-48.74-26.8-1.09-7.59 3.8-16.87 11.22-20.83a20.33 20.33 0 0 1 14.08-2.36z"/><path d="m90.89 275c-13.66.95-30.67-11.53-35-26.41-2.42-8.32.86-15.32 6.24-20.75 11.47-11.56 42.46-2.83 48.35 13.46 7.06 19.47-.42 32.34-19.59 33.7z"/><path d="m177.54 407.14c-17.92.21-32.45-16.42-31.09-35.18.26-3.6 1-7 3.41-9.18 8.5-7.79 18.09-11.12 28.72-7 11.45 4.41 20 12.71 22.12 27 2.05 13.79-3.94 22-16.69 24.29-2.11.38-4.31.06-6.47.07z"/><path d="m137.88 248.67c-14.5-.45-24.93-8.88-32.2-22.76-5.52-10.56.26-24.28 11.61-28.59 15.9-6 39.11 9.21 42.9 28.2 2.53 12.65-8.11 23.68-22.31 23.15z"/></g></g></svg>