<svg viewBox="0 0 496.18 496.18" xmlns="http://www.w3.org/2000/svg"><path d="m0 0h496.18v496.18h-496.18z" fill="none"/><g transform="translate(-7.43 -7.81)"><path d="m95.63 503.16c3.28-16.63 5.92-33.41 10-49.86 6.79-27.57 15.58-54.7 15-83.57-.26-12.65-.58-25.4.73-37.94a345.79 345.79 0 0 1 7.41-42.69c3.24-14 11.4-25.32 22.59-34.55 9.17-7.55 30-18.11 41.81-20.85a21.08 21.08 0 0 0 -1.08-3.93c-3.78-7.62-6.79-15.79-11.68-22.67-15.08-21.19-20.47-44.84-20.59-70.19-.08-15.61 2.36-30.68 9.4-44.71a44.92 44.92 0 0 1 8.91-11.51c4.4-4.3 6.36-3.67 9.71 2.17 6.69-11.15 12.48-22.73 20-33 18.58-25.25 42.94-41.77 75.67-41.56 16.35.1 32.39 3.92 45.82 14.44 10.45 8.18 22.51 14.71 29.9 26.14 5.48 8.48 10.09 17.5 15.16 26.24a16.65 16.65 0 0 0 3 3.73c3.09 2.84 7.83 5 9.22 8.42 9.29 23.16 14.86 47.65 10.46 72.12-3.36 18.75-12.23 36.55-18.74 54.74-2.07 5.79-4.48 11.45-6.64 17.2-1.11 2.94-.57 5 2.26 7.35 14.08 11.88 20.08 27.82 21.4 45.5.92 12.41.65 24.91 1.11 37.37a19.44 19.44 0 0 0 1.68 6.7 268.85 268.85 0 0 1 20.94 125.68c-.59 8.49-.61 17.08-2.15 25.4-1.49 8.1-4.59 15.9-7 23.83h-51.81c-7-12.78-9.24-26.9-11.89-40.89-1.87-9.87-3.49-19.79-5.44-30.94-1.92 14.59 1 38 8.51 71.83h-168.74c2.27-4.29 5.32-8.37 6.7-12.93q10.8-35.79 20.83-71.82c2.59-9.32 4.21-18.9 6.27-28.36l-1.44-.36a36.9 36.9 0 0 0 -1.44 4.51c-3.73 20-10.33 39.08-18.14 57.86-7.29 17.54-13.77 35.41-24.92 51.1zm189-487.77c-23.41-1.38-51 14.45-64.49 31.31-15.43 19.3-23.75 41.86-28.33 65.82a12.36 12.36 0 0 0 .31 5.86c3 9.3 5.81 18.68 9.41 27.76 5.85 14.74 13.12 28.84 25.81 39.15 9 7.32 13.41 16.36 13.91 27.69.15 3.35.57 7.12 2.25 9.89 7.19 11.81 10.7 24.86 14.72 37.85 3.54 11.42 11.22 19.7 23.78 21.44 9.05 1.26 17.29-2.32 23.3-8.81a355.58 355.58 0 0 0 23.57-28.57c3.28-4.39 6.89-10 6.94-15 .15-15.91 5.89-29.41 14.07-42.69 9-14.6 15.9-30.09 16.2-47.82.22-13 1.05-26 2.46-39a35.72 35.72 0 0 0 -2.73-17.91c-1-2.49-3-4.6-4-7.08-6.34-14.92-16.22-27.21-27.63-38.71-14.07-14.17-30.86-20.88-49.56-21.18zm-103.15 70.17-1.59-.76c-2 2.9-4.52 5.57-5.81 8.74-14.07 34.35-11.24 67.79 6.06 100.33 5.69 10.7 12 21.1 17.22 32 8.59 18.08 12 37 8.17 57-1.81 9.38-2.82 18.92-4.06 28.4a14.2 14.2 0 0 0 4.89 13.2c3 2.67 6 3.31 7.46-1.39 2.06-6.7 4.06-13.45 5.53-20.3 3.47-16.25 6.28-32.64 10-48.83 3.41-14.81 8.22-29.34 5.81-44.86-1.19-7.65-4.51-13.95-10.81-18.83a46.73 46.73 0 0 1 -9.3-9.17c-19.88-27.51-31.62-57.95-33.3-91.9-.05-1.19-.18-2.4-.27-3.63zm197-1.07-1.47.34a23.28 23.28 0 0 0 -1.28 4.36c-1.24 13.84-3.47 27.7-3.31 41.53a102.83 102.83 0 0 1 -18.3 60.33c-9.93 14.59-13.33 30-12.43 47.21a284.12 284.12 0 0 0 23.14 99.28c.28.65.47 1.34.71 2a86.11 86.11 0 0 0 6.73-16.6 15.38 15.38 0 0 0 .58-6.92c-2.77-14.88-6-29.69-8.66-44.59a95.44 95.44 0 0 1 6.35-54.73c4.14-9.84 8.89-19.46 12.41-29.5 3.74-10.72 8.18-21.68 9.07-32.78 1.7-21.4-2-42.52-9.44-62.82-.91-2.52-2.69-4.74-4.08-7.11zm-62.2 192.63-1.72-.59c-8.79 5.44-15.43 14.76-27.49 14.26-11.46-.48-20.66-5.28-28.37-13.8-.12 2.85-.12 5.41.73 7.65 5.15 13.53 10.17 27.12 15.89 40.41 3.38 7.89 8.22 8.59 13.54 1.87a224.68 224.68 0 0 0 19.22-27.69c3.85-6.75 5.55-14.7 8.2-22.11zm-147.28 59.47c-12.37 25.33-22.5 49.78-28.4 76.41 9.68-25 19.13-49.37 28.57-73.76.11-.3-.04-.67-.17-2.65zm176.39 28.33.68-.14c1.74-15.18 3.56-30.34 5.11-45.53.16-1.54-1.27-3.25-2-4.88l-1.1.38q-1.39 25.08-2.74 50.17zm-161.23-56.32-1.75-.76-12 25.16 1.18.55z" fill="#001400"/><g fill="#fff8ff"><path d="m168.42 503.16c11.15-15.69 17.63-33.56 24.92-51.1 7.81-18.78 14.41-37.86 18.14-57.86a36.9 36.9 0 0 1 1.44-4.51l1.44.36c-2.06 9.46-3.68 19-6.27 28.36q-10 36-20.83 71.82c-1.38 4.56-4.43 8.64-6.7 12.93z"/><path d="m349.3 503.16c-7.55-33.86-10.43-57.24-8.51-71.83 1.95 11.15 3.57 21.07 5.44 30.94 2.65 14 4.92 28.11 11.89 40.89z"/><path d="m284.62 15.39c18.7.3 35.49 7 49.54 21.17 11.41 11.5 21.29 23.79 27.63 38.71 1 2.48 3 4.59 4 7.08a35.72 35.72 0 0 1 2.73 17.91c-1.41 12.94-2.24 26-2.46 39-.3 17.73-7.22 33.22-16.2 47.82-8.18 13.28-13.92 26.78-14.07 42.69-.05 5.06-3.66 10.63-6.94 15a355.58 355.58 0 0 1 -23.57 28.57c-6 6.49-14.25 10.07-23.3 8.81-12.56-1.74-20.24-10-23.78-21.44-4-13-7.53-26-14.72-37.85-1.68-2.77-2.1-6.54-2.25-9.89-.5-11.33-4.9-20.37-13.91-27.69-12.69-10.31-20-24.41-25.81-39.15-3.6-9.08-6.43-18.46-9.41-27.76a12.36 12.36 0 0 1 -.31-5.86c4.58-24 12.9-46.49 28.32-65.82 13.47-16.85 41.1-32.69 64.51-31.3zm-20 184.54c-.07 13.19 2.55 25.61 10 36.67 3.2 4.79 8.14 7.66 14.12 6.56s7.6-6 8.75-11.23c4.54-20.29-2.66-36.88-16.75-51.17-5.3-5.37-11.28-4-13.39 3.22-1.52 5.14-1.85 10.62-2.7 15.95zm69.23-73.31c-.05-10.62-7.85-20.62-17.34-22.18-7.75-1.28-16.95 2.9-20.21 9.19-3.06 5.88-1.7 18.92 3.21 23 2.57 2.13 6.48 2.82 9.9 3.76 1.87.52 4.07-.16 6 .32 11.44 2.84 18.59-2.5 18.47-14.09zm-118.53-3.9a76.77 76.77 0 0 0 2.1 10.58c3.43 10.78 16.24 13.64 24.81 6.12 7-6.19 7.08-13.67 5.57-21.81-1.71-9.22-7.46-13.91-16.31-13-9.49.9-16.13 7.39-16.14 18.11zm110.68 101.08c.56-22.58 11.09-41.92 21-62.46-13.68 6.55-29.17 52.36-21 62.46zm-96.93-58.31c4 5.51 8.54 10.13 11 15.66 4.78 10.88 8.35 22.27 12.44 33.44.61 1.67 1.32 3.32 2.33 5.86.89-1.63 1.38-2.09 1.33-2.49a100.12 100.12 0 0 0 -17.82-48.28c-1.97-2.68-4.91-5.38-9.3-4.19zm30.93-129.49c-2.3-.44-3-.78-3.6-.66-12.26 2.46-26.9 21.21-26.12 33.61.1 1.66 1.12 3.26 1.71 4.89l2 .37c1.01-17.36 11.3-28.53 26.01-38.21zm4.61 82.43c-1.46 1.16-1.93 1.34-2 1.6-1.63 7.13-3.27 14.26-4.75 21.42-.17.82.62 1.84 1 2.77 1.16-.65 3.13-1.08 3.37-2 1.59-6 3-12.06 4-18.17.31-1.54-.9-3.36-1.61-5.64zm19.83-1.53c-6.06 6.32-4.93 18.73 1.89 22.28-.62-7.44-1.21-14.34-1.88-22.3zm-12.91 41.43-4.53-4.76c-1.89 2.55-4.06 5-5.45 7.74-.32.64 2 2.57 3.15 3.9zm24.14-1.15c-2.25-2-3.64-3.76-5.45-4.67-.47-.23-3.41 2.74-3.21 3.06a15.59 15.59 0 0 0 4.39 4.62c.39.24 2.18-1.51 4.28-3.03z"/><path d="m181.48 85.56c.09 1.23.22 2.45.28 3.67 1.68 34 13.42 64.39 33.3 91.9a46.73 46.73 0 0 0 9.3 9.17c6.3 4.88 9.62 11.18 10.81 18.83 2.41 15.52-2.4 30.05-5.81 44.86-3.73 16.19-6.54 32.58-10 48.83-1.47 6.85-3.47 13.6-5.53 20.3-1.44 4.7-4.42 4.06-7.46 1.39a14.2 14.2 0 0 1 -4.89-13.2c1.24-9.48 2.25-19 4.06-28.4 3.87-20 .42-38.93-8.17-57-5.18-10.93-11.53-21.33-17.22-32-17.3-32.54-20.13-66-6.06-100.33 1.29-3.17 3.84-5.84 5.81-8.74z"/><path d="m378.5 84.49c1.39 2.37 3.17 4.59 4.1 7.12 7.46 20.3 11.14 41.42 9.44 62.82-.89 11.1-5.33 22.06-9.07 32.78-3.52 10-8.27 19.66-12.41 29.5a95.44 95.44 0 0 0 -6.35 54.73c2.65 14.9 5.89 29.71 8.66 44.59a15.38 15.38 0 0 1 -.58 6.92 86.11 86.11 0 0 1 -6.73 16.6c-.24-.67-.43-1.36-.71-2a284.12 284.12 0 0 1 -23.14-99.28c-.9-17.18 2.5-32.62 12.43-47.21a102.83 102.83 0 0 0 18.3-60.33c-.16-13.83 2.07-27.69 3.31-41.53a23.28 23.28 0 0 1 1.25-4.37z"/><path d="m316.28 277.12c-2.65 7.41-4.35 15.36-8.2 22.11a224.68 224.68 0 0 1 -19.22 27.69c-5.32 6.72-10.16 6-13.54-1.87-5.72-13.29-10.74-26.88-15.89-40.41-.85-2.24-.85-4.8-.73-7.65 7.71 8.52 16.91 13.32 28.37 13.8 12.06.5 18.7-8.82 27.49-14.26z"/><path d="m169 336.59c.18 2 .33 2.35.22 2.63-9.49 24.39-18.94 48.78-28.62 73.78 5.9-26.63 16.03-51.08 28.4-76.41z"/><path d="m345.34 364.92q1.37-25.1 2.72-50.17l1.1-.38c.7 1.63 2.13 3.34 2 4.88-1.55 15.19-3.37 30.35-5.11 45.53z"/><path d="m184.16 308.6-12.56 24.95-1.18-.55 12-25.16z"/></g><g fill="#001400"><path d="m264.65 199.93c.85-5.33 1.18-10.81 2.68-16 2.11-7.21 8.09-8.59 13.39-3.22 14.09 14.29 21.29 30.88 16.75 51.17-1.15 5.18-2.84 10.15-8.75 11.23s-10.92-1.77-14.12-6.56c-7.4-11.01-10.02-23.43-9.95-36.62zm14-11.75c-1.83 2.65-3.88 4.41-4.36 6.51a39.26 39.26 0 0 0 3.11 27.25c1 1.94 4.25 4.32 5.91 4 1.85-.4 3.95-3.5 4.41-5.74 2.4-11.38-2.06-21.14-9.03-32.02z"/><path d="m333.88 126.62c.09 11.59-7 16.93-18.5 14.07-1.9-.48-4.1.2-6-.32-3.42-.94-7.33-1.63-9.9-3.76-4.91-4.06-6.27-17.1-3.21-23 3.26-6.29 12.46-10.47 20.21-9.19 9.52 1.58 17.32 11.58 17.4 22.2zm-17.81 7.48c6.35-.85 10.15-4.79 9.37-9.62s-10.07-12.07-14.67-11.42c-5.3.76-8.25 4.28-8.58 10.24-.27 4.74 2.45 7.85 8.26 9.08-.44-.79-1.07-1.38-1-1.91a43.12 43.12 0 0 1 .81-4.63c1.28.76 3.05 1.22 3.73 2.34 1.07 1.75 1.42 3.94 2.08 5.92z"/><path d="m215.35 122.72c0-10.69 6.61-17.21 16.17-18.15 8.85-.87 14.6 3.82 16.31 13 1.51 8.14 1.47 15.62-5.57 21.81-8.57 7.52-21.38 4.66-24.81-6.12a76.77 76.77 0 0 1 -2.1-10.54zm23.79 0c-1.34-2-3.2-7-6.79-9.69-2.71-2-7.26 3.67-8.54 10.6-.07.36-.12.71-.16 1.07-.72 5.8 1.71 9.6 6.46 10.1 5.06.55 8.89-3.41 9.03-12.05z"/><path d="m326 223.8c-8.15-10.1 7.34-55.91 21-62.46-9.93 20.54-20.46 39.88-21 62.46z"/><path d="m229.05 165.49c4.39-1.19 7.33 1.46 9.25 4.19a100.12 100.12 0 0 1 17.82 48.32c.05.4-.44.86-1.33 2.49-1-2.54-1.72-4.19-2.33-5.86-4.09-11.21-7.66-22.63-12.46-33.48-2.41-5.53-7-10.15-10.95-15.66z"/><path d="m260 36c-14.72 9.7-25 20.87-26 38.21l-2-.37c-.59-1.63-1.61-3.23-1.71-4.89-.78-12.4 13.86-31.15 26.12-33.61.59-.14 1.3.2 3.59.66z"/><path d="m264.62 118.41c.71 2.28 1.92 4.1 1.64 5.66-1.05 6.11-2.45 12.17-4 18.17-.24.88-2.21 1.31-3.37 2-.35-.93-1.14-1.95-1-2.77 1.48-7.16 3.12-14.29 4.75-21.42.05-.3.52-.48 1.98-1.64z"/><path d="m284.45 116.88c.67 8 1.26 14.86 1.89 22.28-6.82-3.55-7.95-15.96-1.89-22.28z"/><path d="m271.54 158.31-6.81 6.9c-1.12-1.33-3.47-3.26-3.15-3.9 1.39-2.78 3.56-5.19 5.45-7.74z"/><path d="m295.68 157.16c-2.1 1.52-3.89 3.27-4.27 3a15.59 15.59 0 0 1 -4.39-4.62c-.2-.32 2.74-3.29 3.21-3.06 1.77.92 3.2 2.63 5.45 4.68z"/></g><path d="m278.69 188.18c7 10.88 11.43 20.64 9.07 32-.46 2.24-2.56 5.34-4.41 5.74-1.66.35-4.91-2-5.91-4a39.26 39.26 0 0 1 -3.11-27.25c.48-2.08 2.53-3.84 4.36-6.49z" fill="#fff8ff"/><path d="m316.07 134.1c-.66-2-1-4.17-2.1-5.92-.68-1.12-2.45-1.58-3.73-2.34a43.12 43.12 0 0 0 -.81 4.63c-.05.53.58 1.12 1 1.91-5.81-1.23-8.53-4.34-8.26-9.08.33-6 3.28-9.48 8.58-10.24 4.6-.65 13.88 6.57 14.67 11.42s-3 8.77-9.35 9.62z" fill="#fff8ff"/><path d="m239.14 122.75c-.15 8.64-4 12.6-9 12.08-4.75-.5-7.18-4.3-6.46-10.1 0-.36.09-.71.16-1.07 1.28-6.93 5.83-12.63 8.54-10.6 3.56 2.7 5.42 7.64 6.76 9.69zm-8.34 11.48c1.61-1.7 3.38-2.75 3.4-3.83s-1.76-2.84-2.83-2.9-2.84 1.51-3.1 2.64c-.21.93 1.32 2.26 2.53 4.09z" fill="#fff8ff"/><path d="m230.8 134.23c-1.21-1.83-2.74-3.16-2.53-4.09.26-1.13 2.06-2.7 3.1-2.64s2.85 1.87 2.83 2.9-1.79 2.13-3.4 3.83z" fill="#001400"/></g></svg>