<svg viewBox="0 0 496.18 496.18" xmlns="http://www.w3.org/2000/svg"><path d="m0 0h496.18v496.18h-496.18z" fill="none"/><g fill="#fff8ff" transform="translate(-7.53 -7.29)"><path d="m11 407.85 21-20c9.4-.87 19.33-1.54 29.73-1.9 8.58-.3 16.84-.37 24.75-.26l-37.74 21.2z"/><path d="m27.93 405.48-7.93 7.1 3.38 6.16 8.45 2.53 12.48-1.41 14.54-.48 13.32-.38 12.7.49 13.13-2.95 26.76-11.12 33.56-17.1-24.37-.2-12.09-3.23-20.59-.62-11.91 2.18-17.43 7.41-21.81 10.7-9.21 3.89z"/><g stroke="#001400" stroke-miterlimit="10" stroke-width="3"><path d="m350.86 399.52c-1.16-1.75-2.45-1.38-3.72-.87s-2.29 1-3.42 1.46c-2.43 1.05-3 .92-4.64-1.28-1.52.53-2.94 1.67-4.85 1-.52-.18-1.48.59-2.12 1.07-1.33 1-2.62 1.64-4.36.91a4.42 4.42 0 0 0 -1.95 0c-.41 0-.84.32-1.21.25-3-.58-5.42 1-8 2.06-1 .41-2 .79-3.09 1.23-.67 2.44-1.4 5-2 7.55a34.67 34.67 0 0 0 -1.2 11.51c.11 1.2.25 2.4.4 3.6.17 1.44.43 2.88.53 4.33.33 4.59.6 9.18.91 13.77a4.28 4.28 0 0 0 .26.81 11.06 11.06 0 0 0 1.92-.18c4.21-1.15 8.54-1.19 12.86-1.35 3.74-.14 7.47-.45 11.21-.5a62.06 62.06 0 0 1 7.2.5 8 8 0 0 1 2.83.86 56.6 56.6 0 0 0 15.34 4.87c3.82.76 7.56 1.86 11.34 2.82a6 6 0 0 1 1.18.39c1.26.62 1.49 1.55.48 2.49a17.58 17.58 0 0 1 -2.64 1.81 1.64 1.64 0 0 0 -.67 2.46c1 2 1 2-.22 4a11.07 11.07 0 0 1 1.56 1.43 3.72 3.72 0 0 1 .91 1.87 9.43 9.43 0 0 0 1 3.69 5.9 5.9 0 0 1 -.47 5.13 4.26 4.26 0 0 1 -2.41 1.49 12.58 12.58 0 0 1 -7.36-.28c-2.28-.7-4.58-1.34-7.05-2.06a25.51 25.51 0 0 0 5.57 6.79 6.7 6.7 0 0 1 1.26 1.5c.74 1.15.38 2-1 2.31a12.38 12.38 0 0 1 -1.73.2l-1.79.19c1.26 1.42 2.35 2.58 3.35 3.8 3.16 3.81 1.53 7.9-3.46 8.7a57.12 57.12 0 0 1 -23-.47 196.06 196.06 0 0 1 -22.8-7c-7-2.66-14-5.13-20.88-8a35.62 35.62 0 0 1 -11.07-7.27 7 7 0 0 1 -1.92-5.12c-.12-4.52-.25-9.05-.06-13.56.28-6.7.91-13.37 1.22-20.07.17-3.54 0-7.1-.06-10.65 0-2.26-.74-3.93-3.15-5-2.79-1.18-3.77-4-2.86-7 .2-.66.45-1.31.76-2.22a16.82 16.82 0 0 1 -2.4.45 5 5 0 0 1 -2.63-.28c-1.45-.95-2.85-.61-4.31-.36l-16.9 2.86a3.84 3.84 0 0 1 -1.73.13c-3.44-1.23-6.86 0-10.28.05-1.16 0-2.32.18-3.48.22-.58 0-1.36.12-1.7-.19-1.47-1.33-2.91-.57-4.38-.16-1.27.37-2.55.73-3.83 1.07s-2.68.54-3.3-1.1c-2.83.47-5.53 1-8.23 1.35-1.27.19-2.54.2-3.11-1.4-2.4.59-4.63 1.2-6.89 1.69-1.25.27-2.52.8-3.84-.1a2.93 2.93 0 0 0 -1.91-.05c-2.2.42-4.4.87-6.58 1.39a11.55 11.55 0 0 1 -4.79-.05 53.83 53.83 0 0 0 -9.43-.29c-1.82 0-3.59.34-5.42-.22a10.28 10.28 0 0 0 -3.22.06c-2.47.11-2.51.1-3.79-2.27-2.83.43-5.77.87-8.7 1.34-1.22.19-2.38.63-3.58-.22-.37-.27-1.13-.08-1.7 0-2.31.28-4.61.6-6.92.9-1.59.2-1.61.18-3.06-.79l1.9-2.64c-2.09.12-3.79.21-5.49.33-1.08.07-2.15.26-3.23.27-2.68 0-3.1-.59-2-3.28-1.16 0-2.19 0-3.23 0-1.37.05-2.49-.22-2.58-1.71-1.94-.66-4.56 1.73-5.57-1.56-.22 0-.45-.12-.7-.16-2.94-.47-3.11-.86-1.18-3.42-.83.23-1.45.39-2 .58a117.19 117.19 0 0 1 -16.32 4.37c-3.27.54-6.48 1.43-9.7 2.24-4.52 1.14-9.08.76-13.63.33a72.17 72.17 0 0 0 -16.16.22 5.22 5.22 0 0 1 -1.24.09c-8.12-.74-16.07.78-24.07 1.7-3.81.43-7.23-.88-10.52-2.41-1.86-.87-2.61-2.86-3.43-4.63a2.23 2.23 0 0 1 0-1.42c.55-2.05 3.62-4.39 6.53-4.73l-1.42 1.31c-1.18 1-2.42 1.94-3.49 3.05a1.93 1.93 0 0 0 -.36 1.74c.92 1.8 1.85 3.57 4.07 4.33a22.05 22.05 0 0 0 11.21 1.07c6.7-1.13 13.47-2 20.35-1.37 2.11.2 4.29-.42 6.44-.41 4.9 0 9.81 0 14.69.43a38.13 38.13 0 0 0 12.11-.93c6.53-1.56 13.08-3.09 19.58-4.76a76.78 76.78 0 0 0 16-6.63c4.62-2.38 9.38-4.49 14.08-6.73 1.86-.89 3.76-1.72 5.54-2.75 3.58-2.05 7.09-4.21 10.61-6.36a4.44 4.44 0 0 0 1.58-1.7c-.75.07-1.5.13-2.25.22a104 104 0 0 1 -30.3-.93c-6.45-1.13-12.91-1-19.39-1-6.65 0-13.3 0-19.94 0-7-.08-14-.44-20.94-.33-5.56.1-11.11.72-16.66 1.1-3.07.21-6.13.46-9.19.6s-5.61 1.68-7.9 3.69q-7.21 6.33-14.62 12.46c-1.75 1.45-3.72 2.65-5.53 4.2a10.84 10.84 0 0 0 4.78-.14c2.27-.48 4.53-1 6.79-1.56 4.38-1.06 8.79-.64 13.11.13 6.57 1.17 12.54-.45 18.34-3.11 2.48-1.13 4.89-2.42 7.25-3.77a224.92 224.92 0 0 1 22.92-11.22c1.77-.77 3.49-1.92 6-1.32-.5.44-.76.83-1.12 1-11.25 4.31-21.77 10-32.31 15.68a36.06 36.06 0 0 1 -11.91 4.16 46.38 46.38 0 0 1 -8.17.16 41.87 41.87 0 0 1 -5.44-.67c-4.83-.76-9.38.69-14 1.64a44.91 44.91 0 0 1 -5.68.67 3 3 0 0 1 -3.06-1.37 14.47 14.47 0 0 1 1.54-1.25c7.88-4.93 14.48-11.32 21.41-17.39a12.49 12.49 0 0 1 -3.3-12.62c1-3.69 3.78-6 6.86-8 2.84-1.83 5.8-3.49 8.74-5.16a36.58 36.58 0 0 1 4.44-2.19 78.1 78.1 0 0 0 12.57-6.38c3.7-2.32 7.53-4.43 11.4-6.47a55.13 55.13 0 0 0 11.1-7.81 249 249 0 0 1 26.25-20c5.79-3.91 11.29-8.25 16.77-12.58 11.95-9.41 23.69-19.05 36.93-26.81 4.25-2.5 8.13-5.6 12.17-8.43 7.56-5.3 15.23-10.41 23.22-15.08 4.19-2.46 8.26-5.13 12.29-7.85a190.89 190.89 0 0 1 22.27-13.34c2.82-1.38 5.63-2.79 8.34-4.38a122.42 122.42 0 0 1 17.31-8q6-2.37 11.9-5a217.65 217.65 0 0 1 37.5-13.05c5.48-1.29 11.13-1.85 16.67-2.91a65.32 65.32 0 0 0 7.89-2.17 6.6 6.6 0 0 0 4.11-3.67c1.56-3.48 3.21-6.93 4.58-10.47 1.92-5 3.75-10 5.37-15.1a48.59 48.59 0 0 0 1.85-8.76 11.36 11.36 0 0 0 -.66-5c-.92-2.67-2.2-5.22-3.34-7.82a88.78 88.78 0 0 1 -6.39-19.83c-.67-3.65-.82-7.38-1.27-11.07a74.38 74.38 0 0 0 -4.58-18.06 16.43 16.43 0 0 0 -1.87-3.41c-6.77-9.51-8-20.11-6.76-31.26a61.65 61.65 0 0 1 6.32-20.8c.86-1.74 1.54-3.57 2.38-5.33a37.78 37.78 0 0 1 24.3-20.73 73.93 73.93 0 0 1 31.27-2.63 41.53 41.53 0 0 1 12 3.94c4.29 2 7.73 5 11.16 8 1.16 1 2.42 2 3.59 3a22.76 22.76 0 0 1 5.44 7.16c.84 1.76 1.75 3.5 2.43 5.32a20.7 20.7 0 0 0 8.42 10.41c7.61 5 14.94 10.5 22.36 15.82a112.82 112.82 0 0 0 27.19 14.51 101.52 101.52 0 0 1 9.46 3.73 41.86 41.86 0 0 1 6.58 4.31 5.12 5.12 0 0 1 1.48 2.44 3 3 0 0 1 -1.87 4.16 25.62 25.62 0 0 1 -6.4 1.87c-5.27.57-10.57 1.15-15.89.68a37.13 37.13 0 0 1 -13.73-4.1 28 28 0 0 0 -11-2.85c-6.12-.46-12.23-1.1-18.33-1.82a41.43 41.43 0 0 1 -5-1.43 9.62 9.62 0 0 0 -3.37-.48 30.7 30.7 0 0 1 -9.18-.37 3.66 3.66 0 0 0 -3 .67 35.68 35.68 0 0 1 -14.63 5.79 48.69 48.69 0 0 0 -6.5 1.64 3.57 3.57 0 0 0 -1.77 1.51 10.48 10.48 0 0 0 -.89 7.78c.26 1.17.09 2.3.33 3.41a55.55 55.55 0 0 0 2 8.24 112.27 112.27 0 0 0 11.42 22.83c1.12 1.67 2.61 3.09 3.87 4.67.43.55.57 1.31 1 1.85 2.36 2.92 4.58 6 7.21 8.63a117.87 117.87 0 0 0 8.91 7.76 11.72 11.72 0 0 0 3.21 1.83c5.4 2.11 9.17 5.91 12.26 10.58 3.19 4.82 6.54 9.54 10 14.19a87.25 87.25 0 0 1 8.25 12.66c.77 1.52 1.39 3.11 2.16 4.63.5 1 1.16 1.9 1.74 2.84.17.28.38.54.52.83 1.85 4 3.81 8.05 5.52 12.15a74.1 74.1 0 0 1 5.24 19.87 18.06 18.06 0 0 0 .9 4.26c2 5.49 2.41 11.19 2.53 16.94.18 8.75-1.9 17.13-4.21 25.48-2.95 10.63-9 19.55-16.22 27.81-3.48 4-7.18 7.79-10.91 11.56-7.09 7.16-14 14.54-21.79 21s-14.37 13.83-21.84 20.48c-4.1 3.66-8.38 7.12-12.58 10.67a6.16 6.16 0 0 1 -4.79 1.61 5.3 5.3 0 0 0 -4.23 1.75 36.54 36.54 0 0 1 -11 6.55c-2.62 1.1-4.88 3-7.27 4.6-.89.59-1.62 1.31-2.89 1.14-.51-.07-1.18.44-1.66.82-1.82 1.46-3.64 2.98-5.78 4.73zm19.28-386.23a18.05 18.05 0 0 0 -2.75.19c-4.15 1.16-8.39 2.1-12.39 3.64-8.88 3.42-14.8 9.92-18.76 18.2-1.23 2.56-2.29 5.19-3.49 7.77a57.73 57.73 0 0 0 -5.5 26.11c.18 7.9 2 15.34 6.76 21.94a18.61 18.61 0 0 1 2.3 4.28 79.29 79.29 0 0 1 4.58 19.79c.49 5.06.85 10.15 2.36 15.06a128 128 0 0 0 6.32 16.82c1.53 3.25 2.94 6.6 2.52 10.25a53.8 53.8 0 0 1 -1.76 9.24c-1.46 4.87-3.21 9.67-5 14.44-1.38 3.63-3 7.19-4.57 10.74a8.84 8.84 0 0 1 -5.73 5.07 59.22 59.22 0 0 1 -8.68 2.07 148.06 148.06 0 0 0 -19.29 3.77 228.91 228.91 0 0 0 -30.21 10.67c-3.87 1.68-7.69 3.48-11.64 5a209.73 209.73 0 0 0 -24.08 11.09c-9.72 5.15-19.34 10.41-28.32 16.73-3.7 2.6-7.53 5.05-11.47 7.29a274.47 274.47 0 0 0 -23.81 15.55c-3.49 2.48-6.91 5.1-10.6 7.25-13.18 7.68-24.94 17.19-36.84 26.54-6.2 4.87-12.43 9.74-19 14.15a252.94 252.94 0 0 0 -25.77 19.87 53.64 53.64 0 0 1 -10.65 7.12c-3.58 1.87-7.14 3.81-10.56 5.94a80.22 80.22 0 0 1 -13.22 6.74 38.86 38.86 0 0 0 -4.83 2.39c-2.37 1.34-4.73 2.71-7 4.16a34.25 34.25 0 0 0 -4.38 3.15c-4.46 3.92-4.57 9.42-2 14.2a10.53 10.53 0 0 0 1.59 1.79c2.94-1.87 6.07-2.15 9.23-2.37 2.4-.16 4.8-.31 7.2-.49a2.88 2.88 0 0 0 1.43-.33c1.39-1 2.73-2.06 4.05-3.14l15.47-12.62c1.91-1.56 3.91-3 5.74-4.64 3.49-3.12 6.87-6.35 10.3-9.52a7.7 7.7 0 0 1 1.33-1.1c4.55-2.6 8.42-6 12.33-9.42a8.6 8.6 0 0 1 2.92-1.79c5.44-1.69 10.35-4.38 15.25-7.13a118.67 118.67 0 0 1 12.25-6.5c8.54-3.54 15.86-8.8 22.8-14.6 4.16-3.47 8.3-6.93 12.69-10.15 4.82-3.53 9.82-7 13.38-11.87a3.86 3.86 0 0 1 1.12-1c2.81-1.72 5.62-3.45 8.46-5.12a4.17 4.17 0 0 1 3.82-.32 3.88 3.88 0 0 0 2.6.11 47.77 47.77 0 0 1 10.36-2.3 14.87 14.87 0 0 0 8.88-5 83.71 83.71 0 0 1 7.36-7.23 12 12 0 0 1 10.37-3 6.29 6.29 0 0 0 5.16-.85c.76-.51 1.58-1.28 2.93-.51-.12.61-.24 1.29-.38 2a5.13 5.13 0 0 0 -.34 1.88 3.25 3.25 0 0 0 1.07 2 2.24 2.24 0 0 0 2-.38 61.29 61.29 0 0 0 4.47-4.2c1.79-1.79 3.36-3.8 5.27-5.45 4.91-4.23 9.37-9 14.83-12.58 3.16-2.09 6.1-4.48 9.06-6.84a42.65 42.65 0 0 1 9.73-5.83c2.74-1.18 5.45-2.41 8.17-3.61a49 49 0 0 1 18.29-4.4 103.79 103.79 0 0 1 34 4.27 35.69 35.69 0 0 1 11.94 5.87c2.65 2.09 4.23 4.49 3.55 7.95-.2 1-.25 2.08-.36 3.12-.54 5.23-3.2 9.62-5.82 14a27.59 27.59 0 0 1 -6.73 7.69 69.47 69.47 0 0 0 -5.4 5.32 9.77 9.77 0 0 1 -1.25 1.16c-2.91 2-4.89 5-8 6.75-.21.11-.33.36-.51.52-1.4 1.25-2.72 2.61-4.23 3.71-4.11 3-8.35 5.87-12.46 8.88s-8.38 6.34-12.6 9.47c-3.76 2.79-7.73 5.35-11.33 8.33a78.21 78.21 0 0 1 -13.67 8.53c-7 3.7-13.91 7.59-21 11.5 1.08 1 .51 1.72-.31 2.43q-2.22 1.94-4.4 3.93c-2.43 2.21-5 4.28-7.21 6.69-8 8.83-17.77 15.54-28.12 21.47a25 25 0 0 1 -4.82 1.93 7.48 7.48 0 0 1 -7.1-1 11.37 11.37 0 0 0 -1.47-.8l-.92 1a35.45 35.45 0 0 1 -16.47 10.05 132.68 132.68 0 0 1 -22.25 4.18 7.41 7.41 0 0 0 -4.71 1.88 18.28 18.28 0 0 1 -2.95 2.23c-6.08 3.81-12.11 7.67-18.89 10.28a72.67 72.67 0 0 0 -20 11.52 6.16 6.16 0 0 0 -.66.83c.91.11 1.6.22 2.3.28s1.49-.53 2 .37l-.5 1.62c1.07-.13 1.89-.27 2.71-.32s1.56 0 2.39 0v1.78c1.85.74 3.91-.59 5.65.9-.19.42-.34.78-.51 1.12l-.7 1.34c1.4-.06 2.45-.06 3.49-.16 1.9-.16 3.8-.46 5.7-.54a3.16 3.16 0 0 1 2.26.6c.77.9-.37 1.53-.85 2.24-.06.09 0 .28.08.6 1.21-.16 2.43-.35 3.65-.49 2.23-.25 4.55-.94 6.67-.56s4.07-.11 6.08-.34c1.24-.14 2.47-.35 3.72-.43a5.92 5.92 0 0 1 2.67.17c.6.27.88 1.21 1.14 1.6l7.13.46a10.46 10.46 0 0 0 1.25-.06c2-.08 4-.2 6-.21 2.32 0 4.76-.29 6.94.28a9.21 9.21 0 0 0 4.53-.12c2-.42 4.06-.86 6.1-1.24.89-.16 2-.54 2.69-.22 1.91.89 3.55.05 5.29-.32 1.14-.23 2.26-.51 3.4-.75 1.37-.28 2.68-.37 3.3 1.34 2.42-.46 4.69-.93 7-1.28 1.25-.19 2.62-.79 3.61.71.16.25 1.09.15 1.61 0 1.92-.5 3.81-1.15 5.74-1.62.65-.16 1.75-.19 2 .16a2.57 2.57 0 0 0 2.67.82c3.3-.31 6.6-.66 9.9-1a2.78 2.78 0 0 1 1.67.18 4.1 4.1 0 0 0 3.34.41c5.79-1 11.58-2 17.39-3a5.63 5.63 0 0 1 3.33.23 4 4 0 0 0 3.55.34c1.85-.68 3.65-1.52 5.46-2.32.91-.4 1.75-1 2.68-1.27 3-1 6-1.92 9-2.85a2.85 2.85 0 0 1 .78 0l.72 1.31a9.2 9.2 0 0 0 4.45-1.3 7.37 7.37 0 0 1 3.44-1.17 10.41 10.41 0 0 0 4.61-.64 3.29 3.29 0 0 1 1.21-.17 17.12 17.12 0 0 0 8.3-1.76 18 18 0 0 1 10.2-2.07 6.8 6.8 0 0 0 5.45-1.39 2.8 2.8 0 0 1 2-.64 4.58 4.58 0 0 0 3.51-.7c1.5-.75 2-.54 3 1a6.69 6.69 0 0 0 .71.76c1.19-.52 2.29-1.11 3.46-1.49 1.64-.54 3.39-1.4 5-1.23a4.21 4.21 0 0 0 3.65-1.46c2.29-2.11 4.54-4.27 6.84-6.38.6-.55 1.1-1.48 2.43-.85l-1 2.24a41.89 41.89 0 0 1 5.45-3.13 36.89 36.89 0 0 0 11.42-6.75 6.41 6.41 0 0 1 3.95-1.74 8.58 8.58 0 0 0 6-2.38c1.09-.87 2.27-1.65 3.29-2.59 6.77-6.32 13.51-12.69 20.28-19 2.45-2.29 5-4.51 7.46-6.78 4.84-4.43 9.81-8.74 14.48-13.33 5.25-5.17 10.23-10.61 15.33-15.92.83-.87 1.68-1.73 2.54-2.61-1.48-2.45-3-4.66-4.21-7s-2.05-5.11-3.09-7.66c-.46-1.12-1.05-2.2-1.54-3.31a6.89 6.89 0 0 0 -4.49-3.93c-2.61-.78-5.27-1.44-7.9-2.15-1.12-.31-2.28-.52-3.36-.93-7.77-2.95-11-9.55-14-16.41a5 5 0 0 1 -.21-.95c-.47-2.87-.9-5.74-1.43-8.6a10.48 10.48 0 0 1 .88-6.14c.72-1.71 1.25-3.49 1.92-5.23.89-2.31.16-4.06-1.79-5.5-2.31-1.72-4.52-3.58-6.87-5.23a18.12 18.12 0 0 1 -6.09-6.93 49.47 49.47 0 0 1 -2.34-5.08 19.17 19.17 0 0 0 -4.66-6.75 18.79 18.79 0 0 0 -9.51-5.8 8.55 8.55 0 0 1 -5.41-3.24 2.41 2.41 0 0 0 -2.77-1.06c-2.53.45-5.07.87-7.58 1.44a31.18 31.18 0 0 1 -10.89.64 9.72 9.72 0 0 1 -6-2.65 3.94 3.94 0 0 0 -3.36-1.25c-2.72.31-5.46.56-8.13 1.11a9.58 9.58 0 0 0 -3.77 1.79c-2.23 1.74-3.74 3.9-2.95 6.94a6.56 6.56 0 0 1 -.06 1.52 4.52 4.52 0 0 1 -.94-5 9.56 9.56 0 0 1 5.89-5.89 25.74 25.74 0 0 1 11-1.52 5.14 5.14 0 0 1 2.82 1.28 10.58 10.58 0 0 0 6.83 2.55 32.57 32.57 0 0 0 10.12-1c2.71-.71 5.5-1.09 8.59-1.68a35.78 35.78 0 0 0 -2.11-4.74c-.93-1.49-2.08-3-3.94-3.47-2.49-.63-5-1.14-7.57-1.54a16.6 16.6 0 0 0 -8.56 1.07c-2 .78-2.6 1.8-2.49 4 .08 1.68.35 3.29 2.51 4.45-1.87.09-2.63-.59-2.95-1.66-1.41-4.78-.32-7 4.09-8.21.4-.11.8-.2 1.21-.28a19.84 19.84 0 0 1 9.62.3 7.21 7.21 0 0 0 4.27.43c-2.55-4.41-2.51-8.86-1.24-13.34 1.17-4.12 1.09-8.31.89-12.51a15 15 0 0 0 -1.44-5.62l-7.69 5.25c-.11-7.59 2.45-14.09 4.59-20.39-1.07-1.19-2-2.21-2.86-3.16-2.57 1-3.61 1.08-5.05-.14-2.92-2.45-5.48-5.19-6.44-9-.62-2.43-1.46-4.82-1.95-7.27a98 98 0 0 1 -1.49-9.79c-.44-4.62.48-9.17 1.25-13.72a16.32 16.32 0 0 0 -1.55-10.84c-.38-.71-.67-1.47-1-2.22a9.59 9.59 0 0 1 .74-9.07 33.5 33.5 0 0 1 2.39-3.4c3.29-4.16 3.84-11 0-15a11.52 11.52 0 0 1 -3.32-8.18c.13-3.62.7-7.23 1.15-10.83a7.4 7.4 0 0 1 .83-2.27q1.58-3.16 3.26-6.28a9.42 9.42 0 0 1 3.94-3.92 12.55 12.55 0 0 0 2.6-2.19 27.93 27.93 0 0 1 2.32-2.52c2.73-2.05 3.35-4.76 2.64-7.8a11.32 11.32 0 0 1 1.21-8c1.3-2.49 2.58-5.03 5.37-7.2zm-130.36 249.62a13.13 13.13 0 0 1 -2.24 1 6.43 6.43 0 0 1 -2.86.26c-4.2-1.13-7.77.14-10.84 2.75a69.88 69.88 0 0 0 -6.79 6.76 16.42 16.42 0 0 1 -9.9 5.63 58.14 58.14 0 0 0 -10.43 2.29 4.13 4.13 0 0 1 -2.86 0 3.33 3.33 0 0 0 -3.49.26l-5.37 3.08a13 13 0 0 0 -4.92 4.34 10.82 10.82 0 0 1 -2.55 2.64c-4 3.18-8 6.28-12 9.43-2.77 2.19-5.64 4.28-8.22 6.67-5.68 5.29-12.28 9.36-18.79 13.55a13.69 13.69 0 0 1 -2.65 1.33c-5.92 2.25-11.24 5.59-16.74 8.59-4.36 2.37-8.69 4.78-13.47 6.25a10.76 10.76 0 0 0 -4.22 2.45 66.11 66.11 0 0 1 -11.31 8.71 10.43 10.43 0 0 0 -2.1 1.7c-7.29 7.46-15.68 13.71-23.62 20.46-3.22 2.73-6.68 5.18-10.46 8.09 1.59-.09 2.65-.1 3.7-.21 9.2-1 18.44-.44 27.66-.4 5.15 0 10.3.21 15.45.37a4.48 4.48 0 0 0 2.94-1c2.11-1.56 4.32-3 6.58-4.37 6.27-3.75 13.44-5.49 20.17-8.23.15-.06.32-.08.47-.14 2.83-.95 5.69-1.8 8.46-2.89a27.28 27.28 0 0 1 9.17-2.11 14.17 14.17 0 0 0 10.17-4.46 116.74 116.74 0 0 1 14.42-12.28c3.16-2.36 6.43-4.58 9.76-6.72a22.4 22.4 0 0 1 4.3-1.88c2.39-.91 4.84-1.69 7.21-2.65 2.92-1.17 5.79-2.45 8.66-3.72a37.27 37.27 0 0 0 8.74-5.09c1.84-1.5 3.76-2.94 5.74-4.26a12.15 12.15 0 0 1 9.43-2.17 17.43 17.43 0 0 0 4 .17c4.23-.13 7.23-2.52 10.09-5.22a10.08 10.08 0 0 0 3-5.42 18.43 18.43 0 0 1 2.08-5.39c3.72-6.24 9.51-10 16.39-12.34 4.63-1.56 9.33-2.94 14-4.42 3.79-1.21 7.58-2.42 11.35-3.67a7 7 0 0 0 4-3.44c.77-1.43 1.6-2.83 2.37-4.26a9.78 9.78 0 0 1 5-4.55c1.9-.77 3.92-1.29 5.9-1.88 3.41-1 6.87-1.88 10.22-3a6.69 6.69 0 0 0 2.85-2.18 11.37 11.37 0 0 1 4.48-3.76 35.67 35.67 0 0 1 7.95-2.69 97.28 97.28 0 0 1 13.65-1 16.09 16.09 0 0 1 5.95 1.54c2.19.9 2.66 2.18 2.24 4.53a3.48 3.48 0 0 0 0 2.64c1.69-1.58 2.13-3.9 4.2-4.85 1.4-2.82 3.43-5.39 4-8.56.48-2.7.74-5.43 1.17-8.14.34-2.07-.55-3.55-2-4.9a30.33 30.33 0 0 0 -11.3-6.15 103.23 103.23 0 0 0 -32.16-4.6 50.69 50.69 0 0 0 -20.07 4.2c-3 1.26-6 2.47-8.83 3.95a59.51 59.51 0 0 0 -8.45 5.08c-8.4 6.33-17 12.41-24.53 19.79-1.63 1.6-3.16 3.31-4.79 4.91s-3.25 3.24-5 4.68a3 3 0 0 1 -5.07-2.12 19.9 19.9 0 0 1 .11-2.98zm213.39 52.29c4.86-5.61 9.26-10.9 12.35-17a81.93 81.93 0 0 0 9-38.83 42.31 42.31 0 0 0 -2.33-14.29 19.84 19.84 0 0 1 -1-4.72 71.45 71.45 0 0 0 -4.93-18.95c-1.23-3-2.88-5.8-4.28-8.72-2.07-4.31-4-8.65-6.14-12.94a29.86 29.86 0 0 0 -2.48-4.18c-3.4-4.78-6.91-9.49-10.28-14.28-2.3-3.27-4.37-6.68-6.64-10a18.18 18.18 0 0 0 -7.72-6.68 32.35 32.35 0 0 1 -9.3-6c-.78-.72-1.6-1.41-2.44-2.07-.31-.25-.72-.58-1-.56-3.42.24-6.68-.94-10.06-.93a21.85 21.85 0 0 0 -3.41.39c-1.62.27-3.22.73-4.85.88a8.7 8.7 0 0 0 -5.64 2.18 6 6 0 0 1 -3.13 1.8c-2.61.25-4.15 1.81-5.76 3.46q-2 2-4.12 3.86a2.52 2.52 0 0 1 -3.21.26c-.45-.28-1.24-.61-1.56-.42a9.07 9.07 0 0 0 -2.86 2.27 3.33 3.33 0 0 0 0 2.52 29.5 29.5 0 0 1 1 8.87 41.18 41.18 0 0 1 -1.38 9.88c-1.14 4.8-.5 9.39 3 13.16a19.26 19.26 0 0 1 4.39 8 5.84 5.84 0 0 0 3.91 4.09c1.64.56 3.32 1.07 4.92 1.73a11.73 11.73 0 0 1 3.67 1.95c3.59 3.43 7.3 6.71 8.9 11.72a20 20 0 0 0 8.79 11.11 67.7 67.7 0 0 1 6 4.68 5 5 0 0 1 1.88 5.85 62.21 62.21 0 0 1 -2.17 5.9 9 9 0 0 0 -.85 5.64c.48 2.29.94 4.59 1.24 6.91a13.28 13.28 0 0 0 2.65 6.94 10.56 10.56 0 0 1 1.48 2.51c2.24 5.17 6.71 7.57 11.89 9.08 2.86.83 5.78 1.48 8.63 2.34a8 8 0 0 1 5.36 4.72c1 2.47 2.09 4.92 2.94 7.45 1.23 3.65 3.46 6.73 5.54 10.42zm-102-51.32a5.84 5.84 0 0 1 -.07-4.35 2.1 2.1 0 0 0 -1.35-2.77c-1.69-.63-3.48-1.54-5.2-1.49a112 112 0 0 0 -14.88 1.15c-4.39.7-8.38 2.53-11 6.44a6 6 0 0 1 -3 2c-3.46 1.11-6.95 2.18-10.51 2.94-4.89 1.05-9 3-10.9 7.82a12 12 0 0 1 -8.67 7.33c-1.36.36-2.68.85-4 1.27-5.94 1.83-11.88 3.64-17.82 5.48a31.58 31.58 0 0 0 -9.73 4.8c-4.59 3.45-8.11 7.6-9 13.44a7.33 7.33 0 0 1 -1.53 3.25c-4.48 5.61-10.22 8.31-17.67 7a6.71 6.71 0 0 0 -3.62.29 45.65 45.65 0 0 0 -6.48 3.53c-2.62 1.7-4.92 3.95-7.69 5.33-5.6 2.81-11.42 5.21-17.17 7.75-.75.33-1.61.41-2.37.72a35.85 35.85 0 0 0 -5.85 2.6 129.56 129.56 0 0 0 -10.72 7.59c-4.48 3.61-8.78 7.41-13.06 11.23a15 15 0 0 1 -9.86 4.07 29.65 29.65 0 0 0 -9.65 2.19c-5.9 2.18-11.83 4.25-17.75 6.37-.24.08-.47.17-.71.23-5.56 1.42-10.37 4.28-15.06 7.37a10.5 10.5 0 0 0 -1.31 1.37h5.61c5.06.13 10.14-.31 15.18.6 2.78.5 5.57.9 8.38 1.22a89.81 89.81 0 0 0 20.4.42 298.68 298.68 0 0 0 31.46-5 38.58 38.58 0 0 0 17-8.64c2.46-2.12 4.36-4.75 6.64-7a92.13 92.13 0 0 1 24.79-17.35c6.72-3.36 13.54-6.55 20.16-10.09 9.6-5.14 19.06-10.52 28.56-15.84a95.67 95.67 0 0 0 8.24-5c5-3.5 9.79-7.21 14.7-10.8 2.78-2 5.64-4 8.45-6 .47-.33.87-.74 1.33-1.09 2.08-1.6 4.18-3.18 6.25-4.79 4.38-3.42 9.57-5.87 13.16-10.25a3.44 3.44 0 0 1 1.14-.94c3.15-1.5 4.86-4.53 7.53-6.6s5.01-5.05 7.66-7.8zm75.9-213.57a52 52 0 0 0 -1.56-6.88c-1-2.72-2.51-5.27-3.68-8a23.39 23.39 0 0 0 -6.91-9 34.85 34.85 0 0 1 -4.18-3.43c-3.3-3.63-7.63-5.66-12-7.62a30.89 30.89 0 0 0 -5.87-2 69.08 69.08 0 0 0 -16.87-1.05c-2.09.05-4.29-.18-5.46 2.29-.49 1-1.8 1.67-2.47 2.66-2.58 3.8-4.39 7.82-3 12.54a1.94 1.94 0 0 1 0 .24 7 7 0 0 1 -2.3 6.14 29 29 0 0 0 -2.69 2.8 12.38 12.38 0 0 1 -3.89 3.33 5.5 5.5 0 0 0 -2.14 2q-2.42 4.23-4.52 8.62a12 12 0 0 0 -.68 3.3c-.19 1.36-.23 2.74-.47 4.09a14.4 14.4 0 0 0 3.42 12.21 10.83 10.83 0 0 1 2.2 9.34 15.6 15.6 0 0 1 -3.46 7.11c-3.27 3.89-4 8.06-1.46 12.6a19.11 19.11 0 0 1 1.07 2.45 14.28 14.28 0 0 1 .89 7.14c-.21 1.6-.42 3.21-.68 4.8-1.25 7.68-1.29 15.28 1.37 22.74a14.46 14.46 0 0 1 .6 2.35 16.41 16.41 0 0 0 5.67 10 5.29 5.29 0 0 0 2.46 1.45c.88.08 1.83-.6 2.55-.88l3.49 3c.91-1.2 1.8-.7 2.81-.1a4.63 4.63 0 0 0 5.95-.58 30.87 30.87 0 0 0 3.1-3.45c1-1.25 1.91-2.6 2.86-3.91-.32-2.46-.58-4.95-1-7.42a12 12 0 0 0 -1.17-4.15 17.79 17.79 0 0 1 -2.29-7.11c-.62-4.78-.15-9.7-1.87-14.36a3.29 3.29 0 0 1 0-1.68 10.19 10.19 0 0 1 .87-1.77c3.67 4.34 4 9.57 5.94 14.27 2.64 0 3.78 1.71 4.55 3.82.16.46.38.9.52 1.36a6.71 6.71 0 0 0 4.06 4.57c3.05 1.27 3.85 4.06 4.21 7a8.14 8.14 0 0 1 -1.71-2.74 4.92 4.92 0 0 0 -2.83-3.22c-2.72-1-4-3-4.76-5.52-.19-.62-.48-1.21-.72-1.8-.53-1.26-1.23-2.3-2.82-2.38a1.94 1.94 0 0 1 -1.83-1.7c-.52-1.95-1-3.93-1.64-5.83s-1.61-3.8-2.43-5.69l-.49.14a6.24 6.24 0 0 0 .1 1.79 34.9 34.9 0 0 1 1.53 10.81c.09 3 .36 6 1.95 8.68a14.17 14.17 0 0 1 1.82 6c.24 2.24.48 4.5.92 6.71.4 2 1.84 2.65 3.72 1.76a15.68 15.68 0 0 0 3.06-2.07 4.19 4.19 0 0 1 3.86-1.15 3.11 3.11 0 0 0 3.28-1.26c.38-.42.73-.87 1.07-1.33a1.88 1.88 0 0 1 2.14-.74 33.52 33.52 0 0 0 4.44.28c-.48-.84-.69-1.25-.94-1.64-1.32-2.06-2.76-4.05-3.95-6.17-4.92-8.83-9.48-17.8-10.88-27.92a3 3 0 0 0 -1.57-2.27c-1.94-1.27-3.88-2.65-4.49-5-.84-3.28-1.57-6.6-2.25-9.91a13.89 13.89 0 0 1 0-2.66 3.72 3.72 0 0 1 2.38-3.7 15.46 15.46 0 0 0 2.45-1.61c2.48-1.8 2.94-1.82 5.5-.13 2.77 1.81 3.95 1.75 6.33-.49a6.63 6.63 0 0 1 3.66-1.88 17.74 17.74 0 0 0 4.26-1.13 4.11 4.11 0 0 1 4.23.39 14.29 14.29 0 0 1 2 1.79 7.85 7.85 0 0 0 4.34 2.21 2 2 0 0 0 2.38-.85c1.49-2.49 3.47-4.84 4.38-7.53 1.86-5.51 3.18-11.19 4.64-16.82.41-1.61.55-3.29.83-5a8 8 0 0 0 -1.69-.34c-4.48.16-9 .31-13.43.56-1.43.07-2.92.42-4-.62s-2.17-.77-3.33-.07a8.61 8.61 0 0 1 -5.55.91c-3.12-.38-4-2.71-2.06-5.34.06 0 .18.06.19.09 0 .56.05 1.11 0 1.67 0 1.9.29 2.29 2.21 2.42a8.24 8.24 0 0 0 5-1.08 2.9 2.9 0 0 1 3.86.22c.94.88 2.11.76 3.3.67 2.06-.16 4.13-.3 6.21-.34 3.01-.04 5.99 0 9.36 0zm-56.07 408.69-40.29-2.37c6.72-.2 13.44-.13 20.15.15 6.48.27 12.95.7 19.42 1.18 2.15.16 3.55-.85 5.12-2.23a14.92 14.92 0 0 0 -1.75-.68c-3.55-.85-7.09-1.74-10.66-2.47-4.4-.9-8.88-1.68-12.8-3.86a20 20 0 0 0 -11.29-2.31c-8.44.57-17 .09-25.3 2.08-2.31.55-3-.13-3.11-2.42-.18-3.3-.42-6.6-.65-9.9a48.63 48.63 0 0 0 -.56-6.74 35.56 35.56 0 0 1 1.72-19.77 7.24 7.24 0 0 0 .44-4.5 8.75 8.75 0 0 0 -1 .1c-1.94.35-3.91 1.12-5.8 1a11.5 11.5 0 0 0 -5.42 1.25c-2.17.86-4.39 2.12-6.86.7a1.78 1.78 0 0 0 -1.18 0 49.07 49.07 0 0 0 -6.62 2.11c-2.34 1.08-5 1.72-6 4.79-.88 2.68-.76 5.37 2.81 6.95a4.63 4.63 0 0 1 2.89 3.68c.2 1.36.23 2.73.31 4.1.55 9.07-1.23 18-1.31 27.08q-.07 8 .19 16a4.92 4.92 0 0 0 1.32 3 32.12 32.12 0 0 0 10.8 7.2c6.72 2.78 13.61 5.17 20.42 7.75a179.37 179.37 0 0 0 26.19 7.73c6.67 1.44 13.23.61 19.82-.17 3.38-.4 4.52-3.51 2.41-6.11a46.21 46.21 0 0 0 -3.17-3.4c-.63-.64-1.68-1.22-1.16-2.16.28-.5 1.37-.65 2.13-.79.94-.19 1.91-.2 3.2-.32-.61-.75-.93-1.21-1.32-1.61-.69-.69-1.48-1.3-2.14-2s-1.3-1.62-2-2.43a14.21 14.21 0 0 0 -1.45-1.61c-2-1.75-1.95-3.88.21-5.51.55-.41 1.12-.8 2.11-1.5a33.5 33.5 0 0 0 -3.23-1c-6.27-1.25-12.53-2.53-18.82-3.66-10.53-1.91-21.08-3.71-31.62-5.57a9.44 9.44 0 0 1 -1.58-.59l.18-.6a22.45 22.45 0 0 1 2.32.2c6.53 1.18 13.06 2.4 19.58 3.58 9.8 1.79 19.61 3.55 29.4 5.35a16.37 16.37 0 0 1 3.34.94c2 .85 2.11 1.88.36 3.11-.69.49-1.37 1-2.54 1.87 4.21 1.11 7.77 2.09 11.36 3a7.31 7.31 0 0 0 2.47 0c3-.32 3.61-1 3.53-3.84a7.63 7.63 0 0 0 -.49-1.59 26 26 0 0 1 -.83-3c-.25-1.59-2.61-3.89-4.25-4q-11.33-.7-22.65-1.44a9.34 9.34 0 0 1 -1.44-.33 2.77 2.77 0 0 1 1.75-.45c3.9.22 7.8.47 11.7.69l10.46.58c1.21.07 2.33 0 2.7-1.2zm126.53-370.65a16.87 16.87 0 0 0 -6.35-4.26c-10.8-4.35-21.91-8.08-31.46-15-8.53-6.09-17.21-12.09-25.82-18.09-1.89-1.33-3.74-2.72-5.63-4.1 0 2.3.34 4.36-.07 6.28-1.28 6.07-2.71 12.12-4.35 18.12a27.44 27.44 0 0 1 -6.73 11.7c-.37.39-.71.8-1.11 1.26 3.74 1 6.2 1.09 8 .33-.85-1.35-3-1.56-3.22-3.52a39.21 39.21 0 0 1 4.52 2.45 19.48 19.48 0 0 0 7.8 3c6.34.73 12.7 1.34 19.06 1.92 3.5.32 6.91.84 10 2.56a46.92 46.92 0 0 0 11.94 4.12 20.48 20.48 0 0 0 5.19.45c3.57-.1 7.13-.33 10.69-.6a20.91 20.91 0 0 0 8.01-1.82c1.69-.84 1.84-1.37.83-3.33a62.21 62.21 0 0 1 -6.86.6 153.06 153.06 0 0 1 -22.33-1.6c-.44-.07-.82-.48-1.22-.73l.18-.59c9.59.92 19.21 2.08 28.93.85zm-82.59 66.54c-1-1-1.9-1.72-2.59-2.56-2.12-2.59-4.21-5.2-6.21-7.87a3.51 3.51 0 0 0 -3.33-1.63c-1.47.12-3 0-4.59 0-.18.21-.47.5-.72.81-1.4 1.77-2.94 3.07-5.51 2.26-.49-.15-1.26.25-1.8.56-.7.42-1.27 1-1.93 1.52-2.07 1.54-4.22 2.29-6.59.57-.1-.07-.32 0-.62 0-.36.52-.73 1.15-1.19 1.71a46.21 46.21 0 0 1 -4 4.62 5.64 5.64 0 0 1 -6.7.82l-1.48-.73c-2.1 6.25-4.66 12.24-4.92 19.38 1.43-1 2.44-1.64 3.41-2.36 2.22-1.65 4.44-3.32 6.62-5 .86-.66 1.79-1.1 2.71-.41 1.49 1.12 2.63.56 3.71-.5q2.28-2.22 4.5-4.52a6.07 6.07 0 0 1 3.83-2.06 6.28 6.28 0 0 0 3.91-2 8.13 8.13 0 0 1 5.86-2.23 8.29 8.29 0 0 0 3.18-.41c2.71-1.29 5.48-1 8.3-.69 1.91.33 3.8.49 6.15.72zm-207.57 209.36c2.2 2.25 4.57 3 7.39 2a25.3 25.3 0 0 0 4.14-1.64c9.78-5.58 19-11.92 26.77-20 3.29-3.41 6.91-6.52 10.39-9.76l2.56-2.37a5.71 5.71 0 0 0 -2.41.89c-4 2.12-8 4.37-12 6.32-7.31 3.49-14.7 6.8-21.43 11.34a73.25 73.25 0 0 0 -15.41 13.22zm207.35-281.15c-1.61-.78-3-1.37-4.35-2.16a14.2 14.2 0 0 1 -2-1.85 3.3 3.3 0 0 0 -4.08-.61 9.66 9.66 0 0 1 -3.52 1 6.23 6.23 0 0 0 -4.11 1.94c-2.13 2.08-3.88 2.23-6.5.79a9.89 9.89 0 0 1 -1.42-1 2.23 2.23 0 0 0 -3 0 12.76 12.76 0 0 1 -2.55 1.79 4 4 0 0 0 -2.64 4.88 110.65 110.65 0 0 0 2.45 11.12c.55 2 2.26 3.19 4.44 4.14a28.12 28.12 0 0 1 .32-5 13.55 13.55 0 0 1 2-4.6c.49-.69 1.86-.86 2.87-1.13 3.68-1 7.39-1.82 11-2.84a24.27 24.27 0 0 0 11.09-6.47z"/><path d="m370.14 13.29c-2.79 2.17-4.07 4.68-5.35 7.18a11.32 11.32 0 0 0 -1.21 8c.71 3 .09 5.75-2.64 7.8a27.93 27.93 0 0 0 -2.32 2.52 12.55 12.55 0 0 1 -2.62 2.21 9.42 9.42 0 0 0 -3.88 4q-1.68 3.12-3.26 6.28a7.4 7.4 0 0 0 -.83 2.27c-.45 3.6-1 7.21-1.15 10.83a11.52 11.52 0 0 0 3.32 8.18c3.85 4 3.3 10.85 0 15a33.5 33.5 0 0 0 -2.39 3.4 9.59 9.59 0 0 0 -.74 9.07c.31.75.6 1.51 1 2.22a16.32 16.32 0 0 1 1.56 10.75c-.77 4.55-1.69 9.1-1.25 13.72a98 98 0 0 0 1.49 9.79c.49 2.45 1.33 4.84 1.95 7.27 1 3.8 3.52 6.54 6.44 9 1.44 1.22 2.48 1.16 5.05.14.87.95 1.79 2 2.86 3.16-2.14 6.3-4.7 12.8-4.59 20.39l7.69-5.25a15 15 0 0 1 1.44 5.62c.2 4.2.28 8.39-.89 12.51-1.27 4.48-1.31 8.93 1.24 13.34a7.21 7.21 0 0 1 -4.27-.43 19.84 19.84 0 0 0 -9.62-.3c-.41.08-.81.17-1.21.28-4.41 1.19-5.5 3.43-4.09 8.21.32 1.07 1.08 1.75 2.95 1.66-2.16-1.16-2.43-2.77-2.51-4.45-.11-2.17.46-3.19 2.49-4a16.6 16.6 0 0 1 8.56-1.07c2.54.4 5.08.91 7.57 1.54 1.86.47 3 2 3.94 3.47a35.78 35.78 0 0 1 2.11 4.74c-3.09.59-5.88 1-8.59 1.68a32.57 32.57 0 0 1 -10.12 1 10.58 10.58 0 0 1 -6.83-2.55 5.14 5.14 0 0 0 -2.82-1.28 25.74 25.74 0 0 0 -11 1.52 9.56 9.56 0 0 0 -5.89 5.89 4.52 4.52 0 0 0 .94 5 6.56 6.56 0 0 0 .06-1.52c-.79-3 .72-5.2 2.95-6.94a9.58 9.58 0 0 1 3.77-1.79c2.67-.55 5.41-.8 8.13-1.11a3.94 3.94 0 0 1 3.36 1.25 9.72 9.72 0 0 0 6 2.65 31.18 31.18 0 0 0 10.89-.64c2.51-.57 5.05-1 7.58-1.44a2.41 2.41 0 0 1 2.77 1.06 8.55 8.55 0 0 0 5.41 3.24 18.79 18.79 0 0 1 9.51 5.8 19.17 19.17 0 0 1 4.66 6.75 49.47 49.47 0 0 0 2.34 5.08 18.12 18.12 0 0 0 6.09 6.93c2.35 1.65 4.56 3.51 6.87 5.23 1.95 1.44 2.68 3.19 1.79 5.5-.67 1.74-1.2 3.52-1.92 5.23a10.48 10.48 0 0 0 -.93 6.12c.53 2.86 1 5.73 1.43 8.6a5 5 0 0 0 .21.95c2.92 6.86 6.19 13.46 14 16.41 1.08.41 2.24.62 3.36.93 2.63.71 5.29 1.37 7.9 2.15a6.89 6.89 0 0 1 4.49 3.93c.49 1.11 1.08 2.19 1.54 3.31 1 2.55 1.87 5.19 3.09 7.66s2.73 4.59 4.21 7c-.86.88-1.71 1.74-2.54 2.61-5.1 5.31-10.08 10.75-15.33 15.92-4.67 4.59-9.64 8.9-14.48 13.33-2.48 2.27-5 4.49-7.46 6.78-6.77 6.33-13.51 12.7-20.28 19-1 .94-2.2 1.72-3.29 2.59a8.58 8.58 0 0 1 -6 2.38 6.41 6.41 0 0 0 -3.95 1.74 36.89 36.89 0 0 1 -11.42 6.75 41.89 41.89 0 0 0 -5.45 3.13l1-2.24c-1.33-.63-1.83.3-2.43.85-2.3 2.11-4.55 4.27-6.84 6.38a4.21 4.21 0 0 1 -3.65 1.46c-1.61-.17-3.36.69-5 1.23-1.17.38-2.27 1-3.46 1.49a6.69 6.69 0 0 1 -.71-.76c-1-1.53-1.46-1.74-3-1a4.58 4.58 0 0 1 -3.51.7 2.8 2.8 0 0 0 -2 .64 6.8 6.8 0 0 1 -5.45 1.39 18 18 0 0 0 -10.2 2.07 17.12 17.12 0 0 1 -8.3 1.76 3.29 3.29 0 0 0 -1.21.17 10.41 10.41 0 0 1 -4.61.64 7.37 7.37 0 0 0 -3.44 1.17 9.2 9.2 0 0 1 -4.45 1.3l-.72-1.31a2.85 2.85 0 0 0 -.78 0c-3 .93-6 1.85-9 2.85-.93.31-1.77.87-2.68 1.27-1.81.8-3.61 1.64-5.46 2.32a4 4 0 0 1 -3.55-.34 5.63 5.63 0 0 0 -3.33-.23c-5.81.93-11.6 1.95-17.39 3a4.1 4.1 0 0 1 -3.34-.41 2.78 2.78 0 0 0 -1.67-.18c-3.3.3-6.6.65-9.9 1a2.57 2.57 0 0 1 -2.67-.82c-.28-.35-1.38-.32-2-.16-1.93.47-3.82 1.12-5.74 1.62-.52.14-1.45.24-1.61 0-1-1.5-2.36-.9-3.61-.71-2.29.35-4.56.82-7 1.28-.62-1.71-1.93-1.62-3.3-1.34-1.14.24-2.26.52-3.4.75-1.74.37-3.38 1.21-5.29.32-.7-.32-1.8.06-2.69.22-2 .38-4.07.82-6.1 1.24a9.21 9.21 0 0 1 -4.53.12c-2.18-.57-4.62-.29-6.94-.28-2 0-4 .13-6 .21a10.46 10.46 0 0 1 -1.25.06l-7.13-.46c-.26-.39-.54-1.33-1.14-1.6a5.92 5.92 0 0 0 -2.67-.17c-1.25.08-2.48.29-3.72.43-2 .23-3.91.72-6.08.34s-4.44.31-6.67.56c-1.22.14-2.44.33-3.65.49-.05-.32-.14-.51-.08-.6.48-.71 1.62-1.34.85-2.24a3.16 3.16 0 0 0 -2.26-.6c-1.9.08-3.8.38-5.7.54-1 .1-2.09.1-3.49.16l.7-1.34c.17-.34.32-.7.51-1.12-1.74-1.49-3.8-.16-5.65-.9v-1.78c-.83 0-1.62 0-2.39 0s-1.64.19-2.71.32l.5-1.62c-.52-.9-1.33-.31-2-.37s-1.39-.17-2.3-.28a6.16 6.16 0 0 1 .66-.83 72.67 72.67 0 0 1 20-11.52c6.78-2.61 12.81-6.47 18.89-10.28a18.28 18.28 0 0 0 2.95-2.23 7.41 7.41 0 0 1 4.71-1.88 132.68 132.68 0 0 0 22.25-4.18 35.45 35.45 0 0 0 16.47-10.05l.92-1a11.37 11.37 0 0 1 1.47.8 7.48 7.48 0 0 0 7.1 1 25 25 0 0 0 4.82-1.93c10.27-5.9 20.02-12.56 28.02-21.44 2.2-2.41 4.78-4.48 7.21-6.69q2.18-2 4.4-3.93c.82-.71 1.39-1.43.31-2.43 7.13-3.91 14-7.8 21-11.5a78.21 78.21 0 0 0 13.58-8.52c3.6-3 7.57-5.54 11.33-8.33 4.22-3.13 8.35-6.37 12.6-9.47s8.35-5.87 12.46-8.88c1.51-1.1 2.83-2.46 4.23-3.71.18-.16.3-.41.51-.52 3.15-1.72 5.13-4.75 8-6.75a9.77 9.77 0 0 0 1.25-1.16 69.47 69.47 0 0 1 5.4-5.32 27.59 27.59 0 0 0 6.73-7.69c2.62-4.41 5.28-8.8 5.82-14 .11-1 .16-2.1.36-3.12.68-3.46-.9-5.86-3.55-7.95a35.69 35.69 0 0 0 -11.94-5.87 103.79 103.79 0 0 0 -34-4.27 49 49 0 0 0 -18.29 4.4c-2.72 1.2-5.43 2.43-8.17 3.61a42.65 42.65 0 0 0 -9.73 5.83c-3 2.36-5.9 4.75-9.06 6.84-5.46 3.63-9.92 8.35-14.83 12.58-1.91 1.65-3.48 3.66-5.27 5.45a61.29 61.29 0 0 1 -4.47 4.2 2.24 2.24 0 0 1 -2 .38 3.25 3.25 0 0 1 -1.07-2 5.13 5.13 0 0 1 .34-1.88c.14-.68.26-1.36.38-2-1.35-.77-2.17 0-2.93.51a6.29 6.29 0 0 1 -5.16.85 12 12 0 0 0 -10.37 3 83.71 83.71 0 0 0 -7.36 7.23 14.87 14.87 0 0 1 -8.88 5 47.77 47.77 0 0 0 -10.42 2.34 3.88 3.88 0 0 1 -2.6-.11 4.17 4.17 0 0 0 -3.82.32c-2.84 1.67-5.65 3.4-8.46 5.12a3.86 3.86 0 0 0 -1.12 1c-3.41 4.91-8.41 8.32-13.23 11.86-4.39 3.22-8.53 6.68-12.69 10.15-6.94 5.8-14.26 11.06-22.8 14.6a118.67 118.67 0 0 0 -12.25 6.5c-4.9 2.75-9.81 5.44-15.25 7.13a8.6 8.6 0 0 0 -2.92 1.79c-3.91 3.39-7.78 6.82-12.33 9.42a7.7 7.7 0 0 0 -1.33 1.1c-3.43 3.17-6.81 6.4-10.3 9.52-1.83 1.64-3.83 3.08-5.74 4.64l-15.47 12.61c-1.32 1.08-2.66 2.15-4.05 3.14a2.88 2.88 0 0 1 -1.43.33c-2.4.18-4.8.33-7.2.49-3.16.22-6.29.5-9.23 2.37a10.53 10.53 0 0 1 -1.59-1.79c-2.52-4.78-2.41-10.28 2-14.2a34.25 34.25 0 0 1 4.4-3.14c2.3-1.45 4.66-2.82 7-4.16a38.86 38.86 0 0 1 4.85-2.48 80.22 80.22 0 0 0 13.22-6.74c3.42-2.13 7-4.07 10.56-5.94a53.64 53.64 0 0 0 10.65-7.12 252.94 252.94 0 0 1 25.77-19.87c6.55-4.41 12.78-9.28 19-14.15 11.9-9.35 23.66-18.86 36.84-26.54 3.69-2.15 7.11-4.77 10.6-7.25a274.47 274.47 0 0 1 23.8-15.53c3.94-2.24 7.77-4.69 11.47-7.29 9-6.32 18.6-11.58 28.32-16.73a209.73 209.73 0 0 1 24.08-11.09c3.95-1.49 7.77-3.29 11.64-5a228.91 228.91 0 0 1 30.21-10.67 148.06 148.06 0 0 1 19.29-3.77 59.22 59.22 0 0 0 8.68-2.07 8.84 8.84 0 0 0 5.73-5.07c1.58-3.55 3.19-7.11 4.57-10.74 1.8-4.77 3.55-9.57 5-14.44a53.8 53.8 0 0 0 1.76-9.24c.42-3.65-1-7-2.52-10.25a128 128 0 0 1 -6.32-16.82c-1.51-4.91-1.87-10-2.36-15.06a79.29 79.29 0 0 0 -4.58-19.79 18.61 18.61 0 0 0 -2.3-4.28c-4.74-6.6-6.58-14-6.76-21.94a57.73 57.73 0 0 1 5.5-26.11c1.2-2.58 2.26-5.21 3.49-7.77 4-8.28 9.88-14.78 18.76-18.2 4-1.54 8.24-2.48 12.39-3.64a18.05 18.05 0 0 1 2.8-.16z"/><path d="m239.78 262.91a19.9 19.9 0 0 0 -.15 3 3 3 0 0 0 5.07 2.09c1.79-1.44 3.41-3.08 5-4.68s3.16-3.31 4.79-4.91c7.51-7.38 16.13-13.46 24.53-19.79a59.51 59.51 0 0 1 8.45-5.08c2.86-1.48 5.87-2.69 8.83-3.95a50.69 50.69 0 0 1 20.07-4.2 103.23 103.23 0 0 1 32.16 4.6 30.33 30.33 0 0 1 11.22 6.11c1.5 1.35 2.39 2.83 2 4.9-.43 2.71-.69 5.44-1.17 8.14-.57 3.17-2.6 5.74-4 8.56-2.07.95-2.51 3.27-4.2 4.85a3.48 3.48 0 0 1 0-2.64c.42-2.35-.05-3.63-2.24-4.53a16.09 16.09 0 0 0 -5.95-1.54 97.28 97.28 0 0 0 -13.65 1 35.67 35.67 0 0 0 -7.95 2.69 11.37 11.37 0 0 0 -4.48 3.76 6.69 6.69 0 0 1 -2.85 2.18c-3.35 1.14-6.81 2-10.22 3-2 .59-4 1.11-5.9 1.88a9.78 9.78 0 0 0 -5 4.55c-.77 1.43-1.6 2.83-2.37 4.26a7 7 0 0 1 -4 3.44c-3.77 1.25-7.56 2.46-11.35 3.67-4.65 1.48-9.35 2.86-14 4.42-6.88 2.31-12.67 6.1-16.39 12.34a18.43 18.43 0 0 0 -2.08 5.39 10.08 10.08 0 0 1 -3 5.42c-2.86 2.7-5.86 5.09-10.09 5.22a17.43 17.43 0 0 1 -4-.17 12.15 12.15 0 0 0 -9.43 2.17c-2 1.32-3.9 2.76-5.74 4.26a37.27 37.27 0 0 1 -8.74 5.09c-2.87 1.27-5.74 2.55-8.66 3.72-2.37 1-4.82 1.74-7.21 2.65a22.4 22.4 0 0 0 -4.3 1.88c-3.33 2.14-6.6 4.36-9.76 6.72a116.74 116.74 0 0 0 -14.42 12.28 14.17 14.17 0 0 1 -10.17 4.46 27.28 27.28 0 0 0 -9.17 2.11c-2.77 1.09-5.63 1.94-8.46 2.89-.15.06-.32.08-.47.14-6.73 2.74-13.9 4.48-20.17 8.23-2.26 1.36-4.47 2.81-6.58 4.37a4.48 4.48 0 0 1 -2.94 1c-5.15-.16-10.3-.35-15.45-.37-9.22 0-18.46-.6-27.66.4-1 .11-2.11.12-3.7.21 3.78-2.91 7.24-5.36 10.46-8.09 7.94-6.75 16.33-13 23.62-20.46a10.43 10.43 0 0 1 2.1-1.7 66.11 66.11 0 0 0 11.31-8.71 10.76 10.76 0 0 1 4.22-2.45c4.78-1.47 9.11-3.88 13.47-6.25 5.5-3 10.82-6.34 16.74-8.59a13.69 13.69 0 0 0 2.65-1.33c6.51-4.19 13.11-8.26 18.79-13.55 2.58-2.39 5.45-4.48 8.22-6.67 4-3.15 8-6.25 12-9.43a10.82 10.82 0 0 0 2.55-2.64 13 13 0 0 1 4.92-4.34l5.34-3.12a3.33 3.33 0 0 1 3.49-.26 4.13 4.13 0 0 0 2.86 0 58.14 58.14 0 0 1 10.43-2.29 16.42 16.42 0 0 0 9.9-5.63 69.88 69.88 0 0 1 6.79-6.76c3.07-2.61 6.64-3.88 10.84-2.75a6.43 6.43 0 0 0 2.86-.26 13.13 13.13 0 0 0 2.39-.91zm-21.43 31.72c-1.38.68-2.38 1.12-3.32 1.67-4.78 2.78-9.47 5.7-14.31 8.36-7.45 4.1-15.07 7.91-22.5 12-9.88 5.49-19.64 11.19-29.48 16.77q-18.3 10.38-36.63 20.73c-1.29.73-2.65 1.34-3.94 2.08-2.36 1.36-4.72 2.71-7 4.18s-4.72 3-6.92 4.76a83 83 0 0 1 -15.34 9.86c-.33.16-.5.61-.75.93l.38.48c3.46-2.16 7.38-3.44 10.7-5.91 4.75-3.53 9.57-7 14.41-10.39 1.41-1 3-1.77 4.48-2.62 2.53-1.4 5.08-2.76 7.59-4.18 5.45-3.1 10.87-6.26 16.33-9.35q18.42-10.44 36.86-20.83c6.68-3.76 13.33-7.61 20.14-11.16 9.24-4.81 18.47-9.6 27.24-15.19.71-.41 1.71-.65 2.06-2.19z"/><path d="m453.17 315.2c-2.08-3.69-4.31-6.77-5.53-10.41-.85-2.53-1.93-5-2.94-7.45a8 8 0 0 0 -5.36-4.72c-2.85-.86-5.77-1.51-8.63-2.34-5.18-1.51-9.65-3.91-11.89-9.08a10.56 10.56 0 0 0 -1.48-2.51 13.28 13.28 0 0 1 -2.65-6.94c-.3-2.32-.76-4.62-1.24-6.91a9 9 0 0 1 .85-5.64 62.21 62.21 0 0 0 2.17-5.9 5 5 0 0 0 -1.88-5.85 67.7 67.7 0 0 0 -6-4.68 20 20 0 0 1 -8.79-11.11c-1.6-5-5.31-8.29-8.9-11.72a11.73 11.73 0 0 0 -3.67-1.95c-1.6-.66-3.28-1.17-4.92-1.73a5.84 5.84 0 0 1 -3.91-4.09 19.26 19.26 0 0 0 -4.39-8c-3.46-3.77-4.1-8.36-3-13.16a41.18 41.18 0 0 0 1.33-9.81 29.5 29.5 0 0 0 -1-8.87 3.33 3.33 0 0 1 0-2.52 9.07 9.07 0 0 1 2.86-2.27c.32-.19 1.11.14 1.56.42a2.52 2.52 0 0 0 3.21-.26q2.15-1.84 4.12-3.86c1.61-1.65 3.15-3.21 5.76-3.46a6 6 0 0 0 3.13-1.8 8.7 8.7 0 0 1 5.64-2.18c1.63-.15 3.23-.61 4.85-.88a21.85 21.85 0 0 1 3.41-.39c3.38 0 6.64 1.17 10.06.93.33 0 .74.31 1 .56.84.66 1.66 1.35 2.44 2.07a32.35 32.35 0 0 0 9.3 6 18.18 18.18 0 0 1 7.72 6.68c2.27 3.28 4.34 6.69 6.64 10 3.37 4.79 6.88 9.5 10.28 14.28a29.86 29.86 0 0 1 2.48 4.18c2.09 4.29 4.07 8.63 6.14 12.94 1.4 2.92 3.05 5.74 4.28 8.72a71.45 71.45 0 0 1 4.93 18.95 19.84 19.84 0 0 0 1 4.72 42.31 42.31 0 0 1 2.33 14.29 81.93 81.93 0 0 1 -9 38.83c-3.05 6.02-7.48 11.31-12.31 16.92z"/><path d="m351.18 263.88c-2.65 2.75-4.88 5.64-7.69 7.81s-4.38 5.1-7.53 6.6a3.44 3.44 0 0 0 -1.14.94c-3.59 4.38-8.78 6.83-13.16 10.25-2.07 1.61-4.17 3.19-6.25 4.79-.46.35-.86.76-1.33 1.09-2.81 2-5.67 3.95-8.45 6-4.91 3.59-9.73 7.3-14.7 10.8a95.67 95.67 0 0 1 -8.24 5c-9.5 5.32-19 10.7-28.56 15.84-6.62 3.54-13.44 6.73-20.16 10.09a92.13 92.13 0 0 0 -24.75 17.33c-2.28 2.3-4.18 4.93-6.64 7a38.58 38.58 0 0 1 -17 8.64 298.68 298.68 0 0 1 -31.46 5 89.81 89.81 0 0 1 -20.4-.42c-2.81-.32-5.6-.72-8.38-1.22-5-.91-10.12-.47-15.18-.6-1.73-.05-3.46 0-5.61 0a10.5 10.5 0 0 1 1.31-1.37c4.69-3.09 9.5-5.95 15.06-7.37.24-.06.47-.15.71-.23 5.92-2.12 11.85-4.19 17.75-6.37a29.65 29.65 0 0 1 9.65-2.19 15 15 0 0 0 9.86-4.07c4.28-3.82 8.58-7.62 13.06-11.23a129.56 129.56 0 0 1 10.62-7.61 35.85 35.85 0 0 1 5.85-2.6c.76-.31 1.62-.39 2.37-.72 5.75-2.54 11.57-4.94 17.17-7.75 2.77-1.38 5.07-3.63 7.69-5.33a45.65 45.65 0 0 1 6.48-3.53 6.71 6.71 0 0 1 3.62-.29c7.45 1.32 13.19-1.38 17.67-7a7.33 7.33 0 0 0 1.53-3.25c.92-5.84 4.44-10 9-13.44a31.58 31.58 0 0 1 9.73-4.8c5.94-1.84 11.88-3.65 17.82-5.48 1.35-.42 2.67-.91 4-1.27a12 12 0 0 0 8.67-7.33c1.94-4.8 6-6.77 10.9-7.82 3.56-.76 7.05-1.83 10.51-2.94a6 6 0 0 0 3-2c2.63-3.91 6.62-5.74 11-6.44a112 112 0 0 1 14.88-1.15c1.72-.05 3.51.86 5.2 1.49a2.1 2.1 0 0 1 1.35 2.77 5.84 5.84 0 0 0 .17 4.38z"/><path d="m427.07 50.31c-3.37 0-6.35 0-9.32 0-2.08 0-4.15.18-6.21.34-1.19.09-2.36.21-3.3-.67a2.9 2.9 0 0 0 -3.86-.22 8.24 8.24 0 0 1 -5 1.08c-1.92-.13-2.25-.52-2.21-2.42 0-.56 0-1.11 0-1.67 0 0-.13-.06-.19-.09-1.94 2.63-1.06 5 2.06 5.34a8.61 8.61 0 0 0 5.54-1c1.16-.7 2.15-1 3.33.07s2.62.69 4 .62c4.47-.25 9-.4 13.43-.56a8 8 0 0 1 1.69.34c-.28 1.74-.42 3.42-.83 5-1.46 5.63-2.78 11.31-4.64 16.82-.91 2.69-2.89 5-4.38 7.53a2 2 0 0 1 -2.38.85 7.85 7.85 0 0 1 -4.34-2.21 14.29 14.29 0 0 0 -2-1.79 4.11 4.11 0 0 0 -4.23-.39 17.74 17.74 0 0 1 -4.26 1.13 6.63 6.63 0 0 0 -3.66 1.88c-2.38 2.24-3.56 2.3-6.33.49-2.56-1.69-3-1.67-5.5.13a15.46 15.46 0 0 1 -2.48 1.7 3.72 3.72 0 0 0 -2.39 3.63 13.89 13.89 0 0 0 0 2.66c.68 3.31 1.41 6.63 2.25 9.91.61 2.36 2.55 3.74 4.49 5a3 3 0 0 1 1.57 2.27c1.4 10.12 6 19.09 10.88 27.92 1.19 2.12 2.63 4.11 3.95 6.17.25.39.46.8.94 1.64a33.52 33.52 0 0 1 -4.44-.28 1.88 1.88 0 0 0 -2.14.74c-.34.46-.69.91-1.07 1.33a3.11 3.11 0 0 1 -3.28 1.26 4.19 4.19 0 0 0 -3.86 1.15 15.68 15.68 0 0 1 -3.06 2.07c-1.88.89-3.32.23-3.72-1.76-.44-2.21-.68-4.47-.92-6.71a14.17 14.17 0 0 0 -1.82-6c-1.59-2.65-1.86-5.7-1.95-8.68a34.9 34.9 0 0 0 -1.54-10.74 6.24 6.24 0 0 1 -.1-1.79l.49-.14c.82 1.89 1.74 3.75 2.43 5.69s1.12 3.88 1.64 5.83a1.94 1.94 0 0 0 1.83 1.7c1.59.08 2.29 1.12 2.82 2.38.24.59.53 1.18.72 1.8.77 2.51 2 4.53 4.76 5.52a4.92 4.92 0 0 1 2.83 3.22 8.14 8.14 0 0 0 1.71 2.74c-.36-2.93-1.16-5.72-4.21-7a6.71 6.71 0 0 1 -4.06-4.57c-.14-.46-.36-.9-.52-1.36-.77-2.11-1.91-3.8-4.55-3.82-1.92-4.7-2.27-9.93-5.94-14.27a10.19 10.19 0 0 0 -.87 1.77 3.29 3.29 0 0 0 0 1.68c1.72 4.66 1.25 9.58 1.87 14.36a17.79 17.79 0 0 0 2.29 7.11 12 12 0 0 1 1.17 4.15c.41 2.47.67 5 1 7.42-1 1.31-1.85 2.66-2.86 3.91a30.87 30.87 0 0 1 -3.1 3.45 4.63 4.63 0 0 1 -5.95.58c-1-.6-1.9-1.1-2.81.1l-3.49-3c-.72.28-1.67 1-2.55.88a5.29 5.29 0 0 1 -2.46-1.45 16.41 16.41 0 0 1 -5.67-10 14.46 14.46 0 0 0 -.6-2.35c-2.66-7.46-2.62-15.06-1.37-22.74.26-1.59.47-3.2.68-4.8a14.28 14.28 0 0 0 -.89-7.14 19.11 19.11 0 0 0 -1.07-2.45c-2.51-4.54-1.81-8.71 1.46-12.6a15.6 15.6 0 0 0 3.48-7.11 10.83 10.83 0 0 0 -2.22-9.35 14.4 14.4 0 0 1 -3.42-12.21c.24-1.35.28-2.73.47-4.09a12 12 0 0 1 .68-3.3q2.1-4.39 4.52-8.62a5.5 5.5 0 0 1 2.14-2 12.38 12.38 0 0 0 3.91-3.32 29 29 0 0 1 2.72-2.82 7 7 0 0 0 2.3-6.14 1.94 1.94 0 0 0 0-.24c-1.4-4.72.41-8.74 3-12.54.67-1 2-1.62 2.47-2.66 1.17-2.47 3.37-2.24 5.46-2.29a69.08 69.08 0 0 1 16.87 1.09 30.89 30.89 0 0 1 5.87 2c4.37 2 8.7 4 12 7.62a34.85 34.85 0 0 0 4.18 3.43 23.39 23.39 0 0 1 6.91 9c1.17 2.68 2.67 5.23 3.68 8a52 52 0 0 1 1.53 6.86zm-40.53-5.6a23.35 23.35 0 0 0 8.89-2.11c3.07-1.56 4-5.65 1.66-8a17.36 17.36 0 0 0 -8.11-5 10.43 10.43 0 0 0 -10.7 2.84 5.44 5.44 0 0 0 -1.28 6.06 10 10 0 0 0 9.54 6.21zm18.53-24.89-.4-.4c-3.73 2.52-6.25 6.37-10.09 8.8 1.54-.6 3.24-.8 4.35-2.32a25.63 25.63 0 0 1 2.83-3c1.08-1.04 2.24-2.05 3.31-3.08z"/><path d="m371 459 1.53 4c-.37 1.19-1.49 1.27-2.7 1.2l-10.46-.58c-3.9-.22-7.8-.47-11.7-.69a2.77 2.77 0 0 0 -1.75.45 9.34 9.34 0 0 0 1.44.33q11.32.74 22.65 1.44c1.64.11 4 2.41 4.25 4a26 26 0 0 0 .83 3 7.63 7.63 0 0 1 .49 1.59c.08 2.88-.52 3.52-3.53 3.84a7.31 7.31 0 0 1 -2.47 0c-3.59-.88-7.15-1.86-11.36-3 1.17-.86 1.85-1.38 2.54-1.87 1.75-1.23 1.67-2.26-.36-3.11a16.37 16.37 0 0 0 -3.34-.94c-9.79-1.8-19.6-3.56-29.4-5.35-6.52-1.18-13-2.4-19.58-3.58a22.45 22.45 0 0 0 -2.32-.2l-.18.6a9.44 9.44 0 0 0 1.58.59c10.54 1.86 21.09 3.66 31.62 5.57 6.29 1.13 12.55 2.41 18.82 3.66a33.5 33.5 0 0 1 3.23 1c-1 .7-1.56 1.09-2.11 1.5-2.16 1.63-2.22 3.76-.21 5.51a14.21 14.21 0 0 1 1.39 1.61c.66.81 1.26 1.66 2 2.43s1.45 1.32 2.14 2c.39.4.71.86 1.32 1.61-1.29.12-2.26.13-3.2.32-.76.14-1.85.29-2.13.79-.52.94.53 1.52 1.16 2.16a46.21 46.21 0 0 1 3.17 3.4c2.11 2.6 1 5.71-2.41 6.11-6.59.78-13.15 1.61-19.82.17a179.37 179.37 0 0 1 -26.19-7.73c-6.81-2.58-13.7-5-20.42-7.75a32.12 32.12 0 0 1 -10.8-7.2 4.92 4.92 0 0 1 -1.32-3q-.27-8-.19-16c.08-9 1.86-18 1.31-27.08-.08-1.37-.11-2.74-.31-4.1a4.63 4.63 0 0 0 -2.89-3.68c-3.57-1.58-3.69-4.27-2.81-6.95 1-3.07 3.67-3.71 6-4.79a49.07 49.07 0 0 1 6.62-2.11 1.78 1.78 0 0 1 1.18 0c2.47 1.42 4.69.16 6.86-.7a11.5 11.5 0 0 1 5.42-1.25c1.89.16 3.86-.61 5.8-1a8.75 8.75 0 0 1 1-.1 7.24 7.24 0 0 1 -.44 4.5 35.56 35.56 0 0 0 -1.68 19.77 48.63 48.63 0 0 1 .56 6.74c.23 3.3.47 6.6.65 9.9.13 2.29.8 3 3.11 2.42 8.33-2 16.86-1.51 25.3-2.08a20 20 0 0 1 11.29 2.31c3.92 2.18 8.4 3 12.8 3.86 3.57.73 7.11 1.62 10.66 2.47a14.92 14.92 0 0 1 1.75.68c-1.57 1.38-3 2.39-5.12 2.23-6.47-.48-12.94-.91-19.42-1.18-6.71-.28-13.43-.35-20.15-.15zm-44.87 15.66-5.39-1-.06.5 5.52.41a6.36 6.36 0 0 0 1.61.92q14.49 3.48 29 6.86a6.84 6.84 0 0 0 1.57 0l.06-.37q-16.16-3.64-32.32-7.32zm-21.88-64.88-.5-.12a14.43 14.43 0 0 0 -.8 2.6 96.31 96.31 0 0 0 -.9 9.86c-.1 10.88 0 21.76 0 32.64a34.09 34.09 0 0 0 .55 4.8 5.66 5.66 0 0 0 .6 1.37c-.46-17.13-1.2-34.16 1.04-51.15zm16.36 62.36c.71.05 1.43.08 2.14.17 5.77.66 11.55 1.19 17.29 2 4.83.72 9.61 1.8 14.42 2.7a7.9 7.9 0 0 0 1.46 0c-5.31-2.46-27.65-5.6-35.32-4.87z"/><path d="m497.53 88.35c-9.72 1.23-19.34.07-29-.85l-.18.59c.4.25.78.66 1.22.73a153.06 153.06 0 0 0 22.33 1.6 62.21 62.21 0 0 0 6.86-.6c1 2 .86 2.49-.83 3.33a20.91 20.91 0 0 1 -7.93 1.85c-3.56.27-7.12.5-10.69.6a20.48 20.48 0 0 1 -5.19-.45 46.92 46.92 0 0 1 -11.9-4.15c-3.12-1.72-6.53-2.24-10-2.56-6.36-.58-12.72-1.19-19.06-1.92a19.48 19.48 0 0 1 -7.8-3 39.21 39.21 0 0 0 -4.52-2.45c.23 2 2.37 2.17 3.22 3.52-1.82.76-4.28.67-8-.33.4-.46.74-.87 1.11-1.26a27.44 27.44 0 0 0 6.73-11.73c1.64-6 3.07-12 4.35-18.12.41-1.92.07-4 .07-6.28 1.89 1.38 3.74 2.77 5.63 4.1 8.61 6.06 17.29 12 25.82 18.17 9.55 6.89 20.66 10.62 31.46 15a16.87 16.87 0 0 1 6.3 4.21zm-53.07-25.35a2.41 2.41 0 0 0 -2.4 3.36c1.16 3.48 3.8 5.54 7.32 6.57a2.11 2.11 0 0 0 1.65-.15c.5-.4 1.16-1.31 1-1.69a34.28 34.28 0 0 0 -3-5.65 6.05 6.05 0 0 0 -4.57-2.44zm8 21.47a5.47 5.47 0 0 0 -4.56-.64c-3.51.89-6.72 0-9.87-1.36a48.33 48.33 0 0 1 -9.8-6.11 13.78 13.78 0 0 0 -1.56-.88c.82 2.1 3.63 4.18 7.85 6.67 5.57 3.28 11.48 3.76 17.96 2.32z"/><path d="m414.94 154.89c-2.35-.23-4.24-.39-6.12-.62-2.82-.34-5.59-.6-8.3.69a8.29 8.29 0 0 1 -3.18.41 8.13 8.13 0 0 0 -5.86 2.23 6.28 6.28 0 0 1 -3.91 2 6.07 6.07 0 0 0 -3.83 2.06q-2.22 2.29-4.5 4.52c-1.08 1.06-2.22 1.62-3.71.5-.92-.69-1.85-.25-2.71.41-2.18 1.71-4.4 3.38-6.62 5-1 .72-2 1.38-3.41 2.36.26-7.14 2.82-13.13 4.92-19.38l1.48.73a5.64 5.64 0 0 0 6.7-.82 46.21 46.21 0 0 0 4-4.62c.46-.56.83-1.19 1.19-1.71.3 0 .52-.12.62 0 2.37 1.72 4.52 1 6.59-.57.66-.49 1.23-1.1 1.93-1.52.54-.31 1.31-.71 1.8-.56 2.57.81 4.11-.49 5.51-2.26.25-.31.54-.6.72-.81 1.62 0 3.12.09 4.59 0a3.51 3.51 0 0 1 3.33 1.63c2 2.67 4.09 5.28 6.21 7.87.62.74 1.53 1.45 2.56 2.46z"/><path d="m207.37 364.25a73.25 73.25 0 0 1 15.36-13.25c6.73-4.54 14.12-7.85 21.43-11.34 4.09-1.95 8-4.2 12-6.32a5.71 5.71 0 0 1 2.41-.89l-2.56 2.37c-3.48 3.24-7.1 6.35-10.39 9.76-7.81 8.1-17 14.44-26.77 20a25.3 25.3 0 0 1 -4.14 1.64c-2.77 1.03-5.14.28-7.34-1.97z"/><path d="m414.72 83.1a24.27 24.27 0 0 1 -11 6.44c-3.66 1-7.37 1.87-11 2.84-1 .27-2.38.44-2.87 1.13a13.55 13.55 0 0 0 -2 4.6 28.12 28.12 0 0 0 -.32 5c-2.18-1-3.89-2.19-4.44-4.14a110.65 110.65 0 0 1 -2.46-11.08 4 4 0 0 1 2.56-4.89 12.76 12.76 0 0 0 2.63-1.82 2.23 2.23 0 0 1 3 0 9.89 9.89 0 0 0 1.42 1c2.62 1.44 4.37 1.29 6.5-.79a6.23 6.23 0 0 1 4.11-1.94 9.66 9.66 0 0 0 3.52-1 3.3 3.3 0 0 1 4.08.61 14.2 14.2 0 0 0 2 1.85c1.23.82 2.66 1.41 4.27 2.19z"/><path d="m218.35 294.63c-.4 1.54-1.36 1.78-2.06 2.23-8.77 5.59-18 10.38-27.24 15.19-6.81 3.55-13.46 7.4-20.14 11.16q-18.45 10.38-36.86 20.79c-5.46 3.09-10.88 6.25-16.33 9.35-2.51 1.42-5.06 2.78-7.59 4.18-1.51.85-3.07 1.63-4.48 2.62-4.84 3.42-9.66 6.86-14.41 10.39-3.32 2.47-7.24 3.75-10.7 5.91l-.38-.48c.25-.32.42-.77.75-.93a83 83 0 0 0 15.34-9.86c2.2-1.72 4.56-3.25 6.92-4.76s4.64-2.82 7-4.18c1.29-.74 2.65-1.35 3.94-2.08q18.33-10.35 36.63-20.73c9.84-5.58 19.6-11.28 29.48-16.77 7.43-4.13 15.05-7.94 22.5-12 4.84-2.66 9.53-5.58 14.31-8.36.97-.55 1.97-.99 3.32-1.67z"/><path d="m386.54 44.71a10 10 0 0 1 -9.54-6.21 5.44 5.44 0 0 1 1.29-6.07 10.43 10.43 0 0 1 10.71-2.84 17.36 17.36 0 0 1 8.11 5c2.33 2.39 1.41 6.48-1.66 8a23.35 23.35 0 0 1 -8.91 2.12zm-8.21-8.4c0 3.14 3.21 6.4 6.67 6.76a18.54 18.54 0 0 0 9.68-1.74 2.86 2.86 0 0 0 1.89-2.33 8.4 8.4 0 0 1 -2.22.6 10.65 10.65 0 0 1 -3.62-.43c-1.76-.66-2.55-2.11-2.22-3.37s1.72-2 3.6-2c.65 0 1.3.13 1.95.19a9.78 9.78 0 0 0 -6.29-3.25 17.31 17.31 0 0 1 -9.44 5.57zm16.18.37.17-.57-2.06-.55-.16.54z"/><path d="m405.07 19.82c-1.1 1-2.23 2-3.31 3.1a25.63 25.63 0 0 0 -2.83 3c-1.11 1.52-2.81 1.72-4.35 2.32 3.84-2.43 6.36-6.28 10.09-8.8z"/><path d="m304.24 409.78c-2.2 17-1.5 34-1 51.15a5.66 5.66 0 0 1 -.6-1.37 34.09 34.09 0 0 1 -.55-4.8c-.06-10.88-.12-21.76 0-32.64a96.31 96.31 0 0 1 .9-9.86 14.43 14.43 0 0 1 .8-2.6z"/><path d="m320.6 472.14c7.67-.73 30 2.41 35.31 4.91a7.9 7.9 0 0 1 -1.46 0c-4.81-.9-9.59-2-14.42-2.7-5.74-.84-11.52-1.37-17.29-2-.74-.13-1.43-.16-2.14-.21z"/><path d="m326.15 474.64 32.27 7.4-.06.37a6.84 6.84 0 0 1 -1.57 0q-14.51-3.39-29-6.86a6.36 6.36 0 0 1 -1.61-.92z"/><path d="m326.19 474.61-5.52-.41.06-.5 5.4.95z"/><path d="m444.46 63a6.05 6.05 0 0 1 4.54 2.44 34.28 34.28 0 0 1 3 5.65c.16.38-.5 1.29-1 1.69a2.11 2.11 0 0 1 -1.65.15c-3.52-1-6.16-3.09-7.32-6.57a2.41 2.41 0 0 1 2.43-3.36zm.54 2.38c-.85 1.79 0 2.75.87 3.6s1.92 2.18 4 1.92c-1.02-2.46-2.72-3.9-4.87-5.52z"/><path d="m452.48 84.47c-6.53 1.44-12.39 1-17.94-2.32-4.22-2.49-7-4.57-7.85-6.67a13.78 13.78 0 0 1 1.56.88 48.33 48.33 0 0 0 9.8 6.11c3.15 1.38 6.36 2.25 9.87 1.36a5.47 5.47 0 0 1 4.56.64z"/><path d="m378.33 36.31a17.31 17.31 0 0 0 9.44-5.59 9.78 9.78 0 0 1 6.29 3.28c-.65-.06-1.3-.16-1.95-.19-1.88-.06-3.27.72-3.6 2s.46 2.71 2.22 3.37a10.65 10.65 0 0 0 3.62.43 8.4 8.4 0 0 0 2.22-.6 2.86 2.86 0 0 1 -1.89 2.37 18.54 18.54 0 0 1 -9.68 1.69c-3.46-.36-6.71-3.62-6.67-6.76z"/><path d="m394.51 36.68-2.05-.58.16-.54 2.06.55z"/><path d="m445 65.38c2.15 1.57 3.85 3.06 4.84 5.52-2 .26-3-1-4-1.92s-1.69-1.81-.84-3.6z"/></g></g></svg>