<svg viewBox="0 0 496.18 496.18" xmlns="http://www.w3.org/2000/svg"><path d="m0 0h496.18v496.18h-496.18z" fill="none"/><g transform="translate(-6.43 -7.91)"><g fill="#fff8ff"><path d="m74.53 369.26c-4.65-1.78-4.44-3.72-1.17-6.36 5.29-4.28 10.41-8.76 15.54-13.23a9.5 9.5 0 0 0 3.1-4.87l-5.78 3c-19.16 10.11-38.22 20.2-57.46 30.2-1.38.71-3.39.21-5.11.28.77-1.39 1.2-3.19 2.34-4.09 29.22-22.92 57.13-47.59 89-67 13.67-8.36 27.57-16.34 41.08-24.32-2-7.06-4-13.68-5.59-20.41-1.65-7 1.9-10.87 9.08-11.17a45.06 45.06 0 0 0 24.7-8.75c2.67-1.91 3.45-4.11 2-7.17-4.94-10.24-13.47-16-23.83-19.72-5.17-1.86-8.76-.19-12.22 3.7-4.45 5-9.32 9.62-14 14.37-3 3-6.66 3.31-10 1.08-9.53-6.31-16.18-14.83-17.91-26.4a8.54 8.54 0 0 1 2.06-6c10.52-12.17 24.24-20.33 37.85-28.24 22.28-12.95 45.13-24.92 67.88-37 3.65-2 8.68-4.47 11.85.2 3 4.43-1.35 7.71-4 10.76-7.3 8.38-14.76 16.62-23.14 26 10.4 0 19.68-.41 28.89.14 6.18.38 12.25 2.3 18.43 3.16a7.78 7.78 0 0 0 5.38-1.38c6.22-5 12.2-10.38 18.25-15.64 22.46-19.51 48.73-32.78 74.75-46.72 31.76-17 66.34-25.13 100.45-35 15.39-4.45 30.67-9.28 46.06-13.74 2.29-.67 4.9-.26 7.36-.34-.35 2.58.09 5.65-1.16 7.66-14.77 23.62-29.46 47.29-44.87 70.48-9.73 14.65-19.64 29.38-31.25 42.5a535 535 0 0 1 -44.9 44.44c-17.4 15.5-36 29.7-54.45 44.82 3.36 9-.15 18.44-3.32 27.83-2.15 6.35-4.74 12.56-7.72 20.39 8.77-4.61 16.16-8.7 23.73-12.41a138.27 138.27 0 0 1 15.86-6.63c1.84-.64 5.57-.4 6 .58a8 8 0 0 1 -.26 6.76 183.31 183.31 0 0 1 -14.54 19.76c-19.35 22-39.2 43.62-63.93 59.94-4.33 2.85-9.08 5.08-13.62 7.62a8.69 8.69 0 0 0 -2.52 1.66c-3.87 4.59-7.72 5.53-12.79 2.05-8.3-5.68-14.26-13.32-16.75-23.23-1.43-5.66.4-8.49 5.86-10.3a8.89 8.89 0 0 0 2.59-1.67c5.4-4.39 10.86-8.7 16.09-13.28a7.66 7.66 0 0 0 2.43-4.72 36.17 36.17 0 0 0 -9.14-27c-4.51-5.24-8-5.54-12.69-.71-6.3 6.48-12.82 12.83-15.35 22.06-1.13 4.13-6.62 6.16-11.48 3.5a109.22 109.22 0 0 1 -17.42-12.2c-2.87-2.41-4.56-2.81-7.4-.36-12.64 10.95-26 21.11-38 32.74-21.72 21.11-46.18 38.08-72.7 52.47-15 8.15-29.51 17.23-44.24 25.89-.91.53-1.77 1.38-2.73 1.5a18.21 18.21 0 0 1 -4.12-.4c.56-1.13.82-2.64 1.72-3.32 3.6-2.75 7.48-5.14 11.11-7.84q38-28.25 75.9-56.55a11.63 11.63 0 0 0 4-4.45c-2.24 1.2-4.53 2.32-6.71 3.64q-20.5 12.28-40.83 24.67a8.59 8.59 0 0 1 -2.26 1.29c-2 .47-4 .73-6 1.07.9-1.7 1.41-3.84 2.76-5 7.58-6.7 15.35-13.16 23.06-19.71 3.17-2.69 6.33-5.39 8.83-9.15-2.63 1.42-5.31 2.75-7.88 4.27-20.55 12.18-41.06 24.44-61.64 36.58a146.58 146.58 0 0 1 -13.92 7.16c-1.42.64-3.42 0-5.16-.08.82-1.34 1.34-3.09 2.51-3.94q29.61-21.56 59.36-42.89c1.13-.78 2.27-1.56 4.1-2.83zm190.47-194.19c2.32 4.9 4.18 9.59 6.67 13.92 11.43 19.86 27.12 36.2 43.5 51.93 5 4.82 10.23 9.47 15.37 14.17 3 2.72 5.76 3.12 9.08.1 4.89-4.45 10.31-8.32 15.24-12.72 15.87-14.14 31.84-28.18 47.35-42.71 16.8-15.72 29-35.15 42.16-53.81 2.16-3.07 1.48-5.67-.16-8.16-8.87-13.52-17.89-26.94-26.86-40.4-1.95-2.93-4.46-3.44-7.69-2.16-9.23 3.67-18.6 7-27.74 10.83-40.44 17.09-79 37.58-113.53 64.95-1.26.99-2.09 2.45-3.39 4.06zm-66.57 89.11c10.77-6.14 20.47-12.39 30.79-17.36 15.18-7.32 30.78-13.82 46.32-20.42 4.25-1.79 6.14.09 4.73 4.47-1.15 3.59-2.63 7.38-5 10.21-9.95 11.87-20 23.68-30.6 35-6.73 7.19-14.45 13.46-22.47 20.82 5.37 4.53 10.44 8.95 15.69 13.16 2.64 2.12 5.32 2.2 8.6.36 19.32-10.81 38.87-21.19 58.15-32 8.46-4.76 16.47-10.3 24.37-15.29-26.4-26.15-54.62-50-69.69-85.07-5.84 4.93-12 9.51-17.44 14.85-16 15.77-31.83 31.78-47.58 47.83-2.57 2.63-5.68 5.78-3.71 9.94 2.27 4.71 5.27 9.15 7.82 13.5zm76-31.38-1.45-1.65c-11.05 5.37-22.49 10.09-33.08 16.26-21 12.24-41.65 25.22-62.35 38-6.48 4-12.69 8.45-19 12.76-3.66 2.52-3 5.34-.5 8.35 3.88 4.69 7.63 9.5 11.49 14.22 4.42 5.4 5.35 5.56 11.24 1.9a43.19 43.19 0 0 0 4.17-3.13c10.59-8.5 21.26-16.91 31.72-25.58 7.22-6 14.46-12 21.13-18.62 8.66-8.56 17-17.51 25-26.66 4.28-4.86 7.72-10.53 11.56-15.85zm80.11 76.61c-.51-.67-1-1.33-1.55-2-4.06 1.77-8.29 3.23-12.15 5.36-19.84 10.92-39.84 21.59-59.27 33.2-12.65 7.57-24.41 16.63-36.63 24.94-2.81 1.91-3.21 4-1.06 6.47 4.46 5.09 9.13 10 13.56 15.12 2 2.33 4.21 3.2 6.81 1.51 8.43-5.47 16.95-10.83 25.11-16.7 17.82-12.83 31.75-29.73 46.65-45.59 6.54-7.02 12.31-14.85 18.46-22.31zm-131.81-168.55-.73-1.26c-5.28 2.34-10.84 4.18-15.78 7.08-22.39 13.15-44.76 26.33-66.79 40.06-7.73 4.81-14.45 11.23-21.62 16.93-2.53 2-2 4.18-.1 6.26 4.09 4.5 8.28 8.91 12.31 13.47 2.47 2.79 4.59 2.86 7.43.3 11.82-10.62 24.18-20.63 35.55-31.7 16.46-16 32.23-32.76 48.28-49.21a20.29 20.29 0 0 0 1.45-1.93zm97.7 139.92-66 35c8.6 8.87 11.92 19.8 12.27 31.64 1 .05 1.37.2 1.62.06q18.28-10.58 36.53-21.23a4 4 0 0 0 1.73-1.76c2-5.65 4.06-11.3 5.85-17 2.7-8.49 5.16-17.11 8-26.71zm-158.32-71.37c12.18 3.9 21.62 10.6 28.95 20.94l47.16-49.57c-14.81-1.81-29.28-2.57-43.79-.31a4.84 4.84 0 0 0 -2.19 1.34c-9.87 9.01-19.72 18.06-30.13 27.6zm289.52-71.64 37.37-60.6-.95-1-66.54 15.83zm-316.82 164-1.08-1.28c-31.36 17.41-59.62 39.16-86.95 62.32a4.56 4.56 0 0 0 2.45-.58c15.45-8.05 30.86-16.19 46.39-24.1 2.23-1.13 5-1.19 7.55-1.74-1.19 2.44-2 5.23-3.64 7.25-3.73 4.46-7.94 8.53-12 12.76 4.82-1.67 9.18-4.09 13.69-6.16 1.49-.69 3.39-.47 5.1-.66-.93 1.46-1.52 3.4-2.83 4.31-22.07 15.28-44.24 30.41-66.37 45.61-3.12 2.18-6.12 4.5-9.23 6.77l.91 1.2c35.57-25.93 74.4-47.27 107.28-77.06a26.91 26.91 0 0 0 -5.14 2.18c-6.16 3.27-12.24 6.7-18.5 9.75-1.41.68-3.43.08-5.17.07.58-1.48.8-3.28 1.79-4.41 5.21-6 10.62-11.78 16-17.65-4.83 1.33-9.19 3.39-13.67 5.1-1 .38-2.47-.48-3.72-.78a14.1 14.1 0 0 1 1.3-3.56 12.43 12.43 0 0 1 2.86-2.25zm-54.74 109.09.73.81c10.75-6.4 22.45-11.63 32.06-19.44 24.71-20.1 48.51-41.31 72.59-62.17.94-.82 1-2.66 1.47-4-1.34.33-3 .26-4 1-11.16 9.15-22.15 18.51-33.36 27.61-1.46 1.19-3.89 1.19-5.87 1.75l-1-1.95 12.62-13.1-.79-.9-43.52 31.53a8.32 8.32 0 0 0 4.89-1.28c6.14-3.3 12.21-6.72 18.44-9.85 1.29-.65 3.11-.26 4.69-.34-.69 1.54-1 3.57-2.14 4.54-9.49 7.94-19.12 15.71-28.76 23.45-9.3 7.48-18.69 14.9-28.05 22.34zm136.52-110.59-23.84 18.73 17.11 15.41c5.55-7.68 9.44-15.71 17.5-19.47l1.91 1.56q-7.11 9.73-14.27 19.5l1.14 1.54c1.71-.64 4-.78 5-2 4.92-6.17 9.49-12.62 13.95-18.67zm-56.15-41 1.35 1.92c4.74-2.07 9.41-4.3 14.24-6.1 1.56-.58 3.54 0 5.33.06-1 1.38-1.67 3.3-3 4-4.95 2.7-10.12 5-15.82 7.74 1.93 5.07 4 10.49 6.32 16.56l24.24-15.07-10.33-18.29c-6.28 2.05-12.88 4.12-19.39 6.42-1.17.49-1.98 1.85-2.94 2.78z"/><path d="m265 175.07c1.32-1.61 2.15-3.09 3.39-4.06 34.57-27.37 73.09-47.86 113.53-64.95 9.14-3.86 18.51-7.16 27.74-10.83 3.23-1.28 5.74-.77 7.69 2.16 9 13.46 18 26.88 26.86 40.4 1.64 2.49 2.32 5.09.16 8.16-13.16 18.66-25.37 38.05-42.18 53.81-15.51 14.53-31.48 28.57-47.35 42.71-4.93 4.4-10.35 8.27-15.24 12.72-3.32 3-6.11 2.62-9.08-.1-5.14-4.7-10.34-9.35-15.37-14.17-16.38-15.73-32.07-32.07-43.5-51.93-2.49-4.33-4.35-8.99-6.65-13.92zm69.41 38.63c14.37.16 25-10.3 25.14-24.85a26.78 26.78 0 0 0 -26.28-27.38c-16.62-.47-24.08 11.14-24.35 23.36-.37 15.72 11.39 28.7 25.47 28.87zm62.91-48.09c13.19-.26 24.7-10.75 24.37-22.21-.45-15.78-11.18-27.27-25.23-27.07-12.94.2-26.37 12.28-26.08 23.47.34 13.94 13.01 26.08 26.92 25.81z"/><path d="m198.41 264.18c-2.55-4.35-5.55-8.79-7.83-13.57-2-4.16 1.14-7.31 3.71-9.94 15.75-16 31.55-32.06 47.58-47.83 5.43-5.34 11.6-9.92 17.44-14.85 15.07 35.11 43.29 58.92 69.69 85.07-7.9 5-15.91 10.53-24.37 15.29-19.28 10.86-38.83 21.24-58.15 32-3.28 1.84-6 1.76-8.6-.36-5.25-4.21-10.32-8.63-15.69-13.16 8-7.36 15.74-13.63 22.47-20.82 10.58-11.3 20.65-23.11 30.6-35 2.38-2.83 3.86-6.62 5-10.21 1.41-4.38-.48-6.26-4.73-4.47-15.53 6.67-31.13 13.17-46.33 20.49-10.32 4.97-20.02 11.18-30.79 17.36zm34.23-54.18h-.26l-38.58 39.9c2-1.2 4.91-2.19 6.79-4.13 7.84-8.13 15.44-16.49 23-24.87 3.17-3.49 6.05-7.26 9.05-10.9zm42.63 77.51-.7-1.27c-.5 0-1.09-.27-1.49-.08-10.68 5.11-21.38 10.18-32 15.48-1.56.78-2.57 2.67-3.84 4.05.45.63.91 1.25 1.36 1.87z"/><path d="m274.36 232.8c-3.84 5.32-7.28 11-11.6 15.89-8 9.15-16.34 18.1-25 26.66-6.67 6.59-13.91 12.63-21.13 18.62-10.46 8.67-21.13 17.08-31.72 25.58a43.19 43.19 0 0 1 -4.17 3.13c-5.89 3.66-6.82 3.5-11.24-1.9-3.86-4.72-7.61-9.53-11.49-14.22-2.48-3-3.16-5.83.5-8.35 6.28-4.31 12.49-8.75 19-12.76 20.7-12.82 41.31-25.8 62.35-38 10.59-6.17 22-10.89 33.08-16.26zm-55.07 33.1c-6.57-.6-51.69 30.61-53 36.7 18.36-11.18 35.35-24.42 53-36.7zm-40.9 49.58c4.93-.42 43.65-36.1 44.38-40.64-15.07 13.24-31.38 25.16-44.38 40.64z"/><path d="m354.47 309.41c-6.15 7.46-11.92 15.29-18.53 22.32-14.9 15.86-28.83 32.76-46.65 45.59-8.16 5.87-16.68 11.23-25.11 16.7-2.6 1.69-4.8.82-6.81-1.51-4.43-5.12-9.1-10-13.56-15.12-2.15-2.45-1.75-4.56 1.06-6.47 12.22-8.31 24-17.37 36.63-24.94 19.43-11.61 39.43-22.28 59.27-33.2 3.86-2.13 8.09-3.59 12.15-5.36.52.66 1.08 1.32 1.55 1.99zm-101.82 68.06c3.83.43 73.45-49.16 74.57-53.12-10.4 2.09-73.22 46.81-74.57 53.12z"/><path d="m222.73 140.86a20.29 20.29 0 0 1 -1.47 1.95c-16.05 16.45-31.82 33.19-48.26 49.19-11.35 11-23.71 21.06-35.49 31.68-2.84 2.56-5 2.49-7.43-.3-4-4.56-8.22-9-12.31-13.47-1.88-2.08-2.43-4.24.1-6.26 7.17-5.7 13.89-12.12 21.62-16.93 22-13.73 44.4-26.91 66.79-40.06 4.94-2.9 10.5-4.74 15.78-7.08zm-17.79 16.34-1.22-1.84c-2 1-4.29 1.69-6.07 3-20 15.06-40.28 29.88-57.73 48.06-2.41 2.51-5 4.85-7.21 7.53-.61.75-.12 2.41-.13 3.65a12.24 12.24 0 0 0 3.25-.61 12.46 12.46 0 0 0 2.33-2.07q31.32-26.82 62.65-53.64c1.47-1.23 2.76-2.71 4.13-4.08z"/><path d="m320.43 280.78c-2.84 9.6-5.3 18.18-7.95 26.69-1.79 5.74-3.83 11.39-5.85 17a4 4 0 0 1 -1.73 1.76q-18.24 10.67-36.53 21.23c-.25.14-.66 0-1.62-.06-.35-11.84-3.67-22.77-12.27-31.64z"/><path d="m162.11 209.41c10.41-9.54 20.26-18.59 30.13-27.6a4.84 4.84 0 0 1 2.19-1.34c14.51-2.26 29-1.5 43.79.31l-47.16 49.57c-7.33-10.35-16.77-17.04-28.95-20.94z"/><path d="m451.63 137.77-30.12-45.77 66.49-15.86.95 1z"/><path d="m134.81 301.78-23 17.08a12.43 12.43 0 0 0 -2.86 2.25 14.1 14.1 0 0 0 -1.3 3.56c1.25.3 2.72 1.16 3.72.78 4.48-1.71 8.84-3.77 13.67-5.1-5.34 5.87-10.75 11.68-16 17.65-1 1.13-1.21 2.93-1.79 4.41 1.74 0 3.76.61 5.17-.07 6.26-3 12.34-6.48 18.5-9.75a26.91 26.91 0 0 1 5.14-2.18c-32.86 29.79-71.69 51.13-107.26 77.06l-.91-1.2c3.11-2.27 6.11-4.59 9.28-6.76 22.13-15.2 44.3-30.33 66.37-45.61 1.31-.91 1.9-2.85 2.83-4.31-1.71.19-3.61 0-5.1.66-4.51 2.07-8.87 4.49-13.69 6.16 4-4.23 8.22-8.3 12-12.76 1.69-2 2.45-4.81 3.64-7.25-2.53.55-5.32.61-7.55 1.74-15.53 7.91-30.94 16.05-46.39 24.1a4.56 4.56 0 0 1 -2.45.58c27.33-23.16 55.59-44.91 86.95-62.32z"/><path d="m80.07 410.86c9.36-7.44 18.75-14.84 28.08-22.33 9.64-7.74 19.27-15.51 28.76-23.45 1.16-1 1.45-3 2.14-4.54-1.58.08-3.4-.31-4.69.34-6.23 3.13-12.3 6.55-18.44 9.85a8.32 8.32 0 0 1 -4.92 1.27l43.55-31.51.79.9-12.62 13.1 1 1.95c2-.56 4.41-.56 5.87-1.75 11.21-9.1 22.2-18.46 33.36-27.61 1-.79 2.62-.72 4-1-.47 1.36-.53 3.2-1.47 4-24.08 20.86-47.88 42.07-72.59 62.17-9.61 7.81-21.31 13-32.06 19.44z"/><path d="m216.59 300.27 18.55 16.56c-4.46 6.05-9 12.5-13.95 18.67-1 1.23-3.31 1.37-5 2l-1.19-1.5q7.13-9.74 14.24-19.49l-1.91-1.56c-8.06 3.76-12 11.79-17.5 19.47l-17.08-15.42z"/><path d="m160.44 259.29c1-.93 1.77-2.32 2.93-2.73 6.51-2.3 13.11-4.37 19.39-6.42l10.33 18.29-24.24 15.07c-2.32-6.07-4.39-11.49-6.32-16.56 5.7-2.74 10.87-5 15.82-7.74 1.34-.73 2-2.65 3-4-1.79 0-3.77-.64-5.33-.06-4.83 1.8-9.5 4-14.24 6.1z"/><path d="m334.39 213.7c-14.08-.17-25.84-13.15-25.49-28.87.27-12.22 7.73-23.83 24.35-23.36a26.78 26.78 0 0 1 26.28 27.38c-.18 14.55-10.77 25.01-25.14 24.85zm-2-46.4c-9.56-.07-17 7.44-17.08 17.22-.08 12.79 8.48 22.88 19.47 22.93 11.29.05 19.1-7.63 19.23-18.9.15-12.03-9.13-21.15-21.6-21.25z"/><path d="m397.3 165.61c-13.91.27-26.58-11.87-26.94-25.81-.29-11.19 13.14-23.27 26.08-23.47 14.05-.2 24.78 11.29 25.23 27.07.33 11.46-11.18 21.95-24.37 22.21zm-20.74-25.94c0 10.51 10.44 20.85 20.88 20.69 9.59-.14 19.31-8.42 19.23-16.37-.12-12.44-9.23-22.62-20.06-22.42-9.72.18-20.06 9.51-20.05 18.1z"/><path d="m232.64 210c-3 3.65-5.88 7.42-9 10.92-7.57 8.38-15.17 16.74-23 24.87-1.88 1.94-4.75 2.93-6.79 4.13l38.53-39.92z"/><path d="m275.27 287.5-36.64 20.05c-.45-.62-.91-1.24-1.36-1.87 1.27-1.38 2.28-3.27 3.84-4.05 10.59-5.3 21.29-10.37 32-15.48.4-.19 1 .05 1.49.08z"/><path d="m219.29 265.9c-17.65 12.28-34.64 25.52-53 36.7 1.31-6.09 46.43-37.3 53-36.7z"/><path d="m178.39 315.48c13-15.53 29.31-27.4 44.38-40.64-.77 4.54-39.45 40.22-44.38 40.64z"/><path d="m252.65 377.47c1.38-6.31 64.17-51 74.57-53.12-1.12 3.96-70.74 53.55-74.57 53.12z"/><path d="m204.94 157.2c-1.37 1.37-2.66 2.85-4.13 4.11q-31.3 26.84-62.65 53.69a12.46 12.46 0 0 1 -2.33 2.07 12.24 12.24 0 0 1 -3.25.61c0-1.24-.48-2.9.13-3.65 2.2-2.68 4.8-5 7.21-7.53 17.45-18.18 37.7-33 57.73-48.06 1.78-1.34 4-2 6.07-3z"/><path d="m332.41 167.3c12.47.1 21.75 9.22 21.62 21.25-.13 11.27-7.94 18.95-19.23 18.9-11 0-19.55-10.14-19.47-22.93.07-9.78 7.52-17.29 17.08-17.22zm1.59 33.9c8.12.28 15.32-6.94 15.59-15.63.19-6.46-7.92-13.61-15.66-13.81-7.36-.18-14.15 6.87-14.47 15s5.62 14.14 14.54 14.44z"/><path d="m376.56 139.67c0-8.59 10.33-17.92 20.05-18.1 10.83-.2 19.94 10 20.06 22.42.08 7.95-9.64 16.23-19.23 16.37-10.44.16-20.88-10.18-20.88-20.69zm20.15 15.57c7.55-.12 14-6.57 14.05-14 0-6.34-7-12.49-14.24-12.46-7.51 0-13.68 5.91-13.55 12.89.15 7.22 6.7 13.68 13.74 13.57z"/><path d="m334 201.2c-8.87-.3-14.85-6.23-14.54-14.41s7.11-15.21 14.47-15c7.74.2 15.85 7.35 15.66 13.81-.32 8.66-7.52 15.88-15.59 15.6z"/><path d="m396.71 155.24c-7 .11-13.59-6.35-13.74-13.55-.13-7 6-12.85 13.55-12.89 7.22 0 14.25 6.12 14.24 12.46-.02 7.41-6.5 13.86-14.05 13.98z"/></g><path d="m75.16 370.93c-4.64-1.78-4.43-3.72-1.16-6.36 5.28-4.28 10.41-8.76 15.53-13.23a9.43 9.43 0 0 0 3.07-4.87l-5.77 3c-19.13 10.08-38.24 20.2-57.44 30.16-1.38.71-3.39.21-5.1.28.76-1.38 1.19-3.19 2.33-4.09 29.22-22.92 57.13-47.59 88.95-67 13.67-8.36 27.58-16.34 41.09-24.31-2-7.07-4-13.69-5.59-20.42-1.66-7 1.89-10.87 9.07-11.17a45 45 0 0 0 24.71-8.75c2.66-1.91 3.45-4.11 2-7.17-4.94-10.24-13.47-16-23.83-19.72-5.16-1.86-8.76-.18-12.22 3.7-4.45 5-9.31 9.63-14 14.37-3 3-6.66 3.32-10 1.08-9.53-6.31-16.17-14.82-17.91-26.4a8.55 8.55 0 0 1 2.07-6c10.51-12.17 24.24-20.33 37.85-28.24 22.27-12.94 45.12-24.92 67.87-37 3.66-1.95 8.68-4.47 11.85.2 3 4.43-1.35 7.71-4 10.76-7.3 8.38-14.76 16.62-23.14 26 10.4 0 19.68-.41 28.9.15 6.18.37 12.25 2.29 18.42 3.15a7.73 7.73 0 0 0 5.38-1.38c6.22-5 12.2-10.38 18.25-15.63 22.37-19.54 48.66-32.81 74.66-46.75 31.76-17 66.34-25.13 100.45-35 15.39-4.44 30.68-9.28 46.07-13.74 2.29-.67 4.89-.25 7.35-.34-.35 2.58.1 5.65-1.16 7.66-14.77 23.62-29.46 47.29-44.86 70.49-9.73 14.64-19.65 29.37-31.26 42.49a533.46 533.46 0 0 1 -44.9 44.44c-17.4 15.5-36 29.7-54.45 44.82 3.37 9-.14 18.44-3.32 27.83-2.15 6.35-4.73 12.56-7.72 20.39 8.77-4.61 16.16-8.7 23.73-12.41a140.85 140.85 0 0 1 15.86-6.63c1.84-.64 5.57-.4 6 .58a8 8 0 0 1 -.27 6.76 181.89 181.89 0 0 1 -14.52 19.78c-19.35 22-39.21 43.63-63.94 59.94-4.33 2.86-9.07 5.08-13.61 7.62a9 9 0 0 0 -2.53 1.66c-3.86 4.59-7.72 5.53-12.79 2.06-8.3-5.69-14.25-13.33-16.75-23.24-1.42-5.66.4-8.49 5.87-10.3a8.65 8.65 0 0 0 2.58-1.67c5.4-4.38 10.87-8.7 16.1-13.28a7.62 7.62 0 0 0 2.42-4.71 36.21 36.21 0 0 0 -9.13-27c-4.52-5.24-8-5.54-12.69-.71-6.31 6.48-12.82 12.83-15.35 22.07-1.13 4.13-6.62 6.15-11.49 3.49a109.14 109.14 0 0 1 -17.41-12.2c-2.88-2.41-4.57-2.81-7.41-.36-12.64 11-26 21.12-38 32.75-21.72 21.1-46.18 38.07-72.69 52.46-15 8.15-29.52 17.23-44.25 25.89-.9.53-1.77 1.38-2.72 1.5a18.72 18.72 0 0 1 -4.12-.39c.55-1.13.82-2.65 1.71-3.33 3.61-2.75 7.48-5.14 11.12-7.84q38-28.23 75.89-56.55a11.5 11.5 0 0 0 4-4.45c-2.24 1.21-4.54 2.32-6.71 3.64q-20.37 12.31-40.7 24.71a8.67 8.67 0 0 1 -2.26 1.28c-2 .47-4 .73-6 1.07.89-1.7 1.41-3.84 2.75-5 7.58-6.7 15.36-13.16 23.07-19.71 3.16-2.69 6.32-5.39 8.83-9.14-2.63 1.41-5.32 2.74-7.89 4.26-20.55 12.18-41.06 24.44-61.64 36.58a145.38 145.38 0 0 1 -13.91 7.22c-1.42.64-3.42 0-5.15-.08.82-1.33 1.33-3.09 2.5-3.94q29.61-21.56 59.36-42.89c1.13-.82 2.28-1.62 4.1-2.89zm190.45-194.19c2.33 4.9 4.18 9.59 6.67 13.92 11.43 19.86 27.12 36.2 43.51 51.93 5 4.82 10.22 9.47 15.36 14.17 3 2.72 5.76 3.12 9.08.1 4.89-4.44 10.31-8.31 15.25-12.72 15.86-14.14 31.83-28.18 47.35-42.7 16.8-15.73 29-35.16 42.15-53.82 2.17-3.07 1.49-5.66-.15-8.16-8.88-13.52-17.9-26.94-26.87-40.4-1.95-2.93-4.46-3.44-7.69-2.15-9.22 3.66-18.6 7-27.73 10.82-40.45 17.09-79 37.58-113.54 65-1.23.92-2.07 2.4-3.39 4.01zm-66.61 89.11c10.78-6.13 20.47-12.39 30.79-17.36 15.2-7.32 30.79-13.86 46.34-20.42 4.25-1.79 6.14.1 4.74 4.48-1.16 3.58-2.64 7.37-5 10.2-10 11.87-20 23.68-30.61 35-6.73 7.19-14.45 13.46-22.47 20.83 5.37 4.52 10.45 8.95 15.69 13.15 2.64 2.12 5.32 2.2 8.61.36 19.34-10.83 38.91-21.21 58.18-32.09 8.45-4.75 16.46-10.3 24.36-15.29-26.4-26.14-54.62-50-69.69-85.07-5.83 4.93-12 9.51-17.43 14.85-16 15.77-31.83 31.78-47.58 47.84-2.58 2.62-5.69 5.77-3.71 9.93 2.27 4.81 5.28 9.25 7.78 13.59zm76-31.38-1.46-1.65c-11.05 5.37-22.49 10.09-33.08 16.26-21 12.24-41.65 25.22-62.34 38-6.48 4-12.69 8.45-19 12.77-3.66 2.51-3 5.33-.49 8.34 3.88 4.69 7.62 9.5 11.48 14.22 4.43 5.4 5.36 5.56 11.24 1.91a44 44 0 0 0 4.17-3.13c10.59-8.51 21.26-16.92 31.72-25.59 7.23-6 14.47-12 21.13-18.62 8.66-8.56 17-17.51 25-26.65 4.34-4.87 7.79-10.54 11.63-15.86zm80.11 76.61-1.56-2c-4.06 1.77-8.29 3.24-12.15 5.36-19.84 10.93-39.83 21.59-59.26 33.21-12.66 7.56-24.42 16.63-36.64 24.93-2.8 1.91-3.2 4-1.06 6.47 4.47 5.09 9.14 10 13.56 15.12 2 2.33 4.21 3.2 6.81 1.52 8.43-5.48 17-10.83 25.11-16.7 17.82-12.84 31.76-29.74 46.65-45.6 6.61-7.02 12.43-14.85 18.54-22.31zm-131.74-168.55-.7-1.25c-5.27 2.33-10.83 4.17-15.78 7.08-22.38 13.14-44.76 26.32-66.79 40-7.72 4.82-14.45 11.23-21.61 16.93-2.53 2-2 4.18-.11 6.26 4.09 4.51 8.28 8.91 12.31 13.47 2.48 2.8 4.59 2.86 7.43.3 11.78-10.62 24.14-20.63 35.49-31.68 16.46-16 32.23-32.76 48.28-49.21a18.86 18.86 0 0 0 1.48-1.9zm97.7 139.92-65.95 35c8.6 8.87 11.91 19.8 12.27 31.64.95.05 1.37.2 1.61.06q18.28-10.57 36.53-21.23a4 4 0 0 0 1.73-1.75c2-5.66 4.07-11.31 5.85-17.05 2.66-8.49 5.11-17.07 7.96-26.67zm-158.32-71.37a54.38 54.38 0 0 1 28.95 20.92l47.16-49.57c-14.82-1.81-29.28-2.57-43.79-.31a4.81 4.81 0 0 0 -2.2 1.34c-9.87 9.04-19.72 18.08-30.12 27.62zm289.51-71.64 37.32-60.6-.94-1-66.5 15.88zm-316.82 164-1.08-1.29c-31.35 17.41-59.61 39.17-87 62.32a4.48 4.48 0 0 0 2.45-.58c15.46-8.05 30.87-16.19 46.39-24.09 2.24-1.14 5-1.2 7.55-1.75-1.18 2.44-1.94 5.23-3.63 7.25-3.74 4.46-7.94 8.53-12 12.76 4.82-1.67 9.17-4.09 13.69-6.16 1.48-.68 3.38-.46 5.09-.66-.92 1.46-1.51 3.41-2.82 4.31-21.98 15.3-44.15 30.45-66.27 45.64-3.16 2.16-6.19 4.5-9.28 6.75l.9 1.2c35.57-25.93 74.41-47.26 107.28-77.06a27.85 27.85 0 0 0 -5.14 2.18c-6.15 3.27-12.24 6.7-18.5 9.75-1.4.68-3.43.09-5.17.08.58-1.49.81-3.28 1.79-4.42 5.22-6 10.62-11.78 16-17.65-4.83 1.33-9.18 3.39-13.67 5.1-1 .38-2.46-.48-3.71-.78a13.52 13.52 0 0 1 1.3-3.55 11.86 11.86 0 0 1 2.85-2.25zm-54.73 109.09.72.81c10.75-6.4 22.45-11.63 32.06-19.44 24.71-20.09 48.51-41.31 72.59-62.17.94-.82 1-2.65 1.47-4-1.33.32-3 .25-4 1-11.15 9.16-22.15 18.51-33.35 27.61-1.47 1.19-3.9 1.2-5.88 1.75l-1-1.95q6.3-6.56 12.62-13.1l-.8-.9-43.55 31.51a8.3 8.3 0 0 0 4.89-1.28c6.14-3.3 12.22-6.72 18.44-9.85 1.29-.65 3.12-.25 4.69-.34-.69 1.54-1 3.57-2.14 4.55-9.49 7.93-19.12 15.7-28.76 23.44-9.25 7.52-18.64 14.92-28 22.36zm136.52-110.59-23.85 18.71 17.12 15.41c5.55-7.68 9.44-15.71 17.5-19.47l1.91 1.56-14.25 19.49 1.14 1.54c1.71-.64 4-.78 5-2 4.92-6.18 9.49-12.63 14-18.67zm-56.16-41 1.35 1.91c4.74-2.07 9.41-4.3 14.25-6.1 1.55-.58 3.54 0 5.33.07-1 1.37-1.68 3.3-3 4-5 2.7-10.12 5-15.83 7.74 1.94 5.07 4 10.5 6.32 16.57 8.56-5.33 16.53-10.28 24.25-15.07l-10.34-18.3c-6.28 2.06-12.87 4.12-19.39 6.43-1.16.45-2.01 1.81-2.94 2.81z"/><path d="m335 215.37c14.38.16 25-10.3 25.14-24.84a26.79 26.79 0 0 0 -26.27-27.39c-16.62-.47-24.08 11.15-24.36 23.36-.33 15.72 11.43 28.7 25.49 28.87zm62.92-48.09c13.19-.25 24.7-10.75 24.37-22.2-.46-15.78-11.18-27.28-25.24-27.07-12.94.19-26.37 12.27-26.08 23.46.38 13.94 13.03 26.08 26.97 25.81z" fill="#fff"/><path d="m219.92 267.57c-6.57-.6-51.69 30.62-53 36.7 18.36-11.18 35.35-24.42 53-36.7zm-40.92 49.58c4.93-.42 43.65-36.1 44.39-40.64-15.05 13.25-31.39 25.12-44.39 40.64z" fill="#fff"/><path d="m452.26 139.44-30.12-45.75 66.5-15.88.94 1z" fill="#fff8ff"/><path d="m335 215.37c-14.08-.17-25.84-13.15-25.49-28.87.28-12.21 7.74-23.83 24.36-23.36a26.79 26.79 0 0 1 26.27 27.39c-.14 14.54-10.74 25-25.14 24.84zm-2-46.37c-9.56-.08-17 7.43-17.07 17.22-.09 12.78 8.48 22.87 19.47 22.92 11.28 0 19.1-7.63 19.22-18.9.18-12.04-9.11-21.17-21.62-21.24z"/><path d="m397.94 167.28c-13.92.27-26.59-11.87-26.95-25.81-.29-11.19 13.14-23.27 26.08-23.46 14.06-.21 24.78 11.29 25.24 27.07.33 11.45-11.18 21.92-24.37 22.2zm-20.75-25.93c0 10.5 10.44 20.84 20.89 20.69 9.58-.14 19.3-8.42 19.22-16.38-.12-12.44-9.23-22.62-20.06-22.42-9.72.18-20.05 9.51-20.05 18.11z"/><path d="m233.28 211.66c-3 3.65-5.88 7.42-9.05 10.93-7.57 8.38-15.17 16.74-23 24.86-1.88 1.94-4.75 2.93-6.79 4.13l38.56-39.9z"/><path d="m275.9 289.17-36.63 20.05-1.37-1.87c1.27-1.37 2.28-3.26 3.85-4.05 10.58-5.3 21.28-10.37 32-15.48.39-.18 1 .05 1.49.08z"/><path d="m219.92 267.57c-17.65 12.28-34.64 25.52-53 36.7 1.31-6.08 46.43-37.27 53-36.7z"/><path d="m179 317.15c13-15.52 29.32-27.39 44.39-40.64-.72 4.54-39.39 40.22-44.39 40.64z"/><path d="m253.28 379.14c1.38-6.31 64.17-51 74.57-53.11-1.11 3.97-70.74 53.55-74.57 53.11z"/><path d="m205.58 158.87c-1.38 1.37-2.66 2.85-4.13 4.11q-31.32 26.85-62.66 53.64a12.1 12.1 0 0 1 -2.32 2.07 12.31 12.31 0 0 1 -3.26.61c0-1.24-.48-2.9.14-3.65 2.2-2.67 4.8-5 7.21-7.53 17.44-18.18 37.69-33 57.73-48.06 1.77-1.34 4-2 6.07-3z"/><path d="m333 169c12.47.09 21.76 9.22 21.62 21.24-.12 11.27-7.94 18.95-19.22 18.9-11-.05-19.56-10.14-19.47-22.92.07-9.81 7.55-17.32 17.07-17.22zm1.54 33.89c8.13.28 15.32-6.94 15.59-15.63.2-6.46-7.92-13.61-15.65-13.81-7.37-.18-14.16 6.87-14.47 15s5.71 14.12 14.57 14.42z" fill="#fff8ff"/><path d="m377.19 141.35c0-8.6 10.33-17.93 20.05-18.11 10.83-.2 19.94 10 20.06 22.42.08 8-9.64 16.24-19.22 16.38-10.45.15-20.89-10.19-20.89-20.69zm20.15 15.56c7.56-.12 14-6.56 14.05-14 0-6.34-7-12.49-14.24-12.45-7.51 0-13.68 5.9-13.54 12.88.14 7.22 6.69 13.66 13.73 13.57z" fill="#fff8ff"/><path d="m334.58 202.87c-8.86-.3-14.85-6.23-14.53-14.4s7.1-15.22 14.47-15c7.73.2 15.85 7.35 15.65 13.81-.27 8.65-7.46 15.87-15.59 15.59z"/><path d="m397.34 156.91c-7 .12-13.59-6.35-13.73-13.55-.14-7 6-12.85 13.54-12.88 7.22 0 14.25 6.11 14.24 12.45-.01 7.42-6.49 13.86-14.05 13.98z"/></g></svg>