<svg viewBox="0 0 496.18 496.18" xmlns="http://www.w3.org/2000/svg"><path d="m0 0h496.18v496.18h-496.18z" fill="none"/><g transform="translate(-6.7 -7.83)"><path d="m239.93 8.68c55.13 3.12 125.73 6.8 196.27 11.32 18.05 1.17 34.34 8.5 45.23 24 3.54 5 5.29 11.43 7.34 17.38a150.1 150.1 0 0 1 5.62 19.68c3.08 15.61 7.88 31.3 8.05 47 .54 48.6-.27 97.25-1.49 145.85-1.21 47.9-2.24 95.86-5.78 143.62-3.44 46.35-33.43 86.06-85.41 85.62-64.51-.55-129-3.22-193.51-5-33.23-.91-66.46-2-99.7-2.7-16.89-.35-33.91-1.14-50.67.41-31.94 3-42.5-14-48.58-37.16-4-15.37-6.85-31.52-7.06-47.36-1.17-90.34-2.03-180.79-1.54-271.19.13-25.65 4.55-51.35 8-76.89 3.29-24.11 25.16-44.2 49.4-45.6 52.73-3.04 105.47-5.49 173.83-8.98zm62.58 477.78c61.55 2.74 107.62 2.37 123.47-.51a70.54 70.54 0 0 0 13.92-4.18 64.54 64.54 0 0 0 23.35-17.9c12.33-14.6 17.29-33.48 18.12-54.36 1.57-39.44 1.85-78.93 2.91-118.4 1.2-45 3-90 3.85-135 .54-28.11.31-56.38-12.64-82.42-9.86-19.83-20.39-38.91-46.76-40.12-31.91-1.46-63.75-4.3-95.65-5.63-86.44-3.61-172.76.74-259.07 4.65-25 1.13-42 17.89-43.47 42.71-1.31 21.82-3.13 43.7-3.61 65.5-1.48 68.2-3.66 136.43-3.1 204.62.29 35.75 5.1 71.53 9.13 107.16 2.3 20.32 10.57 26.64 31 28.19 2 .15 3.91.21 5.87.26q29.31.72 58.63 1.43z" fill="#001400"/><path d="m326.55 487.25c-132-3.61-181.2-4.66-198.12-4.79-19.55-.15-39.09-.95-58.63-1.43-2 0-3.91-.11-5.87-.26-20.4-1.55-28.67-7.87-31-28.19-4-35.63-8.84-71.41-9.13-107.16-.56-68.19 1.62-136.42 3.1-204.62.48-21.85 2.3-43.68 3.61-65.51 1.49-24.82 18.55-41.58 43.49-42.71 86.31-3.91 172.63-8.26 259.07-4.65 31.9 1.33 63.74 4.17 95.65 5.63 26.37 1.21 36.9 20.29 46.76 40.12 12.95 26 13.18 54.31 12.64 82.42-.87 45-2.65 90-3.85 135-1.06 39.47-1.34 79-2.91 118.4-1.23 31-11.54 57.51-41.47 72.26a30.42 30.42 0 0 1 -10.25 2.56c-22.21 3.18-94.75 2.96-103.09 2.93zm46.39-422.89-.11-3.72c-3.1-.51-6.21-1.46-9.32-1.48-67.49-.6-135-1.54-202.49-1.36-21.82.06-43.78-1.32-65.55 4.83-11.67 3.3-19 9.14-24 19.23-15.93 32.37-17.74 67.48-17.44 102.37.43 50.23 3.14 100.45 4.81 150.67 1 29.37 2.16 58.74 2.57 88.12.19 13.49 6 23 19 26.55a51.71 51.71 0 0 0 13.52 1.75c36.82.1 73.65-.47 110.46.08 49.55.73 99.09 2.47 148.63 3.38 25.79.47 51.63.16 76.37-8.63 13.84-4.92 22.13-18 22.26-32.52.15-17.59.72-35.18 1.39-52.77 1.3-33.91 4.39-67.86 3.78-101.74-.72-40.39-4.47-80.73-7.16-121.08-.18-2.59-2.53-5-3.87-7.54-1.23 2.38-3.54 4.77-3.52 7.14.17 17.6.18 35.25 1.39 52.8 2.67 38.37 9.1 76.43 5.59 115.21-3.14 34.71-4.38 69.59-6.49 104.39-1.35 22.07-6.64 29.15-28.29 32.34a362.78 362.78 0 0 1 -54.48 4.1c-69.09-.34-138.18-1.5-207.26-2.45-20.85-.29-41.7-.6-62.53-1.48-12.92-.55-21.66-7.81-21.83-16.68-.46-24.48-.79-48.95-1.46-73.42-1.12-41.45-1.71-82.93-3.91-124.32-2.15-39.62-1.64-78.94 5.59-118 5.06-27.33 18.65-42.06 41.82-44 14.28-1.21 28.66-1.6 43-1.53 69.46.33 138.92 1 208.39 1.38 3.67.02 7.41-1.07 11.14-1.62zm-87.64 219.71h-1.15c-1-22.78-2.06-45.56-2.89-68.35-.22-6-3-7.71-8.66-7.73-7.47 0-14.93-1.19-22.41-1.36-16.58-.38-33.17-.62-49.75-.45-2.84 0-7.85 2-8.11 3.71-1.05 6.87-2 14.36-.14 20.8.74 2.6 8.85 4.59 13.43 4.28 9.8-.67 14.84 4.15 17.22 12.42 1.69 5.89 3.11 12.22 2.81 18.26-1.25 25.4-2.69 50.8-5.06 76.11-1.36 14.56-2.43 15-17.07 15.38-8.09.23-11.93 3.11-11.72 11.7.42 17.21.49 17.88 11.63 18.19 33.87.94 67.74 1.86 101.61 2.56 18.62.39 18.62.19 17.46-18.71-.73-11.76-2.28-13.18-14.12-12.94-18.23.36-22.81-3.86-23-22-.24-17.31-.08-34.59-.08-51.87zm-70-135.57c-.14 25.59 10 37.72 31.57 37.73 24.33 0 37.21-15 38.63-41.73 1-18-17.12-28.85-36.58-29-21.2-.09-33.53 12.01-33.64 33z" fill="#fff8ff"/><g fill="#001400"><path d="m372.94 64.36c-3.73.55-7.47 1.59-11.19 1.57-69.47-.41-138.93-1.05-208.39-1.38-14.33-.07-28.71.32-43 1.53-23.17 2-36.76 16.69-41.82 44-7.23 39.09-7.74 78.41-5.59 118 2.24 41.39 2.83 82.87 4 124.32.67 24.47 1 48.94 1.46 73.42.17 8.87 8.91 16.13 21.83 16.68 20.83.88 41.68 1.19 62.53 1.48 69.08 1 138.17 2.11 207.26 2.45a362.78 362.78 0 0 0 54.48-4.1c21.65-3.19 26.94-10.27 28.29-32.34 2.11-34.8 3.35-69.68 6.49-104.39 3.51-38.78-2.92-76.84-5.59-115.21-1.21-17.55-1.22-35.2-1.39-52.8 0-2.37 2.29-4.76 3.52-7.14 1.34 2.51 3.69 4.95 3.87 7.54 2.69 40.35 6.44 80.69 7.16 121.08.61 33.88-2.48 67.83-3.78 101.74-.67 17.59-1.24 35.18-1.39 52.77-.13 14.5-8.42 27.6-22.26 32.52-24.74 8.79-50.58 9.1-76.37 8.63-49.54-.91-99.08-2.65-148.63-3.38-36.81-.55-73.64 0-110.46-.08a51.71 51.71 0 0 1 -13.52-1.75c-13-3.6-18.79-13.06-19-26.55-.41-29.38-1.59-58.75-2.57-88.12-1.67-50.22-4.38-100.44-4.81-150.67-.3-34.89 1.51-70 17.44-102.37 5-10.09 12.3-15.93 24-19.23 21.77-6.15 43.73-4.77 65.55-4.83 67.5-.18 135 .76 202.49 1.36 3.11 0 6.22 1 9.32 1.48z"/><path d="m285.3 284.07c0 17.28-.16 34.56.05 51.84.22 18.13 4.8 22.35 23 22 11.84-.24 13.39 1.18 14.12 12.94 1.16 18.9 1.16 19.1-17.46 18.71-33.87-.7-67.74-1.62-101.61-2.56-11.14-.31-11.21-1-11.63-18.19-.21-8.59 3.63-11.47 11.72-11.7 14.64-.41 15.71-.82 17.07-15.38 2.37-25.31 3.81-50.71 5.06-76.11.3-6-1.12-12.37-2.81-18.26-2.38-8.27-7.42-13.09-17.22-12.42-4.58.31-12.69-1.68-13.43-4.28-1.85-6.44-.91-13.93.14-20.8.26-1.67 5.27-3.68 8.11-3.71 16.58-.17 33.17.07 49.75.45 7.48.17 14.94 1.34 22.41 1.36 5.63 0 8.44 1.74 8.66 7.73.83 22.79 1.9 45.57 2.89 68.35zm-84.75 94.63 115.62 3.81c-.56-7.39-1-12.73-1.38-18.34-4.79 0-8.63.18-12.45 0-17.3-1-22.86-5.87-23.84-23-1.39-24.4-2.1-48.85-2.91-73.28-.48-14.65-.28-29.33-1.18-43.95-.16-2.58-4-6.86-6.45-7.06q-29.16-2.43-58.43-3.39c-10.93-.36-11.29.66-9 12.74 12.49-2.12 23.58.46 28.77 13.53 2.61 6.57 5.26 13.87 4.94 20.71q-2 43.4-6.1 86.68c-1.28 13.44-7.12 17.7-20.61 18.88l-7 .62z"/><path d="m215.28 148.5c.11-21 12.44-33.09 33.62-33 19.46.11 37.54 10.91 36.58 29-1.42 26.71-14.3 41.74-38.63 41.73-21.55-.01-31.71-12.14-31.57-37.73zm8.35-.14c0 18.63 7.39 28.11 21.94 28.23 18.41.15 30.21-11.34 30.09-29.31-.09-15.2-10.38-23.81-28.21-23.61-14.87.17-23.83 9.45-23.82 24.69z"/></g><g fill="#fff8ff"><path d="m200.55 378.7v-12.1l7-.62c13.49-1.18 19.33-5.44 20.61-18.88q4.11-43.25 6.1-86.68c.32-6.84-2.33-14.14-4.94-20.71-5.19-13.07-16.28-15.65-28.77-13.53-2.33-12.08-2-13.1 9-12.74q29.25.94 58.43 3.39c2.43.2 6.29 4.48 6.45 7.06.9 14.62.7 29.3 1.18 43.95.81 24.43 1.52 48.88 2.91 73.28 1 17.15 6.54 22.06 23.84 23 3.82.21 7.66 0 12.45 0 .42 5.61.82 10.95 1.38 18.34z"/><path d="m223.63 148.36c0-15.24 9-24.52 23.82-24.69 17.83-.2 28.12 8.41 28.21 23.61.12 18-11.68 29.46-30.09 29.31-14.57-.12-21.93-9.59-21.94-28.23z"/></g></g></svg>