<svg viewBox="0 0 496.18 499.9" xmlns="http://www.w3.org/2000/svg"><path d="m0 0h496.18v496.18h-496.18z" fill="none"/><path d="m8.62 409.32 21.23-20.17c9.5-.88 19.52-1.55 30-1.92q13-.45 25-.27l-38.11 21.39z" fill="#fffff8" transform="translate(-7.43 -6.46)"/><path d="m25.73 406.93-8 7.17 3.42 6.22 8.53 2.56 12.6-1.44 14.72-.44 13.42-.43 12.82.49 13.24-2.93 27-11.23 33.88-17.26-24.6-.2-12.21-3.26-20.78-.62-12 2.2-17.6 7.48-22 10.8-9.3 3.92z" fill="#fffff8" transform="translate(-7.43 -6.46)"/><g stroke="#001400" stroke-miterlimit="10"><path d="m79.09 131.29 76.26 101.99-2.67 183.59-133.5 10.45z" fill="#fff8ff"/><path d="m502.39 363.71a1.08 1.08 0 0 0 -1.6-.44c-.82.4-1.61.91-2.41 1.4-3.51 2.14-7 4.27-10.52 6.47-1 .64-1.73.33-2.46-.76-1.14-1.71-2.35-3.33-3.55-5a156.87 156.87 0 0 0 -10-13.09c-3-3.31-6-6.61-8.87-10.1s-5.36-7.11-8.13-10.55a162.31 162.31 0 0 1 -10.33-14.28 70.92 70.92 0 0 0 -5.6-7.57c-2.87-3.39-5.75-6.76-8.46-10.4s-5.51-6.88-8.33-10.22c-2.29-2.72-4.67-5.33-6.77-8.31-4-5.75-7.64-12.05-11.41-18.14-3-4.88-5.5-10.32-8.36-15.36q-12.35-21.75-24.73-43.46c-1-1.82-2.08-3.65-3.1-5.5-.26-.48-.62-1 0-1.6s.28-1.38-.35-1.41c-1.22 0-1.87-1.07-2.51-2.25-2.51-4.61-5.05-9.19-7.8-13.54a4.32 4.32 0 0 1 -.86-2c-.36-4-.92-7.91-1-11.88a89.32 89.32 0 0 0 -1.93-17c-.91-4.29-1.59-8.73-3.31-12.58a119.7 119.7 0 0 1 -5-13.69c-.25-.81-.41-2.28-1.26-1.77s-.21 1.7 0 2.53a82.2 82.2 0 0 0 4.42 12.48 20.83 20.83 0 0 1 1.29 3.39 118.94 118.94 0 0 1 3.82 18.9c.55 5 .28 10.05 1.06 15a4.68 4.68 0 0 1 .07 2.29c-.24-.35-.44-.61-.61-.9-3.2-5.29-6.4-10.57-9.58-15.89-4.72-7.92-9-16.3-13.28-24.67q-3.11-6.09-6.15-12.24c-.33-.68-1.1-1.38-.71-2.24s1.19-.27 1.8-.35c.41-.06.82 0 1.23 0 2.33-.12 4.66.21 7 .28 5 .15 10-.7 15-.44a2.88 2.88 0 0 0 1-.19.74.74 0 0 0 .5-.84.91.91 0 0 0 -.42-.7 2.42 2.42 0 0 0 -1.54-.32c-2.27 0-4.54.07-6.82.07-1.15 0-1.58-.71-1.38-2.22a5.69 5.69 0 0 1 .24-.9 38 38 0 0 0 .74-18.29 36.29 36.29 0 0 1 -.85-5.62 71.61 71.61 0 0 0 -3.49-17.23 23.83 23.83 0 0 0 -3.54-7.34c-.26-.36-.75-.52-.69-1.42l6 1.58a8.76 8.76 0 0 0 1.21.27c.41 0 .9 0 1-.69s-.39-.91-.78-1.09a6.41 6.41 0 0 0 -1-.36 90.58 90.58 0 0 0 -16.07-3.28c-3.54-.4-7.08-.9-10.62-1.31-2.9-.34-5.78-.94-8.69-1.16s-5.69-.63-8.54-1a2.9 2.9 0 0 1 -2.84-2.23 2.94 2.94 0 0 0 -1-1.58c-1.26-.67-1.48-2.15-1.71-3.62a65.2 65.2 0 0 1 -.85-8.53 44.29 44.29 0 0 0 -.39-4.75c-.11-.92-.55-1.63-1.31-1.63s-1.23.78-1.38 1.81a13.55 13.55 0 0 0 -.09 1.43c-.13 3.27-.23 6.54-.38 9.8q-.15 3.23-.39 6.44c-.13 1.65-.39 1.92-1.56 1.83-.82-.06-1.63-.2-2.44-.21-11.37-.16-22.73-.28-34.08-1.35-6.85-.65-13.74-.51-20.62-.71-1 0-2 0-3 0-.51 0-1.24-.09-1.28.83s.72.79 1.21.85a2.73 2.73 0 0 0 .7 0 39.05 39.05 0 0 1 6.11.33c.59 0 1.17.09 1.49 1 1.28 3.49 2.73 6.9 2.77 11 0 .88.16 1.74.22 2.62.25 3.48.77 7 .1 10.46-1 5.34-1.9 10.72-3.94 15.57a22.33 22.33 0 0 0 -.8 2.39c-1.57 5.38-3.92 10.15-6.13 15a2 2 0 0 1 -1.88 1.41 22.69 22.69 0 0 1 -4.19-.32 6.91 6.91 0 0 0 -2.44-.12c-.41 0-.9.15-1 .8-.07.87.51.92 1 1.05a4 4 0 0 0 .69.09l4.53.53c.34.05.88-.06.94.4.19 1.4.66 1.88 1.66 1.44.08 0 .29.24.38.42 1.44 3.18 3.13 6.16 3.84 9.89.6 3.16.33 6.36.39 9.54 0 .52.14 1.14-.41 1.6-1-1.27-1.94-2.67-3-3.85-6.45-7.07-11.68-15.8-17.43-23.83a72.28 72.28 0 0 1 -4.58-7.24c-4.21-7.65-8.3-15.42-12.14-23.44a44.15 44.15 0 0 0 -2.33-4.49c-2.65-4.21-4.48-9.37-7.85-12.77a5.84 5.84 0 0 1 -.73-1.34 57 57 0 0 0 -5.78-9c-1.47-1.88-2.89-3.56-3.32-6.42a9.33 9.33 0 0 1 -.24-2.54c.3-2.76.49-5.54.6-8.33.13-3.51.4-7 .58-10.51 0-1.09.37-1.8 1.16-2.09 3.73-1.37 7.46-1.8 11.17 0a7.38 7.38 0 0 0 4.63.84 9 9 0 0 1 8.31 2.48 14.77 14.77 0 0 0 5.2 2.75 1 1 0 0 0 1.51-.74 1.5 1.5 0 0 0 -.78-1.83c-.26-.18-.54-.32-.8-.5a36.07 36.07 0 0 1 -7.84-6.7 9.69 9.69 0 0 0 -7.26-3.57c-1.1-.09-2.21-.06-3.32-.06a13.59 13.59 0 0 1 -7.63-2.23 12.46 12.46 0 0 0 -2.41-1.22 2.58 2.58 0 0 1 -1.93-2.34 2.13 2.13 0 0 0 -1.94-2c-1-.07-1.73.68-2.14 2a14.5 14.5 0 0 0 -.48 3c-.63 7.94-.68 15.92-.84 23.9-.09 4.13.54 8.43-.84 12.43a4.79 4.79 0 0 0 -.09 1c-.21 2.54-.39 5.08-.38 7.64a15.19 15.19 0 0 1 -.52 4.23c-1.85 6.21-3.47 12.58-5.65 18.57-4 10.93-7.57 22.12-11.6 33-1.1 3-2.13 6-3.17 9.06a3.32 3.32 0 0 0 .23 3.2c2.37-6.61 4.74-12.88 6.9-19.3s4.24-13 6.7-19.23 4.14-12.94 6.29-19.38c.13 4.18.09 8.3.14 12.43a41.28 41.28 0 0 1 -.59 6.87c-2.24 14.14-5.3 28-8.19 41.88q-3.15 15.19-6.08 30.49c-.42 2.16-.8 4.34-1.15 6.52a9.24 9.24 0 0 0 .2 4.79 8.21 8.21 0 0 0 .87-3.23c1.66-8.89 3.08-17.88 5-26.68 3.05-14.17 5.93-28.4 8.74-42.66.32-1.65.68-3.29 1-4.93.15 4.46.37 8.84.54 13.22.18 4.78.29 9.57.5 14.35.31 6.85.57 13.7.56 20.57 0 3.59 0 7.19.08 10.78s.19 7.18.29 10.76c0 1.35-.16 2.64-1.06 3.34-1.73 1.34-2.19 3.54-2.47 6a204 204 0 0 0 -.87 29.15c.29 9.07 0 18.14.37 27.19-.43.14-.6-.24-.8-.5-3.21-4.18-6.67-8-9.76-12.35-.41-.58-1-1.78-1.52-1.13-.64.85.23 1.68.7 2.29 2 2.62 4.09 5.23 6.18 7.78 1.27 1.54 2.5 3.12 3.65 4.81.81 1.18.79 1.24.42 2.77-3.72-4.86-7-10.3-10.92-15.27a2.85 2.85 0 0 0 .46 2.9c.74 1.12 1.56 2.15 2.3 3.28 2.73 4.14 6 7.65 8.29 12.31a4.09 4.09 0 0 1 .46 2.83 37 37 0 0 0 -.65 6.15 8 8 0 0 0 .93 4.51 1.89 1.89 0 0 1 -.2 2.56 12.18 12.18 0 0 0 -.26 12.56c.31.5.5.93.13 1.43-1.58 2.12-1.76 5-2.13 7.7a7.32 7.32 0 0 0 1.65 6.16c1 1.17 1 1.22.24 2.71a7.9 7.9 0 0 1 -.43.76c-1.93 2.8-1.84 10-.17 12.62.92 1.48 1.06 1.69 0 3.67a13.08 13.08 0 0 0 -1.27 9.94 10.8 10.8 0 0 0 1.58 3.41 2.67 2.67 0 0 1 .2 2.83 7.73 7.73 0 0 1 -.69 1.38c-1.73 2.36-1.88 5.16-1.33 8.22a12.35 12.35 0 0 0 1.18 3.7 2.55 2.55 0 0 1 -.11 3 5.39 5.39 0 0 0 -.32.58c-1.35 2.52-1.25 5.42-1.1 8.3a7.14 7.14 0 0 0 2.35 5.32c.63.53.48 1.14.13 1.81-.49.9-1 1.79-1.43 2.72-1.85 3.8-.67 9.85 1.15 11.93 1.37 1.57 1.33 1.64.36 3.61-.16.33-.33.66-.5 1a16.61 16.61 0 0 0 -.82 13 7.57 7.57 0 0 1 0 5.58 8 8 0 0 0 -.32 1.12c-1.17 5.12-1.25 10.07 1.39 14.5a2.19 2.19 0 0 1 0 2.38c-2.12 3.88-1.91 8.23-1.38 12.64a14.09 14.09 0 0 0 .48 2.29 4.58 4.58 0 0 0 2.37 3 .62.62 0 0 0 .94-.3 1.07 1.07 0 0 0 -.29-1.23 2.69 2.69 0 0 0 -.43-.4 4.52 4.52 0 0 1 -1.59-3.26 32.47 32.47 0 0 1 -.18-7.63 9.38 9.38 0 0 1 2.13-5.18c.09.54.15.76.16 1 .42 6 .48 12.11.95 18.14.24 3.11.63 6.38-1.13 9.09-.43.65-.75 1.43-1.16 2.09-.84 1.32-1.72 2.61-2.57 3.91-.28.42-.64.92-.32 1.45s.88.18 1.21-.25c.68-.88 1.33-1.8 2-2.75.82-1.27 1.6-2.6 2.67-4.35.14 3.58.29 6.58.36 9.59 0 1.13-.64 1.12-1.26 1.09q-8.21-.45-16.42-.86c-.87 0-1.75 0-2.62-.1-7.49-.72-15-1.53-22.49-2.16-5.52-.46-11.06-.58-16.58-1.07-4.77-.42-9.53-1-14.27-1.76a147.63 147.63 0 0 0 -15.31-2c-8.27-.42-16.55-.4-24.79-1.56a57 57 0 0 1 -7.45-1.64 16.64 16.64 0 0 1 4.36-1.5 127.8 127.8 0 0 1 25.68-3.42 58.3 58.3 0 0 0 8-.82c4.8-.86 9.59-1.74 14.37-2.72 4.39-.9 8.86-.56 13.21-1.82a7.3 7.3 0 0 1 2.25-.36c4.72.14 9.43-1 14.15-.14 1.79.31 3.45-.62 5.18-.87a56.69 56.69 0 0 1 16.4.05 17.47 17.47 0 0 0 2.78.35 29 29 0 0 1 8.32 1.33 10.58 10.58 0 0 0 1.38.3.52.52 0 0 0 .68-.51.86.86 0 0 0 -.48-.89 4.39 4.39 0 0 0 -.82-.39 23.05 23.05 0 0 0 -6.9-1.41 48.29 48.29 0 0 1 -5.75-.59 69.2 69.2 0 0 0 -15 0c-1.33.14-2.61.73-4 .53-5.7-.8-11.41-.45-17.11-.05-2.45.17-4.82 1.13-7.29 1.18a48.74 48.74 0 0 0 -9.74 1.18 144.39 144.39 0 0 1 -27.14 3.5 101.2 101.2 0 0 0 -15.82 2.2c-4 .79-8 2.37-12 3.4a25.6 25.6 0 0 1 -7.49.61c-1.1 0-1.19-.28-.9-1.78.07-.39.17-.76.27-1.14 1-3.52 1.67-7.14 2.3-10.8 1.28-7.54 2.48-15.12 3.94-22.59 2.33-11.88 4.54-23.77 6.32-35.84 2.43-16.43 5.15-32.78 7.72-49.17 1.79-11.48 4-22.82 5.86-34.28 1.64-10.14 3.46-20.21 5.62-30.17 2-9 4-18 5.68-27.17q2-10.94 4.89-21.48c2.19-7.83 4.48-15.61 6.23-23.66.62-2.83 1.33-5.62 2-8.42 1.44-6 3.3-11.79 4.28-18 .53-3.28 1-6.56 1.57-9.83a7.22 7.22 0 0 1 .92-3.25c.78 1.24 1.51 2.35 2.2 3.5a213.49 213.49 0 0 0 14 21.1c6.82 8.82 13.41 18 20.13 27 3.13 4.18 6.08 8.61 9.42 12.5 1.69 2 3.32 4 4.86 6.19 1.79 2.51 3.43 5.23 5.18 7.79 1.31 1.93 2.7 3.75 4.08 5.6.27.37.64 1 1 .5s.09-1.19-.21-1.68-.64-.93-1-1.39l-2.37-3.38c.7.06.91.59 1.19.94.56.7 1.09 1.46 1.64 2.17.2.27.48.61.75.32s.13-.87 0-1.28a2.61 2.61 0 0 0 -.34-.56 32.42 32.42 0 0 0 -3.2-4.05 74.76 74.76 0 0 1 -9.23-11c-4.14-6-8.58-11.5-13-17.06 0-.07-.1-.15-.16-.22-3-3.84-6.11-7.65-8.84-11.91q-6.16-9.65-12.74-18.75c-3.33-4.61-6.44-9.46-9.47-14.41-3.83-6.23-7.79-12.31-11.37-18.82a3.77 3.77 0 0 0 -1-1.29 1 1 0 0 0 -1.49.08 1.87 1.87 0 0 0 -.28 1.94 15.21 15.21 0 0 0 1 2.78 6 6 0 0 1 .41 4.71c-1.37 5.85-2.64 11.75-4 17.62-2.47 10.82-5.09 21.58-7.41 32.46-4.31 20.23-9.15 40.24-12.85 60.73-1.78 9.91-3.81 19.74-5.35 29.76-1.71 11.17-3.92 22.19-5.5 33.4-1.41 10-3.11 19.84-5.26 29.54-2.79 12.91-6.03 25.69-8.56 38.69-1.28 6.63-3.05 13.08-4.44 19.67-2.18 10.33-3.92 20.74-5.74 31.15-.57 3.25-1.34 6.45-2.09 9.64-.5 2.12-.76 2.3-2.42 2.28-1.11 0-2.22-.08-3.32-.1a2.7 2.7 0 0 0 -2.13.92 2.45 2.45 0 0 0 .22 3.69 5.86 5.86 0 0 0 2 .86c2.32.74 4.69 1.2 7 1.89 4 1.19 8 1.43 12 1.8 4.55.42 9 1.78 13.6 1.78-1.27.29-2.55.43-3.82.64a8.55 8.55 0 0 0 -4.34 1.78c-1.56 1.31-1.73 3.74-.22 4.81 1.33 1 1.41 2.07 1.24 3.84a16.82 16.82 0 0 0 .86 8.17c1.58 3.63 3.41 7 5.14 10.55a3.59 3.59 0 0 0 2.32 2 5.9 5.9 0 0 0 2.61 0 28.34 28.34 0 0 1 7.84-.62c3.54.42 7.08.72 10.62 1.25a10.14 10.14 0 0 1 6.89 3.56 18.86 18.86 0 0 0 7.42 5.68c.35.14.84.2.85 1.08l-1.13.54a38.61 38.61 0 0 0 -6.84 4.26 6 6 0 0 0 -2 5.19c.35 2.07 1.64 2.26 2.85 2.57.45.11.92.13 1.39.2 1.38.23 2.77.45 4.16.7a80.45 80.45 0 0 0 14.86 1.66 45.23 45.23 0 0 1 7.14.72 130.53 130.53 0 0 0 15.86 1.53 79.12 79.12 0 0 1 9.59.88c3.37.5 6.7.71 10-.65a27.49 27.49 0 0 1 12.79-2.06c2 .17 4 .3 5.93.53a75 75 0 0 1 10.59 1.61 47.48 47.48 0 0 0 12 1.76c3.82 0 7.51-1.29 11.28-1.77 3.13-.4 6.27-1 9.41-.57 4.46.67 8.9 1.53 13.33 2.39a36.5 36.5 0 0 0 7.49.84 82.7 82.7 0 0 1 8.9.29 58.26 58.26 0 0 0 11.88-.17c4.53-.54 9-1.37 13.58-1.74a39 39 0 0 0 6.95-.9 17.59 17.59 0 0 1 7.5-.24c5.79 1 11.51.27 17.23-.86 4.73-.94 9.46-1.87 14.26-1.64 4.43.21 8.85.28 13.27.84 4.64.59 9.29 1 13.93 1.64 6.9.93 13.77 2.2 20.64 3.46 3 .55 6.17 1.29 8.88-1.72.37-.41 1.21-.31 1-1.27s-.92-.25-1.38-.48c-.1-.05-.17-.19-.26-.29a1.9 1.9 0 0 1 .22-1.12c2.11-4.89 4.31-9.65 7.33-13.65 3.44-4.57 7.2-8.61 10.8-12.92s7.66-8.1 11.24-12.56c2.64-3.29 5.32-6.54 7.06-10.87.77-1.91 1.75-2.43 3.23-2.38a92.71 92.71 0 0 0 11.54-.36c4.35-.41 8.69-1.28 13.08-1.05a39.6 39.6 0 0 0 9.59-.58c1.34-.27 2.46-.28 3.43 1.34.58 1 1.4.52 1.74-.71a2.48 2.48 0 0 0 .05-1.4c-.52-1.56.16-2.28 1-3.11 4.25-4.36 8.33-9 12.36-13.73 3-3.59 5.88-7.54 9.31-10.47 6.41-5.47 12.11-12.21 18.07-18.49 1-1 1.84-2.21 2.74-3.34 2.89-3.6 5.84-7.09 8.7-10.73a44.53 44.53 0 0 0 4.93-7.08 20 20 0 0 1 4.11-5.46 22.5 22.5 0 0 0 4.95-7 2.38 2.38 0 0 0 .12-2.19z" fill="#fff8ff" transform="translate(-7.43 -6.46)"/><g fill="#001400"><path d="m287.38 450.42 1.71-39.82-6.48-.21-1.68 40.03z"/><g transform="translate(-7.43 -6.46)"><path d="m122.38 180.84c4.43 5.56 8.87 11.09 13 17.06a74.77 74.77 0 0 0 9.23 11 32.59 32.59 0 0 1 3.21 4.06 2.77 2.77 0 0 1 .33.55c.17.42.39.91 0 1.29s-.55-.05-.76-.32c-.55-.72-1.07-1.47-1.63-2.17-.29-.36-.5-.89-1.2-.94l2.37 3.38c.32.46.67.89 1 1.39s.65 1.13.21 1.68-.76-.14-1-.51c-1.38-1.84-2.76-3.67-4.08-5.59-1.75-2.56-3.39-5.28-5.17-7.79-1.55-2.17-3.18-4.24-4.87-6.2-3.34-3.88-6.28-8.32-9.41-12.5-6.73-9-13.31-18.13-20.14-26.95a211.66 211.66 0 0 1 -14-21.1c-.7-1.16-1.43-2.27-2.21-3.5a7.17 7.17 0 0 0 -.91 3.25c-.55 3.27-1 6.55-1.57 9.82-1 6.19-2.84 12-4.28 18-.68 2.81-1.39 5.6-2 8.43-1.75 8-4 15.82-6.23 23.65-2 7-3.58 14.2-4.89 21.49-1.65 9.15-3.72 18.14-5.68 27.17-2.15 10-4 20-5.61 30.17-1.85 11.46-4.07 22.8-5.87 34.28-2.57 16.39-5.29 32.74-7.71 49.17-1.78 12.06-4 24-6.33 35.84-1.46 7.46-2.66 15-3.94 22.58-.62 3.66-1.33 7.29-2.29 10.81a11 11 0 0 0 -.28 1.13c-.29 1.5-.2 1.74.91 1.78a25.9 25.9 0 0 0 7.48-.6c4-1 7.94-2.62 12-3.41a102.54 102.54 0 0 1 15.82-2.24 145.11 145.11 0 0 0 27.12-3.49 47.32 47.32 0 0 1 9.74-1.18c2.47-.05 4.85-1 7.29-1.19 5.7-.4 11.41-.75 17.11.06 1.37.19 2.65-.4 4-.53a68.48 68.48 0 0 1 15 0 46.28 46.28 0 0 0 5.75.58 23.38 23.38 0 0 1 6.9 1.42 3.67 3.67 0 0 1 .83.39.85.85 0 0 1 .47.88.52.52 0 0 1 -.68.52 9.78 9.78 0 0 1 -1.38-.31 28.58 28.58 0 0 0 -8.32-1.32 17.79 17.79 0 0 1 -2.78-.36 57 57 0 0 0 -16.4 0c-1.73.24-3.39 1.18-5.18.87-4.72-.82-9.43.28-14.14.13a7.38 7.38 0 0 0 -2.26.37c-4.35 1.26-8.82.92-13.2 1.81-4.79 1-9.58 1.86-14.37 2.73a60.22 60.22 0 0 1 -8 .82 127.88 127.88 0 0 0 -25.73 3.35 17.07 17.07 0 0 0 -4.38 1.45 57 57 0 0 0 7.45 1.64c8.25 1.15 16.52 1.14 24.79 1.56a147.25 147.25 0 0 1 15.31 1.94c4.75.75 9.51 1.35 14.27 1.77 5.52.49 11.06.6 16.59 1.07 7.5.63 15 1.44 22.49 2.16.87.08 1.74.05 2.62.1l16.42.85c.62 0 1.28.05 1.25-1.09-.07-3-.22-6-.36-9.58-1.07 1.75-1.85 3.07-2.67 4.35-.62.95-1.27 1.87-1.94 2.75-.33.42-.8.92-1.21.25s0-1 .31-1.45c.86-1.3 1.73-2.59 2.57-3.92.42-.66.74-1.43 1.16-2.09 1.76-2.71 1.37-6 1.13-9.08-.47-6-.53-12.11-.94-18.15 0-.22-.08-.45-.17-1a9.45 9.45 0 0 0 -2.13 5.18 32.48 32.48 0 0 0 .18 7.63 4.6 4.6 0 0 0 1.59 3.26 3.25 3.25 0 0 1 .44.4 1.07 1.07 0 0 1 .28 1.22.62.62 0 0 1 -.94.31 4.58 4.58 0 0 1 -2.37-3 13.2 13.2 0 0 1 -.47-2.3c-.53-4.4-.74-8.76 1.37-12.63a2.21 2.21 0 0 0 0-2.38c-2.65-4.43-2.56-9.38-1.39-14.51a6.47 6.47 0 0 1 .31-1.11 7.57 7.57 0 0 0 0-5.58 16.55 16.55 0 0 1 .82-13c.16-.32.33-.65.49-1 1-2 1-2-.36-3.6-1.82-2.08-3-8.14-1.15-11.93.45-.93.94-1.83 1.43-2.73.35-.66.5-1.27-.13-1.8a7.17 7.17 0 0 1 -2.35-5.33c-.15-2.88-.24-5.77 1.11-8.29a4.54 4.54 0 0 1 .31-.58 2.55 2.55 0 0 0 .12-3 12.17 12.17 0 0 1 -1.19-3.7c-.55-3.06-.4-5.86 1.34-8.22a8.55 8.55 0 0 0 .68-1.39 2.66 2.66 0 0 0 -.2-2.82 11.08 11.08 0 0 1 -1.58-3.42 13.11 13.11 0 0 1 1.25-9.76c1.07-2 .93-2.2 0-3.67-1.66-2.66-1.76-9.83.17-12.62a6.22 6.22 0 0 0 .43-.76c.76-1.49.79-1.54-.24-2.71a7.31 7.31 0 0 1 -1.64-6.17c.37-2.74.55-5.57 2.12-7.69.38-.51.18-.93-.13-1.43-2.24-3.56-2.14-9.22.26-12.56a1.89 1.89 0 0 0 .2-2.56 7.93 7.93 0 0 1 -.92-4.51 35.93 35.93 0 0 1 .64-6.15 4 4 0 0 0 -.46-2.83c-2.33-4.67-5.56-8.18-8.29-12.32-.74-1.12-1.56-2.16-2.3-3.28a2.85 2.85 0 0 1 -.46-2.89c3.88 5 7.2 10.41 10.92 15.27.37-1.53.4-1.59-.41-2.78-1.16-1.68-2.39-3.27-3.66-4.81-2.09-2.54-4.14-5.15-6.17-7.78-.47-.6-1.35-1.43-.7-2.28.49-.65 1.1.55 1.51 1.13 3.09 4.36 6.55 8.17 9.76 12.34.2.26.37.65.8.5-.35-9-.08-18.11-.36-27.18a202.72 202.72 0 0 1 .86-29.16c.28-2.45.74-4.65 2.47-6 .91-.71 1.1-2 1.07-3.34-.1-3.59-.24-7.17-.3-10.76s-.08-7.19-.07-10.78c0-6.87-.25-13.72-.56-20.57-.22-4.78-.33-9.57-.51-14.35-.17-4.38-.39-8.76-.53-13.22-.34 1.64-.69 3.28-1 4.93-2.81 14.26-5.68 28.49-8.74 42.66-1.9 8.79-3.32 17.78-5 26.68a8 8 0 0 1 -.87 3.22 9.2 9.2 0 0 1 -.2-4.78c.35-2.19.74-4.36 1.15-6.52q3-15.28 6.08-30.5c2.89-13.89 6-27.73 8.19-41.87a40.42 40.42 0 0 0 .59-6.87c0-4.13 0-8.26-.14-12.44-2.14 6.41-3.82 13.11-6.27 19.41s-4.54 12.77-6.71 19.23-4.52 12.69-6.9 19.3a3.35 3.35 0 0 1 -.23-3.2c1-3 2.07-6.08 3.17-9.06 4-10.9 7.63-22.09 11.61-33 2.17-6 3.79-12.36 5.64-18.57a14.78 14.78 0 0 0 .52-4.23c0-2.56.18-5.1.39-7.64a3.58 3.58 0 0 1 .09-.94c1.37-4 .75-8.31.83-12.43.16-8 .21-16 .85-23.91a14.4 14.4 0 0 1 .47-3c.42-1.36 1.2-2.11 2.15-2a2.15 2.15 0 0 1 1.93 2 2.59 2.59 0 0 0 1.94 2.35 12.67 12.67 0 0 1 2.44 1.28 13.59 13.59 0 0 0 7.63 2.23c1.11 0 2.22 0 3.32.06a9.64 9.64 0 0 1 7.27 3.57 35.52 35.52 0 0 0 7.84 6.69c.26.18.53.32.79.51a1.5 1.5 0 0 1 .78 1.83 1 1 0 0 1 -1.5.74 14.68 14.68 0 0 1 -5.2-2.75 9 9 0 0 0 -8.32-2.48 7.45 7.45 0 0 1 -4.63-.84c-3.7-1.8-7.44-1.36-11.16 0-.79.29-1.12 1-1.17 2.1-.18 3.5-.45 7-.58 10.5-.1 2.8-.29 5.58-.6 8.34a9.22 9.22 0 0 0 .24 2.53c.43 2.86 1.85 4.55 3.32 6.43a57 57 0 0 1 5.79 8.95 5.52 5.52 0 0 0 .73 1.34c3.36 3.39 5.19 8.55 7.85 12.77a43.07 43.07 0 0 1 2.32 4.37c3.84 8 7.93 15.79 12.14 23.44a72.13 72.13 0 0 0 4.58 7.23c5.75 8 11 16.77 17.43 23.84 1.08 1.18 2 2.57 3 3.84.56-.46.42-1.08.41-1.59-.06-3.19.21-6.38-.39-9.54-.71-3.73-2.4-6.71-3.84-9.89-.08-.19-.29-.46-.38-.43-1 .44-1.47 0-1.66-1.43-.06-.46-.6-.36-.94-.4l-4.52-.54a4.06 4.06 0 0 1 -.7-.08c-.45-.13-1-.18-1-1 .06-.65.56-.76 1-.81a7.41 7.41 0 0 1 2.44.12 21.85 21.85 0 0 0 4.19.32 1.92 1.92 0 0 0 1.88-1.4c2.21-4.89 4.57-9.67 6.13-15a22.53 22.53 0 0 1 .81-2.4c2-4.84 2.92-10.23 3.94-15.56.66-3.51.15-7-.11-10.47-.06-.87-.21-1.74-.22-2.61 0-4.09-1.49-7.49-2.77-11-.32-.87-.9-.91-1.49-1a39 39 0 0 0 -6.11-.32 4.09 4.09 0 0 1 -.7 0c-.49-.07-1.24.15-1.2-.85s.76-.81 1.27-.83c1-.05 2-.08 3-.05 6.88.2 13.77.07 20.63.72 11.35 1.06 22.7 1.19 34.07 1.35.81 0 1.63.15 2.44.21 1.17.08 1.43-.19 1.56-1.83q.24-3.21.39-6.44c.15-3.27.26-6.54.39-9.8a13.41 13.41 0 0 1 .08-1.43c.15-1 .54-1.81 1.38-1.81s1.2.71 1.32 1.63a47 47 0 0 1 .39 4.75 61.93 61.93 0 0 0 .85 8.53c.22 1.46.44 3 1.7 3.61a2.93 2.93 0 0 1 1 1.58 2.92 2.92 0 0 0 2.85 2.24c2.84.34 5.68.77 8.53 1s5.79.82 8.7 1.16c3.54.41 7.07.91 10.61 1.31a90.55 90.55 0 0 1 16.07 3.27 7.13 7.13 0 0 1 1 .36c.39.19.85.41.79 1.1s-.57.72-1 .68a7.4 7.4 0 0 1 -1.2-.27l-6-1.57c-.05.9.43 1.06.69 1.42a23.5 23.5 0 0 1 3.57 7.28 71.41 71.41 0 0 1 3.49 17.23 36.47 36.47 0 0 0 .85 5.62 37.84 37.84 0 0 1 -.74 18.29 9 9 0 0 0 -.24.89c-.2 1.51.23 2.23 1.38 2.23 2.28 0 4.55-.06 6.83-.07a2.36 2.36 0 0 1 1.54.31.89.89 0 0 1 .41.71.74.74 0 0 1 -.5.84 2.83 2.83 0 0 1 -1 .18c-5-.25-10 .59-15 .45-2.33-.07-4.65-.41-7-.29-.41 0-.82 0-1.22 0-.62.08-1.46-.41-1.81.36s.38 1.56.72 2.24q3 6.15 6.15 12.23c4.27 8.38 8.55 16.76 13.28 24.68 3.17 5.32 6.38 10.59 9.57 15.89.18.28.37.55.61.89a4.77 4.77 0 0 0 -.06-2.28c-.79-5-.51-10-1.07-15a116.63 116.63 0 0 0 -3.82-18.89 19.63 19.63 0 0 0 -1.29-3.39 82.59 82.59 0 0 1 -4.42-12.48c-.24-.83-.83-2.07 0-2.54s1 1 1.26 1.78a119.53 119.53 0 0 0 5 13.68c1.72 3.86 2.4 8.3 3.31 12.59a89.31 89.31 0 0 1 1.93 17c.08 4 .64 7.92 1 11.88a4.42 4.42 0 0 0 .86 2.05c2.75 4.35 5.29 8.93 7.8 13.54.65 1.18 1.29 2.19 2.51 2.25.63 0 1 .68.35 1.41s-.23 1.11 0 1.6c1 1.84 2.06 3.67 3.1 5.5q12.36 21.72 24.73 43.46c2.86 5 5.34 10.48 8.36 15.36 3.77 6.08 7.37 12.38 11.41 18.13 2.1 3 4.48 5.6 6.77 8.32 2.82 3.34 5.67 6.64 8.33 10.22s5.6 7 8.46 10.39a73 73 0 0 1 5.6 7.57 160.53 160.53 0 0 0 10.34 14.29c2.76 3.44 5.32 7.15 8.12 10.54s5.88 6.8 8.87 10.11a155.83 155.83 0 0 1 10 13.09c1.19 1.64 2.4 3.26 3.54 5 .73 1.09 1.44 1.39 2.46.75 3.49-2.19 7-4.32 10.52-6.47.8-.48 1.59-1 2.41-1.4a1.09 1.09 0 0 1 1.6.45 2.36 2.36 0 0 1 -.14 2.22 22.73 22.73 0 0 1 -5 7 20.09 20.09 0 0 0 -4.11 5.45 42.85 42.85 0 0 1 -4.93 7.08c-2.86 3.65-5.81 7.14-8.7 10.74-.9 1.13-1.77 2.32-2.74 3.34-6 6.28-11.66 13-18.06 18.49-3.43 2.92-6.28 6.87-9.32 10.47-4 4.74-8.11 9.37-12.36 13.73-.8.82-1.49 1.55-1 3.11a2.4 2.4 0 0 1 -.05 1.4c-.34 1.22-1.16 1.68-1.74.71-1-1.63-2.09-1.61-3.42-1.35a38.7 38.7 0 0 1 -9.6.58c-4.39-.22-8.72.65-13.08 1.05a90.67 90.67 0 0 1 -11.53.37c-1.49-.05-2.47.47-3.24 2.38-1.74 4.33-4.42 7.58-7.06 10.86-3.58 4.47-7.6 8.2-11.24 12.57s-7.36 8.35-10.8 12.91c-3 4-5.22 8.77-7.33 13.66a1.87 1.87 0 0 0 -.22 1.11 1.33 1.33 0 0 0 .26.3c.46.22 1.2-.47 1.39.47s-.65.87-1 1.28c-2.71 3-5.88 2.27-8.89 1.72-6.87-1.26-13.74-2.53-20.64-3.47-4.64-.63-9.29-1.05-13.93-1.63-4.41-.56-8.84-.64-13.27-.85-4.8-.22-9.53.71-14.26 1.64-5.72 1.14-11.44 1.87-17.23.86a17.39 17.39 0 0 0 -7.49.25 39.25 39.25 0 0 1 -7 .9c-4.54.36-9 1.19-13.57 1.73a57.56 57.56 0 0 1 -11.88.17 85.65 85.65 0 0 0 -8.91-.29 35.64 35.64 0 0 1 -7.48-.83c-4.44-.86-8.88-1.72-13.33-2.39-3.15-.48-6.29.17-9.42.56-3.77.48-7.46 1.77-11.28 1.77a46.45 46.45 0 0 1 -12-1.76 76.85 76.85 0 0 0 -10.59-1.64c-2-.23-3.95-.36-5.93-.52a27.42 27.42 0 0 0 -12.78 2.05c-3.35 1.37-6.67 1.16-10.05.66a77 77 0 0 0 -9.58-.88 132.19 132.19 0 0 1 -15.77-1.58 47.86 47.86 0 0 0 -7.15-.72 80.55 80.55 0 0 1 -14.85-1.73c-1.38-.24-2.77-.47-4.16-.69-.46-.08-.93-.09-1.39-.21-1.21-.3-2.5-.49-2.85-2.56a6 6 0 0 1 2-5.2 38.76 38.76 0 0 1 6.83-4.26c.39-.17.76-.36 1.14-.54 0-.87-.5-.93-.85-1.07a19.05 19.05 0 0 1 -7.43-5.68 10.15 10.15 0 0 0 -6.89-3.57c-3.54-.53-7.08-.82-10.62-1.24a28.34 28.34 0 0 0 -7.84.61 5.9 5.9 0 0 1 -2.61 0 3.58 3.58 0 0 1 -2.31-2c-1.74-3.5-3.56-6.93-5.15-10.55a16.82 16.82 0 0 1 -.85-8.17c.16-1.77.08-2.89-1.25-3.84-1.5-1.07-1.33-3.51.22-4.81a8.69 8.69 0 0 1 4.33-1.76c1.27-.21 2.54-.35 3.81-.63-4.57 0-9-1.37-13.6-1.79-4-.37-8-.6-12-1.79-2.32-.7-4.69-1.15-7-1.89a6.14 6.14 0 0 1 -2-.86 2.44 2.44 0 0 1 -.23-3.69 2.67 2.67 0 0 1 2.13-.92c1.11 0 2.21.09 3.32.1 1.66 0 1.93-.16 2.42-2.29.75-3.19 1.52-6.38 2.09-9.64 1.83-10.4 3.57-20.83 5.74-31.11 1.39-6.6 3.16-13.05 4.44-19.68 2.53-13.05 5.77-25.8 8.63-38.71 2.15-9.71 3.85-19.57 5.26-29.54 1.59-11.21 3.79-22.24 5.5-33.41 1.54-10 3.57-19.84 5.36-29.76 3.69-20.48 8.53-40.49 12.84-60.72 2.32-10.89 5-21.64 7.42-32.47 1.33-5.86 2.6-11.76 4-17.62a6 6 0 0 0 -.41-4.71 15.11 15.11 0 0 1 -1-2.77 1.89 1.89 0 0 1 .28-1.95 1 1 0 0 1 1.49-.07 3.8 3.8 0 0 1 1 1.29c3.58 6.51 7.54 12.58 11.36 18.81 3 5 6.15 9.81 9.48 14.41q6.57 9.11 12.74 18.76a146.36 146.36 0 0 0 8.84 11.91zm83.54 255.3a1.66 1.66 0 0 1 .5 2c-.42 1.32-.8 2.66-1.25 4a102.4 102.4 0 0 1 -7.39 17.34 3.73 3.73 0 0 0 -.78 2.34l.92.12c4 .38 7.92-.31 11.88-.42 1.07 0 1.11-.21 1-1.79l-.09-1.43c-.34-5.17 1.25-8.95 4.43-11.59a11.58 11.58 0 0 1 1.69-1.26c2.59-1.44 5.2-2.95 8-3.39a108.13 108.13 0 0 1 12.88-1.5c5.35-.2 10.72-.26 16.08-.14 4.13.09 8.28.38 12.39-.54a18.09 18.09 0 0 1 5.23-.34 9.48 9.48 0 0 1 7.29 4 24.38 24.38 0 0 1 3.88 8.67c.86 3.25 1.51 3.79 3.85 3.23.91-.22 1.11-.77 1.05-1.94-.38-8.23 0-16.44.31-24.65.09-2.63.39-5.24.6-7.86a7.46 7.46 0 0 1 .1-.95c.09-.45.19-1 .59-1s.49.61.49 1.08c0 1 0 2.08-.1 3.11-.71 8.9-.92 17.83-.91 26.77 0 1.27.38 5 .84 5.17a2.78 2.78 0 0 0 2.6-.17c.67-.43 1.56-2.25 1.33-2.87a12 12 0 0 1 -.25-5.4c.23-2.87.28-5.74.26-8.61a88 88 0 0 1 .54-9.06c.31-3.32.72-6.63 1.08-9.94.18-1.68 0-2-1.26-2-1.1 0-10.4.95-13.94 1.32-5 .53-10 1-15 1.72-7.29 1.09-14.54 2.75-21.77 4.47-5.91 1.4-11.71 3.6-17.66 4.81-5.25 1.07-10.35 3.11-15.53 4.66a8.53 8.53 0 0 0 -3.89 2.06 59 59 0 0 0 -8.86 6.2 66.28 66.28 0 0 1 -6.39 4.94c-4.16 2.52-7.43 6.52-10.47 11-.3.43-.76.79-.66 1.6a41.76 41.76 0 0 0 6.24.92c2.67.34 5.35.46 8 .7a2 2 0 0 0 2.11-1.26 96.31 96.31 0 0 0 6.13-13.09q1.99-5.52 3.91-11.03zm100.76-349.49a2.21 2.21 0 0 0 .24 1.48c2.39 5.58 4.77 11.17 7.17 16.73 1.81 4.2 3.85 8.23 5.43 12.58 3.38 9.29 7.13 18.32 10.78 27.4 5.46 13.57 10.69 27.31 16.31 40.75 1.19 2.84 2.27 5.76 3.28 8.73 3.35 9.84 6.52 19.79 9.69 29.75 1.58 5 3.47 9.78 4.83 14.88 2.59 9.75 5.1 19.54 7.63 29.33a26.74 26.74 0 0 1 .64 3.23 157.85 157.85 0 0 0 3.32 15.65 53.59 53.59 0 0 1 1.4 7.64c.16 1.58.4 3.15.62 4.71q1.39 9.53 2.78 19c.42 2.9.48 5.91 1.24 8.68.95 3.46 1.63 7 2.26 10.57.47 2.71.85 5.46 1.23 8.2.09.58.33 1.44-.31 1.63s-.72-.69-.85-1.27c-.26-1.14-.49-2.3-.66-3.48a120.54 120.54 0 0 0 -2.86-14.8 31.5 31.5 0 0 1 -.8-4.41q-.75-6.5-1.76-12.94c-.8-5-1.56-10-2.18-15a66.25 66.25 0 0 0 -1.43-8.12c-1.07-4.3-2.05-8.67-2.82-13.08a82.64 82.64 0 0 0 -2.23-10.07c-.36-1.17-.63-2.4-.9-3.62-1.74-7.71-3.77-15.29-6-22.76-2-6.73-4.32-13.27-6.43-19.93-3.13-9.81-6.13-19.7-9.79-29.16s-7.46-18.8-11.22-28.17c-5.37-13.37-10.76-26.71-15.94-40.2-.64-1.69-1.43-2.23-2.76-2.16-3 .15-5.95.14-8.92.14h-17c-.49 0-1.2-.36-1.38.51a1.72 1.72 0 0 0 .85 1.65 4.93 4.93 0 0 1 1.42 2.37c.54 1.41 1 2.9 1.64 4.23 3.57 7.49 6.63 15.4 10 23.09 6.09 14.09 12.42 28 19.18 41.47 4.41 8.83 8.61 17.86 12.94 26.76 6.19 12.7 13.23 24.54 20.06 36.57 2.82 5 5.77 9.83 8.67 14.73 1.13 1.89 2.29 3.75 3.58 5.87.28-1.24.44-2.15.69-3 .19-.7.31-1.82 1-1.51s.36 1.22.27 1.9a16.06 16.06 0 0 1 -.34 1.86 6.6 6.6 0 0 0 .63 5.17 13.2 13.2 0 0 1 .75 1.61 1.06 1.06 0 0 1 0 1.1c-.34.41-.65.14-.92-.19a2.44 2.44 0 0 1 -.35-.53c-.5-1.07-1-1.92-1.73-.27a.45.45 0 0 1 -.61.29.91.91 0 0 1 -.36-1 5.53 5.53 0 0 1 .21-1.16 3.86 3.86 0 0 0 -.5-3.51q-1.8-2.92-3.53-5.94c-4.13-7.23-8.34-14.38-12.54-21.53q-8.4-14.3-16-29.35c-4.14-8.21-8-16.65-12.06-25-2.48-5.13-5-10.23-7.48-15.34-.93-1.89-1.67-4-2.81-5.81a2.45 2.45 0 0 0 -.05.58c1.42 4.9 2.79 9.82 4.57 14.52a128 128 0 0 1 5.29 18c1.14 5.2 2.23 10.42 3.4 15.61 2.08 9.23 4.29 18.41 5.69 27.9.26 1.72.58 3.43 1 5.1 2 8.78 4 17.54 5.39 26.53.25 1.55.64 3.07 1 4.58a98.74 98.74 0 0 1 2.53 13.4 53.45 53.45 0 0 0 2.23 10.71 62.71 62.71 0 0 1 3.2 13.4c.61 6.18 1.53 12.28 2.67 18.3 1.34 7 2.12 14.24 3 21.39.54 4.24.72 8.56 1.06 12.84.07.89 0 2 .89 2 1.62.12 3.35.31 4.74-1.06 2.13-2.09 4.32-4.07 6.31-6.42a139.11 139.11 0 0 1 13.46-14.12c2-1.78 3.94-3.7 5.9-5.57.48-.45 1.16-.88 1.32-1.51.48-1.95 1.55-1.94 2.67-1.82 3.72.37 7.47.07 11.18.49 4.09.45 8.19.95 12.27 1.74 5 1 9.9 2.1 14.87 3 3.46.66 6.94 1 10.36 2.1q9.88 3.2 19.64 7c3.2 1.23 6.49 2 9.6 3.65 4.91 2.55 9.93 4.61 14.9 6.92a2.47 2.47 0 0 0 2.83-.41c1-.78 1-.89.19-2-2.74-3.81-5.53-7.55-8.25-11.39a76.47 76.47 0 0 0 -7-8.37c-2.21-2.34-4.32-4.86-6.43-7.38-3-3.63-5.79-7.65-8.79-11.32a125.76 125.76 0 0 1 -9.59-13.25 86.38 86.38 0 0 0 -7.61-10.22c-2.12-2.49-4.23-5-6.25-7.65-2.92-3.8-5.92-7.46-9-11a88.9 88.9 0 0 1 -8.47-10.71c-5.81-9.27-11.61-18.52-16.77-28.54-4.86-9.46-10.39-18.24-15.48-27.5s-10.62-18.42-15.72-27.85c-3.79-7-7.79-13.73-11.87-20.4q-5.55-9.09-11-18.31c-4.58-7.78-8.7-16-12.88-24.19-4.75-9.29-9.31-18.74-13.8-28.27-2.7-5.78-5.54-11.44-8.47-17.45zm-104 221.21a4.79 4.79 0 0 0 .43 2.39 67 67 0 0 1 1.62 7.32c.76 5.18.9 10.46 1.52 15.65.81 6.7 1.43 13.43 1.81 20.19.66 11.73-.57 23.24-2.4 34.68-.89 5.55-2 11-3.36 16.35a189.93 189.93 0 0 1 -5.63 19.84c-1.33 3.64-2.69 7.25-4.13 10.81a38.19 38.19 0 0 1 -4.8 9.33 11.44 11.44 0 0 0 -2 4.15c.18 0 .3.05.39 0 4.12-3 8.12-6.26 12.17-9.42 3.84-3 7.7-6 12.1-7.34 6-1.79 11.89-4 17.95-5.17a90.8 90.8 0 0 0 10.79-3c5.62-1.88 11.4-2.35 17.07-3.85a55.11 55.11 0 0 1 12.3-2c1.74-.05 3.48-.41 5.22-.62 5.74-.69 11.48-1.64 17.23-2a128.5 128.5 0 0 1 21.66.53c1.09.12 1.72-.28 2.32-1.47 1.57-3.08 3-6.3 4.81-9.12a3.21 3.21 0 0 0 .32-2.45 112 112 0 0 0 -2.39-12.49 53.69 53.69 0 0 1 -1.68-10.53c-.39-5.17-.14-10.37-.54-15.54-.5-6.5-.66-13.05-1.66-19.48a101.7 101.7 0 0 1 -1.11-11.86c-.36-9.1-1.24-18.11-2.2-27.11-.27-2.51-.51-2.78-2.41-2.45a81.45 81.45 0 0 1 -11 1.14c-5.25.2-10.5.13-15.74.16-6.41 0-12.83-.16-19.24.1-9 .37-17.93.9-26.9.75-1.75 0-3.5.06-5.25.16-7.39.42-14.74 1.68-22.14 1.88-1.74.04-3.47.31-5.18.47zm-.51-6c.37.44.66.22.93.17 6.57-1.3 13.08-3.09 19.72-3.79a58.77 58.77 0 0 0 10.84-2.61 100.56 100.56 0 0 1 9.76-2.74c5-1 9.87-2.31 14.82-3.36 8.48-1.79 17-3.3 25.55-3.46a12.31 12.31 0 0 0 1.91-.24c4.75-.78 9.47-1.74 14.27-1.6a57.71 57.71 0 0 0 6.81-.47c1.11-.11 1.31-.47 1.24-2 0-.32-.07-.63-.11-.95-1.23-8.62-2.52-17.24-4.24-25.69a194.47 194.47 0 0 1 -3.72-25.3 48 48 0 0 0 -3.09-14.64 127 127 0 0 1 -5.36-15.84c-.26-1-.61-1.27-1.38-1.31-6.54-.32-13.05.43-19.58.65-7.16.25-14.32.94-21.48 1.16-6.64.21-13.29.06-19.94.05-.81 0-1.62-.14-2.44-.2-3.26-.24-6.51-.52-9.77-.69-1.62-.09-1.74.22-1.08 2.33a40.81 40.81 0 0 1 1.63 5c.65 3.8 1.73 7.47 2 11.38.25 3.28 1.25 6.33 1.56 9.57a106.91 106.91 0 0 1 -.14 18.16 152 152 0 0 1 -2.45 15.92 138.71 138.71 0 0 1 -8 28 23 23 0 0 1 -4 6.59 45.16 45.16 0 0 0 -4.31 5.87zm11.63-108.42c1-.28 1.59-.48 2.2-.64 3.5-.91 6.86-2.62 10.36-3.47 5.9-1.45 11.72-3.51 17.72-4.22 3.54-.42 7.06-1.17 10.59-1.67 3.25-.46 6.5-.77 9.75-1.17 5.68-.71 11.35-1.65 17.08-1.58a74.35 74.35 0 0 0 8-.15c5.59-.56 11.18-.3 16.78-.36a8.48 8.48 0 0 1 2.95.33 4.88 4.88 0 0 1 1 .45.79.79 0 0 1 .34.76c-.05.48-.29.66-.61.7a2.27 2.27 0 0 1 -.52 0c-4.72-.43-9.44-.15-14.16-.19-.41 0-.82 0-1.22 0-.87 0-1.3.51-1.3 1.72 0 1.59 0 3.19-.06 4.79-.05 2.78.24 5.58-.19 8.35a4.62 4.62 0 0 0 .26 1.86c1.66 6.6 4.36 12.52 6.57 18.76a1.34 1.34 0 0 0 .45.7c.91.53 1.22 1.69 1.53 2.79a31.55 31.55 0 0 0 2.88 6.82 33.31 33.31 0 0 1 2.75 6.65c1.51 5 3 10.06 4.45 15.1 1.73 5.94 3.44 11.87 6.29 17a34.85 34.85 0 0 1 2.39 5.84c1.09 3.36 2.28 6.66 3.21 10.1.64 2.32 1.71 3.27 3.41 3.22a25 25 0 0 1 6.94 1 15.58 15.58 0 0 0 1.9.38c.94.11 1.17-.25.91-1.53-1.27-6.31-2.26-12.71-3.57-19-1.16-5.61-2.69-11.07-3.51-16.8-.86-6.05-2.1-12-3.39-17.84-1.79-8.18-3.84-16.25-5.41-24.53-.3-1.62-.73-3.2-1.17-4.76-1.69-6-3.45-11.86-5.64-17.52a53.1 53.1 0 0 1 -1.64-5.28 107.52 107.52 0 0 0 -6.43-17.52c-3.23-6.93-6.28-14-9.31-21.1-1.18-2.75-2-5.79-3.37-8.38a25.81 25.81 0 0 1 -2.25-5.93 37.75 37.75 0 0 0 -2.64-7 2.38 2.38 0 0 0 -2.3-1.69c-9.43-.12-18.87.43-28.3-.81-3.35-.43-6.75-.27-10.12-.47-7.16-.44-14.33-.5-21.5-.7-.43 0-.93-.24-1.36.49.87 1.92 1.79 3.83 2.64 5.81a27.83 27.83 0 0 1 2 11c0 1.59-.13 3.19-.12 4.78a87.85 87.85 0 0 1 -2.29 19.78 183.88 183.88 0 0 1 -6.71 23.12 34.07 34.07 0 0 1 -3.86 7.92c-.74 1.19-1.42 2.47-2.4 4.09zm-30.59 12.62c.39 2.66.38 4.9.84 7.05a63.53 63.53 0 0 1 1.24 12.79c.06 5.43.36 10.84.42 16.27 0 1.92.07 3.82.22 5.74.3 3.89.2 7.81.31 11.72.07 2.76-.13 5.58-.26 8.36-.3 6.92.91 13.65 1.22 20.49.34 7.48 1.12 14.95 1.22 22.43.17 11.81.43 23.64-.29 35.43a156 156 0 0 1 -2.84 23.83c-1.33 6.12-2.76 12.2-4.2 18.28a35.69 35.69 0 0 1 -2.09 6.55c-1.61 3.55-2.67 7.45-4 11.19a46.7 46.7 0 0 1 -1.75 4.69 9 9 0 0 0 -.8 4.55c.15 2.55.28 5.1.25 7.66-.06 6.94-.46 13.87-.38 20.82 0 .56-.07 1.12-.11 1.67-.25 4.07-.1 8.15-.16 12.22a2 2 0 0 0 .51 1.67c1 .86 3.37.52 4.24-.61 1.18-1.54 2.31-3.17 3.57-4.59a22.13 22.13 0 0 0 4-6.62 22.13 22.13 0 0 1 3-5.54 18.5 18.5 0 0 0 2.74-5.22c.41-1.15.81-2.31 1.28-3.41a126.49 126.49 0 0 0 6.9-20.38c.2-.83.44-1.65.69-2.46 1.93-6.44 3.25-13.15 4.6-19.84.17-.84.19-1.74.36-2.58a1.56 1.56 0 0 0 -1-2.06 28.39 28.39 0 0 0 -11.68-2.58 10.28 10.28 0 0 0 -6.28 1.74 3.52 3.52 0 0 1 -1.82.79.51.51 0 0 1 -.54-.48 1.09 1.09 0 0 1 .1-.66 3.77 3.77 0 0 1 .81-.87 12.82 12.82 0 0 1 4.6-2.23 23.46 23.46 0 0 1 11.79.93c1 .32 2 .82 3 1.18 1.27.44 1.57.23 1.82-1.52a160.79 160.79 0 0 0 1.75-17.06 192.61 192.61 0 0 0 -1.25-26c-.51-5.14-1.14-10.26-1.49-15.43a59.8 59.8 0 0 0 -2.46-13.9c-.73-2.32-.75-2.41-2.58-2.33a55.41 55.41 0 0 1 -6.82-.1c-.59 0-1.55.08-1.51-1.06s1-.82 1.58-.81a29.17 29.17 0 0 0 4.36.23c2.56-.34 5.13-.2 7.69-.31 3.49-.16 7-.22 10.47-.67 6.21-.79 12.43-1.39 18.66-1.63 7.69-.3 15.38-.19 23.08-.48 8.73-.33 17.48-.63 26.22-.44h3.68c.35 0 .69 0 1-.05.78 0 1.18-.56 1.18-1.64 0-1.44 0-2.88 0-4.31 0-1.22-.47-1.74-1.33-1.63s-2 .3-3 .39c-2.07.17-2.8-.86-2.62-3.64 0-.39.09-.79.13-1.18.2-2 .07-2.28-1.41-2.18-2.44.15-4.89.4-7.32.67a141.85 141.85 0 0 0 -14.21 2.62c-8.23 1.78-16.46 3.54-24.6 6a55.18 55.18 0 0 1 -10.32 2.55c-5.95.57-11.78 2.08-17.66 3.22-1.73.34-3.43 1.06-5.2.57-.43-.12-1 .21-1.26-.52s.25-1.32.59-1.84.56-.81.86-1.19q2.79-3.63 5.59-7.24a17.65 17.65 0 0 0 2.47-4.61 139.13 139.13 0 0 0 5.62-17.5c3.28-13.61 5.49-27.39 4.82-41.83a23.53 23.53 0 0 0 -.55-4.23c-.17-.73-.45-1.25-1.07-1.38-2.94-.59-5.82-1.57-8.83-1.61-2.6 0-5.24-.18-7.7-1.75-1-.64-1.51-.3-1.92 1.09a37.61 37.61 0 0 0 -.92 3.87c-.6 3.17-.5 6.13 1.45 8.52a15.69 15.69 0 0 1 1.13 1.83c2.62 4.5 4.73 9.49 7.26 14.08 1.8 3.25 3.48 6.61 5.19 9.93a9.29 9.29 0 0 1 1 2.78c.08.49.09 1-.33 1.2s-.54-.17-.73-.48a6.54 6.54 0 0 1 -.28-.6c-3.68-8.17-8-15.73-12.05-23.53-3-5.71-6.18-11.22-9.06-17a157.44 157.44 0 0 0 -8.83-15.79zm-12.21-152.66a1.1 1.1 0 0 0 -.32.93c0 8.38-.57 16.74-.69 25.12q-.3 21 .53 41.89c.45 11.07.59 22.17.74 33.26.11 8.62.54 17.23.44 25.86a11.32 11.32 0 0 0 .06 1.43c.85 7.12.59 14.33.92 21.5.2 4.53.13 9.09.29 13.64.28 8.2.31 16.42.37 24.63.13 19.87.18 39.75-.49 59.62-.43 12.6.06 25.22-.4 37.84-.22 6-.09 12 0 18 .05 5-.54 9.86-.49 14.82 0 4.39.32 8.75.33 13.15 0 6.86 0 13.73.08 20.59a6.61 6.61 0 0 0 .2 2.46 5.41 5.41 0 0 0 .92-2c1.5-4.33 2.81-8.77 4.61-12.9a23.94 23.94 0 0 0 1.43-4.36c2.34-10.52 5.34-20.78 6.3-31.84a215.63 215.63 0 0 0 1.17-22.25c-.07-5.1-.16-10.22.22-15.32a30.62 30.62 0 0 0 0-3.83c-.32-6.92-.64-13.85-1-20.77-.21-4-.3-8-.81-11.91a95.29 95.29 0 0 1 -.85-13.09 84.1 84.1 0 0 1 .24-8.84 23.41 23.41 0 0 0 0-3.35c-.17-4.7-.4-9.4-.54-14.1-.18-6.22-.26-12.45-.44-18.67a82.92 82.92 0 0 0 -1.12-11.37 52.78 52.78 0 0 1 -1-8.48 10 10 0 0 0 -1.58-5.3c-2.39-4.32-4.76-8.68-7.12-13-.32-.61-.94-1.42-.32-2.05s1 .46 1.33 1q2.51 4.47 5 9c2.41 4.41 4.67 9 7.24 13.21a116.56 116.56 0 0 1 6.75 12.41c1 2.26 2.32 4.31 3.56 6.58a5.24 5.24 0 0 0 .42-.9 39.41 39.41 0 0 1 2-8.12 7 7 0 0 0 .23-1.62c.6-5 .1-10-.12-15.05-.33-7.48-.9-14.94-.91-22.45a115.22 115.22 0 0 0 -1.28-16.64c-1.64-11-3.36-22-4.9-33.1-1.33-9.49-2.7-19-4.7-28.24-2.1-9.8-4.43-19.51-6.7-29.24a31.15 31.15 0 0 0 -4.03-10.55c-1.26-1.87-2.46-3.84-3.73-5.71-.53-.75-1.06-1.62-1.84-1.89zm221.54 394.68c-.34-.59-.64-.48-.92-.45a84.29 84.29 0 0 1 -8.54.72 27.3 27.3 0 0 0 -3 .4 3.56 3.56 0 0 0 -2.72 1.85c-1 1.63-2.19 3.09-3.28 4.64a25.31 25.31 0 0 1 -10 8.47 149.1 149.1 0 0 1 -29.41 10.48c-3.33.81-6.71 1-10.07 1.55a151.57 151.57 0 0 1 -16.6 1.59q-10.31.41-20.61.91c-6.17.3-12.34.95-18.52.73-.76 0-1.52 0-2.27.08-4.49.24-9 .56-13.45.69-4 .11-8.05.05-12.07 0a96.89 96.89 0 0 1 -9.79-.09 89.12 89.12 0 0 0 -9.07-.84c-9.38-.07-18.76.05-28.15-.36-5-.21-10 0-15-.26-6.58-.3-13.15-1.07-19.73-1.17-9-.14-18.06-.14-27.08-1.12-2.73-.3-5.47-.29-8.2-.55-4.18-.4-8.37-.86-12.55-1.3-3.37-.35-6.75-.52-10.1-1.1-5.9-1-11.85-1.26-17.75-2.17-5.33-.82-10.68-1.35-16-2.14a204.66 204.66 0 0 1 -24.11-5.61 1.08 1.08 0 0 1 -.49-.21.93.93 0 0 1 -.27-.56.8.8 0 0 1 .28-.55 2.31 2.31 0 0 1 1.89-.06c1.31.39 2.6.92 3.92 1.22 6.27 1.41 12.49 3.17 18.83 4 6 .75 11.93 1.69 17.91 2.4 3.31.39 6.63.59 9.93 1.06 6.26.91 12.53 1.51 18.8 2.2 4.24.47 8.49.8 12.73 1.11 7.39.54 14.77 1.43 22.18 1.34 3.38 0 6.76-.06 10.14.11 6 .32 12 1 18 1.16 10 .32 20 .39 30.07.53 3.56.05 7.12 0 10.67 0 2.16 0 4.32 0 6.47.21a86.28 86.28 0 0 0 11.34.84c8.27-.32 16.55.05 24.82-.45 7.22-.43 14.45-.44 21.67-.91 6-.4 12-.81 18-.93a204.4 204.4 0 0 0 23-1.63 98 98 0 0 0 11.46-1.76 168 168 0 0 0 26.26-9.07 33.76 33.76 0 0 0 8.26-5.09 36.54 36.54 0 0 0 6.19-7.69.82.82 0 0 0 .14-.95 25.31 25.31 0 0 1 -3.87 4 42.22 42.22 0 0 1 -13.95 7.48c-6.48 1.95-12.93 4.16-19.53 5.4-6.23 1.17-12.45 2.44-18.76 2.68-2 .08-3.95.32-5.93.54-4.87.54-9.75 1.08-14.64 1.33-2.74.15-5.48.29-8.21.56-7.43.72-14.88 1.25-22.32 1.82-6.87.52-13.75.6-20.6 1.31-3.61.38-7.22-.16-10.83-.28-6.12-.2-12.23.5-18.36.47-11.19-.06-22.37-.24-33.56-.92-8-.49-16.08 0-24.12-.48-4.72-.27-9.43-.65-14.13-1.2-6.79-.79-13.59-1.46-20.4-1.81-3.32-.16-6.65-.05-10-.1a102.73 102.73 0 0 1 -12.71-1.15c-4.51-.64-9-1.41-13.54-2.09a101.51 101.51 0 0 1 -16.23-3.44c-6.1-2-12.3-2.77-18.49-3.76-4.28-.69-8.59-1-12.79-2.5a7.75 7.75 0 0 0 -3.12-.41c-1 .06-1.24.57-.83 1.83a14 14 0 0 0 .65 1.42c1.15 2.5 2.63 4.7 3.59 7.36s2.6 3.65 4.75 3.19a30 30 0 0 1 6.27-.57 99.11 99.11 0 0 1 12.38 1.16 11.86 11.86 0 0 1 8.08 4.57 15.32 15.32 0 0 0 6.09 4.57 8.67 8.67 0 0 1 3.16 2 2.12 2.12 0 0 0 1.65.55 9.71 9.71 0 0 1 4 .55 11.24 11.24 0 0 0 5 1.12h8.22c1.69 0 3.38 0 5.07.13a86.63 86.63 0 0 0 9.24.69 82.25 82.25 0 0 1 15 1 45.51 45.51 0 0 0 6.42.91c5.65.23 11.31.1 17 .44 4.48.28 9 .39 13.45.75 3.72.3 7.43.88 11.16.87 6.36 0 12.71.05 19.06-.41 5.82-.43 11.65-.25 17.48-.51a222.61 222.61 0 0 1 22.37.23c7.57.42 15.15.62 22.72 1 4.13.22 8.27.23 12.4.43 7.51.37 15 .74 22.55.62 3.68 0 7.35 0 11-.15 5.88-.25 11.74-1.08 17.61-1.64a69.55 69.55 0 0 0 21.88-6 62.88 62.88 0 0 1 6-2.62q6-2 12-4a29 29 0 0 0 12.74-8.58c3.84-4.41 7.85-8.54 11.36-13.47a29.51 29.51 0 0 0 3.36-6.16zm-95.19 7.69.18.54c2.71-.53 5.44-.57 8.15-1.07 5-.92 10.07-1.45 15.07-2.67 4.24-1 8.51-1.92 12.8-2.54 6-.88 12-1.83 18-3 4.26-.83 8.54-1.44 12.68-3.31a108.69 108.69 0 0 0 13.16-6.43c4.2-2.59 8.46-5 12.8-7.11a43.43 43.43 0 0 0 5.49-3.1c2.45-1.67 4.88-3.45 7.4-4.88 6.95-3.94 13.79-8.21 20.55-12.72 3.45-2.31 6.81-4.89 10.36-6.94 2.1-1.21 4.17-2.49 6.23-3.8.56-.35 1.46-.46 1.47-1.45s-1-1.24-1.55-1.63a37.4 37.4 0 0 0 -6.84-3.61 110.47 110.47 0 0 0 -28.15-7c-6.21-.7-12.45-1-18.67-1.5a67.91 67.91 0 0 1 -11.3-1.54 11.43 11.43 0 0 0 -2.77-.39 55.74 55.74 0 0 1 -8.72-.85c-1.38-.23-2.78-.35-4.17-.5a2.1 2.1 0 0 0 -1.94.84c-3 3.57-6.09 6.94-9.11 10.46-3.74 4.35-6.88 9.55-10.66 13.83a1.09 1.09 0 0 0 -.25 1.06c.92.66 2.06.4 3.11.64 7.93 1.83 15.81 4.05 23.73 5.89 6.79 1.59 13.46 3.91 19.63 8.34.48.34.95.88 1.76.58-.45-.88-.79-1.6-1.17-2.29-1.41-2.54-2.76-5.15-4.05-7.81q-4.78-9.87-9.63-19.71c-1.13-2.32-2.44-4.48-3.44-6.92a13.65 13.65 0 0 1 -.58-1.74.85.85 0 0 1 .19-.85c.29-.26.56-.12.76.21s.41.77.61 1.17c.75 1.52 1.49 3.05 2.24 4.57q4.47 9 9 18c.32.63.51 1.46 1.25 1.76a13.49 13.49 0 0 0 1.06-4.45c.49-5 1.16-9.94.87-15a21 21 0 0 1 .06-2.38c0-.4.2-.79.54-.8s.51.36.59.75a13.28 13.28 0 0 1 .26 1.88 71.85 71.85 0 0 1 -2 20.75 4.93 4.93 0 0 0 .4 4c1.62 2.93 3.19 5.91 4.78 8.87.61 1.16 1.23 2.33 1.82 3.51.19.38.43.85.11 1.29s-.68.17-.92-.17a2 2 0 0 0 -2.57-.82 4.3 4.3 0 0 1 -1.39 0c-4.79 0-9.52-1.07-14.27-1.65-6.62-.8-13.25-1.31-19.85-2.23-2.79-.39-5.59-.38-8.38-.62-4.54-.39-9-1.7-13.55-2a2.12 2.12 0 0 0 -2 1c-1.11 1.53-2.25 3-3.38 4.51-3.12 4.09-6.52 7.73-9.76 11.62q-5.38 6.48-10.75 13c-1.76 2.08-3.53 4.25-5.29 6.41zm63.83-8.62a55.83 55.83 0 0 1 -8.19 1.79c-3.81.7-7.62 1.52-11.44 2.08-5.5.8-11 1.82-16.47 2.78-4.5.78-8.94 2.13-13.48 2.7-5.39.67-10.79 1.32-16.16 2.31-1.59.29-3.24-.51-4.78.65-.38.29-.62-.34-.53-.88.16-1-.12-1.33-.8-1.32-2.33 0-4.65-.07-6.92.94a35.51 35.51 0 0 1 -10 2.52c-5.1.68-10.2 1.47-15.3 2.17-6.26.86-12.53 1.7-18.83 1.46-3.2-.13-6.41-.21-9.61-.32-2.85-.1-5.71-.06-8.56-.39a42.72 42.72 0 0 0 -9.78-.41 74.86 74.86 0 0 1 -17.52-.1c-.17 0-.34 0-.52 0-4-.21-7.89-.93-11.84-1.26-2.89-.24-5.8-.87-8.67.27a.57.57 0 0 1 -.51 0c-1.26-1-2.63-.53-3.95-.61-5.23-.33-10.46-.84-15.71-.74-.38 0-.94.27-1-.46-.1-.9.56-.86 1-1a3.12 3.12 0 0 1 1.21-.21 35.26 35.26 0 0 1 4.36.2 45.41 45.41 0 0 0 5.94.26c1.28 0 1.45-.28 1.49-2.16 0-1.51 0-3 0-4.55 0-2.49 0-2.53-1.8-2.79-4-.61-8-.93-12-1.78a42.37 42.37 0 0 0 -6.6-1c-4.6-.23-9.2-.48-13.79-.93q-7.57-.75-15.18-1.18c-2.27-.13-4.55-.17-6.81-.47-6.44-.83-12.9-1.2-19.34-1.87-2.91-.31-5.83-.25-8.73-.54a170.66 170.66 0 0 0 -18.33-1.26c-3.26 0-6.53 0-9.79 0h-4.7c4.21.51 8.43.95 12.65 1.17 6.41.33 12.77 1.36 19.15 2.19a118 118 0 0 0 18.84 1.32 65.06 65.06 0 0 1 15.32 1.69c7.53 1.57 14.89 4.55 22.6 4.76a126.72 126.72 0 0 0 16.07-.09c2.73-.28 5.47-.41 8.2-.58a3.87 3.87 0 0 1 1.22.13 1.12 1.12 0 0 1 .85 1.27 1 1 0 0 1 -.85 1 9.87 9.87 0 0 1 -1.22.09c-1.05 0-2.1 0-3.14.11a130.8 130.8 0 0 1 -17.8.91 71 71 0 0 1 -19.92-3.26 70.26 70.26 0 0 0 -17.47-3.15c-2.51-.13-5-.16-7.51-.3-7.24-.41-14.39-1.8-21.58-2.78-5-.68-10-1.5-15-1.73-2.15-.09-4.3-.38-6.45-.6-3.71-.39-7.43-.86-11.15-.25a9.84 9.84 0 0 0 -3.54 1.29 1.46 1.46 0 0 0 -.81 1.4 1.56 1.56 0 0 0 .88 1.36 5.55 5.55 0 0 0 2.39.62 58.71 58.71 0 0 1 9.88 1.71c7.24 2.17 14.6 3.23 21.95 4.4 7.06 1.12 14.14 2 21.2 3.12 6.66 1 13.33 1.81 20 2.67 5.22.68 10.43 1.43 15.65 2.16s10.19 1.49 15.29 2.2c4.41.62 8.8 1.42 13.23 1.65 2.5.13 5 .53 7.49.06.36-.07.75-.19.86.44a1.1 1.1 0 0 1 -.52 1.12 3.86 3.86 0 0 1 -2.73.55c-5.29-.45-10.58-.85-15.85-1.69-6.13-1-12.28-1.77-18.43-2.62-6.43-.9-12.85-1.92-19.3-2.63s-12.99-1.76-19.59-2.64q-11.91-1.67-23.79-3.72a100.31 100.31 0 0 1 -14.84-3.22 49.2 49.2 0 0 0 -9.86-1.83c-1.2-.15-1.42.2-1.52 2.11-.16 3.05 0 3.67 1.22 3.67a22 22 0 0 1 6.55 1.35 5.06 5.06 0 0 0 .86.18l15.8 2.44a56.65 56.65 0 0 1 10.18 2.26 87.74 87.74 0 0 0 12.75 2.94c4.56.85 9.14 1.53 13.72 2.2a114.15 114.15 0 0 0 15.5 1.64c5.88.07 11.77-.07 17.65.55 4 .41 8 .51 12 1.11a151 151 0 0 0 19.18 1.62c11.65.29 23.31.39 35 .95 7.86.37 15.74.18 23.61.16q3.75 0 7.51-.31a48.53 48.53 0 0 1 9.79 0 38.51 38.51 0 0 0 8 .12c4.3-.38 8.61-.7 12.92-.82 1.05 0 2.1 0 3.14-.11 7.1-.58 14.19-1.18 21.28-1.75 6-.48 12-.9 18-1.4 7.27-.62 14.54-1.24 21.8-2a125.61 125.61 0 0 0 23-4.61c2.45-.73 4.89-1.53 7.35-2.16 5.43-1.4 10.49-4.2 15.4-7.58a18.81 18.81 0 0 0 1.8-1.48 1.25 1.25 0 0 0 .61-1.2 6.88 6.88 0 0 0 -3.89.16 16.84 16.84 0 0 1 -5.2.76 4.78 4.78 0 0 1 -2.32-.86c-.82-.41-.94-.95-.42-2.14zm-60.28-222.37c.22 1.88.5 3.76.64 5.65a130.38 130.38 0 0 0 1.77 15.35c.75 3.85 1.63 7.67 2.31 11.54 1 5.74 1.88 11.53 2.85 17.28.61 3.58 1.12 7.19 1.53 10.8.64 5.57.79 11.23 1.5 16.83 1.3 10.13 2.24 20.35 2.63 30.65.13 3.26.37 6.54.82 9.74a260.76 260.76 0 0 1 2.24 31.65 56.15 56.15 0 0 0 1.16 12.54 139 139 0 0 1 3.07 15.19c.19 1.44.78 2 1.74 2.21 2 .35 3.93.72 5.89 1.08a1.75 1.75 0 0 0 1.85-1c2.61-4.08 5.27-8.11 7.91-12.15.74-1.12 1.44-2.31 2.26-3.33 3.13-3.94 6.1-8.13 9.39-11.83a3.71 3.71 0 0 0 .93-3.1c-.35-3.4-.38-6.88-.86-10.22-1-6.81-1.59-13.71-2.94-20.43a138.4 138.4 0 0 1 -2.42-15.69 74.36 74.36 0 0 0 -3.64-16.67 49 49 0 0 1 -2.09-9.59 98.61 98.61 0 0 0 -1.64-10c-.31-1.42-.87-2.1-2-2.17a30.2 30.2 0 0 1 -3.46-.68 24.26 24.26 0 0 0 -5.73-.73c-1.54.06-1.59.11-1 2 .8 2.4 1.62 4.78 2.45 7.16 3 8.5 6 17 8.43 25.78a36.44 36.44 0 0 0 2.47 6.59c1.52 3 2.78 6.29 4.42 9.2a8.11 8.11 0 0 1 .53 1.24 1.08 1.08 0 0 1 -.09 1.09c-.28.3-.57.19-.79-.11a15.42 15.42 0 0 1 -1-1.62c-2-3.72-3.69-7.75-5.48-11.67a27.61 27.61 0 0 1 -1.49-4.33c-2-7.5-4.56-14.7-7.09-21.88-2.74-7.77-5.34-15.62-7.86-23.52a75.92 75.92 0 0 0 -5-12.59 33.92 33.92 0 0 1 -2.53-6.28q-3-10.08-5.94-20.21a47 47 0 0 0 -3.13-8.8c-.83-1.67-1.74-3.24-2.61-4.97zm-119.38-155.92c.15.7.28 1.29.41 1.88 1.38 6.1 2.77 12.2 4.24 18.25a347.28 347.28 0 0 1 6.63 35.22c1.6 11.61 3.36 23.17 5.08 34.75a150.52 150.52 0 0 1 1.79 23.76c0 4.23.34 8.45.5 12.67.25 6.61.81 13.2.55 19.84-.09 2.21.05 2.31 1.52 3.21 2.08 1.27 4.31 1.32 6.51 1.42a30.18 30.18 0 0 1 7.25 1.14c.34.1.68.21 1 .28.64.11 1-.25 1-1.18 0-.4-.05-.8-.08-1.19-.35-4-1.43-7.73-2-11.64a7.3 7.3 0 0 0 -.46-1.55 30.36 30.36 0 0 1 -1.55-4.81c-.29-1.35-.86-1.92-1.9-1.93-2.45 0-4.88-.45-7.33-.4-.66 0-1.85.5-1.78-1 .06-1.25 1.21-1 1.91-.9 2.1.24 4.19.25 6.29.34 1 0 2-.44 2.94-.32 4.82.59 9.63 1.06 14.46 1.22 5.42.18 10.84.08 16.26.07 3.09 0 6.19.09 9.27-.16 7.5-.61 15-.81 22.52-1.3 2.85-.18 5.7-.3 8.56-.47 1.33-.08 1.54-.34 1.55-2.11 0-3 0-6.07 0-9.1 0-1.79-.22-2-1.56-2.08-.29 0-.58 0-.87 0a103.28 103.28 0 0 0 -18.14 1.35c-5.26.77-10.57 1-15.83 2-5.64 1.09-11.36 1.5-16.93 3.39-3 1-6.12 1.25-9.08 2.5s-6.22 2.14-9.34 3.14a12.4 12.4 0 0 1 -1.89.46 1.16 1.16 0 0 1 -1.38-.75 1.92 1.92 0 0 1 .35-1.73c1-1.74 2-3.52 3.12-5.17a32.69 32.69 0 0 0 3.17-6.28c1.76-4.61 3.15-9.44 4.57-14.25a126.15 126.15 0 0 0 4.52-23.06 3.52 3.52 0 0 0 -.54-2.62 61.47 61.47 0 0 0 -3.77-5 95.23 95.23 0 0 1 -8.06-10.28c-1.55-2.28-3-4.65-4.68-6.79-7.88-10.26-14-22.39-20-34.68-2.65-5.46-5.6-10.61-8.39-15.92-.03-.08-.17-.08-.41-.22zm54.93-14.08h-1.82c-1.68 0-1.8.28-1 2.27a6.65 6.65 0 0 0 .27.61 17.53 17.53 0 0 1 1.62 6c.31 3.25.64 6.49.87 9.74a29.73 29.73 0 0 1 -.17 6c-1.22 9.12-4.22 17.35-7.22 25.52-1 2.69-2.27 5.2-3.42 7.8-.17.39-.47.81-.2 1.29s.62.37 1 .36a1.47 1.47 0 0 0 .94-.58 11.91 11.91 0 0 1 2.77-2c5-3 10.38-4.81 15.69-6.6a87.14 87.14 0 0 1 17.61-3.6c3.77-.45 7.55-.72 11.32-1.11a92.73 92.73 0 0 1 15.54-.18 101.39 101.39 0 0 1 19.78 3 3.65 3.65 0 0 0 .87.12c.79 0 1-.35.69-1.29a10.78 10.78 0 0 0 -.43-1c-2.1-4.88-4.23-9.74-6.3-14.65-4-9.47-9-18.08-12.59-27.89a1.83 1.83 0 0 0 -1.86-1.39c-6.69-.29-13.39-.66-20.08-.89-4.66-.16-9.34.16-14-.28-6.63-.65-13.21-.7-19.88-1.25zm-210.71 376.39c2.09.1 2.08 0 2.81-2.48a105.18 105.18 0 0 0 2.38-11c1.5-8.53 2.93-17.09 4.56-25.58 1.44-7.57 3.15-15.06 4.18-22.76 2.15-15.86 5.09-31.48 7.39-47.31 2.15-14.79 4.86-29.43 7.41-44.11 1.85-10.64 3.57-21.33 5.86-31.81 2.23-10.26 4.48-20.5 6.38-30.89.91-5 1.93-9.89 3.28-14.65 3.56-12.59 6.7-25.37 9.88-38.15 2.36-9.47 4.36-19 5.79-28.83a3.67 3.67 0 0 0 -.6-3c-1.34-1.77-2.64-3.61-4-5.41-.13-.17-.25-.34-.38-.5-.39-.49-.73-.49-.94.25-.14.52-.25 1.06-.37 1.59-.8 3.59-1.59 7.19-2.41 10.76-2.56 11.13-5.17 22.22-7.67 33.36-2.18 9.69-4.23 19.44-6.35 29.16-1.3 6-2.68 11.9-4 17.87-1.94 9.55-3.46 19.32-5.54 28.91-1.55 7.12-2.42 14.47-3.65 21.7-1.8 10.57-3.74 21.1-5.24 31.77-1.63 11.54-3.86 22.86-6.29 34.12-1.11 5.14-2.59 10.1-3.7 15.23-1.82 8.34-3.39 16.77-5.28 25.08-1.48 6.48-3.1 12.89-4.37 19.47-2.19 11.42-3.79 23.06-6.45 34.32-.38 1.6-.27 1.71.91 2.07 2.18.65 4.42.41 6.41.82zm412.14-39.23a5.09 5.09 0 0 0 -1.18-2.17c-1.36-2-2.75-3.91-4.13-5.86-4.16-5.92-8-12.27-12.31-18-3.14-4.15-6.55-7.94-9.23-12.72a2.6 2.6 0 0 0 -2-1.35c-6.3-1.28-12.65-1.45-19-1.85a4.66 4.66 0 0 0 -3.58 1.45c-8.68 7.81-16.84 16.58-25 25.42-.27.29-.67.54-.51 1.1s.57.48.92.52c1.5.21 3 .35 4.52.61 3.18.56 6.41.14 9.58 1a51.41 51.41 0 0 0 8.51 1.26c6.45.59 12.91.86 19.36 1.55a100.69 100.69 0 0 1 14 2.3 98.42 98.42 0 0 1 20.05 6.74zm-143.83-334c.31.83.49 1.42.74 1.93 1.62 3.22 3.29 6.4 4.89 9.64q8.06 16.38 16.07 32.81c.76 1.57 1.62 2.46 3 2.75a47.85 47.85 0 0 1 18.52 7.47c1.21.85 1.67.67 2.09-1.17a35.8 35.8 0 0 0 .53-15.76 40.34 40.34 0 0 1 -1-6.3 70.74 70.74 0 0 0 -3.26-16.57 20.52 20.52 0 0 0 -3.4-7.15 4 4 0 0 1 -.88-1.46 2 2 0 0 0 -2-1.78c-.7-.08-1.39-.24-2.08-.35-4.23-.67-8.48-1-12.7-1.62-5.9-.89-11.82-1.56-17.74-2.24-.83-.14-1.67-.62-2.78-.25zm186.17 316.88a3 3 0 0 0 -1.76-1.17c-3.55-1.55-7.12-3-10.6-4.85a41.85 41.85 0 0 0 -4.63-2.14c-6.18-2.31-12.36-4.65-18.57-6.78-4-1.36-7.86-3.06-11.92-3.67-6.49-1-12.92-2.42-19.38-3.64-.3-.06-.7-.37-.94.4a45.14 45.14 0 0 0 4.76 6.88c2.22 2.7 4.45 5.38 6.49 8.34 6.39 9.27 12.28 19.18 19.52 27.32.6.67.94.87 1.62.5 7-3.83 14.12-7.48 21.1-11.5 4.56-2.63 8.95-5.78 13.42-8.7a1.73 1.73 0 0 0 .89-.99zm10.8 2.75a34.83 34.83 0 0 0 -11.66 8.78 22.4 22.4 0 0 1 -1.84 1.81c-8.66 7.82-17.62 15-26.25 22.83-3.59 3.27-7.07 6.76-10.59 10.16-3 2.9-5.55 6.57-8.32 9.86a1.62 1.62 0 0 0 -.45 1.63c.7 2.55 1.65 4.93 2.56 7.35.27.72.7.77 1.16.32s1-1 1.55-1.56c3.92-4 7.65-8.36 11.37-12.7 3.41-4 6.63-8.27 10.47-11.55 6-5.12 11.26-11.58 16.87-17.41.37-.39.69-.86 1-1.29q6-7.44 12.07-14.87a12.74 12.74 0 0 0 2.04-3.36zm-261.37-263.57.08.52c3.55-.18 7.09.52 10.64.44 5.95-.14 11.87.88 17.81.64a5.18 5.18 0 0 1 .87.11c7.2 1.19 14.43.66 21.65.77.93 0 1.35-.53 1.49-1.79.41-3.46.91-6.9 1.32-10.37.23-2 .14-2.12-1.45-2.14-3.15 0-6.28.19-9.43.44q-8.37.66-16.69 2c-6.85 1.13-13.48 3.59-20.08 6.24-2.11.83-4.14 2.05-6.21 3.14zm-17.22 339.3c7.45.43 14.7-.35 21.95-1.17 3.07-.35 6.14-1 9.22-1.08 4.66-.18 9.31-.55 14-1a154.14 154.14 0 0 1 20.27-.57 9.93 9.93 0 0 0 1.22 0c.74 0 .89-.6.62-1.46a7.12 7.12 0 0 0 -.49-1.27c-1.76-3.07-3.93-5.23-6.9-5.33a31.54 31.54 0 0 0 -7.51.38 13 13 0 0 1 -4.17.46c-3.49-.41-7 .29-10.47-.23-2.66-.39-5.35.16-8 .29-3.55.16-7.1.17-10.65.57-4.37.5-8.72 1-12.81 3.36a3.24 3.24 0 0 0 -1.35 1c7.54 0 14.9-1.23 22.3-1.17.58 0 1.16 0 1.74-.08 6-.44 12-.84 18-1.34 5.24-.44 10.49-.07 15.72-.8.57-.08 1.5-.37 1.53.87 0 1-.83.93-1.38 1-2.62.14-5.22.68-7.86.59a50.35 50.35 0 0 0 -7.16.12c-7.38.8-14.77 1.21-22.16 1.6-6.75.36-13.49 1.18-20.25 1.19a18.07 18.07 0 0 0 -2.25.41c-1.67.18-2.59 1.36-3.16 3.66zm-50.91-5.25 1.91.26c.49.06 1 .07 1.08-.79s.14-1.79-.61-2.27a3.11 3.11 0 0 0 -1.54-.33c-3.14-.15-6.29-.3-9.43-.42-8.45-.32-16.87-1.09-25.3-1.93-6.62-.67-13.25-1.09-19.88-1.46a161.09 161.09 0 0 1 -17.75-2.19 143.46 143.46 0 0 0 -22.12-2.08 112 112 0 0 1 -24.35-2.78c-2.81-.66-5.65-1.18-8.49 0a32 32 0 0 0 -4 1.79 4.71 4.71 0 0 1 -1.49.63c-.9.14-1.54-.47-1.75-1.46-.43-2.05-.43-2.07-1.91-2.08-4.48-.05-8.91-1.09-13.38-1.4a2.89 2.89 0 0 0 -2.06.2.74.74 0 0 0 -.34.75.87.87 0 0 0 .33.5 3.27 3.27 0 0 0 .66.3c3.7 1.48 7.56 1.88 11.29 3.15a4.61 4.61 0 0 0 1.05.08 140.53 140.53 0 0 1 14.26 1.76 26.8 26.8 0 0 0 4.34.6c5 .17 10 .69 15 .54 3-.1 5.95-.07 8.92 0 7.4.2 14.76 1.38 22.16 1.6 3.37.1 6.74.62 10.11 1 4.53.44 9 .92 13.59 1.3 3 .25 5.94.24 8.9.59 2.26.27 4.54.23 6.8.51a81.91 81.91 0 0 0 10.81.88 69.58 69.58 0 0 1 12 1.21c3.77.58 7.47 1.21 11.19 1.54zm222.09-24.46c-6.14-5.06-12.95-7.18-19.82-8.85-5.45-1.31-10.91-2.5-16.33-4a79.55 79.55 0 0 0 -10.35-2.22c-.74-.1-1.56-.37-2.18.44q-2.65 3.46-5.24 7c-.48.65-.26 1.2.38 1.28a23.52 23.52 0 0 1 2.79.26c6.32 1.58 12.75 1.44 19.12 2.24 3.54.44 7.08.67 10.62 1.11 7.01.89 14.01 1.83 21.01 2.74zm-89.24 27c1.9-3 3.71-5.68 5.4-8.51q6.44-10.75 12.06-22.31c.78-1.58.64-2-.75-2.17-1.92-.18-3.84-.26-5.76-.43-2.49-.22-5-.07-7.51-.13-1 0-1.54.52-1.68 1.87s-.29 2.68-.42 4a166.72 166.72 0 0 0 -1.19 17.62 59.24 59.24 0 0 1 -.3 6.92 7.05 7.05 0 0 0 .15 3.17zm9.69-334.12h8.21c1.34 0 2.68 0 4-.14 1-.08 1.13-.36.59-1.62-1.11-2.62-2.27-5.2-3.41-7.8a2.08 2.08 0 0 0 -1.55-1.35 142.14 142.14 0 0 0 -19.74-3.29c-1.12-.09-1.2 0-1.2 1.51a97.07 97.07 0 0 1 -.19 9.8c-.26 2.58-.07 2.85 1.92 2.86 3.8.07 7.59.06 11.37.06zm173.15 269.42a91.09 91.09 0 0 0 -15.21 7.65c-9.2 5.62-18.58 10.68-27.68 16.59-2.48 1.61-5 3.08-7.48 4.66a1.56 1.56 0 0 0 -.48 2.41c.48.75 1 .31 1.43 0 2.65-1.66 5.3-3.3 7.92-5 4-2.62 8.12-4.87 11.84-8.19.29-.26.66-.48 1-.06s.07 1-.19 1.44a7.36 7.36 0 0 1 -.64.81c-2.54 2.93-5.11 5.81-7.61 8.8a128.76 128.76 0 0 0 -8.63 11.86c-.43.65-1.22 1.54-.48 2.41s1.14-.4 1.58-.94c1.67-2 3.24-4.15 4.95-6.06a207.88 207.88 0 0 1 20.65-19.65c6.35-5.44 12.67-11.13 19.03-16.73zm-314.67-23.28c.29-.28.23-.7.23-1.09 0-8 .26-16.11.32-24.16.2-24.74.14-49.49.17-74.23 0-3 0-6.07 0-9.1 0-.46.09-1-.32-1.25s-.65.21-.92.5c-1.7 1.81-1.74 4.36-1.61 7a4.6 4.6 0 0 0 1.59 3.72 1.9 1.9 0 0 1 .21 3.06c-1.41 1.45-1.71 3.47-2.09 5.58-.53 2.94-.27 5.29 1.84 7 1.18.94 1.16 1.81.3 3.33-.21.38-.46.72-.69 1.08a11.55 11.55 0 0 0 -1.54 7.8 9.74 9.74 0 0 0 1.72 4.58c.92 1.34.87 1.89 0 3.3-.15.25-.32.47-.46.72-2.15 3.81-2.57 7.87-.12 11.74 1.31 2.08 1.27 3.29.11 5.59-.3.59-.63 1.14-1 1.7a6.92 6.92 0 0 0 -.83 4 14.06 14.06 0 0 0 1.62 5.72c.81 1.53.85 2-.07 3.37-1.53 2.27-1.76 4.91-1.67 7.79.06 2.07.54 3.65 1.89 4.79s1.52 2.25.53 4.12c-.54 1-1.17 2-1.62 3.11-1.48 3.8-.37 8.54 2.41 10.23zm233.26 82.54a95.15 95.15 0 0 0 15.51-.66 53.62 53.62 0 0 1 7.13-.7c2.62 0 5.24 0 7.86-.11 1.51-.06 3-.26 4.52-.46.89-.12 1-.46.57-1.55-.89-2.16-1.83-4.27-2.71-6.42-.45-1.08-1-1.38-1.88-1a8.94 8.94 0 0 1 -2.4.58c-6.79.71-13.56 1.62-20.3 3-2.07.41-4.14.88-6.21 1.33-.44.09-1.08 0-1 .95.21 1.72-.41 3.17-1.09 5.04zm88.74-71a1 1 0 0 0 .44.81c.32.31.86.51.64 1.21s-.79.48-1.23.32a8.63 8.63 0 0 1 -1.16-.53 1.35 1.35 0 0 0 -1.51.13c-1.87 1.31-3.73 2.62-5.63 3.85-3.58 2.32-7 5-10.76 6.92-10.91 5.63-21.71 11.62-32.32 18.23-2.8 1.74-5.66 3.35-7.78 6.61-.28.44-.6.79-.39 1.43s.66.5 1.05.3a7.36 7.36 0 0 0 .8-.48c4.25-2.82 8.64-5.21 12.89-8 3.93-2.6 8-4.79 12-7.14 8.3-4.87 16.45-10.21 25.12-13.85a19.81 19.81 0 0 0 7.4-5.28 4.81 4.81 0 0 1 1.33-1.12 72 72 0 0 0 7.47-5.2c1.86-1.31 2.94-3.63 4.29-5.62-3.17 1.07-5.92 3.39-8.85 5.09a1.43 1.43 0 0 0 -.74 1.23c-.09 1.16-.58 1.25-1.23.81a1.23 1.23 0 0 0 -1.83.25zm-187.72-71.7c3.88-.36 7.83-.72 11.77-1.11 1-.1 1.17-.36 1-1.86-.29-2.6-.5-5.21-.59-7.85 0-1.35-.22-2.69-.33-4-.09-1.12-.5-1.75-1.36-1.73-.41 0-.81 0-1.22 0-2.67.23-5.34.6-8 .68s-2.59.42-2.58 3.69c0 1.13.05 2.44-.69 3.08-1.28 1.08-1.3 2.71-1.32 4.39 0 1.42-.53 3.17.1 4.18.7 1.16 2.07.22 3.22.5zm130.33 129.4a2.09 2.09 0 0 0 -2-.3 26.86 26.86 0 0 1 -2.95.32c-2.21.27-4.46-.18-6.6.27-2.7.58-5.2-.71-7.8-.73a.5.5 0 0 1 -.51-.51.83.83 0 0 1 .3-.79 15.68 15.68 0 0 1 1.4-.95c4.35-2.51 8.4-5.9 12.83-8.19.69-.35 1-.94.65-2s-.89-1-1.56-.56c-3.23 2-6.54 3.83-9.67 6.14a81.2 81.2 0 0 1 -10.61 6.79c-5.12 2.66-10 6.22-15.13 8.71-1.58.75-3.11 1.71-4.66 2.57a13.2 13.2 0 0 0 4.62-1.12c3-1.1 6-2.23 8.94-3.33.56-.21 1.18-.15 1.67-.64.65-.66 0-1.47.07-2.21 0-.34.07-.64.32-.76s.46 0 .61.31a2.2 2.2 0 0 1 .26.61c.31 1.67 1.2 1.75 2.2 1.55s2.07-.39 3.11-.64a154.26 154.26 0 0 1 20.29-3.21 8 8 0 0 0 4.22-1.36zm-132.59 22.43c2.66-3.33 5.29-6.7 8-10 2.45-3 4.61-6.33 7-9.29 3.91-4.79 7.41-10.14 11.17-15.12a2.62 2.62 0 0 0 .24-.34 1.11 1.11 0 0 0 .28-1c-.14-.42-.48-.42-.76-.42-1.51 0-3 0-4.54-.11a2.45 2.45 0 0 0 -2.51 1.68c-1.23 2.51-2.5 5-3.78 7.47-3.5 6.76-7.18 13.34-11.17 19.58a40.23 40.23 0 0 0 -3.93 7.55zm37.36-48.81c2.94.88 3 .87 4.79-1.27.31-.37.59-.77.91-1.11 2.11-2.29 3.76-5.21 5.72-7.69 3.55-4.48 7.15-8.88 11-13 .38-.41.92-.73.88-1.61-1.21-.26-1.2-.24-1.91.52s-.89.57-1.24-.5c-.24-.71-.08-1.6-.7-2.35-7.12 8.05-13.25 17.32-19.45 27.01zm32.76 42.19a2 2 0 0 0 2.19 0 48.81 48.81 0 0 0 7.61-4.16 20.23 20.23 0 0 1 4.44-2.16 33.55 33.55 0 0 0 4.14-1.91c4.09-2.32 8.3-4.23 12.21-7.12a12.7 12.7 0 0 1 2.26-1.28 81.9 81.9 0 0 0 11.8-7.2c3.06-2.13 6.16-4.16 9.32-6 .65-.37 1.28-.79 1.9-1.21a1 1 0 0 0 .46-1.31c-.21-.53-.57-.42-.91-.21-.59.35-1.17.71-1.76 1.08-3 1.9-6.26 3-9.26 5-5.89 3.86-11.86 7.46-17.73 11.34-3.26 2.16-6.6 4-9.94 5.88-2.15 1.22-4.41 2.13-6.4 3.82a22.84 22.84 0 0 1 -6.08 3.59c-1.43.52-2.83 1.19-4.25 1.85zm-46.68-340.78c1.29 2.68 2.42 4.9 3.44 7.21.65 1.46 1.48 2 2.72 2a62.1 62.1 0 0 1 8.73.23 35.11 35.11 0 0 0 3.84 0c.4 0 .89 0 1.05-.6s-.3-1-.65-1.2c-.82-.61-1.63-1.23-2.48-1.77-3.34-2.13-6.92-3.29-10.46-4.59a21.55 21.55 0 0 0 -6.19-1.28zm-36.87 345.59c-.34-1.19-1.07-1-1.64-1.07a78.84 78.84 0 0 0 -14.33-.15c-5.87.33-11.74 1-17.62 1.26-3.9.2-7.79.73-11.68 1.11-5 .49-10 1.4-15 1.34a22.52 22.52 0 0 0 -4 .26 6.67 6.67 0 0 1 -2.44 0c-2.15-.44-2.66-.79-2.45 3.41a6.47 6.47 0 0 0 .57 2.45 4.26 4.26 0 0 1 2.58-3.05 24.93 24.93 0 0 1 8.2-2.27 99.22 99.22 0 0 0 10.45-1.22 85.46 85.46 0 0 1 13.75-1.54c7.22-.26 14.45-.08 21.67-.49 3.94-.22 7.89-.04 11.94-.04zm34.75-37c.13.21.16.31.2.32l6.43.46a1 1 0 0 0 .94-.52c1.58-2.45 3.16-4.89 4.72-7.36.44-.71.24-1.15-.4-1.27-1.67-.32-3.35-.59-5-1-1.5-.34-2.6.27-3.36 2.12-.42 1-1 2-1.46 3a44.88 44.88 0 0 0 -2.07 4.21zm95.5 14.19.13.62a11.7 11.7 0 0 0 3.78 0 6.79 6.79 0 0 1 1.91-.09c2.51.39 5-.53 7.47-.51a3.72 3.72 0 0 0 .68-.2c.7-.17.87-.68.54-1.53-.6-1.54-1.25-3.06-1.81-4.63-.4-1.13-1-1.25-1.71-.79s-1.73.95-2.57 1.5q-4.21 2.75-8.42 5.59zm-248.95-27.8c.1-6.24-.26-11.88-.29-17.53s.5-11.33.26-17.32a14.08 14.08 0 0 0 -1.56 13.49 6 6 0 0 1 .19 5.11c-.22.55-.34 1.18-.53 1.77a21.91 21.91 0 0 0 -.66 8.47 10.1 10.1 0 0 0 2.59 6.01zm212.05 44.89a11.26 11.26 0 0 0 4.17.1 30.82 30.82 0 0 1 5.73-.69c3.09.06 6.14-.76 9.21-1 .4 0 .84 0 1.05-.66.33-1 .74-2 1-3.06.31-1.37 0-1.83-1-1.54a32.16 32.16 0 0 0 -3.21 1.12 77.72 77.72 0 0 1 -12.72 4.22 12.11 12.11 0 0 0 -4.23 1.51zm66.72-35.86a12.42 12.42 0 0 0 -3 1.59q-3.74 2.36-7.46 4.72c-.95.6-1.9 1.23-2.84 1.85a1 1 0 0 0 -.35 1.36c.6 1.56 1.18 3.12 1.78 4.67.35.89.79.8 1.26.15.69-1 1.42-1.89 2.08-2.91a79.26 79.26 0 0 1 4.94-6.76 34.58 34.58 0 0 0 3.59-4.67zm-147.2-121.66c0-2.37-.17-2.73-1.87-2.5-2.71.37-5.41.9-8.11 1.41-.79.15-1.65 3.66-1.16 4.6a.75.75 0 0 0 .76.44 12.92 12.92 0 0 0 1.38-.18 49.66 49.66 0 0 1 7.25-1.13c1.54-.09 1.75-.39 1.75-2.64zm14.25 150.32a2.23 2.23 0 0 0 1.35-1.07c1.08-1.34 2.13-2.72 3.23-4 3.7-4.35 7.56-8.46 10.93-13.31.32-.46.68-.89 1-1.39s.15-1-.38-1.16c-.74-.2-1.15.44-1.63 1.07-4.14 5.57-7.91 11.65-12.4 16.75a11.88 11.88 0 0 0 -2.12 3.11zm25-31.06-.19-.5c-1 0-2-1-2.93.29-1.55 2.24-3.09 4.51-4.58 6.83-.54.84-.33 1.4.47 1.63a1.5 1.5 0 0 0 1.73-.75c.81-1.13 1.65-2.23 2.47-3.35zm-169.77-168.22c0-2.22.2-4.46-.34-6.63-.16-.66-.34-1.64-.9-1.54s-.57 1.22-.63 2a1.51 1.51 0 0 0 .15.89c1.09 1.17.59 2.6.33 3.92a33.28 33.28 0 0 0 -.6 6.84 6.64 6.64 0 0 0 .47 2.75c.2.41.43.85.81.78s.44-.66.45-1.13c.08-2.65.37-5.25.26-7.88zm122.09-137.79a.55.55 0 0 0 -.49.54c-.47 4.18-.92 8.36-1.38 12.54-.06.49.1.73.44.83.83.25 1.4-.24 1.42-1.42.03-4.14.01-8.27.01-12.49z"/><path d="m126.38 324.29a1.53 1.53 0 0 1 -.26 1.26c-16.07 22.86-29.64 48.56-44.22 73.12-.09.15-.3.16-.54.28a3 3 0 0 1 .62-2.17c2.51-5 5.13-9.87 7.87-14.65q7.82-13.65 15.82-27.1c4.06-6.78 8.14-13.54 12.5-20q3.09-4.56 6.29-9c.54-.68 1.01-1.51 1.92-1.74z"/><path d="m122.77 297.43a5.18 5.18 0 0 1 -1.27 2.94c-1.19 1.75-2.51 3.32-3.72 5-7.77 11-14.43 23.2-21 35.56q-5.07 9.61-10.12 19.24c-.71 1.33-1.36 2.72-2.07 4.17a1.34 1.34 0 0 1 -.08-1.59 63.15 63.15 0 0 1 2.83-6.61c5.5-10.61 10.89-21.32 16.69-31.64a210.26 210.26 0 0 1 16.43-25.12 4.82 4.82 0 0 1 2.31-1.95z"/><path d="m81.41 351.66a2.78 2.78 0 0 1 .46-2.38c1.88-4 3.8-8 5.69-12.06 4.8-10.2 9.54-20.44 14.94-30.08a192.11 192.11 0 0 1 13.08-20.23 12.52 12.52 0 0 1 .91-1.11c.13-.14.31-.17.58-.3a2.7 2.7 0 0 1 -.79 2.42l-4 5.95a223.31 223.31 0 0 0 -14.82 26c-4.87 9.85-9.68 19.75-14.52 29.62-.43.77-.69 1.71-1.53 2.17z"/><path d="m64.5 328.66a6.51 6.51 0 0 1 -.72 2.42c-2.49 5.58-4.6 11.46-6.65 17.36-3.47 10-6.86 20.07-10.3 30.1a42.51 42.51 0 0 1 -2.51 6.29c-.43.8-1 2.27-1.64 1.66-.88-.79.18-1.77.53-2.53 2-4.35 3.32-9.13 4.89-13.76 4.4-12.93 8.5-26.07 13.8-38.39a12.75 12.75 0 0 1 1.81-3.48c.29-.33.65-.33.79.33z"/><path d="m37.91 428.89c-.48 0-.67-.4-.51-.94a3.31 3.31 0 0 1 .6-1.15c3.79-4.56 6.24-10.49 8.89-16.21q5.69-12.21 11.34-24.45c.57-1.21 1.09-2.45 1.66-3.66.19-.39.47-.85.86-.58s.28.94.14 1.45a8.42 8.42 0 0 1 -.38 1.07c-5.21 12.48-10.72 24.7-16.7 36.51a29.29 29.29 0 0 1 -4.81 7.16c-.37.34-.68.73-1.09.8z"/><path d="m39.34 414a.46.46 0 0 1 -.43-.58 3 3 0 0 1 .4-1c2.51-3.73 4.32-8.12 6.27-12.37 3.07-6.68 6.37-13.18 9.12-20.13 2.16-5.47 4.22-11 6.33-16.52a7.39 7.39 0 0 1 .95-2c.18-.23.41-.35.61-.1a1 1 0 0 1 .13.63c-.12.53-.29 1-.46 1.55-5.32 15.67-12 30.23-19 44.63a28.94 28.94 0 0 1 -3 5c-.26.4-.5.83-.92.89z"/><path d="m122.23 180.62a19.05 19.05 0 0 1 2.23-7c2.91-5.74 4.94-12.12 7.18-18.35 3.19-8.88 6.06-18 9.63-26.6.26-.63.39-2 1.06-1.5s.29 1.59 0 2.35c-2.23 5.53-4.19 11.23-6.2 16.91-2.13 6-4.23 12.1-6.36 18.14a71.34 71.34 0 0 1 -3.28 7.91 35.21 35.21 0 0 0 -2.66 6.45c-.25.93-.6 1.75-1.43 1.86z"/><path d="m146.8 172.68a6.54 6.54 0 0 1 .25 3.72c-.71 4.27-1.44 8.53-2.4 12.72s-1.75 8.42-2.62 12.64a4.45 4.45 0 0 1 -.55 1.73.64.64 0 0 1 -.45.27c-.26 0-.44-.33-.43-.65a9.92 9.92 0 0 1 .19-1.64q2.72-13.72 5.44-27.44a2.28 2.28 0 0 1 .57-1.35z"/><path d="m363.85 321.78a58 58 0 0 1 -2 11.68 80.73 80.73 0 0 1 -6.77 16.9c-.35.66-.69 2.16-1.45 1.43-.57-.57.24-1.56.58-2.21a78.25 78.25 0 0 0 7.19-19.26 57.13 57.13 0 0 0 1.24-7.19c.05-.48.1-.95.19-1.41s.13-1.29.65-1.21.35.84.37 1.27z"/><path d="m368.32 334a3 3 0 0 1 .08 2.36 46.83 46.83 0 0 1 -3.17 11.34c-1.72 4.27-3.75 8.26-5.64 12.38-.26.56-.58 1.56-1.15 1.06s0-1.29.23-1.87c1.83-4.08 3.72-8.1 5.44-12.28a62.62 62.62 0 0 0 3.47-11.2 2.85 2.85 0 0 1 .74-1.79z"/><path d="m391.05 288.57a42.79 42.79 0 0 1 -1.65 11.66c-.94 3.19-2.09 6.23-3.22 9.29a6.8 6.8 0 0 1 -.58 1.18c-.11.18-.32.3-.47.13a.88.88 0 0 1 -.2-.59 18.08 18.08 0 0 1 .57-2c1-2.78 2-5.59 2.79-8.51a40.87 40.87 0 0 0 1.32-15.73c-.11-.85-.46-2.34.28-2.49s.67 1.41.79 2.28a24.79 24.79 0 0 1 .37 4.78z"/><path d="m336.84 194.51h6.12c.5 0 1.24-.11 1.23.85s-.76.79-1.26.81l-14.67.48a1.37 1.37 0 0 1 -.35 0c-.49-.08-1.25.15-1.23-.82s.76-.77 1.27-.85a66 66 0 0 1 8.89-.47z"/><path d="m395.93 301.16a26.73 26.73 0 0 1 -.72 5.88c-1 4.74-2.41 9.31-3.63 14 0 .15-.08.31-.13.45-.15.41-.28 1-.7.85s-.32-.91-.23-1.41.28-1.22.43-1.82c1-4.08 2.16-8.09 3-12.25a23.23 23.23 0 0 0 .62-8.24 4.18 4.18 0 0 1 0-.71c0-.41.1-.84.44-.92s.51.28.61.67a13.9 13.9 0 0 1 .31 3.5z"/><path d="m385.07 270.94c.08 5.48-1 10.71-1.9 16-.19 1.16-.42 2.32-.67 3.46-.09.38-.3.74-.65.53s-.27-.51-.23-.83c.1-.79.22-1.57.34-2.35 1-6.54 2.2-13 2-19.81a4.17 4.17 0 0 1 0-.71c0-.42.17-.83.49-.86s.54.37.55.78c.09 1.25.07 2.52.07 3.79z"/><path d="m359.59 315c.14 3.8-.91 7.28-2 10.74-.63 2.05-1.32 4.07-2 6.09-.14.41-.31 1-.72.83s-.27-.95-.13-1.43c.54-1.84 1.11-3.67 1.68-5.5 1.49-4.76 2.49-9.62 1.77-14.86a2.12 2.12 0 0 1 0-.71 1 1 0 0 1 .28-.54c.27-.19.44.13.53.4a11.85 11.85 0 0 1 .55 3.72c.05.36.04.76.04 1.26z"/><path d="m266.24 355.86c-.15.64-.34 1.48-.53 2.32-2.28 9.92-5.46 19.36-8.44 28.9-1.94 6.24-3.9 12.47-6.17 18.51a21.74 21.74 0 0 1 -4 6.91c-.45.51-1.08 1.59-1.61.76s.39-1.48.81-2a23.32 23.32 0 0 0 4.11-7.67c2.54-7.71 5-15.45 7.56-23.18s5-15.65 7-23.77a11.87 11.87 0 0 1 .41-1.32c.13-.35.29-.78.63-.67s.27.62.23 1.21z"/><path d="m239.37 368.67a6.39 6.39 0 0 1 -.56 3.33c-1.76 5.47-3.53 10.94-5.34 16.37-3 9.07-6.2 18-9.83 26.68a31.77 31.77 0 0 1 -5.47 9.23c-.48.52-1.11 1.79-1.71.79-.47-.81.49-1.45.94-2a36.89 36.89 0 0 0 5.78-10.41q7.74-19.69 14.25-40.21c.3-1 .62-1.9 1-2.82.15-.44.31-1.03.94-.96z"/><path d="m289.33 360a13.71 13.71 0 0 1 -.34 1.39c-4.25 12.67-7.84 25.74-12.22 38.34-.62 1.8-1.29 3.57-1.95 5.35a3.37 3.37 0 0 1 -.81 1.52c-.41.33-.71.07-.73-.51a3.75 3.75 0 0 1 .27-1.36c5.15-14.12 9.17-28.94 14.13-43.19.25-.71.53-1.42.81-2.11.12-.28.31-.51.57-.4s.3.44.27.97z"/><path d="m213.07 399.37a2.48 2.48 0 0 1 -.11 2.21c-3.34 10.18-6.72 20.33-10.93 29.92a26.68 26.68 0 0 1 -3.63 6.08 12.33 12.33 0 0 1 -1.1 1.17c-.25.23-.55.38-.8 0a.94.94 0 0 1 .08-1.06 8.15 8.15 0 0 1 .6-.86 36.86 36.86 0 0 0 5.4-9.91c3.38-8.29 6.36-16.85 9.24-25.49a3.62 3.62 0 0 1 1.25-2.06z"/><path d="m254.61 215.07c-.15.67-.25 1.37-.45 2-5.13 16.78-9.6 33.92-14.77 50.67a85.77 85.77 0 0 1 -11.2 23.54l-.12.17c-.43.47-.86 1.54-1.41.81s.17-1.44.54-2c5.8-8.15 9.61-17.95 12.64-28.42 4.28-14.84 8.42-29.76 12.9-44.49a12.45 12.45 0 0 1 1-2.76c.15-.26.37-.44.6-.25s.18.46.27.73z"/><path d="m275.76 233.65c-.09.47-.15.95-.27 1.39-2.57 9.4-4.62 19.06-7.29 28.41a66.1 66.1 0 0 1 -4.86 12.39c-.32.61-.65 1.8-1.25 1.29-.79-.67 0-1.54.33-2.17a83.73 83.73 0 0 0 6-16.95c1.9-7.7 3.91-15.34 6-23a16.72 16.72 0 0 1 .58-1.73c.11-.28.35-.47.59-.26s.09.4.17.63z"/><path d="m243.61 178.43c-.35-.13-.44-.5-.33-.92a3.46 3.46 0 0 1 1-1.35 67.76 67.76 0 0 0 11.29-18.39c2.36-6 4.37-12.15 6.3-18.4q1.46-4.74 2.9-9.48c.16-.51.34-1 .54-1.5.12-.27.3-.54.57-.41a.71.71 0 0 1 .27.77 8.88 8.88 0 0 1 -.28 1.38c-2.57 8.28-5 16.67-7.87 24.77a68.29 68.29 0 0 1 -13.15 22.66c-.39.44-.71.9-1.24.87z"/><path d="m289.3 129.17c-.21 1-.46 2.21-.74 3.43-1.88 8.14-3.3 16.46-4.95 24.69-1.07 5.3-2.63 10.25-5.45 14.28-.49.71-1 2.44-1.81 1.47-.64-.78.46-1.77.91-2.45a38 38 0 0 0 5.21-13.67q2.47-12.09 5-24.2c.28-1.38.62-2.74 1-4.1.11-.43.28-1 .73-.74s.19.64.1 1.29z"/><path d="m296.25 197.48c-.46-.15-1.41.2-1.42-.95s.93-.93 1.53-1a120.41 120.41 0 0 1 16.22-.53c.56 0 1.53-.36 1.47.94 0 1-.92.73-1.46.71-4.14-.15-8.26.28-12.39.46-1.28.06-2.55.23-3.95.37z"/><path d="m191.84 360.09a83 83 0 0 1 1.47-8.47c1.58-6.85 3.62-13.47 5.52-20.16.21-.75.41-2.14 1.13-1.73s.23 1.68 0 2.5c-1.32 4.78-2.68 9.53-4 14.29a114.34 114.34 0 0 0 -2.85 13.06c-.05.31-.07.63-.14.94-.12.52-.21 1.14-.74 1.12-.33-.01-.44-.49-.39-1.55z"/><path d="m191.86 372.52c-.38 0-.57-.28-.55-.76a2.85 2.85 0 0 1 .42-1.29c3.66-7 6.8-14.46 10.26-21.64.32-.66.66-1.3 1-1.92.22-.37.53-.74.89-.38s.14.88 0 1.31a7.38 7.38 0 0 1 -.41 1.05c-3.58 7.26-6.62 15-10.46 22-.3.65-.55 1.42-1.15 1.63z"/><path d="m233 468.26c-1.62 0-3.25 0-4.88 0a20.82 20.82 0 0 1 -2.61-.28c-.45-.06-1.1 0-1-.91s.69-.74 1.15-.74a59.91 59.91 0 0 1 6.29.13 46.65 46.65 0 0 0 6.46.3 4.51 4.51 0 0 1 1.22.06c.61.16.77.73.35 1.36a3 3 0 0 1 -2 1.61c-3.54.4-7.07 1.05-10.61 1.32a80 80 0 0 1 -10.48.6c-.66 0-1.84.49-1.8-.94 0-1.08 1.16-.61 1.8-.64a104 104 0 0 0 16.11-1.87z"/><path d="m337.89 360.49c.45.53.23 1.09.17 1.6a65.17 65.17 0 0 1 -3.43 13.77c-1.47 4.08-3.24 7.94-5 11.77-.29.62-.61 1.8-1.23 1.26s0-1.42.3-2.05a118.79 118.79 0 0 0 7.07-18.92c.54-2 1-4.07 1.54-6.11.09-.5.15-1.08.58-1.32z"/><path d="m331.94 356.87a24.8 24.8 0 0 1 -.84 6.41 86.89 86.89 0 0 1 -4.39 13.81 5.71 5.71 0 0 1 -.49 1 .47.47 0 0 1 -.46.19c-.26-.11-.32-.47-.23-.78.19-.66.4-1.32.65-1.95a91.75 91.75 0 0 0 3.95-13.55 22.28 22.28 0 0 0 .26-9.2c-.13-.7-.56-1.8.21-2.05s.75 1 .9 1.71a17.93 17.93 0 0 1 .44 4.41z"/><path d="m340.92 371.19a2 2 0 0 1 0 1.7 35.58 35.58 0 0 1 -2.65 7.75c-1.84 3.57-3.67 7.16-5.5 10.74a3.58 3.58 0 0 1 -.21.39c-.31.41-.58 1.32-1.07.82s0-1.17.27-1.65q2.25-4.54 4.54-9.05a50.4 50.4 0 0 0 3.62-9c.21-.6.31-1.36 1-1.7z"/><path d="m204.47 183.31c-.27-.07-.38-.34-.38-.68a3.29 3.29 0 0 1 .48-1.52c3-5.76 4.79-12.39 7-18.7q1.68-4.74 3.38-9.47a8.29 8.29 0 0 1 .55-1.21c.14-.25.33-.49.59-.33a.72.72 0 0 1 .25.8c-.16.67-.34 1.36-.56 2-2.19 6.17-4.34 12.37-6.32 18.67a65 65 0 0 1 -4.07 9.48c-.21.46-.39.95-.92.96z"/><path d="m204.62 166.91a77.55 77.55 0 0 1 1.28-7.69c.89-4.13 1.85-8.23 2.83-12.31.17-.73.27-2.11 1.1-1.65.62.33.14 1.45 0 2.15-1.56 6.19-2.94 12.43-4 18.82a8.81 8.81 0 0 1 -.18.92c-.12.45-.24 1-.71.77-.34-.15-.33-.61-.32-1.01z"/><path d="m254.46 91.34c-.19-.13-.39-.18-.47-.35a1.14 1.14 0 0 1 0-.66 3.1 3.1 0 0 1 1-1.26 35.86 35.86 0 0 0 7.41-9.67q3.4-6.06 6.82-12.1c.34-.6.74-1.8 1.25-1.27.69.72-.14 1.54-.48 2.15-3 5.44-5.88 11.08-9.16 16.26a31.09 31.09 0 0 1 -5.63 6.37 5.84 5.84 0 0 1 -.74.53z"/><path d="m280.59 90.34a.57.57 0 0 1 -.35-.76 5.21 5.21 0 0 1 .6-1.15 36.9 36.9 0 0 0 5.8-12.9c.47-1.8 1-3.58 1.47-5.36a3.23 3.23 0 0 1 .59-1.44c.3-.29.6-.17.63.35a4.69 4.69 0 0 1 -.17 1.39 111.48 111.48 0 0 1 -3.5 11.7 29.41 29.41 0 0 1 -4.13 7.35c-.29.38-.53.83-.94.82z"/><path d="m205.32 459.74c-.32 0-.44-.32-.4-.65a3 3 0 0 1 .3-1.1c3.26-6.27 4.87-13.58 6.9-20.62.23-.81.52-1.6.81-2.38.11-.28.34-.46.59-.33a.7.7 0 0 1 .3.77 7.29 7.29 0 0 1 -.21 1.15c-1.27 4.55-2.5 9.12-3.85 13.62a51.43 51.43 0 0 1 -3.57 8.5c-.19.44-.42.97-.87 1.04z"/></g></g></g></svg>