<svg viewBox="0 0 496.18 496.18" xmlns="http://www.w3.org/2000/svg"><path d="m0 0h496.18v496.18h-496.18z" fill="none"/><g transform="translate(-7.43 -7.41)"><path d="m495.53 292c0-2.09-1.44-3.23-2.75-4.53-5.23-5.17-7.12-18.05-3.72-24.59 4-7.64 5-16.21 7.38-24.33.73-2.46-1-4.73-3.05-5.83-2.39-1.29-3.44 1.07-4.49 2.74-2.12 3.39-5.12 5.38-9.15 4.87-3.05-.38-3.86.86-3.8 3.57.08 3.87-1.55 6.76-5.25 8.25-5.76 2.31-14.86.55-19-4.13a20 20 0 0 0 -10.33-6.47c-5.67-1.52-10.41-4.22-11.18-11.15-.41-3.65-3.43-5.64-6.93-6.35-5.84-1.17-11.71-2.2-17.59-3.17-9.5-1.57-13.7-7-12.94-16.56.25-3.13 2.45-6 1.2-9.26-1.6-4.16-.27-7.77 1.45-11.5 3.51-7.58 8.62-14.31 9.79-23.16.62-4.67-.12-5.07-4.13-5.75-7.21-1.22-14.86-1.87-18.62-10.18-1.27-2.79-4-5.08-7.09-6.78-6.1-3.33-12.32-7.17-17.22-11.68-7.21-6.63-14.68-4.71-22-3.52-8.6 1.41-8.42 2.23-12.22-5.9-1.38-3-3.14-4.53-5.73-.92a12.74 12.74 0 0 1 -2.8 2.83c-3 2.2-6.3.94-9-.2-3-1.26-.57-3.58 0-5.5.73-2.46-.33-4.26-2.66-5.19-2.17-.86-4.54-1.29-6.57-2.38-3.58-1.95-6.3-.87-9 1.66-2.4 2.28-4.48 4.94-7.53 6.51-1.28.66-3.08 1.28-2.7 3.13.41 2 2.18 2.8 4.09 3.13 3.48.6 6.51-.87 9.66-2 5.88-2.06 7.26-.93 6.64 5a35.45 35.45 0 0 0 .28 4.45c.14 5.35-3.13 7.57-7.86 5.13-1.45-.74-2.18-.75-3.42.35-6.89 6.14-15.74 7.64-23.23 2.48-8-5.48-14.11-4-21.79.88-7.11 4.54-15.63 8.33-23.91.92-2-1.82-4.31-1.24-6.46.12-2.39 1.51-4.63 3.28-7.44 4-3.38.87-6.68 2.12-10.25.7s-1.14-5-2.35-7.25c-2.53.56-3 3-4.74 3.94s-3.63 1.64-5.44 2.48c-1.35.64-1 1.87-1.07 3-.63 7-7.16 10.08-10.39 15.37a.6.6 0 0 1 -.46.17c-7.59-.36-14.73 5.12-22.74 1.28-3.3-1.58-6.5-2.52-7.23-6.6-.46-2.59-1.82-4.4-4.61-4.34-3.1.07-7.2-.6-8.55 2.67a64.42 64.42 0 0 1 -8.63 14.34c2.48-.47 4.09-.85 5.71-1.05 3.4-.4 6.45.25 7.84 3.81 1.33 3.41 0 6.23-2.68 8.4a13 13 0 0 1 -3.91 2.16 5.81 5.81 0 0 0 -4.35 5.41 13.29 13.29 0 0 1 -4.23 8.83c-5.26 4.6-10.19 9.59-16 13.54a22.1 22.1 0 0 0 -8.29 10.32c-1.68 4.15-4.09 8-8.27 10.34s-8.39 4.72-12.57 7.11c-1.48.84-3.36 2-2.61 3.77 2.27 5.4.74 10.05-2 14.7a3.74 3.74 0 0 0 0 2.88c1.91 4.69-.23 8-3.47 11.07-5 4.68-11.14 7.94-16.29 12.31-6.22 5.27-16.11 8.47-13.93 19.92.34 1.79-1.69 3.12-2.61 4.67-3.21 5.44-5.36 13.52 2.27 17.67 4 2.18 4.19 5.79.9 9-2.2 2.11-3.2 3.95-2.57 7.34 1.73 9.33-1 12.14-10.42 12.16a4.93 4.93 0 0 0 -2.8.75 5.94 5.94 0 0 0 -2.55 5.64c.15 1.38 1.17 2.38 2.35 2.05 6-1.7 13.07-1 17.32-6.5 2.53-3.27 5.25-5.42 9.48-6.34-4.16-1.84-8.59-4-6.63-9.08 3.37-8.72 7.6-17.21 17.75-20.2 6.86-2 13.75-3.93 20.61-6s13.56-1.11 20.22.49c7.37 1.77 10.19 6.66 8 13.92a7.61 7.61 0 0 0 1.44 7.75c5.53 7.18 6.69 14.77 1 22.5-1.86 2.52-1.4 4.34 1.47 5.43 3.6 1.36 5.22 3.86 5.06 7.69-.08 1.92.37 3.92 2.67 4.17 3.87.43 5.5 3.35 7.49 6 4.45 5.93 6.34 14.16 14.88 16.44a3.6 3.6 0 0 1 1.84 2.26c1.73 5.82 4.66 3.63 7.6 1.21a52.92 52.92 0 0 0 4.42-4c2.21-2.31 4.83-3.05 7.73-1.88 5.39 2.18 9.76 0 13.84-3.11a53 53 0 0 0 6.17-5.82c1.57-1.67 3.61-2.61 5.32-1.31 4.58 3.48 10.59 3.62 15.19 7.18s11.16 1.28 13.2-4c1.19-3.05 3-5 6.38-5.55 6.33-1 10.12-5.18 10.67-11.61.29-3.46 1.54-6.09 5-7.29 7.47-2.59 9.82-10.34 5.08-16.74-5.41-7.31-3.62-12.05 5.47-13.81 2.34-.45 3.59-1.78 5.27-3.17 5-4.12 10.08-8 12.62-14.26.5-1.24 2.12-2.08 3.33-3a11.26 11.26 0 0 1 12.29-1c4 2 3.2 6 3.15 9.74-.09 6.46-.27 12.91-1 19.33-.29 2.57.57 4.14 3.46 4.25 3.7.14 5.59 2.37 6.51 5.82 1.47 5.49 5.87 9.19 8.71 13.86.83 1.37 2.21 1.31 3.57.84 5.34-1.86 9.75.39 14.06 3.14 5.07 3.25 5.75 6.33 1.9 11-2 2.43-1.5 3.59 1 4.94 3.73 2 7.36 4.26 10.53 6.11 2.5-5.35 4.91-10.59 7.42-15.78.24-.51 1.06-.77 1.65-1.07 1.3-.65 1.58-2 2.32-3.06 4.46-6.34 4.16-16.08 13.51-19a4.1 4.1 0 0 0 2-2.73c2.27-10.77 10.32-20.47 5.6-32.6-1.47-3.78.3-7.58 3.67-10.17a8.24 8.24 0 0 1 10.21-.47 3.55 3.55 0 0 0 3.67.36c7.52-3 10.69-.43 9.65 7.57-.79 6.1.47 11.55 4.64 16.23a15.81 15.81 0 0 0 10.8 5.54 7.57 7.57 0 0 0 8.13-4.34 3.77 3.77 0 0 1 2-1.37c6.75-2.34 13.35-5.23 20.65-5.53 6.84-.27 8.37.94 9.66 7.62.12.63.18 1.59.58 1.8 4.76 2.47 6.48 7.45 9.47 11.36.86 1.12 1.56 2.32 3.17 1.27a2.63 2.63 0 0 0 .86-3.55 17.05 17.05 0 0 0 -2.15-3.33c-4.07-5.25-4.35-7.79-1-13.59 1.07-1.86 1.75-3.25-.78-4.34-4.8-2.06-5.88-6.05-5.24-10.73a11.81 11.81 0 0 0 -.61-5.88c-1.75-4.63-.43-8.75 2.84-11.93a27.83 27.83 0 0 1 16.42-7.75c2.82-.33 5.16.76 5.67 3.69.76 4.37 3.68 5.17 7.28 5 2.79-.16 5.3.15 7.37 2.25.79.8 1.67 1.85 3 1s1.47-2.05 1.48-3.42z" fill="#fff8ff"/><path d="m125 172a66.48 66.48 0 0 1 -7.4 1.11 6.82 6.82 0 0 1 -7.08-4.52c-1.13-2.93.24-5.25 2.61-6.89a14.33 14.33 0 0 0 6.17-8.82c1.07-5.73 4.92-7.5 9.66-8.6a31.55 31.55 0 0 1 4.94-.67c7.71-.53 8.68 0 11.83 7 2.09 4.58 8 7 12.51 5 2.13-1 4.15-2.14 6.58-2.11.33 0 .92 0 1-.11 1.53-5.11 8.28-6.11 9.19-11.72.21-1.28.34-3.25 1.15-3.67 6.22-3.19 10.8-9.48 18.34-10.13 3.75-.32 6.76.79 6.54 5.4-.13 2.87 1.44 2.67 3.14 1.79s3.3-2.24 5-3.28c5.46-3.35 9.25-3 13.9 1.16 3 2.72 10.15 2.1 15.84-1.45 2-1.24 3.76-2.77 5.79-3.9 7.07-4 14-3.56 20.7 1a16.8 16.8 0 0 0 11.37 2.93 11.22 11.22 0 0 0 4.7-1.44c1.72-1.06 2.3-2.57-.36-3.47a26.59 26.59 0 0 1 -3.76-1.33c-7.44-3.86-7.83-12.16-1-16.72 3.71-2.48 7.15-5.4 10.62-8.24s7.32-3.74 11.58-1.69a14.44 14.44 0 0 0 3.72 1.43c6 1 10 4.24 11.72 10.17 5.73-4.39 12.65-2.49 15.5 4.26.88 2.08 1.39 2.69 3.89 2 6.23-1.84 12.75-1.39 19.16-1.09a11.28 11.28 0 0 1 6.3 2.81 194.68 194.68 0 0 0 22.37 15.67c3 1.76 4.8 4.82 6.43 7.5 3.43 5.67 8.64 6.76 14.34 7.5a26.53 26.53 0 0 1 4.9.82c3.14 1 5.86 3.57 5 6.59-1.75 6.26-.82 13.29-5.29 18.83-3.18 3.94-4.82 8.71-6.57 13.38-.35.92-.89 2.24-.51 2.89 2.53 4.31.48 8.3-.4 12.49-1.34 6.44.32 9.1 6.84 10.68a170.69 170.69 0 0 0 17.04 3.02c6.25.86 12 5 13.3 11.15.89 4.34 3.38 6.4 7.23 7.11a19.28 19.28 0 0 1 12 7.37c2.93 3.72 7.19 3.77 11.44 3.38 2.08-.2 2.49-1.75 2.79-3.54 1.43-8.54 1.83-8.91 9.92-8.64a4.67 4.67 0 0 0 4.46-2.51c3-4.62 8-6.92 11.53-5.52s8 9.82 6.66 13.55c-3 8.63-4 17.89-8.23 26.16-2.38 4.61-.23 14.29 3.52 17.92 4.29 4.15 5.11 8.72 2.41 13.5-2.54 4.53-6.55 5.6-10.92 2.8-1.68-1.07-3.11-2.47-5.34-2.35-5.52.29-10.28-.95-12.87-6.54a3 3 0 0 0 -2-1.35c-5.3-1.14-12.88 6.56-11.67 11.84.56 2.44 1.36 4.81.84 7.37-.57 2.81.3 4.56 3.16 5.86 4.69 2.13 6 6.47 2.93 10.69-2.89 4-2.11 6.57.74 10.06 5.05 6.2 3.19 12.85-3.75 15.22-3.72 1.28-6.37.3-8.34-3.23-2.41-4.29-4.64-8.75-9.77-10.78-2.52-1-2.66-3.6-2.18-6.06.44-2.26-.4-2.9-2.7-2.74-5.73.41-11 2.51-16.44 4.06a3.8 3.8 0 0 0 -2 1.38c-1.49 2.31-2.09 5.36-5.6 5.76-4.83.56-9.68 1-14.29-.93-9.54-4.05-14.09-11.69-15.19-21.7-.1-.82 0-1.66-.08-2.49 0-.65-.13-1.3-.25-2.48-4.06 2.32-7.5 2.61-9.94-2-.73-1.39-2.36-.72-3.39.39a3.52 3.52 0 0 0 -.8 3.74c5.69 14-3.69 25.24-6.95 37.58a4.51 4.51 0 0 1 -2 2.79c-8.28 3.84-10 11.86-12.68 19.35-.21.61-.56 1.49-1 1.65-5.61 1.88-4 7.35-5.63 11.17-.9 2.1 1 3 1.88 4.25 4.45 6.7 4.26 13.25-.51 18.84-3.35 3.92-7.35 4.87-12.11 3s-5.76-3.9-3.75-8.81c2.37-5.82.95-9.8-4.8-12.62a31.65 31.65 0 0 1 -7.66-5.53c-2.64-2.46-3.1-5.37-1.41-8.61 2.05-3.95.92-6.18-3.55-7.09a7.44 7.44 0 0 0 -4.87.62c-4.09 2-7.21.56-9.36-3-3.17-5.27-7.78-9.62-10-15.5a3.14 3.14 0 0 0 -3.5-2.17c-5.43.26-7.05-3.38-7-7.71.06-7.11 1.77-14.16.86-21.34-.24-2 1.76-4.59-1.21-5.63-2.72-.95-5.77.84-6.25 2.94-1.92 8.55-10.6 10.67-15 16.77-1.39 1.92-3.92 2.44-6.3 2.68-2.86.27-3.63 1.36-1.62 3.75 3.36 4 3.59 8.94 3.4 13.76-.23 6-2.77 10.62-9.1 12.22-2 .51-2.82 1.69-3.3 3.77-1.86 8-5.34 14.67-14.67 15.79-1.73.21-2.41 1.45-3.07 2.9-3.54 7.91-14.02 11.15-21.02 6.15-3.81-2.76-8.4-3-12.31-5.28-2.22-1.29-4.07.81-5.56 2.32a25.23 25.23 0 0 1 -14 7.16c-1 .17-2.21.77-2.9.39-6.11-3.35-9.38 1-13.21 4.44-5.79 5.21-10.85 4.29-14.34-2.5-1-2-2.68-2.8-4.48-3.67a16.4 16.4 0 0 1 -8.87-9.53c-1.57-4.21-3.22-9-9.69-9-3.55 0-4.83-3.84-5.22-7.07a11.28 11.28 0 0 0 -4.7-8.23c-4.71-3.63-4.8-6.71-1.45-11.67 4.7-6.95 4.67-10.19-.66-16.44-3-3.48-4-7-2.48-11.48 1.72-5.07.39-6.89-4.94-8-3.78-.82-7.75-1.3-11.42-.46-8.73 2-17.34 4.57-26 6.94-6.91 1.9-8.57 8.36-11.6 13.57-1.08 1.87.61 2.2 1.94 2.5 3.13.7 6 2 5.9 5.67-.06 4.18-3 6.09-6.67 7-2 .5-3.86 1-4.92 3-2.44 4.51-6.72 6.22-11.34 7.4-2.42.62-4.86 1.15-7.25 1.83-3.79 1.06-7.66 2-10.73-1.34s-2.09-7.28-.67-10.86c1.53-3.85 4.15-6.84 8.81-7.08 7.14-.37 7.18-.39 6-7.49-.38-2.4-.61-4.89 1.1-6.66 3.06-3.16 1.54-4.91-1.19-7.14-3.74-3.06-5.38-6.68-3.28-11.89 1.7-4.2 1.21-9.26 5.15-12.61a1.56 1.56 0 0 0 .42-1.37c-3.06-9.41 4.93-12.83 9.79-17.76 5.76-5.84 13.27-9.45 19.66-14.53 3.12-2.48 4.14-5.17 4.38-9.6.37-6.83 2.36-13.6 2.46-20.65 0-3.15 3.84-4.63 6.57-6.33 5.29-3.29 12.14-5.12 14.79-11.28 4.32-10.06 12.71-16 20.7-22.44 4.63-3.75 9.54-7.24 9.52-14.32 0-2.81 2.43-4.58 5-5.71 1.69-.83 3.69-1.03 4.69-3.83zm-80.59 174.67c-4.16-1.84-8.59-4-6.63-9.08 3.37-8.72 7.6-17.21 17.75-20.2 6.86-2 13.75-3.93 20.61-6s13.56-1.11 20.22.49c7.37 1.77 10.19 6.66 8 13.92a7.61 7.61 0 0 0 1.44 7.75c5.53 7.18 6.69 14.77 1 22.5-1.86 2.52-1.4 4.34 1.47 5.43 3.6 1.36 5.22 3.86 5.06 7.69-.08 1.92.37 3.92 2.67 4.17 3.87.43 5.5 3.35 7.49 6 4.45 5.93 6.34 14.16 14.88 16.44a3.6 3.6 0 0 1 1.84 2.26c1.73 5.82 4.66 3.63 7.6 1.21a52.92 52.92 0 0 0 4.42-4c2.21-2.31 4.83-3.05 7.73-1.88 5.39 2.18 9.76 0 13.84-3.11a53 53 0 0 0 6.17-5.82c1.57-1.67 3.61-2.61 5.32-1.31 4.58 3.48 10.59 3.62 15.19 7.18s11.16 1.28 13.2-4c1.19-3.05 3-5 6.38-5.55 6.33-1 10.12-5.18 10.67-11.61.29-3.46 1.54-6.09 5-7.29 7.47-2.59 9.82-10.34 5.08-16.74-5.41-7.31-3.62-12.05 5.47-13.81 2.34-.45 3.59-1.78 5.27-3.17 5-4.12 10.08-8 12.62-14.26.5-1.24 2.12-2.08 3.33-3a11.26 11.26 0 0 1 12.29-1c4 2 3.2 6 3.15 9.74-.09 6.46-.27 12.91-1 19.33-.29 2.57.57 4.14 3.46 4.25 3.7.14 5.59 2.37 6.51 5.82 1.47 5.49 5.87 9.19 8.71 13.86.83 1.37 2.21 1.31 3.57.84 5.34-1.86 9.75.39 14.06 3.14 5.07 3.25 5.75 6.33 1.9 11-2 2.43-1.5 3.59 1 4.94 3.73 2 7.36 4.26 10.53 6.11 2.5-5.35 4.91-10.59 7.42-15.78.24-.51 1.06-.77 1.65-1.07 1.3-.65 1.58-2 2.32-3.06 4.46-6.34 4.16-16.08 13.51-19a4.1 4.1 0 0 0 2-2.73c2.27-10.77 10.32-20.47 5.6-32.6-1.47-3.78.3-7.58 3.67-10.17a8.24 8.24 0 0 1 10.21-.47 3.55 3.55 0 0 0 3.67.36c7.52-3 10.69-.43 9.65 7.57-.79 6.1.47 11.55 4.64 16.23a15.81 15.81 0 0 0 10.8 5.54 7.57 7.57 0 0 0 8.13-4.34 3.77 3.77 0 0 1 2-1.37c6.75-2.34 13.35-5.23 20.65-5.53 6.84-.27 8.37.94 9.66 7.62.12.63.18 1.59.58 1.8 4.76 2.47 6.48 7.45 9.47 11.36.86 1.12 1.56 2.32 3.17 1.27a2.63 2.63 0 0 0 .86-3.55 17.05 17.05 0 0 0 -2.15-3.33c-4.07-5.25-4.35-7.79-1-13.59 1.07-1.86 1.75-3.25-.78-4.34-4.8-2.06-5.88-6.05-5.24-10.73a11.7 11.7 0 0 0 -.61-5.88c-1.75-4.63-.43-8.75 2.84-11.93a27.83 27.83 0 0 1 16.42-7.75c2.82-.33 5.16.76 5.67 3.69.76 4.37 3.68 5.17 7.28 5 2.79-.16 5.3.15 7.37 2.25.79.8 1.67 1.85 3 1s1.48-2.11 1.49-3.5c0-2.09-1.44-3.23-2.75-4.53-5.23-5.17-7.12-18.05-3.72-24.59 4-7.64 5-16.21 7.38-24.33.73-2.46-1-4.73-3.05-5.83-2.39-1.29-3.44 1.07-4.49 2.74-2.12 3.39-5.12 5.38-9.15 4.87-3.05-.38-3.86.86-3.8 3.57.08 3.87-1.55 6.76-5.25 8.25-5.76 2.31-14.86.55-19-4.13a20 20 0 0 0 -10.33-6.47c-5.67-1.52-10.41-4.22-11.18-11.15-.41-3.65-3.43-5.64-6.93-6.35-5.84-1.17-11.71-2.2-17.59-3.17-9.5-1.57-13.7-7-12.94-16.56.25-3.13 2.45-6 1.2-9.26-1.6-4.16-.27-7.77 1.45-11.5 3.51-7.58 8.62-14.31 9.79-23.16.62-4.67-.12-5.07-4.13-5.75-7.21-1.22-14.86-1.87-18.62-10.18-1.27-2.79-4-5.08-7.09-6.78-6.1-3.33-12.32-7.17-17.22-11.68-7.21-6.63-14.68-4.71-22-3.52-8.6 1.41-8.42 2.23-12.22-5.9-1.38-3-3.14-4.53-5.73-.92a12.74 12.74 0 0 1 -2.8 2.83c-3 2.2-6.3.94-9-.2-3-1.26-.57-3.58 0-5.5.73-2.46-.33-4.26-2.66-5.19-2.17-.86-4.54-1.29-6.57-2.38-3.58-1.95-6.3-.87-9 1.66-2.4 2.28-4.48 4.94-7.53 6.51-1.28.66-3.08 1.28-2.7 3.13.41 2 2.18 2.8 4.09 3.13 3.48.6 6.51-.87 9.66-2 5.88-2.06 7.26-.93 6.64 5a35.45 35.45 0 0 0 .28 4.45c.14 5.35-3.13 7.57-7.86 5.13-1.45-.74-2.18-.75-3.42.35-6.89 6.14-15.74 7.64-23.23 2.48-8-5.48-14.11-4-21.79.88-7.11 4.54-15.63 8.33-23.91.92-2-1.82-4.31-1.24-6.46.12-2.39 1.51-4.63 3.28-7.44 4-3.38.87-6.68 2.12-10.25.7s-1.14-5-2.35-7.25c-2.53.56-3 3-4.74 3.94s-3.63 1.64-5.44 2.48c-1.35.64-1 1.87-1.07 3-.63 7-7.16 10.08-10.39 15.37a.6.6 0 0 1 -.46.17c-7.59-.36-14.73 5.12-22.74 1.28-3.3-1.58-6.5-2.52-7.23-6.6-.46-2.59-1.82-4.4-4.61-4.34-3.1.07-7.2-.6-8.55 2.67a64.42 64.42 0 0 1 -8.73 14.46c2.48-.47 4.09-.85 5.71-1.05 3.4-.4 6.45.25 7.84 3.81 1.33 3.41 0 6.23-2.68 8.4a13 13 0 0 1 -3.91 2.16 5.81 5.81 0 0 0 -4.35 5.41 13.29 13.29 0 0 1 -4.23 8.83c-5.26 4.6-10.19 9.59-16 13.54a22.1 22.1 0 0 0 -8.29 10.32c-1.68 4.15-4.09 8-8.27 10.34s-8.39 4.72-12.57 7.11c-1.48.84-3.36 2-2.61 3.77 2.27 5.4.74 10.05-2 14.7a3.74 3.74 0 0 0 0 2.88c1.91 4.69-.23 8-3.47 11.07-5 4.68-11.14 7.94-16.29 12.31-6.22 5.27-16.11 8.47-13.93 19.92.34 1.79-1.69 3.12-2.61 4.67-3.21 5.44-5.36 13.52 2.27 17.67 4 2.18 4.19 5.79.9 9-2.2 2.11-3.2 3.95-2.57 7.34 1.73 9.33-1 12.14-10.42 12.16a4.93 4.93 0 0 0 -2.8.75 5.94 5.94 0 0 0 -2.55 5.64c.15 1.38 1.17 2.38 2.35 2.05 6-1.7 13.07-1 17.32-6.5 2.62-3.31 5.34-5.46 9.57-6.38z" fill="#001400" stroke="#001400" stroke-miterlimit="10"/></g></svg>